G04*
G04 #@! TF.GenerationSoftware,Altium Limited,Altium Designer,23.1.1 (15)*
G04*
G04 Layer_Color=16711935*
%FSLAX44Y44*%
%MOMM*%
G71*
G04*
G04 #@! TF.SameCoordinates,345DAF32-99A9-4D4A-B197-A4A65CCBA2EF*
G04*
G04*
G04 #@! TF.FilePolarity,Positive*
G04*
G01*
G75*
%ADD10C,0.2000*%
%ADD11C,0.1270*%
%ADD38C,0.0254*%
D10*
X34000Y76010D02*
G03*
X34000Y76010I-1000J0D01*
G01*
X116930Y169016D02*
G03*
X116930Y169016I-1000J0D01*
G01*
X113000Y141940D02*
G03*
X113000Y141940I-1000J0D01*
G01*
D11*
X80300Y76010D02*
G03*
X80300Y76010I-20300J0D01*
G01*
X87500Y141940D02*
G03*
X87500Y141940I-27500J0D01*
G01*
X102930Y153765D02*
X118930D01*
X102930Y145765D02*
Y153765D01*
Y145765D02*
X118930D01*
Y153765D01*
X118730Y118245D02*
Y129246D01*
X113130Y118245D02*
Y129246D01*
X118730D01*
X113130Y118245D02*
X118730D01*
X103130D02*
X108730D01*
X103130Y129246D02*
X108730D01*
X103130Y118245D02*
Y129246D01*
X108730Y118245D02*
Y129246D01*
X80130Y42350D02*
X111130D01*
X80130D02*
Y57850D01*
X111130D01*
Y42350D02*
Y57850D01*
X36330Y44400D02*
X41930D01*
X36330D02*
Y55000D01*
X41930D01*
Y44400D02*
Y55000D01*
X85330Y89300D02*
X98930D01*
X85330Y68300D02*
X98930D01*
Y89300D01*
X85330Y68300D02*
Y89300D01*
D38*
X3368Y79218D02*
X30292D01*
Y45182D02*
Y79218D01*
X3368Y45182D02*
X30292D01*
X3368D02*
Y79218D01*
X30292Y45182D02*
Y52802D01*
X3368Y45182D02*
X30292D01*
X3368D02*
Y52802D01*
X30292D01*
X3368Y71598D02*
Y79218D01*
X30292D01*
Y71598D02*
Y79218D01*
X3368Y71598D02*
X30292D01*
M02*
