G04*
G04 #@! TF.GenerationSoftware,Altium Limited,Altium Designer,23.1.1 (15)*
G04*
G04 Layer_Physical_Order=1*
G04 Layer_Color=255*
%FSLAX44Y44*%
%MOMM*%
G71*
G04*
G04 #@! TF.SameCoordinates,8957DE1D-A2AC-4A75-94DB-E02402A88ED3*
G04*
G04*
G04 #@! TF.FilePolarity,Positive*
G04*
G01*
G75*
G04:AMPARAMS|DCode=14|XSize=1.16mm|YSize=0.3mm|CornerRadius=0.0375mm|HoleSize=0mm|Usage=FLASHONLY|Rotation=270.000|XOffset=0mm|YOffset=0mm|HoleType=Round|Shape=RoundedRectangle|*
%AMROUNDEDRECTD14*
21,1,1.1600,0.2250,0,0,270.0*
21,1,1.0850,0.3000,0,0,270.0*
1,1,0.0750,-0.1125,-0.5425*
1,1,0.0750,-0.1125,0.5425*
1,1,0.0750,0.1125,0.5425*
1,1,0.0750,0.1125,-0.5425*
%
%ADD14ROUNDEDRECTD14*%
%ADD15R,0.6000X0.5600*%
%ADD16R,2.6924X1.1176*%
%ADD17R,1.5000X2.0000*%
%ADD18R,1.0500X1.7200*%
G04:AMPARAMS|DCode=19|XSize=0.54mm|YSize=0.6mm|CornerRadius=0.1431mm|HoleSize=0mm|Usage=FLASHONLY|Rotation=270.000|XOffset=0mm|YOffset=0mm|HoleType=Round|Shape=RoundedRectangle|*
%AMROUNDEDRECTD19*
21,1,0.5400,0.3138,0,0,270.0*
21,1,0.2538,0.6000,0,0,270.0*
1,1,0.2862,-0.1569,-0.1269*
1,1,0.2862,-0.1569,0.1269*
1,1,0.2862,0.1569,0.1269*
1,1,0.2862,0.1569,-0.1269*
%
%ADD19ROUNDEDRECTD19*%
%ADD20R,1.3800X0.9200*%
%ADD31C,0.1600*%
%ADD32C,0.5000*%
%ADD33C,0.7500*%
%ADD34R,1.5600X1.5600*%
%ADD35C,1.5600*%
%ADD36C,2.0000*%
%ADD37C,0.4500*%
G36*
X1254441Y761159D02*
X1254431Y761066D01*
X1254275Y760939D01*
X1253173Y760571D01*
X1253014Y760601D01*
X1252857Y760706D01*
X1252125Y760852D01*
X1249875D01*
X1249144Y760706D01*
X1248523Y760292D01*
X1248109Y759672D01*
X1247963Y758940D01*
Y748880D01*
X1247225Y747887D01*
X1246736Y747752D01*
X1245375D01*
X1245097Y748090D01*
Y752245D01*
X1241000D01*
Y753515D01*
X1239730D01*
Y761883D01*
X1238738Y761686D01*
X1237774Y761042D01*
X1237129Y760078D01*
X1236903Y758940D01*
Y753801D01*
X1235633Y752868D01*
X1235317Y752947D01*
X1234617Y753987D01*
X1234576Y754014D01*
X1234564Y754060D01*
X1233814Y755050D01*
X1233775Y755073D01*
X1233761Y755117D01*
X1232951Y756077D01*
X1232912Y756097D01*
X1232896Y756138D01*
X1232047Y757048D01*
X1232006Y757067D01*
X1231988Y757108D01*
X1231098Y757968D01*
X1231057Y757984D01*
X1231037Y758024D01*
X1230097Y758844D01*
X1230051Y758859D01*
X1230027Y758902D01*
X1229037Y759672D01*
X1228998Y759682D01*
X1228976Y759716D01*
X1227956Y760436D01*
X1227911Y760447D01*
X1227884Y760485D01*
X1226834Y761145D01*
X1226790Y761152D01*
X1226763Y761187D01*
X1225673Y761797D01*
X1225627Y761802D01*
X1225596Y761837D01*
X1224476Y762387D01*
X1224438Y762390D01*
X1224412Y762417D01*
X1223272Y762917D01*
X1223219Y762918D01*
X1223180Y762954D01*
X1222010Y763384D01*
X1221966Y763382D01*
X1221932Y763410D01*
X1220742Y763780D01*
X1220698Y763776D01*
X1220663Y763803D01*
X1219453Y764113D01*
X1219403Y764106D01*
X1219361Y764134D01*
X1218131Y764374D01*
X1218097Y764367D01*
X1218068Y764385D01*
X1216838Y764575D01*
X1216783Y764561D01*
X1216733Y764587D01*
X1215493Y764697D01*
X1215457Y764686D01*
X1215423Y764702D01*
X1214093Y764762D01*
X1214056Y764749D01*
X1214020Y764764D01*
X1213340D01*
X1213326Y764758D01*
X1213313Y764763D01*
X1212722Y764753D01*
X1212695Y764741D01*
X1212666Y764751D01*
X1212086Y764721D01*
X1212073Y764715D01*
X1212058Y764720D01*
X1211478Y764680D01*
X1211466Y764674D01*
X1211453Y764678D01*
X1210863Y764628D01*
X1210835Y764613D01*
X1210806Y764622D01*
X1210226Y764552D01*
X1210198Y764536D01*
X1210167Y764544D01*
X1209597Y764454D01*
X1209586Y764447D01*
X1209574Y764450D01*
X1208994Y764350D01*
X1208979Y764341D01*
X1208962Y764344D01*
X1208392Y764234D01*
X1208368Y764218D01*
X1208339Y764223D01*
X1207769Y764093D01*
X1207757Y764084D01*
X1207743Y764087D01*
X1207173Y763947D01*
X1207146Y763927D01*
X1207114Y763931D01*
X1206554Y763771D01*
X1206543Y763762D01*
X1206528Y763764D01*
X1205968Y763594D01*
X1205957Y763585D01*
X1205943Y763586D01*
X1205383Y763406D01*
X1205358Y763384D01*
X1205325Y763386D01*
X1204775Y763186D01*
X1204761Y763173D01*
X1204742Y763173D01*
X1204202Y762963D01*
X1204191Y762953D01*
X1204177Y762954D01*
X1203637Y762734D01*
X1203618Y762714D01*
X1203591Y762714D01*
X1203051Y762474D01*
X1203033Y762455D01*
X1203007Y762453D01*
X1202486Y762203D01*
X1202469Y762183D01*
X1202442Y762181D01*
X1201922Y761911D01*
X1201913Y761901D01*
X1201900Y761899D01*
X1201380Y761619D01*
X1201367Y761604D01*
X1201348Y761601D01*
X1200837Y761311D01*
X1200820Y761289D01*
X1200792Y761285D01*
X1200302Y760985D01*
X1200292Y760971D01*
X1200275Y760967D01*
X1199775Y760648D01*
X1199765Y760634D01*
X1199749Y760631D01*
X1199269Y760311D01*
X1199256Y760290D01*
X1199231Y760285D01*
X1198752Y759945D01*
X1198729Y759910D01*
X1198689Y759899D01*
X1197769Y759179D01*
X1197759Y759160D01*
X1197739Y759154D01*
X1197289Y758784D01*
X1197273Y758754D01*
X1197240Y758742D01*
X1196690Y758252D01*
X1196668Y758207D01*
X1196622Y758188D01*
X1196401Y757654D01*
X1196149Y757133D01*
X1196166Y757086D01*
X1196146Y757040D01*
Y738540D01*
Y721240D01*
X1196166Y721194D01*
X1196149Y721146D01*
X1196401Y720626D01*
X1196622Y720092D01*
X1196668Y720073D01*
X1196690Y720028D01*
X1197240Y719538D01*
X1197273Y719526D01*
X1197289Y719496D01*
X1197739Y719126D01*
X1197759Y719120D01*
X1197769Y719101D01*
X1198689Y718381D01*
X1198729Y718370D01*
X1198752Y718335D01*
X1199231Y717995D01*
X1199256Y717990D01*
X1199269Y717969D01*
X1199749Y717649D01*
X1199765Y717646D01*
X1199775Y717633D01*
X1200275Y717312D01*
X1200292Y717309D01*
X1200302Y717295D01*
X1200792Y716995D01*
X1200820Y716991D01*
X1200837Y716969D01*
X1201348Y716679D01*
X1201367Y716676D01*
X1201380Y716661D01*
X1201900Y716380D01*
X1201913Y716379D01*
X1201922Y716369D01*
X1202442Y716099D01*
X1202469Y716097D01*
X1202486Y716077D01*
X1203007Y715827D01*
X1203033Y715825D01*
X1203051Y715806D01*
X1203591Y715566D01*
X1203618Y715566D01*
X1203637Y715546D01*
X1204177Y715326D01*
X1204191Y715327D01*
X1204202Y715317D01*
X1204742Y715107D01*
X1204761Y715107D01*
X1204775Y715094D01*
X1205325Y714894D01*
X1205358Y714896D01*
X1205383Y714874D01*
X1205943Y714694D01*
X1205957Y714696D01*
X1205968Y714686D01*
X1206528Y714516D01*
X1206543Y714518D01*
X1206554Y714509D01*
X1207114Y714349D01*
X1207146Y714353D01*
X1207173Y714333D01*
X1207743Y714193D01*
X1207757Y714195D01*
X1207769Y714187D01*
X1208339Y714057D01*
X1208368Y714062D01*
X1208392Y714046D01*
X1208962Y713936D01*
X1208979Y713939D01*
X1208994Y713930D01*
X1209574Y713830D01*
X1209586Y713833D01*
X1209597Y713826D01*
X1210167Y713736D01*
X1210198Y713744D01*
X1210225Y713728D01*
X1210806Y713658D01*
X1210835Y713667D01*
X1210863Y713652D01*
X1211453Y713602D01*
X1211466Y713606D01*
X1211478Y713600D01*
X1212058Y713560D01*
X1212073Y713565D01*
X1212086Y713559D01*
X1212666Y713529D01*
X1212695Y713539D01*
X1212722Y713527D01*
X1213313Y713517D01*
X1213326Y713522D01*
X1213340Y713516D01*
X1214020D01*
X1214056Y713531D01*
X1214093Y713518D01*
X1215423Y713578D01*
X1215457Y713594D01*
X1215493Y713583D01*
X1216733Y713693D01*
X1216783Y713719D01*
X1216838Y713705D01*
X1218068Y713895D01*
X1218097Y713913D01*
X1218131Y713906D01*
X1219361Y714146D01*
X1219403Y714174D01*
X1219453Y714167D01*
X1220663Y714477D01*
X1220698Y714504D01*
X1220742Y714500D01*
X1221932Y714870D01*
X1221966Y714898D01*
X1222010Y714896D01*
X1223180Y715326D01*
X1223219Y715362D01*
X1223272Y715363D01*
X1224412Y715863D01*
X1224438Y715890D01*
X1224476Y715893D01*
X1225596Y716443D01*
X1225627Y716478D01*
X1225673Y716483D01*
X1226763Y717093D01*
X1226790Y717128D01*
X1226834Y717135D01*
X1227884Y717795D01*
X1227911Y717833D01*
X1227956Y717844D01*
X1228976Y718564D01*
X1228998Y718598D01*
X1229037Y718608D01*
X1230027Y719378D01*
X1230051Y719421D01*
X1230097Y719436D01*
X1231037Y720257D01*
X1231057Y720296D01*
X1231098Y720312D01*
X1231988Y721172D01*
X1232006Y721213D01*
X1232047Y721232D01*
X1232896Y722142D01*
X1232912Y722183D01*
X1232951Y722203D01*
X1233761Y723163D01*
X1233775Y723206D01*
X1233814Y723230D01*
X1234564Y724220D01*
X1234576Y724267D01*
X1234617Y724293D01*
X1236280Y724490D01*
X1236500Y724313D01*
Y720995D01*
X1236500D01*
Y720895D01*
X1236500D01*
Y712295D01*
X1238655D01*
Y664072D01*
X1236773Y662190D01*
X1235600Y662676D01*
Y672550D01*
X1218800D01*
Y667920D01*
X1213815Y662935D01*
X1212655Y661198D01*
X1212247Y659150D01*
Y657400D01*
X1209350D01*
Y647953D01*
X1180634D01*
X1179677Y649223D01*
X1179818Y649930D01*
X1174200D01*
X1168582D01*
X1168661Y649533D01*
X1167750Y648567D01*
X1166862Y648864D01*
Y650212D01*
X1166986Y650510D01*
Y666258D01*
X1167902D01*
Y673116D01*
X1151900D01*
Y674386D01*
X1150630D01*
Y682514D01*
X1135898D01*
X1135070Y683441D01*
Y760470D01*
X1147800Y773200D01*
X1242400D01*
X1254441Y761159D01*
D02*
G37*
G36*
X1215350Y763080D02*
X1216590Y762970D01*
X1217820Y762780D01*
X1219050Y762540D01*
X1220260Y762230D01*
X1221450Y761860D01*
X1222620Y761430D01*
X1223760Y760930D01*
X1224880Y760380D01*
X1225970Y759770D01*
X1227020Y759110D01*
X1228040Y758390D01*
X1229030Y757620D01*
X1229970Y756800D01*
X1230860Y755940D01*
X1231710Y755030D01*
X1232520Y754070D01*
X1233270Y753080D01*
X1233970Y752040D01*
X1234610Y750980D01*
X1235200Y749880D01*
X1235730Y748750D01*
X1236210Y747600D01*
X1236620Y746420D01*
X1236970Y745220D01*
X1237260Y744010D01*
X1237480Y742780D01*
X1237640Y741550D01*
X1237740Y740300D01*
X1237770Y739140D01*
X1237740Y737980D01*
X1237640Y736730D01*
X1237480Y735500D01*
X1237260Y734270D01*
X1236970Y733060D01*
X1236620Y731860D01*
X1236210Y730680D01*
X1235730Y729530D01*
X1235200Y728400D01*
X1234610Y727300D01*
X1233970Y726240D01*
X1233270Y725200D01*
X1232520Y724210D01*
X1231710Y723250D01*
X1230860Y722340D01*
X1229970Y721480D01*
X1229030Y720660D01*
X1228040Y719890D01*
X1227020Y719170D01*
X1225970Y718510D01*
X1224880Y717900D01*
X1223760Y717350D01*
X1222620Y716850D01*
X1221450Y716420D01*
X1220260Y716050D01*
X1219050Y715740D01*
X1217820Y715500D01*
X1216590Y715310D01*
X1215350Y715200D01*
X1214020Y715140D01*
X1213340D01*
X1212750Y715150D01*
X1212170Y715180D01*
X1211590Y715220D01*
X1211000Y715270D01*
X1210420Y715340D01*
X1209850Y715430D01*
X1209270Y715530D01*
X1208700Y715640D01*
X1208130Y715770D01*
X1207560Y715910D01*
X1207000Y716070D01*
X1206440Y716240D01*
X1205880Y716420D01*
X1205330Y716620D01*
X1204790Y716830D01*
X1204250Y717050D01*
X1203710Y717290D01*
X1203190Y717540D01*
X1202670Y717810D01*
X1202150Y718090D01*
X1201640Y718380D01*
X1201150Y718680D01*
X1200650Y719000D01*
X1200170Y719320D01*
X1199690Y719660D01*
X1199230Y720020D01*
X1198770Y720380D01*
X1198320Y720750D01*
X1197770Y721240D01*
Y738540D01*
Y757040D01*
X1198320Y757530D01*
X1198770Y757900D01*
X1199230Y758260D01*
X1199690Y758620D01*
X1200170Y758960D01*
X1200650Y759280D01*
X1201150Y759600D01*
X1201640Y759900D01*
X1202150Y760190D01*
X1202670Y760470D01*
X1203190Y760740D01*
X1203710Y760990D01*
X1204250Y761230D01*
X1204790Y761450D01*
X1205330Y761660D01*
X1205880Y761860D01*
X1206440Y762040D01*
X1207000Y762210D01*
X1207560Y762370D01*
X1208130Y762510D01*
X1208700Y762640D01*
X1209270Y762750D01*
X1209850Y762850D01*
X1210420Y762940D01*
X1211000Y763010D01*
X1211590Y763060D01*
X1212170Y763100D01*
X1212750Y763130D01*
X1213340Y763140D01*
X1214020D01*
X1215350Y763080D01*
D02*
G37*
G36*
X1233746Y659080D02*
X1233403Y658567D01*
X1233225Y657670D01*
X1233225Y657670D01*
Y634710D01*
X1226570D01*
Y625993D01*
X1226545Y625976D01*
X1225300Y625603D01*
X1224514Y626389D01*
X1223136Y626960D01*
X1221644D01*
X1220266Y626389D01*
X1219432Y625555D01*
X1217570D01*
Y634710D01*
X1199570D01*
Y613220D01*
X1191610D01*
Y621940D01*
X1181570D01*
Y623210D01*
X1180300D01*
Y635750D01*
X1171530D01*
Y628432D01*
X1170260Y627754D01*
X1169659Y628156D01*
X1167610Y628563D01*
X1163570D01*
Y634710D01*
X1159923D01*
Y637247D01*
X1209350D01*
Y637200D01*
X1222850D01*
Y648283D01*
X1222953Y648800D01*
Y656933D01*
X1226370Y660350D01*
X1233329D01*
X1233746Y659080D01*
D02*
G37*
G36*
X1245460Y711255D02*
X1249541D01*
X1249794Y709985D01*
X1248287Y709361D01*
X1246939Y708014D01*
X1246342Y706570D01*
X1251000D01*
Y705300D01*
X1252270D01*
Y700642D01*
X1253714Y701239D01*
X1253800Y701326D01*
X1255070Y700800D01*
X1255070Y597200D01*
X1243968D01*
X1243070Y598098D01*
X1243070Y611710D01*
X1244570D01*
Y620865D01*
X1246832D01*
X1247666Y620031D01*
X1249044Y619460D01*
X1250536D01*
X1251914Y620031D01*
X1252969Y621086D01*
X1253540Y622464D01*
Y623956D01*
X1252969Y625334D01*
X1251914Y626389D01*
X1250536Y626960D01*
X1249044D01*
X1247666Y626389D01*
X1246832Y625555D01*
X1244570D01*
Y634710D01*
X1237915D01*
Y636193D01*
X1238550Y637200D01*
X1252050D01*
Y649857D01*
X1252078Y650000D01*
Y670500D01*
X1251768Y672061D01*
X1250884Y673384D01*
X1249561Y674268D01*
X1248000Y674578D01*
X1246439Y674268D01*
X1245116Y673384D01*
X1244615Y672634D01*
X1243345Y673019D01*
Y712295D01*
X1245460D01*
Y711255D01*
D02*
G37*
%LPC*%
G36*
X1176800Y764764D02*
X1176120D01*
X1176084Y764749D01*
X1176047Y764762D01*
X1174717Y764702D01*
X1174683Y764686D01*
X1174647Y764697D01*
X1173407Y764587D01*
X1173357Y764561D01*
X1173302Y764575D01*
X1172072Y764385D01*
X1172043Y764367D01*
X1172009Y764374D01*
X1170779Y764134D01*
X1170737Y764106D01*
X1170687Y764113D01*
X1169477Y763803D01*
X1169442Y763776D01*
X1169398Y763780D01*
X1168208Y763410D01*
X1168174Y763382D01*
X1168130Y763384D01*
X1166960Y762954D01*
X1166921Y762918D01*
X1166868Y762917D01*
X1165728Y762417D01*
X1165702Y762390D01*
X1165664Y762387D01*
X1164544Y761837D01*
X1164513Y761802D01*
X1164467Y761797D01*
X1163377Y761187D01*
X1163350Y761152D01*
X1163306Y761145D01*
X1162256Y760485D01*
X1162229Y760447D01*
X1162184Y760436D01*
X1161164Y759716D01*
X1161142Y759682D01*
X1161103Y759672D01*
X1160113Y758902D01*
X1160089Y758859D01*
X1160043Y758844D01*
X1159103Y758024D01*
X1159083Y757984D01*
X1159042Y757968D01*
X1158152Y757107D01*
X1158134Y757067D01*
X1158093Y757048D01*
X1157243Y756138D01*
X1157228Y756097D01*
X1157189Y756077D01*
X1156379Y755117D01*
X1156365Y755073D01*
X1156326Y755050D01*
X1155576Y754060D01*
X1155564Y754014D01*
X1155523Y753987D01*
X1154823Y752947D01*
X1154815Y752905D01*
X1154780Y752879D01*
X1154140Y751819D01*
X1154134Y751776D01*
X1154099Y751747D01*
X1153509Y750647D01*
X1153505Y750601D01*
X1153470Y750569D01*
X1152940Y749439D01*
X1152938Y749402D01*
X1152912Y749375D01*
X1152432Y748225D01*
X1152431Y748172D01*
X1152396Y748133D01*
X1151986Y746953D01*
X1151989Y746909D01*
X1151961Y746875D01*
X1151611Y745675D01*
X1151616Y745633D01*
X1151591Y745598D01*
X1151301Y744388D01*
X1151309Y744339D01*
X1151282Y744296D01*
X1151062Y743066D01*
X1151071Y743025D01*
X1151050Y742989D01*
X1150890Y741759D01*
X1150901Y741718D01*
X1150882Y741680D01*
X1150782Y740430D01*
X1150796Y740385D01*
X1150777Y740342D01*
X1150747Y739182D01*
X1150763Y739140D01*
X1150747Y739098D01*
X1150777Y737938D01*
X1150796Y737895D01*
X1150782Y737850D01*
X1150882Y736600D01*
X1150901Y736562D01*
X1150890Y736521D01*
X1151050Y735291D01*
X1151071Y735255D01*
X1151062Y735214D01*
X1151282Y733984D01*
X1151309Y733941D01*
X1151301Y733892D01*
X1151591Y732682D01*
X1151616Y732647D01*
X1151611Y732605D01*
X1151961Y731405D01*
X1151989Y731371D01*
X1151986Y731327D01*
X1152396Y730147D01*
X1152431Y730108D01*
X1152432Y730055D01*
X1152912Y728905D01*
X1152938Y728878D01*
X1152940Y728841D01*
X1153470Y727711D01*
X1153505Y727679D01*
X1153509Y727633D01*
X1154099Y726533D01*
X1154134Y726505D01*
X1154140Y726461D01*
X1154780Y725401D01*
X1154815Y725375D01*
X1154823Y725333D01*
X1155523Y724293D01*
X1155564Y724267D01*
X1155576Y724220D01*
X1156326Y723230D01*
X1156365Y723206D01*
X1156379Y723163D01*
X1157189Y722203D01*
X1157228Y722183D01*
X1157243Y722142D01*
X1158093Y721232D01*
X1158134Y721213D01*
X1158152Y721172D01*
X1159042Y720312D01*
X1159083Y720296D01*
X1159103Y720257D01*
X1160043Y719436D01*
X1160089Y719421D01*
X1160113Y719378D01*
X1161103Y718608D01*
X1161142Y718598D01*
X1161164Y718564D01*
X1162184Y717844D01*
X1162229Y717833D01*
X1162256Y717795D01*
X1163306Y717135D01*
X1163350Y717128D01*
X1163377Y717093D01*
X1164467Y716483D01*
X1164513Y716478D01*
X1164544Y716443D01*
X1165664Y715893D01*
X1165702Y715890D01*
X1165728Y715863D01*
X1166868Y715363D01*
X1166921Y715362D01*
X1166960Y715326D01*
X1168130Y714896D01*
X1168174Y714898D01*
X1168208Y714870D01*
X1169398Y714500D01*
X1169442Y714504D01*
X1169477Y714477D01*
X1170687Y714167D01*
X1170737Y714174D01*
X1170779Y714146D01*
X1172009Y713906D01*
X1172043Y713913D01*
X1172072Y713895D01*
X1173302Y713705D01*
X1173357Y713719D01*
X1173407Y713693D01*
X1174647Y713583D01*
X1174683Y713594D01*
X1174717Y713578D01*
X1176047Y713518D01*
X1176084Y713531D01*
X1176120Y713516D01*
X1176800D01*
X1176814Y713522D01*
X1176827Y713517D01*
X1177418Y713527D01*
X1177445Y713539D01*
X1177474Y713529D01*
X1178054Y713559D01*
X1178067Y713565D01*
X1178082Y713560D01*
X1178662Y713600D01*
X1178674Y713606D01*
X1178687Y713602D01*
X1179277Y713652D01*
X1179305Y713667D01*
X1179334Y713658D01*
X1179914Y713728D01*
X1179942Y713744D01*
X1179973Y713736D01*
X1180543Y713826D01*
X1180554Y713833D01*
X1180566Y713830D01*
X1181146Y713930D01*
X1181161Y713939D01*
X1181178Y713936D01*
X1181748Y714046D01*
X1181772Y714062D01*
X1181801Y714057D01*
X1182371Y714187D01*
X1182383Y714195D01*
X1182397Y714193D01*
X1182967Y714333D01*
X1182994Y714353D01*
X1183026Y714349D01*
X1183586Y714509D01*
X1183597Y714518D01*
X1183612Y714516D01*
X1184172Y714686D01*
X1184183Y714696D01*
X1184197Y714694D01*
X1184757Y714874D01*
X1184782Y714896D01*
X1184815Y714894D01*
X1185365Y715094D01*
X1185379Y715107D01*
X1185398Y715107D01*
X1185938Y715317D01*
X1185949Y715327D01*
X1185963Y715326D01*
X1186503Y715546D01*
X1186522Y715566D01*
X1186549Y715566D01*
X1187089Y715806D01*
X1187107Y715825D01*
X1187133Y715827D01*
X1187654Y716077D01*
X1187671Y716097D01*
X1187698Y716099D01*
X1188218Y716369D01*
X1188227Y716379D01*
X1188240Y716380D01*
X1188760Y716661D01*
X1188773Y716676D01*
X1188792Y716679D01*
X1189303Y716969D01*
X1189320Y716991D01*
X1189348Y716995D01*
X1189838Y717295D01*
X1189848Y717309D01*
X1189865Y717312D01*
X1190365Y717633D01*
X1190375Y717646D01*
X1190391Y717649D01*
X1190871Y717969D01*
X1190884Y717990D01*
X1190909Y717995D01*
X1191388Y718335D01*
X1191411Y718370D01*
X1191451Y718381D01*
X1192371Y719101D01*
X1192381Y719120D01*
X1192401Y719126D01*
X1192851Y719496D01*
X1192867Y719526D01*
X1192900Y719538D01*
X1193450Y720028D01*
X1193472Y720073D01*
X1193518Y720092D01*
X1193739Y720626D01*
X1193991Y721146D01*
X1193974Y721194D01*
X1193994Y721240D01*
Y738540D01*
Y757040D01*
X1193974Y757086D01*
X1193991Y757133D01*
X1193739Y757654D01*
X1193518Y758188D01*
X1193472Y758207D01*
X1193450Y758252D01*
X1192900Y758742D01*
X1192867Y758754D01*
X1192851Y758784D01*
X1192401Y759154D01*
X1192381Y759160D01*
X1192371Y759179D01*
X1191451Y759899D01*
X1191411Y759910D01*
X1191388Y759945D01*
X1190909Y760285D01*
X1190884Y760290D01*
X1190871Y760311D01*
X1190391Y760631D01*
X1190375Y760634D01*
X1190365Y760648D01*
X1189865Y760967D01*
X1189848Y760971D01*
X1189838Y760985D01*
X1189348Y761285D01*
X1189320Y761289D01*
X1189303Y761311D01*
X1188792Y761601D01*
X1188773Y761604D01*
X1188760Y761619D01*
X1188240Y761899D01*
X1188227Y761901D01*
X1188218Y761911D01*
X1187698Y762181D01*
X1187671Y762183D01*
X1187654Y762203D01*
X1187133Y762453D01*
X1187107Y762455D01*
X1187089Y762474D01*
X1186549Y762714D01*
X1186522Y762714D01*
X1186503Y762734D01*
X1185963Y762954D01*
X1185949Y762953D01*
X1185938Y762963D01*
X1185398Y763173D01*
X1185379Y763173D01*
X1185365Y763186D01*
X1184815Y763386D01*
X1184782Y763384D01*
X1184757Y763406D01*
X1184197Y763586D01*
X1184183Y763585D01*
X1184172Y763594D01*
X1183612Y763764D01*
X1183597Y763762D01*
X1183586Y763771D01*
X1183026Y763931D01*
X1182994Y763927D01*
X1182967Y763947D01*
X1182397Y764087D01*
X1182383Y764084D01*
X1182371Y764093D01*
X1181801Y764223D01*
X1181772Y764218D01*
X1181748Y764234D01*
X1181178Y764344D01*
X1181161Y764341D01*
X1181146Y764350D01*
X1180566Y764450D01*
X1180554Y764447D01*
X1180543Y764454D01*
X1179973Y764544D01*
X1179942Y764536D01*
X1179915Y764552D01*
X1179334Y764622D01*
X1179305Y764613D01*
X1179277Y764628D01*
X1178687Y764678D01*
X1178674Y764674D01*
X1178662Y764680D01*
X1178082Y764720D01*
X1178067Y764715D01*
X1178054Y764721D01*
X1177474Y764751D01*
X1177445Y764741D01*
X1177418Y764753D01*
X1176827Y764763D01*
X1176814Y764758D01*
X1176800Y764764D01*
D02*
G37*
G36*
X1242270Y761883D02*
Y754785D01*
X1245097D01*
Y758940D01*
X1244871Y760078D01*
X1244227Y761042D01*
X1243262Y761686D01*
X1242270Y761883D01*
D02*
G37*
G36*
X1235600Y691650D02*
X1218800D01*
Y686615D01*
X1217940Y686444D01*
X1217179Y685936D01*
X1217179Y685935D01*
X1212476Y681232D01*
X1211360Y681876D01*
X1208994Y682510D01*
X1206546D01*
X1204180Y681876D01*
X1202060Y680652D01*
X1200328Y678920D01*
X1199104Y676800D01*
X1198470Y674434D01*
Y671986D01*
X1199104Y669620D01*
X1200328Y667500D01*
X1202060Y665768D01*
X1204180Y664544D01*
X1206546Y663910D01*
X1208994D01*
X1211360Y664544D01*
X1213480Y665768D01*
X1215212Y667500D01*
X1216436Y669620D01*
X1217070Y671986D01*
Y674434D01*
X1216436Y676800D01*
X1215792Y677915D01*
X1217758Y679882D01*
X1218800Y679450D01*
Y679450D01*
X1235600D01*
Y691650D01*
D02*
G37*
G36*
X1153170Y682514D02*
Y675656D01*
X1167902D01*
Y682514D01*
X1153170D01*
D02*
G37*
G36*
X1192710Y683550D02*
X1183640D01*
Y674480D01*
X1192710D01*
Y683550D01*
D02*
G37*
G36*
X1181100D02*
X1172030D01*
Y674480D01*
X1181100D01*
Y683550D01*
D02*
G37*
G36*
X1192710Y671940D02*
X1183640D01*
Y662870D01*
X1192710D01*
Y671940D01*
D02*
G37*
G36*
X1181100D02*
X1172030D01*
Y662870D01*
X1181100D01*
Y671940D01*
D02*
G37*
G36*
X1175769Y656518D02*
X1175470D01*
Y652470D01*
X1179818D01*
X1179510Y654018D01*
X1178632Y655332D01*
X1177318Y656210D01*
X1175769Y656518D01*
D02*
G37*
G36*
X1172930D02*
X1172631D01*
X1171082Y656210D01*
X1169768Y655332D01*
X1168890Y654018D01*
X1168582Y652470D01*
X1172930D01*
Y656518D01*
D02*
G37*
%LPD*%
G36*
X1177390Y763130D02*
X1177970Y763100D01*
X1178550Y763060D01*
X1179140Y763010D01*
X1179720Y762940D01*
X1180290Y762850D01*
X1180870Y762750D01*
X1181440Y762640D01*
X1182010Y762510D01*
X1182580Y762370D01*
X1183140Y762210D01*
X1183700Y762040D01*
X1184260Y761860D01*
X1184810Y761660D01*
X1185350Y761450D01*
X1185890Y761230D01*
X1186430Y760990D01*
X1186950Y760740D01*
X1187470Y760470D01*
X1187990Y760190D01*
X1188500Y759900D01*
X1188990Y759600D01*
X1189490Y759280D01*
X1189970Y758960D01*
X1190450Y758620D01*
X1190910Y758260D01*
X1191370Y757900D01*
X1191820Y757530D01*
X1192370Y757040D01*
Y738540D01*
Y721240D01*
X1191820Y720750D01*
X1191370Y720380D01*
X1190910Y720020D01*
X1190450Y719660D01*
X1189970Y719320D01*
X1189490Y719000D01*
X1188990Y718680D01*
X1188500Y718380D01*
X1187990Y718090D01*
X1187470Y717810D01*
X1186950Y717540D01*
X1186430Y717290D01*
X1185890Y717050D01*
X1185350Y716830D01*
X1184810Y716620D01*
X1184260Y716420D01*
X1183700Y716240D01*
X1183140Y716070D01*
X1182580Y715910D01*
X1182010Y715770D01*
X1181440Y715640D01*
X1180870Y715530D01*
X1180290Y715430D01*
X1179720Y715340D01*
X1179140Y715270D01*
X1178550Y715220D01*
X1177970Y715180D01*
X1177390Y715150D01*
X1176800Y715140D01*
X1176120D01*
X1174790Y715200D01*
X1173550Y715310D01*
X1172320Y715500D01*
X1171090Y715740D01*
X1169880Y716050D01*
X1168690Y716420D01*
X1167520Y716850D01*
X1166380Y717350D01*
X1165260Y717900D01*
X1164170Y718510D01*
X1163120Y719170D01*
X1162100Y719890D01*
X1161110Y720660D01*
X1160170Y721480D01*
X1159280Y722340D01*
X1158430Y723250D01*
X1157620Y724210D01*
X1156870Y725200D01*
X1156170Y726240D01*
X1155530Y727300D01*
X1154940Y728400D01*
X1154410Y729530D01*
X1153930Y730680D01*
X1153520Y731860D01*
X1153170Y733060D01*
X1152880Y734270D01*
X1152660Y735500D01*
X1152500Y736730D01*
X1152400Y737980D01*
X1152370Y739140D01*
X1152400Y740300D01*
X1152500Y741550D01*
X1152660Y742780D01*
X1152880Y744010D01*
X1153170Y745220D01*
X1153520Y746420D01*
X1153930Y747600D01*
X1154410Y748750D01*
X1154940Y749880D01*
X1155530Y750980D01*
X1156170Y752040D01*
X1156870Y753080D01*
X1157620Y754070D01*
X1158430Y755030D01*
X1159280Y755940D01*
X1160170Y756800D01*
X1161110Y757620D01*
X1162100Y758390D01*
X1163120Y759110D01*
X1164170Y759770D01*
X1165260Y760380D01*
X1166380Y760930D01*
X1167520Y761430D01*
X1168690Y761860D01*
X1169880Y762230D01*
X1171090Y762540D01*
X1172320Y762780D01*
X1173550Y762970D01*
X1174790Y763080D01*
X1176120Y763140D01*
X1176800D01*
X1177390Y763130D01*
D02*
G37*
%LPC*%
G36*
X1191610Y635750D02*
X1182840D01*
Y624480D01*
X1191610D01*
Y635750D01*
D02*
G37*
G36*
X1249730Y704030D02*
X1246342D01*
X1246939Y702587D01*
X1248287Y701239D01*
X1249730Y700642D01*
Y704030D01*
D02*
G37*
%LPD*%
D14*
X1246000Y740415D02*
D03*
X1241000Y753515D02*
D03*
X1251000D02*
D03*
D15*
X1251000Y716595D02*
D03*
Y725295D02*
D03*
X1241000D02*
D03*
Y716595D02*
D03*
D16*
X1151900Y644414D02*
D03*
Y674386D02*
D03*
D17*
X1154570Y623210D02*
D03*
X1235570Y623210D02*
D03*
X1181570D02*
D03*
X1208570D02*
D03*
D18*
X1245300Y647300D02*
D03*
X1216100D02*
D03*
D19*
X1174200Y642600D02*
D03*
Y651200D02*
D03*
D20*
X1227200Y666450D02*
D03*
Y685550D02*
D03*
D31*
X1251000Y705300D02*
Y716595D01*
X1235570Y623210D02*
X1249790D01*
X1208570D02*
X1222390D01*
X1235570Y657670D02*
X1241000Y663100D01*
Y716595D01*
X1235570Y623210D02*
Y657670D01*
X1246000Y739840D02*
Y740415D01*
X1245300Y739140D02*
X1246000Y739840D01*
X1207770Y739140D02*
X1245300D01*
X1251200Y725495D02*
Y753315D01*
X1251000Y725295D02*
X1251200Y725495D01*
X1241000Y725295D02*
X1251000D01*
X1218837Y684277D02*
X1225927D01*
X1227200Y685550D01*
X1207770Y673210D02*
X1218837Y684277D01*
D32*
X1248000Y650000D02*
Y670500D01*
X1245300Y647300D02*
X1248000Y650000D01*
D33*
X1154570Y623210D02*
X1167610D01*
X1217600Y659150D02*
X1224900Y666450D01*
X1217600Y648800D02*
Y659150D01*
X1224900Y666450D02*
X1227200D01*
X1216100Y647300D02*
X1217600Y648800D01*
X1216100Y644100D02*
Y647300D01*
X1174200Y642600D02*
X1214600D01*
X1216100Y644100D01*
X1154546Y642600D02*
X1174200D01*
X1153714D02*
X1154546D01*
X1154570Y642576D01*
X1151900Y644414D02*
X1153714Y642600D01*
X1154570Y623210D02*
Y642576D01*
X1150630Y675656D02*
X1151900Y674386D01*
D34*
X1182370Y673210D02*
D03*
D35*
X1207770D02*
D03*
D36*
Y739140D02*
D03*
X1182370D02*
D03*
D37*
X1251000Y705300D02*
D03*
X1249790Y623210D02*
D03*
X1222390D02*
D03*
X1248000Y670500D02*
D03*
X1167610Y623210D02*
D03*
M02*
