G04*
G04 #@! TF.GenerationSoftware,Altium Limited,Altium Designer,23.1.1 (15)*
G04*
G04 Layer_Color=65535*
%FSLAX44Y44*%
%MOMM*%
G71*
G04*
G04 #@! TF.SameCoordinates,8957DE1D-A2AC-4A75-94DB-E02402A88ED3*
G04*
G04*
G04 #@! TF.FilePolarity,Positive*
G04*
G01*
G75*
%ADD10C,0.2000*%
%ADD11C,0.1270*%
%ADD12C,0.1524*%
%ADD13C,0.1000*%
D10*
X1169070Y673210D02*
G03*
X1169070Y673210I-1000J0D01*
G01*
X1252000Y766215D02*
G03*
X1252000Y766215I-1000J0D01*
G01*
X1248070Y739140D02*
G03*
X1248070Y739140I-1000J0D01*
G01*
D11*
X1210570Y686310D02*
G03*
X1179570Y686310I-15500J-13006D01*
G01*
Y660110D02*
G03*
X1210570Y660110I15500J13006D01*
G01*
X1222570Y739140D02*
G03*
X1222570Y739140I-27500J0D01*
G01*
X1238000Y742965D02*
Y744515D01*
Y742965D02*
X1241300D01*
X1250700D02*
X1254000D01*
Y744515D01*
X1224550Y639550D02*
X1236850D01*
X1224550Y655050D02*
X1236850D01*
X1169400Y641900D02*
Y651900D01*
X1179000Y641900D02*
Y651900D01*
X1220400Y674300D02*
Y677700D01*
X1234000Y674300D02*
Y677700D01*
D12*
X1166632Y653077D02*
Y665723D01*
X1137168Y653077D02*
Y665723D01*
D13*
X1137300Y627332D02*
X1143964D01*
X1140632Y630664D02*
Y624000D01*
M02*
