G04*
G04 #@! TF.GenerationSoftware,Altium Limited,Altium Designer,23.1.1 (15)*
G04*
G04 Layer_Color=8388736*
%FSLAX44Y44*%
%MOMM*%
G71*
G04*
G04 #@! TF.SameCoordinates,345DAF32-99A9-4D4A-B197-A4A65CCBA2EF*
G04*
G04*
G04 #@! TF.FilePolarity,Negative*
G04*
G01*
G75*
%ADD16R,2.6924X1.1176*%
G04:AMPARAMS|DCode=21|XSize=1.3632mm|YSize=0.5032mm|CornerRadius=0.1391mm|HoleSize=0mm|Usage=FLASHONLY|Rotation=270.000|XOffset=0mm|YOffset=0mm|HoleType=Round|Shape=RoundedRectangle|*
%AMROUNDEDRECTD21*
21,1,1.3632,0.2250,0,0,270.0*
21,1,1.0850,0.5032,0,0,270.0*
1,1,0.2782,-0.1125,-0.5425*
1,1,0.2782,-0.1125,0.5425*
1,1,0.2782,0.1125,0.5425*
1,1,0.2782,0.1125,-0.5425*
%
%ADD21ROUNDEDRECTD21*%
%ADD22R,0.8032X0.7632*%
%ADD23R,1.7032X2.2032*%
%ADD24R,1.2540X1.9240*%
G04:AMPARAMS|DCode=25|XSize=0.7432mm|YSize=0.8032mm|CornerRadius=0.2447mm|HoleSize=0mm|Usage=FLASHONLY|Rotation=270.000|XOffset=0mm|YOffset=0mm|HoleType=Round|Shape=RoundedRectangle|*
%AMROUNDEDRECTD25*
21,1,0.7432,0.3138,0,0,270.0*
21,1,0.2538,0.8032,0,0,270.0*
1,1,0.4894,-0.1569,-0.1269*
1,1,0.4894,-0.1569,0.1269*
1,1,0.4894,0.1569,0.1269*
1,1,0.4894,0.1569,-0.1269*
%
%ADD25ROUNDEDRECTD25*%
%ADD26R,1.5832X1.1232*%
%ADD27R,1.7632X1.7632*%
%ADD28C,1.7632*%
%ADD29C,2.2032*%
%ADD30C,0.6532*%
D16*
X16830Y47214D02*
D03*
Y77186D02*
D03*
D21*
X110930Y143216D02*
D03*
X105930Y156315D02*
D03*
X115930D02*
D03*
D22*
X115930Y119396D02*
D03*
Y128096D02*
D03*
X105930D02*
D03*
Y119396D02*
D03*
D23*
X19500Y26010D02*
D03*
X100500Y26010D02*
D03*
X46500D02*
D03*
X73500D02*
D03*
D24*
X110230Y50100D02*
D03*
X81030D02*
D03*
D25*
X39130Y45400D02*
D03*
Y54000D02*
D03*
D26*
X92130Y69250D02*
D03*
Y88350D02*
D03*
D27*
X47300Y76010D02*
D03*
D28*
X72700D02*
D03*
D29*
Y141940D02*
D03*
X47300D02*
D03*
D30*
X31900Y26000D02*
D03*
X115930Y108100D02*
D03*
X114720Y26010D02*
D03*
X87320D02*
D03*
X112930Y73300D02*
D03*
M02*
