G04*
G04 #@! TF.GenerationSoftware,Altium Limited,Altium Designer,23.1.1 (15)*
G04*
G04 Layer_Physical_Order=2*
G04 Layer_Color=16711680*
%FSLAX44Y44*%
%MOMM*%
G71*
G04*
G04 #@! TF.SameCoordinates,8957DE1D-A2AC-4A75-94DB-E02402A88ED3*
G04*
G04*
G04 #@! TF.FilePolarity,Positive*
G04*
G01*
G75*
%ADD17R,1.5000X2.0000*%
%ADD31C,0.1600*%
%ADD32C,0.5000*%
%ADD33C,0.7500*%
%ADD34R,1.5600X1.5600*%
%ADD35C,1.5600*%
%ADD36C,2.0000*%
%ADD37C,0.4500*%
G36*
X1255070Y760530D02*
X1255070Y709801D01*
X1253800Y709275D01*
X1253714Y709361D01*
X1252270Y709959D01*
Y705300D01*
Y700642D01*
X1253714Y701239D01*
X1253800Y701326D01*
X1255070Y700800D01*
X1255070Y597200D01*
X1243968D01*
X1243070Y598098D01*
X1243070Y611710D01*
X1244570D01*
Y620865D01*
X1246832D01*
X1247666Y620031D01*
X1249044Y619460D01*
X1250536D01*
X1251914Y620031D01*
X1252969Y621086D01*
X1253540Y622464D01*
Y623956D01*
X1252969Y625334D01*
X1251914Y626389D01*
X1250536Y626960D01*
X1249044D01*
X1247666Y626389D01*
X1246832Y625555D01*
X1244570D01*
Y634710D01*
X1226570D01*
Y625993D01*
X1226545Y625976D01*
X1225300Y625603D01*
X1224514Y626389D01*
X1223136Y626960D01*
X1221644D01*
X1220266Y626389D01*
X1219432Y625555D01*
X1217570D01*
Y634710D01*
X1210115D01*
Y664210D01*
X1211360Y664544D01*
X1213480Y665768D01*
X1215212Y667500D01*
X1216436Y669620D01*
X1217070Y671986D01*
Y674434D01*
X1216436Y676800D01*
X1215212Y678920D01*
X1213480Y680652D01*
X1211360Y681876D01*
X1208994Y682510D01*
X1206546D01*
X1204180Y681876D01*
X1202060Y680652D01*
X1200328Y678920D01*
X1199104Y676800D01*
X1198470Y674434D01*
Y671986D01*
X1199104Y669620D01*
X1200328Y667500D01*
X1202060Y665768D01*
X1204180Y664544D01*
X1205425Y664210D01*
Y634710D01*
X1199570D01*
Y613220D01*
X1191610D01*
Y621940D01*
X1181570D01*
Y623210D01*
X1180300D01*
Y635750D01*
X1171530D01*
Y628432D01*
X1170260Y627754D01*
X1169659Y628156D01*
X1167610Y628563D01*
X1163570D01*
Y634710D01*
X1145570D01*
Y611710D01*
X1147070D01*
Y597200D01*
X1135968Y597200D01*
X1135070Y598098D01*
Y760470D01*
X1147800Y773200D01*
X1242400D01*
X1255070Y760530D01*
D02*
G37*
%LPC*%
G36*
X1209284Y750640D02*
X1206256D01*
X1203331Y749856D01*
X1200709Y748342D01*
X1198568Y746201D01*
X1197054Y743579D01*
X1196270Y740654D01*
Y737626D01*
X1197054Y734701D01*
X1198568Y732079D01*
X1200709Y729938D01*
X1203331Y728424D01*
X1206256Y727640D01*
X1209284D01*
X1212209Y728424D01*
X1214831Y729938D01*
X1216972Y732079D01*
X1218486Y734701D01*
X1219270Y737626D01*
Y740654D01*
X1218486Y743579D01*
X1216972Y746201D01*
X1214831Y748342D01*
X1212209Y749856D01*
X1209284Y750640D01*
D02*
G37*
G36*
X1249730Y709959D02*
X1248287Y709361D01*
X1246939Y708014D01*
X1246342Y706570D01*
X1249730D01*
Y709959D01*
D02*
G37*
G36*
Y704030D02*
X1246342D01*
X1246939Y702587D01*
X1248287Y701239D01*
X1249730Y700642D01*
Y704030D01*
D02*
G37*
G36*
X1192710Y683550D02*
X1183640D01*
Y674480D01*
X1192710D01*
Y683550D01*
D02*
G37*
G36*
X1181100D02*
X1172030D01*
Y674480D01*
X1181100D01*
Y683550D01*
D02*
G37*
G36*
X1183884Y750640D02*
X1180856D01*
X1177931Y749856D01*
X1175309Y748342D01*
X1173168Y746201D01*
X1171654Y743579D01*
X1170870Y740654D01*
Y737626D01*
X1171654Y734701D01*
X1173168Y732079D01*
X1175309Y729938D01*
X1177931Y728424D01*
X1178292Y728327D01*
Y707870D01*
X1178292Y707870D01*
X1178602Y706309D01*
X1179486Y704986D01*
X1185756Y698716D01*
X1187079Y697832D01*
X1188640Y697522D01*
X1188640Y697522D01*
X1233711D01*
X1243922Y687311D01*
Y670500D01*
X1244232Y668939D01*
X1245116Y667616D01*
X1246439Y666732D01*
X1248000Y666422D01*
X1249561Y666732D01*
X1250884Y667616D01*
X1251768Y668939D01*
X1252078Y670500D01*
Y689000D01*
X1252078Y689000D01*
X1251768Y690561D01*
X1250884Y691884D01*
X1250884Y691884D01*
X1238284Y704484D01*
X1236961Y705368D01*
X1235400Y705678D01*
X1235400Y705678D01*
X1190329D01*
X1186448Y709559D01*
Y728327D01*
X1186809Y728424D01*
X1189431Y729938D01*
X1191572Y732079D01*
X1193086Y734701D01*
X1193870Y737626D01*
Y740654D01*
X1193086Y743579D01*
X1191572Y746201D01*
X1189431Y748342D01*
X1186809Y749856D01*
X1183884Y750640D01*
D02*
G37*
G36*
X1192710Y671940D02*
X1183640D01*
Y662870D01*
X1192710D01*
Y671940D01*
D02*
G37*
G36*
X1181100D02*
X1172030D01*
Y662870D01*
X1181100D01*
Y671940D01*
D02*
G37*
G36*
X1165362Y669914D02*
X1138438D01*
X1137290Y669438D01*
X1136814Y668290D01*
Y650510D01*
X1137290Y649362D01*
X1138438Y648886D01*
X1165362D01*
X1166510Y649362D01*
X1166986Y650510D01*
Y668290D01*
X1166510Y669438D01*
X1165362Y669914D01*
D02*
G37*
G36*
X1191610Y635750D02*
X1182840D01*
Y624480D01*
X1191610D01*
Y635750D01*
D02*
G37*
%LPD*%
D17*
X1235570Y623210D02*
D03*
X1181570D02*
D03*
X1154570D02*
D03*
X1208570D02*
D03*
D31*
X1235570D02*
X1249790D01*
X1208570D02*
X1222390D01*
X1207770Y624010D02*
X1208570Y623210D01*
X1207770Y624010D02*
Y673210D01*
X1235570Y623210D02*
X1235760Y623400D01*
D32*
X1248000Y670500D02*
Y689000D01*
X1188640Y701600D02*
X1235400D01*
X1248000Y689000D01*
X1182370Y707870D02*
X1188640Y701600D01*
X1182370Y707870D02*
Y739140D01*
D33*
X1154570Y623210D02*
X1167610D01*
X1154570Y623210D02*
X1154570Y623210D01*
D34*
X1182370Y673210D02*
D03*
D35*
X1207770D02*
D03*
D36*
Y739140D02*
D03*
X1182370D02*
D03*
D37*
X1251000Y705300D02*
D03*
X1249790Y623210D02*
D03*
X1222390D02*
D03*
X1248000Y670500D02*
D03*
X1167610Y623210D02*
D03*
M02*
