G04*
G04 #@! TF.GenerationSoftware,Altium Limited,Altium Designer,23.1.1 (15)*
G04*
G04 Layer_Color=255*
%FSLAX44Y44*%
%MOMM*%
G71*
G04*
G04 #@! TF.SameCoordinates,8957DE1D-A2AC-4A75-94DB-E02402A88ED3*
G04*
G04*
G04 #@! TF.FilePolarity,Positive*
G04*
G01*
G75*
G04:AMPARAMS|DCode=14|XSize=1.16mm|YSize=0.3mm|CornerRadius=0.0375mm|HoleSize=0mm|Usage=FLASHONLY|Rotation=270.000|XOffset=0mm|YOffset=0mm|HoleType=Round|Shape=RoundedRectangle|*
%AMROUNDEDRECTD14*
21,1,1.1600,0.2250,0,0,270.0*
21,1,1.0850,0.3000,0,0,270.0*
1,1,0.0750,-0.1125,-0.5425*
1,1,0.0750,-0.1125,0.5425*
1,1,0.0750,0.1125,0.5425*
1,1,0.0750,0.1125,-0.5425*
%
%ADD14ROUNDEDRECTD14*%
%ADD15R,0.6000X0.5600*%
%ADD16R,2.6924X1.1176*%
%ADD17R,1.5000X2.0000*%
%ADD18R,1.0500X1.7200*%
G04:AMPARAMS|DCode=19|XSize=0.54mm|YSize=0.6mm|CornerRadius=0.1431mm|HoleSize=0mm|Usage=FLASHONLY|Rotation=270.000|XOffset=0mm|YOffset=0mm|HoleType=Round|Shape=RoundedRectangle|*
%AMROUNDEDRECTD19*
21,1,0.5400,0.3138,0,0,270.0*
21,1,0.2538,0.6000,0,0,270.0*
1,1,0.2862,-0.1569,-0.1269*
1,1,0.2862,-0.1569,0.1269*
1,1,0.2862,0.1569,0.1269*
1,1,0.2862,0.1569,-0.1269*
%
%ADD19ROUNDEDRECTD19*%
%ADD20R,1.3800X0.9200*%
%ADD34R,1.5600X1.5600*%
%ADD35C,1.5600*%
%ADD36C,2.0000*%
D14*
X1246000Y740415D02*
D03*
X1241000Y753515D02*
D03*
X1251000D02*
D03*
D15*
X1251000Y716595D02*
D03*
Y725295D02*
D03*
X1241000D02*
D03*
Y716595D02*
D03*
D16*
X1151900Y644414D02*
D03*
Y674386D02*
D03*
D17*
X1154570Y623210D02*
D03*
X1235570Y623210D02*
D03*
X1181570D02*
D03*
X1208570D02*
D03*
D18*
X1245300Y647300D02*
D03*
X1216100D02*
D03*
D19*
X1174200Y642600D02*
D03*
Y651200D02*
D03*
D20*
X1227200Y666450D02*
D03*
Y685550D02*
D03*
D34*
X1182370Y673210D02*
D03*
D35*
X1207770D02*
D03*
D36*
Y739140D02*
D03*
X1182370D02*
D03*
M02*
