G04*
G04 #@! TF.GenerationSoftware,Altium Limited,Altium Designer,23.1.1 (15)*
G04*
G04 Layer_Physical_Order=1*
G04 Layer_Color=255*
%FSLAX44Y44*%
%MOMM*%
G71*
G04*
G04 #@! TF.SameCoordinates,345DAF32-99A9-4D4A-B197-A4A65CCBA2EF*
G04*
G04*
G04 #@! TF.FilePolarity,Positive*
G04*
G01*
G75*
G04:AMPARAMS|DCode=14|XSize=1.16mm|YSize=0.3mm|CornerRadius=0.0375mm|HoleSize=0mm|Usage=FLASHONLY|Rotation=270.000|XOffset=0mm|YOffset=0mm|HoleType=Round|Shape=RoundedRectangle|*
%AMROUNDEDRECTD14*
21,1,1.1600,0.2250,0,0,270.0*
21,1,1.0850,0.3000,0,0,270.0*
1,1,0.0750,-0.1125,-0.5425*
1,1,0.0750,-0.1125,0.5425*
1,1,0.0750,0.1125,0.5425*
1,1,0.0750,0.1125,-0.5425*
%
%ADD14ROUNDEDRECTD14*%
%ADD15R,0.6000X0.5600*%
%ADD16R,2.6924X1.1176*%
%ADD17R,1.5000X2.0000*%
%ADD18R,1.0500X1.7200*%
G04:AMPARAMS|DCode=19|XSize=0.54mm|YSize=0.6mm|CornerRadius=0.1431mm|HoleSize=0mm|Usage=FLASHONLY|Rotation=270.000|XOffset=0mm|YOffset=0mm|HoleType=Round|Shape=RoundedRectangle|*
%AMROUNDEDRECTD19*
21,1,0.5400,0.3138,0,0,270.0*
21,1,0.2538,0.6000,0,0,270.0*
1,1,0.2862,-0.1569,-0.1269*
1,1,0.2862,-0.1569,0.1269*
1,1,0.2862,0.1569,0.1269*
1,1,0.2862,0.1569,-0.1269*
%
%ADD19ROUNDEDRECTD19*%
%ADD20R,1.3800X0.9200*%
%ADD31C,0.7500*%
%ADD32C,0.1600*%
%ADD33C,0.5000*%
%ADD34R,1.5600X1.5600*%
%ADD35C,1.5600*%
%ADD36C,2.0000*%
%ADD37C,0.4500*%
G36*
X119371Y163959D02*
X119361Y163866D01*
X119205Y163739D01*
X118103Y163371D01*
X117944Y163401D01*
X117787Y163507D01*
X117055Y163652D01*
X114805D01*
X114074Y163507D01*
X113453Y163092D01*
X113039Y162472D01*
X112893Y161740D01*
Y151680D01*
X112155Y150687D01*
X111666Y150552D01*
X110305D01*
X110027Y150891D01*
Y155045D01*
X105930D01*
Y156315D01*
X104660D01*
Y164684D01*
X103668Y164486D01*
X102704Y163842D01*
X102059Y162878D01*
X101833Y161740D01*
Y156602D01*
X100563Y155669D01*
X100247Y155747D01*
X99547Y156787D01*
X99506Y156814D01*
X99494Y156861D01*
X98744Y157851D01*
X98705Y157874D01*
X98691Y157917D01*
X97881Y158877D01*
X97842Y158897D01*
X97826Y158939D01*
X96976Y159848D01*
X96936Y159867D01*
X96918Y159908D01*
X96028Y160768D01*
X95987Y160784D01*
X95967Y160824D01*
X95027Y161644D01*
X94981Y161659D01*
X94957Y161702D01*
X93967Y162472D01*
X93928Y162482D01*
X93906Y162517D01*
X92886Y163237D01*
X92841Y163247D01*
X92814Y163285D01*
X91764Y163945D01*
X91720Y163952D01*
X91693Y163987D01*
X90603Y164597D01*
X90556Y164603D01*
X90526Y164638D01*
X89406Y165188D01*
X89368Y165190D01*
X89342Y165217D01*
X88202Y165717D01*
X88149Y165718D01*
X88110Y165754D01*
X86940Y166184D01*
X86896Y166182D01*
X86862Y166211D01*
X85672Y166581D01*
X85628Y166577D01*
X85593Y166603D01*
X84383Y166913D01*
X84333Y166906D01*
X84291Y166934D01*
X83061Y167174D01*
X83027Y167167D01*
X82998Y167185D01*
X81768Y167375D01*
X81713Y167362D01*
X81664Y167388D01*
X80423Y167498D01*
X80387Y167486D01*
X80353Y167502D01*
X79023Y167562D01*
X78986Y167549D01*
X78950Y167564D01*
X78270D01*
X78256Y167558D01*
X78243Y167564D01*
X77653Y167554D01*
X77625Y167542D01*
X77596Y167552D01*
X77016Y167522D01*
X77003Y167515D01*
X76988Y167520D01*
X76408Y167480D01*
X76396Y167474D01*
X76383Y167478D01*
X75793Y167428D01*
X75765Y167414D01*
X75736Y167422D01*
X75156Y167352D01*
X75128Y167337D01*
X75097Y167344D01*
X74527Y167254D01*
X74516Y167248D01*
X74504Y167250D01*
X73924Y167150D01*
X73909Y167141D01*
X73892Y167144D01*
X73322Y167034D01*
X73298Y167018D01*
X73269Y167023D01*
X72699Y166893D01*
X72687Y166885D01*
X72673Y166887D01*
X72103Y166747D01*
X72076Y166728D01*
X72044Y166731D01*
X71484Y166571D01*
X71473Y166562D01*
X71458Y166564D01*
X70898Y166394D01*
X70887Y166385D01*
X70873Y166386D01*
X70313Y166206D01*
X70288Y166185D01*
X70255Y166186D01*
X69705Y165986D01*
X69691Y165973D01*
X69672Y165973D01*
X69131Y165763D01*
X69121Y165754D01*
X69107Y165754D01*
X68568Y165534D01*
X68548Y165515D01*
X68521Y165514D01*
X67981Y165274D01*
X67963Y165255D01*
X67937Y165254D01*
X67417Y165004D01*
X67399Y164984D01*
X67372Y164981D01*
X66852Y164711D01*
X66843Y164701D01*
X66830Y164700D01*
X66310Y164420D01*
X66297Y164404D01*
X66277Y164402D01*
X65767Y164112D01*
X65750Y164089D01*
X65722Y164085D01*
X65232Y163785D01*
X65222Y163771D01*
X65205Y163768D01*
X64705Y163448D01*
X64695Y163434D01*
X64679Y163431D01*
X64199Y163111D01*
X64186Y163091D01*
X64162Y163085D01*
X63682Y162745D01*
X63659Y162710D01*
X63619Y162699D01*
X62699Y161979D01*
X62689Y161961D01*
X62669Y161954D01*
X62219Y161584D01*
X62203Y161554D01*
X62170Y161542D01*
X61620Y161052D01*
X61598Y161007D01*
X61552Y160988D01*
X61331Y160454D01*
X61079Y159934D01*
X61096Y159887D01*
X61076Y159840D01*
Y141340D01*
Y124040D01*
X61096Y123994D01*
X61079Y123947D01*
X61331Y123426D01*
X61552Y122892D01*
X61598Y122873D01*
X61620Y122828D01*
X62170Y122338D01*
X62203Y122327D01*
X62219Y122296D01*
X62669Y121926D01*
X62689Y121920D01*
X62699Y121902D01*
X63619Y121182D01*
X63659Y121171D01*
X63682Y121135D01*
X64162Y120795D01*
X64186Y120790D01*
X64199Y120769D01*
X64679Y120449D01*
X64695Y120446D01*
X64705Y120433D01*
X65205Y120113D01*
X65222Y120110D01*
X65232Y120096D01*
X65722Y119796D01*
X65750Y119791D01*
X65767Y119769D01*
X66277Y119479D01*
X66297Y119476D01*
X66310Y119461D01*
X66830Y119181D01*
X66843Y119179D01*
X66852Y119169D01*
X67372Y118899D01*
X67399Y118897D01*
X67417Y118877D01*
X67937Y118627D01*
X67963Y118625D01*
X67981Y118607D01*
X68521Y118367D01*
X68548Y118366D01*
X68568Y118347D01*
X69107Y118127D01*
X69121Y118127D01*
X69131Y118117D01*
X69672Y117907D01*
X69691Y117907D01*
X69705Y117894D01*
X70255Y117694D01*
X70288Y117696D01*
X70313Y117675D01*
X70873Y117495D01*
X70887Y117496D01*
X70898Y117487D01*
X71458Y117317D01*
X71473Y117318D01*
X71484Y117309D01*
X72044Y117149D01*
X72076Y117153D01*
X72103Y117134D01*
X72673Y116994D01*
X72687Y116996D01*
X72699Y116987D01*
X73269Y116857D01*
X73298Y116862D01*
X73322Y116846D01*
X73892Y116736D01*
X73909Y116740D01*
X73924Y116730D01*
X74504Y116630D01*
X74516Y116633D01*
X74527Y116627D01*
X75097Y116537D01*
X75128Y116544D01*
X75156Y116528D01*
X75736Y116458D01*
X75765Y116467D01*
X75793Y116452D01*
X76383Y116403D01*
X76396Y116407D01*
X76408Y116400D01*
X76988Y116361D01*
X77003Y116365D01*
X77016Y116359D01*
X77596Y116329D01*
X77625Y116339D01*
X77653Y116327D01*
X78243Y116317D01*
X78256Y116322D01*
X78270Y116317D01*
X78950D01*
X78986Y116332D01*
X79023Y116318D01*
X80353Y116378D01*
X80387Y116394D01*
X80423Y116383D01*
X81664Y116493D01*
X81713Y116519D01*
X81768Y116506D01*
X82998Y116696D01*
X83027Y116713D01*
X83061Y116707D01*
X84291Y116947D01*
X84333Y116975D01*
X84383Y116967D01*
X85593Y117277D01*
X85628Y117304D01*
X85672Y117300D01*
X86862Y117670D01*
X86896Y117698D01*
X86940Y117696D01*
X88110Y118126D01*
X88149Y118162D01*
X88202Y118163D01*
X89342Y118663D01*
X89368Y118691D01*
X89406Y118693D01*
X90526Y119243D01*
X90556Y119278D01*
X90603Y119283D01*
X91693Y119893D01*
X91720Y119928D01*
X91764Y119936D01*
X92814Y120596D01*
X92841Y120634D01*
X92886Y120644D01*
X93906Y121364D01*
X93928Y121398D01*
X93967Y121409D01*
X94957Y122179D01*
X94981Y122221D01*
X95027Y122237D01*
X95967Y123057D01*
X95987Y123097D01*
X96028Y123113D01*
X96918Y123973D01*
X96936Y124014D01*
X96976Y124032D01*
X97826Y124942D01*
X97842Y124983D01*
X97881Y125003D01*
X98691Y125963D01*
X98705Y126007D01*
X98744Y126030D01*
X99494Y127020D01*
X99506Y127067D01*
X99547Y127094D01*
X101210Y127291D01*
X101430Y127113D01*
Y123796D01*
X101430D01*
Y123695D01*
X101430D01*
Y115096D01*
X103585D01*
Y66872D01*
X101703Y64990D01*
X100530Y65476D01*
Y75350D01*
X83730D01*
Y70720D01*
X78745Y65735D01*
X77585Y63999D01*
X77177Y61950D01*
Y60200D01*
X74280D01*
Y50753D01*
X45564D01*
X44607Y52023D01*
X44748Y52730D01*
X39130D01*
X33512D01*
X33591Y52334D01*
X32680Y51367D01*
X31792Y51664D01*
Y53012D01*
X31916Y53310D01*
Y69058D01*
X32832D01*
Y75916D01*
X16830D01*
Y77186D01*
X15560D01*
Y85314D01*
X828D01*
X0Y86241D01*
Y163270D01*
X12730Y176000D01*
X107330D01*
X119371Y163959D01*
D02*
G37*
G36*
X80280Y165880D02*
X81520Y165770D01*
X82750Y165580D01*
X83980Y165340D01*
X85190Y165030D01*
X86380Y164660D01*
X87550Y164230D01*
X88690Y163730D01*
X89810Y163180D01*
X90900Y162570D01*
X91950Y161910D01*
X92970Y161190D01*
X93960Y160420D01*
X94900Y159600D01*
X95790Y158740D01*
X96640Y157830D01*
X97450Y156870D01*
X98200Y155880D01*
X98900Y154840D01*
X99540Y153780D01*
X100130Y152680D01*
X100660Y151550D01*
X101140Y150400D01*
X101550Y149220D01*
X101900Y148020D01*
X102190Y146810D01*
X102410Y145580D01*
X102570Y144350D01*
X102670Y143100D01*
X102700Y141940D01*
X102670Y140780D01*
X102570Y139530D01*
X102410Y138300D01*
X102190Y137070D01*
X101900Y135860D01*
X101550Y134660D01*
X101140Y133480D01*
X100660Y132330D01*
X100130Y131200D01*
X99540Y130100D01*
X98900Y129040D01*
X98200Y128000D01*
X97450Y127010D01*
X96640Y126050D01*
X95790Y125140D01*
X94900Y124280D01*
X93960Y123460D01*
X92970Y122690D01*
X91950Y121970D01*
X90900Y121310D01*
X89810Y120700D01*
X88690Y120150D01*
X87550Y119650D01*
X86380Y119220D01*
X85190Y118850D01*
X83980Y118540D01*
X82750Y118300D01*
X81520Y118110D01*
X80280Y118000D01*
X78950Y117940D01*
X78270D01*
X77680Y117950D01*
X77100Y117980D01*
X76520Y118020D01*
X75930Y118070D01*
X75350Y118140D01*
X74780Y118230D01*
X74200Y118330D01*
X73630Y118440D01*
X73060Y118570D01*
X72490Y118710D01*
X71930Y118870D01*
X71370Y119040D01*
X70810Y119220D01*
X70260Y119420D01*
X69720Y119630D01*
X69180Y119850D01*
X68640Y120090D01*
X68120Y120340D01*
X67600Y120610D01*
X67080Y120890D01*
X66570Y121180D01*
X66080Y121480D01*
X65580Y121800D01*
X65100Y122120D01*
X64620Y122460D01*
X64160Y122820D01*
X63700Y123180D01*
X63250Y123550D01*
X62700Y124040D01*
Y141340D01*
Y159840D01*
X63250Y160330D01*
X63700Y160700D01*
X64160Y161060D01*
X64620Y161420D01*
X65100Y161760D01*
X65580Y162080D01*
X66080Y162400D01*
X66570Y162700D01*
X67080Y162990D01*
X67600Y163270D01*
X68120Y163540D01*
X68640Y163790D01*
X69180Y164030D01*
X69720Y164250D01*
X70260Y164460D01*
X70810Y164660D01*
X71370Y164840D01*
X71930Y165010D01*
X72490Y165170D01*
X73060Y165310D01*
X73630Y165440D01*
X74200Y165550D01*
X74780Y165650D01*
X75350Y165740D01*
X75930Y165810D01*
X76520Y165860D01*
X77100Y165900D01*
X77680Y165930D01*
X78270Y165940D01*
X78950D01*
X80280Y165880D01*
D02*
G37*
G36*
X98676Y61880D02*
X98334Y61368D01*
X98155Y60470D01*
X98155Y60470D01*
Y37510D01*
X91500D01*
Y28793D01*
X91475Y28776D01*
X90230Y28403D01*
X89444Y29189D01*
X88066Y29760D01*
X86574D01*
X85196Y29189D01*
X84362Y28355D01*
X82500D01*
Y37510D01*
X64500D01*
Y21100D01*
X56540D01*
Y24740D01*
X46500D01*
Y26010D01*
X45230D01*
Y38550D01*
X36460D01*
Y30737D01*
X35190Y30116D01*
X33948Y30945D01*
X31900Y31353D01*
X28500D01*
Y37510D01*
X24853D01*
Y40047D01*
X74280D01*
Y40000D01*
X87780D01*
Y51083D01*
X87883Y51600D01*
Y59733D01*
X91300Y63150D01*
X98259D01*
X98676Y61880D01*
D02*
G37*
G36*
X110390Y114056D02*
X114471D01*
X114724Y112786D01*
X113217Y112161D01*
X111869Y110814D01*
X111272Y109370D01*
X115930D01*
Y108100D01*
X117200D01*
Y103442D01*
X118644Y104040D01*
X118730Y104126D01*
X120000Y103600D01*
X120000Y21100D01*
X115983D01*
X115731Y22370D01*
X116844Y22831D01*
X117899Y23886D01*
X118470Y25264D01*
Y26756D01*
X117899Y28135D01*
X116844Y29189D01*
X115466Y29760D01*
X113974D01*
X112596Y29189D01*
X111762Y28355D01*
X109500D01*
Y37510D01*
X102845D01*
Y38993D01*
X103480Y40000D01*
X116980D01*
Y52658D01*
X117008Y52800D01*
Y73300D01*
X116698Y74861D01*
X115814Y76184D01*
X114491Y77068D01*
X112930Y77379D01*
X111369Y77068D01*
X110046Y76184D01*
X109545Y75434D01*
X108275Y75820D01*
Y115096D01*
X110390D01*
Y114056D01*
D02*
G37*
%LPC*%
G36*
X41730Y167564D02*
X41050D01*
X41014Y167549D01*
X40977Y167562D01*
X39647Y167502D01*
X39613Y167486D01*
X39577Y167498D01*
X38337Y167388D01*
X38287Y167362D01*
X38232Y167375D01*
X37002Y167185D01*
X36973Y167167D01*
X36939Y167174D01*
X35709Y166934D01*
X35667Y166906D01*
X35617Y166913D01*
X34407Y166603D01*
X34372Y166577D01*
X34328Y166581D01*
X33138Y166211D01*
X33104Y166182D01*
X33060Y166184D01*
X31890Y165754D01*
X31851Y165718D01*
X31798Y165717D01*
X30658Y165217D01*
X30632Y165190D01*
X30594Y165188D01*
X29474Y164638D01*
X29444Y164603D01*
X29397Y164597D01*
X28307Y163987D01*
X28280Y163952D01*
X28236Y163945D01*
X27186Y163285D01*
X27159Y163247D01*
X27114Y163237D01*
X26094Y162517D01*
X26072Y162482D01*
X26033Y162472D01*
X25043Y161702D01*
X25019Y161659D01*
X24973Y161644D01*
X24033Y160824D01*
X24013Y160784D01*
X23972Y160768D01*
X23082Y159908D01*
X23064Y159867D01*
X23024Y159848D01*
X22174Y158939D01*
X22158Y158897D01*
X22119Y158877D01*
X21309Y157917D01*
X21295Y157874D01*
X21256Y157851D01*
X20506Y156861D01*
X20494Y156814D01*
X20453Y156787D01*
X19753Y155747D01*
X19745Y155705D01*
X19710Y155679D01*
X19070Y154620D01*
X19064Y154576D01*
X19029Y154548D01*
X18439Y153448D01*
X18435Y153401D01*
X18400Y153370D01*
X17870Y152240D01*
X17868Y152202D01*
X17842Y152176D01*
X17362Y151026D01*
X17362Y150973D01*
X17326Y150933D01*
X16916Y149753D01*
X16919Y149709D01*
X16891Y149675D01*
X16541Y148475D01*
X16546Y148433D01*
X16521Y148399D01*
X16231Y147189D01*
X16239Y147139D01*
X16212Y147096D01*
X15992Y145866D01*
X16001Y145826D01*
X15980Y145790D01*
X15820Y144560D01*
X15831Y144518D01*
X15812Y144480D01*
X15712Y143230D01*
X15726Y143185D01*
X15707Y143142D01*
X15677Y141982D01*
X15693Y141940D01*
X15677Y141898D01*
X15707Y140738D01*
X15726Y140695D01*
X15712Y140651D01*
X15812Y139401D01*
X15831Y139362D01*
X15820Y139321D01*
X15980Y138091D01*
X16001Y138055D01*
X15992Y138014D01*
X16212Y136784D01*
X16239Y136742D01*
X16231Y136692D01*
X16521Y135482D01*
X16546Y135448D01*
X16541Y135406D01*
X16891Y134206D01*
X16919Y134171D01*
X16916Y134127D01*
X17326Y132947D01*
X17362Y132908D01*
X17362Y132855D01*
X17842Y131705D01*
X17868Y131678D01*
X17870Y131641D01*
X18400Y130511D01*
X18435Y130479D01*
X18439Y130433D01*
X19029Y129333D01*
X19064Y129305D01*
X19070Y129261D01*
X19710Y128201D01*
X19745Y128176D01*
X19753Y128134D01*
X20453Y127094D01*
X20494Y127067D01*
X20506Y127020D01*
X21256Y126030D01*
X21295Y126007D01*
X21309Y125963D01*
X22119Y125003D01*
X22158Y124983D01*
X22174Y124942D01*
X23024Y124032D01*
X23064Y124014D01*
X23082Y123973D01*
X23972Y123113D01*
X24013Y123097D01*
X24033Y123057D01*
X24973Y122237D01*
X25019Y122221D01*
X25043Y122179D01*
X26033Y121409D01*
X26072Y121398D01*
X26094Y121364D01*
X27114Y120644D01*
X27159Y120634D01*
X27186Y120596D01*
X28236Y119936D01*
X28280Y119928D01*
X28307Y119893D01*
X29397Y119284D01*
X29444Y119278D01*
X29474Y119243D01*
X30594Y118693D01*
X30632Y118691D01*
X30658Y118663D01*
X31798Y118163D01*
X31851Y118162D01*
X31890Y118126D01*
X33060Y117696D01*
X33104Y117698D01*
X33138Y117670D01*
X34328Y117300D01*
X34372Y117304D01*
X34407Y117277D01*
X35617Y116967D01*
X35667Y116975D01*
X35709Y116947D01*
X36939Y116707D01*
X36973Y116713D01*
X37002Y116696D01*
X38232Y116506D01*
X38287Y116519D01*
X38337Y116493D01*
X39576Y116383D01*
X39613Y116394D01*
X39647Y116378D01*
X40977Y116318D01*
X41014Y116332D01*
X41050Y116317D01*
X41730D01*
X41744Y116322D01*
X41757Y116317D01*
X42347Y116327D01*
X42375Y116339D01*
X42404Y116329D01*
X42984Y116359D01*
X42997Y116365D01*
X43012Y116361D01*
X43592Y116400D01*
X43604Y116407D01*
X43617Y116403D01*
X44207Y116452D01*
X44235Y116467D01*
X44265Y116458D01*
X44844Y116528D01*
X44872Y116544D01*
X44903Y116537D01*
X45473Y116627D01*
X45484Y116633D01*
X45496Y116630D01*
X46076Y116730D01*
X46091Y116740D01*
X46108Y116736D01*
X46678Y116846D01*
X46702Y116862D01*
X46731Y116857D01*
X47301Y116987D01*
X47313Y116996D01*
X47327Y116994D01*
X47897Y117134D01*
X47924Y117153D01*
X47956Y117149D01*
X48516Y117309D01*
X48527Y117318D01*
X48542Y117317D01*
X49102Y117487D01*
X49113Y117496D01*
X49127Y117495D01*
X49687Y117675D01*
X49712Y117696D01*
X49745Y117694D01*
X50295Y117894D01*
X50309Y117907D01*
X50328Y117907D01*
X50869Y118117D01*
X50879Y118127D01*
X50893Y118127D01*
X51433Y118347D01*
X51452Y118366D01*
X51479Y118367D01*
X52019Y118607D01*
X52037Y118625D01*
X52063Y118627D01*
X52583Y118877D01*
X52601Y118897D01*
X52628Y118899D01*
X53148Y119169D01*
X53157Y119179D01*
X53170Y119181D01*
X53690Y119461D01*
X53703Y119476D01*
X53723Y119479D01*
X54233Y119769D01*
X54250Y119791D01*
X54278Y119796D01*
X54768Y120096D01*
X54778Y120110D01*
X54795Y120113D01*
X55295Y120433D01*
X55305Y120446D01*
X55321Y120449D01*
X55801Y120769D01*
X55814Y120790D01*
X55838Y120795D01*
X56318Y121135D01*
X56341Y121171D01*
X56381Y121182D01*
X57301Y121902D01*
X57311Y121920D01*
X57331Y121926D01*
X57781Y122296D01*
X57797Y122327D01*
X57830Y122338D01*
X58380Y122828D01*
X58402Y122873D01*
X58448Y122892D01*
X58669Y123426D01*
X58921Y123947D01*
X58905Y123994D01*
X58924Y124040D01*
Y141340D01*
Y159840D01*
X58905Y159887D01*
X58921Y159934D01*
X58669Y160454D01*
X58448Y160988D01*
X58402Y161007D01*
X58380Y161052D01*
X57830Y161542D01*
X57797Y161554D01*
X57781Y161584D01*
X57331Y161954D01*
X57311Y161961D01*
X57301Y161979D01*
X56381Y162699D01*
X56341Y162710D01*
X56318Y162745D01*
X55838Y163085D01*
X55814Y163091D01*
X55801Y163111D01*
X55321Y163431D01*
X55305Y163434D01*
X55295Y163448D01*
X54795Y163768D01*
X54778Y163771D01*
X54768Y163785D01*
X54278Y164085D01*
X54250Y164089D01*
X54233Y164112D01*
X53723Y164402D01*
X53703Y164404D01*
X53690Y164420D01*
X53170Y164700D01*
X53157Y164701D01*
X53148Y164711D01*
X52628Y164981D01*
X52601Y164984D01*
X52583Y165004D01*
X52063Y165254D01*
X52037Y165255D01*
X52019Y165274D01*
X51479Y165514D01*
X51452Y165515D01*
X51433Y165534D01*
X50893Y165754D01*
X50879Y165754D01*
X50869Y165763D01*
X50328Y165973D01*
X50309Y165973D01*
X50295Y165986D01*
X49745Y166186D01*
X49712Y166185D01*
X49687Y166206D01*
X49127Y166386D01*
X49113Y166385D01*
X49102Y166394D01*
X48542Y166564D01*
X48527Y166562D01*
X48516Y166571D01*
X47956Y166731D01*
X47924Y166728D01*
X47897Y166747D01*
X47327Y166887D01*
X47313Y166885D01*
X47301Y166893D01*
X46731Y167023D01*
X46702Y167018D01*
X46678Y167034D01*
X46108Y167144D01*
X46091Y167141D01*
X46076Y167150D01*
X45496Y167250D01*
X45484Y167248D01*
X45473Y167254D01*
X44903Y167344D01*
X44872Y167337D01*
X44845Y167352D01*
X44265Y167422D01*
X44235Y167414D01*
X44207Y167428D01*
X43617Y167478D01*
X43604Y167474D01*
X43592Y167480D01*
X43012Y167520D01*
X42997Y167515D01*
X42984Y167522D01*
X42404Y167552D01*
X42375Y167542D01*
X42347Y167554D01*
X41757Y167564D01*
X41744Y167558D01*
X41730Y167564D01*
D02*
G37*
G36*
X107200Y164684D02*
Y157585D01*
X110027D01*
Y161740D01*
X109801Y162878D01*
X109157Y163842D01*
X108193Y164486D01*
X107200Y164684D01*
D02*
G37*
G36*
X100530Y94450D02*
X83730D01*
Y89415D01*
X82870Y89244D01*
X82109Y88736D01*
X82109Y88736D01*
X77406Y84032D01*
X76290Y84677D01*
X73924Y85310D01*
X71476D01*
X69110Y84677D01*
X66990Y83452D01*
X65258Y81721D01*
X64034Y79600D01*
X63400Y77235D01*
Y74786D01*
X64034Y72421D01*
X65258Y70300D01*
X66990Y68568D01*
X69110Y67344D01*
X71476Y66710D01*
X73924D01*
X76290Y67344D01*
X78410Y68568D01*
X80142Y70300D01*
X81366Y72421D01*
X82000Y74786D01*
Y77235D01*
X81366Y79600D01*
X80722Y80716D01*
X82688Y82682D01*
X83730Y82250D01*
Y82250D01*
X100530D01*
Y94450D01*
D02*
G37*
G36*
X18100Y85314D02*
Y78456D01*
X32832D01*
Y85314D01*
X18100D01*
D02*
G37*
G36*
X57640Y86350D02*
X48570D01*
Y77280D01*
X57640D01*
Y86350D01*
D02*
G37*
G36*
X46030D02*
X36960D01*
Y77280D01*
X46030D01*
Y86350D01*
D02*
G37*
G36*
X57640Y74740D02*
X48570D01*
Y65670D01*
X57640D01*
Y74740D01*
D02*
G37*
G36*
X46030D02*
X36960D01*
Y65670D01*
X46030D01*
Y74740D01*
D02*
G37*
G36*
X40699Y59318D02*
X40400D01*
Y55270D01*
X44748D01*
X44440Y56819D01*
X43562Y58132D01*
X42248Y59010D01*
X40699Y59318D01*
D02*
G37*
G36*
X37860D02*
X37561D01*
X36012Y59010D01*
X34698Y58132D01*
X33820Y56819D01*
X33512Y55270D01*
X37860D01*
Y59318D01*
D02*
G37*
%LPD*%
G36*
X42320Y165930D02*
X42900Y165900D01*
X43480Y165860D01*
X44070Y165810D01*
X44650Y165740D01*
X45220Y165650D01*
X45800Y165550D01*
X46370Y165440D01*
X46940Y165310D01*
X47510Y165170D01*
X48070Y165010D01*
X48630Y164840D01*
X49190Y164660D01*
X49740Y164460D01*
X50280Y164250D01*
X50820Y164030D01*
X51360Y163790D01*
X51880Y163540D01*
X52400Y163270D01*
X52920Y162990D01*
X53430Y162700D01*
X53920Y162400D01*
X54420Y162080D01*
X54900Y161760D01*
X55380Y161420D01*
X55840Y161060D01*
X56300Y160700D01*
X56750Y160330D01*
X57300Y159840D01*
Y141340D01*
Y124040D01*
X56750Y123550D01*
X56300Y123180D01*
X55840Y122820D01*
X55380Y122460D01*
X54900Y122120D01*
X54420Y121800D01*
X53920Y121480D01*
X53430Y121180D01*
X52920Y120890D01*
X52400Y120610D01*
X51880Y120340D01*
X51360Y120090D01*
X50820Y119850D01*
X50280Y119630D01*
X49740Y119420D01*
X49190Y119220D01*
X48630Y119040D01*
X48070Y118870D01*
X47510Y118710D01*
X46940Y118570D01*
X46370Y118440D01*
X45800Y118330D01*
X45220Y118230D01*
X44650Y118140D01*
X44070Y118070D01*
X43480Y118020D01*
X42900Y117980D01*
X42320Y117950D01*
X41730Y117940D01*
X41050D01*
X39720Y118000D01*
X38480Y118110D01*
X37250Y118300D01*
X36020Y118540D01*
X34810Y118850D01*
X33620Y119220D01*
X32450Y119650D01*
X31310Y120150D01*
X30190Y120700D01*
X29100Y121310D01*
X28050Y121970D01*
X27030Y122690D01*
X26040Y123460D01*
X25100Y124280D01*
X24210Y125140D01*
X23360Y126050D01*
X22550Y127010D01*
X21800Y128000D01*
X21100Y129040D01*
X20460Y130100D01*
X19870Y131200D01*
X19340Y132330D01*
X18860Y133480D01*
X18450Y134660D01*
X18100Y135860D01*
X17810Y137070D01*
X17590Y138300D01*
X17430Y139530D01*
X17330Y140780D01*
X17300Y141940D01*
X17330Y143100D01*
X17430Y144350D01*
X17590Y145580D01*
X17810Y146810D01*
X18100Y148020D01*
X18450Y149220D01*
X18860Y150400D01*
X19340Y151550D01*
X19870Y152680D01*
X20460Y153780D01*
X21100Y154840D01*
X21800Y155880D01*
X22550Y156870D01*
X23360Y157830D01*
X24210Y158740D01*
X25100Y159600D01*
X26040Y160420D01*
X27030Y161190D01*
X28050Y161910D01*
X29100Y162570D01*
X30190Y163180D01*
X31310Y163730D01*
X32450Y164230D01*
X33620Y164660D01*
X34810Y165030D01*
X36020Y165340D01*
X37250Y165580D01*
X38480Y165770D01*
X39720Y165880D01*
X41050Y165940D01*
X41730D01*
X42320Y165930D01*
D02*
G37*
%LPC*%
G36*
X56540Y38550D02*
X47770D01*
Y27280D01*
X56540D01*
Y38550D01*
D02*
G37*
G36*
X114660Y106830D02*
X111272D01*
X111869Y105387D01*
X113217Y104040D01*
X114660Y103442D01*
Y106830D01*
D02*
G37*
%LPD*%
D14*
X110930Y143216D02*
D03*
X105930Y156315D02*
D03*
X115930D02*
D03*
D15*
X115930Y119396D02*
D03*
Y128096D02*
D03*
X105930D02*
D03*
Y119396D02*
D03*
D16*
X16830Y47214D02*
D03*
Y77186D02*
D03*
D17*
X19500Y26010D02*
D03*
X100500Y26010D02*
D03*
X46500D02*
D03*
X73500D02*
D03*
D18*
X110230Y50100D02*
D03*
X81030D02*
D03*
D19*
X39130Y45400D02*
D03*
Y54000D02*
D03*
D20*
X92130Y69250D02*
D03*
Y88350D02*
D03*
D31*
X19510Y26000D02*
X31900D01*
X19500Y26010D02*
X19510Y26000D01*
X82530Y61950D02*
X89830Y69250D01*
X82530Y51600D02*
Y61950D01*
X89830Y69250D02*
X92130D01*
X81030Y50100D02*
X82530Y51600D01*
X81030Y46900D02*
Y50100D01*
X39130Y45400D02*
X79530D01*
X81030Y46900D01*
X19476Y45400D02*
X39130D01*
X18644D02*
X19476D01*
X19500Y45376D01*
X16830Y47214D02*
X18644Y45400D01*
X19500Y26010D02*
Y45376D01*
X15560Y78456D02*
X16830Y77186D01*
D32*
X115930Y108100D02*
Y119396D01*
X100500Y26010D02*
X114720D01*
X73500D02*
X87320D01*
X100500Y60470D02*
X105930Y65900D01*
Y119396D01*
X100500Y26010D02*
Y60470D01*
X110930Y142640D02*
Y143216D01*
X110230Y141940D02*
X110930Y142640D01*
X72700Y141940D02*
X110230D01*
X116130Y128295D02*
Y156116D01*
X115930Y128096D02*
X116130Y128295D01*
X105930Y128096D02*
X115930D01*
X83767Y87078D02*
X90857D01*
X92130Y88350D01*
X72700Y76010D02*
X83767Y87078D01*
D33*
X112930Y52800D02*
Y73300D01*
X110230Y50100D02*
X112930Y52800D01*
D34*
X47300Y76010D02*
D03*
D35*
X72700D02*
D03*
D36*
Y141940D02*
D03*
X47300D02*
D03*
D37*
X31900Y26000D02*
D03*
X115930Y108100D02*
D03*
X114720Y26010D02*
D03*
X87320D02*
D03*
X112930Y73300D02*
D03*
M02*
