M48
;Layer_Color=9474304
;FILE_FORMAT=4:4
METRIC,LZ
;TYPE=PLATED
T1F00S00C0.2000
T2F00S00C0.3000
T3F00S00C0.4000
T5F00S00C1.0000
T6F00S00C1.0700
T9F00S00C2.5000
;TYPE=NON_PLATED
T10F00S00C0.9000
%
T01
X0048576Y00433972
Y00441472
Y00448972
T02
X0042783Y00053972
X0048533
X0054283
X0057516Y000618
X005909
X0067696Y00069472
X0054142Y002891
X005296Y003013
Y00312
X005243Y003253
X004557
X004504Y00312
Y003013
X0043858Y002891
X004737Y002606
X005063
X0033976Y00053972
X002809Y000838
X0021936Y00112272
X00288Y00401678
Y004268
X002874Y004512
X0028502Y00501332
X0029862Y00521732
Y00531972
Y00542212
X002821Y005505
Y005565
X0023425Y005405
X0022825
X00208Y00524772
X001807
X00201Y006068
X002582Y00622
X002291Y006522
X00350314Y00643672
Y00662722
X003151Y007317
X003163Y005187
X00357634Y005581
X0037365Y00410412
X003755Y003792
X003637Y003615
X003902Y003792
X004049
X004196
X004323
X004432
X004541
X00449311Y003692
X004387
X004255
X004605
X004771Y003792
X005008
X005314Y003707
X0053146Y00388672
Y00394672
X005461Y004182
Y004302
X005549Y004512
X005512Y004598
X005453Y004751
X005305
X005157
X005009
X004857Y004678
X0045286Y00464174
Y00454882
Y00445919
Y00437267
X0045286Y00429072
X004582Y00419
X004613Y004102
X004538Y004085
X004433Y004043
X004317
X004201
Y004149
Y004232
Y00432201
Y00441804
X004326Y00426
X004201Y00471638
Y004808
Y004897
Y004979
X003901Y004985
Y005093
X0038496Y00537172
Y00543672
X003839Y005581
X0042006Y00532872
X004469
X0045287Y00521732
X004593Y004809
X0045286Y00474342
X0049986Y00497172
X00521326
X0054341Y00497122
X0056426Y00497172
X0058181Y00494562
Y00506492
Y00480372
X0054101Y00526022
X00532105
X005232
X00524Y00561372
X005155
X0049736
X0049086
X004815
X0045756Y00570672
Y00580172
Y00591872
X0043406Y00585172
Y00576672
X004329Y006132
Y0062095
X00432Y006533
X0044426Y00664972
X0045446Y00658772
X0045996Y00642272
X0043156Y00677372
X0040406Y00691372
X0039756Y00643672
X0049969Y00672462
X005274Y006238
X005397Y006078
X0057468Y005768
Y00568302
Y00559782
X005876Y005792
X006159Y00563
X006226Y006076
X006105Y006277
X005892
X0058916Y00652922
X0061046Y00652772
X00673064Y006076
X006649Y007317
X0076426Y00524772
X006794Y004268
Y00401678
X0062643Y00410412
X0061648
X005965Y003801
X005864
X005502Y003473
X006955Y003535
X007015
X003836Y00410412
X0038376Y00436572
Y00442572
X0078866Y00524772
X00833Y006076
X0086Y006068
X00584546Y00816894
X00395454Y00816894
X00438976Y00885209
T03
X0018981Y00055072
X0019831
X0020681
X0021531
X0022381
X0023231
X0024081
X0024931
Y00068572
X0024081
X0023231
X0022381
X0021531
X0020681
X0019831
X0018981
T05
X007875Y0004435
X007625
X007375
T06
X00075Y00575
Y006004
Y006258
Y006512
Y006766
Y00702
X00905Y00702
Y006766
Y006512
Y006258
Y006004
Y00575
X005535Y00945
X005281
X005027
X004773
X004519
X004265
T09
X0081Y0011737
X00705Y001586
X00275
X0017Y0011737
Y0047637
X0081
T10
X0031733Y00022082
X0034733
M30
