ISO-10303-21;
HEADER;
/* Generated by software containing ST-Developer
 * from STEP Tools, Inc. (www.steptools.com) 
 */

FILE_DESCRIPTION(
/* description */ (''),
/* implementation_level */ '2;1');

FILE_NAME(
/* name */ 'PololuMount.stp',
/* time_stamp */ '2026-08-10T00:58:06-03:00',
/* author */ ('felip'),
/* organization */ (''),
/* preprocessor_version */ 'ST-DEVELOPER v20.1',
/* originating_system */ 'Autodesk Inventor 2027',
/* authorisation */ '');

FILE_SCHEMA (('AUTOMOTIVE_DESIGN { 1 0 10303 214 3 1 1 }'));
ENDSEC;

DATA;
#10=MECHANICAL_DESIGN_GEOMETRIC_PRESENTATION_REPRESENTATION('',(#13),#1578);
#11=SHAPE_REPRESENTATION_RELATIONSHIP('SRR','None',#1585,#12);
#12=ADVANCED_BREP_SHAPE_REPRESENTATION('',(#14),#1577);
#13=STYLED_ITEM('',(#1594),#14);
#14=MANIFOLD_SOLID_BREP('Solid1',#913);
#15=B_SPLINE_CURVE_WITH_KNOTS('',3,(#1311,#1312,#1313,#1314),
 .UNSPECIFIED.,.F.,.F.,(4,4),(0.50553224003851,0.577555515830414),
 .UNSPECIFIED.);
#16=B_SPLINE_CURVE_WITH_KNOTS('',3,(#1321,#1322,#1323,#1324,#1325,#1326),
 .UNSPECIFIED.,.F.,.F.,(4,2,4),(0.577555515885597,0.581995466601179,0.699558285734088),
 .UNSPECIFIED.);
#17=B_SPLINE_CURVE_WITH_KNOTS('',3,(#1354,#1355,#1356,#1357,#1358,#1359),
 .UNSPECIFIED.,.F.,.F.,(4,2,4),(0.,0.117562819132908,0.122002769848491),
 .UNSPECIFIED.);
#18=B_SPLINE_CURVE_WITH_KNOTS('',3,(#1366,#1367,#1368,#1369),
 .UNSPECIFIED.,.F.,.F.,(4,4),(0.122002769903673,0.194026045695578),
 .UNSPECIFIED.);
#19=TOROIDAL_SURFACE('',#941,2.,1.);
#20=TOROIDAL_SURFACE('',#952,2.,1.);
#21=FACE_BOUND('',#111,.T.);
#22=FACE_BOUND('',#123,.T.);
#23=FACE_BOUND('',#124,.T.);
#24=FACE_BOUND('',#125,.T.);
#25=FACE_BOUND('',#127,.T.);
#26=FACE_BOUND('',#128,.T.);
#27=FACE_BOUND('',#131,.T.);
#28=FACE_BOUND('',#143,.T.);
#29=FACE_BOUND('',#144,.T.);
#30=FACE_BOUND('',#145,.T.);
#31=FACE_BOUND('',#151,.T.);
#32=FACE_BOUND('',#152,.T.);
#33=FACE_BOUND('',#159,.T.);
#34=FACE_BOUND('',#168,.T.);
#35=FACE_BOUND('',#169,.T.);
#36=FACE_BOUND('',#170,.T.);
#37=PLANE('',#939);
#38=PLANE('',#949);
#39=PLANE('',#950);
#40=PLANE('',#957);
#41=PLANE('',#963);
#42=PLANE('',#971);
#43=PLANE('',#976);
#44=PLANE('',#982);
#45=PLANE('',#986);
#46=PLANE('',#990);
#47=PLANE('',#993);
#48=PLANE('',#996);
#49=PLANE('',#997);
#50=PLANE('',#1005);
#51=PLANE('',#1008);
#52=PLANE('',#1011);
#53=PLANE('',#1017);
#54=PLANE('',#1018);
#55=PLANE('',#1019);
#56=PLANE('',#1020);
#57=PLANE('',#1021);
#58=PLANE('',#1027);
#59=PLANE('',#1028);
#60=PLANE('',#1029);
#61=FACE_OUTER_BOUND('',#109,.T.);
#62=FACE_OUTER_BOUND('',#110,.T.);
#63=FACE_OUTER_BOUND('',#112,.T.);
#64=FACE_OUTER_BOUND('',#113,.T.);
#65=FACE_OUTER_BOUND('',#114,.T.);
#66=FACE_OUTER_BOUND('',#115,.T.);
#67=FACE_OUTER_BOUND('',#116,.T.);
#68=FACE_OUTER_BOUND('',#117,.T.);
#69=FACE_OUTER_BOUND('',#118,.T.);
#70=FACE_OUTER_BOUND('',#119,.T.);
#71=FACE_OUTER_BOUND('',#120,.T.);
#72=FACE_OUTER_BOUND('',#121,.T.);
#73=FACE_OUTER_BOUND('',#122,.T.);
#74=FACE_OUTER_BOUND('',#126,.T.);
#75=FACE_OUTER_BOUND('',#129,.T.);
#76=FACE_OUTER_BOUND('',#130,.T.);
#77=FACE_OUTER_BOUND('',#132,.T.);
#78=FACE_OUTER_BOUND('',#133,.T.);
#79=FACE_OUTER_BOUND('',#134,.T.);
#80=FACE_OUTER_BOUND('',#135,.T.);
#81=FACE_OUTER_BOUND('',#136,.T.);
#82=FACE_OUTER_BOUND('',#137,.T.);
#83=FACE_OUTER_BOUND('',#138,.T.);
#84=FACE_OUTER_BOUND('',#139,.T.);
#85=FACE_OUTER_BOUND('',#140,.T.);
#86=FACE_OUTER_BOUND('',#141,.T.);
#87=FACE_OUTER_BOUND('',#142,.T.);
#88=FACE_OUTER_BOUND('',#146,.T.);
#89=FACE_OUTER_BOUND('',#147,.T.);
#90=FACE_OUTER_BOUND('',#148,.T.);
#91=FACE_OUTER_BOUND('',#149,.T.);
#92=FACE_OUTER_BOUND('',#150,.T.);
#93=FACE_OUTER_BOUND('',#153,.T.);
#94=FACE_OUTER_BOUND('',#154,.T.);
#95=FACE_OUTER_BOUND('',#155,.T.);
#96=FACE_OUTER_BOUND('',#156,.T.);
#97=FACE_OUTER_BOUND('',#157,.T.);
#98=FACE_OUTER_BOUND('',#158,.T.);
#99=FACE_OUTER_BOUND('',#160,.T.);
#100=FACE_OUTER_BOUND('',#161,.T.);
#101=FACE_OUTER_BOUND('',#162,.T.);
#102=FACE_OUTER_BOUND('',#163,.T.);
#103=FACE_OUTER_BOUND('',#164,.T.);
#104=FACE_OUTER_BOUND('',#165,.T.);
#105=FACE_OUTER_BOUND('',#166,.T.);
#106=FACE_OUTER_BOUND('',#167,.T.);
#107=FACE_OUTER_BOUND('',#171,.T.);
#108=FACE_OUTER_BOUND('',#172,.T.);
#109=EDGE_LOOP('',(#587,#588,#589,#590));
#110=EDGE_LOOP('',(#591));
#111=EDGE_LOOP('',(#592));
#112=EDGE_LOOP('',(#593,#594,#595,#596,#597));
#113=EDGE_LOOP('',(#598,#599,#600,#601));
#114=EDGE_LOOP('',(#602,#603,#604,#605));
#115=EDGE_LOOP('',(#606,#607,#608,#609));
#116=EDGE_LOOP('',(#610,#611,#612,#613,#614,#615));
#117=EDGE_LOOP('',(#616,#617,#618,#619,#620));
#118=EDGE_LOOP('',(#621,#622,#623,#624));
#119=EDGE_LOOP('',(#625,#626,#627,#628));
#120=EDGE_LOOP('',(#629,#630,#631,#632));
#121=EDGE_LOOP('',(#633,#634,#635,#636));
#122=EDGE_LOOP('',(#637,#638,#639,#640,#641,#642));
#123=EDGE_LOOP('',(#643,#644,#645,#646,#647,#648,#649,#650));
#124=EDGE_LOOP('',(#651));
#125=EDGE_LOOP('',(#652));
#126=EDGE_LOOP('',(#653,#654,#655,#656,#657,#658,#659,#660));
#127=EDGE_LOOP('',(#661));
#128=EDGE_LOOP('',(#662));
#129=EDGE_LOOP('',(#663,#664,#665,#666));
#130=EDGE_LOOP('',(#667,#668,#669,#670,#671,#672));
#131=EDGE_LOOP('',(#673));
#132=EDGE_LOOP('',(#674,#675,#676,#677));
#133=EDGE_LOOP('',(#678,#679,#680,#681));
#134=EDGE_LOOP('',(#682,#683,#684,#685));
#135=EDGE_LOOP('',(#686,#687,#688,#689,#690));
#136=EDGE_LOOP('',(#691,#692,#693,#694));
#137=EDGE_LOOP('',(#695,#696,#697,#698,#699,#700,#701,#702,#703,#704,#705,
#706));
#138=EDGE_LOOP('',(#707,#708,#709,#710));
#139=EDGE_LOOP('',(#711,#712,#713,#714,#715));
#140=EDGE_LOOP('',(#716,#717,#718,#719));
#141=EDGE_LOOP('',(#720,#721,#722,#723));
#142=EDGE_LOOP('',(#724,#725,#726,#727,#728,#729,#730,#731));
#143=EDGE_LOOP('',(#732));
#144=EDGE_LOOP('',(#733));
#145=EDGE_LOOP('',(#734));
#146=EDGE_LOOP('',(#735,#736,#737,#738));
#147=EDGE_LOOP('',(#739,#740,#741,#742));
#148=EDGE_LOOP('',(#743,#744,#745,#746));
#149=EDGE_LOOP('',(#747,#748,#749,#750));
#150=EDGE_LOOP('',(#751,#752,#753,#754,#755,#756,#757,#758,#759,#760,#761,
#762));
#151=EDGE_LOOP('',(#763));
#152=EDGE_LOOP('',(#764));
#153=EDGE_LOOP('',(#765,#766,#767,#768));
#154=EDGE_LOOP('',(#769,#770,#771,#772));
#155=EDGE_LOOP('',(#773,#774,#775,#776));
#156=EDGE_LOOP('',(#777,#778,#779,#780));
#157=EDGE_LOOP('',(#781,#782,#783,#784));
#158=EDGE_LOOP('',(#785,#786,#787,#788,#789,#790));
#159=EDGE_LOOP('',(#791));
#160=EDGE_LOOP('',(#792,#793,#794,#795));
#161=EDGE_LOOP('',(#796,#797,#798,#799,#800));
#162=EDGE_LOOP('',(#801,#802,#803,#804));
#163=EDGE_LOOP('',(#805,#806,#807,#808));
#164=EDGE_LOOP('',(#809,#810,#811,#812));
#165=EDGE_LOOP('',(#813,#814,#815,#816));
#166=EDGE_LOOP('',(#817,#818,#819,#820));
#167=EDGE_LOOP('',(#821,#822,#823,#824,#825,#826));
#168=EDGE_LOOP('',(#827));
#169=EDGE_LOOP('',(#828));
#170=EDGE_LOOP('',(#829));
#171=EDGE_LOOP('',(#830,#831,#832,#833,#834));
#172=EDGE_LOOP('',(#835,#836,#837,#838,#839,#840,#841,#842));
#173=LINE('',#1303,#251);
#174=LINE('',#1331,#252);
#175=LINE('',#1332,#253);
#176=LINE('',#1335,#254);
#177=LINE('',#1338,#255);
#178=LINE('',#1341,#256);
#179=LINE('',#1342,#257);
#180=LINE('',#1345,#258);
#181=LINE('',#1349,#259);
#182=LINE('',#1350,#260);
#183=LINE('',#1371,#261);
#184=LINE('',#1372,#262);
#185=LINE('',#1375,#263);
#186=LINE('',#1376,#264);
#187=LINE('',#1379,#265);
#188=LINE('',#1386,#266);
#189=LINE('',#1389,#267);
#190=LINE('',#1392,#268);
#191=LINE('',#1396,#269);
#192=LINE('',#1398,#270);
#193=LINE('',#1399,#271);
#194=LINE('',#1402,#272);
#195=LINE('',#1406,#273);
#196=LINE('',#1410,#274);
#197=LINE('',#1414,#275);
#198=LINE('',#1422,#276);
#199=LINE('',#1424,#277);
#200=LINE('',#1426,#278);
#201=LINE('',#1428,#279);
#202=LINE('',#1430,#280);
#203=LINE('',#1431,#281);
#204=LINE('',#1439,#282);
#205=LINE('',#1444,#283);
#206=LINE('',#1446,#284);
#207=LINE('',#1447,#285);
#208=LINE('',#1455,#286);
#209=LINE('',#1458,#287);
#210=LINE('',#1461,#288);
#211=LINE('',#1463,#289);
#212=LINE('',#1464,#290);
#213=LINE('',#1469,#291);
#214=LINE('',#1473,#292);
#215=LINE('',#1474,#293);
#216=LINE('',#1475,#294);
#217=LINE('',#1481,#295);
#218=LINE('',#1484,#296);
#219=LINE('',#1486,#297);
#220=LINE('',#1487,#298);
#221=LINE('',#1489,#299);
#222=LINE('',#1491,#300);
#223=LINE('',#1496,#301);
#224=LINE('',#1497,#302);
#225=LINE('',#1500,#303);
#226=LINE('',#1501,#304);
#227=LINE('',#1504,#305);
#228=LINE('',#1508,#306);
#229=LINE('',#1512,#307);
#230=LINE('',#1521,#308);
#231=LINE('',#1522,#309);
#232=LINE('',#1524,#310);
#233=LINE('',#1526,#311);
#234=LINE('',#1528,#312);
#235=LINE('',#1531,#313);
#236=LINE('',#1533,#314);
#237=LINE('',#1534,#315);
#238=LINE('',#1535,#316);
#239=LINE('',#1542,#317);
#240=LINE('',#1544,#318);
#241=LINE('',#1547,#319);
#242=LINE('',#1550,#320);
#243=LINE('',#1552,#321);
#244=LINE('',#1553,#322);
#245=LINE('',#1559,#323);
#246=LINE('',#1562,#324);
#247=LINE('',#1566,#325);
#248=LINE('',#1570,#326);
#249=LINE('',#1571,#327);
#250=LINE('',#1573,#328);
#251=VECTOR('',#1036,0.8);
#252=VECTOR('',#1055,10.);
#253=VECTOR('',#1056,10.);
#254=VECTOR('',#1059,1.);
#255=VECTOR('',#1062,10.);
#256=VECTOR('',#1065,10.);
#257=VECTOR('',#1066,10.);
#258=VECTOR('',#1069,10.);
#259=VECTOR('',#1072,10.);
#260=VECTOR('',#1073,10.);
#261=VECTOR('',#1084,10.);
#262=VECTOR('',#1085,10.);
#263=VECTOR('',#1088,1.);
#264=VECTOR('',#1089,10.);
#265=VECTOR('',#1092,10.);
#266=VECTOR('',#1099,10.);
#267=VECTOR('',#1102,10.);
#268=VECTOR('',#1105,10.);
#269=VECTOR('',#1108,10.);
#270=VECTOR('',#1109,10.);
#271=VECTOR('',#1110,10.);
#272=VECTOR('',#1111,10.);
#273=VECTOR('',#1114,10.);
#274=VECTOR('',#1117,10.);
#275=VECTOR('',#1120,10.);
#276=VECTOR('',#1129,10.);
#277=VECTOR('',#1130,10.);
#278=VECTOR('',#1131,10.);
#279=VECTOR('',#1132,10.);
#280=VECTOR('',#1133,10.);
#281=VECTOR('',#1134,10.);
#282=VECTOR('',#1143,10.);
#283=VECTOR('',#1148,10.);
#284=VECTOR('',#1149,10.);
#285=VECTOR('',#1150,10.);
#286=VECTOR('',#1157,10.);
#287=VECTOR('',#1160,10.);
#288=VECTOR('',#1163,10.);
#289=VECTOR('',#1164,10.);
#290=VECTOR('',#1165,10.);
#291=VECTOR('',#1170,10.);
#292=VECTOR('',#1175,10.);
#293=VECTOR('',#1176,10.);
#294=VECTOR('',#1177,10.);
#295=VECTOR('',#1184,10.);
#296=VECTOR('',#1187,10.);
#297=VECTOR('',#1190,10.);
#298=VECTOR('',#1191,10.);
#299=VECTOR('',#1194,10.);
#300=VECTOR('',#1197,10.);
#301=VECTOR('',#1202,10.);
#302=VECTOR('',#1203,10.);
#303=VECTOR('',#1206,10.);
#304=VECTOR('',#1207,10.);
#305=VECTOR('',#1210,10.);
#306=VECTOR('',#1213,10.);
#307=VECTOR('',#1216,10.);
#308=VECTOR('',#1227,10.);
#309=VECTOR('',#1228,10.);
#310=VECTOR('',#1231,10.);
#311=VECTOR('',#1234,10.);
#312=VECTOR('',#1237,10.);
#313=VECTOR('',#1240,10.);
#314=VECTOR('',#1241,10.);
#315=VECTOR('',#1242,10.);
#316=VECTOR('',#1243,10.);
#317=VECTOR('',#1252,1.25);
#318=VECTOR('',#1255,1.25);
#319=VECTOR('',#1258,1.45);
#320=VECTOR('',#1263,1.45);
#321=VECTOR('',#1266,10.);
#322=VECTOR('',#1267,10.);
#323=VECTOR('',#1278,0.775);
#324=VECTOR('',#1281,2.25);
#325=VECTOR('',#1286,0.775);
#326=VECTOR('',#1291,10.);
#327=VECTOR('',#1292,10.);
#328=VECTOR('',#1295,10.);
#329=CIRCLE('',#937,0.8);
#330=CIRCLE('',#938,0.8);
#331=CIRCLE('',#940,0.775);
#332=CIRCLE('',#942,2.);
#333=CIRCLE('',#943,1.);
#334=CIRCLE('',#944,1.);
#335=CIRCLE('',#946,1.);
#336=CIRCLE('',#948,1.);
#337=CIRCLE('',#951,1.);
#338=CIRCLE('',#953,1.);
#339=CIRCLE('',#954,1.);
#340=CIRCLE('',#955,2.);
#341=CIRCLE('',#959,1.);
#342=CIRCLE('',#961,1.);
#343=CIRCLE('',#962,1.);
#344=CIRCLE('',#964,1.);
#345=CIRCLE('',#965,2.);
#346=CIRCLE('',#966,2.);
#347=CIRCLE('',#967,2.);
#348=CIRCLE('',#968,2.);
#349=CIRCLE('',#969,1.45);
#350=CIRCLE('',#970,1.45);
#351=CIRCLE('',#972,1.25);
#352=CIRCLE('',#973,1.25);
#353=CIRCLE('',#975,1.);
#354=CIRCLE('',#977,1.);
#355=CIRCLE('',#978,1.45);
#356=CIRCLE('',#980,0.5);
#357=CIRCLE('',#981,0.5);
#358=CIRCLE('',#984,0.5);
#359=CIRCLE('',#985,0.5);
#360=CIRCLE('',#988,1.);
#361=CIRCLE('',#989,1.);
#362=CIRCLE('',#991,1.);
#363=CIRCLE('',#995,2.);
#364=CIRCLE('',#998,2.);
#365=CIRCLE('',#999,2.);
#366=CIRCLE('',#1000,2.);
#367=CIRCLE('',#1001,0.775);
#368=CIRCLE('',#1002,2.25);
#369=CIRCLE('',#1003,0.775);
#370=CIRCLE('',#1009,1.25);
#371=CIRCLE('',#1010,1.25);
#372=CIRCLE('',#1015,1.45);
#373=CIRCLE('',#1024,2.25);
#374=CIRCLE('',#1026,0.775);
#375=VERTEX_POINT('',#1300);
#376=VERTEX_POINT('',#1302);
#377=VERTEX_POINT('',#1306);
#378=VERTEX_POINT('',#1309);
#379=VERTEX_POINT('',#1310);
#380=VERTEX_POINT('',#1315);
#381=VERTEX_POINT('',#1317);
#382=VERTEX_POINT('',#1319);
#383=VERTEX_POINT('',#1328);
#384=VERTEX_POINT('',#1329);
#385=VERTEX_POINT('',#1334);
#386=VERTEX_POINT('',#1336);
#387=VERTEX_POINT('',#1340);
#388=VERTEX_POINT('',#1344);
#389=VERTEX_POINT('',#1346);
#390=VERTEX_POINT('',#1348);
#391=VERTEX_POINT('',#1352);
#392=VERTEX_POINT('',#1353);
#393=VERTEX_POINT('',#1360);
#394=VERTEX_POINT('',#1362);
#395=VERTEX_POINT('',#1364);
#396=VERTEX_POINT('',#1374);
#397=VERTEX_POINT('',#1378);
#398=VERTEX_POINT('',#1382);
#399=VERTEX_POINT('',#1383);
#400=VERTEX_POINT('',#1385);
#401=VERTEX_POINT('',#1387);
#402=VERTEX_POINT('',#1391);
#403=VERTEX_POINT('',#1393);
#404=VERTEX_POINT('',#1395);
#405=VERTEX_POINT('',#1397);
#406=VERTEX_POINT('',#1400);
#407=VERTEX_POINT('',#1401);
#408=VERTEX_POINT('',#1403);
#409=VERTEX_POINT('',#1405);
#410=VERTEX_POINT('',#1407);
#411=VERTEX_POINT('',#1409);
#412=VERTEX_POINT('',#1411);
#413=VERTEX_POINT('',#1413);
#414=VERTEX_POINT('',#1416);
#415=VERTEX_POINT('',#1418);
#416=VERTEX_POINT('',#1421);
#417=VERTEX_POINT('',#1423);
#418=VERTEX_POINT('',#1425);
#419=VERTEX_POINT('',#1427);
#420=VERTEX_POINT('',#1429);
#421=VERTEX_POINT('',#1432);
#422=VERTEX_POINT('',#1434);
#423=VERTEX_POINT('',#1437);
#424=VERTEX_POINT('',#1441);
#425=VERTEX_POINT('',#1443);
#426=VERTEX_POINT('',#1445);
#427=VERTEX_POINT('',#1448);
#428=VERTEX_POINT('',#1451);
#429=VERTEX_POINT('',#1452);
#430=VERTEX_POINT('',#1454);
#431=VERTEX_POINT('',#1456);
#432=VERTEX_POINT('',#1460);
#433=VERTEX_POINT('',#1462);
#434=VERTEX_POINT('',#1466);
#435=VERTEX_POINT('',#1468);
#436=VERTEX_POINT('',#1472);
#437=VERTEX_POINT('',#1477);
#438=VERTEX_POINT('',#1479);
#439=VERTEX_POINT('',#1483);
#440=VERTEX_POINT('',#1493);
#441=VERTEX_POINT('',#1494);
#442=VERTEX_POINT('',#1499);
#443=VERTEX_POINT('',#1503);
#444=VERTEX_POINT('',#1505);
#445=VERTEX_POINT('',#1507);
#446=VERTEX_POINT('',#1509);
#447=VERTEX_POINT('',#1511);
#448=VERTEX_POINT('',#1514);
#449=VERTEX_POINT('',#1516);
#450=VERTEX_POINT('',#1518);
#451=VERTEX_POINT('',#1530);
#452=VERTEX_POINT('',#1532);
#453=VERTEX_POINT('',#1536);
#454=VERTEX_POINT('',#1538);
#455=VERTEX_POINT('',#1546);
#456=VERTEX_POINT('',#1561);
#457=VERTEX_POINT('',#1565);
#458=VERTEX_POINT('',#1569);
#459=EDGE_CURVE('',#375,#375,#329,.T.);
#460=EDGE_CURVE('',#375,#376,#173,.T.);
#461=EDGE_CURVE('',#376,#376,#330,.T.);
#462=EDGE_CURVE('',#377,#377,#331,.T.);
#463=EDGE_CURVE('',#378,#379,#15,.F.);
#464=EDGE_CURVE('',#379,#380,#332,.T.);
#465=EDGE_CURVE('',#380,#381,#333,.T.);
#466=EDGE_CURVE('',#381,#382,#334,.T.);
#467=EDGE_CURVE('',#382,#378,#16,.F.);
#468=EDGE_CURVE('',#383,#384,#335,.T.);
#469=EDGE_CURVE('',#384,#381,#174,.T.);
#470=EDGE_CURVE('',#380,#383,#175,.T.);
#471=EDGE_CURVE('',#381,#385,#176,.T.);
#472=EDGE_CURVE('',#386,#385,#336,.F.);
#473=EDGE_CURVE('',#386,#382,#177,.T.);
#474=EDGE_CURVE('',#387,#384,#178,.T.);
#475=EDGE_CURVE('',#387,#385,#179,.T.);
#476=EDGE_CURVE('',#383,#388,#180,.T.);
#477=EDGE_CURVE('',#389,#388,#337,.T.);
#478=EDGE_CURVE('',#389,#390,#181,.T.);
#479=EDGE_CURVE('',#390,#387,#182,.T.);
#480=EDGE_CURVE('',#391,#392,#17,.T.);
#481=EDGE_CURVE('',#391,#393,#338,.T.);
#482=EDGE_CURVE('',#393,#394,#339,.T.);
#483=EDGE_CURVE('',#394,#395,#340,.T.);
#484=EDGE_CURVE('',#392,#395,#18,.T.);
#485=EDGE_CURVE('',#388,#394,#183,.T.);
#486=EDGE_CURVE('',#393,#389,#184,.T.);
#487=EDGE_CURVE('',#396,#393,#185,.T.);
#488=EDGE_CURVE('',#396,#390,#186,.T.);
#489=EDGE_CURVE('',#391,#397,#187,.T.);
#490=EDGE_CURVE('',#397,#396,#341,.T.);
#491=EDGE_CURVE('',#398,#399,#342,.T.);
#492=EDGE_CURVE('',#399,#400,#188,.T.);
#493=EDGE_CURVE('',#400,#401,#343,.T.);
#494=EDGE_CURVE('',#401,#398,#189,.T.);
#495=EDGE_CURVE('',#398,#402,#190,.T.);
#496=EDGE_CURVE('',#403,#402,#344,.T.);
#497=EDGE_CURVE('',#404,#403,#191,.T.);
#498=EDGE_CURVE('',#404,#405,#192,.T.);
#499=EDGE_CURVE('',#399,#405,#193,.T.);
#500=EDGE_CURVE('',#406,#407,#194,.T.);
#501=EDGE_CURVE('',#408,#407,#345,.F.);
#502=EDGE_CURVE('',#409,#408,#195,.T.);
#503=EDGE_CURVE('',#410,#409,#346,.F.);
#504=EDGE_CURVE('',#410,#411,#196,.T.);
#505=EDGE_CURVE('',#412,#411,#347,.F.);
#506=EDGE_CURVE('',#413,#412,#197,.T.);
#507=EDGE_CURVE('',#406,#413,#348,.F.);
#508=EDGE_CURVE('',#414,#414,#349,.T.);
#509=EDGE_CURVE('',#415,#415,#350,.T.);
#510=EDGE_CURVE('',#416,#401,#198,.T.);
#511=EDGE_CURVE('',#417,#416,#199,.T.);
#512=EDGE_CURVE('',#418,#417,#200,.T.);
#513=EDGE_CURVE('',#419,#418,#201,.T.);
#514=EDGE_CURVE('',#419,#420,#202,.T.);
#515=EDGE_CURVE('',#402,#420,#203,.T.);
#516=EDGE_CURVE('',#421,#421,#351,.T.);
#517=EDGE_CURVE('',#422,#422,#352,.T.);
#518=EDGE_CURVE('',#420,#423,#353,.T.);
#519=EDGE_CURVE('',#423,#403,#204,.T.);
#520=EDGE_CURVE('',#424,#419,#354,.F.);
#521=EDGE_CURVE('',#425,#424,#205,.T.);
#522=EDGE_CURVE('',#425,#426,#206,.T.);
#523=EDGE_CURVE('',#423,#426,#207,.T.);
#524=EDGE_CURVE('',#427,#427,#355,.T.);
#525=EDGE_CURVE('',#428,#429,#356,.T.);
#526=EDGE_CURVE('',#428,#430,#208,.T.);
#527=EDGE_CURVE('',#430,#431,#357,.T.);
#528=EDGE_CURVE('',#431,#429,#209,.T.);
#529=EDGE_CURVE('',#428,#432,#210,.T.);
#530=EDGE_CURVE('',#433,#432,#211,.T.);
#531=EDGE_CURVE('',#430,#433,#212,.T.);
#532=EDGE_CURVE('',#434,#432,#358,.T.);
#533=EDGE_CURVE('',#434,#435,#213,.T.);
#534=EDGE_CURVE('',#435,#433,#359,.T.);
#535=EDGE_CURVE('',#434,#436,#214,.T.);
#536=EDGE_CURVE('',#436,#379,#215,.T.);
#537=EDGE_CURVE('',#435,#378,#216,.T.);
#538=EDGE_CURVE('',#437,#417,#360,.T.);
#539=EDGE_CURVE('',#416,#438,#361,.F.);
#540=EDGE_CURVE('',#438,#437,#217,.T.);
#541=EDGE_CURVE('',#382,#439,#218,.T.);
#542=EDGE_CURVE('',#418,#439,#362,.T.);
#543=EDGE_CURVE('',#437,#391,#219,.T.);
#544=EDGE_CURVE('',#392,#431,#220,.T.);
#545=EDGE_CURVE('',#439,#424,#221,.T.);
#546=EDGE_CURVE('',#386,#425,#222,.T.);
#547=EDGE_CURVE('',#440,#441,#363,.T.);
#548=EDGE_CURVE('',#441,#408,#223,.T.);
#549=EDGE_CURVE('',#407,#440,#224,.T.);
#550=EDGE_CURVE('',#442,#441,#225,.T.);
#551=EDGE_CURVE('',#409,#442,#226,.T.);
#552=EDGE_CURVE('',#440,#443,#227,.T.);
#553=EDGE_CURVE('',#444,#443,#364,.T.);
#554=EDGE_CURVE('',#444,#445,#228,.T.);
#555=EDGE_CURVE('',#446,#445,#365,.T.);
#556=EDGE_CURVE('',#446,#447,#229,.T.);
#557=EDGE_CURVE('',#442,#447,#366,.T.);
#558=EDGE_CURVE('',#448,#448,#367,.T.);
#559=EDGE_CURVE('',#449,#449,#368,.T.);
#560=EDGE_CURVE('',#450,#450,#369,.T.);
#561=EDGE_CURVE('',#443,#406,#230,.T.);
#562=EDGE_CURVE('',#413,#444,#231,.T.);
#563=EDGE_CURVE('',#445,#412,#232,.T.);
#564=EDGE_CURVE('',#411,#446,#233,.T.);
#565=EDGE_CURVE('',#447,#410,#234,.T.);
#566=EDGE_CURVE('',#451,#397,#235,.T.);
#567=EDGE_CURVE('',#452,#451,#236,.T.);
#568=EDGE_CURVE('',#405,#452,#237,.T.);
#569=EDGE_CURVE('',#426,#404,#238,.T.);
#570=EDGE_CURVE('',#453,#453,#370,.T.);
#571=EDGE_CURVE('',#454,#454,#371,.T.);
#572=EDGE_CURVE('',#422,#453,#239,.T.);
#573=EDGE_CURVE('',#421,#454,#240,.T.);
#574=EDGE_CURVE('',#415,#455,#241,.T.);
#575=EDGE_CURVE('',#455,#455,#372,.T.);
#576=EDGE_CURVE('',#414,#427,#242,.T.);
#577=EDGE_CURVE('',#452,#400,#243,.T.);
#578=EDGE_CURVE('',#438,#451,#244,.T.);
#579=EDGE_CURVE('',#448,#377,#245,.T.);
#580=EDGE_CURVE('',#449,#456,#246,.T.);
#581=EDGE_CURVE('',#456,#456,#373,.T.);
#582=EDGE_CURVE('',#450,#457,#247,.T.);
#583=EDGE_CURVE('',#457,#457,#374,.T.);
#584=EDGE_CURVE('',#458,#429,#248,.T.);
#585=EDGE_CURVE('',#436,#458,#249,.T.);
#586=EDGE_CURVE('',#458,#395,#250,.T.);
#587=ORIENTED_EDGE('',*,*,#459,.F.);
#588=ORIENTED_EDGE('',*,*,#460,.T.);
#589=ORIENTED_EDGE('',*,*,#461,.F.);
#590=ORIENTED_EDGE('',*,*,#460,.F.);
#591=ORIENTED_EDGE('',*,*,#459,.T.);
#592=ORIENTED_EDGE('',*,*,#462,.T.);
#593=ORIENTED_EDGE('',*,*,#463,.T.);
#594=ORIENTED_EDGE('',*,*,#464,.T.);
#595=ORIENTED_EDGE('',*,*,#465,.T.);
#596=ORIENTED_EDGE('',*,*,#466,.T.);
#597=ORIENTED_EDGE('',*,*,#467,.T.);
#598=ORIENTED_EDGE('',*,*,#468,.T.);
#599=ORIENTED_EDGE('',*,*,#469,.T.);
#600=ORIENTED_EDGE('',*,*,#465,.F.);
#601=ORIENTED_EDGE('',*,*,#470,.T.);
#602=ORIENTED_EDGE('',*,*,#466,.F.);
#603=ORIENTED_EDGE('',*,*,#471,.T.);
#604=ORIENTED_EDGE('',*,*,#472,.F.);
#605=ORIENTED_EDGE('',*,*,#473,.T.);
#606=ORIENTED_EDGE('',*,*,#469,.F.);
#607=ORIENTED_EDGE('',*,*,#474,.F.);
#608=ORIENTED_EDGE('',*,*,#475,.T.);
#609=ORIENTED_EDGE('',*,*,#471,.F.);
#610=ORIENTED_EDGE('',*,*,#468,.F.);
#611=ORIENTED_EDGE('',*,*,#476,.T.);
#612=ORIENTED_EDGE('',*,*,#477,.F.);
#613=ORIENTED_EDGE('',*,*,#478,.T.);
#614=ORIENTED_EDGE('',*,*,#479,.T.);
#615=ORIENTED_EDGE('',*,*,#474,.T.);
#616=ORIENTED_EDGE('',*,*,#480,.F.);
#617=ORIENTED_EDGE('',*,*,#481,.T.);
#618=ORIENTED_EDGE('',*,*,#482,.T.);
#619=ORIENTED_EDGE('',*,*,#483,.T.);
#620=ORIENTED_EDGE('',*,*,#484,.F.);
#621=ORIENTED_EDGE('',*,*,#477,.T.);
#622=ORIENTED_EDGE('',*,*,#485,.T.);
#623=ORIENTED_EDGE('',*,*,#482,.F.);
#624=ORIENTED_EDGE('',*,*,#486,.T.);
#625=ORIENTED_EDGE('',*,*,#486,.F.);
#626=ORIENTED_EDGE('',*,*,#487,.F.);
#627=ORIENTED_EDGE('',*,*,#488,.T.);
#628=ORIENTED_EDGE('',*,*,#478,.F.);
#629=ORIENTED_EDGE('',*,*,#481,.F.);
#630=ORIENTED_EDGE('',*,*,#489,.T.);
#631=ORIENTED_EDGE('',*,*,#490,.T.);
#632=ORIENTED_EDGE('',*,*,#487,.T.);
#633=ORIENTED_EDGE('',*,*,#491,.T.);
#634=ORIENTED_EDGE('',*,*,#492,.T.);
#635=ORIENTED_EDGE('',*,*,#493,.T.);
#636=ORIENTED_EDGE('',*,*,#494,.T.);
#637=ORIENTED_EDGE('',*,*,#491,.F.);
#638=ORIENTED_EDGE('',*,*,#495,.T.);
#639=ORIENTED_EDGE('',*,*,#496,.F.);
#640=ORIENTED_EDGE('',*,*,#497,.F.);
#641=ORIENTED_EDGE('',*,*,#498,.T.);
#642=ORIENTED_EDGE('',*,*,#499,.F.);
#643=ORIENTED_EDGE('',*,*,#500,.T.);
#644=ORIENTED_EDGE('',*,*,#501,.F.);
#645=ORIENTED_EDGE('',*,*,#502,.F.);
#646=ORIENTED_EDGE('',*,*,#503,.F.);
#647=ORIENTED_EDGE('',*,*,#504,.T.);
#648=ORIENTED_EDGE('',*,*,#505,.F.);
#649=ORIENTED_EDGE('',*,*,#506,.F.);
#650=ORIENTED_EDGE('',*,*,#507,.F.);
#651=ORIENTED_EDGE('',*,*,#508,.T.);
#652=ORIENTED_EDGE('',*,*,#509,.T.);
#653=ORIENTED_EDGE('',*,*,#494,.F.);
#654=ORIENTED_EDGE('',*,*,#510,.F.);
#655=ORIENTED_EDGE('',*,*,#511,.F.);
#656=ORIENTED_EDGE('',*,*,#512,.F.);
#657=ORIENTED_EDGE('',*,*,#513,.F.);
#658=ORIENTED_EDGE('',*,*,#514,.T.);
#659=ORIENTED_EDGE('',*,*,#515,.F.);
#660=ORIENTED_EDGE('',*,*,#495,.F.);
#661=ORIENTED_EDGE('',*,*,#516,.T.);
#662=ORIENTED_EDGE('',*,*,#517,.T.);
#663=ORIENTED_EDGE('',*,*,#518,.T.);
#664=ORIENTED_EDGE('',*,*,#519,.T.);
#665=ORIENTED_EDGE('',*,*,#496,.T.);
#666=ORIENTED_EDGE('',*,*,#515,.T.);
#667=ORIENTED_EDGE('',*,*,#518,.F.);
#668=ORIENTED_EDGE('',*,*,#514,.F.);
#669=ORIENTED_EDGE('',*,*,#520,.F.);
#670=ORIENTED_EDGE('',*,*,#521,.F.);
#671=ORIENTED_EDGE('',*,*,#522,.T.);
#672=ORIENTED_EDGE('',*,*,#523,.F.);
#673=ORIENTED_EDGE('',*,*,#524,.T.);
#674=ORIENTED_EDGE('',*,*,#525,.F.);
#675=ORIENTED_EDGE('',*,*,#526,.T.);
#676=ORIENTED_EDGE('',*,*,#527,.T.);
#677=ORIENTED_EDGE('',*,*,#528,.T.);
#678=ORIENTED_EDGE('',*,*,#526,.F.);
#679=ORIENTED_EDGE('',*,*,#529,.T.);
#680=ORIENTED_EDGE('',*,*,#530,.F.);
#681=ORIENTED_EDGE('',*,*,#531,.F.);
#682=ORIENTED_EDGE('',*,*,#532,.F.);
#683=ORIENTED_EDGE('',*,*,#533,.T.);
#684=ORIENTED_EDGE('',*,*,#534,.T.);
#685=ORIENTED_EDGE('',*,*,#530,.T.);
#686=ORIENTED_EDGE('',*,*,#533,.F.);
#687=ORIENTED_EDGE('',*,*,#535,.T.);
#688=ORIENTED_EDGE('',*,*,#536,.T.);
#689=ORIENTED_EDGE('',*,*,#463,.F.);
#690=ORIENTED_EDGE('',*,*,#537,.F.);
#691=ORIENTED_EDGE('',*,*,#538,.T.);
#692=ORIENTED_EDGE('',*,*,#511,.T.);
#693=ORIENTED_EDGE('',*,*,#539,.T.);
#694=ORIENTED_EDGE('',*,*,#540,.T.);
#695=ORIENTED_EDGE('',*,*,#541,.T.);
#696=ORIENTED_EDGE('',*,*,#542,.F.);
#697=ORIENTED_EDGE('',*,*,#512,.T.);
#698=ORIENTED_EDGE('',*,*,#538,.F.);
#699=ORIENTED_EDGE('',*,*,#543,.T.);
#700=ORIENTED_EDGE('',*,*,#480,.T.);
#701=ORIENTED_EDGE('',*,*,#544,.T.);
#702=ORIENTED_EDGE('',*,*,#527,.F.);
#703=ORIENTED_EDGE('',*,*,#531,.T.);
#704=ORIENTED_EDGE('',*,*,#534,.F.);
#705=ORIENTED_EDGE('',*,*,#537,.T.);
#706=ORIENTED_EDGE('',*,*,#467,.F.);
#707=ORIENTED_EDGE('',*,*,#542,.T.);
#708=ORIENTED_EDGE('',*,*,#545,.T.);
#709=ORIENTED_EDGE('',*,*,#520,.T.);
#710=ORIENTED_EDGE('',*,*,#513,.T.);
#711=ORIENTED_EDGE('',*,*,#545,.F.);
#712=ORIENTED_EDGE('',*,*,#541,.F.);
#713=ORIENTED_EDGE('',*,*,#473,.F.);
#714=ORIENTED_EDGE('',*,*,#546,.T.);
#715=ORIENTED_EDGE('',*,*,#521,.T.);
#716=ORIENTED_EDGE('',*,*,#547,.T.);
#717=ORIENTED_EDGE('',*,*,#548,.T.);
#718=ORIENTED_EDGE('',*,*,#501,.T.);
#719=ORIENTED_EDGE('',*,*,#549,.T.);
#720=ORIENTED_EDGE('',*,*,#548,.F.);
#721=ORIENTED_EDGE('',*,*,#550,.F.);
#722=ORIENTED_EDGE('',*,*,#551,.F.);
#723=ORIENTED_EDGE('',*,*,#502,.T.);
#724=ORIENTED_EDGE('',*,*,#547,.F.);
#725=ORIENTED_EDGE('',*,*,#552,.T.);
#726=ORIENTED_EDGE('',*,*,#553,.F.);
#727=ORIENTED_EDGE('',*,*,#554,.T.);
#728=ORIENTED_EDGE('',*,*,#555,.F.);
#729=ORIENTED_EDGE('',*,*,#556,.T.);
#730=ORIENTED_EDGE('',*,*,#557,.F.);
#731=ORIENTED_EDGE('',*,*,#550,.T.);
#732=ORIENTED_EDGE('',*,*,#558,.T.);
#733=ORIENTED_EDGE('',*,*,#559,.T.);
#734=ORIENTED_EDGE('',*,*,#560,.T.);
#735=ORIENTED_EDGE('',*,*,#553,.T.);
#736=ORIENTED_EDGE('',*,*,#561,.T.);
#737=ORIENTED_EDGE('',*,*,#507,.T.);
#738=ORIENTED_EDGE('',*,*,#562,.T.);
#739=ORIENTED_EDGE('',*,*,#562,.F.);
#740=ORIENTED_EDGE('',*,*,#506,.T.);
#741=ORIENTED_EDGE('',*,*,#563,.F.);
#742=ORIENTED_EDGE('',*,*,#554,.F.);
#743=ORIENTED_EDGE('',*,*,#555,.T.);
#744=ORIENTED_EDGE('',*,*,#563,.T.);
#745=ORIENTED_EDGE('',*,*,#505,.T.);
#746=ORIENTED_EDGE('',*,*,#564,.T.);
#747=ORIENTED_EDGE('',*,*,#557,.T.);
#748=ORIENTED_EDGE('',*,*,#565,.T.);
#749=ORIENTED_EDGE('',*,*,#503,.T.);
#750=ORIENTED_EDGE('',*,*,#551,.T.);
#751=ORIENTED_EDGE('',*,*,#566,.F.);
#752=ORIENTED_EDGE('',*,*,#567,.F.);
#753=ORIENTED_EDGE('',*,*,#568,.F.);
#754=ORIENTED_EDGE('',*,*,#498,.F.);
#755=ORIENTED_EDGE('',*,*,#569,.F.);
#756=ORIENTED_EDGE('',*,*,#522,.F.);
#757=ORIENTED_EDGE('',*,*,#546,.F.);
#758=ORIENTED_EDGE('',*,*,#472,.T.);
#759=ORIENTED_EDGE('',*,*,#475,.F.);
#760=ORIENTED_EDGE('',*,*,#479,.F.);
#761=ORIENTED_EDGE('',*,*,#488,.F.);
#762=ORIENTED_EDGE('',*,*,#490,.F.);
#763=ORIENTED_EDGE('',*,*,#570,.F.);
#764=ORIENTED_EDGE('',*,*,#571,.F.);
#765=ORIENTED_EDGE('',*,*,#519,.F.);
#766=ORIENTED_EDGE('',*,*,#523,.T.);
#767=ORIENTED_EDGE('',*,*,#569,.T.);
#768=ORIENTED_EDGE('',*,*,#497,.T.);
#769=ORIENTED_EDGE('',*,*,#517,.F.);
#770=ORIENTED_EDGE('',*,*,#572,.T.);
#771=ORIENTED_EDGE('',*,*,#570,.T.);
#772=ORIENTED_EDGE('',*,*,#572,.F.);
#773=ORIENTED_EDGE('',*,*,#516,.F.);
#774=ORIENTED_EDGE('',*,*,#573,.T.);
#775=ORIENTED_EDGE('',*,*,#571,.T.);
#776=ORIENTED_EDGE('',*,*,#573,.F.);
#777=ORIENTED_EDGE('',*,*,#509,.F.);
#778=ORIENTED_EDGE('',*,*,#574,.T.);
#779=ORIENTED_EDGE('',*,*,#575,.F.);
#780=ORIENTED_EDGE('',*,*,#574,.F.);
#781=ORIENTED_EDGE('',*,*,#508,.F.);
#782=ORIENTED_EDGE('',*,*,#576,.T.);
#783=ORIENTED_EDGE('',*,*,#524,.F.);
#784=ORIENTED_EDGE('',*,*,#576,.F.);
#785=ORIENTED_EDGE('',*,*,#493,.F.);
#786=ORIENTED_EDGE('',*,*,#577,.F.);
#787=ORIENTED_EDGE('',*,*,#567,.T.);
#788=ORIENTED_EDGE('',*,*,#578,.F.);
#789=ORIENTED_EDGE('',*,*,#539,.F.);
#790=ORIENTED_EDGE('',*,*,#510,.T.);
#791=ORIENTED_EDGE('',*,*,#575,.T.);
#792=ORIENTED_EDGE('',*,*,#492,.F.);
#793=ORIENTED_EDGE('',*,*,#499,.T.);
#794=ORIENTED_EDGE('',*,*,#568,.T.);
#795=ORIENTED_EDGE('',*,*,#577,.T.);
#796=ORIENTED_EDGE('',*,*,#540,.F.);
#797=ORIENTED_EDGE('',*,*,#578,.T.);
#798=ORIENTED_EDGE('',*,*,#566,.T.);
#799=ORIENTED_EDGE('',*,*,#489,.F.);
#800=ORIENTED_EDGE('',*,*,#543,.F.);
#801=ORIENTED_EDGE('',*,*,#549,.F.);
#802=ORIENTED_EDGE('',*,*,#500,.F.);
#803=ORIENTED_EDGE('',*,*,#561,.F.);
#804=ORIENTED_EDGE('',*,*,#552,.F.);
#805=ORIENTED_EDGE('',*,*,#564,.F.);
#806=ORIENTED_EDGE('',*,*,#504,.F.);
#807=ORIENTED_EDGE('',*,*,#565,.F.);
#808=ORIENTED_EDGE('',*,*,#556,.F.);
#809=ORIENTED_EDGE('',*,*,#558,.F.);
#810=ORIENTED_EDGE('',*,*,#579,.T.);
#811=ORIENTED_EDGE('',*,*,#462,.F.);
#812=ORIENTED_EDGE('',*,*,#579,.F.);
#813=ORIENTED_EDGE('',*,*,#559,.F.);
#814=ORIENTED_EDGE('',*,*,#580,.T.);
#815=ORIENTED_EDGE('',*,*,#581,.F.);
#816=ORIENTED_EDGE('',*,*,#580,.F.);
#817=ORIENTED_EDGE('',*,*,#560,.F.);
#818=ORIENTED_EDGE('',*,*,#582,.T.);
#819=ORIENTED_EDGE('',*,*,#583,.F.);
#820=ORIENTED_EDGE('',*,*,#582,.F.);
#821=ORIENTED_EDGE('',*,*,#525,.T.);
#822=ORIENTED_EDGE('',*,*,#584,.F.);
#823=ORIENTED_EDGE('',*,*,#585,.F.);
#824=ORIENTED_EDGE('',*,*,#535,.F.);
#825=ORIENTED_EDGE('',*,*,#532,.T.);
#826=ORIENTED_EDGE('',*,*,#529,.F.);
#827=ORIENTED_EDGE('',*,*,#461,.T.);
#828=ORIENTED_EDGE('',*,*,#581,.T.);
#829=ORIENTED_EDGE('',*,*,#583,.T.);
#830=ORIENTED_EDGE('',*,*,#528,.F.);
#831=ORIENTED_EDGE('',*,*,#544,.F.);
#832=ORIENTED_EDGE('',*,*,#484,.T.);
#833=ORIENTED_EDGE('',*,*,#586,.F.);
#834=ORIENTED_EDGE('',*,*,#584,.T.);
#835=ORIENTED_EDGE('',*,*,#464,.F.);
#836=ORIENTED_EDGE('',*,*,#536,.F.);
#837=ORIENTED_EDGE('',*,*,#585,.T.);
#838=ORIENTED_EDGE('',*,*,#586,.T.);
#839=ORIENTED_EDGE('',*,*,#483,.F.);
#840=ORIENTED_EDGE('',*,*,#485,.F.);
#841=ORIENTED_EDGE('',*,*,#476,.F.);
#842=ORIENTED_EDGE('',*,*,#470,.F.);
#843=CYLINDRICAL_SURFACE('',#936,0.8);
#844=CYLINDRICAL_SURFACE('',#945,1.);
#845=CYLINDRICAL_SURFACE('',#947,1.);
#846=CYLINDRICAL_SURFACE('',#956,1.);
#847=CYLINDRICAL_SURFACE('',#958,1.);
#848=CYLINDRICAL_SURFACE('',#960,1.);
#849=CYLINDRICAL_SURFACE('',#974,1.);
#850=CYLINDRICAL_SURFACE('',#979,0.5);
#851=CYLINDRICAL_SURFACE('',#983,0.5);
#852=CYLINDRICAL_SURFACE('',#987,1.);
#853=CYLINDRICAL_SURFACE('',#992,1.);
#854=CYLINDRICAL_SURFACE('',#994,2.);
#855=CYLINDRICAL_SURFACE('',#1004,2.);
#856=CYLINDRICAL_SURFACE('',#1006,2.);
#857=CYLINDRICAL_SURFACE('',#1007,2.);
#858=CYLINDRICAL_SURFACE('',#1012,1.25);
#859=CYLINDRICAL_SURFACE('',#1013,1.25);
#860=CYLINDRICAL_SURFACE('',#1014,1.45);
#861=CYLINDRICAL_SURFACE('',#1016,1.45);
#862=CYLINDRICAL_SURFACE('',#1022,0.775);
#863=CYLINDRICAL_SURFACE('',#1023,2.25);
#864=CYLINDRICAL_SURFACE('',#1025,0.775);
#865=ADVANCED_FACE('',(#61),#843,.T.);
#866=ADVANCED_FACE('',(#62,#21),#37,.F.);
#867=ADVANCED_FACE('',(#63),#19,.T.);
#868=ADVANCED_FACE('',(#64),#844,.T.);
#869=ADVANCED_FACE('',(#65),#845,.F.);
#870=ADVANCED_FACE('',(#66),#38,.T.);
#871=ADVANCED_FACE('',(#67),#39,.T.);
#872=ADVANCED_FACE('',(#68),#20,.T.);
#873=ADVANCED_FACE('',(#69),#846,.T.);
#874=ADVANCED_FACE('',(#70),#40,.T.);
#875=ADVANCED_FACE('',(#71),#847,.F.);
#876=ADVANCED_FACE('',(#72),#848,.T.);
#877=ADVANCED_FACE('',(#73,#22,#23,#24),#41,.T.);
#878=ADVANCED_FACE('',(#74,#25,#26),#42,.T.);
#879=ADVANCED_FACE('',(#75),#849,.T.);
#880=ADVANCED_FACE('',(#76,#27),#43,.T.);
#881=ADVANCED_FACE('',(#77),#850,.F.);
#882=ADVANCED_FACE('',(#78),#44,.T.);
#883=ADVANCED_FACE('',(#79),#851,.F.);
#884=ADVANCED_FACE('',(#80),#45,.T.);
#885=ADVANCED_FACE('',(#81),#852,.T.);
#886=ADVANCED_FACE('',(#82),#46,.T.);
#887=ADVANCED_FACE('',(#83),#853,.T.);
#888=ADVANCED_FACE('',(#84),#47,.T.);
#889=ADVANCED_FACE('',(#85),#854,.T.);
#890=ADVANCED_FACE('',(#86),#48,.T.);
#891=ADVANCED_FACE('',(#87,#28,#29,#30),#49,.F.);
#892=ADVANCED_FACE('',(#88),#855,.T.);
#893=ADVANCED_FACE('',(#89),#50,.T.);
#894=ADVANCED_FACE('',(#90),#856,.T.);
#895=ADVANCED_FACE('',(#91),#857,.T.);
#896=ADVANCED_FACE('',(#92,#31,#32),#51,.F.);
#897=ADVANCED_FACE('',(#93),#52,.T.);
#898=ADVANCED_FACE('',(#94),#858,.F.);
#899=ADVANCED_FACE('',(#95),#859,.F.);
#900=ADVANCED_FACE('',(#96),#860,.F.);
#901=ADVANCED_FACE('',(#97),#861,.F.);
#902=ADVANCED_FACE('',(#98,#33),#53,.T.);
#903=ADVANCED_FACE('',(#99),#54,.T.);
#904=ADVANCED_FACE('',(#100),#55,.T.);
#905=ADVANCED_FACE('',(#101),#56,.T.);
#906=ADVANCED_FACE('',(#102),#57,.T.);
#907=ADVANCED_FACE('',(#103),#862,.F.);
#908=ADVANCED_FACE('',(#104),#863,.F.);
#909=ADVANCED_FACE('',(#105),#864,.F.);
#910=ADVANCED_FACE('',(#106,#34,#35,#36),#58,.T.);
#911=ADVANCED_FACE('',(#107),#59,.T.);
#912=ADVANCED_FACE('',(#108),#60,.T.);
#913=CLOSED_SHELL('',(#865,#866,#867,#868,#869,#870,#871,#872,#873,#874,
#875,#876,#877,#878,#879,#880,#881,#882,#883,#884,#885,#886,#887,#888,#889,
#890,#891,#892,#893,#894,#895,#896,#897,#898,#899,#900,#901,#902,#903,#904,
#905,#906,#907,#908,#909,#910,#911,#912));
#914=DERIVED_UNIT_ELEMENT(#917,1.);
#915=DERIVED_UNIT_ELEMENT(#1580,-3.);
#916=DIMENSIONAL_EXPONENTS(0.,1.,0.,0.,0.,0.,0.);
#917=(
CONVERSION_BASED_UNIT('gram',#919)
MASS_UNIT()
NAMED_UNIT(#916)
);
#918=(
MASS_UNIT()
NAMED_UNIT(*)
SI_UNIT(.KILO.,.GRAM.)
);
#919=MASS_MEASURE_WITH_UNIT(MASS_MEASURE(0.001),#918);
#920=DERIVED_UNIT((#914,#915));
#921=MEASURE_REPRESENTATION_ITEM('density measure',
POSITIVE_RATIO_MEASURE(1.),#920);
#922=PROPERTY_DEFINITION_REPRESENTATION(#927,#924);
#923=PROPERTY_DEFINITION_REPRESENTATION(#928,#925);
#924=REPRESENTATION('material name',(#926),#1577);
#925=REPRESENTATION('density',(#921),#1577);
#926=DESCRIPTIVE_REPRESENTATION_ITEM('Generic','Generic');
#927=PROPERTY_DEFINITION('material property','material name',#1587);
#928=PROPERTY_DEFINITION('material property','density of part',#1587);
#929=DATE_TIME_ROLE('creation_date');
#930=APPLIED_DATE_AND_TIME_ASSIGNMENT(#931,#929,(#1587));
#931=DATE_AND_TIME(#932,#933);
#932=CALENDAR_DATE(2026,9,8);
#933=LOCAL_TIME(0,0,0.,#934);
#934=COORDINATED_UNIVERSAL_TIME_OFFSET(0,0,.BEHIND.);
#935=AXIS2_PLACEMENT_3D('',#1298,#1030,#1031);
#936=AXIS2_PLACEMENT_3D('',#1299,#1032,#1033);
#937=AXIS2_PLACEMENT_3D('',#1301,#1034,#1035);
#938=AXIS2_PLACEMENT_3D('',#1304,#1037,#1038);
#939=AXIS2_PLACEMENT_3D('',#1305,#1039,#1040);
#940=AXIS2_PLACEMENT_3D('',#1307,#1041,#1042);
#941=AXIS2_PLACEMENT_3D('',#1308,#1043,#1044);
#942=AXIS2_PLACEMENT_3D('',#1316,#1045,#1046);
#943=AXIS2_PLACEMENT_3D('',#1318,#1047,#1048);
#944=AXIS2_PLACEMENT_3D('',#1320,#1049,#1050);
#945=AXIS2_PLACEMENT_3D('',#1327,#1051,#1052);
#946=AXIS2_PLACEMENT_3D('',#1330,#1053,#1054);
#947=AXIS2_PLACEMENT_3D('',#1333,#1057,#1058);
#948=AXIS2_PLACEMENT_3D('',#1337,#1060,#1061);
#949=AXIS2_PLACEMENT_3D('',#1339,#1063,#1064);
#950=AXIS2_PLACEMENT_3D('',#1343,#1067,#1068);
#951=AXIS2_PLACEMENT_3D('',#1347,#1070,#1071);
#952=AXIS2_PLACEMENT_3D('',#1351,#1074,#1075);
#953=AXIS2_PLACEMENT_3D('',#1361,#1076,#1077);
#954=AXIS2_PLACEMENT_3D('',#1363,#1078,#1079);
#955=AXIS2_PLACEMENT_3D('',#1365,#1080,#1081);
#956=AXIS2_PLACEMENT_3D('',#1370,#1082,#1083);
#957=AXIS2_PLACEMENT_3D('',#1373,#1086,#1087);
#958=AXIS2_PLACEMENT_3D('',#1377,#1090,#1091);
#959=AXIS2_PLACEMENT_3D('',#1380,#1093,#1094);
#960=AXIS2_PLACEMENT_3D('',#1381,#1095,#1096);
#961=AXIS2_PLACEMENT_3D('',#1384,#1097,#1098);
#962=AXIS2_PLACEMENT_3D('',#1388,#1100,#1101);
#963=AXIS2_PLACEMENT_3D('',#1390,#1103,#1104);
#964=AXIS2_PLACEMENT_3D('',#1394,#1106,#1107);
#965=AXIS2_PLACEMENT_3D('',#1404,#1112,#1113);
#966=AXIS2_PLACEMENT_3D('',#1408,#1115,#1116);
#967=AXIS2_PLACEMENT_3D('',#1412,#1118,#1119);
#968=AXIS2_PLACEMENT_3D('',#1415,#1121,#1122);
#969=AXIS2_PLACEMENT_3D('',#1417,#1123,#1124);
#970=AXIS2_PLACEMENT_3D('',#1419,#1125,#1126);
#971=AXIS2_PLACEMENT_3D('',#1420,#1127,#1128);
#972=AXIS2_PLACEMENT_3D('',#1433,#1135,#1136);
#973=AXIS2_PLACEMENT_3D('',#1435,#1137,#1138);
#974=AXIS2_PLACEMENT_3D('',#1436,#1139,#1140);
#975=AXIS2_PLACEMENT_3D('',#1438,#1141,#1142);
#976=AXIS2_PLACEMENT_3D('',#1440,#1144,#1145);
#977=AXIS2_PLACEMENT_3D('',#1442,#1146,#1147);
#978=AXIS2_PLACEMENT_3D('',#1449,#1151,#1152);
#979=AXIS2_PLACEMENT_3D('',#1450,#1153,#1154);
#980=AXIS2_PLACEMENT_3D('',#1453,#1155,#1156);
#981=AXIS2_PLACEMENT_3D('',#1457,#1158,#1159);
#982=AXIS2_PLACEMENT_3D('',#1459,#1161,#1162);
#983=AXIS2_PLACEMENT_3D('',#1465,#1166,#1167);
#984=AXIS2_PLACEMENT_3D('',#1467,#1168,#1169);
#985=AXIS2_PLACEMENT_3D('',#1470,#1171,#1172);
#986=AXIS2_PLACEMENT_3D('',#1471,#1173,#1174);
#987=AXIS2_PLACEMENT_3D('',#1476,#1178,#1179);
#988=AXIS2_PLACEMENT_3D('',#1478,#1180,#1181);
#989=AXIS2_PLACEMENT_3D('',#1480,#1182,#1183);
#990=AXIS2_PLACEMENT_3D('',#1482,#1185,#1186);
#991=AXIS2_PLACEMENT_3D('',#1485,#1188,#1189);
#992=AXIS2_PLACEMENT_3D('',#1488,#1192,#1193);
#993=AXIS2_PLACEMENT_3D('',#1490,#1195,#1196);
#994=AXIS2_PLACEMENT_3D('',#1492,#1198,#1199);
#995=AXIS2_PLACEMENT_3D('',#1495,#1200,#1201);
#996=AXIS2_PLACEMENT_3D('',#1498,#1204,#1205);
#997=AXIS2_PLACEMENT_3D('',#1502,#1208,#1209);
#998=AXIS2_PLACEMENT_3D('',#1506,#1211,#1212);
#999=AXIS2_PLACEMENT_3D('',#1510,#1214,#1215);
#1000=AXIS2_PLACEMENT_3D('',#1513,#1217,#1218);
#1001=AXIS2_PLACEMENT_3D('',#1515,#1219,#1220);
#1002=AXIS2_PLACEMENT_3D('',#1517,#1221,#1222);
#1003=AXIS2_PLACEMENT_3D('',#1519,#1223,#1224);
#1004=AXIS2_PLACEMENT_3D('',#1520,#1225,#1226);
#1005=AXIS2_PLACEMENT_3D('',#1523,#1229,#1230);
#1006=AXIS2_PLACEMENT_3D('',#1525,#1232,#1233);
#1007=AXIS2_PLACEMENT_3D('',#1527,#1235,#1236);
#1008=AXIS2_PLACEMENT_3D('',#1529,#1238,#1239);
#1009=AXIS2_PLACEMENT_3D('',#1537,#1244,#1245);
#1010=AXIS2_PLACEMENT_3D('',#1539,#1246,#1247);
#1011=AXIS2_PLACEMENT_3D('',#1540,#1248,#1249);
#1012=AXIS2_PLACEMENT_3D('',#1541,#1250,#1251);
#1013=AXIS2_PLACEMENT_3D('',#1543,#1253,#1254);
#1014=AXIS2_PLACEMENT_3D('',#1545,#1256,#1257);
#1015=AXIS2_PLACEMENT_3D('',#1548,#1259,#1260);
#1016=AXIS2_PLACEMENT_3D('',#1549,#1261,#1262);
#1017=AXIS2_PLACEMENT_3D('',#1551,#1264,#1265);
#1018=AXIS2_PLACEMENT_3D('',#1554,#1268,#1269);
#1019=AXIS2_PLACEMENT_3D('',#1555,#1270,#1271);
#1020=AXIS2_PLACEMENT_3D('',#1556,#1272,#1273);
#1021=AXIS2_PLACEMENT_3D('',#1557,#1274,#1275);
#1022=AXIS2_PLACEMENT_3D('',#1558,#1276,#1277);
#1023=AXIS2_PLACEMENT_3D('',#1560,#1279,#1280);
#1024=AXIS2_PLACEMENT_3D('',#1563,#1282,#1283);
#1025=AXIS2_PLACEMENT_3D('',#1564,#1284,#1285);
#1026=AXIS2_PLACEMENT_3D('',#1567,#1287,#1288);
#1027=AXIS2_PLACEMENT_3D('',#1568,#1289,#1290);
#1028=AXIS2_PLACEMENT_3D('',#1572,#1293,#1294);
#1029=AXIS2_PLACEMENT_3D('',#1574,#1296,#1297);
#1030=DIRECTION('axis',(0.,0.,1.));
#1031=DIRECTION('refdir',(1.,0.,0.));
#1032=DIRECTION('center_axis',(0.,0.,-1.));
#1033=DIRECTION('ref_axis',(1.,0.,0.));
#1034=DIRECTION('center_axis',(0.,0.,-1.));
#1035=DIRECTION('ref_axis',(1.,0.,0.));
#1036=DIRECTION('',(0.,0.,1.));
#1037=DIRECTION('center_axis',(0.,0.,1.));
#1038=DIRECTION('ref_axis',(1.,0.,0.));
#1039=DIRECTION('center_axis',(0.,0.,1.));
#1040=DIRECTION('ref_axis',(1.,0.,0.));
#1041=DIRECTION('center_axis',(0.,0.,1.));
#1042=DIRECTION('ref_axis',(-1.,0.,0.));
#1043=DIRECTION('center_axis',(0.,1.,0.));
#1044=DIRECTION('ref_axis',(0.,0.,1.));
#1045=DIRECTION('center_axis',(0.,1.,0.));
#1046=DIRECTION('ref_axis',(0.707106781186546,0.,0.707106781186549));
#1047=DIRECTION('center_axis',(0.,0.,1.));
#1048=DIRECTION('ref_axis',(0.,1.,0.));
#1049=DIRECTION('center_axis',(0.,-1.,0.));
#1050=DIRECTION('ref_axis',(0.707106781186546,0.,0.707106781186549));
#1051=DIRECTION('center_axis',(0.,0.,-1.));
#1052=DIRECTION('ref_axis',(-0.707106781186548,0.707106781186548,0.));
#1053=DIRECTION('center_axis',(0.,0.,1.));
#1054=DIRECTION('ref_axis',(-0.707106781186548,0.707106781186548,0.));
#1055=DIRECTION('',(0.,0.,1.));
#1056=DIRECTION('',(0.,0.,-1.));
#1057=DIRECTION('center_axis',(0.,-1.,0.));
#1058=DIRECTION('ref_axis',(1.,0.,0.));
#1059=DIRECTION('',(0.,-1.,0.));
#1060=DIRECTION('center_axis',(0.,-1.,0.));
#1061=DIRECTION('ref_axis',(1.,0.,0.));
#1062=DIRECTION('',(0.,1.,0.));
#1063=DIRECTION('center_axis',(-1.,0.,0.));
#1064=DIRECTION('ref_axis',(0.,1.,0.));
#1065=DIRECTION('',(0.,1.,0.));
#1066=DIRECTION('',(0.,0.,1.));
#1067=DIRECTION('center_axis',(0.,0.,-1.));
#1068=DIRECTION('ref_axis',(-1.,0.,0.));
#1069=DIRECTION('',(1.,3.64007549057429E-16,0.));
#1070=DIRECTION('center_axis',(0.,0.,1.));
#1071=DIRECTION('ref_axis',(0.707106781186548,0.707106781186547,0.));
#1072=DIRECTION('',(-1.11022302462516E-15,-1.,0.));
#1073=DIRECTION('',(-1.,0.,0.));
#1074=DIRECTION('center_axis',(0.,-1.,0.));
#1075=DIRECTION('ref_axis',(0.,0.,-1.));
#1076=DIRECTION('center_axis',(0.,-1.,0.));
#1077=DIRECTION('ref_axis',(-0.707106781186547,0.,0.707106781186548));
#1078=DIRECTION('center_axis',(0.,0.,1.));
#1079=DIRECTION('ref_axis',(1.,0.,0.));
#1080=DIRECTION('center_axis',(0.,1.,0.));
#1081=DIRECTION('ref_axis',(-0.707106781186547,0.,0.707106781186548));
#1082=DIRECTION('center_axis',(0.,0.,-1.));
#1083=DIRECTION('ref_axis',(0.707106781186548,0.707106781186547,0.));
#1084=DIRECTION('',(0.,0.,1.));
#1085=DIRECTION('',(0.,0.,-1.));
#1086=DIRECTION('center_axis',(1.,0.,0.));
#1087=DIRECTION('ref_axis',(0.,-1.,0.));
#1088=DIRECTION('',(0.,1.,0.));
#1089=DIRECTION('',(0.,0.,-1.));
#1090=DIRECTION('center_axis',(0.,1.,0.));
#1091=DIRECTION('ref_axis',(-1.,0.,0.));
#1092=DIRECTION('',(0.,-1.,0.));
#1093=DIRECTION('center_axis',(0.,-1.,0.));
#1094=DIRECTION('ref_axis',(-1.,0.,0.));
#1095=DIRECTION('center_axis',(0.,0.,1.));
#1096=DIRECTION('ref_axis',(0.707106781186549,0.707106781186546,0.));
#1097=DIRECTION('center_axis',(0.,0.,-1.));
#1098=DIRECTION('ref_axis',(0.707106781186549,0.707106781186546,0.));
#1099=DIRECTION('',(0.,0.,-1.));
#1100=DIRECTION('center_axis',(0.,0.,1.));
#1101=DIRECTION('ref_axis',(0.707106781186549,0.707106781186546,0.));
#1102=DIRECTION('',(0.,0.,1.));
#1103=DIRECTION('center_axis',(0.,0.,1.));
#1104=DIRECTION('ref_axis',(1.,0.,0.));
#1105=DIRECTION('',(-1.,0.,0.));
#1106=DIRECTION('center_axis',(0.,0.,-1.));
#1107=DIRECTION('ref_axis',(-0.707106781186549,0.707106781186546,0.));
#1108=DIRECTION('',(0.,1.,0.));
#1109=DIRECTION('',(1.,0.,0.));
#1110=DIRECTION('',(0.,-1.,0.));
#1111=DIRECTION('',(-1.,0.,0.));
#1112=DIRECTION('center_axis',(0.,0.,-1.));
#1113=DIRECTION('ref_axis',(-0.707106781186548,-0.707106781186548,0.));
#1114=DIRECTION('',(0.,-1.,0.));
#1115=DIRECTION('center_axis',(0.,0.,-1.));
#1116=DIRECTION('ref_axis',(-0.707106781186548,0.707106781186548,0.));
#1117=DIRECTION('',(1.,0.,0.));
#1118=DIRECTION('center_axis',(0.,0.,-1.));
#1119=DIRECTION('ref_axis',(0.707106781186548,0.707106781186548,0.));
#1120=DIRECTION('',(0.,1.,0.));
#1121=DIRECTION('center_axis',(0.,0.,-1.));
#1122=DIRECTION('ref_axis',(0.707106781186548,-0.707106781186548,0.));
#1123=DIRECTION('center_axis',(0.,0.,-1.));
#1124=DIRECTION('ref_axis',(1.,0.,0.));
#1125=DIRECTION('center_axis',(0.,0.,-1.));
#1126=DIRECTION('ref_axis',(1.,0.,0.));
#1127=DIRECTION('center_axis',(0.,1.,0.));
#1128=DIRECTION('ref_axis',(1.,0.,0.));
#1129=DIRECTION('',(1.,0.,0.));
#1130=DIRECTION('',(0.,0.,1.));
#1131=DIRECTION('',(1.,0.,0.));
#1132=DIRECTION('',(0.,0.,-1.));
#1133=DIRECTION('',(-1.,0.,0.));
#1134=DIRECTION('',(0.,0.,-1.));
#1135=DIRECTION('center_axis',(0.,-1.,0.));
#1136=DIRECTION('ref_axis',(1.,0.,0.));
#1137=DIRECTION('center_axis',(0.,-1.,0.));
#1138=DIRECTION('ref_axis',(1.,0.,0.));
#1139=DIRECTION('center_axis',(0.,0.,-1.));
#1140=DIRECTION('ref_axis',(-0.707106781186549,0.707106781186546,0.));
#1141=DIRECTION('center_axis',(0.,0.,1.));
#1142=DIRECTION('ref_axis',(-0.707106781186549,0.707106781186546,0.));
#1143=DIRECTION('',(0.,0.,1.));
#1144=DIRECTION('center_axis',(0.,0.,-1.));
#1145=DIRECTION('ref_axis',(0.,-1.,0.));
#1146=DIRECTION('center_axis',(0.,0.,1.));
#1147=DIRECTION('ref_axis',(-0.707106781186548,0.707106781186548,0.));
#1148=DIRECTION('',(0.,1.,0.));
#1149=DIRECTION('',(-1.,0.,0.));
#1150=DIRECTION('',(0.,-1.,0.));
#1151=DIRECTION('center_axis',(0.,0.,1.));
#1152=DIRECTION('ref_axis',(1.,0.,0.));
#1153=DIRECTION('center_axis',(0.,0.,-1.));
#1154=DIRECTION('ref_axis',(0.707106781186548,0.707106781186548,0.));
#1155=DIRECTION('center_axis',(0.,0.,-1.));
#1156=DIRECTION('ref_axis',(0.707106781186548,0.707106781186548,0.));
#1157=DIRECTION('',(0.,0.,-1.));
#1158=DIRECTION('center_axis',(0.,0.,-1.));
#1159=DIRECTION('ref_axis',(0.707106781186548,0.707106781186548,0.));
#1160=DIRECTION('',(0.,0.,1.));
#1161=DIRECTION('center_axis',(0.,-1.,0.));
#1162=DIRECTION('ref_axis',(-1.,0.,0.));
#1163=DIRECTION('',(-1.,0.,0.));
#1164=DIRECTION('',(0.,0.,1.));
#1165=DIRECTION('',(-1.,0.,0.));
#1166=DIRECTION('center_axis',(0.,0.,-1.));
#1167=DIRECTION('ref_axis',(-0.707106781186548,0.707106781186548,0.));
#1168=DIRECTION('center_axis',(0.,0.,-1.));
#1169=DIRECTION('ref_axis',(-0.707106781186548,0.707106781186548,0.));
#1170=DIRECTION('',(0.,0.,-1.));
#1171=DIRECTION('center_axis',(0.,0.,-1.));
#1172=DIRECTION('ref_axis',(-0.707106781186548,0.707106781186548,0.));
#1173=DIRECTION('center_axis',(1.,5.44226972855469E-16,0.));
#1174=DIRECTION('ref_axis',(5.44226972855469E-16,-1.,0.));
#1175=DIRECTION('',(5.44226972855469E-16,-1.,0.));
#1176=DIRECTION('',(0.,0.,-1.));
#1177=DIRECTION('',(0.,-1.,0.));
#1178=DIRECTION('center_axis',(0.,0.,-1.));
#1179=DIRECTION('ref_axis',(0.707106781186548,0.707106781186548,0.));
#1180=DIRECTION('center_axis',(0.,0.,1.));
#1181=DIRECTION('ref_axis',(0.707106781186548,0.707106781186548,0.));
#1182=DIRECTION('center_axis',(0.,0.,1.));
#1183=DIRECTION('ref_axis',(0.707106781186548,0.707106781186548,0.));
#1184=DIRECTION('',(0.,0.,-1.));
#1185=DIRECTION('center_axis',(0.,0.,-1.));
#1186=DIRECTION('ref_axis',(-1.,0.,0.));
#1187=DIRECTION('',(0.,1.,0.));
#1188=DIRECTION('center_axis',(0.,0.,1.));
#1189=DIRECTION('ref_axis',(-0.707106781186548,0.707106781186548,0.));
#1190=DIRECTION('',(0.,-1.,0.));
#1191=DIRECTION('',(0.,1.,0.));
#1192=DIRECTION('center_axis',(0.,0.,-1.));
#1193=DIRECTION('ref_axis',(-0.707106781186548,0.707106781186548,0.));
#1194=DIRECTION('',(0.,0.,1.));
#1195=DIRECTION('center_axis',(-1.,0.,0.));
#1196=DIRECTION('ref_axis',(0.,1.,0.));
#1197=DIRECTION('',(0.,0.,1.));
#1198=DIRECTION('center_axis',(0.,0.,1.));
#1199=DIRECTION('ref_axis',(-0.707106781186548,-0.707106781186548,0.));
#1200=DIRECTION('center_axis',(0.,0.,-1.));
#1201=DIRECTION('ref_axis',(-0.707106781186548,-0.707106781186548,0.));
#1202=DIRECTION('',(0.,0.,-1.));
#1203=DIRECTION('',(0.,0.,1.));
#1204=DIRECTION('center_axis',(-1.,0.,0.));
#1205=DIRECTION('ref_axis',(0.,1.,0.));
#1206=DIRECTION('',(0.,-1.,0.));
#1207=DIRECTION('',(0.,0.,1.));
#1208=DIRECTION('center_axis',(0.,0.,-1.));
#1209=DIRECTION('ref_axis',(-1.,0.,0.));
#1210=DIRECTION('',(1.,0.,0.));
#1211=DIRECTION('center_axis',(0.,0.,-1.));
#1212=DIRECTION('ref_axis',(0.707106781186548,-0.707106781186548,0.));
#1213=DIRECTION('',(0.,1.,0.));
#1214=DIRECTION('center_axis',(0.,0.,-1.));
#1215=DIRECTION('ref_axis',(0.707106781186548,0.707106781186548,0.));
#1216=DIRECTION('',(-1.,0.,0.));
#1217=DIRECTION('center_axis',(0.,0.,-1.));
#1218=DIRECTION('ref_axis',(-0.707106781186548,0.707106781186548,0.));
#1219=DIRECTION('center_axis',(0.,0.,-1.));
#1220=DIRECTION('ref_axis',(-1.,0.,0.));
#1221=DIRECTION('center_axis',(0.,0.,-1.));
#1222=DIRECTION('ref_axis',(-1.,0.,0.));
#1223=DIRECTION('center_axis',(0.,0.,-1.));
#1224=DIRECTION('ref_axis',(-1.,0.,0.));
#1225=DIRECTION('center_axis',(0.,0.,1.));
#1226=DIRECTION('ref_axis',(0.707106781186548,-0.707106781186548,0.));
#1227=DIRECTION('',(0.,0.,-1.));
#1228=DIRECTION('',(0.,0.,1.));
#1229=DIRECTION('center_axis',(1.,0.,0.));
#1230=DIRECTION('ref_axis',(0.,-1.,0.));
#1231=DIRECTION('',(0.,0.,-1.));
#1232=DIRECTION('center_axis',(0.,0.,1.));
#1233=DIRECTION('ref_axis',(0.707106781186548,0.707106781186548,0.));
#1234=DIRECTION('',(0.,0.,1.));
#1235=DIRECTION('center_axis',(0.,0.,1.));
#1236=DIRECTION('ref_axis',(-0.707106781186548,0.707106781186548,0.));
#1237=DIRECTION('',(0.,0.,-1.));
#1238=DIRECTION('center_axis',(0.,1.,0.));
#1239=DIRECTION('ref_axis',(0.,0.,-1.));
#1240=DIRECTION('',(0.,0.,-1.));
#1241=DIRECTION('',(-1.,0.,0.));
#1242=DIRECTION('',(0.,0.,-1.));
#1243=DIRECTION('',(0.,0.,1.));
#1244=DIRECTION('center_axis',(0.,-1.,0.));
#1245=DIRECTION('ref_axis',(1.,0.,0.));
#1246=DIRECTION('center_axis',(0.,-1.,0.));
#1247=DIRECTION('ref_axis',(1.,0.,0.));
#1248=DIRECTION('center_axis',(-1.,0.,0.));
#1249=DIRECTION('ref_axis',(0.,0.,1.));
#1250=DIRECTION('center_axis',(0.,-1.,0.));
#1251=DIRECTION('ref_axis',(1.,0.,0.));
#1252=DIRECTION('',(0.,-1.,0.));
#1253=DIRECTION('center_axis',(0.,-1.,0.));
#1254=DIRECTION('ref_axis',(1.,0.,0.));
#1255=DIRECTION('',(0.,-1.,0.));
#1256=DIRECTION('center_axis',(0.,0.,-1.));
#1257=DIRECTION('ref_axis',(1.,0.,0.));
#1258=DIRECTION('',(0.,0.,-1.));
#1259=DIRECTION('center_axis',(0.,0.,1.));
#1260=DIRECTION('ref_axis',(1.,0.,0.));
#1261=DIRECTION('center_axis',(0.,0.,-1.));
#1262=DIRECTION('ref_axis',(1.,0.,0.));
#1263=DIRECTION('',(0.,0.,-1.));
#1264=DIRECTION('center_axis',(0.,0.,-1.));
#1265=DIRECTION('ref_axis',(0.,1.,0.));
#1266=DIRECTION('',(0.,1.,0.));
#1267=DIRECTION('',(0.,-1.,0.));
#1268=DIRECTION('center_axis',(1.,0.,0.));
#1269=DIRECTION('ref_axis',(0.,0.,-1.));
#1270=DIRECTION('center_axis',(1.,0.,0.));
#1271=DIRECTION('ref_axis',(0.,-1.,0.));
#1272=DIRECTION('center_axis',(0.,-1.,0.));
#1273=DIRECTION('ref_axis',(1.,0.,0.));
#1274=DIRECTION('center_axis',(0.,1.,0.));
#1275=DIRECTION('ref_axis',(-1.,0.,0.));
#1276=DIRECTION('center_axis',(0.,0.,-1.));
#1277=DIRECTION('ref_axis',(-1.,0.,0.));
#1278=DIRECTION('',(0.,0.,-1.));
#1279=DIRECTION('center_axis',(0.,0.,-1.));
#1280=DIRECTION('ref_axis',(-1.,0.,0.));
#1281=DIRECTION('',(0.,0.,-1.));
#1282=DIRECTION('center_axis',(0.,0.,1.));
#1283=DIRECTION('ref_axis',(-1.,0.,0.));
#1284=DIRECTION('center_axis',(0.,0.,-1.));
#1285=DIRECTION('ref_axis',(-1.,0.,0.));
#1286=DIRECTION('',(0.,0.,-1.));
#1287=DIRECTION('center_axis',(0.,0.,1.));
#1288=DIRECTION('ref_axis',(-1.,0.,0.));
#1289=DIRECTION('center_axis',(0.,0.,-1.));
#1290=DIRECTION('ref_axis',(-1.,0.,0.));
#1291=DIRECTION('',(0.,1.,0.));
#1292=DIRECTION('',(1.,0.,0.));
#1293=DIRECTION('center_axis',(-1.,0.,0.));
#1294=DIRECTION('ref_axis',(0.,1.,0.));
#1295=DIRECTION('',(0.,0.,-1.));
#1296=DIRECTION('center_axis',(0.,1.,0.));
#1297=DIRECTION('ref_axis',(1.,0.,0.));
#1298=CARTESIAN_POINT('',(0.,0.,0.));
#1299=CARTESIAN_POINT('Origin',(-4.5,0.,2.));
#1300=CARTESIAN_POINT('',(-5.3,9.79717439317883E-17,-4.));
#1301=CARTESIAN_POINT('Origin',(-4.5,0.,-4.));
#1302=CARTESIAN_POINT('',(-5.3,-9.79717439317883E-17,-1.));
#1303=CARTESIAN_POINT('',(-5.3,9.79717439317883E-17,2.));
#1304=CARTESIAN_POINT('Origin',(-4.5,0.,-1.));
#1305=CARTESIAN_POINT('Origin',(-4.5,0.,-4.));
#1306=CARTESIAN_POINT('',(-3.725,9.49101269339199E-17,-4.));
#1307=CARTESIAN_POINT('Origin',(-4.5,0.,-4.));
#1308=CARTESIAN_POINT('Origin',(-7.09999999999999,-6.1,-15.1));
#1309=CARTESIAN_POINT('',(-6.09999999999999,-5.28953454698168,-14.09999999937));
#1310=CARTESIAN_POINT('',(-6.09999999999999,-5.1,-13.3679491924311));
#1311=CARTESIAN_POINT('Ctrl Pts',(-6.09999999999999,-5.1,-13.3679491924311));
#1312=CARTESIAN_POINT('Ctrl Pts',(-6.09999999999999,-5.1,-13.6080267784041));
#1313=CARTESIAN_POINT('Ctrl Pts',(-6.09999999999999,-5.17816769614475,-13.8820955324604));
#1314=CARTESIAN_POINT('Ctrl Pts',(-6.09999999999999,-5.28953454723769,-14.0999999992409));
#1315=CARTESIAN_POINT('',(-5.09999999999999,-5.1,-15.1));
#1316=CARTESIAN_POINT('Origin',(-7.09999999999999,-5.1,-15.1));
#1317=CARTESIAN_POINT('',(-6.09999999999999,-6.1,-15.1));
#1318=CARTESIAN_POINT('Origin',(-5.09999999999999,-6.1,-15.1));
#1319=CARTESIAN_POINT('',(-7.1,-6.1,-14.1));
#1320=CARTESIAN_POINT('Origin',(-7.09999999999999,-6.1,-15.1));
#1321=CARTESIAN_POINT('Ctrl Pts',(-6.09999999974183,-5.28953454749369,-14.1));
#1322=CARTESIAN_POINT('Ctrl Pts',(-6.11343295016273,-5.29639987436087,-14.1));
#1323=CARTESIAN_POINT('Ctrl Pts',(-6.1266729705654,-5.30335174923765,-14.1));
#1324=CARTESIAN_POINT('Ctrl Pts',(-6.48477672779598,-5.49608728381128,-14.1));
#1325=CARTESIAN_POINT('Ctrl Pts',(-6.82290177791904,-5.82290177791904,-14.1));
#1326=CARTESIAN_POINT('Ctrl Pts',(-7.09999999999999,-6.1,-14.1));
#1327=CARTESIAN_POINT('Origin',(-5.09999999999999,-6.1,0.));
#1328=CARTESIAN_POINT('',(-5.09999999999999,-5.10000000000001,-32.5));
#1329=CARTESIAN_POINT('',(-6.09999999999999,-6.1,-32.5));
#1330=CARTESIAN_POINT('Origin',(-5.09999999999999,-6.1,-32.5));
#1331=CARTESIAN_POINT('',(-6.09999999999999,-6.1,0.));
#1332=CARTESIAN_POINT('',(-5.09999999999999,-5.1,0.));
#1333=CARTESIAN_POINT('Origin',(-7.09999999999999,-9.5,-15.1));
#1334=CARTESIAN_POINT('',(-6.09999999999999,-8.5,-15.1));
#1335=CARTESIAN_POINT('',(-6.09999999999999,-9.5,-15.1));
#1336=CARTESIAN_POINT('',(-7.1,-8.5,-14.1));
#1337=CARTESIAN_POINT('Origin',(-7.09999999999999,-8.5,-15.1));
#1338=CARTESIAN_POINT('',(-7.1,-8.5,-14.1));
#1339=CARTESIAN_POINT('Origin',(-6.09999999999999,-9.5,0.));
#1340=CARTESIAN_POINT('',(-6.09999999999999,-8.5,-32.5));
#1341=CARTESIAN_POINT('',(-6.09999999999999,-5.1,-32.5));
#1342=CARTESIAN_POINT('',(-6.09999999999999,-8.5,0.));
#1343=CARTESIAN_POINT('Origin',(3.33066907387547E-15,-7.8,-32.5));
#1344=CARTESIAN_POINT('',(5.1,-5.1,-32.5));
#1345=CARTESIAN_POINT('',(-6.09999999999999,-5.10000000000001,-32.5));
#1346=CARTESIAN_POINT('',(6.1,-6.1,-32.5));
#1347=CARTESIAN_POINT('Origin',(5.1,-6.1,-32.5));
#1348=CARTESIAN_POINT('',(6.1,-8.5,-32.5));
#1349=CARTESIAN_POINT('',(6.1,-5.1,-32.5));
#1350=CARTESIAN_POINT('',(10.375,-8.5,-32.5));
#1351=CARTESIAN_POINT('Origin',(7.1,-6.1,-15.1));
#1352=CARTESIAN_POINT('',(7.1,-6.1,-14.1));
#1353=CARTESIAN_POINT('',(6.1,-5.28953454698168,-14.09999999937));
#1354=CARTESIAN_POINT('Ctrl Pts',(7.1,-6.1,-14.1));
#1355=CARTESIAN_POINT('Ctrl Pts',(6.82290177791904,-5.82290177791904,-14.1));
#1356=CARTESIAN_POINT('Ctrl Pts',(6.48477672779599,-5.49608728381128,-14.1));
#1357=CARTESIAN_POINT('Ctrl Pts',(6.12667297056541,-5.30335174923765,-14.1));
#1358=CARTESIAN_POINT('Ctrl Pts',(6.11343295016273,-5.29639987436087,-14.1));
#1359=CARTESIAN_POINT('Ctrl Pts',(6.09999999974183,-5.28953454749369,-14.1));
#1360=CARTESIAN_POINT('',(6.1,-6.1,-15.1));
#1361=CARTESIAN_POINT('Origin',(7.1,-6.1,-15.1));
#1362=CARTESIAN_POINT('',(5.1,-5.1,-15.1));
#1363=CARTESIAN_POINT('Origin',(5.1,-6.1,-15.1));
#1364=CARTESIAN_POINT('',(6.1,-5.1,-13.3679491924311));
#1365=CARTESIAN_POINT('Origin',(7.1,-5.1,-15.1));
#1366=CARTESIAN_POINT('Ctrl Pts',(6.1,-5.28953454723769,-14.0999999992409));
#1367=CARTESIAN_POINT('Ctrl Pts',(6.1,-5.17816769614475,-13.8820955324603));
#1368=CARTESIAN_POINT('Ctrl Pts',(6.1,-5.1,-13.6080267784041));
#1369=CARTESIAN_POINT('Ctrl Pts',(6.1,-5.1,-13.3679491924311));
#1370=CARTESIAN_POINT('Origin',(5.1,-6.1,0.));
#1371=CARTESIAN_POINT('',(5.1,-5.1,0.));
#1372=CARTESIAN_POINT('',(6.1,-6.1,0.));
#1373=CARTESIAN_POINT('Origin',(6.1,-6.1,0.));
#1374=CARTESIAN_POINT('',(6.1,-8.5,-15.1));
#1375=CARTESIAN_POINT('',(6.1,-6.1,-15.1));
#1376=CARTESIAN_POINT('',(6.1,-8.5,0.));
#1377=CARTESIAN_POINT('Origin',(7.1,-6.1,-15.1));
#1378=CARTESIAN_POINT('',(7.1,-8.5,-14.1));
#1379=CARTESIAN_POINT('',(7.1,6.1,-14.1));
#1380=CARTESIAN_POINT('Origin',(7.1,-8.5,-15.1));
#1381=CARTESIAN_POINT('Origin',(19.75,5.1,-1.));
#1382=CARTESIAN_POINT('',(19.75,6.1,0.));
#1383=CARTESIAN_POINT('',(20.75,5.1,0.));
#1384=CARTESIAN_POINT('Origin',(19.75,5.1,0.));
#1385=CARTESIAN_POINT('',(20.75,5.1,-4.));
#1386=CARTESIAN_POINT('',(20.75,5.1,-1.));
#1387=CARTESIAN_POINT('',(19.75,6.1,-4.));
#1388=CARTESIAN_POINT('Origin',(19.75,5.1,-4.));
#1389=CARTESIAN_POINT('',(19.75,6.1,-1.));
#1390=CARTESIAN_POINT('Origin',(2.77555756156289E-15,-7.8,0.));
#1391=CARTESIAN_POINT('',(-19.75,6.1,0.));
#1392=CARTESIAN_POINT('',(7.1,6.1,0.));
#1393=CARTESIAN_POINT('',(-20.75,5.1,0.));
#1394=CARTESIAN_POINT('Origin',(-19.75,5.1,0.));
#1395=CARTESIAN_POINT('',(-20.75,-8.5,0.));
#1396=CARTESIAN_POINT('',(-20.75,-9.5,0.));
#1397=CARTESIAN_POINT('',(20.75,-8.5,0.));
#1398=CARTESIAN_POINT('',(10.375,-8.5,0.));
#1399=CARTESIAN_POINT('',(20.75,6.1,0.));
#1400=CARTESIAN_POINT('',(5.1,-3.5,0.));
#1401=CARTESIAN_POINT('',(-5.1,-3.5,0.));
#1402=CARTESIAN_POINT('',(-3.55,-3.5,0.));
#1403=CARTESIAN_POINT('',(-7.1,-1.5,0.));
#1404=CARTESIAN_POINT('Origin',(-5.1,-1.5,0.));
#1405=CARTESIAN_POINT('',(-7.1,1.5,0.));
#1406=CARTESIAN_POINT('',(-7.1,-9.5,0.));
#1407=CARTESIAN_POINT('',(-5.1,3.5,0.));
#1408=CARTESIAN_POINT('Origin',(-5.1,1.5,0.));
#1409=CARTESIAN_POINT('',(5.1,3.5,0.));
#1410=CARTESIAN_POINT('',(3.55,3.5,0.));
#1411=CARTESIAN_POINT('',(7.1,1.5,0.));
#1412=CARTESIAN_POINT('Origin',(5.1,1.5,0.));
#1413=CARTESIAN_POINT('',(7.1,-1.5,0.));
#1414=CARTESIAN_POINT('',(7.1,6.1,0.));
#1415=CARTESIAN_POINT('Origin',(5.1,-1.5,0.));
#1416=CARTESIAN_POINT('',(-14.7,1.77573785876366E-16,0.));
#1417=CARTESIAN_POINT('Origin',(-13.25,0.,0.));
#1418=CARTESIAN_POINT('',(11.8,1.77573785876366E-16,0.));
#1419=CARTESIAN_POINT('Origin',(13.25,0.,0.));
#1420=CARTESIAN_POINT('Origin',(-7.1,6.1,0.));
#1421=CARTESIAN_POINT('',(6.1,6.1,-4.));
#1422=CARTESIAN_POINT('',(7.1,6.1,-4.));
#1423=CARTESIAN_POINT('',(6.1,6.1,-14.1));
#1424=CARTESIAN_POINT('',(6.1,6.1,0.));
#1425=CARTESIAN_POINT('',(-6.1,6.1,-14.1));
#1426=CARTESIAN_POINT('',(-7.1,6.1,-14.1));
#1427=CARTESIAN_POINT('',(-6.1,6.1,-4.));
#1428=CARTESIAN_POINT('',(-6.1,6.1,0.));
#1429=CARTESIAN_POINT('',(-19.75,6.1,-4.));
#1430=CARTESIAN_POINT('',(-7.1,6.1,-4.));
#1431=CARTESIAN_POINT('',(-19.75,6.1,-1.));
#1432=CARTESIAN_POINT('',(-19.2,6.1,-2.));
#1433=CARTESIAN_POINT('Origin',(-17.95,6.1,-2.));
#1434=CARTESIAN_POINT('',(16.7,6.1,-2.));
#1435=CARTESIAN_POINT('Origin',(17.95,6.1,-2.));
#1436=CARTESIAN_POINT('Origin',(-19.75,5.1,-1.));
#1437=CARTESIAN_POINT('',(-20.75,5.1,-4.));
#1438=CARTESIAN_POINT('Origin',(-19.75,5.1,-4.));
#1439=CARTESIAN_POINT('',(-20.75,5.1,-1.));
#1440=CARTESIAN_POINT('Origin',(-7.1,6.1,-4.));
#1441=CARTESIAN_POINT('',(-7.1,5.1,-4.));
#1442=CARTESIAN_POINT('Origin',(-6.1,5.1,-4.));
#1443=CARTESIAN_POINT('',(-7.1,-8.5,-4.));
#1444=CARTESIAN_POINT('',(-7.1,-1.7,-4.));
#1445=CARTESIAN_POINT('',(-20.75,-8.5,-4.));
#1446=CARTESIAN_POINT('',(6.825,-8.5,-4.));
#1447=CARTESIAN_POINT('',(-20.75,6.1,-4.));
#1448=CARTESIAN_POINT('',(-14.7,-1.77573785876366E-16,-4.));
#1449=CARTESIAN_POINT('Origin',(-13.25,0.,-4.));
#1450=CARTESIAN_POINT('Origin',(5.6,4.6,0.));
#1451=CARTESIAN_POINT('',(5.6,5.1,-1.));
#1452=CARTESIAN_POINT('',(6.1,4.6,-1.));
#1453=CARTESIAN_POINT('Origin',(5.6,4.6,-1.));
#1454=CARTESIAN_POINT('',(5.6,5.1,-14.1));
#1455=CARTESIAN_POINT('',(5.6,5.1,0.));
#1456=CARTESIAN_POINT('',(6.1,4.6,-14.1));
#1457=CARTESIAN_POINT('Origin',(5.6,4.6,-14.1));
#1458=CARTESIAN_POINT('',(6.1,4.6,0.));
#1459=CARTESIAN_POINT('Origin',(6.1,5.1,0.));
#1460=CARTESIAN_POINT('',(-5.6,5.1,-1.));
#1461=CARTESIAN_POINT('',(3.05,5.1,-1.));
#1462=CARTESIAN_POINT('',(-5.6,5.1,-14.1));
#1463=CARTESIAN_POINT('',(-5.6,5.1,0.));
#1464=CARTESIAN_POINT('',(7.1,5.1,-14.1));
#1465=CARTESIAN_POINT('Origin',(-5.6,4.6,0.));
#1466=CARTESIAN_POINT('',(-6.1,4.6,-1.));
#1467=CARTESIAN_POINT('Origin',(-5.6,4.6,-1.));
#1468=CARTESIAN_POINT('',(-6.1,4.6,-14.1));
#1469=CARTESIAN_POINT('',(-6.1,4.6,0.));
#1470=CARTESIAN_POINT('Origin',(-5.6,4.6,-14.1));
#1471=CARTESIAN_POINT('Origin',(-6.1,5.1,0.));
#1472=CARTESIAN_POINT('',(-6.09999999999999,-5.1,-1.));
#1473=CARTESIAN_POINT('',(-6.1,1.7,-1.));
#1474=CARTESIAN_POINT('',(-6.09999999999999,-5.1,0.));
#1475=CARTESIAN_POINT('',(-6.1,6.1,-14.1));
#1476=CARTESIAN_POINT('Origin',(6.1,5.1,0.));
#1477=CARTESIAN_POINT('',(7.1,5.1,-14.1));
#1478=CARTESIAN_POINT('Origin',(6.1,5.1,-14.1));
#1479=CARTESIAN_POINT('',(7.1,5.1,-4.));
#1480=CARTESIAN_POINT('Origin',(6.1,5.1,-4.));
#1481=CARTESIAN_POINT('',(7.1,5.1,0.));
#1482=CARTESIAN_POINT('Origin',(0.,-1.2,-14.1));
#1483=CARTESIAN_POINT('',(-7.1,5.1,-14.1));
#1484=CARTESIAN_POINT('',(-7.1,-8.5,-14.1));
#1485=CARTESIAN_POINT('Origin',(-6.1,5.1,-14.1));
#1486=CARTESIAN_POINT('',(7.1,6.1,-14.1));
#1487=CARTESIAN_POINT('',(6.1,-8.5,-14.1));
#1488=CARTESIAN_POINT('Origin',(-6.1,5.1,0.));
#1489=CARTESIAN_POINT('',(-7.1,5.1,0.));
#1490=CARTESIAN_POINT('Origin',(-7.1,-9.5,0.));
#1491=CARTESIAN_POINT('',(-7.1,-8.5,0.));
#1492=CARTESIAN_POINT('Origin',(-5.1,-1.5,-0.5));
#1493=CARTESIAN_POINT('',(-5.1,-3.5,2.));
#1494=CARTESIAN_POINT('',(-7.1,-1.5,2.));
#1495=CARTESIAN_POINT('Origin',(-5.1,-1.5,2.));
#1496=CARTESIAN_POINT('',(-7.1,-1.5,-0.5));
#1497=CARTESIAN_POINT('',(-5.1,-3.5,-0.5));
#1498=CARTESIAN_POINT('Origin',(-7.1,-9.5,0.));
#1499=CARTESIAN_POINT('',(-7.1,1.5,2.));
#1500=CARTESIAN_POINT('',(-7.1,-6.1,2.));
#1501=CARTESIAN_POINT('',(-7.1,1.5,-0.5));
#1502=CARTESIAN_POINT('Origin',(0.,0.,2.));
#1503=CARTESIAN_POINT('',(5.1,-3.5,2.));
#1504=CARTESIAN_POINT('',(7.1,-3.5,2.));
#1505=CARTESIAN_POINT('',(7.1,-1.5,2.));
#1506=CARTESIAN_POINT('Origin',(5.1,-1.5,2.));
#1507=CARTESIAN_POINT('',(7.1,1.5,2.));
#1508=CARTESIAN_POINT('',(7.1,3.5,2.));
#1509=CARTESIAN_POINT('',(5.1,3.5,2.));
#1510=CARTESIAN_POINT('Origin',(5.1,1.5,2.));
#1511=CARTESIAN_POINT('',(-5.1,3.5,2.));
#1512=CARTESIAN_POINT('',(-7.1,3.5,2.));
#1513=CARTESIAN_POINT('Origin',(-5.1,1.5,2.));
#1514=CARTESIAN_POINT('',(-3.725,9.49101269339199E-17,2.));
#1515=CARTESIAN_POINT('Origin',(-4.5,0.,2.));
#1516=CARTESIAN_POINT('',(2.25,0.,2.));
#1517=CARTESIAN_POINT('Origin',(0.,0.,2.));
#1518=CARTESIAN_POINT('',(5.275,2.22044604925031E-15,2.));
#1519=CARTESIAN_POINT('Origin',(4.5,2.22044604925031E-15,2.));
#1520=CARTESIAN_POINT('Origin',(5.1,-1.5,-0.5));
#1521=CARTESIAN_POINT('',(5.1,-3.5,-0.5));
#1522=CARTESIAN_POINT('',(7.1,-1.5,-0.5));
#1523=CARTESIAN_POINT('Origin',(7.1,6.1,0.));
#1524=CARTESIAN_POINT('',(7.1,1.5,-0.5));
#1525=CARTESIAN_POINT('Origin',(5.1,1.5,-0.5));
#1526=CARTESIAN_POINT('',(5.1,3.5,-0.5));
#1527=CARTESIAN_POINT('Origin',(-5.1,1.5,-0.5));
#1528=CARTESIAN_POINT('',(-5.1,3.5,-0.5));
#1529=CARTESIAN_POINT('Origin',(20.75,-8.5,0.));
#1530=CARTESIAN_POINT('',(7.1,-8.5,-4.));
#1531=CARTESIAN_POINT('',(7.1,-8.5,0.));
#1532=CARTESIAN_POINT('',(20.75,-8.5,-4.));
#1533=CARTESIAN_POINT('',(13.925,-8.5,-4.));
#1534=CARTESIAN_POINT('',(20.75,-8.5,-1.));
#1535=CARTESIAN_POINT('',(-20.75,-8.5,-1.));
#1536=CARTESIAN_POINT('',(16.7,-8.5,-2.));
#1537=CARTESIAN_POINT('Origin',(17.95,-8.5,-2.));
#1538=CARTESIAN_POINT('',(-19.2,-8.5,-2.));
#1539=CARTESIAN_POINT('Origin',(-17.95,-8.5,-2.));
#1540=CARTESIAN_POINT('Origin',(-20.75,-1.7,-2.));
#1541=CARTESIAN_POINT('Origin',(17.95,6.1,-2.));
#1542=CARTESIAN_POINT('',(16.7,6.1,-2.));
#1543=CARTESIAN_POINT('Origin',(-17.95,6.1,-2.));
#1544=CARTESIAN_POINT('',(-19.2,6.1,-2.));
#1545=CARTESIAN_POINT('Origin',(13.25,0.,2.));
#1546=CARTESIAN_POINT('',(11.8,-1.77573785876366E-16,-4.));
#1547=CARTESIAN_POINT('',(11.8,1.77573785876366E-16,2.));
#1548=CARTESIAN_POINT('Origin',(13.25,0.,-4.));
#1549=CARTESIAN_POINT('Origin',(-13.25,0.,2.));
#1550=CARTESIAN_POINT('',(-14.7,1.77573785876366E-16,2.));
#1551=CARTESIAN_POINT('Origin',(7.1,-9.5,-4.));
#1552=CARTESIAN_POINT('',(20.75,-9.5,-4.));
#1553=CARTESIAN_POINT('',(7.1,-1.7,-4.));
#1554=CARTESIAN_POINT('Origin',(20.75,-1.7,-2.));
#1555=CARTESIAN_POINT('Origin',(7.1,6.1,0.));
#1556=CARTESIAN_POINT('Origin',(-7.1,-3.5,-1.));
#1557=CARTESIAN_POINT('Origin',(7.1,3.5,-1.));
#1558=CARTESIAN_POINT('Origin',(-4.5,0.,0.));
#1559=CARTESIAN_POINT('',(-3.725,-9.49101269339199E-17,0.));
#1560=CARTESIAN_POINT('Origin',(0.,0.,0.));
#1561=CARTESIAN_POINT('',(2.25,2.75545529808155E-16,-1.));
#1562=CARTESIAN_POINT('',(2.25,-2.75545529808155E-16,0.));
#1563=CARTESIAN_POINT('Origin',(0.,0.,-1.));
#1564=CARTESIAN_POINT('Origin',(4.5,2.22044604925031E-15,0.));
#1565=CARTESIAN_POINT('',(5.275,2.31535617618423E-15,-1.));
#1566=CARTESIAN_POINT('',(5.275,2.12553592231639E-15,0.));
#1567=CARTESIAN_POINT('Origin',(4.5,2.22044604925031E-15,-1.));
#1568=CARTESIAN_POINT('Origin',(0.,-1.7,-1.));
#1569=CARTESIAN_POINT('',(6.1,-5.1,-1.));
#1570=CARTESIAN_POINT('',(6.1,-3.4,-1.));
#1571=CARTESIAN_POINT('',(-3.05,-5.1,-1.));
#1572=CARTESIAN_POINT('Origin',(6.1,-5.1,0.));
#1573=CARTESIAN_POINT('',(6.1,-5.1,0.));
#1574=CARTESIAN_POINT('Origin',(-6.09999999999999,-5.1,0.));
#1575=UNCERTAINTY_MEASURE_WITH_UNIT(LENGTH_MEASURE(0.01),#1579,
'DISTANCE_ACCURACY_VALUE',
'Maximum model space distance between geometric entities at asserted c
onnectivities');
#1576=UNCERTAINTY_MEASURE_WITH_UNIT(LENGTH_MEASURE(0.01),#1579,
'DISTANCE_ACCURACY_VALUE',
'Maximum model space distance between geometric entities at asserted c
onnectivities');
#1577=(
GEOMETRIC_REPRESENTATION_CONTEXT(3)
GLOBAL_UNCERTAINTY_ASSIGNED_CONTEXT((#1575))
GLOBAL_UNIT_ASSIGNED_CONTEXT((#1579,#1581,#1582))
REPRESENTATION_CONTEXT('','3D')
);
#1578=(
GEOMETRIC_REPRESENTATION_CONTEXT(3)
GLOBAL_UNCERTAINTY_ASSIGNED_CONTEXT((#1576))
GLOBAL_UNIT_ASSIGNED_CONTEXT((#1579,#1581,#1582))
REPRESENTATION_CONTEXT('','3D')
);
#1579=(
LENGTH_UNIT()
NAMED_UNIT(*)
SI_UNIT(.MILLI.,.METRE.)
);
#1580=(
LENGTH_UNIT()
NAMED_UNIT(*)
SI_UNIT(.CENTI.,.METRE.)
);
#1581=(
NAMED_UNIT(*)
PLANE_ANGLE_UNIT()
SI_UNIT($,.RADIAN.)
);
#1582=(
NAMED_UNIT(*)
SI_UNIT($,.STERADIAN.)
SOLID_ANGLE_UNIT()
);
#1583=SHAPE_DEFINITION_REPRESENTATION(#1584,#1585);
#1584=PRODUCT_DEFINITION_SHAPE('',$,#1587);
#1585=SHAPE_REPRESENTATION('',(#935),#1577);
#1586=PRODUCT_DEFINITION_CONTEXT('part definition',#1591,'design');
#1587=PRODUCT_DEFINITION('PololuMount','PololuMount',#1588,#1586);
#1588=PRODUCT_DEFINITION_FORMATION('',$,#1593);
#1589=PRODUCT_RELATED_PRODUCT_CATEGORY('PololuMount','PololuMount',(#1593));
#1590=APPLICATION_PROTOCOL_DEFINITION('international standard',
'automotive_design',2009,#1591);
#1591=APPLICATION_CONTEXT(
'Core Data for Automotive Mechanical Design Process');
#1592=PRODUCT_CONTEXT('part definition',#1591,'mechanical');
#1593=PRODUCT('PololuMount','PololuMount',$,(#1592));
#1594=PRESENTATION_STYLE_ASSIGNMENT((#1595));
#1595=SURFACE_STYLE_USAGE(.BOTH.,#1598);
#1596=SURFACE_STYLE_RENDERING_WITH_PROPERTIES($,#1602,(#1597));
#1597=SURFACE_STYLE_TRANSPARENT(0.);
#1598=SURFACE_SIDE_STYLE('',(#1599,#1596));
#1599=SURFACE_STYLE_FILL_AREA(#1600);
#1600=FILL_AREA_STYLE('',(#1601));
#1601=FILL_AREA_STYLE_COLOUR('',#1602);
#1602=COLOUR_RGB('',0.749019607843137,0.749019607843137,0.749019607843137);
ENDSEC;
END-ISO-10303-21;
