G04*
G04 #@! TF.GenerationSoftware,Altium Limited,Altium Designer,23.1.1 (15)*
G04*
G04 Layer_Color=16711935*
%FSLAX44Y44*%
%MOMM*%
G71*
G04*
G04 #@! TF.SameCoordinates,06529313-8F5D-48FA-AF42-15034B8276AF*
G04*
G04*
G04 #@! TF.FilePolarity,Negative*
G04*
G01*
G75*
%ADD45R,0.8040X0.7640*%
%ADD46R,0.7640X0.8040*%
G04:AMPARAMS|DCode=47|XSize=0.7432mm|YSize=0.8032mm|CornerRadius=0.2447mm|HoleSize=0mm|Usage=FLASHONLY|Rotation=270.000|XOffset=0mm|YOffset=0mm|HoleType=Round|Shape=RoundedRectangle|*
%AMROUNDEDRECTD47*
21,1,0.7432,0.3138,0,0,270.0*
21,1,0.2538,0.8032,0,0,270.0*
1,1,0.4894,-0.1569,-0.1269*
1,1,0.4894,-0.1569,0.1269*
1,1,0.4894,0.1569,0.1269*
1,1,0.4894,0.1569,-0.1269*
%
%ADD47ROUNDEDRECTD47*%
G04:AMPARAMS|DCode=48|XSize=0.7432mm|YSize=0.8032mm|CornerRadius=0.2447mm|HoleSize=0mm|Usage=FLASHONLY|Rotation=0.000|XOffset=0mm|YOffset=0mm|HoleType=Round|Shape=RoundedRectangle|*
%AMROUNDEDRECTD48*
21,1,0.7432,0.3138,0,0,0.0*
21,1,0.2538,0.8032,0,0,0.0*
1,1,0.4894,0.1269,-0.1569*
1,1,0.4894,-0.1269,-0.1569*
1,1,0.4894,-0.1269,0.1569*
1,1,0.4894,0.1269,0.1569*
%
%ADD48ROUNDEDRECTD48*%
%ADD51C,0.8532*%
%ADD73O,1.1032X2.6032*%
%ADD74O,1.1032X1.9032*%
%ADD75C,1.8082*%
%ADD76R,1.7632X1.7632*%
%ADD77R,1.7632X1.7632*%
%ADD78P,2.4935X4X360.0*%
%ADD79P,2.4935X4X270.0*%
%ADD80C,1.7782*%
%ADD81R,1.7782X1.7782*%
%ADD82C,1.7632*%
%ADD83C,0.9000*%
%ADD84R,1.8082X1.8082*%
%ADD85R,1.8082X1.8082*%
%ADD86C,3.2032*%
%ADD87C,0.7032*%
%ADD135R,1.7732X0.8932*%
G04:AMPARAMS|DCode=136|XSize=1.0632mm|YSize=0.4732mm|CornerRadius=0.1354mm|HoleSize=0mm|Usage=FLASHONLY|Rotation=90.000|XOffset=0mm|YOffset=0mm|HoleType=Round|Shape=RoundedRectangle|*
%AMROUNDEDRECTD136*
21,1,1.0632,0.2025,0,0,90.0*
21,1,0.7925,0.4732,0,0,90.0*
1,1,0.2707,0.1013,0.3963*
1,1,0.2707,0.1013,-0.3963*
1,1,0.2707,-0.1013,-0.3963*
1,1,0.2707,-0.1013,0.3963*
%
%ADD136ROUNDEDRECTD136*%
G04:AMPARAMS|DCode=137|XSize=1.0632mm|YSize=0.4732mm|CornerRadius=0.1354mm|HoleSize=0mm|Usage=FLASHONLY|Rotation=180.000|XOffset=0mm|YOffset=0mm|HoleType=Round|Shape=RoundedRectangle|*
%AMROUNDEDRECTD137*
21,1,1.0632,0.2025,0,0,180.0*
21,1,0.7925,0.4732,0,0,180.0*
1,1,0.2707,-0.3963,0.1013*
1,1,0.2707,0.3963,0.1013*
1,1,0.2707,0.3963,-0.1013*
1,1,0.2707,-0.3963,-0.1013*
%
%ADD137ROUNDEDRECTD137*%
%ADD138R,2.8032X2.8032*%
G36*
X331129Y309462D02*
X331199Y309452D01*
X331259Y309442D01*
X331320Y309432D01*
X331390Y309412D01*
X331450Y309392D01*
X331510Y309362D01*
X331570Y309332D01*
X331619Y309302D01*
X331679Y309272D01*
X331730Y309232D01*
X331790Y309192D01*
X331839Y309152D01*
X331880Y309102D01*
X331930Y309062D01*
X331969Y309012D01*
X332010Y308952D01*
X332049Y308902D01*
X332080Y308852D01*
X332109Y308792D01*
X332140Y308732D01*
X332169Y308672D01*
X332189Y308612D01*
X332210Y308542D01*
X332220Y308482D01*
X332229Y308422D01*
X332239Y308352D01*
X332249Y308292D01*
Y308222D01*
Y303822D01*
Y303752D01*
X332239Y303692D01*
X332229Y303622D01*
X332220Y303562D01*
X332210Y303502D01*
X332189Y303432D01*
X332169Y303372D01*
X332140Y303312D01*
X332109Y303252D01*
X332080Y303192D01*
X332049Y303142D01*
X332010Y303092D01*
X331969Y303032D01*
X331930Y302982D01*
X331880Y302942D01*
X331839Y302892D01*
X331790Y302852D01*
X331730Y302812D01*
X331679Y302772D01*
X331629Y302742D01*
X331570Y302712D01*
X331510Y302682D01*
X331450Y302652D01*
X331390Y302632D01*
X331320Y302612D01*
X331259Y302602D01*
X331199Y302592D01*
X331129Y302582D01*
X331069Y302572D01*
X328929D01*
X328870Y302582D01*
X328800Y302592D01*
X328740Y302602D01*
X328680Y302612D01*
X328610Y302632D01*
X328549Y302652D01*
X328489Y302682D01*
X328429Y302712D01*
X328380Y302742D01*
X328320Y302772D01*
X328270Y302812D01*
X328209Y302852D01*
X328159Y302892D01*
X328120Y302942D01*
X328069Y302982D01*
X328030Y303032D01*
X327990Y303092D01*
X327949Y303142D01*
X327920Y303192D01*
X327890Y303252D01*
X327859Y303312D01*
X327830Y303372D01*
X327809Y303432D01*
X327789Y303502D01*
X327780Y303562D01*
X327770Y303622D01*
X327760Y303692D01*
X327749Y303752D01*
Y303822D01*
Y308222D01*
Y308292D01*
X327760Y308352D01*
X327770Y308422D01*
X327780Y308482D01*
X327789Y308542D01*
X327809Y308612D01*
X327830Y308672D01*
X327859Y308732D01*
X327890Y308792D01*
X327920Y308852D01*
X327949Y308902D01*
X327990Y308952D01*
X328030Y309012D01*
X328069Y309062D01*
X328120Y309102D01*
X328159Y309152D01*
X328209Y309192D01*
X328270Y309232D01*
X328320Y309272D01*
X328380Y309302D01*
X328429Y309332D01*
X328489Y309362D01*
X328549Y309392D01*
X328610Y309412D01*
X328680Y309432D01*
X328740Y309442D01*
X328800Y309452D01*
X328870Y309462D01*
X328929Y309472D01*
X331069D01*
X331129Y309462D01*
D02*
G37*
G36*
X326129D02*
X326199Y309452D01*
X326259Y309442D01*
X326320Y309432D01*
X326390Y309412D01*
X326450Y309392D01*
X326510Y309362D01*
X326570Y309332D01*
X326619Y309302D01*
X326679Y309272D01*
X326730Y309232D01*
X326790Y309192D01*
X326839Y309152D01*
X326880Y309102D01*
X326930Y309062D01*
X326969Y309012D01*
X327010Y308952D01*
X327049Y308902D01*
X327080Y308852D01*
X327109Y308792D01*
X327140Y308732D01*
X327169Y308672D01*
X327189Y308612D01*
X327210Y308542D01*
X327220Y308482D01*
X327229Y308422D01*
X327239Y308352D01*
X327249Y308292D01*
Y308222D01*
Y303822D01*
Y303752D01*
X327239Y303692D01*
X327229Y303622D01*
X327220Y303562D01*
X327210Y303502D01*
X327189Y303432D01*
X327169Y303372D01*
X327140Y303312D01*
X327109Y303252D01*
X327080Y303192D01*
X327049Y303142D01*
X327010Y303092D01*
X326969Y303032D01*
X326930Y302982D01*
X326880Y302942D01*
X326839Y302892D01*
X326790Y302852D01*
X326730Y302812D01*
X326679Y302772D01*
X326629Y302742D01*
X326570Y302712D01*
X326510Y302682D01*
X326450Y302652D01*
X326390Y302632D01*
X326320Y302612D01*
X326259Y302602D01*
X326199Y302592D01*
X326129Y302582D01*
X326069Y302572D01*
X323929D01*
X323870Y302582D01*
X323800Y302592D01*
X323740Y302602D01*
X323680Y302612D01*
X323610Y302632D01*
X323549Y302652D01*
X323489Y302682D01*
X323429Y302712D01*
X323369Y302742D01*
X323320Y302772D01*
X323270Y302812D01*
X323209Y302852D01*
X323159Y302892D01*
X323120Y302942D01*
X323069Y302982D01*
X323030Y303032D01*
X322990Y303092D01*
X322949Y303142D01*
X322920Y303192D01*
X322890Y303252D01*
X322859Y303312D01*
X322830Y303372D01*
X322809Y303432D01*
X322789Y303502D01*
X322780Y303562D01*
X322770Y303622D01*
X322760Y303692D01*
X322749Y303752D01*
Y303822D01*
Y308222D01*
Y308292D01*
X322760Y308352D01*
X322770Y308422D01*
X322780Y308482D01*
X322789Y308542D01*
X322809Y308612D01*
X322830Y308672D01*
X322859Y308732D01*
X322890Y308792D01*
X322920Y308852D01*
X322949Y308902D01*
X322990Y308952D01*
X323030Y309012D01*
X323069Y309062D01*
X323120Y309102D01*
X323159Y309152D01*
X323209Y309192D01*
X323270Y309232D01*
X323320Y309272D01*
X323369Y309302D01*
X323429Y309332D01*
X323489Y309362D01*
X323549Y309392D01*
X323610Y309412D01*
X323680Y309432D01*
X323740Y309442D01*
X323800Y309452D01*
X323870Y309462D01*
X323929Y309472D01*
X326069D01*
X326129Y309462D01*
D02*
G37*
G36*
X321129D02*
X321199Y309452D01*
X321259Y309442D01*
X321320Y309432D01*
X321390Y309412D01*
X321450Y309392D01*
X321510Y309362D01*
X321570Y309332D01*
X321619Y309302D01*
X321679Y309272D01*
X321730Y309232D01*
X321790Y309192D01*
X321839Y309152D01*
X321880Y309102D01*
X321930Y309062D01*
X321969Y309012D01*
X322010Y308952D01*
X322049Y308902D01*
X322080Y308852D01*
X322109Y308792D01*
X322140Y308732D01*
X322169Y308672D01*
X322189Y308612D01*
X322210Y308542D01*
X322220Y308482D01*
X322229Y308422D01*
X322239Y308352D01*
X322249Y308292D01*
Y308222D01*
Y303822D01*
Y303752D01*
X322239Y303692D01*
X322229Y303622D01*
X322220Y303562D01*
X322210Y303502D01*
X322189Y303432D01*
X322169Y303372D01*
X322140Y303312D01*
X322109Y303252D01*
X322080Y303192D01*
X322049Y303142D01*
X322010Y303092D01*
X321969Y303032D01*
X321930Y302982D01*
X321880Y302942D01*
X321839Y302892D01*
X321790Y302852D01*
X321730Y302812D01*
X321679Y302772D01*
X321629Y302742D01*
X321570Y302712D01*
X321510Y302682D01*
X321450Y302652D01*
X321390Y302632D01*
X321320Y302612D01*
X321259Y302602D01*
X321199Y302592D01*
X321129Y302582D01*
X321069Y302572D01*
X318930D01*
X318869Y302582D01*
X318799Y302592D01*
X318739Y302602D01*
X318680Y302612D01*
X318610Y302632D01*
X318549Y302652D01*
X318489Y302682D01*
X318430Y302712D01*
X318379Y302742D01*
X318319Y302772D01*
X318270Y302812D01*
X318209Y302852D01*
X318160Y302892D01*
X318120Y302942D01*
X318069Y302982D01*
X318029Y303032D01*
X317990Y303092D01*
X317950Y303142D01*
X317920Y303192D01*
X317889Y303252D01*
X317859Y303312D01*
X317829Y303372D01*
X317810Y303432D01*
X317789Y303502D01*
X317780Y303562D01*
X317770Y303622D01*
X317759Y303692D01*
X317750Y303752D01*
Y303822D01*
Y308222D01*
Y308292D01*
X317759Y308352D01*
X317770Y308422D01*
X317780Y308482D01*
X317789Y308542D01*
X317810Y308612D01*
X317829Y308672D01*
X317859Y308732D01*
X317889Y308792D01*
X317920Y308852D01*
X317950Y308902D01*
X317990Y308952D01*
X318029Y309012D01*
X318069Y309062D01*
X318120Y309102D01*
X318160Y309152D01*
X318209Y309192D01*
X318270Y309232D01*
X318319Y309272D01*
X318379Y309302D01*
X318430Y309332D01*
X318489Y309362D01*
X318549Y309392D01*
X318610Y309412D01*
X318680Y309432D01*
X318739Y309442D01*
X318799Y309452D01*
X318869Y309462D01*
X318930Y309472D01*
X321069D01*
X321129Y309462D01*
D02*
G37*
G36*
X338979Y306612D02*
X339049Y306602D01*
X339109Y306592D01*
X339170Y306582D01*
X339240Y306562D01*
X339300Y306542D01*
X339360Y306512D01*
X339420Y306482D01*
X339479Y306452D01*
X339529Y306422D01*
X339580Y306382D01*
X339640Y306342D01*
X339689Y306302D01*
X339729Y306252D01*
X339780Y306212D01*
X339819Y306162D01*
X339860Y306102D01*
X339899Y306052D01*
X339930Y305992D01*
X339959Y305942D01*
X339990Y305882D01*
X340019Y305822D01*
X340039Y305762D01*
X340060Y305692D01*
X340070Y305632D01*
X340079Y305572D01*
X340089Y305502D01*
X340099Y305442D01*
Y305372D01*
Y303372D01*
Y303302D01*
X340089Y303242D01*
X340079Y303172D01*
X340070Y303112D01*
X340060Y303052D01*
X340039Y302982D01*
X340019Y302922D01*
X339990Y302862D01*
X339959Y302802D01*
X339930Y302752D01*
X339899Y302692D01*
X339860Y302642D01*
X339819Y302582D01*
X339780Y302532D01*
X339729Y302492D01*
X339689Y302442D01*
X339640Y302402D01*
X339580Y302362D01*
X339529Y302322D01*
X339479Y302292D01*
X339420Y302262D01*
X339360Y302232D01*
X339300Y302202D01*
X339240Y302182D01*
X339170Y302162D01*
X339109Y302152D01*
X339049Y302142D01*
X338979Y302132D01*
X338919Y302122D01*
X334380D01*
X334319Y302132D01*
X334249Y302142D01*
X334189Y302152D01*
X334129Y302162D01*
X334059Y302182D01*
X333999Y302202D01*
X333940Y302232D01*
X333880Y302262D01*
X333820Y302292D01*
X333769Y302322D01*
X333719Y302362D01*
X333660Y302402D01*
X333610Y302442D01*
X333569Y302492D01*
X333520Y302532D01*
X333479Y302582D01*
X333439Y302642D01*
X333400Y302692D01*
X333369Y302752D01*
X333340Y302802D01*
X333310Y302862D01*
X333279Y302922D01*
X333260Y302982D01*
X333240Y303052D01*
X333229Y303112D01*
X333219Y303172D01*
X333209Y303242D01*
X333200Y303302D01*
Y303372D01*
Y305372D01*
Y305442D01*
X333209Y305502D01*
X333219Y305572D01*
X333229Y305632D01*
X333240Y305692D01*
X333260Y305762D01*
X333279Y305822D01*
X333310Y305882D01*
X333340Y305942D01*
X333369Y305992D01*
X333400Y306052D01*
X333439Y306102D01*
X333479Y306162D01*
X333520Y306212D01*
X333569Y306252D01*
X333610Y306302D01*
X333660Y306342D01*
X333719Y306382D01*
X333769Y306422D01*
X333820Y306452D01*
X333880Y306482D01*
X333940Y306512D01*
X333999Y306542D01*
X334059Y306562D01*
X334129Y306582D01*
X334189Y306592D01*
X334249Y306602D01*
X334319Y306612D01*
X334380Y306622D01*
X338919D01*
X338979Y306612D01*
D02*
G37*
G36*
X315679D02*
X315749Y306602D01*
X315809Y306592D01*
X315870Y306582D01*
X315940Y306562D01*
X316000Y306542D01*
X316059Y306512D01*
X316119Y306482D01*
X316180Y306452D01*
X316229Y306422D01*
X316280Y306382D01*
X316339Y306342D01*
X316390Y306302D01*
X316430Y306252D01*
X316479Y306212D01*
X316520Y306162D01*
X316560Y306102D01*
X316600Y306052D01*
X316630Y305992D01*
X316660Y305942D01*
X316689Y305882D01*
X316719Y305822D01*
X316740Y305762D01*
X316759Y305692D01*
X316770Y305632D01*
X316779Y305572D01*
X316789Y305502D01*
X316800Y305442D01*
Y305372D01*
Y303372D01*
Y303302D01*
X316789Y303242D01*
X316779Y303172D01*
X316770Y303112D01*
X316759Y303052D01*
X316740Y302982D01*
X316719Y302922D01*
X316689Y302862D01*
X316660Y302802D01*
X316630Y302752D01*
X316600Y302692D01*
X316560Y302642D01*
X316520Y302582D01*
X316479Y302532D01*
X316430Y302492D01*
X316390Y302442D01*
X316339Y302402D01*
X316280Y302362D01*
X316229Y302322D01*
X316180Y302292D01*
X316119Y302262D01*
X316059Y302232D01*
X316000Y302202D01*
X315940Y302182D01*
X315870Y302162D01*
X315809Y302152D01*
X315749Y302142D01*
X315679Y302132D01*
X315620Y302122D01*
X311080D01*
X311019Y302132D01*
X310949Y302142D01*
X310889Y302152D01*
X310830Y302162D01*
X310760Y302182D01*
X310700Y302202D01*
X310639Y302232D01*
X310579Y302262D01*
X310520Y302292D01*
X310469Y302322D01*
X310420Y302362D01*
X310359Y302402D01*
X310310Y302442D01*
X310270Y302492D01*
X310219Y302532D01*
X310180Y302582D01*
X310140Y302642D01*
X310100Y302692D01*
X310070Y302752D01*
X310040Y302802D01*
X310009Y302862D01*
X309979Y302922D01*
X309960Y302982D01*
X309939Y303052D01*
X309930Y303112D01*
X309919Y303172D01*
X309909Y303242D01*
X309900Y303302D01*
Y303372D01*
Y305372D01*
Y305442D01*
X309909Y305502D01*
X309919Y305572D01*
X309930Y305632D01*
X309939Y305692D01*
X309960Y305762D01*
X309979Y305822D01*
X310009Y305882D01*
X310040Y305942D01*
X310070Y305992D01*
X310100Y306052D01*
X310140Y306102D01*
X310180Y306162D01*
X310219Y306212D01*
X310270Y306252D01*
X310310Y306302D01*
X310359Y306342D01*
X310420Y306382D01*
X310469Y306422D01*
X310520Y306452D01*
X310579Y306482D01*
X310639Y306512D01*
X310700Y306542D01*
X310760Y306562D01*
X310830Y306582D01*
X310889Y306592D01*
X310949Y306602D01*
X311019Y306612D01*
X311080Y306622D01*
X315620D01*
X315679Y306612D01*
D02*
G37*
G36*
X338979Y301612D02*
X339049Y301602D01*
X339109Y301592D01*
X339170Y301582D01*
X339240Y301562D01*
X339300Y301542D01*
X339360Y301512D01*
X339420Y301482D01*
X339479Y301452D01*
X339529Y301422D01*
X339580Y301382D01*
X339640Y301342D01*
X339689Y301302D01*
X339729Y301252D01*
X339780Y301212D01*
X339819Y301162D01*
X339860Y301102D01*
X339899Y301052D01*
X339930Y300992D01*
X339959Y300942D01*
X339990Y300882D01*
X340019Y300822D01*
X340039Y300762D01*
X340060Y300692D01*
X340070Y300632D01*
X340079Y300572D01*
X340089Y300502D01*
X340099Y300442D01*
Y300372D01*
Y298372D01*
Y298302D01*
X340089Y298242D01*
X340079Y298172D01*
X340070Y298112D01*
X340060Y298052D01*
X340039Y297982D01*
X340019Y297922D01*
X339990Y297862D01*
X339959Y297802D01*
X339930Y297752D01*
X339899Y297692D01*
X339860Y297642D01*
X339819Y297582D01*
X339780Y297532D01*
X339729Y297492D01*
X339689Y297442D01*
X339640Y297402D01*
X339580Y297362D01*
X339529Y297322D01*
X339479Y297292D01*
X339420Y297262D01*
X339360Y297232D01*
X339300Y297202D01*
X339240Y297182D01*
X339170Y297162D01*
X339109Y297152D01*
X339049Y297142D01*
X338979Y297132D01*
X338919Y297122D01*
X334380D01*
X334319Y297132D01*
X334249Y297142D01*
X334189Y297152D01*
X334129Y297162D01*
X334059Y297182D01*
X333999Y297202D01*
X333940Y297232D01*
X333880Y297262D01*
X333820Y297292D01*
X333769Y297322D01*
X333719Y297362D01*
X333660Y297402D01*
X333610Y297442D01*
X333569Y297492D01*
X333520Y297532D01*
X333479Y297582D01*
X333439Y297642D01*
X333400Y297692D01*
X333369Y297752D01*
X333340Y297802D01*
X333310Y297862D01*
X333279Y297922D01*
X333260Y297982D01*
X333240Y298052D01*
X333229Y298112D01*
X333219Y298172D01*
X333209Y298242D01*
X333200Y298302D01*
Y298372D01*
Y300372D01*
Y300442D01*
X333209Y300502D01*
X333219Y300572D01*
X333229Y300632D01*
X333240Y300692D01*
X333260Y300762D01*
X333279Y300822D01*
X333310Y300882D01*
X333340Y300942D01*
X333369Y300992D01*
X333400Y301052D01*
X333439Y301102D01*
X333479Y301162D01*
X333520Y301212D01*
X333569Y301252D01*
X333610Y301302D01*
X333660Y301342D01*
X333719Y301382D01*
X333769Y301422D01*
X333820Y301452D01*
X333880Y301482D01*
X333940Y301512D01*
X333999Y301542D01*
X334059Y301562D01*
X334129Y301582D01*
X334189Y301592D01*
X334249Y301602D01*
X334319Y301612D01*
X334380Y301622D01*
X338919D01*
X338979Y301612D01*
D02*
G37*
G36*
X315679D02*
X315749Y301602D01*
X315809Y301592D01*
X315870Y301582D01*
X315940Y301562D01*
X316000Y301542D01*
X316059Y301512D01*
X316119Y301482D01*
X316180Y301452D01*
X316229Y301422D01*
X316280Y301382D01*
X316339Y301342D01*
X316390Y301302D01*
X316430Y301252D01*
X316479Y301212D01*
X316520Y301162D01*
X316560Y301102D01*
X316600Y301052D01*
X316630Y300992D01*
X316660Y300942D01*
X316689Y300882D01*
X316719Y300822D01*
X316740Y300762D01*
X316759Y300692D01*
X316770Y300632D01*
X316779Y300572D01*
X316789Y300502D01*
X316800Y300442D01*
Y300372D01*
Y298372D01*
Y298302D01*
X316789Y298242D01*
X316779Y298172D01*
X316770Y298112D01*
X316759Y298052D01*
X316740Y297982D01*
X316719Y297922D01*
X316689Y297862D01*
X316660Y297802D01*
X316630Y297752D01*
X316600Y297692D01*
X316560Y297642D01*
X316520Y297582D01*
X316479Y297532D01*
X316430Y297492D01*
X316390Y297442D01*
X316339Y297402D01*
X316280Y297362D01*
X316229Y297322D01*
X316180Y297292D01*
X316119Y297262D01*
X316059Y297232D01*
X316000Y297202D01*
X315940Y297182D01*
X315870Y297162D01*
X315809Y297152D01*
X315749Y297142D01*
X315679Y297132D01*
X315620Y297122D01*
X311080D01*
X311019Y297132D01*
X310949Y297142D01*
X310889Y297152D01*
X310830Y297162D01*
X310760Y297182D01*
X310700Y297202D01*
X310639Y297232D01*
X310579Y297262D01*
X310520Y297292D01*
X310469Y297322D01*
X310420Y297362D01*
X310359Y297402D01*
X310310Y297442D01*
X310270Y297492D01*
X310219Y297532D01*
X310180Y297582D01*
X310140Y297642D01*
X310100Y297692D01*
X310070Y297752D01*
X310040Y297802D01*
X310009Y297862D01*
X309979Y297922D01*
X309960Y297982D01*
X309939Y298052D01*
X309930Y298112D01*
X309919Y298172D01*
X309909Y298242D01*
X309900Y298302D01*
Y298372D01*
Y300372D01*
Y300442D01*
X309909Y300502D01*
X309919Y300572D01*
X309930Y300632D01*
X309939Y300692D01*
X309960Y300762D01*
X309979Y300822D01*
X310009Y300882D01*
X310040Y300942D01*
X310070Y300992D01*
X310100Y301052D01*
X310140Y301102D01*
X310180Y301162D01*
X310219Y301212D01*
X310270Y301252D01*
X310310Y301302D01*
X310359Y301342D01*
X310420Y301382D01*
X310469Y301422D01*
X310520Y301452D01*
X310579Y301482D01*
X310639Y301512D01*
X310700Y301542D01*
X310760Y301562D01*
X310830Y301582D01*
X310889Y301592D01*
X310949Y301602D01*
X311019Y301612D01*
X311080Y301622D01*
X315620D01*
X315679Y301612D01*
D02*
G37*
G36*
X338979Y296612D02*
X339049Y296602D01*
X339109Y296592D01*
X339170Y296582D01*
X339240Y296562D01*
X339300Y296542D01*
X339360Y296512D01*
X339420Y296482D01*
X339479Y296452D01*
X339529Y296422D01*
X339580Y296382D01*
X339640Y296342D01*
X339689Y296302D01*
X339729Y296252D01*
X339780Y296212D01*
X339819Y296162D01*
X339860Y296102D01*
X339899Y296052D01*
X339930Y295992D01*
X339959Y295942D01*
X339990Y295882D01*
X340019Y295822D01*
X340039Y295762D01*
X340060Y295692D01*
X340070Y295632D01*
X340079Y295572D01*
X340089Y295502D01*
X340099Y295442D01*
Y295372D01*
Y293372D01*
Y293302D01*
X340089Y293242D01*
X340079Y293172D01*
X340070Y293112D01*
X340060Y293052D01*
X340039Y292982D01*
X340019Y292922D01*
X339990Y292862D01*
X339959Y292802D01*
X339930Y292752D01*
X339899Y292692D01*
X339860Y292642D01*
X339819Y292582D01*
X339780Y292532D01*
X339729Y292492D01*
X339689Y292442D01*
X339640Y292402D01*
X339580Y292362D01*
X339529Y292322D01*
X339479Y292292D01*
X339420Y292262D01*
X339360Y292232D01*
X339300Y292202D01*
X339240Y292182D01*
X339170Y292162D01*
X339109Y292152D01*
X339049Y292142D01*
X338979Y292132D01*
X338919Y292122D01*
X334380D01*
X334319Y292132D01*
X334249Y292142D01*
X334189Y292152D01*
X334129Y292162D01*
X334059Y292182D01*
X333999Y292202D01*
X333940Y292232D01*
X333880Y292262D01*
X333820Y292292D01*
X333769Y292322D01*
X333719Y292362D01*
X333660Y292402D01*
X333610Y292442D01*
X333569Y292492D01*
X333520Y292532D01*
X333479Y292582D01*
X333439Y292642D01*
X333400Y292692D01*
X333369Y292752D01*
X333340Y292802D01*
X333310Y292862D01*
X333279Y292922D01*
X333260Y292982D01*
X333240Y293052D01*
X333229Y293112D01*
X333219Y293172D01*
X333209Y293242D01*
X333200Y293302D01*
Y293372D01*
Y295372D01*
Y295442D01*
X333209Y295502D01*
X333219Y295572D01*
X333229Y295632D01*
X333240Y295692D01*
X333260Y295762D01*
X333279Y295822D01*
X333310Y295882D01*
X333340Y295942D01*
X333369Y295992D01*
X333400Y296052D01*
X333439Y296102D01*
X333479Y296162D01*
X333520Y296212D01*
X333569Y296252D01*
X333610Y296302D01*
X333660Y296342D01*
X333719Y296382D01*
X333769Y296422D01*
X333820Y296452D01*
X333880Y296482D01*
X333940Y296512D01*
X333999Y296542D01*
X334059Y296562D01*
X334129Y296582D01*
X334189Y296592D01*
X334249Y296602D01*
X334319Y296612D01*
X334380Y296622D01*
X338919D01*
X338979Y296612D01*
D02*
G37*
G36*
X315679D02*
X315749Y296602D01*
X315809Y296592D01*
X315870Y296582D01*
X315940Y296562D01*
X316000Y296542D01*
X316059Y296512D01*
X316119Y296482D01*
X316180Y296452D01*
X316229Y296422D01*
X316280Y296382D01*
X316339Y296342D01*
X316390Y296302D01*
X316430Y296252D01*
X316479Y296212D01*
X316520Y296162D01*
X316560Y296102D01*
X316600Y296052D01*
X316630Y295992D01*
X316660Y295942D01*
X316689Y295882D01*
X316719Y295822D01*
X316740Y295762D01*
X316759Y295692D01*
X316770Y295632D01*
X316779Y295572D01*
X316789Y295502D01*
X316800Y295442D01*
Y295372D01*
Y293372D01*
Y293302D01*
X316789Y293242D01*
X316779Y293172D01*
X316770Y293112D01*
X316759Y293052D01*
X316740Y292982D01*
X316719Y292922D01*
X316689Y292862D01*
X316660Y292802D01*
X316630Y292752D01*
X316600Y292692D01*
X316560Y292642D01*
X316520Y292582D01*
X316479Y292532D01*
X316430Y292492D01*
X316390Y292442D01*
X316339Y292402D01*
X316280Y292362D01*
X316229Y292322D01*
X316180Y292292D01*
X316119Y292262D01*
X316059Y292232D01*
X316000Y292202D01*
X315940Y292182D01*
X315870Y292162D01*
X315809Y292152D01*
X315749Y292142D01*
X315679Y292132D01*
X315620Y292122D01*
X311080D01*
X311019Y292132D01*
X310949Y292142D01*
X310889Y292152D01*
X310830Y292162D01*
X310760Y292182D01*
X310700Y292202D01*
X310639Y292232D01*
X310579Y292262D01*
X310520Y292292D01*
X310469Y292322D01*
X310420Y292362D01*
X310359Y292402D01*
X310310Y292442D01*
X310270Y292492D01*
X310219Y292532D01*
X310180Y292582D01*
X310140Y292642D01*
X310100Y292692D01*
X310070Y292752D01*
X310040Y292802D01*
X310009Y292862D01*
X309979Y292922D01*
X309960Y292982D01*
X309939Y293052D01*
X309930Y293112D01*
X309919Y293172D01*
X309909Y293242D01*
X309900Y293302D01*
Y293372D01*
Y295372D01*
Y295442D01*
X309909Y295502D01*
X309919Y295572D01*
X309930Y295632D01*
X309939Y295692D01*
X309960Y295762D01*
X309979Y295822D01*
X310009Y295882D01*
X310040Y295942D01*
X310070Y295992D01*
X310100Y296052D01*
X310140Y296102D01*
X310180Y296162D01*
X310219Y296212D01*
X310270Y296252D01*
X310310Y296302D01*
X310359Y296342D01*
X310420Y296382D01*
X310469Y296422D01*
X310520Y296452D01*
X310579Y296482D01*
X310639Y296512D01*
X310700Y296542D01*
X310760Y296562D01*
X310830Y296582D01*
X310889Y296592D01*
X310949Y296602D01*
X311019Y296612D01*
X311080Y296622D01*
X315620D01*
X315679Y296612D01*
D02*
G37*
G36*
X338979Y291612D02*
X339049Y291602D01*
X339109Y291592D01*
X339170Y291582D01*
X339240Y291562D01*
X339300Y291542D01*
X339360Y291512D01*
X339420Y291482D01*
X339479Y291452D01*
X339529Y291422D01*
X339580Y291382D01*
X339640Y291342D01*
X339689Y291302D01*
X339729Y291252D01*
X339780Y291212D01*
X339819Y291162D01*
X339860Y291102D01*
X339899Y291052D01*
X339930Y290992D01*
X339959Y290942D01*
X339990Y290882D01*
X340019Y290822D01*
X340039Y290762D01*
X340060Y290692D01*
X340070Y290632D01*
X340079Y290572D01*
X340089Y290502D01*
X340099Y290442D01*
Y290372D01*
Y288372D01*
Y288302D01*
X340089Y288242D01*
X340079Y288172D01*
X340070Y288112D01*
X340060Y288052D01*
X340039Y287982D01*
X340019Y287922D01*
X339990Y287862D01*
X339959Y287802D01*
X339930Y287752D01*
X339899Y287692D01*
X339860Y287642D01*
X339819Y287582D01*
X339780Y287532D01*
X339729Y287492D01*
X339689Y287442D01*
X339640Y287402D01*
X339580Y287362D01*
X339529Y287322D01*
X339479Y287292D01*
X339420Y287262D01*
X339360Y287232D01*
X339300Y287202D01*
X339240Y287182D01*
X339170Y287162D01*
X339109Y287152D01*
X339049Y287142D01*
X338979Y287132D01*
X338919Y287122D01*
X334380D01*
X334319Y287132D01*
X334249Y287142D01*
X334189Y287152D01*
X334129Y287162D01*
X334059Y287182D01*
X333999Y287202D01*
X333940Y287232D01*
X333880Y287262D01*
X333820Y287292D01*
X333769Y287322D01*
X333719Y287362D01*
X333660Y287402D01*
X333610Y287442D01*
X333569Y287492D01*
X333520Y287532D01*
X333479Y287582D01*
X333439Y287642D01*
X333400Y287692D01*
X333369Y287752D01*
X333340Y287802D01*
X333310Y287862D01*
X333279Y287922D01*
X333260Y287982D01*
X333240Y288052D01*
X333229Y288112D01*
X333219Y288172D01*
X333209Y288242D01*
X333200Y288302D01*
Y288372D01*
Y290372D01*
Y290442D01*
X333209Y290502D01*
X333219Y290572D01*
X333229Y290632D01*
X333240Y290692D01*
X333260Y290762D01*
X333279Y290822D01*
X333310Y290882D01*
X333340Y290942D01*
X333369Y290992D01*
X333400Y291052D01*
X333439Y291102D01*
X333479Y291162D01*
X333520Y291212D01*
X333569Y291252D01*
X333610Y291302D01*
X333660Y291342D01*
X333719Y291382D01*
X333769Y291422D01*
X333820Y291452D01*
X333880Y291482D01*
X333940Y291512D01*
X333999Y291542D01*
X334059Y291562D01*
X334129Y291582D01*
X334189Y291592D01*
X334249Y291602D01*
X334319Y291612D01*
X334380Y291622D01*
X338919D01*
X338979Y291612D01*
D02*
G37*
G36*
X315679D02*
X315749Y291602D01*
X315809Y291592D01*
X315870Y291582D01*
X315940Y291562D01*
X316000Y291542D01*
X316059Y291512D01*
X316119Y291482D01*
X316180Y291452D01*
X316229Y291422D01*
X316280Y291382D01*
X316339Y291342D01*
X316390Y291302D01*
X316430Y291252D01*
X316479Y291212D01*
X316520Y291162D01*
X316560Y291102D01*
X316600Y291052D01*
X316630Y290992D01*
X316660Y290942D01*
X316689Y290882D01*
X316719Y290822D01*
X316740Y290762D01*
X316759Y290692D01*
X316770Y290632D01*
X316779Y290572D01*
X316789Y290502D01*
X316800Y290442D01*
Y290372D01*
Y288372D01*
Y288302D01*
X316789Y288242D01*
X316779Y288172D01*
X316770Y288112D01*
X316759Y288052D01*
X316740Y287982D01*
X316719Y287922D01*
X316689Y287862D01*
X316660Y287802D01*
X316630Y287752D01*
X316600Y287692D01*
X316560Y287642D01*
X316520Y287582D01*
X316479Y287532D01*
X316430Y287492D01*
X316390Y287442D01*
X316339Y287402D01*
X316280Y287362D01*
X316229Y287322D01*
X316180Y287292D01*
X316119Y287262D01*
X316059Y287232D01*
X316000Y287202D01*
X315940Y287182D01*
X315870Y287162D01*
X315809Y287152D01*
X315749Y287142D01*
X315679Y287132D01*
X315620Y287122D01*
X311080D01*
X311019Y287132D01*
X310949Y287142D01*
X310889Y287152D01*
X310830Y287162D01*
X310760Y287182D01*
X310700Y287202D01*
X310639Y287232D01*
X310579Y287262D01*
X310520Y287292D01*
X310469Y287322D01*
X310420Y287362D01*
X310359Y287402D01*
X310310Y287442D01*
X310270Y287492D01*
X310219Y287532D01*
X310180Y287582D01*
X310140Y287642D01*
X310100Y287692D01*
X310070Y287752D01*
X310040Y287802D01*
X310009Y287862D01*
X309979Y287922D01*
X309960Y287982D01*
X309939Y288052D01*
X309930Y288112D01*
X309919Y288172D01*
X309909Y288242D01*
X309900Y288302D01*
Y288372D01*
Y290372D01*
Y290442D01*
X309909Y290502D01*
X309919Y290572D01*
X309930Y290632D01*
X309939Y290692D01*
X309960Y290762D01*
X309979Y290822D01*
X310009Y290882D01*
X310040Y290942D01*
X310070Y290992D01*
X310100Y291052D01*
X310140Y291102D01*
X310180Y291162D01*
X310219Y291212D01*
X310270Y291252D01*
X310310Y291302D01*
X310359Y291342D01*
X310420Y291382D01*
X310469Y291422D01*
X310520Y291452D01*
X310579Y291482D01*
X310639Y291512D01*
X310700Y291542D01*
X310760Y291562D01*
X310830Y291582D01*
X310889Y291592D01*
X310949Y291602D01*
X311019Y291612D01*
X311080Y291622D01*
X315620D01*
X315679Y291612D01*
D02*
G37*
G36*
X331129Y291162D02*
X331199Y291152D01*
X331259Y291142D01*
X331320Y291132D01*
X331390Y291112D01*
X331450Y291092D01*
X331510Y291062D01*
X331570Y291032D01*
X331619Y291002D01*
X331679Y290972D01*
X331730Y290932D01*
X331790Y290892D01*
X331839Y290852D01*
X331880Y290802D01*
X331930Y290762D01*
X331969Y290712D01*
X332010Y290652D01*
X332049Y290602D01*
X332080Y290552D01*
X332109Y290492D01*
X332140Y290432D01*
X332169Y290372D01*
X332189Y290312D01*
X332210Y290242D01*
X332220Y290182D01*
X332229Y290122D01*
X332239Y290052D01*
X332249Y289992D01*
Y289922D01*
Y285522D01*
Y285452D01*
X332239Y285392D01*
X332229Y285322D01*
X332220Y285262D01*
X332210Y285202D01*
X332189Y285132D01*
X332169Y285072D01*
X332140Y285012D01*
X332109Y284952D01*
X332080Y284892D01*
X332049Y284842D01*
X332010Y284792D01*
X331969Y284732D01*
X331930Y284682D01*
X331880Y284642D01*
X331839Y284592D01*
X331790Y284552D01*
X331730Y284512D01*
X331679Y284472D01*
X331629Y284442D01*
X331570Y284412D01*
X331510Y284382D01*
X331450Y284352D01*
X331390Y284332D01*
X331320Y284312D01*
X331259Y284302D01*
X331199Y284292D01*
X331129Y284282D01*
X331069Y284272D01*
X328929D01*
X328870Y284282D01*
X328800Y284292D01*
X328740Y284302D01*
X328680Y284312D01*
X328610Y284332D01*
X328549Y284352D01*
X328489Y284382D01*
X328429Y284412D01*
X328380Y284442D01*
X328320Y284472D01*
X328270Y284512D01*
X328209Y284552D01*
X328159Y284592D01*
X328120Y284642D01*
X328069Y284682D01*
X328030Y284732D01*
X327990Y284792D01*
X327949Y284842D01*
X327920Y284892D01*
X327890Y284952D01*
X327859Y285012D01*
X327830Y285072D01*
X327809Y285132D01*
X327789Y285202D01*
X327780Y285262D01*
X327770Y285322D01*
X327760Y285392D01*
X327749Y285452D01*
Y285522D01*
Y289922D01*
Y289992D01*
X327760Y290052D01*
X327770Y290122D01*
X327780Y290182D01*
X327789Y290242D01*
X327809Y290312D01*
X327830Y290372D01*
X327859Y290432D01*
X327890Y290492D01*
X327920Y290552D01*
X327949Y290602D01*
X327990Y290652D01*
X328030Y290712D01*
X328069Y290762D01*
X328120Y290802D01*
X328159Y290852D01*
X328209Y290892D01*
X328270Y290932D01*
X328320Y290972D01*
X328380Y291002D01*
X328429Y291032D01*
X328489Y291062D01*
X328549Y291092D01*
X328610Y291112D01*
X328680Y291132D01*
X328740Y291142D01*
X328800Y291152D01*
X328870Y291162D01*
X328929Y291172D01*
X331069D01*
X331129Y291162D01*
D02*
G37*
G36*
X326129D02*
X326199Y291152D01*
X326259Y291142D01*
X326320Y291132D01*
X326390Y291112D01*
X326450Y291092D01*
X326510Y291062D01*
X326570Y291032D01*
X326619Y291002D01*
X326679Y290972D01*
X326730Y290932D01*
X326790Y290892D01*
X326839Y290852D01*
X326880Y290802D01*
X326930Y290762D01*
X326969Y290712D01*
X327010Y290652D01*
X327049Y290602D01*
X327080Y290552D01*
X327109Y290492D01*
X327140Y290432D01*
X327169Y290372D01*
X327189Y290312D01*
X327210Y290242D01*
X327220Y290182D01*
X327229Y290122D01*
X327239Y290052D01*
X327249Y289992D01*
Y289922D01*
Y285522D01*
Y285452D01*
X327239Y285392D01*
X327229Y285322D01*
X327220Y285262D01*
X327210Y285202D01*
X327189Y285132D01*
X327169Y285072D01*
X327140Y285012D01*
X327109Y284952D01*
X327080Y284892D01*
X327049Y284842D01*
X327010Y284792D01*
X326969Y284732D01*
X326930Y284682D01*
X326880Y284642D01*
X326839Y284592D01*
X326790Y284552D01*
X326730Y284512D01*
X326679Y284472D01*
X326629Y284442D01*
X326570Y284412D01*
X326510Y284382D01*
X326450Y284352D01*
X326390Y284332D01*
X326320Y284312D01*
X326259Y284302D01*
X326199Y284292D01*
X326129Y284282D01*
X326069Y284272D01*
X323929D01*
X323870Y284282D01*
X323800Y284292D01*
X323740Y284302D01*
X323680Y284312D01*
X323610Y284332D01*
X323549Y284352D01*
X323489Y284382D01*
X323429Y284412D01*
X323369Y284442D01*
X323320Y284472D01*
X323270Y284512D01*
X323209Y284552D01*
X323159Y284592D01*
X323120Y284642D01*
X323069Y284682D01*
X323030Y284732D01*
X322990Y284792D01*
X322949Y284842D01*
X322920Y284892D01*
X322890Y284952D01*
X322859Y285012D01*
X322830Y285072D01*
X322809Y285132D01*
X322789Y285202D01*
X322780Y285262D01*
X322770Y285322D01*
X322760Y285392D01*
X322749Y285452D01*
Y285522D01*
Y289922D01*
Y289992D01*
X322760Y290052D01*
X322770Y290122D01*
X322780Y290182D01*
X322789Y290242D01*
X322809Y290312D01*
X322830Y290372D01*
X322859Y290432D01*
X322890Y290492D01*
X322920Y290552D01*
X322949Y290602D01*
X322990Y290652D01*
X323030Y290712D01*
X323069Y290762D01*
X323120Y290802D01*
X323159Y290852D01*
X323209Y290892D01*
X323270Y290932D01*
X323320Y290972D01*
X323369Y291002D01*
X323429Y291032D01*
X323489Y291062D01*
X323549Y291092D01*
X323610Y291112D01*
X323680Y291132D01*
X323740Y291142D01*
X323800Y291152D01*
X323870Y291162D01*
X323929Y291172D01*
X326069D01*
X326129Y291162D01*
D02*
G37*
G36*
X321129D02*
X321199Y291152D01*
X321259Y291142D01*
X321320Y291132D01*
X321390Y291112D01*
X321450Y291092D01*
X321510Y291062D01*
X321570Y291032D01*
X321619Y291002D01*
X321679Y290972D01*
X321730Y290932D01*
X321790Y290892D01*
X321839Y290852D01*
X321880Y290802D01*
X321930Y290762D01*
X321969Y290712D01*
X322010Y290652D01*
X322049Y290602D01*
X322080Y290552D01*
X322109Y290492D01*
X322140Y290432D01*
X322169Y290372D01*
X322189Y290312D01*
X322210Y290242D01*
X322220Y290182D01*
X322229Y290122D01*
X322239Y290052D01*
X322249Y289992D01*
Y289922D01*
Y285522D01*
Y285452D01*
X322239Y285392D01*
X322229Y285322D01*
X322220Y285262D01*
X322210Y285202D01*
X322189Y285132D01*
X322169Y285072D01*
X322140Y285012D01*
X322109Y284952D01*
X322080Y284892D01*
X322049Y284842D01*
X322010Y284792D01*
X321969Y284732D01*
X321930Y284682D01*
X321880Y284642D01*
X321839Y284592D01*
X321790Y284552D01*
X321730Y284512D01*
X321679Y284472D01*
X321629Y284442D01*
X321570Y284412D01*
X321510Y284382D01*
X321450Y284352D01*
X321390Y284332D01*
X321320Y284312D01*
X321259Y284302D01*
X321199Y284292D01*
X321129Y284282D01*
X321069Y284272D01*
X318930D01*
X318869Y284282D01*
X318799Y284292D01*
X318739Y284302D01*
X318680Y284312D01*
X318610Y284332D01*
X318549Y284352D01*
X318489Y284382D01*
X318430Y284412D01*
X318379Y284442D01*
X318319Y284472D01*
X318270Y284512D01*
X318209Y284552D01*
X318160Y284592D01*
X318120Y284642D01*
X318069Y284682D01*
X318029Y284732D01*
X317990Y284792D01*
X317950Y284842D01*
X317920Y284892D01*
X317889Y284952D01*
X317859Y285012D01*
X317829Y285072D01*
X317810Y285132D01*
X317789Y285202D01*
X317780Y285262D01*
X317770Y285322D01*
X317759Y285392D01*
X317750Y285452D01*
Y285522D01*
Y289922D01*
Y289992D01*
X317759Y290052D01*
X317770Y290122D01*
X317780Y290182D01*
X317789Y290242D01*
X317810Y290312D01*
X317829Y290372D01*
X317859Y290432D01*
X317889Y290492D01*
X317920Y290552D01*
X317950Y290602D01*
X317990Y290652D01*
X318029Y290712D01*
X318069Y290762D01*
X318120Y290802D01*
X318160Y290852D01*
X318209Y290892D01*
X318270Y290932D01*
X318319Y290972D01*
X318379Y291002D01*
X318430Y291032D01*
X318489Y291062D01*
X318549Y291092D01*
X318610Y291112D01*
X318680Y291132D01*
X318739Y291142D01*
X318799Y291152D01*
X318869Y291162D01*
X318930Y291172D01*
X321069D01*
X321129Y291162D01*
D02*
G37*
D45*
X314359Y661222D02*
D03*
Y652522D02*
D03*
X298759D02*
D03*
Y661222D02*
D03*
X345560D02*
D03*
Y652522D02*
D03*
D46*
X369749Y17002D02*
D03*
X361049D02*
D03*
X288890Y35002D02*
D03*
X280190D02*
D03*
X361059Y950072D02*
D03*
X369759D02*
D03*
X288909Y967472D02*
D03*
X280210D02*
D03*
D47*
X330460Y268272D02*
D03*
X329959Y660072D02*
D03*
Y651472D02*
D03*
X330460Y276872D02*
D03*
D48*
X293759Y289072D02*
D03*
X302360D02*
D03*
D51*
X613660Y519472D02*
D03*
X589259D02*
D03*
X638060D02*
D03*
X45760D02*
D03*
X70160D02*
D03*
X21360D02*
D03*
X346326Y502872D02*
D03*
X389259D02*
D03*
X79660Y728572D02*
D03*
X324860Y502872D02*
D03*
X52359Y728572D02*
D03*
X367793Y502872D02*
D03*
X435460Y633872D02*
D03*
X414160Y652922D02*
D03*
X435460Y652772D02*
D03*
X414160Y633872D02*
D03*
X33210Y61772D02*
D03*
X92710D02*
D03*
Y75272D02*
D03*
X33210D02*
D03*
X41709D02*
D03*
X50209D02*
D03*
X58710D02*
D03*
X67210D02*
D03*
X75710D02*
D03*
X84209D02*
D03*
Y61772D02*
D03*
X75710D02*
D03*
X67210D02*
D03*
X58710D02*
D03*
X50209D02*
D03*
X41709D02*
D03*
D73*
X106209Y65472D02*
D03*
X19710D02*
D03*
D74*
X106209Y31672D02*
D03*
X19710D02*
D03*
D75*
X17199Y687272D02*
D03*
X286900Y922472D02*
D03*
X632799Y763472D02*
D03*
Y738072D02*
D03*
Y712672D02*
D03*
Y687272D02*
D03*
Y661872D02*
D03*
X312299Y922472D02*
D03*
X337700D02*
D03*
X363100D02*
D03*
X388499D02*
D03*
X17199Y712672D02*
D03*
Y738072D02*
D03*
Y763472D02*
D03*
Y788872D02*
D03*
D76*
X205060Y859461D02*
D03*
X444939Y859462D02*
D03*
Y830662D02*
D03*
X205060Y830661D02*
D03*
D77*
X41490Y606822D02*
D03*
X608509D02*
D03*
X578489D02*
D03*
X71509D02*
D03*
D78*
X523859Y825242D02*
D03*
X502959Y804352D02*
D03*
D79*
X126140Y825242D02*
D03*
X147040Y804352D02*
D03*
D80*
X596009Y63272D02*
D03*
D81*
Y38272D02*
D03*
D82*
X520920Y786392D02*
D03*
X108179Y807282D02*
D03*
X608509Y581422D02*
D03*
X541820Y807282D02*
D03*
X41490Y581422D02*
D03*
X470340Y859462D02*
D03*
X179660Y859461D02*
D03*
X578489Y581422D02*
D03*
X71509D02*
D03*
X470340Y830662D02*
D03*
X179660Y830661D02*
D03*
X129079Y786392D02*
D03*
D83*
X152330Y22082D02*
D03*
X182330D02*
D03*
D84*
X632799Y788872D02*
D03*
X17199Y661872D02*
D03*
D85*
X261500Y922472D02*
D03*
D86*
X20499Y476372D02*
D03*
X629499D02*
D03*
X20499Y117372D02*
D03*
X629499D02*
D03*
D87*
X232560Y643672D02*
D03*
X108259Y792172D02*
D03*
X186059Y666472D02*
D03*
Y643672D02*
D03*
X239060Y691372D02*
D03*
X267360Y614872D02*
D03*
X122360Y447972D02*
D03*
X255060Y532872D02*
D03*
X534851Y793350D02*
D03*
X480820Y848390D02*
D03*
X56659Y573372D02*
D03*
X62759Y112272D02*
D03*
X412739Y87032D02*
D03*
X219960Y543672D02*
D03*
Y537172D02*
D03*
X262829Y53972D02*
D03*
X31360Y519472D02*
D03*
X267746Y409282D02*
D03*
X80160Y519472D02*
D03*
X276153Y409282D02*
D03*
X55760Y519472D02*
D03*
X284559Y409282D02*
D03*
X59710Y445472D02*
D03*
X623660Y519472D02*
D03*
X599259D02*
D03*
X445460Y652772D02*
D03*
X266159Y630372D02*
D03*
X424160Y652922D02*
D03*
X445460Y633872D02*
D03*
X424160D02*
D03*
X530560Y362238D02*
D03*
X536559D02*
D03*
X89660Y728572D02*
D03*
X62359D02*
D03*
X66210Y445472D02*
D03*
X399259Y502872D02*
D03*
X334860D02*
D03*
X378410Y502822D02*
D03*
X356326Y502872D02*
D03*
X320060Y476872D02*
D03*
Y467772D02*
D03*
X198622Y372572D02*
D03*
X174760Y53972D02*
D03*
X527760Y72872D02*
D03*
X218759Y442572D02*
D03*
Y436572D02*
D03*
X366460Y394672D02*
D03*
Y388672D02*
D03*
X332360Y561372D02*
D03*
X325859D02*
D03*
X292560Y570672D02*
D03*
X269060Y576672D02*
D03*
X185560Y537172D02*
D03*
Y543672D02*
D03*
X292560Y580172D02*
D03*
X428359Y87032D02*
D03*
X566460Y552672D02*
D03*
X410960Y480372D02*
D03*
X120020Y501332D02*
D03*
X289459Y658772D02*
D03*
X292560Y591872D02*
D03*
X272959Y623172D02*
D03*
X294960Y642272D02*
D03*
X393559Y950072D02*
D03*
X482399Y723742D02*
D03*
X279259Y664972D02*
D03*
X266560Y677372D02*
D03*
X269060Y585172D02*
D03*
X320260Y53972D02*
D03*
X456359Y562072D02*
D03*
X377840Y53972D02*
D03*
X409679Y568302D02*
D03*
X334689Y672462D02*
D03*
X349370Y519952D02*
D03*
X259340Y409282D02*
D03*
X416810Y506492D02*
D03*
Y494562D02*
D03*
X376009Y526022D02*
D03*
X146910Y521732D02*
D03*
X287869D02*
D03*
X218599Y410412D02*
D03*
X208650D02*
D03*
X367550Y526022D02*
D03*
X409679Y559782D02*
D03*
X461429Y411462D02*
D03*
X451479D02*
D03*
X133619Y542212D02*
D03*
Y521732D02*
D03*
Y531972D02*
D03*
Y552452D02*
D03*
X513209Y552712D02*
D03*
X379850Y604372D02*
D03*
X416600Y855572D02*
D03*
X139389Y719532D02*
D03*
X271239Y855252D02*
D03*
D135*
X344749Y968002D02*
D03*
X305250Y950002D02*
D03*
X344749Y35002D02*
D03*
X305250Y17002D02*
D03*
Y35002D02*
D03*
X344749Y17002D02*
D03*
X305250Y968002D02*
D03*
X344749Y950002D02*
D03*
D136*
X327500Y599822D02*
D03*
X332500Y638522D02*
D03*
X337500D02*
D03*
X327500D02*
D03*
X322500D02*
D03*
X317500D02*
D03*
X312500D02*
D03*
Y599822D02*
D03*
X317500D02*
D03*
X322500D02*
D03*
X332500D02*
D03*
X337500D02*
D03*
D137*
X305650Y631672D02*
D03*
Y626672D02*
D03*
Y621672D02*
D03*
Y616672D02*
D03*
Y611672D02*
D03*
Y606672D02*
D03*
X344350D02*
D03*
Y611672D02*
D03*
Y616672D02*
D03*
Y621672D02*
D03*
Y626672D02*
D03*
Y631672D02*
D03*
D138*
X325000Y619172D02*
D03*
M02*
