M48
;Layer_Color=9474304
;FILE_FORMAT=4:4
METRIC,LZ
;TYPE=PLATED
T4F00S00C0.6000
T7F00S00C1.3000
T8F00S00C1.7000
;TYPE=NON_PLATED
%
G90
G05
T04
G00X0017631Y00020972
M15
G01Y00028972
M16
G00X0017631Y00051272
M15
G01Y00066272
M16
G00X0026281Y00051272
M15
G01Y00066272
M16
G00X0026281Y00020972
M15
G01Y00028972
M16
T07
G00X001065Y006008
M15
G01Y006128
M16
G00X002145Y006008
M15
G01Y006128
M16
G00X003211Y007182
M15
G01X003091
M16
G00X006589Y007182
M15
G01X006709
M16
G00X007655Y006008
M15
G01Y006128
M16
G00X008735Y006008
M15
G01Y006128
M16
G00X006589Y008262
M15
G01X006709
M16
G00X00586739Y00802284
M15
G01X0059686Y00808732
M16
G00X00528711Y00893371
M15
G01X00538831Y00899818
M16
G00X0045129Y00893371
M15
G01X00441169Y00899818
M16
G00X00393261Y00802284
M15
G01X00383141Y00808732
M16
G00X003211Y008262
M15
G01X003091
M16
T08
G00X003985Y000901
M15
G01X005815
M16
G00X003985Y002271
M15
G01X005815
M16
M17
M30
