G04*
G04 #@! TF.GenerationSoftware,Altium Limited,Altium Designer,23.1.1 (15)*
G04*
G04 Layer_Color=2752767*
%FSLAX44Y44*%
%MOMM*%
G71*
G04*
G04 #@! TF.SameCoordinates,6E2E4CF0-E359-4451-A4CD-7E5F78DB66F6*
G04*
G04*
G04 #@! TF.FilePolarity,Positive*
G04*
G01*
G75*
%ADD10C,0.1270*%
%ADD142C,0.1693*%
%ADD143C,0.1016*%
D10*
X705000Y153520D02*
X707540Y156060D01*
X710080D01*
X707540Y158600D01*
X710080Y161140D01*
X707540D01*
X705000Y163680D01*
X702460Y161140D01*
X699920D01*
X702460Y158600D01*
X699920Y156060D01*
X702460D01*
X705000Y153520D01*
X275000D02*
X277540Y156060D01*
X280080D01*
X277540Y158600D01*
X280080Y161140D01*
X277540D01*
X275000Y163680D01*
X272460Y161140D01*
X269920D01*
X272460Y158600D01*
X269920Y156060D01*
X272460D01*
X275000Y153520D01*
X170000Y471290D02*
X172540Y473830D01*
X175080D01*
X172540Y476370D01*
X175080Y478910D01*
X172540D01*
X170000Y481450D01*
X167460Y478910D01*
X164920D01*
X167460Y476370D01*
X164920Y473830D01*
X167460D01*
X170000Y471290D01*
Y112290D02*
X172540Y114830D01*
X175080D01*
X172540Y117370D01*
X175080Y119910D01*
X172540D01*
X170000Y122450D01*
X167460Y119910D01*
X164920D01*
X167460Y117370D01*
X164920Y114830D01*
X167460D01*
X170000Y112290D01*
X342250Y17002D02*
X344790D01*
X347330Y19542D01*
X349870Y17002D01*
X352410D01*
Y19542D01*
X349870Y22082D01*
X352410Y24622D01*
Y27162D01*
X349870D01*
X347330Y24622D01*
X344790Y27162D01*
X342250D01*
Y24622D01*
X344790Y22082D01*
X342250Y19542D01*
Y17002D01*
X312250D02*
X314790D01*
X317330Y19542D01*
X319870Y17002D01*
X322410D01*
Y19542D01*
X319870Y22082D01*
X322410Y24622D01*
Y27162D01*
X319870D01*
X317330Y24622D01*
X314790Y27162D01*
X312250D01*
Y24622D01*
X314790Y22082D01*
X312250Y19542D01*
Y17002D01*
X548420Y939920D02*
Y950080D01*
X558580D01*
Y939920D01*
X548420D01*
X550452Y941952D02*
Y948048D01*
X556548D01*
Y941952D01*
X550452D01*
X523020Y939920D02*
Y950080D01*
X533180D01*
Y939920D01*
X523020D01*
X525052Y941952D02*
Y948048D01*
X531148D01*
Y941952D01*
X525052D01*
X497620Y939920D02*
Y950080D01*
X507780D01*
Y939920D01*
X497620D01*
X499652Y941952D02*
Y948048D01*
X505748D01*
Y941952D01*
X499652D01*
X472220Y939920D02*
Y950080D01*
X482380D01*
Y939920D01*
X472220D01*
X474252Y941952D02*
Y948048D01*
X480348D01*
Y941952D01*
X474252D01*
X421420Y939920D02*
Y950080D01*
X431580D01*
Y939920D01*
X421420D01*
X423452Y941952D02*
Y948048D01*
X429548D01*
Y941952D01*
X423452D01*
X446820Y939920D02*
Y950080D01*
X456980D01*
Y939920D01*
X446820D01*
X448852Y941952D02*
Y948048D01*
X454948D01*
Y941952D01*
X448852D01*
X899920Y696920D02*
Y707080D01*
X910080D01*
Y696920D01*
X899920D01*
X901952Y698952D02*
Y705048D01*
X908048D01*
Y698952D01*
X901952D01*
X899920Y671520D02*
Y681680D01*
X910080D01*
Y671520D01*
X899920D01*
X901952Y673552D02*
Y679648D01*
X908048D01*
Y673552D01*
X901952D01*
X899920Y646120D02*
Y656280D01*
X910080D01*
Y646120D01*
X899920D01*
X901952Y648152D02*
Y654248D01*
X908048D01*
Y648152D01*
X901952D01*
X899920Y620720D02*
Y630880D01*
X910080D01*
Y620720D01*
X899920D01*
X901952Y622752D02*
Y628848D01*
X908048D01*
Y622752D01*
X901952D01*
X899920Y595320D02*
Y605480D01*
X910080D01*
Y595320D01*
X899920D01*
X901952Y597352D02*
Y603448D01*
X908048D01*
Y597352D01*
X901952D01*
X899920Y569920D02*
Y580080D01*
X910080D01*
Y569920D01*
X899920D01*
X901952Y571952D02*
Y578048D01*
X908048D01*
Y571952D01*
X901952D01*
X69920Y569920D02*
Y580080D01*
X80080D01*
Y569920D01*
X69920D01*
X71952Y571952D02*
Y578048D01*
X78048D01*
Y571952D01*
X71952D01*
X69920Y595320D02*
Y605480D01*
X80080D01*
Y595320D01*
X69920D01*
X71952Y597352D02*
Y603448D01*
X78048D01*
Y597352D01*
X71952D01*
X69920Y620720D02*
Y630880D01*
X80080D01*
Y620720D01*
X69920D01*
X71952Y622752D02*
Y628848D01*
X78048D01*
Y622752D01*
X71952D01*
X69920Y646120D02*
Y656280D01*
X80080D01*
Y646120D01*
X69920D01*
X71952Y648152D02*
Y654248D01*
X78048D01*
Y648152D01*
X71952D01*
X69920Y671520D02*
Y681680D01*
X80080D01*
Y671520D01*
X69920D01*
X71952Y673552D02*
Y679648D01*
X78048D01*
Y673552D01*
X71952D01*
X69920Y696920D02*
Y707080D01*
X80080D01*
Y696920D01*
X69920D01*
X71952Y698952D02*
Y705048D01*
X78048D01*
Y698952D01*
X71952D01*
X480680Y443892D02*
X483220Y448972D01*
X480680Y454052D01*
X485760Y451512D01*
X490840Y454052D01*
X488300Y448972D01*
X490840Y443892D01*
X485760Y446432D01*
X480680Y443892D01*
Y436392D02*
X483220Y441472D01*
X480680Y446552D01*
X485760Y444012D01*
X490840Y446552D01*
X488300Y441472D01*
X490840Y436392D01*
X485760Y438932D01*
X480680Y436392D01*
Y428892D02*
X483220Y433972D01*
X480680Y439052D01*
X485760Y436512D01*
X490840Y439052D01*
X488300Y433972D01*
X490840Y428892D01*
X485760Y431432D01*
X480680Y428892D01*
X784960Y41810D02*
Y39270D01*
X790040D01*
Y41810D01*
X792580D01*
Y46890D01*
X790040D01*
Y49430D01*
X784960D01*
Y46890D01*
X782420D01*
Y41810D01*
X784960D01*
X257730Y53692D02*
Y63852D01*
X267890D01*
Y53692D01*
X257730D01*
X171230D02*
Y63852D01*
X181390D01*
Y53692D01*
X171230D01*
X189810Y49992D02*
X184730Y60152D01*
X194890D01*
X189810Y49992D01*
X249310D02*
X244230Y60152D01*
X254390D01*
X249310Y49992D01*
Y63492D02*
X244230Y73652D01*
X254390D01*
X249310Y63492D01*
X189810D02*
X184730Y73652D01*
X194890D01*
X189810Y63492D01*
X484920Y85020D02*
X487460Y90100D01*
X484920Y95180D01*
X490000Y92640D01*
X495080Y95180D01*
X492540Y90100D01*
X495080Y85020D01*
X490000Y87560D01*
X484920Y85020D01*
X486952Y87052D02*
X488476Y90100D01*
X486952Y93148D01*
X490000Y91624D01*
X493048Y93148D01*
X491524Y90100D01*
X493048Y87052D01*
X490000Y88576D01*
X486952Y87052D01*
X484920Y222020D02*
X487460Y227100D01*
X484920Y232180D01*
X490000Y229640D01*
X495080Y232180D01*
X492540Y227100D01*
X495080Y222020D01*
X490000Y224560D01*
X484920Y222020D01*
X486952Y224052D02*
X488476Y227100D01*
X486952Y230148D01*
X490000Y228624D01*
X493048Y230148D01*
X491524Y227100D01*
X493048Y224052D01*
X490000Y225576D01*
X486952Y224052D01*
X198310Y49992D02*
X193230Y60152D01*
X203390D01*
X198310Y49992D01*
X206810D02*
X201730Y60152D01*
X211890D01*
X206810Y49992D01*
X215310D02*
X210230Y60152D01*
X220390D01*
X215310Y49992D01*
X223810D02*
X218730Y60152D01*
X228890D01*
X223810Y49992D01*
X232310D02*
X227230Y60152D01*
X237390D01*
X232310Y49992D01*
X240810D02*
X235730Y60152D01*
X245890D01*
X240810Y49992D01*
Y63492D02*
X235730Y73652D01*
X245890D01*
X240810Y63492D01*
X232310D02*
X227230Y73652D01*
X237390D01*
X232310Y63492D01*
X223810D02*
X218730Y73652D01*
X228890D01*
X223810Y63492D01*
X215310D02*
X210230Y73652D01*
X220390D01*
X215310Y63492D01*
X206810D02*
X201730Y73652D01*
X211890D01*
X206810Y63492D01*
X198310D02*
X193230Y73652D01*
X203390D01*
X198310Y63492D01*
X734960Y41810D02*
Y39270D01*
X740040D01*
Y41810D01*
X742580D01*
Y46890D01*
X740040D01*
Y49430D01*
X734960D01*
Y46890D01*
X732420D01*
Y41810D01*
X734960D01*
X759960D02*
Y39270D01*
X765040D01*
Y41810D01*
X767580D01*
Y46890D01*
X765040D01*
Y49430D01*
X759960D01*
Y46890D01*
X757420D01*
Y41810D01*
X759960D01*
X810000Y471290D02*
X812540Y473830D01*
X815080D01*
X812540Y476370D01*
X815080Y478910D01*
X812540D01*
X810000Y481450D01*
X807460Y478910D01*
X804920D01*
X807460Y476370D01*
X804920Y473830D01*
X807460D01*
X810000Y471290D01*
Y112290D02*
X812540Y114830D01*
X815080D01*
X812540Y117370D01*
X815080Y119910D01*
X812540D01*
X810000Y122450D01*
X807460Y119910D01*
X804920D01*
X807460Y117370D01*
X804920Y114830D01*
X807460D01*
X810000Y112290D01*
X175620Y524772D02*
X180700Y529852D01*
X185780Y524772D01*
X180700Y519692D01*
X175620Y524772D01*
X202920D02*
X208000Y529852D01*
X213080Y524772D01*
X208000Y519692D01*
X202920Y524772D01*
X415020Y489700D02*
X420100Y494780D01*
X425180Y489700D01*
X420100Y484620D01*
X415020Y489700D01*
X311220Y518700D02*
X316300Y523780D01*
X321380Y518700D01*
X316300Y513620D01*
X311220Y518700D01*
X605420Y627700D02*
X610500Y632780D01*
X615580Y627700D01*
X610500Y622620D01*
X605420Y627700D01*
X584120D02*
X589200Y632780D01*
X594280Y627700D01*
X589200Y622620D01*
X584120Y627700D01*
X522320Y623800D02*
X527400Y628880D01*
X532480Y623800D01*
X527400Y618720D01*
X522320Y623800D01*
X667984Y607600D02*
X673064Y612680D01*
X678144Y607600D01*
X673064Y602520D01*
X667984Y607600D01*
X541020Y418200D02*
X546100Y423280D01*
X551180Y418200D01*
X546100Y413120D01*
X541020Y418200D01*
Y430200D02*
X546100Y435280D01*
X551180Y430200D01*
X546100Y425120D01*
X541020Y430200D01*
X549820Y451200D02*
X554900Y456280D01*
X559980Y451200D01*
X554900Y446120D01*
X549820Y451200D01*
X546120Y459800D02*
X551200Y464880D01*
X556280Y459800D01*
X551200Y454720D01*
X546120Y459800D01*
X540220Y475100D02*
X545300Y480180D01*
X550380Y475100D01*
X545300Y470020D01*
X540220Y475100D01*
X525420D02*
X530500Y480180D01*
X535580Y475100D01*
X530500Y470020D01*
X525420Y475100D01*
X510620D02*
X515700Y480180D01*
X520780Y475100D01*
X515700Y470020D01*
X510620Y475100D01*
X495820D02*
X500900Y480180D01*
X505980Y475100D01*
X500900Y470020D01*
X495820Y475100D01*
X352554Y558100D02*
X357634Y563180D01*
X362714Y558100D01*
X357634Y553020D01*
X352554Y558100D01*
X378820D02*
X383900Y563180D01*
X388980Y558100D01*
X383900Y553020D01*
X378820Y558100D01*
X492280Y561372D02*
X497360Y566452D01*
X502440Y561372D01*
X497360Y556292D01*
X492280Y561372D01*
X485780D02*
X490860Y566452D01*
X495940Y561372D01*
X490860Y556292D01*
X485780Y561372D01*
X476420D02*
X481500Y566452D01*
X486580Y561372D01*
X481500Y556292D01*
X476420Y561372D01*
X414980Y532872D02*
X420060Y537952D01*
X425140Y532872D01*
X420060Y527792D01*
X414980Y532872D01*
X827920Y607600D02*
X833000Y612680D01*
X838080Y607600D01*
X833000Y602520D01*
X827920Y607600D01*
X617520D02*
X622600Y612680D01*
X627680Y607600D01*
X622600Y602520D01*
X617520Y607600D01*
X610820Y563000D02*
X615900Y568080D01*
X620980Y563000D01*
X615900Y557920D01*
X610820Y563000D01*
X495720Y379200D02*
X500800Y384280D01*
X505880Y379200D01*
X500800Y374120D01*
X495720Y379200D01*
X415020Y471638D02*
X420100Y476718D01*
X425180Y471638D01*
X420100Y466558D01*
X415020Y471638D01*
X426620Y404300D02*
X431700Y409380D01*
X436780Y404300D01*
X431700Y399220D01*
X426620Y404300D01*
X385020Y498500D02*
X390100Y503580D01*
X395180Y498500D01*
X390100Y493420D01*
X385020Y498500D01*
Y509300D02*
X390100Y514380D01*
X395180Y509300D01*
X390100Y504220D01*
X385020Y509300D01*
X454220Y480900D02*
X459300Y485980D01*
X464380Y480900D01*
X459300Y475820D01*
X454220Y480900D01*
X415020Y497900D02*
X420100Y502980D01*
X425180Y497900D01*
X420100Y492820D01*
X415020Y497900D01*
Y480800D02*
X420100Y485880D01*
X425180Y480800D01*
X420100Y475720D01*
X415020Y480800D01*
Y441804D02*
X420100Y446884D01*
X425180Y441804D01*
X420100Y436724D01*
X415020Y441804D01*
Y432201D02*
X420100Y437281D01*
X425180Y432201D01*
X420100Y427122D01*
X415020Y432201D01*
Y423200D02*
X420100Y428280D01*
X425180Y423200D01*
X420100Y418120D01*
X415020Y423200D01*
X447780Y474342D02*
X452860Y479422D01*
X457940Y474342D01*
X452860Y469262D01*
X447780Y474342D01*
Y464174D02*
X452860Y469254D01*
X457940Y464174D01*
X452860Y459094D01*
X447780Y464174D01*
Y454882D02*
X452860Y459962D01*
X457940Y454882D01*
X452860Y449802D01*
X447780Y454882D01*
Y445919D02*
X452860Y450999D01*
X457940Y445919D01*
X452860Y440839D01*
X447780Y445919D01*
Y437267D02*
X452860Y442347D01*
X457940Y437267D01*
X452860Y432187D01*
X447780Y437267D01*
X447780Y429072D02*
X452860Y434152D01*
X457940Y429072D01*
X452860Y423992D01*
X447780Y429072D01*
X453120Y419000D02*
X458200Y424080D01*
X463280Y419000D01*
X458200Y413920D01*
X453120Y419000D01*
X449020Y379200D02*
X454100Y384280D01*
X459180Y379200D01*
X454100Y374120D01*
X449020Y379200D01*
X438120D02*
X443200Y384280D01*
X448280Y379200D01*
X443200Y374120D01*
X438120Y379200D01*
X427220D02*
X432300Y384280D01*
X437380Y379200D01*
X432300Y374120D01*
X427220Y379200D01*
X427520Y426000D02*
X432600Y431080D01*
X437680Y426000D01*
X432600Y420920D01*
X427520Y426000D01*
X448720Y408500D02*
X453800Y413580D01*
X458880Y408500D01*
X453800Y403420D01*
X448720Y408500D01*
X456220Y410200D02*
X461300Y415280D01*
X466380Y410200D01*
X461300Y405120D01*
X456220Y410200D01*
X415020Y414900D02*
X420100Y419980D01*
X425180Y414900D01*
X420100Y409820D01*
X415020Y414900D01*
Y404300D02*
X420100Y409380D01*
X425180Y404300D01*
X420100Y399220D01*
X415020Y404300D01*
X438220D02*
X443300Y409380D01*
X448380Y404300D01*
X443300Y399220D01*
X438220Y404300D01*
X385120Y379200D02*
X390200Y384280D01*
X395280Y379200D01*
X390200Y374120D01*
X385120Y379200D01*
X370420D02*
X375500Y384280D01*
X380580Y379200D01*
X375500Y374120D01*
X370420Y379200D01*
X399820D02*
X404900Y384280D01*
X409980Y379200D01*
X404900Y374120D01*
X399820Y379200D01*
X414520D02*
X419600Y384280D01*
X424680Y379200D01*
X419600Y374120D01*
X414520Y379200D01*
X455420Y369200D02*
X460500Y374280D01*
X465580Y369200D01*
X460500Y364120D01*
X455420Y369200D01*
X444231D02*
X449311Y374280D01*
X454391Y369200D01*
X449311Y364120D01*
X444231Y369200D01*
X433620D02*
X438700Y374280D01*
X443780Y369200D01*
X438700Y364120D01*
X433620Y369200D01*
X420420D02*
X425500Y374280D01*
X430580Y369200D01*
X425500Y364120D01*
X420420Y369200D01*
X358620Y361500D02*
X363700Y366580D01*
X368780Y361500D01*
X363700Y356420D01*
X358620Y361500D01*
X277020Y556500D02*
X282100Y561580D01*
X287180Y556500D01*
X282100Y551420D01*
X277020Y556500D01*
Y550500D02*
X282100Y555580D01*
X287180Y550500D01*
X282100Y545420D01*
X277020Y550500D01*
X229170Y540500D02*
X234250Y545580D01*
X239330Y540500D01*
X234250Y535420D01*
X229170Y540500D01*
X223170D02*
X228250Y545580D01*
X233330Y540500D01*
X228250Y535420D01*
X223170Y540500D01*
X293540Y542212D02*
X298620Y547292D01*
X303700Y542212D01*
X298620Y537132D01*
X293540Y542212D01*
X545120Y347300D02*
X550200Y352380D01*
X555280Y347300D01*
X550200Y342220D01*
X545120Y347300D01*
X526320Y370700D02*
X531400Y375780D01*
X536480Y370700D01*
X531400Y365620D01*
X526320Y370700D01*
X501220Y260600D02*
X506300Y265680D01*
X511380Y260600D01*
X506300Y255520D01*
X501220Y260600D01*
X468620D02*
X473700Y265680D01*
X478780Y260600D01*
X473700Y255520D01*
X468620Y260600D01*
X450620Y325300D02*
X455700Y330380D01*
X460780Y325300D01*
X455700Y320220D01*
X450620Y325300D01*
X445320Y312000D02*
X450400Y317080D01*
X455480Y312000D01*
X450400Y306920D01*
X445320Y312000D01*
Y301300D02*
X450400Y306380D01*
X455480Y301300D01*
X450400Y296220D01*
X445320Y301300D01*
X524520D02*
X529600Y306380D01*
X534680Y301300D01*
X529600Y296220D01*
X524520Y301300D01*
Y312000D02*
X529600Y317080D01*
X534680Y312000D01*
X529600Y306920D01*
X524520Y312000D01*
X536340Y289100D02*
X541420Y294180D01*
X546500Y289100D01*
X541420Y284020D01*
X536340Y289100D01*
X433500D02*
X438580Y294180D01*
X443660Y289100D01*
X438580Y284020D01*
X433500Y289100D01*
X472020Y379200D02*
X477100Y384280D01*
X482180Y379200D01*
X477100Y374120D01*
X472020Y379200D01*
X519220Y325300D02*
X524300Y330380D01*
X529380Y325300D01*
X524300Y320220D01*
X519220Y325300D01*
X214280Y112272D02*
X219360Y117352D01*
X224440Y112272D01*
X219360Y107192D01*
X214280Y112272D01*
X334680Y53972D02*
X339760Y59052D01*
X344840Y53972D01*
X339760Y48892D01*
X334680Y53972D01*
X345234Y662722D02*
X350314Y667802D01*
X355394Y662722D01*
X350314Y657642D01*
X345234Y662722D01*
X390374Y816894D02*
X395454Y821974D01*
X400535Y816894D01*
X395454Y811814D01*
X390374Y816894D01*
X310020Y731700D02*
X315100Y736780D01*
X320180Y731700D01*
X315100Y726620D01*
X310020Y731700D01*
X433896Y885209D02*
X438976Y890289D01*
X444056Y885209D01*
X438976Y880129D01*
X433896Y885209D01*
X253120Y622000D02*
X258200Y627080D01*
X263280Y622000D01*
X258200Y616920D01*
X253120Y622000D01*
X224020Y652200D02*
X229100Y657280D01*
X234180Y652200D01*
X229100Y647120D01*
X224020Y652200D01*
X426920Y653300D02*
X432000Y658380D01*
X437080Y653300D01*
X432000Y648220D01*
X426920Y653300D01*
X854920Y606800D02*
X860000Y611880D01*
X865080Y606800D01*
X860000Y601720D01*
X854920Y606800D01*
X569600Y576800D02*
X574680Y581880D01*
X579760Y576800D01*
X574680Y571720D01*
X569600Y576800D01*
X659820Y731700D02*
X664900Y736780D01*
X669980Y731700D01*
X664900Y726620D01*
X659820Y731700D01*
X582520Y579200D02*
X587600Y584280D01*
X592680Y579200D01*
X587600Y574120D01*
X582520Y579200D01*
X579466Y816894D02*
X584546Y821974D01*
X589626Y816894D01*
X584546Y811814D01*
X579466Y816894D01*
X518920Y561372D02*
X524000Y566452D01*
X529080Y561372D01*
X524000Y556292D01*
X518920Y561372D01*
X510420D02*
X515500Y566452D01*
X520580Y561372D01*
X515500Y556292D01*
X510420Y561372D01*
X534620Y607800D02*
X539700Y612880D01*
X544780Y607800D01*
X539700Y602720D01*
X534620Y607800D01*
X195920Y606800D02*
X201000Y611880D01*
X206080Y606800D01*
X201000Y601720D01*
X195920Y606800D01*
X441820Y532872D02*
X446900Y537952D01*
X451980Y532872D01*
X446900Y527792D01*
X441820Y532872D01*
X576730Y506492D02*
X581810Y511572D01*
X586890Y506492D01*
X581810Y501412D01*
X576730Y506492D01*
X428980Y576672D02*
X434060Y581752D01*
X439140Y576672D01*
X434060Y571592D01*
X428980Y576672D01*
Y585172D02*
X434060Y590252D01*
X439140Y585172D01*
X434060Y580092D01*
X428980Y585172D01*
X392480Y643672D02*
X397560Y648752D01*
X402640Y643672D01*
X397560Y638592D01*
X392480Y643672D01*
X282320Y451200D02*
X287400Y456280D01*
X292480Y451200D01*
X287400Y446120D01*
X282320Y451200D01*
X427820Y613200D02*
X432900Y618280D01*
X437980Y613200D01*
X432900Y608120D01*
X427820Y613200D01*
X439180Y664972D02*
X444260Y670052D01*
X449340Y664972D01*
X444260Y659892D01*
X439180Y664972D01*
X427820Y620950D02*
X432900Y626030D01*
X437980Y620950D01*
X432900Y615870D01*
X427820Y620950D01*
X671880Y69472D02*
X676960Y74552D01*
X682040Y69472D01*
X676960Y64392D01*
X671880Y69472D01*
X585820Y61800D02*
X590900Y66880D01*
X595980Y61800D01*
X590900Y56720D01*
X585820Y61800D01*
X537750Y53972D02*
X542830Y59052D01*
X547910Y53972D01*
X542830Y48892D01*
X537750Y53972D01*
X480250D02*
X485330Y59052D01*
X490410Y53972D01*
X485330Y48892D01*
X480250Y53972D01*
X570080Y61800D02*
X575160Y66880D01*
X580240Y61800D01*
X575160Y56720D01*
X570080Y61800D01*
X584080Y652922D02*
X589160Y658002D01*
X594240Y652922D01*
X589160Y647842D01*
X584080Y652922D01*
X759180Y524772D02*
X764260Y529852D01*
X769340Y524772D01*
X764260Y519692D01*
X759180Y524772D01*
X518120Y526022D02*
X523200Y531102D01*
X528280Y526022D01*
X523200Y520942D01*
X518120Y526022D01*
X527025D02*
X532105Y531102D01*
X537185Y526022D01*
X532105Y520942D01*
X527025Y526022D01*
X535930D02*
X541010Y531102D01*
X546090Y526022D01*
X541010Y520942D01*
X535930Y526022D01*
X275820Y83800D02*
X280900Y88880D01*
X285980Y83800D01*
X280900Y78720D01*
X275820Y83800D01*
X282920Y426800D02*
X288000Y431880D01*
X293080Y426800D01*
X288000Y421720D01*
X282920Y426800D01*
Y401678D02*
X288000Y406758D01*
X293080Y401678D01*
X288000Y396598D01*
X282920Y401678D01*
X674320D02*
X679400Y406758D01*
X684480Y401678D01*
X679400Y396598D01*
X674320Y401678D01*
X690420Y353500D02*
X695500Y358580D01*
X700580Y353500D01*
X695500Y348420D01*
X690420Y353500D01*
X696420D02*
X701500Y358580D01*
X706580Y353500D01*
X701500Y348420D01*
X696420Y353500D01*
X591420Y380100D02*
X596500Y385180D01*
X601580Y380100D01*
X596500Y375020D01*
X591420Y380100D01*
X674320Y426800D02*
X679400Y431880D01*
X684480Y426800D01*
X679400Y421720D01*
X674320Y426800D01*
X581320Y380100D02*
X586400Y385180D01*
X591480Y380100D01*
X586400Y375020D01*
X581320Y380100D01*
X480620Y467800D02*
X485700Y472880D01*
X490780Y467800D01*
X485700Y462720D01*
X480620Y467800D01*
X605380Y652772D02*
X610460Y657852D01*
X615540Y652772D01*
X610460Y647692D01*
X605380Y652772D01*
X454880Y642272D02*
X459960Y647352D01*
X465040Y642272D01*
X459960Y637192D01*
X454880Y642272D01*
X345234Y643672D02*
X350314Y648752D01*
X355394Y643672D01*
X350314Y638592D01*
X345234Y643672D01*
X398980Y691372D02*
X404060Y696452D01*
X409140Y691372D01*
X404060Y686292D01*
X398980Y691372D01*
X379880Y543672D02*
X384960Y548752D01*
X390040Y543672D01*
X384960Y538592D01*
X379880Y543672D01*
Y537172D02*
X384960Y542252D01*
X390040Y537172D01*
X384960Y532092D01*
X379880Y537172D01*
X422750Y53972D02*
X427830Y59052D01*
X432910Y53972D01*
X427830Y48892D01*
X422750Y53972D01*
X783580Y524772D02*
X788660Y529852D01*
X793740Y524772D01*
X788660Y519692D01*
X783580Y524772D01*
X559180Y497172D02*
X564260Y502252D01*
X569340Y497172D01*
X564260Y492092D01*
X559180Y497172D01*
X494780D02*
X499860Y502252D01*
X504940Y497172D01*
X499860Y492092D01*
X494780Y497172D01*
X538330Y497122D02*
X543410Y502202D01*
X548490Y497122D01*
X543410Y492042D01*
X538330Y497122D01*
X516246Y497172D02*
X521326Y502252D01*
X526406Y497172D01*
X521326Y492092D01*
X516246Y497172D01*
X378680Y442572D02*
X383760Y447652D01*
X388840Y442572D01*
X383760Y437492D01*
X378680Y442572D01*
Y436572D02*
X383760Y441652D01*
X388840Y436572D01*
X383760Y431492D01*
X378680Y436572D01*
X526380Y394672D02*
X531460Y399752D01*
X536540Y394672D01*
X531460Y389592D01*
X526380Y394672D01*
Y388672D02*
X531460Y393752D01*
X536540Y388672D01*
X531460Y383592D01*
X526380Y388672D01*
X452480Y570672D02*
X457560Y575752D01*
X462640Y570672D01*
X457560Y565592D01*
X452480Y570672D01*
Y580172D02*
X457560Y585252D01*
X462640Y580172D01*
X457560Y575092D01*
X452480Y580172D01*
X576730Y480372D02*
X581810Y485452D01*
X586890Y480372D01*
X581810Y475292D01*
X576730Y480372D01*
X279940Y501332D02*
X285020Y506412D01*
X290100Y501332D01*
X285020Y496252D01*
X279940Y501332D01*
X449380Y658772D02*
X454460Y663852D01*
X459540Y658772D01*
X454460Y653692D01*
X449380Y658772D01*
X452480Y591872D02*
X457560Y596952D01*
X462640Y591872D01*
X457560Y586792D01*
X452480Y591872D01*
X426480Y677372D02*
X431560Y682452D01*
X436640Y677372D01*
X431560Y672292D01*
X426480Y677372D01*
X569600Y568302D02*
X574680Y573382D01*
X579760Y568302D01*
X574680Y563222D01*
X569600Y568302D01*
X494610Y672462D02*
X499690Y677542D01*
X504770Y672462D01*
X499690Y667382D01*
X494610Y672462D01*
X576730Y494562D02*
X581810Y499642D01*
X586890Y494562D01*
X581810Y489482D01*
X576730Y494562D01*
X447790Y521732D02*
X452870Y526812D01*
X457950Y521732D01*
X452870Y516652D01*
X447790Y521732D01*
X378520Y410412D02*
X383600Y415492D01*
X388680Y410412D01*
X383600Y405332D01*
X378520Y410412D01*
X368570D02*
X373650Y415492D01*
X378730Y410412D01*
X373650Y405332D01*
X368570Y410412D01*
X569600Y559782D02*
X574680Y564862D01*
X579760Y559782D01*
X574680Y554702D01*
X569600Y559782D01*
X621350Y410412D02*
X626430Y415492D01*
X631510Y410412D01*
X626430Y405332D01*
X621350Y410412D01*
X611400D02*
X616480Y415492D01*
X621560Y410412D01*
X616480Y405332D01*
X611400Y410412D01*
X293540Y521732D02*
X298620Y526812D01*
X303700Y521732D01*
X298620Y516652D01*
X293540Y521732D01*
Y531972D02*
X298620Y537052D01*
X303700Y531972D01*
X298620Y526892D01*
X293540Y531972D01*
D142*
X770580Y606800D02*
G03*
X770580Y606800I-5080J0D01*
G01*
X878580D02*
G03*
X878580Y606800I-5080J0D01*
G01*
X669980Y826200D02*
G03*
X669980Y826200I-5080J0D01*
G01*
Y718200D02*
G03*
X669980Y718200I-5080J0D01*
G01*
X538851Y896595D02*
G03*
X538851Y896595I-5080J0D01*
G01*
X596879Y805508D02*
G03*
X596879Y805508I-5080J0D01*
G01*
X111580Y606800D02*
G03*
X111580Y606800I-5080J0D01*
G01*
X219580D02*
G03*
X219580Y606800I-5080J0D01*
G01*
X393281Y805508D02*
G03*
X393281Y805508I-5080J0D01*
G01*
X451309Y896595D02*
G03*
X451309Y896595I-5080J0D01*
G01*
X320180Y718200D02*
G03*
X320180Y718200I-5080J0D01*
G01*
Y826200D02*
G03*
X320180Y826200I-5080J0D01*
G01*
X267890Y24972D02*
G03*
X267890Y24972I-5080J0D01*
G01*
X181390D02*
G03*
X181390Y24972I-5080J0D01*
G01*
D143*
X768548Y606800D02*
G03*
X768548Y606800I-3048J0D01*
G01*
X876548D02*
G03*
X876548Y606800I-3048J0D01*
G01*
X667948Y826200D02*
G03*
X667948Y826200I-3048J0D01*
G01*
Y718200D02*
G03*
X667948Y718200I-3048J0D01*
G01*
X536819Y896595D02*
G03*
X536819Y896595I-3048J0D01*
G01*
X594847Y805508D02*
G03*
X594847Y805508I-3048J0D01*
G01*
X109548Y606800D02*
G03*
X109548Y606800I-3048J0D01*
G01*
X217548D02*
G03*
X217548Y606800I-3048J0D01*
G01*
X391249Y805508D02*
G03*
X391249Y805508I-3048J0D01*
G01*
X449277Y896595D02*
G03*
X449277Y896595I-3048J0D01*
G01*
X318148Y718200D02*
G03*
X318148Y718200I-3048J0D01*
G01*
Y826200D02*
G03*
X318148Y826200I-3048J0D01*
G01*
M02*
