G04*
G04 #@! TF.GenerationSoftware,Altium Limited,Altium Designer,23.1.1 (15)*
G04*
G04 Layer_Physical_Order=1*
G04 Layer_Color=255*
%FSLAX44Y44*%
%MOMM*%
G71*
G04*
G04 #@! TF.SameCoordinates,6E2E4CF0-E359-4451-A4CD-7E5F78DB66F6*
G04*
G04*
G04 #@! TF.FilePolarity,Positive*
G04*
G01*
G75*
%ADD12C,0.2540*%
%ADD16C,1.2000*%
%ADD17R,1.5000X5.8000*%
%ADD18R,5.8000X1.5000*%
G04:AMPARAMS|DCode=19|XSize=5.8mm|YSize=1.5mm|CornerRadius=0mm|HoleSize=0mm|Usage=FLASHONLY|Rotation=32.500|XOffset=0mm|YOffset=0mm|HoleType=Round|Shape=Rectangle|*
%AMROTATEDRECTD19*
4,1,4,-2.0429,-2.1907,-2.8488,-0.9256,2.0429,2.1907,2.8488,0.9256,-2.0429,-2.1907,0.0*
%
%ADD19ROTATEDRECTD19*%

G04:AMPARAMS|DCode=20|XSize=5.8mm|YSize=1.5mm|CornerRadius=0mm|HoleSize=0mm|Usage=FLASHONLY|Rotation=147.500|XOffset=0mm|YOffset=0mm|HoleType=Round|Shape=Rectangle|*
%AMROTATEDRECTD20*
4,1,4,2.8488,-0.9256,2.0429,-2.1907,-2.8488,0.9256,-2.0429,2.1907,2.8488,-0.9256,0.0*
%
%ADD20ROTATEDRECTD20*%

%ADD21R,0.8000X0.8000*%
%ADD22R,0.8000X0.8000*%
%ADD23R,0.8000X0.9000*%
%ADD24R,0.9000X1.2500*%
%ADD25R,0.6000X0.5600*%
%ADD26R,0.4000X0.8000*%
%ADD27R,0.8000X0.4000*%
G04:AMPARAMS|DCode=28|XSize=0.54mm|YSize=0.6mm|CornerRadius=0.1431mm|HoleSize=0mm|Usage=FLASHONLY|Rotation=90.000|XOffset=0mm|YOffset=0mm|HoleType=Round|Shape=RoundedRectangle|*
%AMROUNDEDRECTD28*
21,1,0.5400,0.3138,0,0,90.0*
21,1,0.2538,0.6000,0,0,90.0*
1,1,0.2862,0.1569,0.1269*
1,1,0.2862,0.1569,-0.1269*
1,1,0.2862,-0.1569,-0.1269*
1,1,0.2862,-0.1569,0.1269*
%
%ADD28ROUNDEDRECTD28*%
%ADD29R,1.1176X1.4478*%
%ADD30R,1.2000X1.2000*%
G04:AMPARAMS|DCode=31|XSize=0.54mm|YSize=0.6mm|CornerRadius=0.1431mm|HoleSize=0mm|Usage=FLASHONLY|Rotation=0.000|XOffset=0mm|YOffset=0mm|HoleType=Round|Shape=RoundedRectangle|*
%AMROUNDEDRECTD31*
21,1,0.5400,0.3138,0,0,0.0*
21,1,0.2538,0.6000,0,0,0.0*
1,1,0.2862,0.1269,-0.1569*
1,1,0.2862,-0.1269,-0.1569*
1,1,0.2862,-0.1269,0.1569*
1,1,0.2862,0.1269,0.1569*
%
%ADD31ROUNDEDRECTD31*%
%ADD32R,2.6924X1.1176*%
%ADD33R,0.6000X1.5500*%
G04:AMPARAMS|DCode=34|XSize=1.57mm|YSize=0.41mm|CornerRadius=0.0513mm|HoleSize=0mm|Usage=FLASHONLY|Rotation=0.000|XOffset=0mm|YOffset=0mm|HoleType=Round|Shape=RoundedRectangle|*
%AMROUNDEDRECTD34*
21,1,1.5700,0.3075,0,0,0.0*
21,1,1.4675,0.4100,0,0,0.0*
1,1,0.1025,0.7338,-0.1538*
1,1,0.1025,-0.7338,-0.1538*
1,1,0.1025,-0.7338,0.1538*
1,1,0.1025,0.7338,0.1538*
%
%ADD34ROUNDEDRECTD34*%
%ADD35R,1.7000X0.5500*%
%ADD36R,0.9000X1.0000*%
%ADD37R,1.1176X2.6924*%
%ADD38R,0.5600X0.6000*%
G04:AMPARAMS|DCode=39|XSize=0.46mm|YSize=0.2mm|CornerRadius=0.025mm|HoleSize=0mm|Usage=FLASHONLY|Rotation=270.000|XOffset=0mm|YOffset=0mm|HoleType=Round|Shape=RoundedRectangle|*
%AMROUNDEDRECTD39*
21,1,0.4600,0.1500,0,0,270.0*
21,1,0.4100,0.2000,0,0,270.0*
1,1,0.0500,-0.0750,-0.2050*
1,1,0.0500,-0.0750,0.2050*
1,1,0.0500,0.0750,0.2050*
1,1,0.0500,0.0750,-0.2050*
%
%ADD39ROUNDEDRECTD39*%
G04:AMPARAMS|DCode=40|XSize=1.97mm|YSize=0.6mm|CornerRadius=0.045mm|HoleSize=0mm|Usage=FLASHONLY|Rotation=180.000|XOffset=0mm|YOffset=0mm|HoleType=Round|Shape=RoundedRectangle|*
%AMROUNDEDRECTD40*
21,1,1.9700,0.5100,0,0,180.0*
21,1,1.8800,0.6000,0,0,180.0*
1,1,0.0900,-0.9400,0.2550*
1,1,0.0900,0.9400,0.2550*
1,1,0.0900,0.9400,-0.2550*
1,1,0.0900,-0.9400,-0.2550*
%
%ADD40ROUNDEDRECTD40*%
%ADD41R,1.2000X1.8000*%
%ADD71C,0.9000*%
%ADD83R,2.4800X3.4000*%
%ADD84R,0.4000X0.4000*%
G04:AMPARAMS|DCode=85|XSize=1.2mm|YSize=2mm|CornerRadius=0.03mm|HoleSize=0mm|Usage=FLASHONLY|Rotation=180.000|XOffset=0mm|YOffset=0mm|HoleType=Round|Shape=RoundedRectangle|*
%AMROUNDEDRECTD85*
21,1,1.2000,1.9400,0,0,180.0*
21,1,1.1400,2.0000,0,0,180.0*
1,1,0.0600,-0.5700,0.9700*
1,1,0.0600,0.5700,0.9700*
1,1,0.0600,0.5700,-0.9700*
1,1,0.0600,-0.5700,-0.9700*
%
%ADD85ROUNDEDRECTD85*%
G04:AMPARAMS|DCode=86|XSize=0.6mm|YSize=0.5mm|CornerRadius=0.0125mm|HoleSize=0mm|Usage=FLASHONLY|Rotation=180.000|XOffset=0mm|YOffset=0mm|HoleType=Round|Shape=RoundedRectangle|*
%AMROUNDEDRECTD86*
21,1,0.6000,0.4750,0,0,180.0*
21,1,0.5750,0.5000,0,0,180.0*
1,1,0.0250,-0.2875,0.2375*
1,1,0.0250,0.2875,0.2375*
1,1,0.0250,0.2875,-0.2375*
1,1,0.0250,-0.2875,-0.2375*
%
%ADD86ROUNDEDRECTD86*%
%ADD87C,0.5000*%
%ADD88C,0.1600*%
%ADD89C,1.5000*%
%ADD90C,1.2000*%
%ADD91C,0.2703*%
%ADD92C,0.2906*%
%ADD93C,1.7000*%
%ADD94R,1.0000X1.0000*%
%ADD95R,1.0000X1.0000*%
%ADD96P,1.4142X4X77.5*%
%ADD97P,1.4142X4X192.5*%
%ADD98C,3.0000*%
%ADD99C,1.6050*%
%ADD100R,1.6050X1.6050*%
%ADD101R,1.6050X1.6050*%
%ADD102C,0.3000*%
%ADD103C,1.5080*%
%ADD104O,0.9000X2.4000*%
%ADD105O,0.9000X1.7000*%
%ADD106C,0.6500*%
%ADD107C,1.0000*%
%ADD108R,1.5080X1.5080*%
%ADD109C,0.4500*%
%ADD110C,0.6000*%
G36*
X522934Y969053D02*
X544823Y967161D01*
X566609Y964327D01*
X588253Y960557D01*
X609714Y955857D01*
X630953Y950236D01*
X651930Y943706D01*
X672606Y936277D01*
X692942Y927964D01*
X712901Y918782D01*
X732446Y908748D01*
X751540Y897881D01*
X770148Y886201D01*
X788235Y873730D01*
X805768Y860491D01*
X822714Y846508D01*
X839041Y831808D01*
X854720Y816418D01*
X869721Y800367D01*
X884016Y783683D01*
X897578Y766399D01*
X910383Y748547D01*
X922407Y730159D01*
X933626Y711270D01*
X944021Y691915D01*
X953573Y672130D01*
X962262Y651952D01*
X970074Y631417D01*
X976993Y610565D01*
X980000Y600000D01*
X980000Y550000D01*
X830000D01*
X830000Y0D01*
X150000D01*
X150000Y550000D01*
X0Y550000D01*
Y600000D01*
X0Y600000D01*
X0Y600000D01*
X3007Y610565D01*
X9926Y631417D01*
X17738Y651952D01*
X26427Y672130D01*
X35979Y691915D01*
X46374Y711270D01*
X57593Y730159D01*
X69617Y748547D01*
X82422Y766399D01*
X95984Y783683D01*
X110279Y800367D01*
X125280Y816418D01*
X140958Y831808D01*
X157286Y846508D01*
X174232Y860491D01*
X191765Y873730D01*
X209852Y886201D01*
X228460Y897881D01*
X247554Y908748D01*
X267099Y918782D01*
X287058Y927963D01*
X307394Y936277D01*
X328070Y943706D01*
X349047Y950236D01*
X370286Y955857D01*
X391747Y960557D01*
X413391Y964327D01*
X435177Y967161D01*
X457066Y969053D01*
X479015Y970000D01*
X500985Y970000D01*
X522934Y969053D01*
D02*
G37*
%LPC*%
G36*
X453291Y955565D02*
X453170D01*
Y946270D01*
X462465D01*
Y946391D01*
X461745Y949078D01*
X460354Y951487D01*
X458387Y953454D01*
X455978Y954845D01*
X453291Y955565D01*
D02*
G37*
G36*
X450630D02*
X450509D01*
X447822Y954845D01*
X445413Y953454D01*
X443446Y951487D01*
X442055Y949078D01*
X441335Y946391D01*
Y946270D01*
X450630D01*
Y955565D01*
D02*
G37*
G36*
X554754Y954525D02*
X552246D01*
X549824Y953876D01*
X547652Y952622D01*
X545878Y950849D01*
X544624Y948677D01*
X543975Y946254D01*
Y943746D01*
X544624Y941324D01*
X545878Y939152D01*
X547652Y937378D01*
X549824Y936124D01*
X552246Y935475D01*
X554754D01*
X557177Y936124D01*
X559349Y937378D01*
X561122Y939152D01*
X562376Y941324D01*
X563025Y943746D01*
Y946254D01*
X562376Y948677D01*
X561122Y950849D01*
X559349Y952622D01*
X557177Y953876D01*
X554754Y954525D01*
D02*
G37*
G36*
X529354D02*
X526846D01*
X524424Y953876D01*
X522252Y952622D01*
X520478Y950849D01*
X519224Y948677D01*
X518575Y946254D01*
Y943746D01*
X519224Y941324D01*
X520478Y939152D01*
X522252Y937378D01*
X524424Y936124D01*
X526846Y935475D01*
X529354D01*
X531777Y936124D01*
X533949Y937378D01*
X535722Y939152D01*
X536976Y941324D01*
X537625Y943746D01*
Y946254D01*
X536976Y948677D01*
X535722Y950849D01*
X533949Y952622D01*
X531777Y953876D01*
X529354Y954525D01*
D02*
G37*
G36*
X503954D02*
X501446D01*
X499024Y953876D01*
X496852Y952622D01*
X495078Y950849D01*
X493824Y948677D01*
X493175Y946254D01*
Y943746D01*
X493824Y941324D01*
X495078Y939152D01*
X496852Y937378D01*
X499024Y936124D01*
X501446Y935475D01*
X503954D01*
X506377Y936124D01*
X508549Y937378D01*
X510322Y939152D01*
X511576Y941324D01*
X512225Y943746D01*
Y946254D01*
X511576Y948677D01*
X510322Y950849D01*
X508549Y952622D01*
X506377Y953876D01*
X503954Y954525D01*
D02*
G37*
G36*
X478554D02*
X476046D01*
X473624Y953876D01*
X471452Y952622D01*
X469678Y950849D01*
X468424Y948677D01*
X467775Y946254D01*
Y943746D01*
X468424Y941324D01*
X469678Y939152D01*
X471452Y937378D01*
X473624Y936124D01*
X476046Y935475D01*
X478554D01*
X480977Y936124D01*
X483149Y937378D01*
X484922Y939152D01*
X486176Y941324D01*
X486825Y943746D01*
Y946254D01*
X486176Y948677D01*
X484922Y950849D01*
X483149Y952622D01*
X480977Y953876D01*
X478554Y954525D01*
D02*
G37*
G36*
X462465Y943730D02*
X453170D01*
Y934435D01*
X453291D01*
X455978Y935155D01*
X458387Y936546D01*
X460354Y938513D01*
X461745Y940922D01*
X462465Y943609D01*
Y943730D01*
D02*
G37*
G36*
X450630D02*
X441335D01*
Y943609D01*
X442055Y940922D01*
X443446Y938513D01*
X445413Y936546D01*
X447822Y935155D01*
X450509Y934435D01*
X450630D01*
Y943730D01*
D02*
G37*
G36*
X436025Y954525D02*
X416975D01*
Y935475D01*
X422422D01*
Y923600D01*
X422422Y923600D01*
X422732Y922039D01*
X423616Y920716D01*
X432086Y912246D01*
X432086Y912246D01*
X433409Y911362D01*
X434970Y911052D01*
X485122D01*
Y813390D01*
X481153Y809421D01*
X423936D01*
X374567Y840872D01*
X364895Y825691D01*
X378668Y816917D01*
X378702Y815390D01*
X377689Y814681D01*
X376335Y813068D01*
X375445Y811159D01*
X375079Y809084D01*
X375263Y806986D01*
X375983Y805006D01*
X377192Y803281D01*
X378805Y801927D01*
X388926Y795479D01*
X390835Y794589D01*
X392909Y794223D01*
X395008Y794407D01*
X396987Y795127D01*
X398713Y796335D01*
X400067Y797949D01*
X400957Y799858D01*
X401171Y801075D01*
X402570Y801690D01*
X416342Y792916D01*
X421660Y801264D01*
X482842D01*
X482842Y801264D01*
X484403Y801574D01*
X485726Y802458D01*
X492084Y808816D01*
X492968Y810139D01*
X493279Y811700D01*
X493279Y811700D01*
Y911052D01*
X551340D01*
X552394Y909998D01*
Y903123D01*
X548139Y900413D01*
X546741Y901028D01*
X546527Y902245D01*
X545637Y904154D01*
X544283Y905768D01*
X542557Y906976D01*
X540578Y907696D01*
X538479Y907880D01*
X536405Y907514D01*
X534496Y906624D01*
X524375Y900176D01*
X522761Y898822D01*
X521553Y897097D01*
X520833Y895117D01*
X520649Y893019D01*
X521015Y890944D01*
X521905Y889035D01*
X523259Y887422D01*
X524271Y886713D01*
X524238Y885186D01*
X510465Y876412D01*
X520137Y861231D01*
X567397Y891339D01*
X646526D01*
X679822Y858043D01*
Y828885D01*
X678552Y828633D01*
X677888Y830235D01*
X676606Y831906D01*
X674935Y833188D01*
X672989Y833994D01*
X670900Y834269D01*
X658900D01*
X656812Y833994D01*
X654866Y833188D01*
X653195Y831906D01*
X651912Y830235D01*
X651106Y828289D01*
X650831Y826200D01*
X651106Y824112D01*
X651579Y822970D01*
X650730Y821700D01*
X634400D01*
Y803700D01*
X695400D01*
Y808622D01*
X738711D01*
X774922Y772411D01*
Y702583D01*
X774922Y702583D01*
X774922Y702583D01*
Y697101D01*
X580560D01*
Y697322D01*
X571560D01*
Y689892D01*
X571560Y688722D01*
X571560Y687452D01*
Y681018D01*
X566398D01*
X566270Y681145D01*
X566267Y682487D01*
X566540Y682632D01*
X566540Y682728D01*
X566540Y682728D01*
Y687902D01*
X560000D01*
Y690442D01*
X566540D01*
Y694799D01*
X567000D01*
X568148Y695274D01*
X568623Y696422D01*
Y746922D01*
X568148Y748071D01*
X567000Y748546D01*
X413000D01*
X411852Y748071D01*
X411376Y746922D01*
Y696422D01*
X411852Y695274D01*
X413000Y694799D01*
X413460D01*
Y690442D01*
X420000D01*
Y687902D01*
X413460D01*
Y682632D01*
Y679942D01*
X420000D01*
Y677402D01*
X413460D01*
Y674132D01*
Y671442D01*
X420000D01*
Y668902D01*
X413460D01*
Y666624D01*
X413460Y666291D01*
X413287Y666161D01*
X412441Y665899D01*
X411463Y666548D01*
X405662Y672349D01*
X404901Y672857D01*
X404004Y673036D01*
X404003Y673036D01*
X402166D01*
X401351Y674305D01*
X401551Y675315D01*
Y675614D01*
X396234D01*
Y678154D01*
X401551D01*
Y678453D01*
X401243Y680003D01*
X400366Y681316D01*
X399052Y682194D01*
X397503Y682502D01*
X396066D01*
X395681Y683772D01*
X395941Y683947D01*
X397430Y685435D01*
X398313Y686758D01*
X398420Y687294D01*
X404060D01*
X405620Y687605D01*
X406944Y688489D01*
X407827Y689812D01*
X408138Y691372D01*
X407827Y692933D01*
X406944Y694256D01*
X405620Y695140D01*
X404060Y695451D01*
X401634D01*
Y722434D01*
X388748D01*
X388450Y722558D01*
X372702D01*
Y723474D01*
X365844D01*
Y707472D01*
Y691470D01*
X367071D01*
X367456Y690200D01*
X366729Y689714D01*
X366729Y689714D01*
X363800Y686785D01*
X362916Y685462D01*
X362605Y683902D01*
X362605Y683901D01*
Y681380D01*
X362384D01*
Y673015D01*
X358262D01*
X358262Y673016D01*
X357364Y672837D01*
X356604Y672329D01*
X356603Y672328D01*
X350747Y666472D01*
X349568D01*
X348190Y665901D01*
X347135Y664847D01*
X346915Y664317D01*
X345645Y664569D01*
Y712829D01*
X355176Y722359D01*
X356446Y721833D01*
Y708742D01*
X363304D01*
Y723474D01*
X358087D01*
X357561Y724744D01*
X389171Y756355D01*
X634400D01*
Y749700D01*
X695400D01*
Y767700D01*
X634400D01*
Y761045D01*
X388200D01*
X387303Y760867D01*
X386542Y760358D01*
X386542Y760358D01*
X341642Y715458D01*
X341134Y714697D01*
X340955Y713800D01*
X340955Y713800D01*
Y655723D01*
X340955Y655723D01*
X341134Y654826D01*
X341642Y654065D01*
X344393Y651314D01*
X345154Y650806D01*
X346051Y650627D01*
X346051Y650627D01*
X356960D01*
Y648672D01*
X365960D01*
Y656102D01*
X365960Y657272D01*
X365960Y658542D01*
Y665225D01*
X368364D01*
X369056Y664195D01*
X369104Y663955D01*
X368902Y662941D01*
Y660403D01*
X369130Y659260D01*
X369342Y658942D01*
X369159Y657292D01*
X369028Y657204D01*
X368150Y655891D01*
X367842Y654342D01*
X373460D01*
Y651802D01*
X367842D01*
X368150Y650254D01*
X369028Y648941D01*
X369515Y648615D01*
X369129Y647345D01*
X356610D01*
X355713Y647167D01*
X354952Y646658D01*
X354311Y646018D01*
X353272D01*
X352438Y646852D01*
X351060Y647422D01*
X349568D01*
X348190Y646852D01*
X347135Y645797D01*
X346564Y644418D01*
Y642926D01*
X347135Y641548D01*
X348190Y640493D01*
X349568Y639922D01*
X351060D01*
X352438Y640493D01*
X353272Y641327D01*
X355282D01*
X355282Y641327D01*
X356180Y641506D01*
X356941Y642014D01*
X357581Y642655D01*
X384522D01*
X384522Y642655D01*
X385420Y642834D01*
X386181Y643342D01*
X387118Y644279D01*
X387118Y644279D01*
X387626Y645040D01*
X387805Y645937D01*
Y648672D01*
X389960D01*
Y656102D01*
X389960Y657272D01*
X389960Y658429D01*
X390858Y659327D01*
X392215D01*
X392963Y658450D01*
X393028Y657204D01*
X392150Y655891D01*
X391842Y654342D01*
X397460D01*
Y651803D01*
X391842D01*
X392150Y650254D01*
X393028Y648941D01*
X393765Y648448D01*
X394028Y646992D01*
X393996Y646882D01*
X393499Y646386D01*
X392901Y644942D01*
X397560D01*
Y642402D01*
X392901D01*
X393162Y641772D01*
X392314Y640502D01*
X373375D01*
X373374Y640502D01*
X373374Y640502D01*
X362397D01*
X361499Y640323D01*
X360739Y639815D01*
X360739Y639815D01*
X359801Y638878D01*
X359293Y638117D01*
X359114Y637220D01*
X358266Y636377D01*
X356960D01*
Y628947D01*
X356960Y627777D01*
X356960Y626620D01*
X356062Y625722D01*
X350911D01*
X275245Y701388D01*
Y740929D01*
X276871Y742555D01*
X350800D01*
X350800Y742555D01*
X351698Y742734D01*
X352458Y743242D01*
X389871Y780655D01*
X481467D01*
X481669Y780695D01*
X481875Y780691D01*
X482113Y780784D01*
X482365Y780834D01*
X482536Y780948D01*
X482727Y781022D01*
X545684Y821130D01*
X549151Y815687D01*
X600598Y848463D01*
X590926Y863644D01*
X539479Y830869D01*
X543164Y825086D01*
X480784Y785345D01*
X388900D01*
X388003Y785167D01*
X387242Y784658D01*
X387242Y784658D01*
X349829Y747245D01*
X275900D01*
X275003Y747067D01*
X274242Y746558D01*
X271242Y743558D01*
X271242Y743558D01*
X270734Y742797D01*
X270555Y741900D01*
Y700416D01*
X270555Y700416D01*
X270734Y699519D01*
X271242Y698758D01*
X348281Y621718D01*
X349042Y621210D01*
X349940Y621032D01*
X356960D01*
Y619077D01*
X365960D01*
Y626507D01*
X365960Y627677D01*
X365960Y628947D01*
Y635812D01*
X368486D01*
X369165Y634542D01*
X369130Y634489D01*
X368902Y633346D01*
Y630808D01*
X369130Y629664D01*
X369342Y629346D01*
X369159Y627697D01*
X369028Y627609D01*
X368150Y626295D01*
X367842Y624747D01*
X373460D01*
Y623477D01*
D01*
Y624747D01*
X379077D01*
X378769Y626295D01*
X377892Y627609D01*
X377760Y627697D01*
X377577Y629346D01*
X377789Y629664D01*
X378017Y630808D01*
Y633346D01*
X377789Y634489D01*
X377755Y634542D01*
X378433Y635812D01*
X380960D01*
Y628997D01*
X380960Y627827D01*
X380960Y626557D01*
Y619127D01*
X383115D01*
Y615417D01*
X339999D01*
X264645Y690771D01*
Y769029D01*
X265871Y770255D01*
X355563D01*
X355563Y770255D01*
X356460Y770434D01*
X357221Y770942D01*
X358158Y771879D01*
X358158Y771879D01*
X358667Y772640D01*
X358845Y773537D01*
Y858891D01*
X380557Y886900D01*
X397154Y876327D01*
X393909Y871234D01*
X445356Y838459D01*
X455028Y853640D01*
X403581Y886415D01*
X399674Y880283D01*
X381281Y892000D01*
X381273Y892003D01*
X381268Y892009D01*
X381260Y892013D01*
X380939Y892136D01*
X380631Y892289D01*
X380517Y892297D01*
X380428Y892332D01*
X380425Y892332D01*
X380405Y892339D01*
X380062Y892329D01*
X379719Y892354D01*
X379608Y892316D01*
X379490Y892313D01*
X379177Y892172D01*
X378851Y892064D01*
X378762Y891987D01*
X378655Y891939D01*
X378419Y891689D01*
X378160Y891464D01*
X354647Y861130D01*
X354507Y860851D01*
X354334Y860591D01*
X354305Y860445D01*
X354238Y860312D01*
X354216Y860000D01*
X354155Y859694D01*
Y774945D01*
X264900D01*
X264900Y774945D01*
X264003Y774767D01*
X263242Y774258D01*
X263242Y774258D01*
X260642Y771658D01*
X260133Y770898D01*
X259955Y770000D01*
X259955Y770000D01*
Y689800D01*
X259955Y689800D01*
X260133Y688903D01*
X260642Y688142D01*
X337370Y611414D01*
X337370Y611414D01*
X338130Y610906D01*
X339028Y610727D01*
X359489D01*
X360015Y609457D01*
X359801Y609243D01*
X359293Y608483D01*
X359114Y607585D01*
X358380Y606572D01*
X356960D01*
Y599142D01*
X356960Y597972D01*
X356960Y596815D01*
X356062Y595917D01*
X340041D01*
X254045Y681913D01*
Y781429D01*
X255972Y783355D01*
X284600D01*
Y776700D01*
X345600D01*
Y794700D01*
X284600D01*
Y788045D01*
X255000D01*
X254103Y787867D01*
X253342Y787358D01*
X253342Y787358D01*
X250042Y784058D01*
X249534Y783298D01*
X249355Y782400D01*
X249355Y782400D01*
Y680942D01*
X249355Y680942D01*
X249534Y680044D01*
X250042Y679284D01*
X337411Y591914D01*
X338172Y591406D01*
X339070Y591227D01*
X356960D01*
Y589272D01*
X365960D01*
Y596702D01*
X365960Y597872D01*
X365960Y599142D01*
Y606177D01*
X368633D01*
X369312Y604907D01*
X369130Y604635D01*
X368902Y603491D01*
Y600953D01*
X369130Y599810D01*
X369342Y599492D01*
X369159Y597842D01*
X369028Y597754D01*
X368150Y596441D01*
X367842Y594892D01*
X373460D01*
Y592352D01*
X367842D01*
X368150Y590804D01*
X369028Y589490D01*
X369736Y589017D01*
X369350Y587747D01*
X307169D01*
X248658Y646258D01*
X247897Y646767D01*
X247000Y646945D01*
X247000Y646945D01*
X174937D01*
X174040Y646767D01*
X173279Y646258D01*
X173279Y646258D01*
X172342Y645321D01*
X171833Y644560D01*
X171655Y643663D01*
X171655Y643663D01*
Y637300D01*
X165000D01*
Y576300D01*
X183000D01*
Y637300D01*
X176345D01*
Y642255D01*
X246029D01*
X304540Y583744D01*
X304540Y583744D01*
X305300Y583236D01*
X306198Y583057D01*
X382600D01*
X383652Y581839D01*
X383652Y581837D01*
X383592Y581531D01*
Y581232D01*
X388909D01*
Y578692D01*
X383592D01*
Y578393D01*
X383900Y576844D01*
X384777Y575530D01*
X385912Y574772D01*
X385882Y574037D01*
X385701Y573502D01*
X383520D01*
Y569232D01*
X388859D01*
Y567962D01*
X390129D01*
Y562422D01*
X394199D01*
X395164Y561686D01*
Y521395D01*
X395164Y521395D01*
X395343Y520497D01*
X395851Y519737D01*
X399515Y516073D01*
Y484772D01*
X397360D01*
Y476172D01*
X396223Y475851D01*
X395559D01*
X394880Y477121D01*
X395169Y477554D01*
X395477Y479102D01*
X389860D01*
X384242D01*
X384550Y477554D01*
X384840Y477121D01*
X384161Y475851D01*
X382258D01*
X381962Y476281D01*
X381696Y477121D01*
X382190Y477860D01*
X382417Y479003D01*
Y481541D01*
X382190Y482685D01*
X381542Y483655D01*
X380572Y484302D01*
X379429Y484530D01*
X378495D01*
X377816Y485800D01*
X377873Y485885D01*
X379429D01*
X380572Y486112D01*
X381542Y486760D01*
X382190Y487730D01*
X382417Y488873D01*
Y491411D01*
X382190Y492555D01*
X381542Y493525D01*
X381311Y493679D01*
Y495206D01*
X381542Y495360D01*
X382190Y496330D01*
X382417Y497473D01*
Y500011D01*
X382190Y501155D01*
X381542Y502124D01*
X380572Y502772D01*
X379429Y503000D01*
X376291D01*
X375147Y502772D01*
X374178Y502124D01*
X373530Y501155D01*
X373505Y501030D01*
X372230Y500996D01*
X371727Y501718D01*
X371603Y501994D01*
X371839Y503185D01*
Y503452D01*
X350940D01*
Y503185D01*
X351177Y501994D01*
X351525Y501472D01*
X351177Y500951D01*
X350940Y499760D01*
Y499492D01*
X361390D01*
Y496952D01*
X350940D01*
Y496685D01*
X351177Y495494D01*
X351851Y494484D01*
X352102Y494316D01*
X352156Y494045D01*
X352000Y493260D01*
Y490185D01*
X352156Y489400D01*
X352503Y488472D01*
X352156Y487545D01*
X352000Y486760D01*
Y483685D01*
X352156Y482900D01*
X352503Y481972D01*
X352156Y481045D01*
X352000Y480260D01*
Y477185D01*
X352156Y476400D01*
X352601Y475734D01*
Y475211D01*
X352156Y474545D01*
X352000Y473760D01*
Y470685D01*
X352156Y469900D01*
X351168Y469520D01*
X351073Y469490D01*
X351072Y469490D01*
X349749Y468606D01*
X349749Y468606D01*
X348803Y467660D01*
X347630Y468146D01*
Y480702D01*
X333960D01*
Y462432D01*
X345461D01*
Y455816D01*
X345461Y455816D01*
X345772Y454255D01*
X345981Y453941D01*
Y437260D01*
X345995Y437191D01*
Y409843D01*
X346253Y407885D01*
X346892Y406342D01*
X346338Y405072D01*
X339060D01*
Y403547D01*
X314163D01*
X311564Y406145D01*
Y426342D01*
Y449672D01*
X311554Y449748D01*
Y455172D01*
X311489Y455665D01*
X312112Y455789D01*
X312778Y456234D01*
X313223Y456900D01*
X313379Y457685D01*
Y460760D01*
X313223Y461545D01*
X313277Y461816D01*
X313528Y461984D01*
X314202Y462994D01*
X314439Y464185D01*
Y464452D01*
X303990D01*
Y466992D01*
X314439D01*
Y467260D01*
X314202Y468451D01*
X314077Y468639D01*
X314661Y470050D01*
X314690Y470056D01*
X315451Y470564D01*
X316576Y471689D01*
X317750Y471203D01*
Y462432D01*
X331420D01*
Y481972D01*
Y501512D01*
X318645D01*
Y515742D01*
X319479Y516576D01*
X320050Y517954D01*
Y519446D01*
X319479Y520824D01*
X318424Y521879D01*
X317046Y522450D01*
X315554D01*
X314176Y521879D01*
X313121Y520824D01*
X312550Y519446D01*
Y517954D01*
X313121Y516576D01*
X313955Y515742D01*
Y508235D01*
X313159Y507881D01*
X312685Y507773D01*
X312112Y508156D01*
X311327Y508312D01*
X306335D01*
Y509801D01*
X306335Y509801D01*
X306156Y510698D01*
X305648Y511459D01*
X305648Y511459D01*
X300965Y516142D01*
Y518774D01*
X301799Y519608D01*
X302370Y520987D01*
Y522478D01*
X301799Y523857D01*
X300744Y524911D01*
X299366Y525482D01*
X297874D01*
X296495Y524911D01*
X295441Y523857D01*
X294870Y522478D01*
Y520987D01*
X295441Y519608D01*
X296275Y518774D01*
Y515171D01*
X296275Y515171D01*
X296453Y514273D01*
X296961Y513513D01*
X300892Y509582D01*
X300366Y508312D01*
X296652D01*
X295867Y508156D01*
X295201Y507711D01*
X293793Y507890D01*
X293572Y508056D01*
Y523784D01*
X298010Y528222D01*
X299366D01*
X300744Y528793D01*
X301799Y529848D01*
X302370Y531227D01*
Y532718D01*
X301799Y534097D01*
X300744Y535151D01*
X299366Y535722D01*
X297874D01*
X296795Y535276D01*
X296076Y536352D01*
X298186Y538462D01*
X299366D01*
X300744Y539033D01*
X301799Y540088D01*
X302370Y541466D01*
Y542958D01*
X301799Y544337D01*
X300744Y545391D01*
X299366Y545962D01*
X297874D01*
X296495Y545391D01*
X295441Y544337D01*
X294870Y542958D01*
Y541779D01*
X277521Y524431D01*
X277013Y523670D01*
X276835Y522772D01*
X276835Y522772D01*
Y497943D01*
X276835Y497942D01*
X277013Y497045D01*
X277521Y496284D01*
X279063Y494742D01*
X278537Y493472D01*
X274410D01*
Y484651D01*
X262278D01*
Y563400D01*
Y622000D01*
X261968Y623561D01*
X261084Y624884D01*
X259761Y625768D01*
X258200Y626078D01*
X256639Y625768D01*
X255316Y624884D01*
X254432Y623561D01*
X254122Y622000D01*
Y567478D01*
X124078D01*
Y576300D01*
X129000D01*
Y637300D01*
X111000D01*
Y620970D01*
X109730Y620121D01*
X108588Y620594D01*
X106500Y620869D01*
X104412Y620594D01*
X102466Y619788D01*
X100794Y618506D01*
X99512Y616835D01*
X98706Y614889D01*
X98431Y612800D01*
Y600800D01*
X98706Y598712D01*
X99512Y596766D01*
X100794Y595095D01*
X102466Y593812D01*
X104412Y593006D01*
X106500Y592731D01*
X108588Y593006D01*
X109730Y593479D01*
X111000Y592631D01*
Y576300D01*
X115922D01*
Y567478D01*
X88289D01*
X84525Y571243D01*
Y584525D01*
X65475D01*
Y565475D01*
X78757D01*
X83716Y560516D01*
X83716Y560516D01*
X85039Y559632D01*
X86600Y559322D01*
X119959D01*
X119959Y559322D01*
X119959Y559322D01*
X254122D01*
Y480572D01*
Y364429D01*
X254122Y364429D01*
X254432Y362868D01*
X255316Y361545D01*
X258245Y358616D01*
X258245Y358616D01*
X259568Y357732D01*
X261129Y357422D01*
X595822D01*
Y76418D01*
X595282Y75879D01*
X564603D01*
X563042Y75568D01*
X561719Y74684D01*
X561719Y74684D01*
X556616Y69581D01*
X555732Y68258D01*
X555422Y66697D01*
X555422Y66697D01*
Y56996D01*
X555000D01*
Y49566D01*
X555000Y48396D01*
X555000Y47126D01*
Y39696D01*
X557155D01*
Y36900D01*
X553960D01*
Y25900D01*
X564960D01*
Y36900D01*
X561845D01*
Y39696D01*
X564000D01*
Y47126D01*
X564000Y48296D01*
X564000Y49566D01*
Y56996D01*
X563578D01*
Y65008D01*
X566292Y67722D01*
X596971D01*
X596971Y67722D01*
X598532Y68032D01*
X599855Y68916D01*
X602784Y71845D01*
X602784Y71845D01*
X603668Y73168D01*
X603978Y74729D01*
Y357515D01*
X605071Y357732D01*
X606395Y358616D01*
X606920Y359402D01*
X609323Y361806D01*
X609323Y361806D01*
X610207Y363129D01*
X610518Y364690D01*
X610518Y364690D01*
Y373689D01*
X610518Y373689D01*
Y386151D01*
X610940Y386572D01*
X611940D01*
X612210Y386572D01*
X620670D01*
X620940Y386572D01*
X621940D01*
X622210Y386572D01*
X630900D01*
Y385532D01*
X635170D01*
Y395822D01*
Y406112D01*
X630900D01*
Y405072D01*
X628785D01*
Y407464D01*
X629609Y408288D01*
X630180Y409666D01*
Y411158D01*
X629609Y412537D01*
X628554Y413591D01*
X627175Y414162D01*
X625684D01*
X624305Y413591D01*
X623251Y412537D01*
X622680Y411158D01*
Y409666D01*
X623251Y408288D01*
X624095Y407444D01*
Y405072D01*
X622210D01*
X621940Y405072D01*
X620940D01*
X620670Y405072D01*
X618785D01*
Y407414D01*
X619659Y408288D01*
X620230Y409666D01*
Y411158D01*
X619659Y412537D01*
X618604Y413591D01*
X617225Y414162D01*
X615734D01*
X614355Y413591D01*
X613301Y412537D01*
X612730Y411158D01*
Y409666D01*
X613301Y408288D01*
X614095Y407494D01*
Y405072D01*
X612210D01*
X611940Y405072D01*
X610940D01*
X610670Y405072D01*
X603441D01*
X602880Y406211D01*
X602991Y406356D01*
X603747Y408181D01*
X604004Y410139D01*
Y414100D01*
X606603Y416698D01*
X618360D01*
X620317Y416955D01*
X622142Y417711D01*
X623709Y418913D01*
X645103Y440308D01*
X656360D01*
X658317Y440565D01*
X660142Y441321D01*
X661709Y442523D01*
X662911Y444090D01*
X663667Y445914D01*
X663670Y445941D01*
X663917Y446312D01*
X664228Y447872D01*
Y455848D01*
X664622Y456140D01*
X664699Y456163D01*
X666267Y455790D01*
X666471Y455484D01*
X667481Y454809D01*
X668672Y454573D01*
X674740D01*
Y459222D01*
X676010D01*
Y460492D01*
X686459D01*
Y460760D01*
X686223Y461951D01*
X685548Y462961D01*
X685297Y463128D01*
X685243Y463400D01*
X685399Y464185D01*
Y467260D01*
X686518Y468144D01*
X687796D01*
X688633Y467189D01*
X688473Y465972D01*
Y412596D01*
Y278150D01*
X640078Y229755D01*
X638475Y227666D01*
X637467Y225233D01*
X637123Y222622D01*
Y110400D01*
X609328Y82605D01*
X607725Y80515D01*
X606717Y78083D01*
X606373Y75472D01*
Y56346D01*
X601498D01*
Y43461D01*
X601374Y43162D01*
Y27414D01*
X600458D01*
Y20556D01*
X616460D01*
X632462D01*
Y27414D01*
X631545D01*
Y43162D01*
X631422Y43461D01*
Y56346D01*
X626546D01*
Y71294D01*
X635950Y80699D01*
X637123Y80213D01*
Y58824D01*
X637049Y58809D01*
X636404Y58378D01*
X635973Y57733D01*
X635821Y56972D01*
Y51872D01*
X635973Y51111D01*
X636404Y50466D01*
X637049Y50036D01*
X637123Y50021D01*
Y46124D01*
X637049Y46109D01*
X636404Y45678D01*
X635973Y45033D01*
X635821Y44272D01*
Y39172D01*
X635973Y38412D01*
X636404Y37766D01*
X637049Y37336D01*
X637123Y37321D01*
Y34772D01*
X637296Y33458D01*
X637049Y33409D01*
X636404Y32978D01*
X635973Y32333D01*
X635821Y31572D01*
Y26472D01*
X635973Y25712D01*
X636404Y25066D01*
X637049Y24636D01*
X637810Y24484D01*
X656610D01*
X657371Y24636D01*
X658016Y25066D01*
X658447Y25712D01*
X658598Y26472D01*
Y31572D01*
X658447Y32333D01*
X658016Y32978D01*
X657371Y33409D01*
X657123Y33458D01*
X657296Y34772D01*
Y37321D01*
X657371Y37336D01*
X658016Y37766D01*
X658447Y38412D01*
X658598Y39172D01*
Y44272D01*
X658447Y45033D01*
X658016Y45678D01*
X657371Y46109D01*
X657296Y46124D01*
Y50021D01*
X657371Y50036D01*
X658016Y50466D01*
X658447Y51111D01*
X658598Y51872D01*
Y56972D01*
X658447Y57733D01*
X658016Y58378D01*
X657371Y58809D01*
X657296Y58824D01*
Y63468D01*
X658566Y64147D01*
X658841Y63963D01*
X660390Y63655D01*
Y69272D01*
X661660D01*
Y70542D01*
X666977D01*
Y70841D01*
X666669Y72391D01*
X665792Y73704D01*
X664673Y74452D01*
X664732Y75296D01*
X664884Y75722D01*
X707271D01*
X708832Y76032D01*
X710155Y76916D01*
X711039Y78239D01*
X711190Y78999D01*
X712460Y78874D01*
Y73992D01*
X711684Y73355D01*
X711684Y73355D01*
X704410D01*
Y73776D01*
X696980D01*
X695810Y73776D01*
X694540Y73776D01*
X687110D01*
Y71817D01*
X679918D01*
X679084Y72652D01*
X677706Y73222D01*
X676214D01*
X674836Y72652D01*
X673781Y71597D01*
X673210Y70218D01*
Y68727D01*
X673781Y67348D01*
X674836Y66293D01*
X676214Y65722D01*
X677706D01*
X679084Y66293D01*
X679918Y67127D01*
X687110D01*
Y64776D01*
X687858D01*
X689064Y64727D01*
X689243Y63829D01*
X689751Y63069D01*
X692686Y60134D01*
X692200Y58961D01*
X687310D01*
X686549Y58809D01*
X685904Y58378D01*
X685473Y57733D01*
X685321Y56972D01*
Y51872D01*
X685473Y51111D01*
X685904Y50466D01*
X686549Y50036D01*
X687310Y49884D01*
X706110D01*
X706870Y50036D01*
X707515Y50466D01*
X707946Y51111D01*
X708098Y51872D01*
Y56972D01*
X707946Y57733D01*
X707515Y58378D01*
X706870Y58809D01*
X706110Y58961D01*
X699055D01*
Y59427D01*
X698876Y60324D01*
X698368Y61085D01*
X698368Y61085D01*
X695946Y63506D01*
X696472Y64776D01*
X696980Y64776D01*
X704410D01*
Y65198D01*
X709995D01*
X710535Y64658D01*
Y45058D01*
X710435Y44959D01*
X707961D01*
X707946Y45033D01*
X707515Y45678D01*
X706870Y46109D01*
X706110Y46261D01*
X697075D01*
X696710Y46309D01*
X696345Y46261D01*
X687310D01*
X686549Y46109D01*
X685904Y45678D01*
X685473Y45033D01*
X685321Y44272D01*
Y39172D01*
X685473Y38412D01*
X685904Y37766D01*
X686549Y37336D01*
X686764Y37293D01*
X686623Y36222D01*
Y33424D01*
X686549Y33409D01*
X685904Y32978D01*
X685473Y32333D01*
X685321Y31572D01*
Y26472D01*
X685473Y25712D01*
X685904Y25066D01*
X686549Y24636D01*
X686623Y24621D01*
Y20724D01*
X686549Y20709D01*
X685904Y20278D01*
X685473Y19633D01*
X685321Y18872D01*
Y13772D01*
X685473Y13011D01*
X685904Y12366D01*
X686549Y11935D01*
X687310Y11784D01*
X687766D01*
X687975Y11279D01*
X689577Y9190D01*
X691666Y7587D01*
X694099Y6580D01*
X696710Y6236D01*
X699320Y6580D01*
X701753Y7587D01*
X703842Y9190D01*
X705445Y11279D01*
X705654Y11784D01*
X706110D01*
X706870Y11935D01*
X707515Y12366D01*
X707946Y13011D01*
X708098Y13772D01*
Y18872D01*
X707946Y19633D01*
X707515Y20278D01*
X706870Y20709D01*
X706796Y20724D01*
Y24621D01*
X706870Y24636D01*
X707096Y24786D01*
X714613D01*
X717224Y25130D01*
X719656Y26137D01*
X721745Y27740D01*
X728269Y34264D01*
X737500D01*
X740111Y34608D01*
X741807Y35310D01*
X746540D01*
Y40043D01*
X747243Y41740D01*
X747586Y44350D01*
X747243Y46961D01*
X746540Y48657D01*
Y53390D01*
X741807D01*
X740111Y54093D01*
X737500Y54436D01*
X724091D01*
X721480Y54093D01*
X719961Y53464D01*
X718691Y54312D01*
Y66347D01*
X718381Y67908D01*
X717497Y69231D01*
X717497Y69231D01*
X715038Y71690D01*
X715564Y72960D01*
X717730D01*
Y79500D01*
X719000D01*
Y80770D01*
X725540D01*
Y85522D01*
X727446D01*
X728500Y85000D01*
X728500Y84252D01*
Y74000D01*
X739500D01*
Y77110D01*
X742580D01*
Y74956D01*
X750010D01*
X751180Y74955D01*
X752450Y74956D01*
X759880D01*
Y83955D01*
X759658D01*
Y86671D01*
X759348Y88232D01*
X758464Y89555D01*
X758463Y89555D01*
X755535Y92484D01*
X754211Y93368D01*
X752651Y93679D01*
X752651Y93679D01*
X710200D01*
X708639Y93368D01*
X707316Y92484D01*
X707316Y92484D01*
X704387Y89555D01*
X703503Y88232D01*
X703193Y86671D01*
X703193Y86671D01*
Y83878D01*
X657296D01*
Y106222D01*
Y218445D01*
X705692Y266840D01*
X707295Y268929D01*
X708302Y271362D01*
X708646Y273972D01*
Y408518D01*
X731283D01*
X731283Y408518D01*
X732844Y408828D01*
X734167Y409712D01*
X767143Y442688D01*
X767143Y442688D01*
X768027Y444012D01*
X768338Y445572D01*
X768338Y445573D01*
Y524772D01*
X768027Y526333D01*
X767143Y527656D01*
X765820Y528540D01*
X764260Y528851D01*
X760565D01*
X760261Y529378D01*
X758865Y530774D01*
X757154Y531761D01*
X755247Y532272D01*
X753272D01*
X751365Y531761D01*
X749654Y530774D01*
X748258Y529378D01*
X747271Y527667D01*
X746760Y525760D01*
Y523785D01*
X747271Y521878D01*
X748258Y520167D01*
X749654Y518771D01*
X751365Y517784D01*
X753272Y517272D01*
X755247D01*
X757154Y517784D01*
X758865Y518771D01*
X759008Y518914D01*
X760181Y518428D01*
Y447262D01*
X729594Y416674D01*
X708646D01*
Y425817D01*
X709788Y426510D01*
X713500D01*
Y425593D01*
X720358D01*
Y435372D01*
X721628D01*
D01*
X720358D01*
Y445151D01*
X713500D01*
Y444235D01*
X709788D01*
X708646Y444927D01*
Y446602D01*
X709916Y447281D01*
X710541Y446863D01*
X712090Y446555D01*
Y452172D01*
Y457790D01*
X710541Y457482D01*
X709916Y457064D01*
X708646Y457743D01*
Y460197D01*
X709916Y460582D01*
X709977Y460490D01*
X710947Y459842D01*
X712091Y459615D01*
X714629D01*
X715772Y459842D01*
X716742Y460490D01*
X717390Y461460D01*
X717617Y462603D01*
Y465741D01*
X717390Y466885D01*
X716742Y467854D01*
X715772Y468502D01*
X715705Y468516D01*
Y471672D01*
X715705Y471672D01*
X715526Y472570D01*
X715018Y473331D01*
X715018Y473331D01*
X707968Y480381D01*
X707207Y480889D01*
X706310Y481068D01*
X706310Y481067D01*
X685825D01*
X685248Y482300D01*
X685802Y482877D01*
X687260D01*
X687260Y482877D01*
X688157Y483056D01*
X688918Y483564D01*
X691247Y485894D01*
X691291Y485885D01*
X694429D01*
X695572Y486112D01*
X696542Y486760D01*
X697190Y487730D01*
X697417Y488873D01*
Y491411D01*
X697190Y492555D01*
X696542Y493525D01*
X696311Y493679D01*
Y495206D01*
X696542Y495360D01*
X697190Y496330D01*
X697417Y497473D01*
Y500011D01*
X697190Y501155D01*
X696542Y502124D01*
X695572Y502772D01*
X694429Y503000D01*
X691291D01*
X690147Y502772D01*
X689177Y502124D01*
X688530Y501155D01*
X688462Y500814D01*
X688017D01*
X687562Y500724D01*
X686969Y500825D01*
X686347Y501718D01*
X686223Y501994D01*
X686459Y503185D01*
Y503452D01*
X665560D01*
Y503185D01*
X665797Y501994D01*
X666145Y501472D01*
X665797Y500951D01*
X665560Y499760D01*
Y499492D01*
X676010D01*
Y496952D01*
X665560D01*
Y496685D01*
X665797Y495494D01*
X666471Y494484D01*
X666722Y494316D01*
X666776Y494045D01*
X666620Y493260D01*
Y490185D01*
X666776Y489400D01*
X667221Y488734D01*
Y488211D01*
X666776Y487545D01*
X666620Y486760D01*
Y483685D01*
X666776Y482900D01*
X667221Y482234D01*
Y481711D01*
X666776Y481045D01*
X666620Y480260D01*
Y477185D01*
X666776Y476400D01*
X667123Y475472D01*
X666776Y474545D01*
X666620Y473760D01*
Y470685D01*
X666776Y469900D01*
X665661Y469495D01*
X665639Y469490D01*
X664316Y468606D01*
X664316Y468606D01*
X663423Y467713D01*
X662250Y468199D01*
Y480702D01*
X648580D01*
Y462432D01*
X656465D01*
X657003Y461162D01*
X656382Y460233D01*
X656071Y458672D01*
X656071Y458672D01*
Y455437D01*
X641970D01*
X641970Y455437D01*
X640012Y455179D01*
X638187Y454424D01*
X636620Y453221D01*
X636620Y453221D01*
X615226Y431827D01*
X603469D01*
X603469Y431827D01*
X601511Y431569D01*
X599687Y430814D01*
X598120Y429612D01*
X598120Y429611D01*
X591091Y422582D01*
X589888Y421015D01*
X589133Y419191D01*
X588875Y417233D01*
Y410139D01*
X589133Y408181D01*
X589888Y406356D01*
X590000Y406211D01*
X589438Y405072D01*
X581940D01*
Y403547D01*
X566563D01*
X563965Y406145D01*
Y433359D01*
X566563Y435958D01*
X612390D01*
X614347Y436215D01*
X616172Y436971D01*
X617739Y438173D01*
X623959Y444393D01*
X625161Y445960D01*
X625917Y447785D01*
X626174Y449742D01*
Y454572D01*
X626032Y455650D01*
X626732Y455789D01*
X627398Y456234D01*
X627843Y456900D01*
X627999Y457685D01*
Y460760D01*
X627843Y461545D01*
X627897Y461816D01*
X628148Y461984D01*
X628823Y462994D01*
X629059Y464185D01*
Y464452D01*
X618610D01*
Y466992D01*
X629059D01*
Y467260D01*
X628823Y468451D01*
X628148Y469461D01*
X627897Y469628D01*
X627843Y469900D01*
X627999Y470685D01*
Y473760D01*
X627843Y474545D01*
X627496Y475472D01*
X627843Y476400D01*
X627999Y477185D01*
Y480260D01*
X627843Y481045D01*
X627398Y481711D01*
Y482234D01*
X627843Y482900D01*
X627999Y483685D01*
Y486760D01*
X627843Y487545D01*
X627496Y488472D01*
X627843Y489400D01*
X627999Y490185D01*
Y493260D01*
X627843Y494045D01*
X627398Y494711D01*
Y495234D01*
X627843Y495900D01*
X627999Y496685D01*
Y499760D01*
X627843Y500545D01*
X627496Y501472D01*
X627843Y502400D01*
X627999Y503185D01*
Y506260D01*
X627843Y507045D01*
X627398Y507711D01*
X626732Y508156D01*
X625947Y508312D01*
X613205D01*
X604245Y517271D01*
Y607700D01*
X604067Y608598D01*
X603558Y609358D01*
X600586Y612331D01*
X599825Y612839D01*
X598928Y613018D01*
X598928Y613017D01*
X565500D01*
Y614172D01*
X554500D01*
Y607172D01*
X565500D01*
Y608327D01*
X597957D01*
X599555Y606729D01*
Y516300D01*
X599555Y516300D01*
X599734Y515403D01*
X600242Y514642D01*
X609220Y505664D01*
Y503185D01*
X609282Y502872D01*
X608112Y502246D01*
X596873Y513485D01*
Y592305D01*
X596694Y593203D01*
X596186Y593963D01*
X596186Y593963D01*
X594819Y595331D01*
X594058Y595839D01*
X593161Y596017D01*
X593161Y596017D01*
X565500D01*
Y597172D01*
X554500D01*
Y590172D01*
X565500D01*
Y591327D01*
X592183D01*
Y581254D01*
X590913Y581002D01*
X590779Y581324D01*
X589724Y582379D01*
X588346Y582950D01*
X587166D01*
X583286Y586831D01*
X582525Y587339D01*
X581628Y587518D01*
X581628Y587517D01*
X565500D01*
Y588672D01*
X554500D01*
Y581672D01*
X565500D01*
Y582827D01*
X580657D01*
X583850Y579634D01*
Y578454D01*
X584421Y577076D01*
X585476Y576021D01*
X586854Y575450D01*
X588346D01*
X589724Y576021D01*
X590779Y577076D01*
X590913Y577398D01*
X592183Y577146D01*
Y512514D01*
X592183Y512514D01*
X592361Y511617D01*
X592870Y510856D01*
X593618Y510107D01*
X593092Y508837D01*
X584768D01*
X583934Y509671D01*
X582556Y510242D01*
X581064D01*
X579685Y509671D01*
X578928Y508914D01*
X575548Y512295D01*
X575980Y513338D01*
X575979D01*
Y520998D01*
X577020D01*
Y525067D01*
X571479D01*
X565940D01*
Y520998D01*
X566980D01*
Y514505D01*
X565710Y513979D01*
X564968Y514721D01*
X564207Y515229D01*
X563310Y515407D01*
X563310Y515407D01*
X474351D01*
X471625Y518134D01*
Y519764D01*
X472895Y520493D01*
X474091Y520255D01*
X474390D01*
Y525572D01*
X475660D01*
Y526842D01*
X481277D01*
X480969Y528391D01*
X480092Y529704D01*
X479960Y529792D01*
X479777Y531442D01*
X479990Y531760D01*
X480217Y532903D01*
Y535441D01*
X479990Y536585D01*
X479342Y537555D01*
X478372Y538202D01*
X478005Y538275D01*
Y538372D01*
X477826Y539270D01*
X477318Y540031D01*
X475345Y542004D01*
Y543672D01*
X476500D01*
Y554672D01*
X469500D01*
Y543672D01*
X470655D01*
Y541032D01*
X470654Y541032D01*
X470833Y540135D01*
X471341Y539374D01*
X472084Y538632D01*
X471977Y537555D01*
X471330Y536585D01*
X471316Y536517D01*
X470217D01*
X469319Y536339D01*
X468714Y535934D01*
X468099Y536041D01*
X467327Y536395D01*
X467290Y536585D01*
X466872Y537211D01*
X466642Y537555D01*
X466555Y537680D01*
X466158Y538254D01*
X466666Y539015D01*
X466845Y539912D01*
X466845Y539912D01*
Y543672D01*
X468000D01*
Y554672D01*
X461000D01*
Y543672D01*
X462155D01*
Y540884D01*
X461301Y540031D01*
X460793Y539270D01*
X460615Y538372D01*
X460247Y538202D01*
X459277Y537555D01*
X458630Y536585D01*
X458616Y536517D01*
X457854D01*
X456956Y536339D01*
X456196Y535831D01*
X456196Y535830D01*
X451695Y531329D01*
X450618Y532049D01*
X450650Y532127D01*
Y533618D01*
X450528Y533912D01*
X457658Y541041D01*
X458166Y541802D01*
X458345Y542700D01*
Y543672D01*
X459500D01*
Y554672D01*
X452500D01*
Y543672D01*
X452500D01*
X452419Y542436D01*
X446606Y536622D01*
X446154D01*
X444776Y536051D01*
X443721Y534997D01*
X443150Y533618D01*
Y532127D01*
X443721Y530748D01*
X444776Y529693D01*
X446154Y529122D01*
X447646D01*
X449024Y529693D01*
X449406Y530075D01*
X450577Y529450D01*
X450524Y529188D01*
X450524Y529188D01*
Y524691D01*
X449691Y523857D01*
X449120Y522478D01*
Y520987D01*
X449691Y519608D01*
X450745Y518553D01*
X452124Y517982D01*
X453615D01*
X454994Y518553D01*
X456049Y519608D01*
X456620Y520987D01*
Y522010D01*
X457890Y522395D01*
X458528Y521440D01*
X459841Y520563D01*
X461391Y520255D01*
X461690D01*
Y525572D01*
X464230D01*
Y520255D01*
X464529D01*
X465664Y520480D01*
X466935Y519724D01*
Y517163D01*
X466935Y517162D01*
X467113Y516265D01*
X467621Y515504D01*
X471721Y511404D01*
X472482Y510896D01*
X473380Y510717D01*
X562338D01*
X567365Y505691D01*
Y501030D01*
X566095Y500471D01*
X565005Y500922D01*
X563514D01*
X562419Y500469D01*
X562107Y500362D01*
X560812Y500824D01*
X560261Y501777D01*
X558865Y503174D01*
X557155Y504161D01*
X555247Y504672D01*
X553272D01*
X551365Y504161D01*
X549655Y503174D01*
X548258Y501777D01*
X547378Y500253D01*
X546661Y500001D01*
X545916Y499919D01*
X545534Y500301D01*
X544156Y500872D01*
X542664D01*
X541286Y500301D01*
X541087Y500103D01*
X540639Y500091D01*
X539589Y500401D01*
X538794Y501777D01*
X537398Y503174D01*
X535688Y504161D01*
X533780Y504672D01*
X531805D01*
X529898Y504161D01*
X528188Y503174D01*
X526791Y501777D01*
X525804Y500067D01*
X525709Y499711D01*
X525171Y499526D01*
X524330Y499472D01*
X523451Y500351D01*
X522072Y500922D01*
X520580D01*
X519486Y500469D01*
X519173Y500362D01*
X517878Y500824D01*
X517328Y501777D01*
X515931Y503174D01*
X514221Y504161D01*
X512314Y504672D01*
X510339D01*
X508431Y504161D01*
X506721Y503174D01*
X505325Y501777D01*
X504337Y500067D01*
X504242Y499711D01*
X503704Y499526D01*
X502863Y499472D01*
X501984Y500351D01*
X500606Y500922D01*
X499114D01*
X498019Y500469D01*
X497707Y500362D01*
X496412Y500824D01*
X495861Y501777D01*
X494465Y503174D01*
X492755Y504161D01*
X490847Y504672D01*
X488872D01*
X486965Y504161D01*
X485255Y503174D01*
X483858Y501777D01*
X482871Y500067D01*
X482360Y498160D01*
Y496185D01*
X482871Y494277D01*
X483858Y492567D01*
X485255Y491171D01*
X486965Y490183D01*
X488872Y489672D01*
X490847D01*
X492755Y490183D01*
X494465Y491171D01*
X495861Y492567D01*
X496412Y493521D01*
X497707Y493983D01*
X498019Y493876D01*
X499114Y493422D01*
X500606D01*
X501984Y493993D01*
X502863Y494873D01*
X503704Y494819D01*
X504242Y494634D01*
X504337Y494277D01*
X505325Y492567D01*
X506721Y491171D01*
X508431Y490183D01*
X510339Y489672D01*
X512314D01*
X514221Y490183D01*
X515931Y491171D01*
X517328Y492567D01*
X517878Y493521D01*
X519173Y493983D01*
X519486Y493876D01*
X520580Y493422D01*
X522072D01*
X523451Y493993D01*
X524330Y494873D01*
X525171Y494819D01*
X525709Y494634D01*
X525804Y494277D01*
X526791Y492567D01*
X528188Y491171D01*
X529898Y490183D01*
X531805Y489672D01*
X533780D01*
X535688Y490183D01*
X537398Y491171D01*
X538794Y492567D01*
X539553Y493881D01*
X540706Y494195D01*
X541066Y494163D01*
X541286Y493943D01*
X542664Y493372D01*
X544156D01*
X545534Y493943D01*
X545937Y494347D01*
X546537Y494316D01*
X547415Y494028D01*
X548258Y492567D01*
X549655Y491171D01*
X551365Y490183D01*
X553272Y489672D01*
X555247D01*
X557155Y490183D01*
X558865Y491171D01*
X560261Y492567D01*
X560812Y493521D01*
X562107Y493983D01*
X562419Y493876D01*
X563514Y493422D01*
X565005D01*
X566095Y493873D01*
X567365Y493315D01*
Y474123D01*
X567365Y474122D01*
X567543Y473225D01*
X568051Y472464D01*
X570051Y470464D01*
X570812Y469956D01*
X571710Y469777D01*
X583674D01*
X584290Y468762D01*
Y464692D01*
X589829D01*
Y463422D01*
X591100D01*
Y458082D01*
X595370D01*
Y460264D01*
X595904Y460445D01*
X596640Y460475D01*
X597398Y459341D01*
X598711Y458463D01*
X600261Y458155D01*
X600560D01*
Y463472D01*
X603100D01*
Y458155D01*
X603399D01*
X604948Y458463D01*
X606262Y459341D01*
X607139Y460654D01*
X607333Y461629D01*
X608642Y462097D01*
X609367Y461552D01*
X609376Y461542D01*
X609220Y460760D01*
Y457685D01*
X609376Y456900D01*
X609821Y456234D01*
X610487Y455789D01*
X611187Y455650D01*
X611045Y454572D01*
Y452876D01*
X609256Y451087D01*
X563430D01*
X563430Y451087D01*
X561472Y450829D01*
X560960Y450617D01*
X559690Y451466D01*
Y452153D01*
X558961Y453913D01*
X557613Y455261D01*
X555853Y455990D01*
X555824D01*
X555333Y457260D01*
X555859Y458530D01*
X546541D01*
X547139Y457087D01*
X548487Y455739D01*
X550247Y455010D01*
X550277D01*
X550768Y453740D01*
X550242Y452470D01*
X554900D01*
Y449930D01*
X550242D01*
X550839Y448487D01*
X552187Y447139D01*
X553947Y446410D01*
X553960D01*
X554446Y445237D01*
X551051Y441842D01*
X549849Y440275D01*
X549093Y438451D01*
X548835Y436493D01*
Y435626D01*
X547565Y434778D01*
X547370Y434859D01*
Y430200D01*
Y425541D01*
X547565Y425622D01*
X548779Y424812D01*
Y423589D01*
X547565Y422778D01*
X547370Y422859D01*
Y418200D01*
Y413541D01*
X547565Y413622D01*
X548835Y412774D01*
Y403012D01*
X549093Y401054D01*
X549849Y399230D01*
X551051Y397663D01*
X558080Y390633D01*
X558080Y390633D01*
X559647Y389431D01*
X561472Y388675D01*
X563430Y388418D01*
X563430Y388418D01*
X581940D01*
Y386572D01*
X582322D01*
Y380100D01*
X582632Y378539D01*
X583516Y377216D01*
X584839Y376332D01*
X586400Y376022D01*
X587961Y376332D01*
X589284Y377216D01*
X590168Y378539D01*
X590478Y380100D01*
Y385424D01*
X590575Y385513D01*
X591990Y385798D01*
X592361Y385477D01*
Y380161D01*
X592361Y380161D01*
X592672Y378600D01*
X593556Y377277D01*
X593616Y377216D01*
X594939Y376332D01*
X596500Y376022D01*
X598061Y376332D01*
X599384Y377216D01*
X600268Y378539D01*
X600578Y380100D01*
X600518Y380404D01*
Y385390D01*
X600645Y385504D01*
X601999Y385789D01*
X602361Y385477D01*
Y373689D01*
X602361Y373689D01*
X602361Y373689D01*
Y366379D01*
X601561Y365578D01*
X535909D01*
X535383Y366848D01*
X536097Y367562D01*
X536870Y369430D01*
X525930D01*
X526703Y367562D01*
X527417Y366848D01*
X526891Y365578D01*
X463978D01*
X463452Y366848D01*
X463679Y367076D01*
X464250Y368454D01*
Y369946D01*
X463679Y371324D01*
X462845Y372158D01*
Y395300D01*
X462845Y395300D01*
X462667Y396198D01*
X462158Y396958D01*
X456145Y402971D01*
Y405542D01*
X456979Y406376D01*
X458123Y406603D01*
X458587Y406139D01*
X460030Y405541D01*
Y410200D01*
X461300D01*
Y411470D01*
X465959D01*
X465361Y412913D01*
X464013Y414261D01*
X462612Y414841D01*
X462137Y416163D01*
X462261Y416287D01*
X462859Y417730D01*
X458200D01*
Y420270D01*
X462859D01*
X462261Y421713D01*
X461429Y422545D01*
X461955Y423815D01*
X464029D01*
X465172Y424043D01*
X466142Y424690D01*
X466790Y425660D01*
X467861Y425727D01*
X468758Y425906D01*
X469519Y426414D01*
X470831Y427726D01*
X472205D01*
X472385Y427691D01*
X478135D01*
X478769Y427817D01*
X479306Y428176D01*
X479665Y428713D01*
X479944Y428900D01*
X480060Y428877D01*
X484490D01*
Y441472D01*
X487030D01*
Y428877D01*
X491460D01*
X491681Y428695D01*
Y420730D01*
X488930D01*
X488632Y420854D01*
X484920D01*
Y421770D01*
X478062D01*
Y411991D01*
Y402212D01*
X484920D01*
Y403129D01*
X488632D01*
X488930Y403252D01*
X490455D01*
X490739Y402566D01*
X492342Y400477D01*
X508279Y384540D01*
X510368Y382937D01*
X512800Y381930D01*
X515411Y381586D01*
X530800D01*
X531560Y381486D01*
X534170Y381830D01*
X536603Y382837D01*
X538692Y384440D01*
X540295Y386529D01*
X541302Y388962D01*
X541646Y391572D01*
X541302Y394183D01*
X540295Y396615D01*
X538692Y398704D01*
X538592Y398805D01*
X536503Y400407D01*
X534070Y401415D01*
X531460Y401759D01*
X519589D01*
X513162Y408185D01*
X513648Y409358D01*
X523490D01*
Y416216D01*
X508758D01*
Y414249D01*
X507584Y413763D01*
X506606Y414741D01*
X504517Y416344D01*
X502084Y417352D01*
X501816Y417387D01*
Y420730D01*
X499838D01*
Y427863D01*
X500306Y428176D01*
X500665Y428713D01*
X500791Y429347D01*
Y434097D01*
X500665Y434731D01*
X500504Y434972D01*
X500665Y435213D01*
X500791Y435847D01*
Y440249D01*
X501056Y440426D01*
X501645Y441308D01*
X501852Y442347D01*
Y443452D01*
X496260D01*
Y445993D01*
X501852D01*
Y447097D01*
X501890Y447144D01*
X503228D01*
X505797Y444575D01*
X507120Y443690D01*
X508681Y443380D01*
X509798Y442978D01*
Y441661D01*
X509674Y441362D01*
Y425614D01*
X508758D01*
Y418756D01*
X524760D01*
Y417486D01*
X526030D01*
Y409358D01*
X540762D01*
Y415253D01*
X542032Y415505D01*
X542039Y415487D01*
X543387Y414139D01*
X544830Y413541D01*
Y418200D01*
Y422859D01*
X543387Y422261D01*
X542039Y420913D01*
X542032Y420895D01*
X540762Y421147D01*
Y425614D01*
X539845D01*
Y441362D01*
X539722Y441661D01*
Y454546D01*
X509798D01*
Y453769D01*
X508624Y453283D01*
X507801Y454106D01*
X506478Y454990D01*
X504917Y455301D01*
X504917Y455301D01*
X499002D01*
X498643Y455837D01*
X498643Y455837D01*
X492625Y461856D01*
X491301Y462740D01*
X489778Y463043D01*
Y467800D01*
X489468Y469361D01*
X488584Y470684D01*
X487261Y471568D01*
X485700Y471879D01*
X471310D01*
X471279Y471872D01*
X466710D01*
Y471872D01*
X466610D01*
Y471872D01*
X458942D01*
X458396Y471872D01*
X457800Y472529D01*
X457800Y472529D01*
X457800Y472529D01*
Y472529D01*
X457732Y473072D01*
X452860D01*
Y474342D01*
X451590D01*
Y479001D01*
X451415Y478928D01*
X450145Y479777D01*
Y507122D01*
X449967Y508019D01*
X449458Y508780D01*
X449458Y508780D01*
X441315Y516924D01*
Y534052D01*
X441345Y534202D01*
Y543672D01*
X442500D01*
Y554672D01*
X435500D01*
Y543672D01*
X436655D01*
Y534323D01*
X436624Y534172D01*
X436625Y534172D01*
Y515952D01*
X436624Y515952D01*
X436803Y515055D01*
X437092Y514622D01*
X436106Y513813D01*
X432845Y517074D01*
Y543672D01*
X434000D01*
Y554672D01*
X427095Y554672D01*
X426540Y555712D01*
X425500Y556268D01*
X425500Y556982D01*
Y563172D01*
X414500D01*
Y562017D01*
X409237D01*
X408339Y561839D01*
X407579Y561331D01*
X407579Y561330D01*
X407315Y561067D01*
X406045Y561593D01*
Y565827D01*
X414500D01*
Y564672D01*
X425500D01*
Y571672D01*
X414500D01*
Y570518D01*
X404637D01*
X403740Y570339D01*
X403130Y569931D01*
X402566Y570080D01*
X401860Y570507D01*
Y572462D01*
X399855D01*
Y575619D01*
X399922Y575633D01*
X400892Y576280D01*
X401539Y577250D01*
X401767Y578393D01*
Y581203D01*
X411891Y591327D01*
X414500D01*
Y590172D01*
X425500D01*
Y597172D01*
X414500D01*
Y596017D01*
X410919D01*
X410022Y595839D01*
X409261Y595331D01*
X409261Y595331D01*
X403415Y589484D01*
X402428Y590294D01*
X402769Y590804D01*
X403077Y592352D01*
X397460D01*
Y594892D01*
X403077D01*
X402769Y596441D01*
X401892Y597754D01*
X402007Y598989D01*
X402732Y599827D01*
X414500D01*
Y598672D01*
X425500D01*
Y605672D01*
X414500D01*
Y604518D01*
X401813D01*
X401790Y604635D01*
X401142Y605605D01*
X400172Y606252D01*
X399029Y606480D01*
X395891D01*
X395807Y606463D01*
X395182Y607629D01*
X395729Y608327D01*
X414500D01*
Y607172D01*
X425500D01*
Y614172D01*
X414500D01*
Y613017D01*
X394610D01*
X394610Y613018D01*
X393712Y612839D01*
X392951Y612331D01*
X391432Y610811D01*
X387374D01*
X386848Y612081D01*
X387118Y612351D01*
X387118Y612351D01*
X387626Y613112D01*
X387805Y614010D01*
Y619127D01*
X389960D01*
Y626557D01*
X389960Y627727D01*
X389960Y628834D01*
X390858Y629732D01*
X392215D01*
X392963Y628854D01*
X393028Y627609D01*
X392150Y626295D01*
X391842Y624747D01*
X397460D01*
X403077D01*
X402769Y626295D01*
X402115Y627275D01*
X402305Y627828D01*
X403320Y628167D01*
X403401Y628157D01*
X404994Y626564D01*
Y620110D01*
X404994Y620110D01*
X405173Y619212D01*
X405681Y618451D01*
X406618Y617514D01*
X406618Y617514D01*
X407379Y617006D01*
X408277Y616827D01*
X414500D01*
Y615672D01*
X425500D01*
Y622672D01*
X414500D01*
Y621517D01*
X409684D01*
Y626535D01*
X410954Y627061D01*
X412001Y626014D01*
X412001Y626014D01*
X412762Y625506D01*
X413660Y625327D01*
X414500Y624477D01*
Y624172D01*
X425500D01*
Y631172D01*
X414500D01*
Y631172D01*
X413776Y630873D01*
X411993Y632655D01*
X412519Y633925D01*
X414500D01*
Y632672D01*
X425500D01*
Y639672D01*
X414500D01*
Y638615D01*
X412408D01*
X409920Y641103D01*
X409929Y641183D01*
X410492Y642327D01*
X414500D01*
Y641172D01*
X425500D01*
Y648172D01*
X414500D01*
Y647018D01*
X411031D01*
X410005Y648044D01*
Y650167D01*
X410810Y650827D01*
X414500D01*
Y649672D01*
X425500D01*
Y650891D01*
X429106D01*
X429876Y650121D01*
X431254Y649550D01*
X432746D01*
X434124Y650121D01*
X434785Y650782D01*
X436055Y650256D01*
Y625364D01*
X434880Y624189D01*
X433646Y624700D01*
X432154D01*
X430776Y624129D01*
X429721Y623074D01*
X429150Y621696D01*
Y620204D01*
X429721Y618826D01*
X429992Y618555D01*
X430187Y617261D01*
X428839Y615913D01*
X428242Y614470D01*
X437559D01*
X436961Y615913D01*
X435613Y617261D01*
X435808Y618555D01*
X436079Y618826D01*
X436315Y619396D01*
X436506Y619434D01*
X437267Y619943D01*
X440058Y622734D01*
X440567Y623495D01*
X440645Y623886D01*
X441915Y623761D01*
Y558073D01*
X441914Y558072D01*
X442093Y557175D01*
X442601Y556414D01*
X443359Y555656D01*
X444000Y554672D01*
X444000D01*
X444000Y554672D01*
Y543672D01*
X451000D01*
Y554672D01*
X449845Y554832D01*
X449666Y555730D01*
X449158Y556491D01*
X449158Y556491D01*
X446605Y559044D01*
Y562656D01*
X447875Y563041D01*
X448001Y562851D01*
X448939Y561914D01*
X448939Y561914D01*
X449699Y561406D01*
X450597Y561227D01*
X472987D01*
X472987Y561227D01*
X473885Y561406D01*
X474646Y561914D01*
X480787Y568055D01*
X547155D01*
Y554672D01*
X546000D01*
Y543672D01*
X552904Y543672D01*
X553460Y542632D01*
X553555Y542632D01*
X553555Y542632D01*
X558730D01*
Y549172D01*
X560000D01*
Y550442D01*
X566540D01*
Y555617D01*
X566540Y555617D01*
Y555712D01*
X566294Y555843D01*
X566261Y557245D01*
X566398Y557382D01*
X571777D01*
X572555Y556603D01*
X573934Y556032D01*
X575425D01*
X576804Y556603D01*
X577859Y557658D01*
X578430Y559036D01*
Y560528D01*
X577859Y561907D01*
X576804Y562962D01*
X575796Y563379D01*
Y564706D01*
X576804Y565123D01*
X577859Y566178D01*
X578430Y567556D01*
Y569048D01*
X577859Y570427D01*
X576804Y571482D01*
X575849Y571877D01*
Y573226D01*
X576804Y573621D01*
X577859Y574676D01*
X578430Y576054D01*
Y577546D01*
X577859Y578924D01*
X576804Y579979D01*
X575425Y580550D01*
X573934D01*
X572555Y579979D01*
X571594Y579017D01*
X565500D01*
Y580172D01*
X554500D01*
Y573172D01*
X565500D01*
Y574327D01*
X571849D01*
X572555Y573621D01*
X573510Y573226D01*
Y571877D01*
X572555Y571482D01*
X571656Y570583D01*
X565500D01*
Y571672D01*
X554500D01*
Y564672D01*
X565500D01*
Y565892D01*
X571786D01*
X572555Y565123D01*
X573564Y564706D01*
Y563379D01*
X572555Y562962D01*
X571666Y562072D01*
X565500D01*
Y563172D01*
X554500D01*
X554500Y556268D01*
X553460Y555712D01*
X553314Y555440D01*
X551973Y555443D01*
X551845Y555570D01*
Y569463D01*
X551666Y570360D01*
X551158Y571121D01*
X551158Y571121D01*
X550221Y572058D01*
X549460Y572567D01*
X548562Y572745D01*
X548562Y572745D01*
X479815D01*
X478918Y572567D01*
X478157Y572058D01*
X478157Y572058D01*
X472016Y565917D01*
X459198D01*
X458945Y567187D01*
X459684Y567493D01*
X460739Y568548D01*
X461310Y569926D01*
Y571106D01*
X474502Y584299D01*
X549890D01*
X549890Y584299D01*
X550787Y584477D01*
X551548Y584985D01*
X552485Y585923D01*
X552485Y585923D01*
X552994Y586683D01*
X553172Y587581D01*
Y599827D01*
X554500D01*
Y598672D01*
X565500D01*
Y605672D01*
X554500D01*
Y604518D01*
X551764D01*
X550867Y604339D01*
X550106Y603831D01*
X550106Y603830D01*
X549415Y603140D01*
X548449Y603405D01*
X548145Y603620D01*
Y616844D01*
X554500D01*
Y615672D01*
X565500D01*
Y622672D01*
X554500D01*
Y621534D01*
X546737D01*
X545840Y621356D01*
X545079Y620848D01*
X545079Y620848D01*
X544142Y619910D01*
X543634Y619150D01*
X543455Y618252D01*
X543455Y618252D01*
Y612520D01*
X542185Y611842D01*
X542045Y611935D01*
Y677936D01*
X542045Y677936D01*
X541867Y678833D01*
X541358Y679594D01*
X541358Y679594D01*
X540192Y680761D01*
X539431Y681269D01*
X538961Y681362D01*
X539086Y682632D01*
X539730D01*
Y689172D01*
X542270D01*
Y682632D01*
X548230D01*
Y689172D01*
X550770D01*
Y682632D01*
X553420D01*
X554500Y682172D01*
X554500Y681362D01*
Y675172D01*
X565500D01*
Y676327D01*
X570748D01*
X571605Y675057D01*
X571502Y674541D01*
Y672003D01*
X571730Y670860D01*
X571942Y670542D01*
X571759Y668892D01*
X571628Y668804D01*
X570750Y667491D01*
X570442Y665942D01*
X576060D01*
Y663402D01*
X570442D01*
X570750Y661854D01*
X571628Y660540D01*
X572941Y659663D01*
X573405Y659570D01*
X573823Y658193D01*
X573158Y657527D01*
X572171Y655817D01*
X571660Y653910D01*
Y651935D01*
X572171Y650027D01*
X573158Y648317D01*
X574554Y646921D01*
X576265Y645934D01*
X578172Y645422D01*
X580147D01*
X582054Y645934D01*
X583765Y646921D01*
X585161Y648317D01*
X585712Y649271D01*
X587007Y649733D01*
X587319Y649626D01*
X588414Y649172D01*
X589906D01*
X591284Y649743D01*
X592000Y650460D01*
X593281Y650250D01*
X593388Y650188D01*
X593471Y649877D01*
X594458Y648167D01*
X595854Y646771D01*
X597565Y645783D01*
X599472Y645272D01*
X601447D01*
X603354Y645783D01*
X605065Y646771D01*
X606461Y648167D01*
X607012Y649121D01*
X608307Y649583D01*
X608619Y649476D01*
X609714Y649022D01*
X611205D01*
X612285Y649470D01*
X613555Y648905D01*
Y631608D01*
X612285Y631020D01*
X611246Y631450D01*
X609754D01*
X608660Y630997D01*
X608347Y630890D01*
X607052Y631352D01*
X606502Y632305D01*
X605105Y633702D01*
X603395Y634689D01*
X601488Y635200D01*
X599513D01*
X597605Y634689D01*
X595895Y633702D01*
X594499Y632305D01*
X593511Y630595D01*
X593460Y630403D01*
X593278Y630306D01*
X592072Y630131D01*
X591324Y630879D01*
X589946Y631450D01*
X588454D01*
X587360Y630997D01*
X587047Y630890D01*
X585752Y631352D01*
X585202Y632305D01*
X583805Y633702D01*
X582095Y634689D01*
X580187Y635200D01*
X578213D01*
X576305Y634689D01*
X575812Y634404D01*
X572386Y637831D01*
X571625Y638339D01*
X570728Y638517D01*
X570728Y638517D01*
X565500D01*
Y639672D01*
X554500D01*
Y632672D01*
X565500D01*
Y633827D01*
X569757D01*
X572496Y631088D01*
X572211Y630595D01*
X571903Y629444D01*
X570486Y629065D01*
X570221Y629331D01*
X569460Y629839D01*
X568562Y630018D01*
X568562Y630018D01*
X565500D01*
Y631172D01*
X554500D01*
Y624172D01*
X565500D01*
Y625327D01*
X567155D01*
Y617610D01*
X567155Y617610D01*
X567333Y616712D01*
X567841Y615951D01*
X568779Y615014D01*
X568779Y615014D01*
X569539Y614506D01*
X570437Y614327D01*
X599563D01*
X599563Y614327D01*
X600460Y614506D01*
X601221Y615014D01*
X602158Y615951D01*
X602158Y615951D01*
X602667Y616712D01*
X602845Y617610D01*
Y620564D01*
X603395Y620711D01*
X605105Y621699D01*
X606502Y623095D01*
X607052Y624049D01*
X608347Y624511D01*
X608660Y624403D01*
X609754Y623950D01*
X611246D01*
X612285Y624381D01*
X613555Y623792D01*
Y565958D01*
X612721Y565124D01*
X612150Y563746D01*
Y562254D01*
X612721Y560876D01*
X613776Y559821D01*
X615154Y559250D01*
X616646D01*
X618024Y559821D01*
X619079Y560876D01*
X619650Y562254D01*
Y563746D01*
X619079Y565124D01*
X618245Y565958D01*
Y604996D01*
X619078Y605336D01*
X619515Y605382D01*
X620476Y604421D01*
X621854Y603850D01*
X623346D01*
X624724Y604421D01*
X625558Y605255D01*
X670106D01*
X670940Y604421D01*
X672318Y603850D01*
X673810D01*
X675188Y604421D01*
X676243Y605476D01*
X676814Y606854D01*
Y608346D01*
X676243Y609724D01*
X675188Y610779D01*
X673810Y611350D01*
X672318D01*
X670940Y610779D01*
X670106Y609945D01*
X625558D01*
X624724Y610779D01*
X623346Y611350D01*
X621854D01*
X620476Y610779D01*
X619515Y609818D01*
X619078Y609864D01*
X618245Y610204D01*
Y677735D01*
X618067Y678633D01*
X617558Y679393D01*
X617558Y679393D01*
X616621Y680331D01*
X615860Y680839D01*
X614963Y681018D01*
X614963Y681018D01*
X580560D01*
Y687452D01*
X580560Y688622D01*
X581696Y688944D01*
X774922D01*
Y637300D01*
X770000D01*
Y620970D01*
X768730Y620121D01*
X767589Y620594D01*
X765500Y620869D01*
X763412Y620594D01*
X761466Y619788D01*
X759794Y618506D01*
X758512Y616835D01*
X757706Y614889D01*
X757431Y612800D01*
Y600800D01*
X757706Y598712D01*
X758512Y596766D01*
X759794Y595095D01*
X761466Y593812D01*
X763412Y593006D01*
X765500Y592731D01*
X767589Y593006D01*
X768730Y593479D01*
X770000Y592631D01*
Y576300D01*
X788000D01*
Y637300D01*
X783079D01*
Y692770D01*
X783079Y692770D01*
X783079Y692770D01*
Y697922D01*
X895475D01*
Y692475D01*
X914525D01*
Y711525D01*
X895475D01*
Y706078D01*
X783079D01*
Y774100D01*
X782768Y775661D01*
X781884Y776984D01*
X743284Y815584D01*
X741961Y816468D01*
X740400Y816778D01*
X740400Y816778D01*
X695400D01*
Y821700D01*
X687979D01*
Y859732D01*
X687668Y861293D01*
X686784Y862616D01*
X686784Y862616D01*
X651099Y898301D01*
X649776Y899185D01*
X648215Y899496D01*
X648215Y899496D01*
X568086D01*
X561912Y909187D01*
X561664Y909029D01*
X560551Y909640D01*
Y911687D01*
X560240Y913248D01*
X559356Y914571D01*
X555913Y918014D01*
X554590Y918898D01*
X553029Y919209D01*
X553029Y919209D01*
X436659D01*
X430578Y925289D01*
Y935475D01*
X436025D01*
Y954525D01*
D02*
G37*
G36*
X576738Y887851D02*
X551208Y871587D01*
X555920Y864191D01*
X581450Y880455D01*
X576738Y887851D01*
D02*
G37*
G36*
X418088Y909187D02*
X408417Y894006D01*
X459864Y861231D01*
X469535Y876412D01*
X455762Y885186D01*
X455729Y886713D01*
X456741Y887422D01*
X458095Y889035D01*
X458985Y890944D01*
X459351Y893019D01*
X459167Y895117D01*
X458447Y897097D01*
X457239Y898822D01*
X455625Y900176D01*
X445504Y906624D01*
X443595Y907514D01*
X441521Y907880D01*
X439422Y907696D01*
X437443Y906976D01*
X435718Y905768D01*
X434364Y904154D01*
X433473Y902245D01*
X433259Y901028D01*
X431861Y900413D01*
X418088Y909187D01*
D02*
G37*
G36*
X582814Y878313D02*
X557285Y862048D01*
X561997Y854652D01*
X587527Y870916D01*
X582814Y878313D01*
D02*
G37*
G36*
X549066Y870222D02*
X523536Y853958D01*
X528249Y846562D01*
X553778Y862826D01*
X549066Y870222D01*
D02*
G37*
G36*
X388755Y865080D02*
X384043Y857683D01*
X409573Y841419D01*
X414285Y848816D01*
X388755Y865080D01*
D02*
G37*
G36*
X555143Y860684D02*
X529613Y844420D01*
X534325Y837023D01*
X559855Y853287D01*
X555143Y860684D01*
D02*
G37*
G36*
X382679Y855541D02*
X377967Y848145D01*
X403496Y831880D01*
X408208Y839277D01*
X382679Y855541D01*
D02*
G37*
G36*
X416427Y847451D02*
X411715Y840054D01*
X437244Y823790D01*
X441957Y831187D01*
X416427Y847451D01*
D02*
G37*
G36*
X410350Y837912D02*
X405638Y830516D01*
X431168Y814252D01*
X435880Y821648D01*
X410350Y837912D01*
D02*
G37*
G36*
X321100Y834269D02*
X309100D01*
X307012Y833994D01*
X305066Y833188D01*
X303395Y831906D01*
X302112Y830235D01*
X301306Y828288D01*
X301031Y826200D01*
X301306Y824112D01*
X301779Y822970D01*
X300931Y821700D01*
X284600D01*
Y815045D01*
X244500D01*
X243603Y814867D01*
X242842Y814358D01*
X242842Y814358D01*
X227442Y798958D01*
X226934Y798197D01*
X226755Y797300D01*
X226755Y797300D01*
Y655158D01*
X225921Y654324D01*
X225350Y652946D01*
Y651454D01*
X225921Y650076D01*
X226976Y649021D01*
X228354Y648450D01*
X229846D01*
X231224Y649021D01*
X232279Y650076D01*
X232850Y651454D01*
Y652946D01*
X232279Y654324D01*
X231445Y655158D01*
Y796329D01*
X245471Y810355D01*
X284600D01*
Y803700D01*
X345600D01*
Y821700D01*
X329270D01*
X328422Y822970D01*
X328894Y824112D01*
X329169Y826200D01*
X328894Y828288D01*
X328088Y830235D01*
X326806Y831906D01*
X325135Y833188D01*
X323189Y833994D01*
X321100Y834269D01*
D02*
G37*
G36*
X605433Y840872D02*
X553987Y808097D01*
X563658Y792916D01*
X577431Y801690D01*
X578829Y801075D01*
X579043Y799858D01*
X579934Y797949D01*
X581287Y796335D01*
X583013Y795127D01*
X584992Y794407D01*
X587091Y794223D01*
X589165Y794589D01*
X591074Y795479D01*
X601195Y801927D01*
X602809Y803281D01*
X604017Y805006D01*
X604737Y806986D01*
X604921Y809084D01*
X604555Y811159D01*
X603665Y813068D01*
X602311Y814681D01*
X601299Y815390D01*
X601332Y816917D01*
X615105Y825691D01*
X605433Y840872D01*
D02*
G37*
G36*
X696440Y795740D02*
X666170D01*
Y786970D01*
X696440D01*
Y795740D01*
D02*
G37*
G36*
X663630D02*
X633360D01*
Y786970D01*
X663630D01*
Y795740D01*
D02*
G37*
G36*
X696440Y784430D02*
X666170D01*
Y775660D01*
X696440D01*
Y784430D01*
D02*
G37*
G36*
X663630D02*
X633360D01*
Y775660D01*
X663630D01*
Y784430D01*
D02*
G37*
G36*
X346640Y768740D02*
X316370D01*
Y759970D01*
X346640D01*
Y768740D01*
D02*
G37*
G36*
X313830D02*
X283560D01*
Y759970D01*
X313830D01*
Y768740D01*
D02*
G37*
G36*
X346640Y757430D02*
X316370D01*
Y748660D01*
X346640D01*
Y757430D01*
D02*
G37*
G36*
X313830D02*
X283560D01*
Y748660D01*
X313830D01*
Y757430D01*
D02*
G37*
G36*
X695400Y740700D02*
X634400D01*
Y722700D01*
X650730D01*
X651579Y721430D01*
X651106Y720289D01*
X650831Y718200D01*
X651106Y716112D01*
X651912Y714166D01*
X653195Y712495D01*
X654866Y711212D01*
X656812Y710406D01*
X658900Y710131D01*
X670900D01*
X672989Y710406D01*
X674935Y711212D01*
X676606Y712495D01*
X677888Y714166D01*
X678694Y716112D01*
X678969Y718200D01*
X678694Y720289D01*
X678222Y721430D01*
X679070Y722700D01*
X695400D01*
Y740700D01*
D02*
G37*
G36*
X345600D02*
X284600D01*
Y722700D01*
X300931D01*
X301779Y721430D01*
X301306Y720288D01*
X301031Y718200D01*
X301306Y716112D01*
X302112Y714166D01*
X303395Y712495D01*
X305066Y711212D01*
X307012Y710406D01*
X309100Y710131D01*
X321100D01*
X323189Y710406D01*
X325135Y711212D01*
X326806Y712495D01*
X328088Y714166D01*
X328894Y716112D01*
X329169Y718200D01*
X328894Y720288D01*
X328422Y721430D01*
X329270Y722700D01*
X345600D01*
Y740700D01*
D02*
G37*
G36*
X76254Y711525D02*
X73746D01*
X71323Y710876D01*
X69152Y709622D01*
X67378Y707849D01*
X66124Y705677D01*
X65475Y703254D01*
Y700746D01*
X66124Y698324D01*
X67378Y696152D01*
X69152Y694378D01*
X71323Y693124D01*
X73746Y692475D01*
X76254D01*
X78677Y693124D01*
X80849Y694378D01*
X82622Y696152D01*
X83876Y698324D01*
X84525Y700746D01*
Y703254D01*
X83876Y705677D01*
X82622Y707849D01*
X80849Y709622D01*
X78677Y710876D01*
X76254Y711525D01*
D02*
G37*
G36*
X363304Y706202D02*
X356446D01*
Y691470D01*
X363304D01*
Y706202D01*
D02*
G37*
G36*
X906391Y687165D02*
X906270D01*
Y677870D01*
X915565D01*
Y677991D01*
X914845Y680678D01*
X913454Y683087D01*
X911487Y685054D01*
X909078Y686445D01*
X906391Y687165D01*
D02*
G37*
G36*
X903730D02*
X903609D01*
X900922Y686445D01*
X898513Y685054D01*
X896546Y683087D01*
X895155Y680678D01*
X894435Y677991D01*
Y677870D01*
X903730D01*
Y687165D01*
D02*
G37*
G36*
X76254Y686125D02*
X73746D01*
X71323Y685476D01*
X69152Y684222D01*
X67378Y682449D01*
X66124Y680277D01*
X65475Y677854D01*
Y675346D01*
X66124Y672924D01*
X67378Y670752D01*
X69152Y668978D01*
X71323Y667724D01*
X73746Y667075D01*
X76254D01*
X78677Y667724D01*
X80849Y668978D01*
X82622Y670752D01*
X83876Y672924D01*
X84525Y675346D01*
Y677854D01*
X83876Y680277D01*
X82622Y682449D01*
X80849Y684222D01*
X78677Y685476D01*
X76254Y686125D01*
D02*
G37*
G36*
X915565Y675330D02*
X906270D01*
Y666035D01*
X906391D01*
X909078Y666755D01*
X911487Y668146D01*
X913454Y670113D01*
X914845Y672522D01*
X915565Y675209D01*
Y675330D01*
D02*
G37*
G36*
X903730D02*
X894435D01*
Y675209D01*
X895155Y672522D01*
X896546Y670113D01*
X898513Y668146D01*
X900922Y666755D01*
X903609Y666035D01*
X903730D01*
Y675330D01*
D02*
G37*
G36*
X565500Y673672D02*
X554500D01*
X554500Y666768D01*
X553460Y666212D01*
X553460Y666117D01*
X553460Y666117D01*
Y662942D01*
X566540D01*
Y666117D01*
X566540Y666117D01*
Y666212D01*
X565500Y666768D01*
X565500Y667482D01*
Y673672D01*
D02*
G37*
G36*
X566540Y660402D02*
X553460D01*
Y657132D01*
Y654442D01*
X566540D01*
Y657132D01*
Y660402D01*
D02*
G37*
G36*
X906254Y660725D02*
X903746D01*
X901324Y660076D01*
X899152Y658822D01*
X897378Y657049D01*
X896124Y654877D01*
X895475Y652454D01*
Y649946D01*
X896124Y647524D01*
X897378Y645352D01*
X899152Y643578D01*
X901324Y642324D01*
X903746Y641675D01*
X906254D01*
X908677Y642324D01*
X910849Y643578D01*
X912622Y645352D01*
X913876Y647524D01*
X914525Y649946D01*
Y652454D01*
X913876Y654877D01*
X912622Y657049D01*
X910849Y658822D01*
X908677Y660076D01*
X906254Y660725D01*
D02*
G37*
G36*
X76254Y660725D02*
X73746D01*
X71323Y660076D01*
X69152Y658822D01*
X67378Y657048D01*
X66124Y654877D01*
X65475Y652454D01*
Y649946D01*
X66124Y647523D01*
X67378Y645352D01*
X69152Y643578D01*
X71323Y642324D01*
X73746Y641675D01*
X76254D01*
X78677Y642324D01*
X80849Y643578D01*
X82622Y645352D01*
X83876Y647523D01*
X84525Y649946D01*
Y652454D01*
X83876Y654877D01*
X82622Y657048D01*
X80849Y658822D01*
X78677Y660076D01*
X76254Y660725D01*
D02*
G37*
G36*
X566540Y651902D02*
X553460D01*
Y648728D01*
X553460Y648728D01*
Y648632D01*
X554500Y648077D01*
X554500Y647362D01*
Y641172D01*
X565500D01*
X565500Y648077D01*
X566540Y648632D01*
X566540Y648728D01*
X566540Y648728D01*
Y651902D01*
D02*
G37*
G36*
X403077Y622207D02*
X398730D01*
Y618159D01*
X399029D01*
X400578Y618467D01*
X401892Y619345D01*
X402769Y620658D01*
X403077Y622207D01*
D02*
G37*
G36*
X396190D02*
X391842D01*
X392150Y620658D01*
X393028Y619345D01*
X394341Y618467D01*
X395891Y618159D01*
X396190D01*
Y622207D01*
D02*
G37*
G36*
X379077Y622207D02*
X374730D01*
Y618159D01*
X375029D01*
X376578Y618467D01*
X377892Y619345D01*
X378769Y620658D01*
X379077Y622207D01*
D02*
G37*
G36*
X372190D02*
X367842D01*
X368150Y620658D01*
X369028Y619345D01*
X370341Y618467D01*
X371891Y618159D01*
X372190D01*
Y622207D01*
D02*
G37*
G36*
X906254Y635325D02*
X903746D01*
X901324Y634676D01*
X899152Y633422D01*
X897378Y631649D01*
X896124Y629477D01*
X895475Y627054D01*
Y624546D01*
X896124Y622124D01*
X897378Y619952D01*
X899152Y618178D01*
X901324Y616924D01*
X903746Y616275D01*
X906254D01*
X908677Y616924D01*
X910849Y618178D01*
X912622Y619952D01*
X913876Y622124D01*
X914525Y624546D01*
Y627054D01*
X913876Y629477D01*
X912622Y631649D01*
X910849Y633422D01*
X908677Y634676D01*
X906254Y635325D01*
D02*
G37*
G36*
X76254Y635325D02*
X73746D01*
X71323Y634676D01*
X69152Y633422D01*
X67378Y631648D01*
X66124Y629477D01*
X65475Y627054D01*
Y624546D01*
X66124Y622123D01*
X67378Y619952D01*
X69152Y618178D01*
X71323Y616924D01*
X73746Y616275D01*
X76254D01*
X78677Y616924D01*
X80849Y618178D01*
X82622Y619952D01*
X83876Y622123D01*
X84525Y624546D01*
Y627054D01*
X83876Y629477D01*
X82622Y631648D01*
X80849Y633422D01*
X78677Y634676D01*
X76254Y635325D01*
D02*
G37*
G36*
X437559Y611930D02*
X434170D01*
Y608542D01*
X435613Y609139D01*
X436961Y610487D01*
X437559Y611930D01*
D02*
G37*
G36*
X431630D02*
X428242D01*
X428839Y610487D01*
X430187Y609139D01*
X431630Y608542D01*
Y611930D01*
D02*
G37*
G36*
X157040Y638340D02*
X148270D01*
Y608070D01*
X157040D01*
Y638340D01*
D02*
G37*
G36*
X145730D02*
X136960D01*
Y608070D01*
X145730D01*
Y638340D01*
D02*
G37*
G36*
X816040D02*
X807270D01*
Y608070D01*
X816040D01*
Y638340D01*
D02*
G37*
G36*
X804730D02*
X795960D01*
Y608070D01*
X804730D01*
Y638340D01*
D02*
G37*
G36*
X76391Y610965D02*
X76270D01*
Y601670D01*
X85565D01*
Y601791D01*
X84845Y604478D01*
X83454Y606887D01*
X81487Y608854D01*
X79078Y610245D01*
X76391Y610965D01*
D02*
G37*
G36*
X73730D02*
X73609D01*
X70922Y610245D01*
X68513Y608854D01*
X66546Y606887D01*
X65155Y604478D01*
X64435Y601791D01*
Y601670D01*
X73730D01*
Y610965D01*
D02*
G37*
G36*
X869000Y637300D02*
X851000D01*
Y576300D01*
X869000D01*
Y592630D01*
X870270Y593479D01*
X871412Y593006D01*
X873500Y592731D01*
X875589Y593006D01*
X877535Y593812D01*
X879206Y595095D01*
X880488Y596766D01*
X881294Y598712D01*
X881569Y600800D01*
Y612800D01*
X881294Y614889D01*
X880488Y616835D01*
X879206Y618506D01*
X877535Y619788D01*
X875589Y620594D01*
X873500Y620869D01*
X871412Y620594D01*
X870270Y620121D01*
X869000Y620970D01*
Y637300D01*
D02*
G37*
G36*
X210000D02*
X192000D01*
Y576300D01*
X210000D01*
Y592630D01*
X211270Y593479D01*
X212412Y593006D01*
X214500Y592731D01*
X216588Y593006D01*
X218535Y593812D01*
X220206Y595095D01*
X221488Y596766D01*
X222294Y598712D01*
X222569Y600800D01*
Y612800D01*
X222294Y614889D01*
X221488Y616835D01*
X220206Y618506D01*
X218535Y619788D01*
X216588Y620594D01*
X214500Y620869D01*
X212412Y620594D01*
X211270Y620121D01*
X210000Y620970D01*
Y637300D01*
D02*
G37*
G36*
X906254Y609925D02*
X903746D01*
X901324Y609276D01*
X899152Y608022D01*
X897378Y606249D01*
X896124Y604077D01*
X895475Y601654D01*
Y599146D01*
X896124Y596724D01*
X897378Y594552D01*
X899152Y592778D01*
X901324Y591524D01*
X903746Y590875D01*
X906254D01*
X908677Y591524D01*
X910849Y592778D01*
X912622Y594552D01*
X913876Y596724D01*
X914525Y599146D01*
Y601654D01*
X913876Y604077D01*
X912622Y606249D01*
X910849Y608022D01*
X908677Y609276D01*
X906254Y609925D01*
D02*
G37*
G36*
X85565Y599130D02*
X76270D01*
Y589835D01*
X76391D01*
X79078Y590555D01*
X81487Y591946D01*
X83454Y593913D01*
X84845Y596322D01*
X85565Y599009D01*
Y599130D01*
D02*
G37*
G36*
X73730D02*
X64435D01*
Y599009D01*
X65155Y596322D01*
X66546Y593913D01*
X68513Y591946D01*
X70922Y590555D01*
X73609Y589835D01*
X73730D01*
Y599130D01*
D02*
G37*
G36*
X434805Y588922D02*
X433314D01*
X431935Y588352D01*
X431101Y587517D01*
X425500D01*
Y588672D01*
X414500D01*
Y581672D01*
X425500D01*
Y582827D01*
X431101D01*
X431935Y581993D01*
X432895Y581596D01*
Y580249D01*
X431935Y579851D01*
X431101Y579017D01*
X425500D01*
Y580172D01*
X414500D01*
Y573172D01*
X425500D01*
Y574327D01*
X431101D01*
X431935Y573493D01*
X433314Y572922D01*
X434805D01*
X436184Y573493D01*
X437239Y574548D01*
X437810Y575927D01*
Y577418D01*
X437239Y578797D01*
X436184Y579851D01*
X435224Y580249D01*
Y581596D01*
X436184Y581993D01*
X437239Y583048D01*
X437810Y584426D01*
Y585918D01*
X437239Y587297D01*
X436184Y588352D01*
X434805Y588922D01*
D02*
G37*
G36*
X842000Y637300D02*
X824000D01*
Y576300D01*
X842000D01*
Y637300D01*
D02*
G37*
G36*
X816040Y605530D02*
X807270D01*
Y575260D01*
X816040D01*
Y605530D01*
D02*
G37*
G36*
X804730D02*
X795960D01*
Y575260D01*
X804730D01*
Y605530D01*
D02*
G37*
G36*
X157040Y605530D02*
X148270D01*
Y575260D01*
X157040D01*
Y605530D01*
D02*
G37*
G36*
X145730D02*
X136960D01*
Y575260D01*
X145730D01*
Y605530D01*
D02*
G37*
G36*
X906254Y584525D02*
X903746D01*
X901324Y583876D01*
X899152Y582622D01*
X897378Y580849D01*
X896124Y578677D01*
X895475Y576254D01*
Y573746D01*
X896124Y571324D01*
X897378Y569152D01*
X899152Y567378D01*
X901324Y566124D01*
X903746Y565475D01*
X906254D01*
X908677Y566124D01*
X910849Y567378D01*
X912622Y569152D01*
X913876Y571324D01*
X914525Y573746D01*
Y576254D01*
X913876Y578677D01*
X912622Y580849D01*
X910849Y582622D01*
X908677Y583876D01*
X906254Y584525D01*
D02*
G37*
G36*
X498106Y565122D02*
X496614D01*
X495235Y564551D01*
X494939Y564255D01*
X494110Y563556D01*
X493280Y564255D01*
X492984Y564551D01*
X491606Y565122D01*
X490114D01*
X488736Y564551D01*
X487681Y563497D01*
X487110Y562118D01*
Y560626D01*
X487681Y559248D01*
X488733Y558195D01*
Y554672D01*
X486500D01*
Y543672D01*
X493500D01*
Y549414D01*
X493958Y549754D01*
X495000Y549262D01*
Y543672D01*
X502000D01*
Y554672D01*
X499486D01*
Y558195D01*
X500539Y559248D01*
X501110Y560626D01*
Y562118D01*
X500539Y563497D01*
X499484Y564551D01*
X498106Y565122D01*
D02*
G37*
G36*
X524745D02*
X523254D01*
X521875Y564551D01*
X520821Y563497D01*
X520423Y562537D01*
X519076D01*
X518679Y563497D01*
X517624Y564551D01*
X516245Y565122D01*
X514754D01*
X513375Y564551D01*
X512321Y563497D01*
X511750Y562118D01*
Y560626D01*
X512321Y559248D01*
X513154Y558414D01*
Y554672D01*
X512000D01*
Y543672D01*
X519000D01*
Y554672D01*
X517845D01*
Y558414D01*
X518679Y559248D01*
X519076Y560208D01*
X520423D01*
X520821Y559248D01*
X521655Y558414D01*
Y554672D01*
X520500D01*
Y543672D01*
X527500D01*
Y554672D01*
X526345D01*
Y558414D01*
X527179Y559248D01*
X527750Y560626D01*
Y562118D01*
X527179Y563497D01*
X526124Y564551D01*
X524745Y565122D01*
D02*
G37*
G36*
X387589Y566692D02*
X383520D01*
Y563023D01*
X383264Y562201D01*
X382584Y561614D01*
X381776Y561279D01*
X381133Y560636D01*
X360401D01*
X359758Y561279D01*
X358380Y561850D01*
X356888D01*
X355510Y561279D01*
X354455Y560224D01*
X353884Y558846D01*
Y557354D01*
X354455Y555976D01*
X355510Y554921D01*
X356888Y554350D01*
X358380D01*
X359758Y554921D01*
X360783Y555946D01*
X380751D01*
X381776Y554921D01*
X383154Y554350D01*
X384646D01*
X386024Y554921D01*
X387079Y555976D01*
X387650Y557354D01*
Y558846D01*
X387079Y560224D01*
X386151Y561152D01*
X386235Y561745D01*
X386540Y562422D01*
X387589D01*
Y566692D01*
D02*
G37*
G36*
X482245Y565122D02*
X480754D01*
X479375Y564551D01*
X478321Y563497D01*
X477750Y562118D01*
Y560626D01*
X478321Y559248D01*
X479155Y558414D01*
Y554672D01*
X478000D01*
Y543672D01*
X485000D01*
Y554672D01*
X483845D01*
Y558414D01*
X484679Y559248D01*
X485250Y560626D01*
Y562118D01*
X484679Y563497D01*
X483624Y564551D01*
X482245Y565122D01*
D02*
G37*
G36*
X234996Y544250D02*
X233504D01*
X232126Y543679D01*
X231250Y542803D01*
X230374Y543679D01*
X228996Y544250D01*
X227504D01*
X226126Y543679D01*
X225071Y542624D01*
X224500Y541246D01*
Y539754D01*
X225071Y538376D01*
X225874Y537573D01*
Y301576D01*
X215035Y290737D01*
X214405Y289794D01*
X214183Y288681D01*
Y118919D01*
X211851Y116587D01*
X211221Y115644D01*
X210999Y114531D01*
Y110014D01*
X211221Y108901D01*
X211851Y107958D01*
X212899Y106909D01*
Y105005D01*
X212699Y103999D01*
Y90546D01*
X212921Y89433D01*
X213551Y88490D01*
X213964Y88077D01*
X214048Y86834D01*
X213661Y86255D01*
X213525Y85572D01*
Y84862D01*
X213374Y84635D01*
X213152Y83522D01*
X213374Y82410D01*
X213525Y82183D01*
Y81472D01*
X213661Y80790D01*
X214048Y80211D01*
X214183Y80120D01*
Y73247D01*
X212619Y72599D01*
X211889Y71870D01*
X211060Y71392D01*
X210230Y71870D01*
X209500Y72599D01*
X207754Y73322D01*
X205865D01*
X204119Y72599D01*
X203389Y71870D01*
X202560Y71392D01*
X201730Y71870D01*
X201000Y72599D01*
X199254Y73322D01*
X197365D01*
X195619Y72599D01*
X194846Y71827D01*
X194718Y71852D01*
X193089Y73481D01*
X191080Y74313D01*
Y68572D01*
X188540D01*
Y74313D01*
X186530Y73481D01*
X184901Y71852D01*
X184020Y69724D01*
Y69374D01*
X182750Y69121D01*
X182459Y69823D01*
X181331Y71293D01*
X179860Y72422D01*
X178147Y73131D01*
X177580Y73206D01*
Y58772D01*
Y44339D01*
X178147Y44414D01*
X179860Y45123D01*
X181331Y46251D01*
X182459Y47722D01*
X183168Y49435D01*
X183410Y51272D01*
Y52073D01*
X184680Y52326D01*
X184901Y51793D01*
X186530Y50164D01*
X188540Y49331D01*
Y55072D01*
X191080D01*
Y49331D01*
X193089Y50164D01*
X194718Y51793D01*
X194846Y51818D01*
X195619Y51045D01*
X197365Y50322D01*
X199254D01*
X201000Y51045D01*
X201730Y51775D01*
X202560Y52253D01*
X203389Y51775D01*
X204119Y51045D01*
X205865Y50322D01*
X207754D01*
X209500Y51045D01*
X210230Y51775D01*
X211060Y52253D01*
X211889Y51775D01*
X212619Y51045D01*
X214365Y50322D01*
X216255D01*
X218000Y51045D01*
X218730Y51775D01*
X219560Y52253D01*
X220389Y51775D01*
X221119Y51045D01*
X222865Y50322D01*
X224755D01*
X226500Y51045D01*
X227230Y51775D01*
X228060Y52253D01*
X228889Y51775D01*
X229619Y51045D01*
X231365Y50322D01*
X233255D01*
X235000Y51045D01*
X235461Y51507D01*
X236731Y50980D01*
Y46591D01*
X236731Y46591D01*
X237042Y45030D01*
X237926Y43707D01*
X244559Y37074D01*
X244559Y37074D01*
X245882Y36190D01*
X247442Y35879D01*
X258160D01*
X258591Y34609D01*
X257789Y33993D01*
X256660Y32523D01*
X255951Y30810D01*
X255709Y28972D01*
Y26242D01*
X262810D01*
X269910D01*
Y28972D01*
X269668Y30810D01*
X268959Y32523D01*
X267831Y33993D01*
X267028Y34609D01*
X267459Y35879D01*
X268062D01*
X268062Y35879D01*
X269623Y36190D01*
X270946Y37074D01*
X275030Y41158D01*
X276300Y40632D01*
Y39696D01*
X278455D01*
Y36930D01*
X275300D01*
Y25930D01*
X286300D01*
Y36930D01*
X283145D01*
Y39696D01*
X285300D01*
Y48296D01*
X285300Y48296D01*
Y48396D01*
X285300D01*
X285300Y49566D01*
Y56996D01*
X276300D01*
Y56474D01*
X275629D01*
X274068Y56164D01*
X272745Y55279D01*
X272745Y55279D01*
X271084Y53618D01*
X269910Y54104D01*
Y57502D01*
X262810D01*
Y58772D01*
X261540D01*
Y73206D01*
X260972Y73131D01*
X259259Y72422D01*
X257789Y71293D01*
X256660Y69823D01*
X256370Y69121D01*
X255100Y69374D01*
Y69724D01*
X254218Y71852D01*
X252589Y73481D01*
X250580Y74313D01*
Y68572D01*
X248040D01*
Y74313D01*
X246030Y73481D01*
X244401Y71852D01*
X244273Y71827D01*
X243500Y72599D01*
X241754Y73322D01*
X239865D01*
X238119Y72599D01*
X237389Y71870D01*
X236560Y71392D01*
X235730Y71870D01*
X235000Y72599D01*
X233255Y73322D01*
X231365D01*
X229619Y72599D01*
X228889Y71870D01*
X228060Y71392D01*
X227230Y71870D01*
X226500Y72599D01*
X224936Y73247D01*
Y80120D01*
X225071Y80211D01*
X225458Y80790D01*
X225594Y81472D01*
Y82183D01*
X225746Y82410D01*
X225967Y83522D01*
X225746Y84635D01*
X225594Y84862D01*
Y85572D01*
X225458Y86255D01*
X225071Y86834D01*
X225156Y88077D01*
X225568Y88490D01*
X226199Y89433D01*
X226420Y90546D01*
Y103999D01*
X226420Y103999D01*
X226220Y105005D01*
Y107309D01*
X226868Y107958D01*
X227499Y108901D01*
X227720Y110014D01*
Y114531D01*
X227499Y115644D01*
X226868Y116587D01*
X224936Y118519D01*
Y285432D01*
X235775Y296271D01*
X236405Y297214D01*
X236626Y298326D01*
Y537573D01*
X237429Y538376D01*
X238000Y539754D01*
Y541246D01*
X237429Y542624D01*
X236374Y543679D01*
X234996Y544250D01*
D02*
G37*
G36*
X566540Y547902D02*
X561270D01*
Y542632D01*
X566540D01*
Y547902D01*
D02*
G37*
G36*
X282846Y560250D02*
X281354D01*
X279976Y559679D01*
X278921Y558624D01*
X278350Y557246D01*
Y555754D01*
X278921Y554376D01*
X279797Y553500D01*
X278921Y552624D01*
X278350Y551246D01*
Y549754D01*
X278921Y548376D01*
X279976Y547321D01*
X281354Y546750D01*
X282846D01*
X284224Y547321D01*
X284946Y548043D01*
X285523Y548158D01*
X285624Y548225D01*
X336733D01*
X348870Y536089D01*
X349813Y535458D01*
X350925Y535237D01*
X358710D01*
Y530022D01*
X366140D01*
X367310Y530022D01*
X368580Y530022D01*
X376010D01*
Y534665D01*
X382164D01*
X382835Y533993D01*
X384214Y533422D01*
X385705D01*
X387084Y533993D01*
X388139Y535048D01*
X388710Y536427D01*
Y537918D01*
X388139Y539297D01*
X387842Y539593D01*
X387144Y540422D01*
X387842Y541252D01*
X388139Y541548D01*
X388710Y542926D01*
Y544418D01*
X388139Y545797D01*
X387084Y546852D01*
X385705Y547422D01*
X384214D01*
X382835Y546852D01*
X381781Y545797D01*
X381624Y545418D01*
X376419D01*
X376010Y545827D01*
Y550972D01*
X368580D01*
X367410Y550972D01*
X366140Y550972D01*
X358710D01*
Y545758D01*
X354120D01*
X341954Y557923D01*
X341011Y558554D01*
X339898Y558775D01*
X285624D01*
X285523Y558842D01*
X284946Y558957D01*
X284224Y559679D01*
X282846Y560250D01*
D02*
G37*
G36*
X577020Y531678D02*
X572749D01*
Y527607D01*
X577020D01*
Y531678D01*
D02*
G37*
G36*
X570210D02*
X565940D01*
Y527607D01*
X570210D01*
Y531678D01*
D02*
G37*
G36*
X804330Y533273D02*
Y526042D01*
X811561D01*
X811018Y528069D01*
X809893Y530016D01*
X808303Y531606D01*
X806356Y532730D01*
X804330Y533273D01*
D02*
G37*
G36*
X801790D02*
X799763Y532730D01*
X797816Y531606D01*
X796226Y530016D01*
X795102Y528069D01*
X794559Y526042D01*
X801790D01*
Y533273D01*
D02*
G37*
G36*
X544500Y554672D02*
X537500D01*
Y543672D01*
X538655D01*
Y528971D01*
X537831Y528147D01*
X537260Y526768D01*
Y525276D01*
X537831Y523898D01*
X538885Y522843D01*
X540264Y522272D01*
X541755D01*
X543134Y522843D01*
X544189Y523898D01*
X544760Y525276D01*
Y526768D01*
X544189Y528147D01*
X543345Y528991D01*
Y543672D01*
X544500D01*
Y554672D01*
D02*
G37*
G36*
X536000D02*
X529000D01*
Y543672D01*
X529760D01*
Y528981D01*
X528926Y528147D01*
X528355Y526768D01*
Y525276D01*
X528926Y523898D01*
X529981Y522843D01*
X531359Y522272D01*
X532851D01*
X534229Y522843D01*
X535284Y523898D01*
X535855Y525276D01*
Y526768D01*
X535284Y528147D01*
X534450Y528981D01*
Y543672D01*
X536000D01*
Y554672D01*
D02*
G37*
G36*
X510500D02*
X503500D01*
Y543672D01*
X504655D01*
Y528106D01*
X504655Y528106D01*
X504833Y527209D01*
X505341Y526448D01*
X507425Y524364D01*
X507425Y524364D01*
X508186Y523856D01*
X509083Y523677D01*
X509083Y523677D01*
X520242D01*
X521076Y522843D01*
X522454Y522272D01*
X523946D01*
X525324Y522843D01*
X526379Y523898D01*
X526950Y525276D01*
Y526768D01*
X526379Y528147D01*
X525324Y529202D01*
X523946Y529772D01*
X522454D01*
X521076Y529202D01*
X520242Y528367D01*
X510055D01*
X509345Y529077D01*
Y543672D01*
X510500D01*
Y554672D01*
D02*
G37*
G36*
X198587Y532272D02*
X196613D01*
X194705Y531761D01*
X192995Y530774D01*
X191599Y529378D01*
X190611Y527667D01*
X190100Y525760D01*
Y523785D01*
X190611Y521878D01*
X191599Y520167D01*
X192995Y518771D01*
X194705Y517784D01*
X196613Y517272D01*
X198587D01*
X200495Y517784D01*
X202205Y518771D01*
X203602Y520167D01*
X204299Y521375D01*
X205591Y521680D01*
X205838Y521631D01*
X205876Y521593D01*
X207254Y521022D01*
X208746D01*
X210124Y521593D01*
X211179Y522648D01*
X211750Y524026D01*
Y525518D01*
X211179Y526897D01*
X210124Y527952D01*
X208746Y528522D01*
X207254D01*
X205876Y527952D01*
X205838Y527913D01*
X205591Y527865D01*
X204299Y528170D01*
X203602Y529378D01*
X202205Y530774D01*
X200495Y531761D01*
X198587Y532272D01*
D02*
G37*
G36*
X171688D02*
X169713D01*
X167805Y531761D01*
X166095Y530774D01*
X164699Y529378D01*
X163711Y527667D01*
X163200Y525760D01*
Y523785D01*
X163711Y521878D01*
X164699Y520167D01*
X166095Y518771D01*
X167805Y517784D01*
X169713Y517272D01*
X171688D01*
X173595Y517784D01*
X175305Y518771D01*
X176702Y520167D01*
X177252Y521121D01*
X178547Y521583D01*
X178860Y521476D01*
X179954Y521022D01*
X181446D01*
X182824Y521593D01*
X183879Y522648D01*
X184450Y524026D01*
Y525518D01*
X183879Y526897D01*
X182824Y527952D01*
X181446Y528522D01*
X179954D01*
X178860Y528069D01*
X178547Y527962D01*
X177252Y528424D01*
X176702Y529378D01*
X175305Y530774D01*
X173595Y531761D01*
X171688Y532272D01*
D02*
G37*
G36*
X481277Y524302D02*
X476930D01*
Y520255D01*
X477229D01*
X478778Y520563D01*
X480092Y521441D01*
X480969Y522754D01*
X481277Y524302D01*
D02*
G37*
G36*
X779647Y532272D02*
X777672D01*
X775765Y531761D01*
X774054Y530774D01*
X772658Y529378D01*
X771671Y527667D01*
X771160Y525760D01*
Y523785D01*
X771671Y521878D01*
X772658Y520167D01*
X774054Y518771D01*
X775765Y517784D01*
X777672Y517272D01*
X779647D01*
X781554Y517784D01*
X783265Y518771D01*
X784661Y520167D01*
X784965Y520694D01*
X788356D01*
X789917Y521004D01*
X791240Y521889D01*
X791564Y522374D01*
X791839Y522648D01*
X791987Y523007D01*
X792124Y523212D01*
X792172Y523453D01*
X792410Y524026D01*
Y524647D01*
X792434Y524772D01*
X792410Y524898D01*
Y525518D01*
X792172Y526092D01*
X792124Y526333D01*
X791987Y526538D01*
X791839Y526897D01*
X791564Y527171D01*
X791240Y527656D01*
X789917Y528540D01*
X788356Y528851D01*
X784965D01*
X784661Y529378D01*
X783265Y530774D01*
X781554Y531761D01*
X779647Y532272D01*
D02*
G37*
G36*
X811561Y523502D02*
X804330D01*
Y516272D01*
X806356Y516814D01*
X808303Y517939D01*
X809893Y519529D01*
X811018Y521476D01*
X811561Y523502D01*
D02*
G37*
G36*
X801790D02*
X794559D01*
X795102Y521476D01*
X796226Y519529D01*
X797816Y517939D01*
X799763Y516814D01*
X801790Y516272D01*
Y523502D01*
D02*
G37*
G36*
X391370Y513959D02*
Y510570D01*
X394759D01*
X394161Y512013D01*
X392813Y513361D01*
X391370Y513959D01*
D02*
G37*
G36*
X388830D02*
X387387Y513361D01*
X386039Y512013D01*
X385442Y510570D01*
X388830D01*
Y513959D01*
D02*
G37*
G36*
X683347Y509372D02*
X677280D01*
Y505992D01*
X686459D01*
Y506260D01*
X686223Y507451D01*
X685548Y508461D01*
X684538Y509135D01*
X683347Y509372D01*
D02*
G37*
G36*
X674740D02*
X668672D01*
X667481Y509135D01*
X666471Y508461D01*
X665797Y507451D01*
X665560Y506260D01*
Y505992D01*
X674740D01*
Y509372D01*
D02*
G37*
G36*
X368727D02*
X362660D01*
Y505992D01*
X371839D01*
Y506260D01*
X371603Y507451D01*
X370928Y508461D01*
X369918Y509135D01*
X368727Y509372D01*
D02*
G37*
G36*
X360120D02*
X354052D01*
X352861Y509135D01*
X351851Y508461D01*
X351177Y507451D01*
X350940Y506260D01*
Y505992D01*
X360120D01*
Y509372D01*
D02*
G37*
G36*
X394759Y508030D02*
X385442D01*
X386039Y506587D01*
X387387Y505239D01*
X389147Y504510D01*
Y503290D01*
X387387Y502561D01*
X386039Y501213D01*
X385442Y499770D01*
X394759D01*
X394161Y501213D01*
X392813Y502561D01*
X391053Y503290D01*
Y504510D01*
X392813Y505239D01*
X394161Y506587D01*
X394759Y508030D01*
D02*
G37*
G36*
Y497230D02*
X391370D01*
Y493842D01*
X392813Y494439D01*
X394161Y495787D01*
X394759Y497230D01*
D02*
G37*
G36*
X388830D02*
X385442D01*
X386039Y495787D01*
X387387Y494439D01*
X388830Y493842D01*
Y497230D01*
D02*
G37*
G36*
X662250Y501512D02*
X648580D01*
Y483242D01*
X662250D01*
Y501512D01*
D02*
G37*
G36*
X646040D02*
X632370D01*
Y483242D01*
X646040D01*
Y501512D01*
D02*
G37*
G36*
X347630D02*
X333960D01*
Y483242D01*
X347630D01*
Y501512D01*
D02*
G37*
G36*
X460570Y485559D02*
Y482170D01*
X463959D01*
X463361Y483613D01*
X462013Y484961D01*
X460570Y485559D01*
D02*
G37*
G36*
X458030D02*
X456587Y484961D01*
X455239Y483613D01*
X454641Y482170D01*
X458030D01*
Y485559D01*
D02*
G37*
G36*
X391429Y485690D02*
X391130D01*
Y481642D01*
X395477D01*
X395169Y483191D01*
X394292Y484504D01*
X392978Y485382D01*
X391429Y485690D01*
D02*
G37*
G36*
X388590D02*
X388291D01*
X386741Y485382D01*
X385428Y484504D01*
X384550Y483191D01*
X384242Y481642D01*
X388590D01*
Y485690D01*
D02*
G37*
G36*
X546570Y479759D02*
Y476370D01*
X549959D01*
X549361Y477813D01*
X548013Y479161D01*
X546570Y479759D01*
D02*
G37*
G36*
X544030D02*
X542587Y479161D01*
X541239Y477813D01*
X540642Y476370D01*
X544030D01*
Y479759D01*
D02*
G37*
G36*
X531770D02*
Y476370D01*
X535159D01*
X534561Y477813D01*
X533213Y479161D01*
X531770Y479759D01*
D02*
G37*
G36*
X529230D02*
X527787Y479161D01*
X526439Y477813D01*
X525841Y476370D01*
X529230D01*
Y479759D01*
D02*
G37*
G36*
X516970D02*
Y476370D01*
X520359D01*
X519761Y477813D01*
X518413Y479161D01*
X516970Y479759D01*
D02*
G37*
G36*
X514430D02*
X512987Y479161D01*
X511639Y477813D01*
X511041Y476370D01*
X514430D01*
Y479759D01*
D02*
G37*
G36*
X502170D02*
Y476370D01*
X505559D01*
X504961Y477813D01*
X503613Y479161D01*
X502170Y479759D01*
D02*
G37*
G36*
X499630D02*
X498187Y479161D01*
X496839Y477813D01*
X496241Y476370D01*
X499630D01*
Y479759D01*
D02*
G37*
G36*
X463959Y479630D02*
X460570D01*
Y476241D01*
X462013Y476839D01*
X463361Y478187D01*
X463959Y479630D01*
D02*
G37*
G36*
X458030D02*
X454130D01*
Y475612D01*
X458030D01*
Y479630D01*
D02*
G37*
G36*
X549959Y473830D02*
X546570D01*
Y470442D01*
X548013Y471039D01*
X549361Y472387D01*
X549959Y473830D01*
D02*
G37*
G36*
X544030D02*
X540642D01*
X541239Y472387D01*
X542587Y471039D01*
X544030Y470442D01*
Y473830D01*
D02*
G37*
G36*
X535159D02*
X531770D01*
Y470442D01*
X533213Y471039D01*
X534561Y472387D01*
X535159Y473830D01*
D02*
G37*
G36*
X529230D02*
X525841D01*
X526439Y472387D01*
X527787Y471039D01*
X529230Y470442D01*
Y473830D01*
D02*
G37*
G36*
X520359D02*
X516970D01*
Y470442D01*
X518413Y471039D01*
X519761Y472387D01*
X520359Y473830D01*
D02*
G37*
G36*
X514430D02*
X511041D01*
X511639Y472387D01*
X512987Y471039D01*
X514430Y470442D01*
Y473830D01*
D02*
G37*
G36*
X505559D02*
X502170D01*
Y470442D01*
X503613Y471039D01*
X504961Y472387D01*
X505559Y473830D01*
D02*
G37*
G36*
X499630D02*
X496241D01*
X496839Y472387D01*
X498187Y471039D01*
X499630Y470442D01*
Y473830D01*
D02*
G37*
G36*
X646040Y480702D02*
X632370D01*
Y462432D01*
X646040D01*
Y480702D01*
D02*
G37*
G36*
X552470Y464459D02*
Y461070D01*
X555859D01*
X555261Y462513D01*
X553913Y463861D01*
X552470Y464459D01*
D02*
G37*
G36*
X549930D02*
X548487Y463861D01*
X547139Y462513D01*
X546541Y461070D01*
X549930D01*
Y464459D01*
D02*
G37*
G36*
X811625Y492870D02*
X808375D01*
X805187Y492236D01*
X802184Y490992D01*
X799482Y489187D01*
X797184Y486888D01*
X795378Y484186D01*
X794134Y481183D01*
X793500Y477995D01*
Y474745D01*
X794134Y471557D01*
X795378Y468554D01*
X797184Y465852D01*
X799482Y463554D01*
X802184Y461748D01*
X805187Y460504D01*
X808375Y459870D01*
X811625D01*
X814813Y460504D01*
X817816Y461748D01*
X820518Y463554D01*
X822816Y465852D01*
X824622Y468554D01*
X825866Y471557D01*
X826500Y474745D01*
Y477995D01*
X825866Y481183D01*
X824622Y484186D01*
X822816Y486888D01*
X820518Y489187D01*
X817816Y490992D01*
X814813Y492236D01*
X811625Y492870D01*
D02*
G37*
G36*
X171625D02*
X168375D01*
X165187Y492236D01*
X162184Y490992D01*
X159482Y489187D01*
X157184Y486888D01*
X155378Y484186D01*
X154134Y481183D01*
X153500Y477995D01*
Y474745D01*
X154134Y471557D01*
X155378Y468554D01*
X157184Y465852D01*
X159482Y463554D01*
X162184Y461748D01*
X165187Y460504D01*
X168375Y459870D01*
X171625D01*
X174813Y460504D01*
X177816Y461748D01*
X180518Y463554D01*
X182817Y465852D01*
X184622Y468554D01*
X185866Y471557D01*
X186500Y474745D01*
Y477995D01*
X185866Y481183D01*
X184622Y484186D01*
X182817Y486888D01*
X180518Y489187D01*
X177816Y490992D01*
X174813Y492236D01*
X171625Y492870D01*
D02*
G37*
G36*
X588559Y462152D02*
X584290D01*
Y458082D01*
X588559D01*
Y462152D01*
D02*
G37*
G36*
X686459Y457952D02*
X677280D01*
Y454573D01*
X683347D01*
X684538Y454809D01*
X685548Y455484D01*
X686223Y456494D01*
X686459Y457685D01*
Y457952D01*
D02*
G37*
G36*
X714630Y457790D02*
Y453442D01*
X718677D01*
Y453741D01*
X718369Y455291D01*
X717492Y456604D01*
X716178Y457482D01*
X714630Y457790D01*
D02*
G37*
G36*
X718677Y450902D02*
X714630D01*
Y446555D01*
X716178Y446863D01*
X717492Y447740D01*
X718369Y449054D01*
X718677Y450603D01*
Y450902D01*
D02*
G37*
G36*
X729756Y445151D02*
X722898D01*
Y436642D01*
X729756D01*
Y445151D01*
D02*
G37*
G36*
X544830Y434859D02*
X543387Y434261D01*
X542039Y432913D01*
X541441Y431470D01*
X544830D01*
Y434859D01*
D02*
G37*
G36*
X729756Y434102D02*
X722898D01*
Y425593D01*
X729756D01*
Y434102D01*
D02*
G37*
G36*
X544830Y428930D02*
X541441D01*
X542039Y427487D01*
X543387Y426139D01*
X544830Y425541D01*
Y428930D01*
D02*
G37*
G36*
X670387Y434300D02*
X668413D01*
X666505Y433789D01*
X664795Y432802D01*
X663399Y431405D01*
X662411Y429695D01*
X661900Y427788D01*
Y425813D01*
X662411Y423905D01*
X663399Y422195D01*
X664795Y420799D01*
X666505Y419811D01*
X668413Y419300D01*
X670387D01*
X672295Y419811D01*
X674005Y420799D01*
X675402Y422195D01*
X675706Y422722D01*
X679400D01*
X680961Y423032D01*
X682284Y423916D01*
X683168Y425239D01*
X683478Y426800D01*
X683168Y428361D01*
X682284Y429684D01*
X680961Y430568D01*
X679400Y430878D01*
X675706D01*
X675402Y431405D01*
X674005Y432802D01*
X672295Y433789D01*
X670387Y434300D01*
D02*
G37*
G36*
X475522Y421770D02*
X468664D01*
Y413261D01*
X475522D01*
Y421770D01*
D02*
G37*
G36*
X656940Y431572D02*
X641940D01*
Y410572D01*
X656940D01*
Y431572D01*
D02*
G37*
G36*
X580940D02*
X565940D01*
Y410572D01*
X580940D01*
Y431572D01*
D02*
G37*
G36*
X338060D02*
X323060D01*
Y410572D01*
X338060D01*
Y431572D01*
D02*
G37*
G36*
X465959Y408930D02*
X462570D01*
Y405541D01*
X464013Y406139D01*
X465361Y407487D01*
X465959Y408930D01*
D02*
G37*
G36*
X475522Y410721D02*
X468664D01*
Y402212D01*
X475522D01*
Y410721D01*
D02*
G37*
G36*
X641980Y406112D02*
X637710D01*
Y397092D01*
X641980D01*
Y406112D01*
D02*
G37*
G36*
X670387Y409178D02*
X668413D01*
X666505Y408666D01*
X664795Y407679D01*
X663399Y406283D01*
X662411Y404572D01*
X661900Y402665D01*
Y400690D01*
X662411Y398783D01*
X663399Y397072D01*
X664795Y395676D01*
X666505Y394689D01*
X668413Y394178D01*
X670387D01*
X672295Y394689D01*
X674005Y395676D01*
X675402Y397072D01*
X675706Y397599D01*
X679400D01*
X680961Y397910D01*
X682284Y398794D01*
X683168Y400117D01*
X683478Y401678D01*
X683168Y403238D01*
X682284Y404561D01*
X680961Y405445D01*
X679400Y405756D01*
X675706D01*
X675402Y406283D01*
X674005Y407679D01*
X672295Y408666D01*
X670387Y409178D01*
D02*
G37*
G36*
X641980Y394552D02*
X637710D01*
Y385532D01*
X641980D01*
Y394552D01*
D02*
G37*
G36*
X502070Y383859D02*
Y380470D01*
X505459D01*
X504861Y381913D01*
X503513Y383261D01*
X502070Y383859D01*
D02*
G37*
G36*
X499530D02*
X498087Y383261D01*
X496739Y381913D01*
X496142Y380470D01*
X499530D01*
Y383859D01*
D02*
G37*
G36*
X478370D02*
Y380470D01*
X481759D01*
X481161Y381913D01*
X479813Y383261D01*
X478370Y383859D01*
D02*
G37*
G36*
X475830D02*
X474387Y383261D01*
X473039Y381913D01*
X472441Y380470D01*
X475830D01*
Y383859D01*
D02*
G37*
G36*
X505459Y377930D02*
X502070D01*
Y374542D01*
X503513Y375139D01*
X504861Y376487D01*
X505459Y377930D01*
D02*
G37*
G36*
X499530D02*
X496142D01*
X496739Y376487D01*
X498087Y375139D01*
X499530Y374542D01*
Y377930D01*
D02*
G37*
G36*
X481759D02*
X478370D01*
Y374542D01*
X479813Y375139D01*
X481161Y376487D01*
X481759Y377930D01*
D02*
G37*
G36*
X475830D02*
X472441D01*
X473039Y376487D01*
X474387Y375139D01*
X475830Y374542D01*
Y377930D01*
D02*
G37*
G36*
X532670Y376171D02*
Y371970D01*
X536870D01*
X536097Y373838D01*
X534538Y375397D01*
X532670Y376171D01*
D02*
G37*
G36*
X530130D02*
X528262Y375397D01*
X526703Y373838D01*
X525930Y371970D01*
X530130D01*
Y376171D01*
D02*
G37*
G36*
X551470Y352771D02*
Y348570D01*
X555671D01*
X554897Y350438D01*
X553338Y351997D01*
X551470Y352771D01*
D02*
G37*
G36*
X548930D02*
X547062Y351997D01*
X545504Y350438D01*
X544730Y348570D01*
X548930D01*
Y352771D01*
D02*
G37*
G36*
X555671Y346030D02*
X551470D01*
Y341830D01*
X553338Y342603D01*
X554897Y344162D01*
X555671Y346030D01*
D02*
G37*
G36*
X548930D02*
X544730D01*
X545504Y344162D01*
X547062Y342603D01*
X548930Y341830D01*
Y346030D01*
D02*
G37*
G36*
X525570Y330770D02*
Y326570D01*
X529771D01*
X528997Y328438D01*
X527438Y329997D01*
X525570Y330770D01*
D02*
G37*
G36*
X523030D02*
X521162Y329997D01*
X519604Y328438D01*
X518830Y326570D01*
X523030D01*
Y330770D01*
D02*
G37*
G36*
X456970D02*
Y326570D01*
X461171D01*
X460397Y328438D01*
X458838Y329997D01*
X456970Y330770D01*
D02*
G37*
G36*
X454430D02*
X452562Y329997D01*
X451003Y328438D01*
X450230Y326570D01*
X454430D01*
Y330770D01*
D02*
G37*
G36*
X529771Y324030D02*
X525570D01*
Y319830D01*
X527438Y320603D01*
X528997Y322162D01*
X529771Y324030D01*
D02*
G37*
G36*
X523030D02*
X518830D01*
X519604Y322162D01*
X521162Y320603D01*
X523030Y319830D01*
Y324030D01*
D02*
G37*
G36*
X461171D02*
X456970D01*
Y319830D01*
X458838Y320603D01*
X460397Y322162D01*
X461171Y324030D01*
D02*
G37*
G36*
X454430D02*
X450230D01*
X451003Y322162D01*
X452562Y320603D01*
X454430Y319830D01*
Y324030D01*
D02*
G37*
G36*
X530870Y317470D02*
Y313270D01*
X535070D01*
X534297Y315138D01*
X532738Y316697D01*
X530870Y317470D01*
D02*
G37*
G36*
X528330D02*
X526462Y316697D01*
X524903Y315138D01*
X524130Y313270D01*
X528330D01*
Y317470D01*
D02*
G37*
G36*
X451670D02*
Y313270D01*
X455871D01*
X455097Y315138D01*
X453538Y316697D01*
X451670Y317470D01*
D02*
G37*
G36*
X449130D02*
X447262Y316697D01*
X445704Y315138D01*
X444930Y313270D01*
X449130D01*
Y317470D01*
D02*
G37*
G36*
X535070Y310730D02*
X524130D01*
X524903Y308862D01*
X526462Y307304D01*
X526506Y307285D01*
Y306015D01*
X526462Y305997D01*
X524903Y304438D01*
X524130Y302570D01*
X535070D01*
X534297Y304438D01*
X532738Y305997D01*
X532694Y306015D01*
Y307285D01*
X532738Y307304D01*
X534297Y308862D01*
X535070Y310730D01*
D02*
G37*
G36*
X455871D02*
X444930D01*
X445704Y308862D01*
X447262Y307304D01*
X447306Y307285D01*
Y306015D01*
X447262Y305997D01*
X445704Y304438D01*
X444930Y302570D01*
X455871D01*
X455097Y304438D01*
X453538Y305997D01*
X453494Y306015D01*
Y307285D01*
X453538Y307304D01*
X455097Y308862D01*
X455871Y310730D01*
D02*
G37*
G36*
X535070Y300030D02*
X530870D01*
Y295830D01*
X532738Y296604D01*
X534297Y298162D01*
X535070Y300030D01*
D02*
G37*
G36*
X528330D02*
X524130D01*
X524903Y298162D01*
X526462Y296604D01*
X528330Y295830D01*
Y300030D01*
D02*
G37*
G36*
X455871D02*
X451670D01*
Y295830D01*
X453538Y296604D01*
X455097Y298162D01*
X455871Y300030D01*
D02*
G37*
G36*
X449130D02*
X444930D01*
X445704Y298162D01*
X447262Y296604D01*
X449130Y295830D01*
Y300030D01*
D02*
G37*
G36*
X542690Y294571D02*
Y290370D01*
X546890D01*
X546117Y292238D01*
X544558Y293797D01*
X542690Y294571D01*
D02*
G37*
G36*
X540150D02*
X538282Y293797D01*
X536724Y292238D01*
X535950Y290370D01*
X540150D01*
Y294571D01*
D02*
G37*
G36*
X439850D02*
Y290370D01*
X444050D01*
X443277Y292238D01*
X441718Y293797D01*
X439850Y294571D01*
D02*
G37*
G36*
X437310D02*
X435442Y293797D01*
X433884Y292238D01*
X433110Y290370D01*
X437310D01*
Y294571D01*
D02*
G37*
G36*
X546890Y287830D02*
X542690D01*
Y283630D01*
X544558Y284403D01*
X546117Y285962D01*
X546890Y287830D01*
D02*
G37*
G36*
X540150D02*
X535950D01*
X536724Y285962D01*
X538282Y284403D01*
X540150Y283630D01*
Y287830D01*
D02*
G37*
G36*
X444050D02*
X439850D01*
Y283630D01*
X441718Y284403D01*
X443277Y285962D01*
X444050Y287830D01*
D02*
G37*
G36*
X437310D02*
X433110D01*
X433884Y285962D01*
X435442Y284403D01*
X437310Y283630D01*
Y287830D01*
D02*
G37*
G36*
X507570Y266070D02*
Y261870D01*
X511771D01*
X510997Y263738D01*
X509438Y265297D01*
X507570Y266070D01*
D02*
G37*
G36*
X505030D02*
X503162Y265297D01*
X501604Y263738D01*
X500830Y261870D01*
X505030D01*
Y266070D01*
D02*
G37*
G36*
X474970D02*
Y261870D01*
X479170D01*
X478397Y263738D01*
X476838Y265297D01*
X474970Y266070D01*
D02*
G37*
G36*
X472430D02*
X470562Y265297D01*
X469003Y263738D01*
X468230Y261870D01*
X472430D01*
Y266070D01*
D02*
G37*
G36*
X511771Y259330D02*
X507570D01*
Y255130D01*
X509438Y255904D01*
X510997Y257462D01*
X511771Y259330D01*
D02*
G37*
G36*
X505030D02*
X500830D01*
X501604Y257462D01*
X503162Y255904D01*
X505030Y255130D01*
Y259330D01*
D02*
G37*
G36*
X479170D02*
X474970D01*
Y255130D01*
X476838Y255904D01*
X478397Y257462D01*
X479170Y259330D01*
D02*
G37*
G36*
X472430D02*
X468230D01*
X469003Y257462D01*
X470562Y255904D01*
X472430Y255130D01*
Y259330D01*
D02*
G37*
G36*
X581500Y237186D02*
X398500D01*
X395890Y236843D01*
X393457Y235835D01*
X391368Y234232D01*
X389765Y232143D01*
X388758Y229711D01*
X388414Y227100D01*
X388758Y224490D01*
X389765Y222057D01*
X391368Y219968D01*
X393457Y218365D01*
X395890Y217358D01*
X398500Y217014D01*
X581500D01*
X584111Y217358D01*
X586543Y218365D01*
X588632Y219968D01*
X590235Y222057D01*
X591243Y224490D01*
X591586Y227100D01*
X591243Y229711D01*
X590235Y232143D01*
X588632Y234232D01*
X586543Y235835D01*
X584111Y236843D01*
X581500Y237186D01*
D02*
G37*
G36*
X706625Y175100D02*
X703375D01*
X700187Y174466D01*
X697184Y173222D01*
X694482Y171416D01*
X692184Y169118D01*
X690378Y166416D01*
X689134Y163413D01*
X688500Y160225D01*
Y156975D01*
X689134Y153787D01*
X690378Y150785D01*
X692184Y148082D01*
X694482Y145784D01*
X697184Y143978D01*
X700187Y142734D01*
X703375Y142100D01*
X706625D01*
X709813Y142734D01*
X712816Y143978D01*
X715518Y145784D01*
X717816Y148082D01*
X719622Y150785D01*
X720866Y153787D01*
X721500Y156975D01*
Y160225D01*
X720866Y163413D01*
X719622Y166416D01*
X717816Y169118D01*
X715518Y171416D01*
X712816Y173222D01*
X709813Y174466D01*
X706625Y175100D01*
D02*
G37*
G36*
X276625D02*
X273375D01*
X270187Y174466D01*
X267184Y173222D01*
X264482Y171416D01*
X262184Y169118D01*
X260378Y166416D01*
X259134Y163413D01*
X258500Y160225D01*
Y156975D01*
X259134Y153787D01*
X260378Y150785D01*
X262184Y148082D01*
X264482Y145784D01*
X267184Y143978D01*
X270187Y142734D01*
X273375Y142100D01*
X276625D01*
X279813Y142734D01*
X282816Y143978D01*
X285518Y145784D01*
X287817Y148082D01*
X289622Y150785D01*
X290866Y153787D01*
X291500Y156975D01*
Y160225D01*
X290866Y163413D01*
X289622Y166416D01*
X287817Y169118D01*
X285518Y171416D01*
X282816Y173222D01*
X279813Y174466D01*
X276625Y175100D01*
D02*
G37*
G36*
X811625Y133870D02*
X808375D01*
X805187Y133236D01*
X802184Y131992D01*
X799482Y130187D01*
X797184Y127888D01*
X795378Y125186D01*
X794134Y122183D01*
X793500Y118995D01*
Y115745D01*
X794134Y112557D01*
X795378Y109554D01*
X797184Y106852D01*
X799482Y104554D01*
X802184Y102748D01*
X805187Y101504D01*
X808375Y100870D01*
X811625D01*
X814813Y101504D01*
X817816Y102748D01*
X820518Y104554D01*
X822816Y106852D01*
X824622Y109554D01*
X825866Y112557D01*
X826500Y115745D01*
Y118995D01*
X825866Y122183D01*
X824622Y125186D01*
X822816Y127888D01*
X820518Y130187D01*
X817816Y131992D01*
X814813Y133236D01*
X811625Y133870D01*
D02*
G37*
G36*
X171625D02*
X168375D01*
X165187Y133236D01*
X162184Y131992D01*
X159482Y130187D01*
X157184Y127888D01*
X155378Y125186D01*
X154134Y122183D01*
X153500Y118995D01*
Y115745D01*
X154134Y112557D01*
X155378Y109554D01*
X157184Y106852D01*
X159482Y104554D01*
X162184Y102748D01*
X165187Y101504D01*
X168375Y100870D01*
X171625D01*
X174813Y101504D01*
X177816Y102748D01*
X180518Y104554D01*
X182817Y106852D01*
X184622Y109554D01*
X185866Y112557D01*
X186500Y115745D01*
Y118995D01*
X185866Y122183D01*
X184622Y125186D01*
X182817Y127888D01*
X180518Y130187D01*
X177816Y131992D01*
X174813Y133236D01*
X171625Y133870D01*
D02*
G37*
G36*
X581500Y100186D02*
X398500D01*
X395890Y99843D01*
X393457Y98835D01*
X391368Y97232D01*
X389765Y95143D01*
X388758Y92711D01*
X388414Y90100D01*
X388758Y87490D01*
X389765Y85057D01*
X391368Y82968D01*
X393457Y81365D01*
X395890Y80358D01*
X398500Y80014D01*
X581500D01*
X584111Y80358D01*
X586543Y81365D01*
X588632Y82968D01*
X590235Y85057D01*
X591243Y87490D01*
X591586Y90100D01*
X591243Y92711D01*
X590235Y95143D01*
X588632Y97232D01*
X586543Y98835D01*
X584111Y99843D01*
X581500Y100186D01*
D02*
G37*
G36*
X725540Y78230D02*
X720270D01*
Y72960D01*
X725540D01*
Y78230D01*
D02*
G37*
G36*
X281646Y87550D02*
X280154D01*
X278776Y86979D01*
X277721Y85924D01*
X277150Y84546D01*
Y83054D01*
X277721Y81676D01*
X278555Y80842D01*
Y77696D01*
X276300D01*
Y70036D01*
X275260D01*
Y65966D01*
X280800D01*
X286340D01*
Y70036D01*
X285300D01*
Y77696D01*
X283245D01*
Y80842D01*
X284079Y81676D01*
X284650Y83054D01*
Y84546D01*
X284079Y85924D01*
X283024Y86979D01*
X281646Y87550D01*
D02*
G37*
G36*
X666977Y68002D02*
X662930D01*
Y63655D01*
X664478Y63963D01*
X665792Y64840D01*
X666669Y66154D01*
X666977Y67703D01*
Y68002D01*
D02*
G37*
G36*
X264080Y73206D02*
Y60042D01*
X269910D01*
Y66272D01*
X269668Y68110D01*
X268959Y69823D01*
X267831Y71293D01*
X266360Y72422D01*
X264648Y73131D01*
X264080Y73206D01*
D02*
G37*
G36*
X175040D02*
X174472Y73131D01*
X172759Y72422D01*
X171289Y71293D01*
X170160Y69823D01*
X169451Y68110D01*
X169209Y66272D01*
Y60042D01*
X175040D01*
Y73206D01*
D02*
G37*
G36*
X286340Y63426D02*
X282070D01*
Y59356D01*
X286340D01*
Y63426D01*
D02*
G37*
G36*
X279530D02*
X275260D01*
Y59356D01*
X279530D01*
Y63426D01*
D02*
G37*
G36*
X484392Y61445D02*
X484392Y61445D01*
X387767D01*
X386869Y61267D01*
X386109Y60758D01*
X386109Y60758D01*
X385171Y59821D01*
X384663Y59060D01*
X384484Y58163D01*
X384484Y58163D01*
Y39822D01*
X380830D01*
Y26822D01*
X392830D01*
Y30977D01*
X421830D01*
Y26822D01*
X433830D01*
Y39822D01*
X421830D01*
Y35668D01*
X392830D01*
Y39822D01*
X389175D01*
Y56755D01*
X423650D01*
X424397Y55485D01*
X424080Y54718D01*
Y53226D01*
X424651Y51848D01*
X425705Y50793D01*
X427084Y50222D01*
X428576D01*
X429954Y50793D01*
X430788Y51627D01*
X441985D01*
Y39822D01*
X438330D01*
Y26822D01*
X450330D01*
Y30977D01*
X479330D01*
Y26822D01*
X491330D01*
Y39822D01*
X479330D01*
Y35668D01*
X450330D01*
Y39822D01*
X446675D01*
Y53035D01*
X446496Y53933D01*
X445988Y54693D01*
X445988Y54693D01*
X445196Y55485D01*
X445293Y56082D01*
X445654Y56755D01*
X481150D01*
X481897Y55485D01*
X481580Y54718D01*
Y53226D01*
X482151Y51848D01*
X483205Y50793D01*
X484584Y50222D01*
X486076D01*
X487454Y50793D01*
X488509Y51848D01*
X489080Y53226D01*
Y54718D01*
X488509Y56097D01*
X487675Y56931D01*
Y58163D01*
X487496Y59060D01*
X486988Y59821D01*
X486988Y59821D01*
X486051Y60758D01*
X485290Y61267D01*
X484392Y61445D01*
D02*
G37*
G36*
X788827Y54430D02*
X788770D01*
Y45620D01*
X797580D01*
Y45677D01*
X796893Y48241D01*
X795566Y50539D01*
X793689Y52416D01*
X791391Y53743D01*
X788827Y54430D01*
D02*
G37*
G36*
X786230D02*
X786173D01*
X783609Y53743D01*
X781311Y52416D01*
X779434Y50539D01*
X778107Y48241D01*
X777420Y45677D01*
Y45620D01*
X786230D01*
Y54430D01*
D02*
G37*
G36*
X175040Y57502D02*
X169209D01*
Y51272D01*
X169451Y49435D01*
X170160Y47722D01*
X171289Y46251D01*
X172759Y45123D01*
X174472Y44414D01*
X175040Y44339D01*
Y57502D01*
D02*
G37*
G36*
X361870Y51622D02*
X356100D01*
Y44102D01*
X361870D01*
Y51622D01*
D02*
G37*
G36*
X353560D02*
X347790D01*
Y44102D01*
X353560D01*
Y51622D01*
D02*
G37*
G36*
X543576Y57722D02*
X542084D01*
X540705Y57151D01*
X539651Y56097D01*
X539080Y54718D01*
Y53226D01*
X539651Y51848D01*
X540485Y51014D01*
Y39822D01*
X536830D01*
Y35668D01*
X507830D01*
Y39822D01*
X495830D01*
Y26822D01*
X507830D01*
Y30977D01*
X536830D01*
Y26822D01*
X548830D01*
Y39822D01*
X545175D01*
Y51014D01*
X546009Y51848D01*
X546580Y53226D01*
Y54718D01*
X546009Y56097D01*
X544954Y57151D01*
X543576Y57722D01*
D02*
G37*
G36*
X763690Y53390D02*
X761310D01*
X759011Y52774D01*
X756949Y51584D01*
X755266Y49901D01*
X754076Y47839D01*
X753460Y45540D01*
Y43160D01*
X754076Y40861D01*
X755266Y38799D01*
X756949Y37116D01*
X759011Y35926D01*
X761310Y35310D01*
X763690D01*
X765989Y35926D01*
X768051Y37116D01*
X769734Y38799D01*
X770924Y40861D01*
X771540Y43160D01*
Y45540D01*
X770924Y47839D01*
X769734Y49901D01*
X768051Y51584D01*
X765989Y52774D01*
X763690Y53390D01*
D02*
G37*
G36*
X340505Y57722D02*
X339014D01*
X337635Y57151D01*
X336581Y56097D01*
X336010Y54718D01*
Y53226D01*
X336581Y51848D01*
X336050Y50582D01*
X333830D01*
Y35082D01*
X345830D01*
Y50582D01*
X343469D01*
X342939Y51848D01*
X343510Y53226D01*
Y54718D01*
X342939Y56097D01*
X341884Y57151D01*
X340505Y57722D01*
D02*
G37*
G36*
X315830Y50582D02*
X303830D01*
Y35082D01*
X315830D01*
Y50582D01*
D02*
G37*
G36*
X376870Y40122D02*
X371600D01*
Y34352D01*
X376870D01*
Y40122D01*
D02*
G37*
G36*
X369060D02*
X363790D01*
Y34352D01*
X369060D01*
Y40122D01*
D02*
G37*
G36*
X300870D02*
X295600D01*
Y34352D01*
X300870D01*
Y40122D01*
D02*
G37*
G36*
X293060D02*
X287790D01*
Y34352D01*
X293060D01*
Y40122D01*
D02*
G37*
G36*
X797580Y43080D02*
X788770D01*
Y34270D01*
X788827D01*
X791391Y34957D01*
X793689Y36284D01*
X795566Y38161D01*
X796893Y40459D01*
X797580Y43023D01*
Y43080D01*
D02*
G37*
G36*
X786230D02*
X777420D01*
Y43023D01*
X778107Y40459D01*
X779434Y38161D01*
X781311Y36284D01*
X783609Y34957D01*
X786173Y34270D01*
X786230D01*
Y43080D01*
D02*
G37*
G36*
X361870Y41562D02*
X356100D01*
Y34042D01*
X361870D01*
Y41562D01*
D02*
G37*
G36*
X353560D02*
X347790D01*
Y34042D01*
X353560D01*
Y41562D01*
D02*
G37*
G36*
X177580Y35906D02*
Y26242D01*
X183410D01*
Y28972D01*
X183168Y30810D01*
X182459Y32523D01*
X181331Y33993D01*
X179860Y35122D01*
X178147Y35831D01*
X177580Y35906D01*
D02*
G37*
G36*
X175040D02*
X174472Y35831D01*
X172759Y35122D01*
X171289Y33993D01*
X170160Y32523D01*
X169451Y30810D01*
X169209Y28972D01*
Y26242D01*
X175040D01*
Y35906D01*
D02*
G37*
G36*
X376870Y31812D02*
X371600D01*
Y26042D01*
X376870D01*
Y31812D01*
D02*
G37*
G36*
X369060D02*
X363790D01*
Y26042D01*
X369060D01*
Y31812D01*
D02*
G37*
G36*
X300870D02*
X295600D01*
Y26042D01*
X300870D01*
Y31812D01*
D02*
G37*
G36*
X293060D02*
X287790D01*
Y26042D01*
X293060D01*
Y31812D01*
D02*
G37*
G36*
X591646Y65550D02*
X590154D01*
X588776Y64979D01*
X587721Y63924D01*
X587150Y62546D01*
Y61054D01*
X587721Y59676D01*
X588555Y58842D01*
Y56996D01*
X586440D01*
Y49566D01*
X586440Y48396D01*
X586440Y47126D01*
Y39696D01*
X588595D01*
Y36900D01*
X585440D01*
Y25900D01*
X596440D01*
Y36900D01*
X593285D01*
Y39696D01*
X595440D01*
Y47126D01*
X595440Y48296D01*
X595440Y49566D01*
Y56996D01*
X593245D01*
Y58842D01*
X594079Y59676D01*
X594650Y61054D01*
Y62546D01*
X594079Y63924D01*
X593024Y64979D01*
X591646Y65550D01*
D02*
G37*
G36*
X575906D02*
X574414D01*
X573036Y64979D01*
X571981Y63924D01*
X571410Y62546D01*
Y61054D01*
X571981Y59676D01*
X572815Y58842D01*
Y56996D01*
X570700D01*
Y49566D01*
X570700Y48396D01*
X570700Y47126D01*
Y39696D01*
X572855D01*
Y36900D01*
X569700D01*
Y25900D01*
X580700D01*
Y36900D01*
X577545D01*
Y39696D01*
X579700D01*
Y47126D01*
X579700Y48296D01*
X579700Y49566D01*
Y56996D01*
X577505D01*
Y58842D01*
X578339Y59676D01*
X578910Y61054D01*
Y62546D01*
X578339Y63924D01*
X577284Y64979D01*
X575906Y65550D01*
D02*
G37*
G36*
X508870Y24862D02*
X503100D01*
Y18592D01*
X508870D01*
Y24862D01*
D02*
G37*
G36*
X492370D02*
X486600D01*
Y18592D01*
X492370D01*
Y24862D01*
D02*
G37*
G36*
X434870D02*
X429100D01*
Y18592D01*
X434870D01*
Y24862D01*
D02*
G37*
G36*
X451370D02*
X445600D01*
Y18592D01*
X451370D01*
Y24862D01*
D02*
G37*
G36*
X393870D02*
X388100D01*
Y18592D01*
X393870D01*
Y24862D01*
D02*
G37*
G36*
X549870D02*
X544100D01*
Y18592D01*
X549870D01*
Y24862D01*
D02*
G37*
G36*
X541559D02*
X535790D01*
Y18592D01*
X541559D01*
Y24862D01*
D02*
G37*
G36*
X443060D02*
X437290D01*
Y18592D01*
X443060D01*
Y24862D01*
D02*
G37*
G36*
X385560D02*
X379790D01*
Y18592D01*
X385560D01*
Y24862D01*
D02*
G37*
G36*
X484060D02*
X478290D01*
Y18592D01*
X484060D01*
Y24862D01*
D02*
G37*
G36*
X426560D02*
X420790D01*
Y18592D01*
X426560D01*
Y24862D01*
D02*
G37*
G36*
X500560D02*
X494790D01*
Y18592D01*
X500560D01*
Y24862D01*
D02*
G37*
G36*
X279530Y22970D02*
X274260D01*
Y17700D01*
X279530D01*
Y22970D01*
D02*
G37*
G36*
X597480Y22940D02*
X592210D01*
Y17670D01*
X597480D01*
Y22940D01*
D02*
G37*
G36*
X589670D02*
X584400D01*
Y17670D01*
X589670D01*
Y22940D01*
D02*
G37*
G36*
X566000D02*
X560730D01*
Y17670D01*
X566000D01*
Y22940D01*
D02*
G37*
G36*
X558190D02*
X552920D01*
Y17670D01*
X558190D01*
Y22940D01*
D02*
G37*
G36*
X581740D02*
X576470D01*
Y17670D01*
X581740D01*
Y22940D01*
D02*
G37*
G36*
X573930D02*
X568660D01*
Y17670D01*
X573930D01*
Y22940D01*
D02*
G37*
G36*
X348523Y28082D02*
X346136D01*
X343931Y27169D01*
X342243Y25481D01*
X341330Y23276D01*
Y20889D01*
X342243Y18684D01*
X343931Y16996D01*
X346136Y16082D01*
X348523D01*
X350728Y16996D01*
X352416Y18684D01*
X353330Y20889D01*
Y23276D01*
X352416Y25481D01*
X350728Y27169D01*
X348523Y28082D01*
D02*
G37*
G36*
X318523D02*
X316136D01*
X313931Y27169D01*
X312243Y25481D01*
X311330Y23276D01*
Y20889D01*
X312243Y18684D01*
X313931Y16996D01*
X316136Y16082D01*
X318523D01*
X320728Y16996D01*
X322416Y18684D01*
X323330Y20889D01*
Y23276D01*
X322416Y25481D01*
X320728Y27169D01*
X318523Y28082D01*
D02*
G37*
G36*
X261540Y23702D02*
X255709D01*
Y20972D01*
X255951Y19135D01*
X256660Y17422D01*
X257789Y15951D01*
X259259Y14823D01*
X260972Y14114D01*
X261540Y14039D01*
Y23702D01*
D02*
G37*
G36*
X175040D02*
X169209D01*
Y20972D01*
X169451Y19135D01*
X170160Y17422D01*
X171289Y15951D01*
X172759Y14823D01*
X174472Y14114D01*
X175040Y14039D01*
Y23702D01*
D02*
G37*
G36*
X269910D02*
X264080D01*
Y14039D01*
X264648Y14114D01*
X266360Y14823D01*
X267831Y15951D01*
X268959Y17422D01*
X269668Y19135D01*
X269910Y20972D01*
Y23702D01*
D02*
G37*
G36*
X183410D02*
X177580D01*
Y14039D01*
X178147Y14114D01*
X179860Y14823D01*
X181331Y15951D01*
X182459Y17422D01*
X183168Y19135D01*
X183410Y20972D01*
Y23702D01*
D02*
G37*
G36*
X376870Y18122D02*
X371600D01*
Y12352D01*
X376870D01*
Y18122D01*
D02*
G37*
G36*
X369060D02*
X363790D01*
Y12352D01*
X369060D01*
Y18122D01*
D02*
G37*
G36*
X295600D02*
Y12352D01*
X300870D01*
Y18122D01*
X295600D01*
D02*
G37*
G36*
X418370Y16362D02*
X408600D01*
Y12342D01*
X418370D01*
Y16362D01*
D02*
G37*
G36*
X475870D02*
X466100D01*
Y12342D01*
X475870D01*
Y16362D01*
D02*
G37*
G36*
X533370D02*
X523599D01*
Y12342D01*
X533370D01*
Y16362D01*
D02*
G37*
G36*
X521059D02*
X511290D01*
Y12342D01*
X521059D01*
Y16362D01*
D02*
G37*
G36*
X406060D02*
X396290D01*
Y12342D01*
X406060D01*
Y16362D01*
D02*
G37*
G36*
X463560D02*
X453790D01*
Y12342D01*
X463560D01*
Y16362D01*
D02*
G37*
G36*
X656610Y20861D02*
X637810D01*
X637049Y20709D01*
X636404Y20278D01*
X635973Y19633D01*
X635821Y18872D01*
Y13772D01*
X635973Y13011D01*
X636404Y12366D01*
X637049Y11935D01*
X637810Y11784D01*
X656610D01*
X657371Y11935D01*
X658016Y12366D01*
X658447Y13011D01*
X658598Y13772D01*
Y18872D01*
X658447Y19633D01*
X658016Y20278D01*
X657371Y20709D01*
X656610Y20861D01*
D02*
G37*
G36*
X632462Y18016D02*
X617730D01*
Y11158D01*
X632462D01*
Y18016D01*
D02*
G37*
G36*
X615190D02*
X600458D01*
Y11158D01*
X615190D01*
Y18016D01*
D02*
G37*
G36*
X279530Y15160D02*
X274260D01*
Y9890D01*
X279530D01*
Y15160D01*
D02*
G37*
G36*
X597480Y15130D02*
X592210D01*
Y9860D01*
X597480D01*
Y15130D01*
D02*
G37*
G36*
X589670D02*
X584400D01*
Y9860D01*
X589670D01*
Y15130D01*
D02*
G37*
G36*
X581740Y15130D02*
X576470D01*
Y9860D01*
X581740D01*
Y15130D01*
D02*
G37*
G36*
X573930D02*
X568660D01*
Y9860D01*
X573930D01*
Y15130D01*
D02*
G37*
G36*
X566000Y15130D02*
X560730D01*
Y9860D01*
X566000D01*
Y15130D01*
D02*
G37*
G36*
X558190D02*
X552920D01*
Y9860D01*
X558190D01*
Y15130D01*
D02*
G37*
G36*
X549870Y16052D02*
X544100D01*
Y9782D01*
X549870D01*
Y16052D01*
D02*
G37*
G36*
X541559D02*
X535790D01*
Y9782D01*
X541559D01*
Y16052D01*
D02*
G37*
G36*
X508870D02*
X503100D01*
Y9782D01*
X508870D01*
Y16052D01*
D02*
G37*
G36*
X500560D02*
X494790D01*
Y9782D01*
X500560D01*
Y16052D01*
D02*
G37*
G36*
X492370D02*
X486600D01*
Y9782D01*
X492370D01*
Y16052D01*
D02*
G37*
G36*
X484060D02*
X478290D01*
Y9782D01*
X484060D01*
Y16052D01*
D02*
G37*
G36*
X451370D02*
X445600D01*
Y9782D01*
X451370D01*
Y16052D01*
D02*
G37*
G36*
X443060D02*
X437290D01*
Y9782D01*
X443060D01*
Y16052D01*
D02*
G37*
G36*
X434870D02*
X429100D01*
Y9782D01*
X434870D01*
Y16052D01*
D02*
G37*
G36*
X426560D02*
X420790D01*
Y9782D01*
X426560D01*
Y16052D01*
D02*
G37*
G36*
X393870D02*
X388100D01*
Y9782D01*
X393870D01*
Y16052D01*
D02*
G37*
G36*
X385560D02*
X379790D01*
Y9782D01*
X385560D01*
Y16052D01*
D02*
G37*
G36*
X533370Y9802D02*
X523599D01*
Y5782D01*
X533370D01*
Y9802D01*
D02*
G37*
G36*
X521059D02*
X511290D01*
Y5782D01*
X521059D01*
Y9802D01*
D02*
G37*
G36*
X475870D02*
X466100D01*
Y5782D01*
X475870D01*
Y9802D01*
D02*
G37*
G36*
X463560D02*
X453790D01*
Y5782D01*
X463560D01*
Y9802D01*
D02*
G37*
G36*
X418370D02*
X408600D01*
Y5782D01*
X418370D01*
Y9802D01*
D02*
G37*
G36*
X406060D02*
X396290D01*
Y5782D01*
X406060D01*
Y9802D01*
D02*
G37*
G36*
X376870Y9812D02*
X371600D01*
Y4042D01*
X376870D01*
Y9812D01*
D02*
G37*
G36*
X369060D02*
X363790D01*
Y4042D01*
X369060D01*
Y9812D01*
D02*
G37*
G36*
X300870D02*
X295600D01*
Y4042D01*
X300870D01*
Y9812D01*
D02*
G37*
G36*
X287340Y22970D02*
X282070D01*
Y16430D01*
Y9890D01*
X286520D01*
X287340Y9890D01*
X287790Y8806D01*
Y4042D01*
X293060D01*
Y11082D01*
Y18122D01*
X288610D01*
X287790Y18122D01*
X287340Y19206D01*
Y22970D01*
D02*
G37*
%LPD*%
G36*
X537355Y610758D02*
X536521Y609924D01*
X535950Y608546D01*
Y607054D01*
X536521Y605676D01*
X537576Y604621D01*
X538954Y604050D01*
X540446D01*
X541824Y604621D01*
X542185Y604982D01*
X543455Y604456D01*
Y594518D01*
X515040D01*
Y601402D01*
X506500D01*
Y603942D01*
X515040D01*
Y610632D01*
Y617902D01*
X506500D01*
Y620442D01*
X515040D01*
Y627132D01*
Y634402D01*
X506500D01*
Y635672D01*
X505230D01*
Y644212D01*
X491270D01*
Y635672D01*
X490000D01*
Y634402D01*
X481460D01*
Y627712D01*
X474770D01*
Y619172D01*
X473500D01*
Y617902D01*
X464960D01*
Y610632D01*
Y603942D01*
X473500D01*
Y601402D01*
X464960D01*
Y594132D01*
X466407D01*
X466933Y592862D01*
X457993Y583922D01*
X456814D01*
X455435Y583352D01*
X454380Y582297D01*
X453810Y580918D01*
Y579426D01*
X454380Y578048D01*
X455435Y576993D01*
X456814Y576422D01*
X458197D01*
X458438Y576137D01*
X458840Y575269D01*
X457993Y574422D01*
X456814D01*
X455435Y573852D01*
X454380Y572797D01*
X453810Y571418D01*
Y569926D01*
X454380Y568548D01*
X455435Y567493D01*
X456174Y567187D01*
X455921Y565917D01*
X452005D01*
Y654356D01*
X453275Y655204D01*
X453714Y655022D01*
X455205D01*
X456584Y655593D01*
X457639Y656648D01*
X458210Y658027D01*
Y659518D01*
X457639Y660897D01*
X456584Y661952D01*
X455205Y662522D01*
X453714D01*
X453275Y662340D01*
X452005Y663189D01*
Y670117D01*
X496731D01*
X497565Y669283D01*
X498944Y668712D01*
X500435D01*
X501814Y669283D01*
X502869Y670338D01*
X503440Y671717D01*
Y673208D01*
X502869Y674587D01*
X501968Y675487D01*
X502093Y676214D01*
X502357Y676757D01*
X537355D01*
Y610758D01*
D02*
G37*
G36*
X401355Y523732D02*
X401355Y523732D01*
X401534Y522835D01*
X402042Y522074D01*
X420155Y503960D01*
X419629Y502690D01*
X419147D01*
X417387Y501961D01*
X416039Y500613D01*
X415442Y499170D01*
X420100D01*
Y496630D01*
X415442D01*
X416039Y495187D01*
X416596Y494630D01*
X417351Y493800D01*
X416596Y492971D01*
X416039Y492413D01*
X415442Y490970D01*
X420100D01*
Y488430D01*
X415442D01*
X416039Y486987D01*
X416965Y486061D01*
X417250Y485250D01*
X416965Y484439D01*
X416039Y483513D01*
X415442Y482070D01*
X420100D01*
Y479530D01*
X415442D01*
X416039Y478087D01*
X417150Y476976D01*
X417290Y476219D01*
X417150Y475463D01*
X416039Y474352D01*
X415442Y472908D01*
X420100D01*
Y471638D01*
X421370D01*
Y466980D01*
X421885Y467193D01*
X423155Y466344D01*
Y447097D01*
X421885Y446249D01*
X421370Y446462D01*
Y441804D01*
X420100D01*
Y440533D01*
X415442D01*
X416039Y439090D01*
X417387Y437743D01*
X417515Y437690D01*
Y436315D01*
X417387Y436262D01*
X416039Y434915D01*
X415310Y433154D01*
Y431619D01*
X414060Y431572D01*
X414040Y431572D01*
X399060D01*
Y410572D01*
X414060D01*
Y413900D01*
X415310Y413947D01*
X416039Y412187D01*
X417387Y410839D01*
X418777Y410263D01*
Y408937D01*
X417387Y408361D01*
X416039Y407013D01*
X415442Y405570D01*
X420100D01*
Y404300D01*
X421370D01*
Y399641D01*
X421885Y399855D01*
X423155Y399006D01*
Y384079D01*
X421885Y383438D01*
X420870Y383859D01*
Y379200D01*
Y374542D01*
X421885Y374962D01*
X423155Y374322D01*
Y372158D01*
X422321Y371324D01*
X421750Y369946D01*
Y368454D01*
X422321Y367076D01*
X422548Y366848D01*
X422023Y365578D01*
X367638D01*
Y386151D01*
X368060Y386572D01*
X369060D01*
X369330Y386572D01*
X377790D01*
X378060Y386572D01*
X379060D01*
X379330Y386572D01*
X388020D01*
Y385532D01*
X392290D01*
Y395822D01*
Y406112D01*
X388020D01*
Y405072D01*
X385945D01*
Y407454D01*
X386779Y408288D01*
X387350Y409666D01*
Y411158D01*
X386779Y412537D01*
X385724Y413591D01*
X384346Y414162D01*
X382854D01*
X381475Y413591D01*
X380420Y412537D01*
X379850Y411158D01*
Y409666D01*
X380420Y408288D01*
X381255Y407454D01*
Y405072D01*
X379330D01*
X379060Y405072D01*
X378060D01*
X377790Y405072D01*
X375995D01*
Y407454D01*
X376829Y408288D01*
X377400Y409666D01*
Y411158D01*
X376829Y412537D01*
X375774Y413591D01*
X374395Y414162D01*
X372904D01*
X371525Y413591D01*
X370471Y412537D01*
X369900Y411158D01*
Y409666D01*
X370471Y408288D01*
X371305Y407454D01*
Y405072D01*
X369330D01*
X369060Y405072D01*
X368060D01*
X367790Y405072D01*
X360782D01*
X360228Y406342D01*
X360867Y407885D01*
X361124Y409843D01*
Y448800D01*
X360867Y450758D01*
X360111Y452583D01*
X359558Y453303D01*
X360120Y454441D01*
Y459222D01*
X361390D01*
Y460492D01*
X371839D01*
Y460760D01*
X371603Y461951D01*
X370928Y462961D01*
X370677Y463128D01*
X370623Y463400D01*
X370779Y464185D01*
Y467260D01*
X371135Y467694D01*
X373186D01*
X374023Y466739D01*
X373853Y465451D01*
Y439372D01*
X374197Y436762D01*
X375205Y434329D01*
X376808Y432240D01*
X378896Y430637D01*
X381329Y429630D01*
X383940Y429286D01*
X386550Y429630D01*
X388983Y430637D01*
X391072Y432240D01*
X392675Y434329D01*
X393682Y436762D01*
X394026Y439372D01*
Y446933D01*
X395389D01*
X395688Y446810D01*
X399400D01*
Y445893D01*
X406258D01*
Y455672D01*
X407528D01*
D01*
X406258D01*
Y465451D01*
X399400D01*
Y464535D01*
X395688D01*
X395389Y464411D01*
X394026D01*
Y465451D01*
X393856Y466739D01*
X394694Y467694D01*
X397360D01*
Y467472D01*
X406360D01*
Y476072D01*
X406360D01*
Y476172D01*
X406360D01*
Y484772D01*
X404205D01*
Y517045D01*
X404026Y517942D01*
X403518Y518703D01*
X399855Y522366D01*
Y563462D01*
X401355D01*
Y523732D01*
D02*
G37*
G36*
X270790Y476421D02*
Y468761D01*
X269750D01*
Y464691D01*
X275290D01*
Y463421D01*
X276560D01*
Y458081D01*
X280830D01*
Y460262D01*
X281364Y460443D01*
X282100Y460474D01*
X282858Y459339D01*
X284171Y458461D01*
X285721Y458153D01*
X286020D01*
Y463471D01*
X288560D01*
Y458153D01*
X288859D01*
X290408Y458461D01*
X291722Y459339D01*
X292599Y460653D01*
X292827Y461796D01*
X294057Y462141D01*
X294718Y461350D01*
X294600Y460760D01*
Y457685D01*
X294756Y456900D01*
X295201Y456234D01*
X295867Y455789D01*
X296490Y455665D01*
X296425Y455172D01*
Y449682D01*
X296435Y449606D01*
Y430878D01*
X284306D01*
X284002Y431405D01*
X282605Y432802D01*
X280895Y433789D01*
X278988Y434300D01*
X277013D01*
X275105Y433789D01*
X273395Y432802D01*
X271999Y431405D01*
X271011Y429695D01*
X270500Y427788D01*
Y425813D01*
X271011Y423905D01*
X271999Y422195D01*
X273395Y420799D01*
X275105Y419811D01*
X277013Y419300D01*
X278988D01*
X280895Y419811D01*
X282605Y420799D01*
X284002Y422195D01*
X284306Y422722D01*
X296435D01*
Y403012D01*
X296693Y401054D01*
X297050Y400191D01*
X295973Y399472D01*
X290884Y404561D01*
X289561Y405445D01*
X288000Y405756D01*
X288000Y405756D01*
X284306D01*
X284002Y406283D01*
X282605Y407679D01*
X280895Y408666D01*
X278988Y409178D01*
X277013D01*
X275105Y408666D01*
X273395Y407679D01*
X271999Y406283D01*
X271011Y404572D01*
X270500Y402665D01*
Y400690D01*
X271011Y398783D01*
X271999Y397072D01*
X273395Y395676D01*
X275105Y394689D01*
X277013Y394178D01*
X278988D01*
X280895Y394689D01*
X282605Y395676D01*
X284002Y397072D01*
X284306Y397599D01*
X286311D01*
X305494Y378416D01*
X305494Y378416D01*
X306817Y377532D01*
X308377Y377222D01*
X308378Y377222D01*
X350630D01*
X350631Y377222D01*
X352191Y377532D01*
X353515Y378416D01*
X356443Y381345D01*
X356443Y381345D01*
X357327Y382668D01*
X357638Y384229D01*
Y385390D01*
X357765Y385504D01*
X359119Y385789D01*
X359481Y385477D01*
Y365578D01*
X262818D01*
X262278Y366118D01*
Y476494D01*
X269550D01*
X270790Y476421D01*
D02*
G37*
G36*
X413729Y557199D02*
X413732Y555858D01*
X413460Y555712D01*
X413460Y555617D01*
X413460Y555617D01*
Y550442D01*
X420000D01*
Y549172D01*
X421270D01*
Y542632D01*
X426444D01*
X426444Y542632D01*
X426540D01*
X426685Y542905D01*
X428027Y542902D01*
X428154Y542774D01*
Y516102D01*
X428154Y516102D01*
X428333Y515205D01*
X428841Y514444D01*
X436355Y506931D01*
Y430829D01*
X435085Y430150D01*
X435045Y430177D01*
Y504272D01*
X435045Y504272D01*
X434867Y505169D01*
X434358Y505930D01*
X410645Y529644D01*
Y557327D01*
X413602D01*
X413729Y557199D01*
D02*
G37*
G36*
X445455Y506151D02*
Y409735D01*
X444570Y409144D01*
Y404300D01*
X442030D01*
Y409036D01*
X441045Y409694D01*
Y507902D01*
X441045Y507902D01*
X440867Y508799D01*
X440578Y509232D01*
X441564Y510042D01*
X445455Y506151D01*
D02*
G37*
%LPC*%
G36*
X472040Y640212D02*
X468960D01*
Y637132D01*
X472040Y640212D01*
D02*
G37*
G36*
X515040Y644212D02*
X507770D01*
Y636942D01*
X515040D01*
Y644212D01*
D02*
G37*
G36*
X488730D02*
X481460D01*
Y636942D01*
X488730D01*
Y644212D01*
D02*
G37*
G36*
X528670Y628459D02*
Y625070D01*
X532059D01*
X531461Y626513D01*
X530113Y627861D01*
X528670Y628459D01*
D02*
G37*
G36*
X526130D02*
X524687Y627861D01*
X523339Y626513D01*
X522742Y625070D01*
X526130D01*
Y628459D01*
D02*
G37*
G36*
X472230Y627712D02*
X464960D01*
Y620442D01*
X472230D01*
Y627712D01*
D02*
G37*
G36*
X532059Y622530D02*
X528670D01*
Y619142D01*
X530113Y619739D01*
X531461Y621087D01*
X532059Y622530D01*
D02*
G37*
G36*
X526130D02*
X522742D01*
X523339Y621087D01*
X524687Y619739D01*
X526130Y619142D01*
Y622530D01*
D02*
G37*
G36*
X460705Y646022D02*
X459214D01*
X457835Y645451D01*
X456781Y644397D01*
X456210Y643018D01*
Y641526D01*
X456781Y640148D01*
X457615Y639314D01*
Y595622D01*
X456814D01*
X455435Y595051D01*
X454380Y593997D01*
X453810Y592618D01*
Y591127D01*
X454380Y589748D01*
X455435Y588693D01*
X456814Y588122D01*
X458306D01*
X459684Y588693D01*
X460739Y589748D01*
X461310Y591127D01*
Y592543D01*
X461618Y592851D01*
X461618Y592851D01*
X462126Y593612D01*
X462305Y594510D01*
Y639314D01*
X463139Y640148D01*
X463710Y641526D01*
Y643018D01*
X463139Y644397D01*
X462084Y645451D01*
X460705Y646022D01*
D02*
G37*
G36*
X418830Y470368D02*
X415442D01*
X416039Y468925D01*
X417387Y467577D01*
X418830Y466980D01*
Y470368D01*
D02*
G37*
G36*
X415656Y465451D02*
X408798D01*
Y456942D01*
X415656D01*
Y465451D01*
D02*
G37*
G36*
X371839Y457952D02*
X362660D01*
Y454573D01*
X368727D01*
X369918Y454809D01*
X370928Y455484D01*
X371603Y456494D01*
X371839Y457685D01*
Y457952D01*
D02*
G37*
G36*
X415656Y454402D02*
X408798D01*
Y445893D01*
X415620D01*
X416493Y444970D01*
X416039Y444517D01*
X415442Y443074D01*
X418830D01*
Y446462D01*
X417387Y445864D01*
X416579Y445056D01*
X415656Y445929D01*
Y454402D01*
D02*
G37*
G36*
X418830Y403030D02*
X415442D01*
X416039Y401587D01*
X417387Y400239D01*
X418830Y399641D01*
Y403030D01*
D02*
G37*
G36*
X399100Y406112D02*
X394830D01*
Y397092D01*
X399100D01*
Y406112D01*
D02*
G37*
G36*
Y394552D02*
X394830D01*
Y385532D01*
X399100D01*
Y394552D01*
D02*
G37*
G36*
X418330Y383859D02*
X416887Y383261D01*
X415539Y381913D01*
X414941Y380470D01*
X418330D01*
Y383859D01*
D02*
G37*
G36*
X406170D02*
Y380470D01*
X409559D01*
X408961Y381913D01*
X407613Y383261D01*
X406170Y383859D01*
D02*
G37*
G36*
X403630D02*
X402187Y383261D01*
X400839Y381913D01*
X400242Y380470D01*
X403630D01*
Y383859D01*
D02*
G37*
G36*
X391470D02*
Y380470D01*
X394859D01*
X394261Y381913D01*
X392913Y383261D01*
X391470Y383859D01*
D02*
G37*
G36*
X388930D02*
X387487Y383261D01*
X386139Y381913D01*
X385541Y380470D01*
X388930D01*
Y383859D01*
D02*
G37*
G36*
X376770D02*
Y380470D01*
X380159D01*
X379561Y381913D01*
X378213Y383261D01*
X376770Y383859D01*
D02*
G37*
G36*
X374230D02*
X372787Y383261D01*
X371439Y381913D01*
X370841Y380470D01*
X374230D01*
Y383859D01*
D02*
G37*
G36*
X418330Y377930D02*
X414941D01*
X415539Y376487D01*
X416887Y375139D01*
X418330Y374542D01*
Y377930D01*
D02*
G37*
G36*
X409559D02*
X406170D01*
Y374542D01*
X407613Y375139D01*
X408961Y376487D01*
X409559Y377930D01*
D02*
G37*
G36*
X403630D02*
X400242D01*
X400839Y376487D01*
X402187Y375139D01*
X403630Y374542D01*
Y377930D01*
D02*
G37*
G36*
X394859D02*
X391470D01*
Y374542D01*
X392913Y375139D01*
X394261Y376487D01*
X394859Y377930D01*
D02*
G37*
G36*
X388930D02*
X385541D01*
X386139Y376487D01*
X387487Y375139D01*
X388930Y374542D01*
Y377930D01*
D02*
G37*
G36*
X380159D02*
X376770D01*
Y374542D01*
X378213Y375139D01*
X379561Y376487D01*
X380159Y377930D01*
D02*
G37*
G36*
X374230D02*
X370841D01*
X371439Y376487D01*
X372787Y375139D01*
X374230Y374542D01*
Y377930D01*
D02*
G37*
G36*
X274020Y462151D02*
X269750D01*
Y458081D01*
X274020D01*
Y462151D01*
D02*
G37*
G36*
X288670Y455859D02*
Y452470D01*
X292059D01*
X291461Y453913D01*
X290113Y455261D01*
X288670Y455859D01*
D02*
G37*
G36*
X286130D02*
X284687Y455261D01*
X283339Y453913D01*
X282742Y452470D01*
X286130D01*
Y455859D01*
D02*
G37*
G36*
X292059Y449930D02*
X288670D01*
Y446542D01*
X290113Y447139D01*
X291461Y448487D01*
X292059Y449930D01*
D02*
G37*
G36*
X286130D02*
X282742D01*
X283339Y448487D01*
X284687Y447139D01*
X286130Y446542D01*
Y449930D01*
D02*
G37*
G36*
X418730Y547902D02*
X413460D01*
Y542632D01*
X418730D01*
Y547902D01*
D02*
G37*
G36*
X421330Y537531D02*
Y534142D01*
X424718D01*
X424120Y535586D01*
X422773Y536933D01*
X421330Y537531D01*
D02*
G37*
G36*
X418790D02*
X417346Y536933D01*
X415999Y535586D01*
X415401Y534142D01*
X418790D01*
Y537531D01*
D02*
G37*
G36*
X424718Y531602D02*
X421330D01*
Y528214D01*
X422773Y528812D01*
X424120Y530159D01*
X424718Y531602D01*
D02*
G37*
G36*
X418790D02*
X415401D01*
X415999Y530159D01*
X417346Y528812D01*
X418790Y528214D01*
Y531602D01*
D02*
G37*
%LPD*%
D12*
X692750Y498632D02*
X692860Y498742D01*
X397510Y579962D02*
Y580262D01*
X397510Y567912D02*
X397559Y567962D01*
X417999Y593672D02*
X420000D01*
D16*
X170700Y524772D02*
D03*
X197600D02*
D03*
X754260D02*
D03*
X803060D02*
D03*
X778660D02*
D03*
X669400Y401678D02*
D03*
Y426800D02*
D03*
X278000D02*
D03*
Y401678D02*
D03*
X579200Y627700D02*
D03*
X600500D02*
D03*
X579160Y652922D02*
D03*
X600460Y652772D02*
D03*
X489860Y497172D02*
D03*
X532793D02*
D03*
X554260D02*
D03*
X511326D02*
D03*
D17*
X860000Y606800D02*
D03*
X833000D02*
D03*
X806000D02*
D03*
X779000D02*
D03*
X201000D02*
D03*
X174000D02*
D03*
X147000D02*
D03*
X120000D02*
D03*
D18*
X664900Y731700D02*
D03*
Y758700D02*
D03*
Y785700D02*
D03*
Y812700D02*
D03*
X315100D02*
D03*
Y785700D02*
D03*
Y758700D02*
D03*
Y731700D02*
D03*
D19*
X584546Y816894D02*
D03*
X570039Y839666D02*
D03*
X555532Y862437D02*
D03*
X541024Y885209D02*
D03*
D20*
X438976Y885209D02*
D03*
X424469Y862437D02*
D03*
X409962Y839666D02*
D03*
X395454Y816894D02*
D03*
D21*
X559460Y31400D02*
D03*
Y16400D02*
D03*
X575200Y31400D02*
D03*
Y16400D02*
D03*
X590940Y31400D02*
D03*
Y16400D02*
D03*
X280800Y31430D02*
D03*
Y16430D02*
D03*
D22*
X734000Y79500D02*
D03*
X719000D02*
D03*
X420000Y689172D02*
D03*
Y549172D02*
D03*
X560000Y689172D02*
D03*
Y549172D02*
D03*
D23*
X294330Y33082D02*
D03*
Y11082D02*
D03*
X370330D02*
D03*
Y33082D02*
D03*
D24*
X354830Y42832D02*
D03*
X339830D02*
D03*
X309830D02*
D03*
D25*
X571480Y517637D02*
D03*
Y526338D02*
D03*
X275290Y463421D02*
D03*
X462500Y446772D02*
D03*
X589830Y463422D02*
D03*
X280800Y64696D02*
D03*
Y43996D02*
D03*
Y52696D02*
D03*
X590940D02*
D03*
Y43996D02*
D03*
X575200Y52696D02*
D03*
Y43996D02*
D03*
X559500Y52696D02*
D03*
Y43996D02*
D03*
X385460Y623427D02*
D03*
Y632127D02*
D03*
X385460Y652972D02*
D03*
Y661672D02*
D03*
X361460Y652972D02*
D03*
Y661672D02*
D03*
X275290Y472121D02*
D03*
X361460Y632077D02*
D03*
Y623377D02*
D03*
X385460Y602272D02*
D03*
Y593572D02*
D03*
X361460Y602272D02*
D03*
Y593572D02*
D03*
X401860Y480472D02*
D03*
Y471772D02*
D03*
X462500Y455472D02*
D03*
X589830Y472122D02*
D03*
X280800Y73396D02*
D03*
X576060Y684322D02*
D03*
Y693022D02*
D03*
D26*
X456000Y549172D02*
D03*
X481500D02*
D03*
X515500D02*
D03*
X524000D02*
D03*
X549500Y689172D02*
D03*
X541000D02*
D03*
X532500D02*
D03*
X524000D02*
D03*
X515500D02*
D03*
X507000D02*
D03*
X498500D02*
D03*
X490000D02*
D03*
X481500D02*
D03*
X473000D02*
D03*
X464500D02*
D03*
X456000D02*
D03*
X447500D02*
D03*
X439000D02*
D03*
X430500D02*
D03*
Y549172D02*
D03*
X439000D02*
D03*
X447500D02*
D03*
X464500D02*
D03*
X473000D02*
D03*
X490000D02*
D03*
X498500D02*
D03*
X507000D02*
D03*
X532500D02*
D03*
X541000D02*
D03*
X549500D02*
D03*
D27*
X560000Y576672D02*
D03*
Y585172D02*
D03*
X420000Y678672D02*
D03*
Y670172D02*
D03*
X560000Y653172D02*
D03*
Y661672D02*
D03*
X420000D02*
D03*
Y653172D02*
D03*
Y644672D02*
D03*
Y636172D02*
D03*
Y627672D02*
D03*
Y619172D02*
D03*
Y610672D02*
D03*
Y602172D02*
D03*
Y593672D02*
D03*
Y585172D02*
D03*
Y576672D02*
D03*
Y568172D02*
D03*
Y559672D02*
D03*
X560000D02*
D03*
Y568172D02*
D03*
Y593672D02*
D03*
Y602172D02*
D03*
Y610672D02*
D03*
Y619172D02*
D03*
Y627672D02*
D03*
Y636172D02*
D03*
Y644672D02*
D03*
Y670172D02*
D03*
Y678672D02*
D03*
D28*
X576060Y673272D02*
D03*
Y664672D02*
D03*
X389860Y480372D02*
D03*
X287290Y463471D02*
D03*
X373460Y623477D02*
D03*
X397460D02*
D03*
X373460Y593622D02*
D03*
X397460D02*
D03*
X475660Y525572D02*
D03*
X462960Y525572D02*
D03*
X462460Y436672D02*
D03*
X373460Y653072D02*
D03*
X397460D02*
D03*
X601830Y463472D02*
D03*
X377860Y480272D02*
D03*
Y471672D02*
D03*
X601830Y472072D02*
D03*
X397460Y661672D02*
D03*
X373460D02*
D03*
X462460Y428072D02*
D03*
X389860Y471772D02*
D03*
X692860Y498742D02*
D03*
Y490142D02*
D03*
X377860Y498742D02*
D03*
Y490142D02*
D03*
X287290Y472071D02*
D03*
X373460Y632077D02*
D03*
X397460D02*
D03*
X373460Y602222D02*
D03*
X397460D02*
D03*
X475660Y534172D02*
D03*
X462960Y534172D02*
D03*
D29*
X407528Y455672D02*
D03*
X721628Y435372D02*
D03*
X476792Y411991D02*
D03*
X389592Y455672D02*
D03*
X703692Y435372D02*
D03*
X494728Y411991D02*
D03*
D30*
X490000Y619172D02*
D03*
Y635672D02*
D03*
X506500D02*
D03*
Y619172D02*
D03*
Y602672D02*
D03*
X490000D02*
D03*
X473500D02*
D03*
Y619172D02*
D03*
D31*
X661660Y69272D02*
D03*
X713360Y452172D02*
D03*
X388909Y579962D02*
D03*
X396234Y676884D02*
D03*
X387634D02*
D03*
X653060Y69272D02*
D03*
X704760Y452172D02*
D03*
Y464172D02*
D03*
X713360D02*
D03*
X397509Y579962D02*
D03*
D32*
X616460Y19286D02*
D03*
X524760Y417486D02*
D03*
X616460Y49258D02*
D03*
X524760Y447458D02*
D03*
D33*
X393560Y395822D02*
D03*
X636440D02*
D03*
X343560D02*
D03*
X353560D02*
D03*
X363560D02*
D03*
X373560D02*
D03*
X383560D02*
D03*
X586440D02*
D03*
X596440D02*
D03*
X606440D02*
D03*
X616440D02*
D03*
X626440D02*
D03*
D34*
X303990Y465722D02*
D03*
X361390Y459222D02*
D03*
Y498222D02*
D03*
Y504722D02*
D03*
X618610Y465722D02*
D03*
X676010Y459222D02*
D03*
Y498222D02*
D03*
Y504722D02*
D03*
X303990D02*
D03*
Y498222D02*
D03*
Y491722D02*
D03*
Y485222D02*
D03*
Y478722D02*
D03*
Y472222D02*
D03*
Y459222D02*
D03*
X361390Y465722D02*
D03*
Y472222D02*
D03*
Y478722D02*
D03*
Y485222D02*
D03*
Y491722D02*
D03*
X618610Y504722D02*
D03*
Y498222D02*
D03*
Y491722D02*
D03*
Y485222D02*
D03*
Y478722D02*
D03*
Y472222D02*
D03*
Y459222D02*
D03*
X676010Y465722D02*
D03*
Y472222D02*
D03*
Y478722D02*
D03*
Y485222D02*
D03*
Y491722D02*
D03*
D35*
X522330Y11072D02*
D03*
X464830D02*
D03*
X407330D02*
D03*
D36*
X501830Y17322D02*
D03*
X542830D02*
D03*
X444330D02*
D03*
X485330D02*
D03*
X427830D02*
D03*
X386830D02*
D03*
X427830Y33322D02*
D03*
X386830D02*
D03*
X444330D02*
D03*
X485330D02*
D03*
X501830D02*
D03*
X542830D02*
D03*
D37*
X364574Y707472D02*
D03*
X394546D02*
D03*
D38*
X388859Y567962D02*
D03*
X691410Y69276D02*
D03*
X700110D02*
D03*
X746880Y79455D02*
D03*
X755580D02*
D03*
X397560Y567962D02*
D03*
X375384Y676880D02*
D03*
X366684D02*
D03*
X371710Y546472D02*
D03*
X363010D02*
D03*
X371710Y534522D02*
D03*
X363010D02*
D03*
X593230Y488972D02*
D03*
X601930D02*
D03*
X278710D02*
D03*
X287410D02*
D03*
X471010Y467372D02*
D03*
X462310D02*
D03*
D39*
X219560Y93922D02*
D03*
X216060Y83522D02*
D03*
X223060D02*
D03*
D40*
X647210Y16322D02*
D03*
Y29022D02*
D03*
Y41722D02*
D03*
Y54422D02*
D03*
X696710D02*
D03*
Y41722D02*
D03*
Y29022D02*
D03*
Y16322D02*
D03*
D41*
X330560Y421072D02*
D03*
X406560D02*
D03*
X573440D02*
D03*
X649440D02*
D03*
D71*
X347330Y22082D02*
D03*
X317330D02*
D03*
D83*
X332690Y481972D02*
D03*
X647310D02*
D03*
D84*
X473500Y635672D02*
D03*
D85*
X485760Y441472D02*
D03*
D86*
X496260Y444722D02*
D03*
X475260Y431722D02*
D03*
Y438222D02*
D03*
Y444722D02*
D03*
Y451222D02*
D03*
X496260D02*
D03*
Y438222D02*
D03*
Y431722D02*
D03*
D87*
X599900Y361500D02*
X603511D01*
X599900Y74729D02*
Y361500D01*
X363700D02*
X599900D01*
X564603Y71800D02*
X596971D01*
X599900Y74729D01*
X683900Y812700D02*
Y859732D01*
X495760Y451222D02*
Y452953D01*
X475760Y451222D02*
Y452953D01*
X556472Y895994D02*
Y911687D01*
X489200Y915130D02*
X553029D01*
X556472Y911687D01*
Y895994D02*
X557049Y895417D01*
X426500Y923600D02*
X434970Y915130D01*
X489200D01*
Y811700D02*
Y915130D01*
X119959Y563400D02*
X258200D01*
X120000Y563441D02*
Y606800D01*
X664900Y812700D02*
X683900D01*
X645900D02*
X664900D01*
X779000Y606800D02*
Y692770D01*
Y587800D02*
Y606800D01*
X541024Y885209D02*
X550723Y891388D01*
X531326Y879030D02*
X541024Y885209D01*
X261129Y361500D02*
X363700D01*
X86600Y563400D02*
X119959D01*
X75000Y575000D02*
X86600Y563400D01*
X606440Y373689D02*
X606440Y373689D01*
X603511Y361761D02*
X606440Y364690D01*
Y373689D01*
X606440Y373689D02*
Y395822D01*
X258200Y364429D02*
Y480572D01*
Y364429D02*
X261129Y361500D01*
X363560Y361641D02*
Y395822D01*
X525097Y875062D02*
X531326Y879030D01*
X525000Y875000D02*
X525097Y875062D01*
X779000Y702583D02*
Y774100D01*
Y692770D02*
Y702583D01*
X779583Y702000D02*
X905000D01*
X779000Y702583D02*
X779583Y702000D01*
X576060Y693022D02*
X778748D01*
X779000Y692770D01*
X395454Y816894D02*
X405153Y810715D01*
X385756Y823073D02*
X395454Y816894D01*
X315100Y731700D02*
X334100D01*
X296100D02*
X315100D01*
X482842Y805342D02*
X489200Y811700D01*
X411479Y806686D02*
X412822Y805342D01*
X482842D01*
X557049Y895417D02*
X557049D01*
X550723Y891388D02*
X557049Y895417D01*
X426500Y923600D02*
Y945000D01*
X557132Y895500D02*
X567012D01*
X648215Y895417D02*
X683900Y859732D01*
X557049Y895417D02*
X557132Y895500D01*
X567012D02*
X567095Y895417D01*
X648215D01*
X740400Y812700D02*
X779000Y774100D01*
X683900Y812700D02*
X740400D01*
X258200Y563400D02*
Y622000D01*
X119959Y563400D02*
X120000Y563441D01*
X258200Y480572D02*
Y563400D01*
X379430Y827103D02*
X385756Y823073D01*
X405153Y810715D02*
X411479Y806686D01*
X258200Y480572D02*
X278974D01*
X596440Y395822D02*
Y410139D01*
Y380161D02*
Y395822D01*
X559500Y66697D02*
X564603Y71800D01*
X559500Y52696D02*
Y66697D01*
X272700Y49467D02*
X275629Y52396D01*
X280300D01*
X272700Y44596D02*
Y49467D01*
X268062Y39958D02*
X272700Y44596D01*
X247442Y39958D02*
X268062D01*
X240810Y46591D02*
X247442Y39958D01*
X778660Y524772D02*
X788356D01*
X764260Y445572D02*
Y524772D01*
X754260D02*
X764260D01*
X240810Y46591D02*
Y55072D01*
X427860Y661672D02*
X431560Y665372D01*
Y677372D01*
X420000Y661672D02*
X427860D01*
X581810Y480372D02*
X581860Y480422D01*
X592924D01*
X707271Y79800D02*
Y86671D01*
X710200Y89600D01*
X647210Y79800D02*
X707271D01*
X710200Y89600D02*
X752651D01*
X755580Y86671D01*
Y79455D02*
Y86671D01*
X704460Y445379D02*
Y469293D01*
X370386Y471772D02*
X389860D01*
X495760Y413023D02*
Y431722D01*
X278000Y426800D02*
X288000D01*
X303542D01*
X304000Y426342D01*
X350631Y381300D02*
X353560Y384229D01*
X288000Y401678D02*
X308377Y381300D01*
X353560Y384229D02*
Y409843D01*
X308377Y381300D02*
X350631D01*
X278000Y401678D02*
X288000D01*
X669400D02*
X679400D01*
X596440Y380161D02*
X596500Y380100D01*
X669400Y426800D02*
X679400D01*
X586400Y380100D02*
Y395783D01*
X350060Y437260D02*
Y455296D01*
X485700Y459032D02*
X485760Y458972D01*
X471010Y467500D02*
X471310Y467800D01*
X485700D01*
X471010Y467372D02*
Y467500D01*
X485700Y459032D02*
Y467800D01*
X485760Y458972D02*
X489741D01*
X481778D02*
X485760D01*
X711684Y69276D02*
X714613Y66347D01*
X700110Y69276D02*
X711684D01*
X714613Y34872D02*
Y66347D01*
X369613Y686830D02*
X387262D01*
X393058D01*
X394546Y688318D01*
Y691470D02*
Y707472D01*
Y688318D02*
Y691470D01*
X394644Y691372D02*
X404060D01*
X394546Y691470D02*
X394644Y691372D01*
X366684Y683902D02*
X369613Y686830D01*
X366684Y676880D02*
Y683902D01*
X387262Y686830D02*
X387634Y686459D01*
Y676884D02*
Y686459D01*
X504917Y451222D02*
X508681Y447458D01*
X524760D01*
X496260Y451222D02*
X504917D01*
X731283Y412596D02*
X764260Y445572D01*
X698560Y412596D02*
X731283D01*
X349540Y462629D02*
X352633Y465722D01*
X361390D01*
X349540Y455816D02*
Y462629D01*
Y455816D02*
X350060Y455296D01*
X389860Y471772D02*
X401860D01*
X361390Y472222D02*
X369935D01*
X370386Y471772D01*
X497816Y407609D02*
X499474D01*
X494728Y410697D02*
Y411991D01*
Y410697D02*
X497816Y407609D01*
X494728Y411991D02*
X495760Y413023D01*
Y431722D02*
X496260D01*
Y438222D01*
X660150Y447872D02*
Y458672D01*
X667200Y465722D01*
X676010Y472222D02*
X701531D01*
X704460Y469293D01*
X278974Y480572D02*
X289307D01*
X278710Y480836D02*
Y488972D01*
Y480836D02*
X278974Y480572D01*
X592924Y480422D02*
X603998D01*
X593230Y480728D02*
Y488972D01*
X592924Y480422D02*
X593230Y480728D01*
X605698Y478722D02*
X618610D01*
X603998Y480422D02*
X605698Y478722D01*
X291157D02*
X303990D01*
X289307Y480572D02*
X291157Y478722D01*
X489741Y458972D02*
X495760Y452953D01*
Y451222D02*
X496260D01*
X475760Y452953D02*
X481778Y458972D01*
X475260Y451222D02*
X475760D01*
X667200Y465722D02*
X676010D01*
X303990Y456172D02*
Y457002D01*
Y449682D02*
X304000Y449672D01*
X340361Y395982D02*
X343400D01*
X343560Y395822D01*
D88*
X197600Y524772D02*
X208000D01*
X170700D02*
X180700D01*
X316300Y474729D02*
Y518700D01*
X313793Y472222D02*
X316300Y474729D01*
X600500Y627700D02*
X610500D01*
X579200D02*
X589200D01*
X622600Y607600D02*
X673000D01*
X673006Y607594D02*
X673064D01*
X673000Y607600D02*
X673006Y607594D01*
X356610Y645000D02*
X384522D01*
X351060Y643672D02*
X355282D01*
X356610Y645000D01*
X357943Y558291D02*
X383709D01*
X357634Y558600D02*
X357943Y558291D01*
X383709D02*
X383900Y558100D01*
X481500Y549172D02*
Y561000D01*
X298620Y515171D02*
X303990Y509801D01*
Y504722D02*
Y509801D01*
X298620Y515171D02*
Y521732D01*
X420060Y532872D02*
Y549112D01*
X833000Y607600D02*
Y625800D01*
Y587800D02*
Y607600D01*
X615900Y563000D02*
Y677735D01*
X576060Y678672D02*
X614963D01*
X615900Y677735D01*
X432700Y426000D02*
Y504272D01*
X453800Y402000D02*
X460500Y395300D01*
X453800Y402000D02*
Y408500D01*
X460500Y369200D02*
Y395300D01*
X447800Y371496D02*
Y507122D01*
X438970Y515952D02*
Y534172D01*
X449311Y369200D02*
Y369985D01*
X447800Y371496D02*
X449311Y369985D01*
X438970Y515952D02*
X447800Y507122D01*
X438700Y369200D02*
Y507902D01*
X430500Y516102D02*
X438700Y507902D01*
X425500Y369200D02*
Y501932D01*
X403700Y523732D02*
X425500Y501932D01*
X408300Y528672D02*
X432700Y504272D01*
X279180Y522772D02*
X298620Y542212D01*
X219360Y112272D02*
X219560Y112072D01*
Y93922D02*
Y112072D01*
X339760Y39652D02*
Y53972D01*
Y39652D02*
X339830Y39582D01*
X403700Y567235D02*
X404637Y568172D01*
X420000D01*
X403700Y523732D02*
Y567235D01*
X608820Y498222D02*
X618610D01*
X594528Y512514D02*
X608820Y498222D01*
X594528Y512514D02*
Y592305D01*
X601900Y516300D02*
Y607700D01*
X560000Y610672D02*
X598928D01*
X601900Y607700D01*
X262300Y689800D02*
Y770000D01*
X339028Y613072D02*
X384522D01*
X262300Y689800D02*
X339028Y613072D01*
X262300Y770000D02*
X264900Y772600D01*
X355563D01*
X350314Y662722D02*
X358262Y670670D01*
X375434D01*
X490000Y602672D02*
Y619172D01*
X438976Y885209D02*
X447241Y879943D01*
X306198Y585402D02*
X383530D01*
X247000Y644600D02*
X306198Y585402D01*
X174937Y644600D02*
X247000D01*
X174000Y625800D02*
Y643663D01*
X174937Y644600D01*
X229100Y652200D02*
Y797300D01*
X244500Y812700D01*
X296100D01*
X356500Y859694D02*
X380014Y890027D01*
X400354Y877069D02*
X405987Y873989D01*
X380021Y890022D02*
X400354Y877069D01*
X380014Y890027D02*
X380021Y890022D01*
X405987Y873989D02*
X408444Y872646D01*
X554014Y829457D02*
X554014Y829457D01*
X546364Y824344D02*
X554014Y829457D01*
X388900Y783000D02*
X481467D01*
X546364Y824344D01*
X420063Y653236D02*
X431936D01*
X420000Y653172D02*
X420063Y653236D01*
X431936D02*
X432000Y653300D01*
X410810Y653172D02*
X420000D01*
X860000Y606800D02*
Y625800D01*
Y587800D02*
Y606800D01*
X574172Y576672D02*
X574300Y576800D01*
X560000Y576672D02*
X574172D01*
X664900Y731700D02*
X683900D01*
X645900D02*
X664900D01*
X581628Y585172D02*
X587600Y579200D01*
X560000Y585172D02*
X581628D01*
X584546Y816894D02*
X592811Y822160D01*
X576281Y811629D02*
X584546Y816894D01*
X479815Y570400D02*
X548562D01*
X472987Y563572D02*
X479815Y570400D01*
X548562D02*
X549500Y569463D01*
Y549172D02*
Y569463D01*
X549890Y586644D02*
X550827Y587581D01*
X457560Y570672D02*
X473531Y586644D01*
X549890D01*
X550827Y587581D02*
Y601235D01*
X524000Y549172D02*
Y561372D01*
X515500Y549172D02*
Y561372D01*
X430711Y890474D02*
X438976Y885209D01*
X593161Y593672D02*
X594528Y592305D01*
X560000Y593672D02*
X593161D01*
X601900Y516300D02*
X611560Y506641D01*
X539700Y607800D02*
Y677936D01*
X538534Y679102D02*
X539700Y677936D01*
X296100Y812700D02*
X334100D01*
X450597Y563572D02*
X472987D01*
X446900Y533600D02*
X456000Y542700D01*
Y549172D01*
X554014Y829457D02*
X561773Y834400D01*
X578304Y844931D01*
X586063Y849874D01*
X645900Y758700D02*
X683900D01*
X343300Y713800D02*
X388200Y758700D01*
X645900D01*
X343300Y655723D02*
Y713800D01*
X350800Y744900D02*
X388900Y783000D01*
X275900Y744900D02*
X350800D01*
X272900Y741900D02*
X275900Y744900D01*
X272900Y700416D02*
Y741900D01*
X251700Y782400D02*
X255000Y785700D01*
X251700Y680942D02*
Y782400D01*
X255000Y785700D02*
X296100D01*
X251700Y680942D02*
X339070Y593572D01*
X272900Y700416D02*
X349940Y623377D01*
X355563Y772600D02*
X356500Y773537D01*
Y859694D01*
X296100Y785700D02*
X334100D01*
X385460Y614010D02*
Y623427D01*
X384522Y613072D02*
X385460Y614010D01*
X571480Y513047D02*
Y517637D01*
Y513047D02*
X578034Y506492D01*
X581810D01*
X343300Y655723D02*
X346051Y652972D01*
X339070Y593572D02*
X361460D01*
X420000Y576672D02*
X433960D01*
X420000Y585172D02*
X434060D01*
X568521Y806685D02*
X576281Y811629D01*
X592811Y822160D02*
X600570Y827103D01*
X432734Y857172D02*
X440493Y852229D01*
X408444Y872646D02*
X416203Y867703D01*
X432734Y857172D01*
X447241Y879943D02*
X455000Y875000D01*
X422952Y895417D02*
X430711Y890474D01*
X544863Y592172D02*
X545800Y593110D01*
X469560Y592172D02*
X544863D01*
X545800Y593110D02*
Y618252D01*
X457560Y580172D02*
X469560Y592172D01*
X546737Y619189D02*
X559983D01*
X545800Y618252D02*
X546737Y619189D01*
X611560Y505972D02*
X612810Y504722D01*
X618610D01*
X611560Y505972D02*
Y506641D01*
X550827Y601235D02*
X551764Y602172D01*
X560000D01*
X439867Y679102D02*
X538534D01*
X559983Y619189D02*
X560000Y619172D01*
X549500Y689172D02*
X560000D01*
X541000D02*
X549500D01*
X532500D02*
X541000D01*
X524000D02*
X532500D01*
X515500D02*
X524000D01*
X507000D02*
X515500D01*
X498500D02*
X507000D01*
X490000D02*
X498500D01*
X481500D02*
X490000D01*
X473000D02*
X481500D01*
X464500D02*
X473000D01*
X456000D02*
X464500D01*
X447500D02*
X456000D01*
X439000D02*
X447500D01*
X430500D02*
X439000D01*
X420000D02*
X430500D01*
X420000Y678672D02*
Y689172D01*
Y670172D02*
Y678672D01*
X490000Y635672D02*
X506500D01*
X473500Y602672D02*
X490000D01*
X506500D02*
Y619172D01*
X473500D02*
Y635672D01*
X490000D01*
X473500Y619172D02*
X490000D01*
Y602672D02*
X506500D01*
X420000Y549172D02*
X420060Y549112D01*
X288428Y464609D02*
X292690D01*
X287290Y463471D02*
X288428Y464609D01*
X293803Y465722D02*
X303990D01*
X292690Y464609D02*
X293803Y465722D01*
X388909Y585372D02*
X397160Y593622D01*
X397460D01*
X388909Y579962D02*
Y585372D01*
X397460Y653072D02*
X397510Y653022D01*
Y643722D02*
X397560Y643672D01*
X397510Y643722D02*
Y653022D01*
X287345Y451255D02*
X287400Y451200D01*
X287345Y451255D02*
Y463416D01*
X287290Y463471D02*
X287345Y463416D01*
X384522Y645000D02*
X385460Y645937D01*
Y652972D01*
X438400Y677636D02*
X439867Y679102D01*
X438400Y624392D02*
Y677636D01*
X435609Y621601D02*
X438400Y624392D01*
X444260Y558072D02*
Y664972D01*
X676960Y69472D02*
X691214D01*
X590900Y52736D02*
Y61800D01*
Y52736D02*
X590940Y52696D01*
X542830Y33322D02*
Y53972D01*
X484392Y59100D02*
X485330Y58163D01*
Y53972D02*
Y58163D01*
X387767Y59100D02*
X484392D01*
X444330Y33322D02*
X485330D01*
X386830D02*
X427830D01*
X386830Y58163D02*
X387767Y59100D01*
X386830Y33322D02*
Y58163D01*
X444330Y33322D02*
Y53035D01*
X427830Y53972D02*
X443392D01*
X444330Y53035D01*
X575160Y52736D02*
X575200Y52696D01*
X575160Y52736D02*
Y61800D01*
X589160Y652922D02*
Y667572D01*
X583460Y673272D02*
X589160Y667572D01*
X579160Y652922D02*
X589160D01*
X576060Y673272D02*
X583460D01*
X576060Y678672D02*
Y684322D01*
Y673272D02*
Y678672D01*
X560000D02*
X576060D01*
X501830Y33322D02*
X542830D01*
X532105Y526022D02*
Y548778D01*
X532500Y549172D01*
X507000Y528106D02*
X509083Y526022D01*
X523200D01*
X507000Y528106D02*
Y549172D01*
X541000Y526032D02*
Y549172D01*
X292710Y485222D02*
X303990D01*
X292710D02*
Y488035D01*
X287410Y488972D02*
X291772D01*
X292710Y488035D01*
X734045Y79455D02*
X746880D01*
X734000Y79500D02*
X734045Y79455D01*
X559460Y31400D02*
X559500Y31440D01*
Y43996D01*
X280900Y73496D02*
Y83800D01*
X280800Y73396D02*
X280900Y73496D01*
X280800Y31430D02*
Y43996D01*
Y31430D02*
X280830Y31400D01*
X600500Y617610D02*
Y627700D01*
X599563Y616672D02*
X600500Y617610D01*
X570437Y616672D02*
X599563D01*
X569500Y617610D02*
X570437Y616672D01*
X569500Y617610D02*
Y626735D01*
X560000Y627672D02*
X568562D01*
X569500Y626735D01*
X560000Y636172D02*
X570728D01*
X579200Y627700D01*
X600460Y652772D02*
X610460D01*
X626440Y395822D02*
Y411202D01*
X560065Y568237D02*
X574935D01*
X616480Y410412D02*
Y411462D01*
X616440Y410372D02*
X616480Y410412D01*
X616440Y395822D02*
Y410372D01*
X303914Y472147D02*
X303990Y472222D01*
X313793D01*
X459960Y594510D02*
Y642272D01*
X574760Y31840D02*
X575200Y31400D01*
Y43094D01*
X590940Y31400D02*
Y43996D01*
X392404Y608466D02*
X394610Y610672D01*
X420000D01*
X408277Y619172D02*
X420000D01*
X407339Y620110D02*
Y627535D01*
Y620110D02*
X408277Y619172D01*
X402798Y632077D02*
X407339Y627535D01*
X413660Y627672D02*
X420000D01*
X403175Y638157D02*
X413660Y627672D01*
X373374Y638157D02*
X403175D01*
X404560Y643148D02*
X411437Y636270D01*
X404560Y643148D02*
Y659151D01*
X411437Y636270D02*
X419902D01*
X397460Y632077D02*
X402798D01*
X385510D02*
X397460D01*
X375434Y670670D02*
X375454Y670690D01*
X346051Y652972D02*
X361460D01*
X402039Y661672D02*
X404560Y659151D01*
X407660Y647072D02*
X410060Y644672D01*
X420000D01*
X407660Y647072D02*
Y661608D01*
X401698Y667570D02*
X407660Y661608D01*
X410810Y653172D02*
Y663884D01*
X404004Y670690D02*
X410810Y663884D01*
X373460Y632077D02*
Y638072D01*
X373374Y638157D02*
X373460Y638072D01*
X361460Y632077D02*
Y637220D01*
X349940Y623377D02*
X361460D01*
X385460Y632127D02*
X385510Y632077D01*
X362397Y638157D02*
X373374D01*
X361460Y637220D02*
X362397Y638157D01*
X361464Y666633D02*
X362401Y667570D01*
X373495D01*
X373460Y667535D02*
X373495Y667570D01*
X373460Y661672D02*
Y667535D01*
X361460Y661672D02*
X361464Y661676D01*
Y666633D01*
X375384Y670760D02*
X375454Y670690D01*
X375384Y670760D02*
Y676880D01*
X375454Y670690D02*
X404004D01*
X373495Y667570D02*
X401698D01*
X397460Y661672D02*
X402039D01*
X385460D02*
X397460D01*
X373460Y608466D02*
X373516Y608522D01*
X361460Y602272D02*
Y607585D01*
X373460Y602222D02*
Y608466D01*
X362397Y608522D02*
X373516D01*
X373460Y608466D02*
X392404D01*
X361460Y607585D02*
X362397Y608522D01*
X608977Y485222D02*
X618610D01*
X601930Y488972D02*
X602895Y488007D01*
X606192D02*
X608977Y485222D01*
X602895Y488007D02*
X606192D01*
X601930Y488972D02*
Y492862D01*
X409237Y559672D02*
X420000D01*
X408300Y528672D02*
Y558735D01*
X409237Y559672D01*
X430500Y516102D02*
Y549172D01*
X439000Y534202D02*
Y549172D01*
X438970Y534172D02*
X439000Y534202D01*
X462460Y428072D02*
X467861D01*
X469860Y430071D01*
X473609D02*
X475260Y431722D01*
X469860Y430071D02*
X473609D01*
X554260Y497172D02*
X564260D01*
X489860D02*
X499860D01*
X511326D02*
X521326D01*
X532843Y497122D02*
X543410D01*
X569710Y474122D02*
X571710Y472122D01*
X569710Y474122D02*
Y506662D01*
X563310Y513062D02*
X569710Y506662D01*
X473380Y513062D02*
X563310D01*
X691214Y69472D02*
X691410Y69276D01*
Y64727D02*
Y69276D01*
Y64727D02*
X696710Y59427D01*
Y54422D02*
Y59427D01*
X420000Y576672D02*
X420000Y576672D01*
X397510Y521395D02*
Y567912D01*
Y521395D02*
X401860Y517045D01*
X469280Y517162D02*
X473380Y513062D01*
X469280Y517162D02*
Y533235D01*
X589680Y472072D02*
X601830D01*
X401860Y480472D02*
Y517045D01*
X377085Y479497D02*
X377860Y480272D01*
X361390Y478722D02*
X362165Y479497D01*
X377085D01*
X706310Y478722D02*
X713360Y471672D01*
X676010Y478722D02*
X706310D01*
X713360Y464172D02*
Y471672D01*
X470797Y445185D02*
X474797D01*
X468860Y447122D02*
X470797Y445185D01*
X474797D02*
X475260Y444722D01*
X468860Y447122D02*
Y454535D01*
X467922Y455472D02*
X468860Y454535D01*
X462500Y455472D02*
X467922D01*
X462310Y455662D02*
X462500Y455472D01*
X462310Y455662D02*
Y467372D01*
X600230Y494562D02*
X601930Y492862D01*
X581810Y494562D02*
X600230D01*
X571710Y472122D02*
X589830D01*
X581960Y506492D02*
X594379D01*
X609149Y491722D02*
X618610D01*
X594379Y506492D02*
X609149Y491722D01*
X281750Y495372D02*
X286472D01*
X287410Y494435D01*
X285020Y501332D02*
X294630Y491722D01*
X279180Y497942D02*
X281750Y495372D01*
X287410Y488972D02*
Y494435D01*
X279180Y497942D02*
Y522772D01*
X449660Y671525D02*
X450597Y672462D01*
X449660Y564510D02*
Y671525D01*
Y564510D02*
X450597Y563572D01*
X457560Y592110D02*
X459960Y594510D01*
X457560Y591872D02*
Y592110D01*
X444260Y558072D02*
X447500Y554832D01*
X450597Y672462D02*
X499690D01*
X447500Y549172D02*
Y554832D01*
X574935Y568237D02*
X575000Y568302D01*
X560000Y568172D02*
X560065Y568237D01*
X452870Y521732D02*
Y529188D01*
X457854Y534172D01*
X275290Y472121D02*
X292664D01*
X294256Y498222D02*
X303990D01*
X291227Y501251D02*
Y524756D01*
Y501251D02*
X294256Y498222D01*
X294630Y491722D02*
X303990D01*
X470217Y534172D02*
X475660D01*
X469280Y533235D02*
X470217Y534172D01*
X473000Y541032D02*
Y549172D01*
Y541032D02*
X475660Y538372D01*
Y534172D02*
Y538372D01*
X462960Y534172D02*
Y538372D01*
X464500Y539912D02*
Y549172D01*
X462960Y538372D02*
X464500Y539912D01*
X457854Y534172D02*
X462960D01*
X383560Y395822D02*
X383600Y395862D01*
Y410412D01*
X373650Y395912D02*
Y410372D01*
X373560Y395822D02*
X373650Y395912D01*
X560055Y559727D02*
X574625D01*
X560000Y559672D02*
X560055Y559727D01*
X574625D02*
X574680Y559782D01*
X626430Y411212D02*
X626440Y411202D01*
X692180Y490142D02*
X692480D01*
X676010Y485222D02*
X687260D01*
X692180Y490142D01*
X692207Y498469D02*
X692480Y498742D01*
X688017Y498469D02*
X692207D01*
X687080Y494442D02*
Y497532D01*
X676010Y491722D02*
X677260Y492972D01*
X685610D02*
X687080Y494442D01*
X677260Y492972D02*
X685610D01*
X687080Y497532D02*
X688017Y498469D01*
X372640Y485222D02*
X377560Y490142D01*
X361390Y485222D02*
X372640D01*
X377560Y490142D02*
X377860D01*
X397509Y568012D02*
X397560Y567962D01*
X618535Y472147D02*
X618610Y472222D01*
X601905Y472147D02*
X618535D01*
X601830Y472072D02*
X601905Y472147D01*
X291227Y524756D02*
X298443Y531972D01*
X298620D01*
X292690Y472147D02*
X303914D01*
X292664Y472121D02*
X292690Y472147D01*
X372460Y497532D02*
X373397Y498469D01*
X362640Y492972D02*
X370990D01*
X372460Y494442D01*
X361390Y491722D02*
X362640Y492972D01*
X372460Y494442D02*
Y497532D01*
X373397Y498469D02*
X377587D01*
X377860Y498742D01*
X397509Y568012D02*
Y579962D01*
Y580262D02*
X410919Y593672D01*
X420000D01*
X383530Y585402D02*
X385460Y587332D01*
X419902Y636270D02*
X420000Y636172D01*
X385460Y587332D02*
Y593572D01*
X385560Y602172D02*
X420000D01*
X385460Y602272D02*
X385560Y602172D01*
D89*
X647310Y463392D02*
Y504200D01*
X332690Y462432D02*
Y506972D01*
D90*
X563430Y443522D02*
X612390D01*
X563430Y395982D02*
X583210D01*
X556400Y403012D02*
X563430Y395982D01*
X556400Y403012D02*
Y436493D01*
X563430Y443522D01*
X603469Y424262D02*
X618360D01*
X641970Y447872D02*
X656360D01*
X618360Y424262D02*
X641970Y447872D01*
X596440Y410139D02*
Y417233D01*
X603469Y424262D01*
X304000Y426342D02*
Y449672D01*
Y403012D02*
Y426342D01*
X353560Y409843D02*
Y448800D01*
X303990Y449682D02*
Y455172D01*
X612390Y443522D02*
X618610Y449742D01*
Y454572D01*
X311029Y395982D02*
X340361D01*
X304000Y403012D02*
X311029Y395982D01*
D91*
X496579Y553093D02*
Y559111D01*
X498500Y549172D02*
Y551172D01*
X496579Y553093D02*
X498500Y551172D01*
X373057Y544669D02*
X375215Y542510D01*
X383231D01*
X490000Y551172D02*
X491641Y552813D01*
Y559111D01*
X490000Y549172D02*
Y551172D01*
X374560Y537572D02*
X384960D01*
X371710Y534722D02*
X374560Y537572D01*
X284699Y555868D02*
X339898D01*
X352916Y542850D01*
X284411Y556156D02*
X284699Y555868D01*
X282100Y556500D02*
X282444Y556156D01*
X284411D01*
X352916Y542850D02*
X359960D01*
X361663Y544553D01*
X228781Y300372D02*
Y539969D01*
X217091Y288681D02*
X228781Y300372D01*
X217091Y117715D02*
Y288681D01*
X217091Y71326D02*
Y81191D01*
X215607Y90546D02*
X217091Y89062D01*
Y85853D02*
Y89062D01*
X213907Y114531D02*
X217091Y117715D01*
X216513Y85275D02*
X217091Y85853D01*
X216513Y83975D02*
Y85275D01*
X216060Y83522D02*
X216513Y83975D01*
X213907Y110014D02*
X215807Y108114D01*
Y104199D02*
Y108114D01*
X213907Y110014D02*
Y114531D01*
X215607Y90546D02*
Y103999D01*
X215807Y104199D01*
X216513Y81769D02*
X217091Y81191D01*
X215310Y69545D02*
X217091Y71326D01*
X216060Y83522D02*
X216513Y83069D01*
Y81769D02*
Y83069D01*
X215310Y68572D02*
Y69545D01*
X284699Y551133D02*
X337937D01*
X350925Y538144D01*
X284411Y550844D02*
X284699Y551133D01*
X359960Y538144D02*
X361663Y536442D01*
X350925Y538144D02*
X359960D01*
X282444Y550844D02*
X284411D01*
X282100Y550500D02*
X282444Y550844D01*
X223313Y108514D02*
X224813Y110014D01*
Y114531D01*
X223313Y104199D02*
X223513Y103999D01*
X223313Y104199D02*
Y108514D01*
X223810Y68572D02*
Y69545D01*
X223513Y90546D02*
Y103999D01*
X222029Y286636D02*
X233719Y298326D01*
X222029Y117315D02*
X224813Y114531D01*
X222029Y89062D02*
X223513Y90546D01*
X222607Y83975D02*
X223060Y83522D01*
X222607Y83069D02*
X223060Y83522D01*
X222029Y117315D02*
Y286636D01*
X222029Y85853D02*
X222607Y85275D01*
X222029Y85853D02*
Y89062D01*
X222607Y81769D02*
Y83069D01*
Y83975D02*
Y85275D01*
X222029Y71326D02*
X223810Y69545D01*
X223122Y67885D02*
X223810Y68572D01*
X223122Y65422D02*
Y67885D01*
X215997Y58297D02*
X223122Y65422D01*
X222029Y81191D02*
X222607Y81769D01*
X222029Y71326D02*
Y81191D01*
X215997Y55760D02*
Y58297D01*
X215310Y55072D02*
X215997Y55760D01*
X233719Y539969D02*
X234250Y540500D01*
X233719Y298326D02*
Y539969D01*
X228250Y540500D02*
X228781Y539969D01*
D92*
X371710Y546472D02*
X373057Y545125D01*
Y544669D02*
Y545125D01*
X371710Y534522D02*
Y534722D01*
X361663Y545125D02*
X363010Y546472D01*
X361663Y544553D02*
Y545125D01*
Y535869D02*
Y536442D01*
Y535869D02*
X363010Y534522D01*
D93*
X616360Y54872D02*
X616460Y54972D01*
X647210Y79800D02*
Y106222D01*
Y54422D02*
Y79800D01*
Y106222D02*
Y222622D01*
X616460Y75472D02*
X647210Y106222D01*
X616460Y54972D02*
Y75472D01*
X698560Y273972D02*
Y412596D01*
X647210Y222622D02*
X698560Y273972D01*
Y412596D02*
Y465972D01*
X383940Y439372D02*
Y465451D01*
X515411Y391672D02*
X531460D01*
X696710Y34872D02*
X714613D01*
X724091Y44350D01*
X737500D01*
X696710Y34872D02*
Y36222D01*
Y29022D02*
Y34872D01*
Y16322D02*
Y29022D01*
X531460Y391672D02*
X531560Y391572D01*
X499474Y407609D02*
X515411Y391672D01*
X647210Y41722D02*
Y54422D01*
Y34772D02*
Y41722D01*
D94*
X765500Y606800D02*
D03*
X873500D02*
D03*
X106500D02*
D03*
X214500D02*
D03*
D95*
X664900Y826200D02*
D03*
Y718200D02*
D03*
X315100Y718200D02*
D03*
Y826200D02*
D03*
D96*
X533771Y896595D02*
D03*
X591799Y805508D02*
D03*
D97*
X388201D02*
D03*
X446229Y896595D02*
D03*
D98*
X705000Y158600D02*
D03*
X275000D02*
D03*
X170000Y476370D02*
D03*
Y117370D02*
D03*
X810000Y476370D02*
D03*
Y117370D02*
D03*
D99*
X553500Y945000D02*
D03*
X528100D02*
D03*
X502700D02*
D03*
X477300D02*
D03*
X451900D02*
D03*
X905000Y676600D02*
D03*
Y651200D02*
D03*
Y625800D02*
D03*
Y600400D02*
D03*
Y575000D02*
D03*
X75000Y600400D02*
D03*
Y625800D02*
D03*
Y651200D02*
D03*
Y676600D02*
D03*
Y702000D02*
D03*
D100*
X426500Y945000D02*
D03*
D101*
X905000Y702000D02*
D03*
X75000Y575000D02*
D03*
D102*
X485760Y448972D02*
D03*
Y441472D02*
D03*
Y433972D02*
D03*
D103*
X787500Y44350D02*
D03*
X762500D02*
D03*
D104*
X262810Y58772D02*
D03*
X176310D02*
D03*
D105*
X262810Y24972D02*
D03*
X176310D02*
D03*
D106*
X189810Y55072D02*
D03*
X249310D02*
D03*
Y68572D02*
D03*
X189810D02*
D03*
X198310Y55072D02*
D03*
X206810D02*
D03*
X215310D02*
D03*
X223810D02*
D03*
X232310D02*
D03*
X240810D02*
D03*
Y68572D02*
D03*
X232310D02*
D03*
X223810D02*
D03*
X215310D02*
D03*
X206810D02*
D03*
X198310D02*
D03*
D107*
X490000Y90100D02*
D03*
Y227100D02*
D03*
D108*
X737500Y44350D02*
D03*
D109*
X180700Y524772D02*
D03*
X208000D02*
D03*
X420100Y489700D02*
D03*
X316300Y518700D02*
D03*
X610500Y627700D02*
D03*
X589200D02*
D03*
X527400Y623800D02*
D03*
X673064Y607600D02*
D03*
X546100Y418200D02*
D03*
Y430200D02*
D03*
X554900Y451200D02*
D03*
X551200Y459800D02*
D03*
X545300Y475100D02*
D03*
X530500D02*
D03*
X515700D02*
D03*
X500900D02*
D03*
X357634Y558100D02*
D03*
X383900D02*
D03*
X497360Y561372D02*
D03*
X490860D02*
D03*
X481500D02*
D03*
X420060Y532872D02*
D03*
X833000Y607600D02*
D03*
X622600D02*
D03*
X615900Y563000D02*
D03*
X500800Y379200D02*
D03*
X420100Y471638D02*
D03*
X431700Y404300D02*
D03*
X390100Y498500D02*
D03*
Y509300D02*
D03*
X459300Y480900D02*
D03*
X420100Y497900D02*
D03*
Y480800D02*
D03*
Y441804D02*
D03*
Y432201D02*
D03*
Y423200D02*
D03*
X452860Y474342D02*
D03*
Y464174D02*
D03*
Y454882D02*
D03*
Y445919D02*
D03*
Y437267D02*
D03*
X452860Y429072D02*
D03*
X458200Y419000D02*
D03*
X454100Y379200D02*
D03*
X443200D02*
D03*
X432300D02*
D03*
X432600Y426000D02*
D03*
X453800Y408500D02*
D03*
X461300Y410200D02*
D03*
X420100Y414900D02*
D03*
Y404300D02*
D03*
X443300D02*
D03*
X390200Y379200D02*
D03*
X375500D02*
D03*
X404900D02*
D03*
X419600D02*
D03*
X460500Y369200D02*
D03*
X449311D02*
D03*
X438700D02*
D03*
X425500D02*
D03*
X363700Y361500D02*
D03*
X282100Y556500D02*
D03*
Y550500D02*
D03*
X234250Y540500D02*
D03*
X228250D02*
D03*
X298620Y542212D02*
D03*
X477100Y379200D02*
D03*
X219360Y112272D02*
D03*
X339760Y53972D02*
D03*
X350314Y662722D02*
D03*
X395454Y816894D02*
D03*
X315100Y731700D02*
D03*
X438976Y885209D02*
D03*
X258200Y622000D02*
D03*
X229100Y652200D02*
D03*
X432000Y653300D02*
D03*
X860000Y606800D02*
D03*
X574680Y576800D02*
D03*
X664900Y731700D02*
D03*
X587600Y579200D02*
D03*
X584546Y816894D02*
D03*
X524000Y561372D02*
D03*
X515500D02*
D03*
X539700Y607800D02*
D03*
X201000Y606800D02*
D03*
X446900Y532872D02*
D03*
X581810Y506492D02*
D03*
X434060Y576672D02*
D03*
Y585172D02*
D03*
X397560Y643672D02*
D03*
X287400Y451200D02*
D03*
X432900Y613200D02*
D03*
X444260Y664972D02*
D03*
X432900Y620950D02*
D03*
X676960Y69472D02*
D03*
X590900Y61800D02*
D03*
X542830Y53972D02*
D03*
X485330D02*
D03*
X575160Y61800D02*
D03*
X589160Y652922D02*
D03*
X764260Y524772D02*
D03*
X523200Y526022D02*
D03*
X532105D02*
D03*
X541010D02*
D03*
X280900Y83800D02*
D03*
X288000Y426800D02*
D03*
Y401678D02*
D03*
X679400D02*
D03*
X695500Y353500D02*
D03*
X701500D02*
D03*
X596500Y380100D02*
D03*
X679400Y426800D02*
D03*
X586400Y380100D02*
D03*
X485700Y467800D02*
D03*
X610460Y652772D02*
D03*
X459960Y642272D02*
D03*
X350314Y643672D02*
D03*
X404060Y691372D02*
D03*
X384960Y543672D02*
D03*
Y537172D02*
D03*
X427830Y53972D02*
D03*
X788660Y524772D02*
D03*
X564260Y497172D02*
D03*
X499860D02*
D03*
X543410Y497122D02*
D03*
X521326Y497172D02*
D03*
X383760Y442572D02*
D03*
Y436572D02*
D03*
X531460Y394672D02*
D03*
Y388672D02*
D03*
X457560Y570672D02*
D03*
Y580172D02*
D03*
X581810Y480372D02*
D03*
X285020Y501332D02*
D03*
X454460Y658772D02*
D03*
X457560Y591872D02*
D03*
X431560Y677372D02*
D03*
X574680Y568302D02*
D03*
X499690Y672462D02*
D03*
X581810Y494562D02*
D03*
X452870Y521732D02*
D03*
X383600Y410412D02*
D03*
X373650D02*
D03*
X574680Y559782D02*
D03*
X626430Y410412D02*
D03*
X616480D02*
D03*
X298620Y521732D02*
D03*
Y531972D02*
D03*
D110*
X550200Y347300D02*
D03*
X531400Y370700D02*
D03*
X506300Y260600D02*
D03*
X473700D02*
D03*
X455700Y325300D02*
D03*
X450400Y312000D02*
D03*
Y301300D02*
D03*
X529600D02*
D03*
Y312000D02*
D03*
X541420Y289100D02*
D03*
X438580D02*
D03*
X524300Y325300D02*
D03*
M02*
