G04*
G04 #@! TF.GenerationSoftware,Altium Limited,Altium Designer,23.1.1 (15)*
G04*
G04 Layer_Physical_Order=4*
G04 Layer_Color=16711680*
%FSLAX44Y44*%
%MOMM*%
G71*
G04*
G04 #@! TF.SameCoordinates,6E2E4CF0-E359-4451-A4CD-7E5F78DB66F6*
G04*
G04*
G04 #@! TF.FilePolarity,Positive*
G04*
G01*
G75*
%ADD16C,1.2000*%
%ADD25R,0.6000X0.5600*%
G04:AMPARAMS|DCode=28|XSize=0.54mm|YSize=0.6mm|CornerRadius=0.1431mm|HoleSize=0mm|Usage=FLASHONLY|Rotation=90.000|XOffset=0mm|YOffset=0mm|HoleType=Round|Shape=RoundedRectangle|*
%AMROUNDEDRECTD28*
21,1,0.5400,0.3138,0,0,90.0*
21,1,0.2538,0.6000,0,0,90.0*
1,1,0.2862,0.1569,0.1269*
1,1,0.2862,0.1569,-0.1269*
1,1,0.2862,-0.1569,-0.1269*
1,1,0.2862,-0.1569,0.1269*
%
%ADD28ROUNDEDRECTD28*%
G04:AMPARAMS|DCode=31|XSize=0.54mm|YSize=0.6mm|CornerRadius=0.1431mm|HoleSize=0mm|Usage=FLASHONLY|Rotation=0.000|XOffset=0mm|YOffset=0mm|HoleType=Round|Shape=RoundedRectangle|*
%AMROUNDEDRECTD31*
21,1,0.5400,0.3138,0,0,0.0*
21,1,0.2538,0.6000,0,0,0.0*
1,1,0.2862,0.1269,-0.1569*
1,1,0.2862,-0.1269,-0.1569*
1,1,0.2862,-0.1269,0.1569*
1,1,0.2862,0.1269,0.1569*
%
%ADD31ROUNDEDRECTD31*%
%ADD38R,0.5600X0.6000*%
%ADD71C,0.9000*%
%ADD87C,0.5000*%
%ADD88C,0.1600*%
%ADD91C,0.2703*%
%ADD94R,1.0000X1.0000*%
%ADD95R,1.0000X1.0000*%
%ADD96P,1.4142X4X77.5*%
%ADD97P,1.4142X4X192.5*%
%ADD98C,3.0000*%
%ADD99C,1.6050*%
%ADD100R,1.6050X1.6050*%
%ADD101R,1.6050X1.6050*%
%ADD102C,0.3000*%
%ADD103C,1.5080*%
%ADD104O,0.9000X2.4000*%
%ADD105O,0.9000X1.7000*%
%ADD106C,0.6500*%
%ADD107C,1.0000*%
%ADD108R,1.5080X1.5080*%
%ADD109C,0.4500*%
%ADD110C,0.6000*%
%ADD130R,2.6000X2.6000*%
G04:AMPARAMS|DCode=131|XSize=0.86mm|YSize=0.27mm|CornerRadius=0.0338mm|HoleSize=0mm|Usage=FLASHONLY|Rotation=180.000|XOffset=0mm|YOffset=0mm|HoleType=Round|Shape=RoundedRectangle|*
%AMROUNDEDRECTD131*
21,1,0.8600,0.2025,0,0,180.0*
21,1,0.7925,0.2700,0,0,180.0*
1,1,0.0675,-0.3963,0.1013*
1,1,0.0675,0.3963,0.1013*
1,1,0.0675,0.3963,-0.1013*
1,1,0.0675,-0.3963,-0.1013*
%
%ADD131ROUNDEDRECTD131*%
G04:AMPARAMS|DCode=132|XSize=0.86mm|YSize=0.27mm|CornerRadius=0.0338mm|HoleSize=0mm|Usage=FLASHONLY|Rotation=90.000|XOffset=0mm|YOffset=0mm|HoleType=Round|Shape=RoundedRectangle|*
%AMROUNDEDRECTD132*
21,1,0.8600,0.2025,0,0,90.0*
21,1,0.7925,0.2700,0,0,90.0*
1,1,0.0675,0.1013,0.3963*
1,1,0.0675,0.1013,-0.3963*
1,1,0.0675,-0.1013,-0.3963*
1,1,0.0675,-0.1013,0.3963*
%
%ADD132ROUNDEDRECTD132*%
%ADD133R,1.5700X0.6900*%
G04:AMPARAMS|DCode=134|XSize=0.59mm|YSize=0.35mm|CornerRadius=0.0875mm|HoleSize=0mm|Usage=FLASHONLY|Rotation=180.000|XOffset=0mm|YOffset=0mm|HoleType=Round|Shape=RoundedRectangle|*
%AMROUNDEDRECTD134*
21,1,0.5900,0.1750,0,0,180.0*
21,1,0.4150,0.3500,0,0,180.0*
1,1,0.1750,-0.2075,0.0875*
1,1,0.1750,0.2075,0.0875*
1,1,0.1750,0.2075,-0.0875*
1,1,0.1750,-0.2075,-0.0875*
%
%ADD134ROUNDEDRECTD134*%
G04:AMPARAMS|DCode=135|XSize=0.59mm|YSize=0.35mm|CornerRadius=0.0875mm|HoleSize=0mm|Usage=FLASHONLY|Rotation=90.000|XOffset=0mm|YOffset=0mm|HoleType=Round|Shape=RoundedRectangle|*
%AMROUNDEDRECTD135*
21,1,0.5900,0.1750,0,0,90.0*
21,1,0.4150,0.3500,0,0,90.0*
1,1,0.1750,0.0875,0.2075*
1,1,0.1750,0.0875,-0.2075*
1,1,0.1750,-0.0875,-0.2075*
1,1,0.1750,-0.0875,0.2075*
%
%ADD135ROUNDEDRECTD135*%
G36*
X522934Y969053D02*
X544823Y967161D01*
X566609Y964327D01*
X588253Y960557D01*
X609714Y955857D01*
X630953Y950236D01*
X651930Y943706D01*
X672606Y936277D01*
X692942Y927964D01*
X712901Y918782D01*
X732446Y908748D01*
X751540Y897881D01*
X770148Y886201D01*
X788235Y873730D01*
X805768Y860491D01*
X822714Y846508D01*
X839041Y831808D01*
X854720Y816418D01*
X869721Y800367D01*
X884016Y783683D01*
X897578Y766399D01*
X910383Y748547D01*
X922407Y730159D01*
X933626Y711270D01*
X944021Y691915D01*
X953573Y672130D01*
X962262Y651952D01*
X970074Y631417D01*
X976993Y610565D01*
X980000Y600000D01*
X980000Y550000D01*
X830000D01*
X830000Y0D01*
X150000D01*
X150000Y550000D01*
X0Y550000D01*
Y600000D01*
X0Y600000D01*
X0Y600000D01*
X3007Y610565D01*
X9926Y631417D01*
X17738Y651952D01*
X26427Y672130D01*
X35979Y691915D01*
X46374Y711270D01*
X57593Y730159D01*
X69617Y748547D01*
X82422Y766399D01*
X95984Y783683D01*
X110279Y800367D01*
X125280Y816418D01*
X140958Y831808D01*
X157286Y846508D01*
X174232Y860491D01*
X191765Y873730D01*
X209852Y886201D01*
X228460Y897881D01*
X247554Y908748D01*
X267099Y918782D01*
X287058Y927963D01*
X307394Y936277D01*
X328070Y943706D01*
X349047Y950236D01*
X370286Y955857D01*
X391747Y960557D01*
X413391Y964327D01*
X435177Y967161D01*
X457066Y969053D01*
X479015Y970000D01*
X500985Y970000D01*
X522934Y969053D01*
D02*
G37*
%LPC*%
G36*
X453291Y955565D02*
X453170D01*
Y946270D01*
X462465D01*
Y946391D01*
X461745Y949078D01*
X460354Y951487D01*
X458387Y953454D01*
X455978Y954845D01*
X453291Y955565D01*
D02*
G37*
G36*
X450630D02*
X450509D01*
X447822Y954845D01*
X445413Y953454D01*
X443446Y951487D01*
X442055Y949078D01*
X441335Y946391D01*
Y946270D01*
X450630D01*
Y955565D01*
D02*
G37*
G36*
X529354Y954525D02*
X526846D01*
X524424Y953876D01*
X522252Y952622D01*
X520478Y950849D01*
X519224Y948677D01*
X518575Y946254D01*
Y943746D01*
X519224Y941324D01*
X520478Y939152D01*
X522252Y937378D01*
X524424Y936124D01*
X526846Y935475D01*
X529354D01*
X531777Y936124D01*
X533949Y937378D01*
X535722Y939152D01*
X536976Y941324D01*
X537625Y943746D01*
Y946254D01*
X536976Y948677D01*
X535722Y950849D01*
X533949Y952622D01*
X531777Y953876D01*
X529354Y954525D01*
D02*
G37*
G36*
X503954D02*
X501446D01*
X499024Y953876D01*
X496852Y952622D01*
X495078Y950849D01*
X493824Y948677D01*
X493175Y946254D01*
Y943746D01*
X493824Y941324D01*
X495078Y939152D01*
X496852Y937378D01*
X499024Y936124D01*
X501446Y935475D01*
X503954D01*
X506377Y936124D01*
X508549Y937378D01*
X510322Y939152D01*
X511576Y941324D01*
X512225Y943746D01*
Y946254D01*
X511576Y948677D01*
X510322Y950849D01*
X508549Y952622D01*
X506377Y953876D01*
X503954Y954525D01*
D02*
G37*
G36*
X478554D02*
X476046D01*
X473624Y953876D01*
X471452Y952622D01*
X469678Y950849D01*
X468424Y948677D01*
X467775Y946254D01*
Y943746D01*
X468424Y941324D01*
X469678Y939152D01*
X471452Y937378D01*
X473624Y936124D01*
X476046Y935475D01*
X478554D01*
X480977Y936124D01*
X483149Y937378D01*
X484922Y939152D01*
X486176Y941324D01*
X486825Y943746D01*
Y946254D01*
X486176Y948677D01*
X484922Y950849D01*
X483149Y952622D01*
X480977Y953876D01*
X478554Y954525D01*
D02*
G37*
G36*
X436025D02*
X416975D01*
Y935475D01*
X436025D01*
Y954525D01*
D02*
G37*
G36*
X462465Y943730D02*
X453170D01*
Y934435D01*
X453291D01*
X455978Y935155D01*
X458387Y936546D01*
X460354Y938513D01*
X461745Y940922D01*
X462465Y943609D01*
Y943730D01*
D02*
G37*
G36*
X450630D02*
X441335D01*
Y943609D01*
X442055Y940922D01*
X443446Y938513D01*
X445413Y936546D01*
X447822Y935155D01*
X450509Y934435D01*
X450630D01*
Y943730D01*
D02*
G37*
G36*
X441521Y907880D02*
X439422Y907696D01*
X437443Y906976D01*
X435718Y905768D01*
X434364Y904154D01*
X433473Y902245D01*
X433108Y900170D01*
X433291Y898072D01*
X434012Y896093D01*
X435220Y894367D01*
X436833Y893013D01*
X446954Y886565D01*
X448863Y885675D01*
X450938Y885310D01*
X453036Y885493D01*
X455015Y886214D01*
X456741Y887422D01*
X458095Y889035D01*
X458985Y890944D01*
X459351Y893019D01*
X459167Y895117D01*
X458447Y897097D01*
X457239Y898822D01*
X455625Y900176D01*
X445504Y906624D01*
X443595Y907514D01*
X441521Y907880D01*
D02*
G37*
G36*
X538479Y907880D02*
X536405Y907514D01*
X534496Y906624D01*
X524375Y900176D01*
X522761Y898822D01*
X521553Y897097D01*
X520833Y895117D01*
X520649Y893019D01*
X521015Y890944D01*
X521905Y889035D01*
X523259Y887422D01*
X524985Y886214D01*
X526964Y885493D01*
X529062Y885309D01*
X531137Y885675D01*
X533046Y886565D01*
X543167Y893013D01*
X544780Y894367D01*
X545989Y896093D01*
X546709Y898072D01*
X546893Y900170D01*
X546527Y902245D01*
X545637Y904154D01*
X544283Y905768D01*
X542557Y906976D01*
X540578Y907696D01*
X538479Y907880D01*
D02*
G37*
G36*
X439722Y888959D02*
X438230D01*
X436852Y888388D01*
X435797Y887333D01*
X435226Y885955D01*
Y884463D01*
X435797Y883085D01*
X436852Y882030D01*
X438230Y881459D01*
X439722D01*
X441100Y882030D01*
X442155Y883085D01*
X442726Y884463D01*
Y885955D01*
X442155Y887333D01*
X441100Y888388D01*
X439722Y888959D01*
D02*
G37*
G36*
X520140Y827730D02*
X511020D01*
Y823010D01*
X520140D01*
Y827730D01*
D02*
G37*
G36*
X508480D02*
X499360D01*
Y823010D01*
X508480D01*
Y827730D01*
D02*
G37*
G36*
X670900Y834269D02*
X658900D01*
X656812Y833994D01*
X654866Y833188D01*
X653195Y831906D01*
X651912Y830235D01*
X651106Y828289D01*
X650831Y826200D01*
X651106Y824112D01*
X651912Y822166D01*
X653195Y820495D01*
X654866Y819212D01*
X656812Y818406D01*
X658900Y818131D01*
X670900D01*
X672989Y818406D01*
X674935Y819212D01*
X676606Y820495D01*
X677888Y822166D01*
X678694Y824112D01*
X678969Y826200D01*
X678694Y828289D01*
X677888Y830235D01*
X676606Y831906D01*
X674935Y833188D01*
X672989Y833994D01*
X670900Y834269D01*
D02*
G37*
G36*
X321100Y834269D02*
X309100D01*
X307012Y833994D01*
X305066Y833188D01*
X303395Y831906D01*
X302112Y830235D01*
X301306Y828288D01*
X301031Y826200D01*
X301306Y824112D01*
X302112Y822166D01*
X303395Y820495D01*
X305066Y819212D01*
X307012Y818406D01*
X309100Y818131D01*
X321100D01*
X323189Y818406D01*
X325135Y819212D01*
X326806Y820495D01*
X328088Y822166D01*
X328894Y824112D01*
X329169Y826200D01*
X328894Y828288D01*
X328088Y830235D01*
X326806Y831906D01*
X325135Y833188D01*
X323189Y833994D01*
X321100Y834269D01*
D02*
G37*
G36*
X396200Y820644D02*
X394709D01*
X393330Y820073D01*
X392275Y819018D01*
X391704Y817640D01*
Y816148D01*
X392275Y814770D01*
X393330Y813715D01*
X394709Y813144D01*
X396200D01*
X397579Y813715D01*
X398634Y814770D01*
X399204Y816148D01*
Y817640D01*
X398634Y819018D01*
X397579Y820073D01*
X396200Y820644D01*
D02*
G37*
G36*
X585292Y820644D02*
X583800D01*
X582421Y820073D01*
X581367Y819018D01*
X580796Y817640D01*
Y816148D01*
X581367Y814770D01*
X582421Y813715D01*
X583800Y813144D01*
X585292D01*
X586670Y813715D01*
X587725Y814770D01*
X588296Y816148D01*
Y817640D01*
X587725Y819018D01*
X586670Y820073D01*
X585292Y820644D01*
D02*
G37*
G36*
X480640Y816990D02*
X471520D01*
Y812270D01*
X480640D01*
Y816990D01*
D02*
G37*
G36*
X468980D02*
X459860D01*
Y812270D01*
X468980D01*
Y816990D01*
D02*
G37*
G36*
X480640Y809730D02*
X471520D01*
Y805010D01*
X480640D01*
Y809730D01*
D02*
G37*
G36*
X468980D02*
X459860D01*
Y805010D01*
X468980D01*
Y809730D01*
D02*
G37*
G36*
X383493Y816793D02*
X381394Y816610D01*
X379415Y815889D01*
X377689Y814681D01*
X376335Y813068D01*
X375445Y811159D01*
X375079Y809084D01*
X375263Y806986D01*
X375983Y805006D01*
X377192Y803281D01*
X378805Y801927D01*
X388926Y795479D01*
X390835Y794589D01*
X392909Y794223D01*
X395008Y794407D01*
X396987Y795127D01*
X398713Y796335D01*
X400067Y797949D01*
X400957Y799858D01*
X401323Y801933D01*
X401139Y804031D01*
X400419Y806010D01*
X399210Y807736D01*
X397597Y809090D01*
X387476Y815537D01*
X385567Y816428D01*
X383493Y816793D01*
D02*
G37*
G36*
X554754Y954525D02*
X552246D01*
X549824Y953876D01*
X547652Y952622D01*
X545878Y950849D01*
X544624Y948677D01*
X543975Y946254D01*
Y943746D01*
X544624Y941324D01*
X545878Y939152D01*
X547652Y937378D01*
X549824Y936124D01*
X552246Y935475D01*
X554754D01*
X557177Y936124D01*
X558370Y936813D01*
X573495Y921689D01*
Y777111D01*
X572322Y776625D01*
X539060Y809887D01*
Y815570D01*
X537105D01*
Y837421D01*
X536927Y838318D01*
X536418Y839079D01*
X536418Y839079D01*
X535481Y840016D01*
X534720Y840525D01*
X533823Y840703D01*
X533823Y840703D01*
X447258D01*
X447258Y840703D01*
X446361Y840525D01*
X445600Y840016D01*
X443552Y837968D01*
X443044Y837207D01*
X442865Y836310D01*
X442865Y836310D01*
Y832970D01*
X440910D01*
Y823970D01*
X448340D01*
X449510Y823970D01*
X450780Y823970D01*
X458210D01*
Y826125D01*
X460900D01*
Y824050D01*
X479600D01*
Y833950D01*
X460900D01*
Y830815D01*
X458210D01*
Y832970D01*
X450780D01*
X449610Y832970D01*
X448453Y832970D01*
X447555Y833868D01*
Y835339D01*
X448229Y836013D01*
X498763D01*
X499360Y834990D01*
X499360Y834743D01*
Y830270D01*
X509750D01*
X520140D01*
Y834743D01*
X520140Y834990D01*
X520737Y836013D01*
X532415D01*
Y816468D01*
X531517Y815570D01*
X530460Y815570D01*
X529190Y815570D01*
X521760D01*
Y813345D01*
X519100D01*
Y815950D01*
X500400D01*
Y806050D01*
X507405D01*
Y774921D01*
X502701Y770217D01*
X411073D01*
X411072Y770218D01*
X410175Y770039D01*
X409414Y769531D01*
X407842Y767958D01*
X407334Y767197D01*
X407155Y766300D01*
X407155Y766300D01*
Y695240D01*
X405885Y694675D01*
X404805Y695122D01*
X403314D01*
X401935Y694551D01*
X400881Y693497D01*
X400310Y692118D01*
Y690627D01*
X400881Y689248D01*
X401935Y688193D01*
X403314Y687622D01*
X404805D01*
X405885Y688070D01*
X407155Y687505D01*
Y685932D01*
X407155Y685932D01*
X407334Y685034D01*
X407842Y684274D01*
X428801Y663314D01*
X429562Y662806D01*
X430460Y662627D01*
X430460Y662627D01*
X441301D01*
X442135Y661793D01*
X443514Y661222D01*
X445005D01*
X446384Y661793D01*
X447439Y662848D01*
X448010Y664227D01*
Y665718D01*
X447439Y667097D01*
X446384Y668151D01*
X445005Y668722D01*
X443514D01*
X442135Y668151D01*
X441301Y667317D01*
X431431D01*
X411845Y686903D01*
Y693902D01*
X413000Y694799D01*
X567000D01*
X568148Y695274D01*
X568623Y696422D01*
Y746922D01*
X568148Y748071D01*
X567000Y748546D01*
X413000D01*
X411845Y749443D01*
Y765329D01*
X412044Y765527D01*
X503672D01*
X503672Y765527D01*
X504570Y765706D01*
X505331Y766214D01*
X511408Y772292D01*
X511917Y773053D01*
X512095Y773950D01*
X512095Y773950D01*
Y806050D01*
X519100D01*
Y808655D01*
X521760D01*
Y806570D01*
X529190D01*
X530360Y806570D01*
X531630Y806570D01*
X535744D01*
X570035Y772279D01*
Y688551D01*
X515501Y634017D01*
X514625D01*
X514029Y634416D01*
X513312Y634558D01*
X506447D01*
X506446Y634560D01*
Y637252D01*
X502500D01*
Y639792D01*
X506446D01*
Y642485D01*
X506850Y642977D01*
X516810D01*
X516810Y642977D01*
X517707Y643156D01*
X518468Y643664D01*
X520018Y645214D01*
X520018Y645214D01*
X520526Y645975D01*
X520705Y646872D01*
X520705Y646872D01*
Y660285D01*
X520526Y661183D01*
X520018Y661943D01*
X520018Y661943D01*
X519081Y662881D01*
X518320Y663389D01*
X517422Y663568D01*
X517422Y663568D01*
X515060D01*
Y665522D01*
X512905D01*
Y671525D01*
X512726Y672423D01*
X512218Y673183D01*
X512218Y673183D01*
X511281Y674121D01*
X510520Y674629D01*
X509622Y674808D01*
X509622Y674807D01*
X502648D01*
X501814Y675641D01*
X500435Y676212D01*
X498944D01*
X497565Y675641D01*
X496511Y674587D01*
X495940Y673208D01*
Y671717D01*
X496511Y670338D01*
X497565Y669283D01*
X498944Y668712D01*
X500435D01*
X501814Y669283D01*
X502648Y670117D01*
X508215D01*
Y665522D01*
X506060D01*
Y656922D01*
X505047Y656301D01*
X503010D01*
X503010Y656301D01*
X501449Y655990D01*
X501044Y656232D01*
X500269Y657254D01*
X500577Y658802D01*
X494960D01*
Y660072D01*
X493690D01*
Y665390D01*
X493391D01*
X491841Y665082D01*
X490528Y664204D01*
X489861Y663206D01*
X488441Y662829D01*
X487464Y663806D01*
X486141Y664690D01*
X484888Y664939D01*
X483860Y665522D01*
X483860Y665522D01*
X483859Y665522D01*
X474860D01*
Y665301D01*
X468260D01*
Y665522D01*
X465027D01*
X450294Y680256D01*
X448970Y681140D01*
X447410Y681451D01*
X447410Y681451D01*
X431560D01*
X429999Y681140D01*
X428676Y680256D01*
X427792Y678933D01*
X427481Y677372D01*
X427792Y675812D01*
X428676Y674489D01*
X429999Y673605D01*
X431560Y673294D01*
X445720D01*
X455234Y663781D01*
X454696Y662522D01*
X453714D01*
X452335Y661952D01*
X451281Y660897D01*
X450710Y659518D01*
Y658027D01*
X451281Y656648D01*
X451915Y656014D01*
Y652523D01*
X451914Y652522D01*
X451915Y652522D01*
Y636973D01*
X451914Y636972D01*
X452093Y636075D01*
X452601Y635314D01*
X454214Y633702D01*
X454214Y633702D01*
X454975Y633193D01*
X455872Y633015D01*
X463483D01*
X463542Y632942D01*
X470650D01*
Y630402D01*
X463805D01*
X463977Y629537D01*
X464613Y628585D01*
X464948Y628361D01*
X464814Y627685D01*
Y625660D01*
X464956Y624943D01*
X465291Y624172D01*
X464956Y623402D01*
X464814Y622685D01*
Y620660D01*
X464956Y619943D01*
X465362Y619335D01*
Y619010D01*
X464956Y618402D01*
X464814Y617685D01*
Y615660D01*
X464888Y615288D01*
X464324Y614300D01*
X464047Y614017D01*
X459631D01*
X399318Y674331D01*
X398557Y674839D01*
X397660Y675017D01*
X397659Y675017D01*
X341970D01*
X313329Y703658D01*
X312568Y704166D01*
X311671Y704345D01*
X311671Y704345D01*
X85000Y704345D01*
X84233D01*
X83876Y705677D01*
X82622Y707849D01*
X80849Y709622D01*
X78677Y710876D01*
X76254Y711525D01*
X73746D01*
X71323Y710876D01*
X69152Y709622D01*
X67378Y707849D01*
X66124Y705677D01*
X65475Y703254D01*
Y700746D01*
X66124Y698324D01*
X67378Y696152D01*
X69152Y694378D01*
X71323Y693124D01*
X73746Y692475D01*
X76254D01*
X78677Y693124D01*
X80849Y694378D01*
X82622Y696152D01*
X83876Y698324D01*
X84233Y699655D01*
X85000D01*
X310700Y699655D01*
X339340Y671014D01*
X339340Y671014D01*
X340101Y670506D01*
X340998Y670327D01*
X396688D01*
X457001Y610014D01*
X457762Y609506D01*
X458660Y609327D01*
X458660Y609327D01*
X464047D01*
X464324Y609045D01*
X464888Y608057D01*
X464814Y607685D01*
Y605660D01*
X464956Y604943D01*
X465362Y604335D01*
X465970Y603929D01*
X466687Y603786D01*
X474460D01*
Y603632D01*
X474614D01*
Y602168D01*
X356230D01*
X356230Y602168D01*
X355332Y601989D01*
X354571Y601481D01*
X354571Y601481D01*
X299053Y545962D01*
X297874D01*
X296495Y545391D01*
X295441Y544337D01*
X294870Y542958D01*
Y541466D01*
X295441Y540088D01*
X296495Y539033D01*
X297874Y538462D01*
X299366D01*
X300444Y538909D01*
X301163Y537832D01*
X299053Y535722D01*
X297874D01*
X296495Y535151D01*
X295441Y534097D01*
X294870Y532718D01*
Y531227D01*
X295441Y529848D01*
X296495Y528793D01*
X297874Y528222D01*
X299366D01*
X300444Y528669D01*
X301163Y527592D01*
X299053Y525482D01*
X297874D01*
X296495Y524911D01*
X295441Y523857D01*
X294870Y522478D01*
Y520987D01*
X295441Y519608D01*
X296495Y518553D01*
X297874Y517982D01*
X299366D01*
X300744Y518553D01*
X301799Y519608D01*
X302370Y520987D01*
Y522166D01*
X335959Y555755D01*
X354676D01*
X355510Y554921D01*
X356888Y554350D01*
X358380D01*
X359758Y554921D01*
X360813Y555976D01*
X361384Y557354D01*
Y558846D01*
X360813Y560224D01*
X360690Y560347D01*
X361216Y561617D01*
X380318D01*
X380844Y560347D01*
X380721Y560224D01*
X380150Y558846D01*
Y557354D01*
X380721Y555976D01*
X381776Y554921D01*
X383154Y554350D01*
X384646D01*
X386024Y554921D01*
X387079Y555976D01*
X387217Y556310D01*
X445542D01*
X445542Y556310D01*
X446440Y556488D01*
X447201Y556997D01*
X457126Y566922D01*
X458306D01*
X459684Y567493D01*
X460739Y568548D01*
X461310Y569926D01*
Y571418D01*
X460739Y572797D01*
X459684Y573852D01*
X458306Y574422D01*
X456922D01*
X456681Y574708D01*
X456279Y575576D01*
X457126Y576422D01*
X458306D01*
X459684Y576993D01*
X460739Y578048D01*
X461310Y579426D01*
Y580918D01*
X460739Y582297D01*
X459684Y583352D01*
X458306Y583922D01*
X456814D01*
X455435Y583352D01*
X454380Y582297D01*
X453810Y580918D01*
Y579739D01*
X440378Y566307D01*
X330610D01*
X330610Y566307D01*
X329712Y566129D01*
X328951Y565621D01*
X303000Y539669D01*
X301923Y540388D01*
X302370Y541466D01*
Y542646D01*
X357201Y597477D01*
X474614D01*
Y595860D01*
X474756Y595143D01*
X475162Y594535D01*
X475770Y594129D01*
X476487Y593986D01*
X478512D01*
X478885Y594061D01*
X479872Y593497D01*
X480154Y593220D01*
Y589561D01*
X480154Y589561D01*
X480333Y588663D01*
X480841Y587902D01*
X503630Y565114D01*
X504390Y564606D01*
X505288Y564427D01*
X511592D01*
X512180Y563157D01*
X511750Y562118D01*
Y560626D01*
X512321Y559248D01*
X513375Y558193D01*
X514754Y557622D01*
X516245D01*
X517624Y558193D01*
X518679Y559248D01*
X519076Y560208D01*
X520423D01*
X520821Y559248D01*
X521875Y558193D01*
X523254Y557622D01*
X524745D01*
X526124Y558193D01*
X527179Y559248D01*
X527750Y560626D01*
Y562118D01*
X527319Y563157D01*
X527907Y564427D01*
X541073D01*
X563115Y542386D01*
Y510913D01*
X563115Y510912D01*
X563293Y510015D01*
X563801Y509254D01*
X578060Y494996D01*
Y493816D01*
X578630Y492438D01*
X579685Y491383D01*
X581064Y490812D01*
X582556D01*
X583934Y491383D01*
X584989Y492438D01*
X585560Y493816D01*
Y495308D01*
X584989Y496687D01*
X583934Y497741D01*
X582556Y498312D01*
X581376D01*
X567805Y511884D01*
Y543358D01*
X567626Y544255D01*
X567118Y545016D01*
X567118Y545016D01*
X545677Y566456D01*
X546172Y567755D01*
X546939Y567845D01*
X569134Y545649D01*
Y516823D01*
X569134Y516822D01*
X569313Y515925D01*
X569821Y515164D01*
X578060Y506926D01*
Y505746D01*
X578630Y504368D01*
X579685Y503313D01*
X581064Y502742D01*
X582556D01*
X583934Y503313D01*
X584989Y504368D01*
X585560Y505746D01*
Y507238D01*
X584989Y508617D01*
X583934Y509671D01*
X582556Y510242D01*
X581376D01*
X573825Y517794D01*
Y546620D01*
X573825Y546621D01*
X573646Y547518D01*
X573138Y548279D01*
X549386Y572031D01*
X548625Y572539D01*
X547728Y572718D01*
X547728Y572717D01*
X509126D01*
X490704Y591139D01*
X490759Y591826D01*
X491230Y592537D01*
Y599823D01*
X493770D01*
Y592977D01*
X494635Y593149D01*
X494767Y593147D01*
X496194Y592663D01*
X496391Y592367D01*
X504667Y584092D01*
X504667Y584092D01*
X505428Y583584D01*
X506325Y583405D01*
X584842D01*
X584921Y583278D01*
X585232Y582135D01*
X584421Y581324D01*
X583850Y579946D01*
Y578454D01*
X584421Y577076D01*
X585476Y576021D01*
X586854Y575450D01*
X588346D01*
X589724Y576021D01*
X590779Y577076D01*
X591350Y578454D01*
Y579946D01*
X590779Y581324D01*
X589968Y582135D01*
X590279Y583278D01*
X590358Y583405D01*
X609310D01*
X674991Y517724D01*
X675752Y517216D01*
X676650Y517037D01*
X676650Y517037D01*
X726655D01*
Y191045D01*
X655380D01*
X654483Y190867D01*
X653722Y190358D01*
X653722Y190358D01*
X652785Y189421D01*
X652277Y188660D01*
X652098Y187763D01*
X652098Y187763D01*
X650845Y187804D01*
Y193255D01*
X720863D01*
X720863Y193255D01*
X721760Y193434D01*
X722521Y193942D01*
X723458Y194879D01*
X723458Y194879D01*
X723967Y195640D01*
X724145Y196537D01*
Y511435D01*
X723967Y512333D01*
X723458Y513093D01*
X723458Y513093D01*
X722521Y514031D01*
X721760Y514539D01*
X720863Y514717D01*
X720863Y514717D01*
X674731D01*
X624790Y564658D01*
X624029Y565167D01*
X623132Y565345D01*
X623132Y565345D01*
X618858D01*
X618024Y566179D01*
X616646Y566750D01*
X615154D01*
X613776Y566179D01*
X612721Y565124D01*
X612150Y563746D01*
Y562254D01*
X612721Y560876D01*
X613776Y559821D01*
X615154Y559250D01*
X616646D01*
X618024Y559821D01*
X618858Y560655D01*
X622161D01*
X672101Y510714D01*
X672862Y510206D01*
X673760Y510027D01*
X673760Y510027D01*
X719455D01*
Y197945D01*
X649437D01*
X648540Y197767D01*
X647779Y197258D01*
X647779Y197258D01*
X646842Y196321D01*
X646334Y195560D01*
X646155Y194663D01*
X646155Y194663D01*
Y79245D01*
X584744D01*
X584491Y80515D01*
X586543Y81365D01*
X588632Y82968D01*
X590235Y85057D01*
X591243Y87490D01*
X591586Y90100D01*
X591243Y92711D01*
X590235Y95143D01*
X588632Y97232D01*
X586543Y98835D01*
X584111Y99843D01*
X581500Y100186D01*
X398500D01*
X395890Y99843D01*
X393457Y98835D01*
X391368Y97232D01*
X389765Y95143D01*
X388758Y92711D01*
X388414Y90100D01*
X388758Y87490D01*
X389765Y85057D01*
X391368Y82968D01*
X393457Y81365D01*
X395890Y80358D01*
X398500Y80014D01*
X552347D01*
X552732Y78744D01*
X552455Y78558D01*
X530214Y56317D01*
X488288D01*
X487454Y57151D01*
X486076Y57722D01*
X484584D01*
X483205Y57151D01*
X482151Y56097D01*
X481580Y54718D01*
Y53226D01*
X482151Y51848D01*
X483205Y50793D01*
X484584Y50222D01*
X486076D01*
X487454Y50793D01*
X488288Y51627D01*
X531185D01*
X531185Y51627D01*
X532082Y51806D01*
X532843Y52314D01*
X555084Y74555D01*
X558355D01*
X558691Y73982D01*
X558826Y73285D01*
X543263Y57722D01*
X542084D01*
X540705Y57151D01*
X539651Y56097D01*
X539080Y54718D01*
Y53226D01*
X539651Y51848D01*
X540705Y50793D01*
X542084Y50222D01*
X543576D01*
X544954Y50793D01*
X546009Y51848D01*
X546580Y53226D01*
Y54406D01*
X561629Y69455D01*
X573440D01*
X573966Y68185D01*
X573502Y67721D01*
X572994Y66960D01*
X572815Y66063D01*
X572815Y66063D01*
Y64758D01*
X571981Y63924D01*
X571410Y62546D01*
Y61054D01*
X571981Y59676D01*
X573036Y58621D01*
X574414Y58050D01*
X575906D01*
X577284Y58621D01*
X578339Y59676D01*
X578910Y61054D01*
Y62546D01*
X578563Y63385D01*
X579268Y64655D01*
X586792D01*
X587498Y63385D01*
X587150Y62546D01*
Y61054D01*
X587721Y59676D01*
X588776Y58621D01*
X590154Y58050D01*
X591646D01*
X593024Y58621D01*
X593858Y59455D01*
X662471D01*
X662471Y59455D01*
X663368Y59634D01*
X664129Y60142D01*
X667548Y63561D01*
X667548Y63561D01*
X668056Y64322D01*
X668235Y65219D01*
Y173855D01*
X695846D01*
X696231Y172585D01*
X694482Y171416D01*
X692184Y169118D01*
X690378Y166416D01*
X689134Y163413D01*
X688500Y160225D01*
Y156975D01*
X689134Y153787D01*
X690378Y150785D01*
X692184Y148082D01*
X694482Y145784D01*
X697184Y143978D01*
X700187Y142734D01*
X703375Y142100D01*
X706625D01*
X709813Y142734D01*
X712816Y143978D01*
X715518Y145784D01*
X717816Y148082D01*
X719622Y150785D01*
X720866Y153787D01*
X721500Y156975D01*
Y160225D01*
X720866Y163413D01*
X719622Y166416D01*
X717816Y169118D01*
X715518Y171416D01*
X713769Y172585D01*
X714155Y173855D01*
X741963D01*
X741963Y173855D01*
X742860Y174034D01*
X743621Y174542D01*
X744558Y175479D01*
X744558Y175479D01*
X745067Y176240D01*
X745245Y177137D01*
Y533735D01*
X745067Y534633D01*
X744558Y535393D01*
X744558Y535393D01*
X743621Y536331D01*
X742860Y536839D01*
X741963Y537018D01*
X741963Y537017D01*
X682431D01*
X617673Y601775D01*
X616913Y602283D01*
X616015Y602462D01*
X616015Y602462D01*
X521795D01*
Y605735D01*
X521616Y606633D01*
X521108Y607393D01*
X521108Y607393D01*
X520171Y608331D01*
X519410Y608839D01*
X518512Y609017D01*
X518512Y609017D01*
X515952D01*
X515675Y609300D01*
X515112Y610288D01*
X515186Y610660D01*
Y612685D01*
X515112Y613057D01*
X515675Y614045D01*
X515952Y614327D01*
X729912D01*
X729912Y614327D01*
X730810Y614506D01*
X731571Y615014D01*
X740011Y623455D01*
X788599D01*
X797040Y615014D01*
X797040Y615014D01*
X797800Y614506D01*
X798698Y614327D01*
X831857D01*
X833564Y612620D01*
X833038Y611350D01*
X832254D01*
X830876Y610779D01*
X830042Y609945D01*
X798896D01*
X798896Y609945D01*
X797998Y609767D01*
X797237Y609258D01*
X779964Y591985D01*
X768442D01*
X768190Y593255D01*
X769535Y593812D01*
X771206Y595095D01*
X772488Y596766D01*
X773294Y598712D01*
X773569Y600800D01*
Y612800D01*
X773294Y614889D01*
X772488Y616835D01*
X771206Y618506D01*
X769535Y619788D01*
X767589Y620594D01*
X765500Y620869D01*
X763412Y620594D01*
X761466Y619788D01*
X759794Y618506D01*
X758512Y616835D01*
X757706Y614889D01*
X757431Y612800D01*
Y600800D01*
X757706Y598712D01*
X758512Y596766D01*
X759794Y595095D01*
X761466Y593812D01*
X762811Y593255D01*
X762558Y591985D01*
X748341D01*
X731067Y609258D01*
X730307Y609767D01*
X729409Y609945D01*
X729409Y609945D01*
X676022D01*
X675188Y610779D01*
X673810Y611350D01*
X672318D01*
X670940Y610779D01*
X669885Y609724D01*
X669314Y608346D01*
Y606854D01*
X669885Y605476D01*
X670940Y604421D01*
X672318Y603850D01*
X673810D01*
X675188Y604421D01*
X676022Y605255D01*
X728438D01*
X745711Y587982D01*
X746472Y587474D01*
X747369Y587295D01*
X747369Y587295D01*
X780936D01*
X780936Y587295D01*
X781833Y587474D01*
X782594Y587982D01*
X799867Y605255D01*
X830042D01*
X830876Y604421D01*
X832254Y603850D01*
X833746D01*
X835124Y604421D01*
X836179Y605476D01*
X836750Y606854D01*
Y607638D01*
X838020Y608164D01*
X872842Y573342D01*
X872842Y573342D01*
X873603Y572834D01*
X874500Y572655D01*
X874500Y572655D01*
X895768D01*
X896124Y571324D01*
X897378Y569152D01*
X899152Y567378D01*
X901324Y566124D01*
X903746Y565475D01*
X906254D01*
X908677Y566124D01*
X910849Y567378D01*
X912622Y569152D01*
X913876Y571324D01*
X914525Y573746D01*
Y576254D01*
X913876Y578677D01*
X912622Y580849D01*
X910849Y582622D01*
X908677Y583876D01*
X906254Y584525D01*
X903746D01*
X901324Y583876D01*
X899152Y582622D01*
X897378Y580849D01*
X896124Y578677D01*
X895767Y577345D01*
X875471D01*
X834486Y618331D01*
X833725Y618839D01*
X832828Y619017D01*
X832828Y619017D01*
X799669D01*
X791228Y627458D01*
X790468Y627967D01*
X789570Y628145D01*
X789570Y628145D01*
X739040D01*
X738143Y627967D01*
X737382Y627458D01*
X737382Y627458D01*
X728941Y619017D01*
X601981D01*
X601813Y620288D01*
X603395Y620711D01*
X605105Y621699D01*
X606502Y623095D01*
X607052Y624049D01*
X608347Y624511D01*
X608660Y624403D01*
X609754Y623950D01*
X611246D01*
X612624Y624521D01*
X613679Y625576D01*
X614250Y626954D01*
Y628446D01*
X613679Y629824D01*
X612624Y630879D01*
X611246Y631450D01*
X609754D01*
X608660Y630997D01*
X608347Y630890D01*
X607052Y631352D01*
X606502Y632305D01*
X605105Y633702D01*
X603395Y634689D01*
X601488Y635200D01*
X599513D01*
X597605Y634689D01*
X595895Y633702D01*
X594499Y632305D01*
X593511Y630595D01*
X593460Y630403D01*
X593278Y630306D01*
X592072Y630131D01*
X591324Y630879D01*
X589946Y631450D01*
X588454D01*
X587360Y630997D01*
X587047Y630890D01*
X585752Y631352D01*
X585202Y632305D01*
X583805Y633702D01*
X582095Y634689D01*
X580187Y635200D01*
X578213D01*
X576305Y634689D01*
X574595Y633702D01*
X573199Y632305D01*
X572211Y630595D01*
X571700Y628688D01*
Y626713D01*
X572211Y624805D01*
X573199Y623095D01*
X574595Y621699D01*
X576305Y620711D01*
X577887Y620288D01*
X577720Y619017D01*
X531188D01*
X530662Y620288D01*
X531461Y621087D01*
X532059Y622530D01*
X527400D01*
Y623800D01*
X526130D01*
Y628459D01*
X525922Y628373D01*
X525203Y629449D01*
X577498Y681745D01*
X578007Y682505D01*
X578185Y683403D01*
X578185Y683403D01*
Y798693D01*
X579455Y798975D01*
X579934Y797949D01*
X581287Y796335D01*
X583013Y795127D01*
X584992Y794407D01*
X587091Y794223D01*
X589165Y794589D01*
X591074Y795479D01*
X601195Y801927D01*
X602809Y803281D01*
X604017Y805006D01*
X604737Y806986D01*
X604921Y809084D01*
X604555Y811159D01*
X603665Y813068D01*
X602311Y814681D01*
X600585Y815889D01*
X598606Y816610D01*
X596508Y816793D01*
X594433Y816428D01*
X592524Y815537D01*
X582403Y809090D01*
X580790Y807736D01*
X579581Y806010D01*
X579455Y805663D01*
X578185Y805887D01*
Y922660D01*
X578185Y922660D01*
X578007Y923558D01*
X577498Y924318D01*
X561687Y940130D01*
X562376Y941324D01*
X563025Y943746D01*
Y946254D01*
X562376Y948677D01*
X561122Y950849D01*
X559349Y952622D01*
X557177Y953876D01*
X554754Y954525D01*
D02*
G37*
G36*
X665646Y735450D02*
X664154D01*
X662776Y734879D01*
X661721Y733824D01*
X661150Y732446D01*
Y730954D01*
X661721Y729576D01*
X662776Y728521D01*
X664154Y727950D01*
X665646D01*
X667024Y728521D01*
X668079Y729576D01*
X668650Y730954D01*
Y732446D01*
X668079Y733824D01*
X667024Y734879D01*
X665646Y735450D01*
D02*
G37*
G36*
X315846D02*
X314354D01*
X312976Y734879D01*
X311921Y733824D01*
X311350Y732446D01*
Y730954D01*
X311921Y729576D01*
X312976Y728521D01*
X314354Y727950D01*
X315846D01*
X317224Y728521D01*
X318279Y729576D01*
X318850Y730954D01*
Y732446D01*
X318279Y733824D01*
X317224Y734879D01*
X315846Y735450D01*
D02*
G37*
G36*
X670900Y726269D02*
X658900D01*
X656812Y725994D01*
X654866Y725188D01*
X653195Y723906D01*
X651912Y722235D01*
X651106Y720289D01*
X650831Y718200D01*
X651106Y716112D01*
X651912Y714166D01*
X653195Y712495D01*
X654866Y711212D01*
X656812Y710406D01*
X658900Y710131D01*
X670900D01*
X672989Y710406D01*
X674935Y711212D01*
X676606Y712495D01*
X677888Y714166D01*
X678694Y716112D01*
X678969Y718200D01*
X678694Y720289D01*
X677888Y722235D01*
X676606Y723906D01*
X674935Y725188D01*
X672989Y725994D01*
X670900Y726269D01*
D02*
G37*
G36*
X321100Y726269D02*
X309100D01*
X307012Y725994D01*
X305066Y725188D01*
X303395Y723906D01*
X302112Y722235D01*
X301306Y720288D01*
X301031Y718200D01*
X301306Y716112D01*
X302112Y714166D01*
X303395Y712495D01*
X305066Y711212D01*
X307012Y710406D01*
X309100Y710131D01*
X321100D01*
X323189Y710406D01*
X325135Y711212D01*
X326806Y712495D01*
X328088Y714166D01*
X328894Y716112D01*
X329169Y718200D01*
X328894Y720288D01*
X328088Y722235D01*
X326806Y723906D01*
X325135Y725188D01*
X323189Y725994D01*
X321100Y726269D01*
D02*
G37*
G36*
X914525Y711525D02*
X895475D01*
Y692475D01*
X914525D01*
Y711525D01*
D02*
G37*
G36*
X388450Y722558D02*
X370670D01*
X369522Y722083D01*
X369046Y720934D01*
Y694010D01*
X369522Y692862D01*
X370670Y692387D01*
X388450D01*
X389598Y692862D01*
X390073Y694010D01*
Y720934D01*
X389598Y722083D01*
X388450Y722558D01*
D02*
G37*
G36*
X906391Y687165D02*
X906270D01*
Y677870D01*
X915565D01*
Y677991D01*
X914845Y680678D01*
X913454Y683087D01*
X911487Y685054D01*
X909078Y686445D01*
X906391Y687165D01*
D02*
G37*
G36*
X903730D02*
X903609D01*
X900922Y686445D01*
X898513Y685054D01*
X896546Y683087D01*
X895155Y680678D01*
X894435Y677991D01*
Y677870D01*
X903730D01*
Y687165D01*
D02*
G37*
G36*
X76254Y686125D02*
X73746D01*
X71323Y685476D01*
X69152Y684222D01*
X67378Y682449D01*
X66124Y680277D01*
X65475Y677854D01*
Y675346D01*
X66124Y672924D01*
X67378Y670752D01*
X69152Y668978D01*
X71323Y667724D01*
X73746Y667075D01*
X76254D01*
X78677Y667724D01*
X80849Y668978D01*
X82622Y670752D01*
X83876Y672924D01*
X84525Y675346D01*
Y677854D01*
X83876Y680277D01*
X82622Y682449D01*
X80849Y684222D01*
X78677Y685476D01*
X76254Y686125D01*
D02*
G37*
G36*
X915565Y675330D02*
X906270D01*
Y666035D01*
X906391D01*
X909078Y666755D01*
X911487Y668146D01*
X913454Y670113D01*
X914845Y672522D01*
X915565Y675209D01*
Y675330D01*
D02*
G37*
G36*
X903730D02*
X894435D01*
Y675209D01*
X895155Y672522D01*
X896546Y670113D01*
X898513Y668146D01*
X900922Y666755D01*
X903609Y666035D01*
X903730D01*
Y675330D01*
D02*
G37*
G36*
X496529Y665390D02*
X496230D01*
Y661342D01*
X500577D01*
X500269Y662891D01*
X499392Y664204D01*
X498078Y665082D01*
X496529Y665390D01*
D02*
G37*
G36*
X432746Y657050D02*
X431254D01*
X429876Y656479D01*
X428821Y655424D01*
X428250Y654046D01*
Y652554D01*
X428821Y651176D01*
X429876Y650121D01*
X431254Y649550D01*
X432746D01*
X434124Y650121D01*
X435179Y651176D01*
X435750Y652554D01*
Y654046D01*
X435179Y655424D01*
X434124Y656479D01*
X432746Y657050D01*
D02*
G37*
G36*
X580147Y660422D02*
X578172D01*
X576265Y659911D01*
X574554Y658924D01*
X573158Y657527D01*
X572171Y655817D01*
X571660Y653910D01*
Y651935D01*
X572171Y650027D01*
X573158Y648317D01*
X574554Y646921D01*
X576265Y645934D01*
X578172Y645422D01*
X580147D01*
X582054Y645934D01*
X583765Y646921D01*
X585161Y648317D01*
X585712Y649271D01*
X587007Y649733D01*
X587319Y649626D01*
X588414Y649172D01*
X589906D01*
X591284Y649743D01*
X592000Y650460D01*
X593281Y650250D01*
X593388Y650188D01*
X593471Y649877D01*
X594458Y648167D01*
X595854Y646771D01*
X597565Y645783D01*
X599472Y645272D01*
X601447D01*
X603354Y645783D01*
X605065Y646771D01*
X606461Y648167D01*
X607012Y649121D01*
X608307Y649583D01*
X608619Y649476D01*
X609714Y649022D01*
X611205D01*
X612584Y649593D01*
X613639Y650648D01*
X614210Y652027D01*
Y653518D01*
X613639Y654897D01*
X612584Y655951D01*
X611205Y656522D01*
X609714D01*
X608619Y656069D01*
X608307Y655962D01*
X607012Y656424D01*
X606461Y657377D01*
X605065Y658774D01*
X603354Y659761D01*
X601447Y660272D01*
X599472D01*
X597565Y659761D01*
X595854Y658774D01*
X594458Y657377D01*
X593471Y655667D01*
X593451Y655594D01*
X593185Y655463D01*
X592063Y655322D01*
X591284Y656101D01*
X589906Y656672D01*
X588414D01*
X587319Y656219D01*
X587007Y656112D01*
X585712Y656574D01*
X585161Y657527D01*
X583765Y658924D01*
X582054Y659911D01*
X580147Y660422D01*
D02*
G37*
G36*
X229846Y655950D02*
X228354D01*
X226976Y655379D01*
X225921Y654324D01*
X225350Y652946D01*
Y651454D01*
X225921Y650076D01*
X226976Y649021D01*
X228354Y648450D01*
X229846D01*
X231224Y649021D01*
X232279Y650076D01*
X232850Y651454D01*
Y652946D01*
X232279Y654324D01*
X231224Y655379D01*
X229846Y655950D01*
D02*
G37*
G36*
X398830Y648331D02*
Y644942D01*
X402218D01*
X401620Y646386D01*
X400273Y647733D01*
X398830Y648331D01*
D02*
G37*
G36*
X396290D02*
X394846Y647733D01*
X393499Y646386D01*
X392901Y644942D01*
X396290D01*
Y648331D01*
D02*
G37*
G36*
X906254Y660725D02*
X903746D01*
X901324Y660076D01*
X899152Y658822D01*
X897378Y657049D01*
X896124Y654877D01*
X895475Y652454D01*
Y649946D01*
X896124Y647524D01*
X897378Y645352D01*
X899152Y643578D01*
X901324Y642324D01*
X903746Y641675D01*
X906254D01*
X908677Y642324D01*
X910849Y643578D01*
X912622Y645352D01*
X913876Y647524D01*
X914525Y649946D01*
Y652454D01*
X913876Y654877D01*
X912622Y657049D01*
X910849Y658822D01*
X908677Y660076D01*
X906254Y660725D01*
D02*
G37*
G36*
X402218Y642402D02*
X398830D01*
Y639014D01*
X400273Y639612D01*
X401620Y640959D01*
X402218Y642402D01*
D02*
G37*
G36*
X396290D02*
X392901D01*
X393499Y640959D01*
X394846Y639612D01*
X396290Y639014D01*
Y642402D01*
D02*
G37*
G36*
X528670Y628459D02*
Y625070D01*
X532059D01*
X531461Y626513D01*
X530113Y627861D01*
X528670Y628459D01*
D02*
G37*
G36*
X258946Y625750D02*
X257454D01*
X256076Y625179D01*
X255021Y624124D01*
X254450Y622746D01*
Y621254D01*
X255021Y619876D01*
X256076Y618821D01*
X257454Y618250D01*
X258946D01*
X260324Y618821D01*
X261379Y619876D01*
X261950Y621254D01*
Y622746D01*
X261379Y624124D01*
X260324Y625179D01*
X258946Y625750D01*
D02*
G37*
G36*
X906254Y635325D02*
X903746D01*
X901324Y634676D01*
X899152Y633422D01*
X897378Y631649D01*
X896124Y629477D01*
X895475Y627054D01*
Y624546D01*
X896124Y622124D01*
X897378Y619952D01*
X899152Y618178D01*
X901324Y616924D01*
X903746Y616275D01*
X906254D01*
X908677Y616924D01*
X910849Y618178D01*
X912622Y619952D01*
X913876Y622124D01*
X914525Y624546D01*
Y627054D01*
X913876Y629477D01*
X912622Y631649D01*
X910849Y633422D01*
X908677Y634676D01*
X906254Y635325D01*
D02*
G37*
G36*
X76254Y635325D02*
X73746D01*
X71323Y634676D01*
X69152Y633422D01*
X67378Y631648D01*
X66124Y629477D01*
X65475Y627054D01*
Y624546D01*
X66124Y622123D01*
X67378Y619952D01*
X69152Y618178D01*
X71323Y616924D01*
X73746Y616275D01*
X76254D01*
X78677Y616924D01*
X80849Y618178D01*
X82622Y619952D01*
X83876Y622123D01*
X84525Y624546D01*
Y627054D01*
X83876Y629477D01*
X82622Y631648D01*
X80849Y633422D01*
X78677Y634676D01*
X76254Y635325D01*
D02*
G37*
G36*
X351060Y647422D02*
X349568D01*
X348190Y646852D01*
X347135Y645797D01*
X346564Y644418D01*
Y642926D01*
X347135Y641548D01*
X347969Y640714D01*
Y634918D01*
X347969Y634918D01*
X348147Y634021D01*
X348656Y633260D01*
X362624Y619292D01*
X362624Y619292D01*
X363384Y618784D01*
X364282Y618605D01*
X429942D01*
X429992Y618555D01*
X430187Y617261D01*
X428839Y615913D01*
X428242Y614470D01*
X437559D01*
X436961Y615913D01*
X435613Y617261D01*
X435808Y618555D01*
X436079Y618826D01*
X436650Y620204D01*
Y621696D01*
X436079Y623074D01*
X435024Y624129D01*
X433646Y624700D01*
X432154D01*
X430776Y624129D01*
X429942Y623295D01*
X365253D01*
X352659Y635890D01*
Y640714D01*
X353493Y641548D01*
X354064Y642926D01*
Y644418D01*
X353493Y645797D01*
X352438Y646852D01*
X351060Y647422D01*
D02*
G37*
G36*
X437559Y611930D02*
X434170D01*
Y608542D01*
X435613Y609139D01*
X436961Y610487D01*
X437559Y611930D01*
D02*
G37*
G36*
X431630D02*
X428242D01*
X428839Y610487D01*
X430187Y609139D01*
X431630Y608542D01*
Y611930D01*
D02*
G37*
G36*
X540446Y611550D02*
X538954D01*
X537576Y610979D01*
X536521Y609924D01*
X535950Y608546D01*
Y607054D01*
X536521Y605676D01*
X537576Y604621D01*
X538954Y604050D01*
X540446D01*
X541824Y604621D01*
X542658Y605455D01*
X619442D01*
X620476Y604421D01*
X621854Y603850D01*
X623346D01*
X624724Y604421D01*
X625779Y605476D01*
X626350Y606854D01*
Y608346D01*
X625779Y609724D01*
X624724Y610779D01*
X623346Y611350D01*
X621854D01*
X620476Y610779D01*
X619842Y610145D01*
X542658D01*
X541824Y610979D01*
X540446Y611550D01*
D02*
G37*
G36*
X860746Y610550D02*
X859254D01*
X857876Y609979D01*
X856821Y608924D01*
X856250Y607546D01*
Y606054D01*
X856821Y604676D01*
X857876Y603621D01*
X859254Y603050D01*
X860746D01*
X862124Y603621D01*
X863179Y604676D01*
X863750Y606054D01*
Y607546D01*
X863179Y608924D01*
X862124Y609979D01*
X860746Y610550D01*
D02*
G37*
G36*
X201746D02*
X200254D01*
X198876Y609979D01*
X197821Y608924D01*
X197250Y607546D01*
Y606054D01*
X197821Y604676D01*
X198876Y603621D01*
X200254Y603050D01*
X201746D01*
X203124Y603621D01*
X204179Y604676D01*
X204750Y606054D01*
Y607546D01*
X204179Y608924D01*
X203124Y609979D01*
X201746Y610550D01*
D02*
G37*
G36*
X76391Y610965D02*
X76270D01*
Y601670D01*
X85565D01*
Y601791D01*
X84845Y604478D01*
X83454Y606887D01*
X81487Y608854D01*
X79078Y610245D01*
X76391Y610965D01*
D02*
G37*
G36*
X73730D02*
X73609D01*
X70922Y610245D01*
X68513Y608854D01*
X66546Y606887D01*
X65155Y604478D01*
X64435Y601791D01*
Y601670D01*
X73730D01*
Y610965D01*
D02*
G37*
G36*
X458306Y595622D02*
X456814D01*
X455435Y595051D01*
X454601Y594217D01*
X440760D01*
X440760Y594217D01*
X439862Y594039D01*
X439101Y593531D01*
X434493Y588922D01*
X433314D01*
X431935Y588352D01*
X430881Y587297D01*
X430310Y585918D01*
Y584426D01*
X430881Y583048D01*
X431935Y581993D01*
X432895Y581596D01*
Y580249D01*
X431935Y579851D01*
X430881Y578797D01*
X430310Y577418D01*
Y575927D01*
X430881Y574548D01*
X431935Y573493D01*
X433314Y572922D01*
X434805D01*
X436184Y573493D01*
X437239Y574548D01*
X437810Y575927D01*
Y577418D01*
X437239Y578797D01*
X436184Y579851D01*
X435224Y580249D01*
Y581596D01*
X436184Y581993D01*
X437239Y583048D01*
X437810Y584426D01*
Y585606D01*
X441731Y589527D01*
X454601D01*
X455435Y588693D01*
X456814Y588122D01*
X458306D01*
X459684Y588693D01*
X460739Y589748D01*
X461310Y591127D01*
Y592618D01*
X460739Y593997D01*
X459684Y595051D01*
X458306Y595622D01*
D02*
G37*
G36*
X873500Y620869D02*
X871412Y620594D01*
X869466Y619788D01*
X867794Y618506D01*
X866512Y616835D01*
X865706Y614889D01*
X865431Y612800D01*
Y600800D01*
X865706Y598712D01*
X866512Y596766D01*
X867794Y595095D01*
X869466Y593812D01*
X871412Y593006D01*
X873500Y592731D01*
X875589Y593006D01*
X877535Y593812D01*
X879206Y595095D01*
X880488Y596766D01*
X881294Y598712D01*
X881569Y600800D01*
Y612800D01*
X881294Y614889D01*
X880488Y616835D01*
X879206Y618506D01*
X877535Y619788D01*
X875589Y620594D01*
X873500Y620869D01*
D02*
G37*
G36*
X214500D02*
X212412Y620594D01*
X210466Y619788D01*
X208794Y618506D01*
X207512Y616835D01*
X206706Y614889D01*
X206431Y612800D01*
Y600800D01*
X206706Y598712D01*
X207512Y596766D01*
X208794Y595095D01*
X210466Y593812D01*
X212412Y593006D01*
X214500Y592731D01*
X216588Y593006D01*
X218535Y593812D01*
X220206Y595095D01*
X221488Y596766D01*
X222294Y598712D01*
X222569Y600800D01*
Y612800D01*
X222294Y614889D01*
X221488Y616835D01*
X220206Y618506D01*
X218535Y619788D01*
X216588Y620594D01*
X214500Y620869D01*
D02*
G37*
G36*
X106500D02*
X104412Y620594D01*
X102466Y619788D01*
X100794Y618506D01*
X99512Y616835D01*
X98706Y614889D01*
X98431Y612800D01*
Y600800D01*
X98706Y598712D01*
X99512Y596766D01*
X100794Y595095D01*
X102466Y593812D01*
X104412Y593006D01*
X106500Y592731D01*
X108588Y593006D01*
X110535Y593812D01*
X112206Y595095D01*
X113488Y596766D01*
X114294Y598712D01*
X114569Y600800D01*
Y612800D01*
X114294Y614889D01*
X113488Y616835D01*
X112206Y618506D01*
X110535Y619788D01*
X108588Y620594D01*
X106500Y620869D01*
D02*
G37*
G36*
X906254Y609925D02*
X903746D01*
X901324Y609276D01*
X899152Y608022D01*
X897378Y606249D01*
X896124Y604077D01*
X895475Y601654D01*
Y599146D01*
X896124Y596724D01*
X897378Y594552D01*
X899152Y592778D01*
X901324Y591524D01*
X903746Y590875D01*
X906254D01*
X908677Y591524D01*
X910849Y592778D01*
X912622Y594552D01*
X913876Y596724D01*
X914525Y599146D01*
Y601654D01*
X913876Y604077D01*
X912622Y606249D01*
X910849Y608022D01*
X908677Y609276D01*
X906254Y609925D01*
D02*
G37*
G36*
X85565Y599130D02*
X76270D01*
Y589835D01*
X76391D01*
X79078Y590555D01*
X81487Y591946D01*
X83454Y593913D01*
X84845Y596322D01*
X85565Y599009D01*
Y599130D01*
D02*
G37*
G36*
X73730D02*
X64435D01*
Y599009D01*
X65155Y596322D01*
X66546Y593913D01*
X68513Y591946D01*
X70922Y590555D01*
X73609Y589835D01*
X73730D01*
Y599130D01*
D02*
G37*
G36*
X84525Y584525D02*
X65475D01*
Y565475D01*
X84525D01*
Y584525D01*
D02*
G37*
G36*
X498106Y565122D02*
X496614D01*
X495235Y564551D01*
X494939Y564255D01*
X494110Y563556D01*
X493280Y564255D01*
X492984Y564551D01*
X491606Y565122D01*
X490114D01*
X488736Y564551D01*
X487681Y563497D01*
X487110Y562118D01*
Y560626D01*
X487681Y559248D01*
X488736Y558193D01*
X490114Y557622D01*
X491606D01*
X492984Y558193D01*
X493280Y558489D01*
X494110Y559188D01*
X494939Y558489D01*
X495235Y558193D01*
X496614Y557622D01*
X498106D01*
X499484Y558193D01*
X500539Y559248D01*
X501110Y560626D01*
Y562118D01*
X500539Y563497D01*
X499484Y564551D01*
X498106Y565122D01*
D02*
G37*
G36*
X482245D02*
X480754D01*
X479375Y564551D01*
X478321Y563497D01*
X477750Y562118D01*
Y560626D01*
X478321Y559248D01*
X479375Y558193D01*
X480754Y557622D01*
X482245D01*
X483624Y558193D01*
X484679Y559248D01*
X485250Y560626D01*
Y562118D01*
X484679Y563497D01*
X483624Y564551D01*
X482245Y565122D01*
D02*
G37*
G36*
X282846Y560250D02*
X281354D01*
X279976Y559679D01*
X278921Y558624D01*
X278350Y557246D01*
Y555754D01*
X278921Y554376D01*
X279797Y553500D01*
X278921Y552624D01*
X278350Y551246D01*
Y549754D01*
X278921Y548376D01*
X279976Y547321D01*
X281354Y546750D01*
X282846D01*
X284224Y547321D01*
X285279Y548376D01*
X285850Y549754D01*
Y551246D01*
X285279Y552624D01*
X284403Y553500D01*
X285279Y554376D01*
X285850Y555754D01*
Y557246D01*
X285279Y558624D01*
X284224Y559679D01*
X282846Y560250D01*
D02*
G37*
G36*
X234996Y544250D02*
X233504D01*
X232126Y543679D01*
X231250Y542803D01*
X230374Y543679D01*
X228996Y544250D01*
X227504D01*
X226126Y543679D01*
X225071Y542624D01*
X224500Y541246D01*
Y539754D01*
X225071Y538376D01*
X226126Y537321D01*
X227504Y536750D01*
X228996D01*
X230374Y537321D01*
X231250Y538197D01*
X232126Y537321D01*
X233504Y536750D01*
X234996D01*
X236374Y537321D01*
X237429Y538376D01*
X238000Y539754D01*
Y541246D01*
X237429Y542624D01*
X236374Y543679D01*
X234996Y544250D01*
D02*
G37*
G36*
X421330Y537531D02*
Y534142D01*
X424718D01*
X424120Y535586D01*
X422773Y536933D01*
X421330Y537531D01*
D02*
G37*
G36*
X418790D02*
X417346Y536933D01*
X415999Y535586D01*
X415401Y534142D01*
X418790D01*
Y537531D01*
D02*
G37*
G36*
X385705Y547422D02*
X384214D01*
X382835Y546852D01*
X381781Y545797D01*
X381210Y544418D01*
Y542926D01*
X381781Y541548D01*
X382077Y541252D01*
X382776Y540422D01*
X382077Y539593D01*
X381781Y539297D01*
X381210Y537918D01*
Y536427D01*
X381781Y535048D01*
X382835Y533993D01*
X384214Y533422D01*
X385705D01*
X387084Y533993D01*
X388139Y535048D01*
X388710Y536427D01*
Y537918D01*
X388139Y539297D01*
X387842Y539593D01*
X387144Y540422D01*
X387842Y541252D01*
X388139Y541548D01*
X388710Y542926D01*
Y544418D01*
X388139Y545797D01*
X387084Y546852D01*
X385705Y547422D01*
D02*
G37*
G36*
X447646Y536622D02*
X446154D01*
X444776Y536051D01*
X443721Y534997D01*
X443150Y533618D01*
Y532127D01*
X443721Y530748D01*
X444776Y529693D01*
X446154Y529122D01*
X447646D01*
X449024Y529693D01*
X450079Y530748D01*
X450650Y532127D01*
Y533618D01*
X450079Y534997D01*
X449024Y536051D01*
X447646Y536622D01*
D02*
G37*
G36*
X76254Y660725D02*
X73746D01*
X71323Y660076D01*
X69152Y658822D01*
X67378Y657048D01*
X66124Y654877D01*
X65475Y652454D01*
Y649946D01*
X66124Y647523D01*
X67378Y645352D01*
X69152Y643578D01*
X71323Y642324D01*
X73746Y641675D01*
X76254D01*
X78677Y642324D01*
X80849Y643578D01*
X82622Y645352D01*
X83876Y647523D01*
X84233Y648855D01*
X139729D01*
X178355Y610229D01*
Y529054D01*
X177085Y528713D01*
X176702Y529378D01*
X175305Y530774D01*
X173595Y531761D01*
X171688Y532272D01*
X169713D01*
X167805Y531761D01*
X166095Y530774D01*
X164699Y529378D01*
X163711Y527667D01*
X163200Y525760D01*
Y523785D01*
X163711Y521878D01*
X164699Y520167D01*
X166095Y518771D01*
X167805Y517784D01*
X169713Y517272D01*
X171688D01*
X173595Y517784D01*
X175305Y518771D01*
X176702Y520167D01*
X177252Y521121D01*
X178547Y521583D01*
X178860Y521476D01*
X179954Y521022D01*
X181446D01*
X182824Y521593D01*
X183879Y522648D01*
X184450Y524026D01*
Y525518D01*
X183879Y526897D01*
X183045Y527731D01*
Y611200D01*
X182867Y612098D01*
X182358Y612858D01*
X142358Y652858D01*
X141598Y653367D01*
X140700Y653545D01*
X140700Y653545D01*
X84233D01*
X83876Y654877D01*
X82622Y657048D01*
X80849Y658822D01*
X78677Y660076D01*
X76254Y660725D01*
D02*
G37*
G36*
X424718Y531602D02*
X421330D01*
Y528214D01*
X422773Y528812D01*
X424120Y530159D01*
X424718Y531602D01*
D02*
G37*
G36*
X418790D02*
X415401D01*
X415999Y530159D01*
X417346Y528812D01*
X418790Y528214D01*
Y531602D01*
D02*
G37*
G36*
X804330Y533273D02*
Y526042D01*
X811561D01*
X811018Y528069D01*
X809893Y530016D01*
X808303Y531606D01*
X806356Y532730D01*
X804330Y533273D01*
D02*
G37*
G36*
X801790D02*
X799763Y532730D01*
X797816Y531606D01*
X796226Y530016D01*
X795102Y528069D01*
X794559Y526042D01*
X801790D01*
Y533273D01*
D02*
G37*
G36*
X540067Y540796D02*
X540067Y540796D01*
X499151D01*
X498253Y540617D01*
X497493Y540109D01*
X497493Y540109D01*
X372411Y415027D01*
X371903Y414267D01*
X371790Y413701D01*
X371525Y413591D01*
X370471Y412537D01*
X369900Y411158D01*
Y409666D01*
X370471Y408288D01*
X371525Y407233D01*
X372904Y406662D01*
X374395D01*
X375774Y407233D01*
X376829Y408288D01*
X377400Y409666D01*
Y411158D01*
X376829Y412537D01*
X376691Y412674D01*
X380069Y416053D01*
X381339Y415527D01*
Y413455D01*
X380420Y412537D01*
X379850Y411158D01*
Y409666D01*
X380420Y408288D01*
X381475Y407233D01*
X382854Y406662D01*
X384346D01*
X385724Y407233D01*
X386779Y408288D01*
X387350Y409666D01*
Y411158D01*
X386779Y412537D01*
X386029Y413286D01*
Y416026D01*
X414767Y444763D01*
X415843Y444044D01*
X415442Y443074D01*
X418830D01*
Y446462D01*
X417860Y446060D01*
X417141Y447137D01*
X447862Y477858D01*
X448799Y477055D01*
X448201Y475612D01*
X458030D01*
Y480900D01*
X460570D01*
Y476241D01*
X461915Y476798D01*
X463185Y476351D01*
Y422549D01*
X461915Y422060D01*
X460913Y423061D01*
X459470Y423659D01*
Y419000D01*
X456930D01*
Y423659D01*
X455487Y423061D01*
X454224Y421798D01*
X453866Y421572D01*
X452854Y421371D01*
X450901Y423324D01*
X451590Y424355D01*
Y427802D01*
X448142D01*
X447112Y427114D01*
X446567Y427658D01*
X445806Y428167D01*
X444909Y428345D01*
X444909Y428345D01*
X435558D01*
X434724Y429179D01*
X433346Y429750D01*
X431854D01*
X430476Y429179D01*
X429421Y428124D01*
X428850Y426746D01*
Y425254D01*
X429421Y423876D01*
X430476Y422821D01*
X431854Y422250D01*
X433346D01*
X434724Y422821D01*
X435558Y423655D01*
X443937D01*
X451455Y416138D01*
Y411458D01*
X450621Y410624D01*
X450050Y409246D01*
Y407754D01*
X450621Y406376D01*
X451676Y405321D01*
X453054Y404750D01*
X454546D01*
X455924Y405321D01*
X456979Y406376D01*
X458123Y406603D01*
X458587Y406139D01*
X460030Y405541D01*
Y410200D01*
X462570D01*
Y405198D01*
X463185Y404788D01*
Y376562D01*
X463185Y376562D01*
X463363Y375665D01*
X463871Y374904D01*
X511725Y327051D01*
Y292231D01*
X511211Y291717D01*
X508054D01*
X507105Y292987D01*
X507128Y293102D01*
X501650D01*
Y295642D01*
X507128D01*
X506941Y296580D01*
X506746Y296872D01*
X506941Y297165D01*
X507128Y298102D01*
X501650D01*
Y300642D01*
X507128D01*
X506941Y301580D01*
X506187Y302710D01*
X506012Y302826D01*
X506146Y303497D01*
Y305247D01*
X505962Y306174D01*
X505437Y306960D01*
X504651Y307485D01*
X503995Y307615D01*
Y328051D01*
X503816Y328948D01*
X503308Y329709D01*
X503308Y329709D01*
X464250Y368767D01*
Y369946D01*
X463679Y371324D01*
X462624Y372379D01*
X461246Y372950D01*
X459754D01*
X458376Y372379D01*
X457321Y371324D01*
X456750Y369946D01*
Y368454D01*
X457321Y367076D01*
X458376Y366021D01*
X459754Y365450D01*
X460934D01*
X499305Y327079D01*
Y309979D01*
X499094Y309828D01*
X497690Y309811D01*
X497345Y310100D01*
Y323978D01*
X497166Y324875D01*
X496658Y325636D01*
X453061Y369232D01*
Y369946D01*
X452490Y371324D01*
X451436Y372379D01*
X450057Y372950D01*
X448565D01*
X447187Y372379D01*
X446132Y371324D01*
X445561Y369946D01*
Y368454D01*
X446132Y367076D01*
X447187Y366021D01*
X448565Y365450D01*
X450057D01*
X450166Y365495D01*
X492654Y323006D01*
Y320304D01*
X492462Y320160D01*
X491385Y319832D01*
X442450Y368767D01*
Y369946D01*
X441879Y371324D01*
X440824Y372379D01*
X439446Y372950D01*
X437954D01*
X436576Y372379D01*
X435521Y371324D01*
X434950Y369946D01*
Y368454D01*
X435521Y367076D01*
X436576Y366021D01*
X437954Y365450D01*
X439134D01*
X487654Y316929D01*
Y314559D01*
X486385Y314173D01*
X486306Y314291D01*
X486306Y314291D01*
X430136Y370460D01*
X429376Y370969D01*
X428777Y371088D01*
X428679Y371324D01*
X427624Y372379D01*
X426246Y372950D01*
X424754D01*
X423376Y372379D01*
X422321Y371324D01*
X421750Y369946D01*
Y368454D01*
X422321Y367076D01*
X423376Y366021D01*
X424754Y365450D01*
X426246D01*
X427624Y366021D01*
X427784Y366180D01*
X482303Y311661D01*
Y309646D01*
X481887Y309024D01*
X480530Y308708D01*
X480425Y308729D01*
X479620D01*
Y304372D01*
X478350D01*
Y303102D01*
X472871D01*
X473058Y302165D01*
X473253Y301872D01*
X473058Y301580D01*
X472871Y300642D01*
X478350D01*
Y298102D01*
X472871D01*
X473058Y297165D01*
X473253Y296872D01*
X473058Y296580D01*
X472871Y295642D01*
X478350D01*
Y293102D01*
X472468D01*
X472139Y292701D01*
X470778D01*
X470742Y292754D01*
X469772Y293402D01*
X468629Y293630D01*
X466091D01*
X464947Y293402D01*
X464629Y293190D01*
X462979Y293373D01*
X462892Y293504D01*
X461578Y294382D01*
X460030Y294690D01*
Y289072D01*
Y283455D01*
X461578Y283763D01*
X462211Y284186D01*
X463481Y283507D01*
Y280951D01*
X368018D01*
X367478Y281491D01*
Y359992D01*
X367779Y361500D01*
X367468Y363061D01*
X366584Y364384D01*
X365261Y365268D01*
X363700Y365578D01*
X362139Y365268D01*
X360816Y364384D01*
X360516Y364084D01*
X359632Y362761D01*
X359322Y361200D01*
X359322Y361200D01*
Y279802D01*
X359322Y279801D01*
X359632Y278241D01*
X360516Y276917D01*
X363445Y273989D01*
X363445Y273989D01*
X364768Y273104D01*
X366329Y272794D01*
X467560D01*
X467668Y272816D01*
X467776Y272794D01*
X489761D01*
X490439Y271524D01*
X490150Y271091D01*
X489842Y269542D01*
X495460D01*
X501077D01*
X500769Y271091D01*
X499892Y272404D01*
X499760Y272492D01*
X499577Y274142D01*
X499790Y274460D01*
X500017Y275603D01*
Y278141D01*
X499790Y279285D01*
X499538Y279662D01*
Y283972D01*
X499366Y284838D01*
X499382Y284933D01*
X500250Y286043D01*
X500316Y286076D01*
X503725D01*
X504651Y286260D01*
X505437Y286785D01*
X505599Y287027D01*
X512182D01*
X512182Y287027D01*
X513080Y287206D01*
X513841Y287714D01*
X515728Y289601D01*
X516236Y290362D01*
X516415Y291260D01*
X516415Y291260D01*
Y328022D01*
X516415Y328022D01*
X516236Y328920D01*
X515728Y329681D01*
X515728Y329681D01*
X467875Y377534D01*
Y488851D01*
X502579Y523555D01*
X520364D01*
X521076Y522843D01*
X522454Y522272D01*
X523946D01*
X525324Y522843D01*
X526379Y523898D01*
X526950Y525276D01*
Y526768D01*
X526379Y528147D01*
X526083Y528443D01*
X526609Y529713D01*
X528696D01*
X529222Y528443D01*
X528926Y528147D01*
X528355Y526768D01*
Y525276D01*
X528926Y523898D01*
X529981Y522843D01*
X531359Y522272D01*
X532851D01*
X534229Y522843D01*
X535284Y523898D01*
X535855Y525276D01*
Y526768D01*
X535284Y528147D01*
X534450Y528981D01*
Y531121D01*
X534271Y532018D01*
X533763Y532779D01*
X533763Y532779D01*
X532826Y533716D01*
X532065Y534225D01*
X531168Y534403D01*
X531167Y534403D01*
X501238D01*
X500580Y535673D01*
X500885Y536106D01*
X538660D01*
Y528976D01*
X537831Y528147D01*
X537260Y526768D01*
Y525276D01*
X537831Y523898D01*
X538885Y522843D01*
X540264Y522272D01*
X541755D01*
X543134Y522843D01*
X544189Y523898D01*
X544760Y525276D01*
Y526768D01*
X544189Y528147D01*
X543350Y528986D01*
Y537514D01*
X543171Y538411D01*
X542663Y539172D01*
X542663Y539172D01*
X541726Y540109D01*
X540965Y540617D01*
X540067Y540796D01*
D02*
G37*
G36*
X198587Y532272D02*
X196613D01*
X194705Y531761D01*
X192995Y530774D01*
X191599Y529378D01*
X190611Y527667D01*
X190100Y525760D01*
Y523785D01*
X190611Y521878D01*
X191599Y520167D01*
X192995Y518771D01*
X194705Y517784D01*
X196613Y517272D01*
X198587D01*
X200495Y517784D01*
X202205Y518771D01*
X203602Y520167D01*
X204299Y521375D01*
X205591Y521680D01*
X205838Y521631D01*
X205876Y521593D01*
X207254Y521022D01*
X208746D01*
X210124Y521593D01*
X211179Y522648D01*
X211750Y524026D01*
Y525518D01*
X211179Y526897D01*
X210124Y527952D01*
X208746Y528522D01*
X207254D01*
X205876Y527952D01*
X205838Y527913D01*
X205591Y527865D01*
X204299Y528170D01*
X203602Y529378D01*
X202205Y530774D01*
X200495Y531761D01*
X198587Y532272D01*
D02*
G37*
G36*
X453615Y525482D02*
X452124D01*
X450745Y524911D01*
X449691Y523857D01*
X449120Y522478D01*
Y521610D01*
X448454Y520945D01*
X319358D01*
X318424Y521879D01*
X317046Y522450D01*
X315554D01*
X314176Y521879D01*
X313121Y520824D01*
X312550Y519446D01*
Y517954D01*
X313121Y516576D01*
X314176Y515521D01*
X315554Y514950D01*
X317046D01*
X318424Y515521D01*
X319158Y516255D01*
X449426D01*
X449426Y516255D01*
X450323Y516434D01*
X451084Y516942D01*
X452124Y517982D01*
X453615D01*
X454994Y518553D01*
X456049Y519608D01*
X456620Y520987D01*
Y522478D01*
X456049Y523857D01*
X454994Y524911D01*
X453615Y525482D01*
D02*
G37*
G36*
X779647Y532272D02*
X777672D01*
X775765Y531761D01*
X774054Y530774D01*
X772658Y529378D01*
X771671Y527667D01*
X771160Y525760D01*
Y523785D01*
X771671Y521878D01*
X772658Y520167D01*
X774054Y518771D01*
X775765Y517784D01*
X777672Y517272D01*
X779647D01*
X781554Y517784D01*
X783265Y518771D01*
X784661Y520167D01*
X784965Y520694D01*
X788356D01*
X789917Y521004D01*
X791240Y521889D01*
X791564Y522374D01*
X791839Y522648D01*
X791987Y523007D01*
X792124Y523212D01*
X792172Y523453D01*
X792410Y524026D01*
Y524647D01*
X792434Y524772D01*
X792410Y524898D01*
Y525518D01*
X792172Y526092D01*
X792124Y526333D01*
X791987Y526538D01*
X791839Y526897D01*
X791564Y527171D01*
X791240Y527656D01*
X789917Y528540D01*
X788356Y528851D01*
X784965D01*
X784661Y529378D01*
X783265Y530774D01*
X781554Y531761D01*
X779647Y532272D01*
D02*
G37*
G36*
X755247D02*
X753272D01*
X751365Y531761D01*
X749654Y530774D01*
X748258Y529378D01*
X747271Y527667D01*
X746760Y525760D01*
Y523785D01*
X747271Y521878D01*
X748258Y520167D01*
X749654Y518771D01*
X751365Y517784D01*
X753272Y517272D01*
X755247D01*
X757154Y517784D01*
X758865Y518771D01*
X760261Y520167D01*
X760565Y520694D01*
X764157D01*
X765718Y521004D01*
X767041Y521889D01*
X767925Y523212D01*
X768235Y524772D01*
X767925Y526333D01*
X767041Y527656D01*
X765718Y528540D01*
X764157Y528851D01*
X760565D01*
X760261Y529378D01*
X758865Y530774D01*
X757154Y531761D01*
X755247Y532272D01*
D02*
G37*
G36*
X811561Y523502D02*
X804330D01*
Y516272D01*
X806356Y516814D01*
X808303Y517939D01*
X809893Y519529D01*
X811018Y521476D01*
X811561Y523502D01*
D02*
G37*
G36*
X801790D02*
X794559D01*
X795102Y521476D01*
X796226Y519529D01*
X797816Y517939D01*
X799763Y516814D01*
X801790Y516272D01*
Y523502D01*
D02*
G37*
G36*
X391370Y513959D02*
Y510570D01*
X394759D01*
X394161Y512013D01*
X392813Y513361D01*
X391370Y513959D01*
D02*
G37*
G36*
X388830D02*
X387387Y513361D01*
X386039Y512013D01*
X385442Y510570D01*
X388830D01*
Y513959D01*
D02*
G37*
G36*
X555247Y504672D02*
X553272D01*
X551365Y504161D01*
X549655Y503174D01*
X548258Y501777D01*
X547378Y500253D01*
X546661Y500001D01*
X545916Y499919D01*
X545534Y500301D01*
X544156Y500872D01*
X542664D01*
X541286Y500301D01*
X541087Y500103D01*
X540639Y500091D01*
X539589Y500401D01*
X538794Y501777D01*
X537398Y503174D01*
X535688Y504161D01*
X533780Y504672D01*
X531805D01*
X529898Y504161D01*
X528188Y503174D01*
X526791Y501777D01*
X525804Y500067D01*
X525709Y499711D01*
X525171Y499526D01*
X524330Y499472D01*
X523451Y500351D01*
X522072Y500922D01*
X520580D01*
X519486Y500469D01*
X519173Y500362D01*
X517878Y500824D01*
X517328Y501777D01*
X515931Y503174D01*
X514221Y504161D01*
X512314Y504672D01*
X510339D01*
X508431Y504161D01*
X506721Y503174D01*
X505325Y501777D01*
X504337Y500067D01*
X504242Y499711D01*
X503704Y499526D01*
X502863Y499472D01*
X501984Y500351D01*
X500606Y500922D01*
X499114D01*
X498019Y500469D01*
X497707Y500362D01*
X496412Y500824D01*
X495861Y501777D01*
X494465Y503174D01*
X492755Y504161D01*
X490847Y504672D01*
X488872D01*
X486965Y504161D01*
X485255Y503174D01*
X483858Y501777D01*
X482871Y500067D01*
X482360Y498160D01*
Y496185D01*
X482871Y494277D01*
X483858Y492567D01*
X485255Y491171D01*
X486965Y490183D01*
X488872Y489672D01*
X490847D01*
X492755Y490183D01*
X494465Y491171D01*
X495861Y492567D01*
X496412Y493521D01*
X497707Y493983D01*
X498019Y493876D01*
X499114Y493422D01*
X500606D01*
X501984Y493993D01*
X502863Y494873D01*
X503704Y494819D01*
X504242Y494634D01*
X504337Y494277D01*
X505325Y492567D01*
X506721Y491171D01*
X508431Y490183D01*
X510339Y489672D01*
X512314D01*
X514221Y490183D01*
X515931Y491171D01*
X517328Y492567D01*
X517878Y493521D01*
X519173Y493983D01*
X519486Y493876D01*
X520580Y493422D01*
X522072D01*
X523451Y493993D01*
X524330Y494873D01*
X525171Y494819D01*
X525709Y494634D01*
X525804Y494277D01*
X526791Y492567D01*
X528188Y491171D01*
X529898Y490183D01*
X531805Y489672D01*
X533780D01*
X535688Y490183D01*
X537398Y491171D01*
X538794Y492567D01*
X539553Y493881D01*
X540706Y494195D01*
X541066Y494163D01*
X541286Y493943D01*
X542664Y493372D01*
X544156D01*
X545534Y493943D01*
X545937Y494347D01*
X546537Y494316D01*
X547415Y494028D01*
X548258Y492567D01*
X549655Y491171D01*
X551365Y490183D01*
X553272Y489672D01*
X555247D01*
X557155Y490183D01*
X558865Y491171D01*
X560261Y492567D01*
X560812Y493521D01*
X562107Y493983D01*
X562419Y493876D01*
X563514Y493422D01*
X565005D01*
X566384Y493993D01*
X567439Y495048D01*
X568010Y496426D01*
Y497918D01*
X567439Y499296D01*
X566384Y500351D01*
X565005Y500922D01*
X563514D01*
X562419Y500469D01*
X562107Y500362D01*
X560812Y500824D01*
X560261Y501777D01*
X558865Y503174D01*
X557155Y504161D01*
X555247Y504672D01*
D02*
G37*
G36*
X394759Y508030D02*
X385442D01*
X386039Y506587D01*
X387387Y505239D01*
X389147Y504510D01*
Y503290D01*
X387387Y502561D01*
X386039Y501213D01*
X385442Y499770D01*
X394759D01*
X394161Y501213D01*
X392813Y502561D01*
X391053Y503290D01*
Y504510D01*
X392813Y505239D01*
X394161Y506587D01*
X394759Y508030D01*
D02*
G37*
G36*
X421370Y502559D02*
Y499170D01*
X424759D01*
X424161Y500613D01*
X422813Y501961D01*
X421370Y502559D01*
D02*
G37*
G36*
X418830D02*
X417387Y501961D01*
X416039Y500613D01*
X415442Y499170D01*
X418830D01*
Y502559D01*
D02*
G37*
G36*
X285765Y505082D02*
X284274D01*
X282895Y504511D01*
X281841Y503457D01*
X281270Y502078D01*
Y500587D01*
X281841Y499208D01*
X282895Y498153D01*
X284274Y497582D01*
X285765D01*
X287144Y498153D01*
X288199Y499208D01*
X288770Y500587D01*
Y502078D01*
X288199Y503457D01*
X287144Y504511D01*
X285765Y505082D01*
D02*
G37*
G36*
X394759Y497230D02*
X391370D01*
Y493842D01*
X392813Y494439D01*
X394161Y495787D01*
X394759Y497230D01*
D02*
G37*
G36*
X388830D02*
X385442D01*
X386039Y495787D01*
X387387Y494439D01*
X388830Y493842D01*
Y497230D01*
D02*
G37*
G36*
X424759Y496630D02*
X415442D01*
X416039Y495187D01*
X416596Y494630D01*
X417351Y493800D01*
X416596Y492971D01*
X416039Y492413D01*
X415442Y490970D01*
X424759D01*
X424161Y492413D01*
X423604Y492971D01*
X422849Y493800D01*
X423604Y494630D01*
X424161Y495187D01*
X424759Y496630D01*
D02*
G37*
G36*
Y488430D02*
X415442D01*
X416039Y486987D01*
X416965Y486061D01*
X417250Y485250D01*
X416965Y484439D01*
X416039Y483513D01*
X415442Y482070D01*
X424759D01*
X424161Y483513D01*
X423235Y484439D01*
X422950Y485250D01*
X423235Y486061D01*
X424161Y486987D01*
X424759Y488430D01*
D02*
G37*
G36*
X582556Y484122D02*
X581064D01*
X579685Y483551D01*
X578630Y482497D01*
X578060Y481118D01*
Y479627D01*
X578630Y478248D01*
X579685Y477193D01*
X581064Y476622D01*
X582556D01*
X583934Y477193D01*
X584989Y478248D01*
X585560Y479627D01*
Y481118D01*
X584989Y482497D01*
X583934Y483551D01*
X582556Y484122D01*
D02*
G37*
G36*
X546570Y479759D02*
Y476370D01*
X549959D01*
X549361Y477813D01*
X548013Y479161D01*
X546570Y479759D01*
D02*
G37*
G36*
X544030D02*
X542587Y479161D01*
X541239Y477813D01*
X540642Y476370D01*
X544030D01*
Y479759D01*
D02*
G37*
G36*
X531770D02*
Y476370D01*
X535159D01*
X534561Y477813D01*
X533213Y479161D01*
X531770Y479759D01*
D02*
G37*
G36*
X529230D02*
X527787Y479161D01*
X526439Y477813D01*
X525841Y476370D01*
X529230D01*
Y479759D01*
D02*
G37*
G36*
X516970D02*
Y476370D01*
X520359D01*
X519761Y477813D01*
X518413Y479161D01*
X516970Y479759D01*
D02*
G37*
G36*
X514430D02*
X512987Y479161D01*
X511639Y477813D01*
X511041Y476370D01*
X514430D01*
Y479759D01*
D02*
G37*
G36*
X502170D02*
Y476370D01*
X505559D01*
X504961Y477813D01*
X503613Y479161D01*
X502170Y479759D01*
D02*
G37*
G36*
X499630D02*
X498187Y479161D01*
X496839Y477813D01*
X496241Y476370D01*
X499630D01*
Y479759D01*
D02*
G37*
G36*
X424759Y479530D02*
X415442D01*
X416039Y478087D01*
X417150Y476976D01*
X417290Y476219D01*
X417150Y475463D01*
X416039Y474352D01*
X415442Y472908D01*
X424759D01*
X424161Y474352D01*
X423050Y475463D01*
X422910Y476219D01*
X423050Y476976D01*
X424161Y478087D01*
X424759Y479530D01*
D02*
G37*
G36*
X549959Y473830D02*
X546570D01*
Y470442D01*
X548013Y471039D01*
X549361Y472387D01*
X549959Y473830D01*
D02*
G37*
G36*
X544030D02*
X540642D01*
X541239Y472387D01*
X542587Y471039D01*
X544030Y470442D01*
Y473830D01*
D02*
G37*
G36*
X535159D02*
X531770D01*
Y470442D01*
X533213Y471039D01*
X534561Y472387D01*
X535159Y473830D01*
D02*
G37*
G36*
X529230D02*
X525841D01*
X526439Y472387D01*
X527787Y471039D01*
X529230Y470442D01*
Y473830D01*
D02*
G37*
G36*
X520359D02*
X516970D01*
Y470442D01*
X518413Y471039D01*
X519761Y472387D01*
X520359Y473830D01*
D02*
G37*
G36*
X514430D02*
X511041D01*
X511639Y472387D01*
X512987Y471039D01*
X514430Y470442D01*
Y473830D01*
D02*
G37*
G36*
X505559D02*
X502170D01*
Y470442D01*
X503613Y471039D01*
X504961Y472387D01*
X505559Y473830D01*
D02*
G37*
G36*
X499630D02*
X496241D01*
X496839Y472387D01*
X498187Y471039D01*
X499630Y470442D01*
Y473830D01*
D02*
G37*
G36*
X424759Y470368D02*
X421370D01*
Y466980D01*
X422813Y467577D01*
X424161Y468925D01*
X424759Y470368D01*
D02*
G37*
G36*
X418830D02*
X415442D01*
X416039Y468925D01*
X417387Y467577D01*
X418830Y466980D01*
Y470368D01*
D02*
G37*
G36*
X457519Y473072D02*
X448201D01*
X448799Y471629D01*
X450147Y470281D01*
X450957Y469945D01*
Y468571D01*
X450147Y468235D01*
X448799Y466888D01*
X448201Y465444D01*
X457519D01*
X456921Y466888D01*
X455573Y468235D01*
X454763Y468571D01*
Y469945D01*
X455573Y470281D01*
X456921Y471629D01*
X457519Y473072D01*
D02*
G37*
G36*
X486446Y471550D02*
X484954D01*
X483576Y470979D01*
X482521Y469924D01*
X481950Y468546D01*
Y467054D01*
X482521Y465676D01*
X483576Y464621D01*
X484954Y464050D01*
X486446D01*
X487824Y464621D01*
X488879Y465676D01*
X489450Y467054D01*
Y468546D01*
X488879Y469924D01*
X487824Y470979D01*
X486446Y471550D01*
D02*
G37*
G36*
X552470Y464459D02*
Y461070D01*
X555859D01*
X555261Y462513D01*
X553913Y463861D01*
X552470Y464459D01*
D02*
G37*
G36*
X549930D02*
X548487Y463861D01*
X547139Y462513D01*
X546541Y461070D01*
X549930D01*
Y464459D01*
D02*
G37*
G36*
X811625Y492870D02*
X808375D01*
X805187Y492236D01*
X802184Y490992D01*
X799482Y489187D01*
X797184Y486888D01*
X795378Y484186D01*
X794134Y481183D01*
X793500Y477995D01*
Y474745D01*
X794134Y471557D01*
X795378Y468554D01*
X797184Y465852D01*
X799482Y463554D01*
X802184Y461748D01*
X805187Y460504D01*
X808375Y459870D01*
X811625D01*
X814813Y460504D01*
X817816Y461748D01*
X820518Y463554D01*
X822816Y465852D01*
X824622Y468554D01*
X825866Y471557D01*
X826500Y474745D01*
Y477995D01*
X825866Y481183D01*
X824622Y484186D01*
X822816Y486888D01*
X820518Y489187D01*
X817816Y490992D01*
X814813Y492236D01*
X811625Y492870D01*
D02*
G37*
G36*
X171625D02*
X168375D01*
X165187Y492236D01*
X162184Y490992D01*
X159482Y489187D01*
X157184Y486888D01*
X155378Y484186D01*
X154134Y481183D01*
X153500Y477995D01*
Y474745D01*
X154134Y471557D01*
X155378Y468554D01*
X157184Y465852D01*
X159482Y463554D01*
X162184Y461748D01*
X165187Y460504D01*
X168375Y459870D01*
X171625D01*
X174813Y460504D01*
X177816Y461748D01*
X180518Y463554D01*
X182817Y465852D01*
X184622Y468554D01*
X185866Y471557D01*
X186500Y474745D01*
Y477995D01*
X185866Y481183D01*
X184622Y484186D01*
X182817Y486888D01*
X180518Y489187D01*
X177816Y490992D01*
X174813Y492236D01*
X171625Y492870D01*
D02*
G37*
G36*
X457519Y462904D02*
X448201D01*
X448799Y461461D01*
X450003Y460257D01*
X450083Y459528D01*
X450003Y458798D01*
X448799Y457595D01*
X448201Y456152D01*
X457519D01*
X456921Y457595D01*
X455717Y458798D01*
X455638Y459528D01*
X455717Y460257D01*
X456921Y461461D01*
X457519Y462904D01*
D02*
G37*
G36*
X555859Y458530D02*
X546541D01*
X547139Y457087D01*
X548487Y455739D01*
X550247Y455010D01*
X550277D01*
X550768Y453740D01*
X550242Y452470D01*
X559559D01*
X558961Y453913D01*
X557613Y455261D01*
X555853Y455990D01*
X555824D01*
X555333Y457260D01*
X555859Y458530D01*
D02*
G37*
G36*
X288670Y455859D02*
Y452470D01*
X292059D01*
X291461Y453913D01*
X290113Y455261D01*
X288670Y455859D01*
D02*
G37*
G36*
X286130D02*
X284687Y455261D01*
X283339Y453913D01*
X282742Y452470D01*
X286130D01*
Y455859D01*
D02*
G37*
G36*
X487030Y452819D02*
Y450243D01*
X489606D01*
X489184Y451261D01*
X488048Y452397D01*
X487030Y452819D01*
D02*
G37*
G36*
X484490Y452819D02*
X483471Y452397D01*
X482335Y451261D01*
X481913Y450243D01*
X484490D01*
Y452819D01*
D02*
G37*
G36*
X457519Y453612D02*
X448201D01*
X448799Y452168D01*
X449770Y451198D01*
X450017Y450400D01*
X449770Y449603D01*
X448799Y448632D01*
X448201Y447189D01*
X457519D01*
X456921Y448632D01*
X455951Y449603D01*
X455704Y450400D01*
X455951Y451198D01*
X456921Y452168D01*
X457519Y453612D01*
D02*
G37*
G36*
X401432Y464535D02*
X395688D01*
X394539Y464059D01*
X394064Y462911D01*
Y448433D01*
X394539Y447285D01*
X395688Y446810D01*
X401432D01*
X402580Y447285D01*
X403055Y448433D01*
Y462911D01*
X402580Y464059D01*
X401432Y464535D01*
D02*
G37*
G36*
X559559Y449930D02*
X556170D01*
Y446542D01*
X557613Y447139D01*
X558961Y448487D01*
X559559Y449930D01*
D02*
G37*
G36*
X553630D02*
X550242D01*
X550839Y448487D01*
X552187Y447139D01*
X553630Y446542D01*
Y449930D01*
D02*
G37*
G36*
X292059D02*
X288670D01*
Y446542D01*
X290113Y447139D01*
X291461Y448487D01*
X292059Y449930D01*
D02*
G37*
G36*
X286130D02*
X282742D01*
X283339Y448487D01*
X284687Y447139D01*
X286130Y446542D01*
Y449930D01*
D02*
G37*
G36*
X421370Y446462D02*
Y443074D01*
X424759D01*
X424161Y444517D01*
X422813Y445864D01*
X421370Y446462D01*
D02*
G37*
G36*
X489607Y447702D02*
X485760D01*
X481913D01*
X482335Y446684D01*
X482966Y446052D01*
X483329Y445222D01*
X482966Y444393D01*
X482335Y443761D01*
X481913Y442742D01*
X485760D01*
X489607D01*
X489184Y443761D01*
X488553Y444393D01*
X488190Y445222D01*
X488553Y446052D01*
X489184Y446684D01*
X489607Y447702D01*
D02*
G37*
G36*
X457519Y444649D02*
X448201D01*
X448799Y443205D01*
X449582Y442423D01*
X450010Y441593D01*
X449582Y440763D01*
X448799Y439980D01*
X448201Y438537D01*
X457519D01*
X456921Y439980D01*
X456138Y440763D01*
X455710Y441593D01*
X456138Y442423D01*
X456921Y443205D01*
X457519Y444649D01*
D02*
G37*
G36*
X489606Y440202D02*
X485760D01*
X481913D01*
X482335Y439184D01*
X482966Y438552D01*
X483329Y437722D01*
X482966Y436893D01*
X482335Y436261D01*
X481913Y435243D01*
X485760D01*
X489606D01*
X489184Y436261D01*
X488553Y436893D01*
X488190Y437722D01*
X488553Y438552D01*
X489184Y439184D01*
X489606Y440202D01*
D02*
G37*
G36*
X424759Y440533D02*
X415442D01*
X416039Y439090D01*
X417387Y437743D01*
X417515Y437690D01*
Y436315D01*
X417387Y436262D01*
X416039Y434915D01*
X415442Y433471D01*
X424759D01*
X424161Y434915D01*
X422813Y436262D01*
X422686Y436315D01*
Y437690D01*
X422813Y437743D01*
X424161Y439090D01*
X424759Y440533D01*
D02*
G37*
G36*
X384506Y446322D02*
X383014D01*
X381635Y445751D01*
X380580Y444697D01*
X380010Y443318D01*
Y441826D01*
X380580Y440448D01*
X381456Y439572D01*
X380580Y438697D01*
X380010Y437318D01*
Y435826D01*
X380580Y434448D01*
X381635Y433393D01*
X383014Y432822D01*
X384506D01*
X385884Y433393D01*
X386939Y434448D01*
X387510Y435826D01*
Y437318D01*
X386939Y438697D01*
X386063Y439572D01*
X386939Y440448D01*
X387510Y441826D01*
Y443318D01*
X386939Y444697D01*
X385884Y445751D01*
X384506Y446322D01*
D02*
G37*
G36*
X547370Y434859D02*
Y431470D01*
X550759D01*
X550161Y432913D01*
X548813Y434261D01*
X547370Y434859D01*
D02*
G37*
G36*
X544830D02*
X543387Y434261D01*
X542039Y432913D01*
X541441Y431470D01*
X544830D01*
Y434859D01*
D02*
G37*
G36*
X457519Y435997D02*
X448201D01*
X448799Y434554D01*
X449353Y434000D01*
X450113Y433169D01*
X449353Y432340D01*
X448799Y431786D01*
X448201Y430342D01*
X457518D01*
X456920Y431786D01*
X456366Y432340D01*
X455607Y433170D01*
X456366Y433999D01*
X456921Y434554D01*
X457519Y435997D01*
D02*
G37*
G36*
X489607Y432702D02*
X487030D01*
Y430126D01*
X488048Y430547D01*
X489184Y431684D01*
X489607Y432702D01*
D02*
G37*
G36*
X484490D02*
X481913D01*
X482335Y431684D01*
X483471Y430547D01*
X484490Y430126D01*
Y432702D01*
D02*
G37*
G36*
X715532Y444235D02*
X709788D01*
X708640Y443759D01*
X708164Y442611D01*
Y428133D01*
X708640Y426985D01*
X709788Y426510D01*
X715532D01*
X716680Y426985D01*
X717155Y428133D01*
Y442611D01*
X716680Y443759D01*
X715532Y444235D01*
D02*
G37*
G36*
X550759Y428930D02*
X547370D01*
Y425541D01*
X548813Y426139D01*
X550161Y427487D01*
X550759Y428930D01*
D02*
G37*
G36*
X544830D02*
X541441D01*
X542039Y427487D01*
X543387Y426139D01*
X544830Y425541D01*
Y428930D01*
D02*
G37*
G36*
X424759Y430932D02*
X415442D01*
X416039Y429488D01*
X417037Y428491D01*
X417262Y427701D01*
X417037Y426911D01*
X416039Y425913D01*
X415442Y424470D01*
X424759D01*
X424161Y425913D01*
X423163Y426911D01*
X422939Y427701D01*
X423163Y428491D01*
X424161Y429488D01*
X424759Y430932D01*
D02*
G37*
G36*
X457518Y427802D02*
X454130D01*
Y424414D01*
X455573Y425012D01*
X456920Y426359D01*
X457518Y427802D01*
D02*
G37*
G36*
X538222Y442986D02*
X511298D01*
X510150Y442510D01*
X509674Y441362D01*
Y423582D01*
X510150Y422434D01*
X511298Y421959D01*
X538222D01*
X539370Y422434D01*
X539845Y423582D01*
Y441362D01*
X539370Y442510D01*
X538222Y442986D01*
D02*
G37*
G36*
X547370Y422859D02*
Y419470D01*
X550759D01*
X550161Y420913D01*
X548813Y422261D01*
X547370Y422859D01*
D02*
G37*
G36*
X544830D02*
X543387Y422261D01*
X542039Y420913D01*
X541441Y419470D01*
X544830D01*
Y422859D01*
D02*
G37*
G36*
X670387Y434300D02*
X668413D01*
X666505Y433789D01*
X664795Y432802D01*
X663399Y431405D01*
X662411Y429695D01*
X661900Y427788D01*
Y425813D01*
X662411Y423905D01*
X663399Y422195D01*
X664795Y420799D01*
X666505Y419811D01*
X668413Y419300D01*
X670387D01*
X672295Y419811D01*
X674005Y420799D01*
X675402Y422195D01*
X675706Y422722D01*
X679400D01*
X680961Y423032D01*
X682284Y423916D01*
X683168Y425239D01*
X683478Y426800D01*
X683168Y428361D01*
X682284Y429684D01*
X680961Y430568D01*
X679400Y430878D01*
X675706D01*
X675402Y431405D01*
X674005Y432802D01*
X672295Y433789D01*
X670387Y434300D01*
D02*
G37*
G36*
X278988D02*
X277013D01*
X275105Y433789D01*
X273395Y432802D01*
X271999Y431405D01*
X271011Y429695D01*
X270500Y427788D01*
Y425813D01*
X271011Y423905D01*
X271999Y422195D01*
X273395Y420799D01*
X275105Y419811D01*
X277013Y419300D01*
X278988D01*
X280895Y419811D01*
X282605Y420799D01*
X284002Y422195D01*
X284306Y422722D01*
X288000D01*
X289561Y423032D01*
X290884Y423916D01*
X291768Y425239D01*
X292078Y426800D01*
X291768Y428361D01*
X290884Y429684D01*
X289561Y430568D01*
X288000Y430878D01*
X284306D01*
X284002Y431405D01*
X282605Y432802D01*
X280895Y433789D01*
X278988Y434300D01*
D02*
G37*
G36*
X424759Y421930D02*
X415442D01*
X416039Y420487D01*
X416646Y419880D01*
X417315Y419050D01*
X416646Y418220D01*
X416039Y417613D01*
X415442Y416170D01*
X424759D01*
X424161Y417613D01*
X423554Y418220D01*
X422885Y419050D01*
X423554Y419880D01*
X424161Y420487D01*
X424759Y421930D01*
D02*
G37*
G36*
X550759Y416930D02*
X547370D01*
Y413541D01*
X548813Y414139D01*
X550161Y415487D01*
X550759Y416930D01*
D02*
G37*
G36*
X544830D02*
X541441D01*
X542039Y415487D01*
X543387Y414139D01*
X544830Y413541D01*
Y416930D01*
D02*
G37*
G36*
X575425Y580550D02*
X573934D01*
X572555Y579979D01*
X571501Y578924D01*
X570930Y577546D01*
Y576054D01*
X571501Y574676D01*
X572555Y573621D01*
X573510Y573226D01*
Y571877D01*
X572555Y571482D01*
X571501Y570427D01*
X570930Y569048D01*
Y567556D01*
X571501Y566178D01*
X572555Y565123D01*
X573564Y564706D01*
Y563379D01*
X572555Y562962D01*
X571501Y561907D01*
X570930Y560528D01*
Y559036D01*
X571501Y557658D01*
X572555Y556603D01*
X573934Y556032D01*
X575113D01*
X603835Y527311D01*
Y404782D01*
X603834Y404782D01*
X604013Y403885D01*
X604521Y403124D01*
X607761Y399884D01*
X607761Y399884D01*
X608522Y399376D01*
X609420Y399197D01*
X609420Y399197D01*
X622859D01*
X622860Y399197D01*
X623757Y399376D01*
X624518Y399884D01*
X628088Y403454D01*
X628596Y404215D01*
X628775Y405112D01*
Y407454D01*
X629609Y408288D01*
X630180Y409666D01*
Y411158D01*
X629609Y412537D01*
X628554Y413591D01*
X627175Y414162D01*
X625684D01*
X624305Y413591D01*
X623251Y412537D01*
X622680Y411158D01*
Y409666D01*
X623251Y408288D01*
X624085Y407454D01*
Y406084D01*
X621888Y403887D01*
X610391D01*
X608525Y405754D01*
Y528282D01*
X608525Y528282D01*
X608346Y529180D01*
X607838Y529941D01*
X579111Y558667D01*
X579179Y559010D01*
X580557Y559428D01*
X614135Y525851D01*
Y413371D01*
X613301Y412537D01*
X612730Y411158D01*
Y409666D01*
X613301Y408288D01*
X614355Y407233D01*
X615734Y406662D01*
X617225D01*
X618604Y407233D01*
X619659Y408288D01*
X620230Y409666D01*
Y411158D01*
X619659Y412537D01*
X618825Y413371D01*
Y526822D01*
X618646Y527720D01*
X618138Y528481D01*
X578430Y568189D01*
Y569048D01*
X577859Y570427D01*
X576804Y571482D01*
X575849Y571877D01*
Y573226D01*
X576804Y573621D01*
X577859Y574676D01*
X578430Y576054D01*
Y577546D01*
X577859Y578924D01*
X576804Y579979D01*
X575425Y580550D01*
D02*
G37*
G36*
X444570Y408959D02*
Y405570D01*
X447959D01*
X447361Y407013D01*
X446013Y408361D01*
X444570Y408959D01*
D02*
G37*
G36*
X442030D02*
X440587Y408361D01*
X439239Y407013D01*
X438642Y405570D01*
X442030D01*
Y408959D01*
D02*
G37*
G36*
X432970D02*
Y405570D01*
X436359D01*
X435761Y407013D01*
X434413Y408361D01*
X432970Y408959D01*
D02*
G37*
G36*
X430430D02*
X428987Y408361D01*
X427639Y407013D01*
X427042Y405570D01*
X430430D01*
Y408959D01*
D02*
G37*
G36*
X424759Y413630D02*
X415442D01*
X416039Y412187D01*
X417387Y410839D01*
X418777Y410263D01*
Y408937D01*
X417387Y408361D01*
X416039Y407013D01*
X415442Y405570D01*
X424759D01*
X424161Y407013D01*
X422813Y408361D01*
X421423Y408937D01*
Y410263D01*
X422813Y410839D01*
X424161Y412187D01*
X424759Y413630D01*
D02*
G37*
G36*
X488632Y420854D02*
X482888D01*
X481740Y420378D01*
X481264Y419230D01*
Y404752D01*
X481740Y403604D01*
X482888Y403129D01*
X488632D01*
X489780Y403604D01*
X490255Y404752D01*
Y419230D01*
X489780Y420378D01*
X488632Y420854D01*
D02*
G37*
G36*
X447959Y403030D02*
X444570D01*
Y399641D01*
X446013Y400239D01*
X447361Y401587D01*
X447959Y403030D01*
D02*
G37*
G36*
X442030D02*
X438642D01*
X439239Y401587D01*
X440587Y400239D01*
X442030Y399641D01*
Y403030D01*
D02*
G37*
G36*
X436359D02*
X432970D01*
Y399641D01*
X434413Y400239D01*
X435761Y401587D01*
X436359Y403030D01*
D02*
G37*
G36*
X430430D02*
X427042D01*
X427639Y401587D01*
X428987Y400239D01*
X430430Y399641D01*
Y403030D01*
D02*
G37*
G36*
X424759D02*
X421370D01*
Y399641D01*
X422813Y400239D01*
X424161Y401587D01*
X424759Y403030D01*
D02*
G37*
G36*
X418830D02*
X415442D01*
X416039Y401587D01*
X417387Y400239D01*
X418830Y399641D01*
Y403030D01*
D02*
G37*
G36*
X670387Y409178D02*
X668413D01*
X666505Y408666D01*
X664795Y407679D01*
X663399Y406283D01*
X662411Y404572D01*
X661900Y402665D01*
Y400690D01*
X662411Y398783D01*
X663399Y397072D01*
X664795Y395676D01*
X666505Y394689D01*
X668413Y394178D01*
X670387D01*
X672295Y394689D01*
X674005Y395676D01*
X675402Y397072D01*
X675706Y397599D01*
X679400D01*
X680961Y397910D01*
X682284Y398794D01*
X683168Y400117D01*
X683478Y401678D01*
X683168Y403238D01*
X682284Y404561D01*
X680961Y405445D01*
X679400Y405756D01*
X675706D01*
X675402Y406283D01*
X674005Y407679D01*
X672295Y408666D01*
X670387Y409178D01*
D02*
G37*
G36*
X278988D02*
X277013D01*
X275105Y408666D01*
X273395Y407679D01*
X271999Y406283D01*
X271011Y404572D01*
X270500Y402665D01*
Y400690D01*
X271011Y398783D01*
X271999Y397072D01*
X273395Y395676D01*
X275105Y394689D01*
X277013Y394178D01*
X278988D01*
X280895Y394689D01*
X282605Y395676D01*
X284002Y397072D01*
X284306Y397599D01*
X288000D01*
X289561Y397910D01*
X290884Y398794D01*
X291768Y400117D01*
X292078Y401678D01*
X291768Y403238D01*
X290884Y404561D01*
X289561Y405445D01*
X288000Y405756D01*
X284306D01*
X284002Y406283D01*
X282605Y407679D01*
X280895Y408666D01*
X278988Y409178D01*
D02*
G37*
G36*
X532206Y398422D02*
X530714D01*
X529335Y397851D01*
X528281Y396797D01*
X527710Y395418D01*
Y393927D01*
X528281Y392548D01*
X529156Y391672D01*
X528281Y390797D01*
X527710Y389418D01*
Y387926D01*
X528281Y386548D01*
X529335Y385493D01*
X530714Y384922D01*
X532206D01*
X533584Y385493D01*
X534639Y386548D01*
X535210Y387926D01*
Y389418D01*
X534639Y390797D01*
X533763Y391672D01*
X534639Y392548D01*
X535210Y393927D01*
Y395418D01*
X534639Y396797D01*
X533584Y397851D01*
X532206Y398422D01*
D02*
G37*
G36*
X502070Y383859D02*
Y380470D01*
X505459D01*
X504861Y381913D01*
X503513Y383261D01*
X502070Y383859D01*
D02*
G37*
G36*
X499530D02*
X498087Y383261D01*
X496739Y381913D01*
X496142Y380470D01*
X499530D01*
Y383859D01*
D02*
G37*
G36*
X478370D02*
Y380470D01*
X481759D01*
X481161Y381913D01*
X479813Y383261D01*
X478370Y383859D01*
D02*
G37*
G36*
X475830D02*
X474387Y383261D01*
X473039Y381913D01*
X472441Y380470D01*
X475830D01*
Y383859D01*
D02*
G37*
G36*
X455370D02*
Y380470D01*
X458759D01*
X458161Y381913D01*
X456813Y383261D01*
X455370Y383859D01*
D02*
G37*
G36*
X452830D02*
X451387Y383261D01*
X450039Y381913D01*
X449441Y380470D01*
X452830D01*
Y383859D01*
D02*
G37*
G36*
X444470D02*
Y380470D01*
X447859D01*
X447261Y381913D01*
X445913Y383261D01*
X444470Y383859D01*
D02*
G37*
G36*
X441930D02*
X440487Y383261D01*
X439139Y381913D01*
X438541Y380470D01*
X441930D01*
Y383859D01*
D02*
G37*
G36*
X433570D02*
Y380470D01*
X436959D01*
X436361Y381913D01*
X435013Y383261D01*
X433570Y383859D01*
D02*
G37*
G36*
X431030D02*
X429587Y383261D01*
X428239Y381913D01*
X427641Y380470D01*
X431030D01*
Y383859D01*
D02*
G37*
G36*
X420870D02*
Y380470D01*
X424259D01*
X423661Y381913D01*
X422313Y383261D01*
X420870Y383859D01*
D02*
G37*
G36*
X418330D02*
X416887Y383261D01*
X415539Y381913D01*
X414941Y380470D01*
X418330D01*
Y383859D01*
D02*
G37*
G36*
X406170D02*
Y380470D01*
X409559D01*
X408961Y381913D01*
X407613Y383261D01*
X406170Y383859D01*
D02*
G37*
G36*
X403630D02*
X402187Y383261D01*
X400839Y381913D01*
X400242Y380470D01*
X403630D01*
Y383859D01*
D02*
G37*
G36*
X391470D02*
Y380470D01*
X394859D01*
X394261Y381913D01*
X392913Y383261D01*
X391470Y383859D01*
D02*
G37*
G36*
X388930D02*
X387487Y383261D01*
X386139Y381913D01*
X385541Y380470D01*
X388930D01*
Y383859D01*
D02*
G37*
G36*
X376770D02*
Y380470D01*
X380159D01*
X379561Y381913D01*
X378213Y383261D01*
X376770Y383859D01*
D02*
G37*
G36*
X374230D02*
X372787Y383261D01*
X371439Y381913D01*
X370841Y380470D01*
X374230D01*
Y383859D01*
D02*
G37*
G36*
X597246Y383850D02*
X595754D01*
X594376Y383279D01*
X593321Y382224D01*
X592750Y380846D01*
Y379354D01*
X593321Y377976D01*
X594376Y376921D01*
X595754Y376350D01*
X597246D01*
X598624Y376921D01*
X599679Y377976D01*
X600250Y379354D01*
Y380846D01*
X599679Y382224D01*
X598624Y383279D01*
X597246Y383850D01*
D02*
G37*
G36*
X587146D02*
X585654D01*
X584276Y383279D01*
X583221Y382224D01*
X582650Y380846D01*
Y379354D01*
X583221Y377976D01*
X584276Y376921D01*
X585654Y376350D01*
X587146D01*
X588524Y376921D01*
X589579Y377976D01*
X590150Y379354D01*
Y380846D01*
X589579Y382224D01*
X588524Y383279D01*
X587146Y383850D01*
D02*
G37*
G36*
X481759Y377930D02*
X478370D01*
Y374542D01*
X479813Y375139D01*
X481161Y376487D01*
X481759Y377930D01*
D02*
G37*
G36*
X475830D02*
X472441D01*
X473039Y376487D01*
X474387Y375139D01*
X475830Y374542D01*
Y377930D01*
D02*
G37*
G36*
X458759D02*
X455370D01*
Y374542D01*
X456813Y375139D01*
X458161Y376487D01*
X458759Y377930D01*
D02*
G37*
G36*
X452830D02*
X449441D01*
X450039Y376487D01*
X451387Y375139D01*
X452830Y374542D01*
Y377930D01*
D02*
G37*
G36*
X447859D02*
X444470D01*
Y374542D01*
X445913Y375139D01*
X447261Y376487D01*
X447859Y377930D01*
D02*
G37*
G36*
X441930D02*
X438541D01*
X439139Y376487D01*
X440487Y375139D01*
X441930Y374542D01*
Y377930D01*
D02*
G37*
G36*
X436959D02*
X433570D01*
Y374542D01*
X435013Y375139D01*
X436361Y376487D01*
X436959Y377930D01*
D02*
G37*
G36*
X431030D02*
X427641D01*
X428239Y376487D01*
X429587Y375139D01*
X431030Y374542D01*
Y377930D01*
D02*
G37*
G36*
X424259D02*
X420870D01*
Y374542D01*
X422313Y375139D01*
X423661Y376487D01*
X424259Y377930D01*
D02*
G37*
G36*
X418330D02*
X414941D01*
X415539Y376487D01*
X416887Y375139D01*
X418330Y374542D01*
Y377930D01*
D02*
G37*
G36*
X409559D02*
X406170D01*
Y374542D01*
X407613Y375139D01*
X408961Y376487D01*
X409559Y377930D01*
D02*
G37*
G36*
X403630D02*
X400242D01*
X400839Y376487D01*
X402187Y375139D01*
X403630Y374542D01*
Y377930D01*
D02*
G37*
G36*
X394859D02*
X391470D01*
Y374542D01*
X392913Y375139D01*
X394261Y376487D01*
X394859Y377930D01*
D02*
G37*
G36*
X388930D02*
X385541D01*
X386139Y376487D01*
X387487Y375139D01*
X388930Y374542D01*
Y377930D01*
D02*
G37*
G36*
X380159D02*
X376770D01*
Y374542D01*
X378213Y375139D01*
X379561Y376487D01*
X380159Y377930D01*
D02*
G37*
G36*
X374230D02*
X370841D01*
X371439Y376487D01*
X372787Y375139D01*
X374230Y374542D01*
Y377930D01*
D02*
G37*
G36*
X505459D02*
X502070D01*
Y374542D01*
X503513Y375139D01*
X504861Y376487D01*
X505459Y377930D01*
D02*
G37*
G36*
X499530D02*
X496142D01*
X496739Y376487D01*
X498087Y375139D01*
X499530Y374542D01*
Y377930D01*
D02*
G37*
G36*
X532670Y376171D02*
Y371970D01*
X536870D01*
X536097Y373838D01*
X534538Y375397D01*
X532670Y376171D01*
D02*
G37*
G36*
X530130D02*
X528262Y375397D01*
X526703Y373838D01*
X525930Y371970D01*
X530130D01*
Y376171D01*
D02*
G37*
G36*
X536870Y369430D02*
X532670D01*
Y365230D01*
X534538Y366003D01*
X536097Y367562D01*
X536870Y369430D01*
D02*
G37*
G36*
X530130D02*
X525930D01*
X526703Y367562D01*
X528262Y366003D01*
X530130Y365230D01*
Y369430D01*
D02*
G37*
G36*
X702246Y357250D02*
X700754D01*
X699376Y356679D01*
X698500Y355803D01*
X697624Y356679D01*
X696246Y357250D01*
X694754D01*
X693376Y356679D01*
X692321Y355624D01*
X691750Y354246D01*
Y352754D01*
X692321Y351376D01*
X693376Y350321D01*
X694754Y349750D01*
X696246D01*
X697624Y350321D01*
X698500Y351197D01*
X699376Y350321D01*
X700754Y349750D01*
X702246D01*
X703624Y350321D01*
X704679Y351376D01*
X705250Y352754D01*
Y354246D01*
X704679Y355624D01*
X703624Y356679D01*
X702246Y357250D01*
D02*
G37*
G36*
X551470Y352771D02*
Y348570D01*
X555671D01*
X554897Y350438D01*
X553338Y351997D01*
X551470Y352771D01*
D02*
G37*
G36*
X548930D02*
X547062Y351997D01*
X545504Y350438D01*
X544730Y348570D01*
X548930D01*
Y352771D01*
D02*
G37*
G36*
X555671Y346030D02*
X551470D01*
Y341830D01*
X553338Y342603D01*
X554897Y344162D01*
X555671Y346030D01*
D02*
G37*
G36*
X548930D02*
X544730D01*
X545504Y344162D01*
X547062Y342603D01*
X548930Y341830D01*
Y346030D01*
D02*
G37*
G36*
X525570Y330770D02*
Y326570D01*
X529771D01*
X528997Y328438D01*
X527438Y329997D01*
X525570Y330770D01*
D02*
G37*
G36*
X523030D02*
X521162Y329997D01*
X519604Y328438D01*
X518830Y326570D01*
X523030D01*
Y330770D01*
D02*
G37*
G36*
X456970D02*
Y326570D01*
X461171D01*
X460397Y328438D01*
X458838Y329997D01*
X456970Y330770D01*
D02*
G37*
G36*
X454430D02*
X452562Y329997D01*
X451003Y328438D01*
X450230Y326570D01*
X454430D01*
Y330770D01*
D02*
G37*
G36*
X529771Y324030D02*
X525570D01*
Y319830D01*
X527438Y320603D01*
X528997Y322162D01*
X529771Y324030D01*
D02*
G37*
G36*
X523030D02*
X518830D01*
X519604Y322162D01*
X521162Y320603D01*
X523030Y319830D01*
Y324030D01*
D02*
G37*
G36*
X461171D02*
X456970D01*
Y319830D01*
X458838Y320603D01*
X460397Y322162D01*
X461171Y324030D01*
D02*
G37*
G36*
X454430D02*
X450230D01*
X451003Y322162D01*
X452562Y320603D01*
X454430Y319830D01*
Y324030D01*
D02*
G37*
G36*
X530870Y317470D02*
Y313270D01*
X535070D01*
X534297Y315138D01*
X532738Y316697D01*
X530870Y317470D01*
D02*
G37*
G36*
X528330D02*
X526462Y316697D01*
X524903Y315138D01*
X524130Y313270D01*
X528330D01*
Y317470D01*
D02*
G37*
G36*
X451670D02*
Y313270D01*
X455871D01*
X455097Y315138D01*
X453538Y316697D01*
X451670Y317470D01*
D02*
G37*
G36*
X449130D02*
X447262Y316697D01*
X445704Y315138D01*
X444930Y313270D01*
X449130D01*
Y317470D01*
D02*
G37*
G36*
X477080Y308729D02*
X476275D01*
X474942Y308464D01*
X473812Y307710D01*
X473058Y306580D01*
X472871Y305642D01*
X477080D01*
Y308729D01*
D02*
G37*
G36*
X535070Y310730D02*
X524130D01*
X524903Y308862D01*
X526462Y307304D01*
X526506Y307285D01*
Y306015D01*
X526462Y305997D01*
X524903Y304438D01*
X524130Y302570D01*
X535070D01*
X534297Y304438D01*
X532738Y305997D01*
X532694Y306015D01*
Y307285D01*
X532738Y307304D01*
X534297Y308862D01*
X535070Y310730D01*
D02*
G37*
G36*
X455871D02*
X444930D01*
X445704Y308862D01*
X447262Y307304D01*
X447306Y307285D01*
Y306015D01*
X447262Y305997D01*
X445704Y304438D01*
X444930Y302570D01*
X455871D01*
X455097Y304438D01*
X453538Y305997D01*
X453494Y306015D01*
Y307285D01*
X453538Y307304D01*
X455097Y308862D01*
X455871Y310730D01*
D02*
G37*
G36*
X535070Y300030D02*
X530870D01*
Y295830D01*
X532738Y296604D01*
X534297Y298162D01*
X535070Y300030D01*
D02*
G37*
G36*
X528330D02*
X524130D01*
X524903Y298162D01*
X526462Y296604D01*
X528330Y295830D01*
Y300030D01*
D02*
G37*
G36*
X455871D02*
X451670D01*
Y295830D01*
X453538Y296604D01*
X455097Y298162D01*
X455871Y300030D01*
D02*
G37*
G36*
X449130D02*
X444930D01*
X445704Y298162D01*
X447262Y296604D01*
X449130Y295830D01*
Y300030D01*
D02*
G37*
G36*
X542690Y294571D02*
Y290370D01*
X546890D01*
X546117Y292238D01*
X544558Y293797D01*
X542690Y294571D01*
D02*
G37*
G36*
X540150D02*
X538282Y293797D01*
X536724Y292238D01*
X535950Y290370D01*
X540150D01*
Y294571D01*
D02*
G37*
G36*
X439850D02*
Y290370D01*
X444050D01*
X443277Y292238D01*
X441718Y293797D01*
X439850Y294571D01*
D02*
G37*
G36*
X437310D02*
X435442Y293797D01*
X433884Y292238D01*
X433110Y290370D01*
X437310D01*
Y294571D01*
D02*
G37*
G36*
X457490Y294690D02*
X455941Y294382D01*
X454628Y293504D01*
X453750Y292191D01*
X453442Y290641D01*
Y290342D01*
X457490D01*
Y294690D01*
D02*
G37*
G36*
X546890Y287830D02*
X542690D01*
Y283630D01*
X544558Y284403D01*
X546117Y285962D01*
X546890Y287830D01*
D02*
G37*
G36*
X540150D02*
X535950D01*
X536724Y285962D01*
X538282Y284403D01*
X540150Y283630D01*
Y287830D01*
D02*
G37*
G36*
X444050D02*
X439850D01*
Y283630D01*
X441718Y284403D01*
X443277Y285962D01*
X444050Y287830D01*
D02*
G37*
G36*
X437310D02*
X433110D01*
X433884Y285962D01*
X435442Y284403D01*
X437310Y283630D01*
Y287830D01*
D02*
G37*
G36*
X457490Y287802D02*
X453442D01*
Y287503D01*
X453750Y285954D01*
X454628Y284641D01*
X455941Y283763D01*
X457490Y283455D01*
Y287802D01*
D02*
G37*
G36*
X501077Y267002D02*
X496730D01*
Y262955D01*
X497029D01*
X498578Y263263D01*
X499892Y264140D01*
X500769Y265454D01*
X501077Y267002D01*
D02*
G37*
G36*
X494190D02*
X489842D01*
X490150Y265454D01*
X491028Y264140D01*
X492341Y263263D01*
X493891Y262955D01*
X494190D01*
Y267002D01*
D02*
G37*
G36*
X507570Y266070D02*
Y261870D01*
X511771D01*
X510997Y263738D01*
X509438Y265297D01*
X507570Y266070D01*
D02*
G37*
G36*
X505030D02*
X503162Y265297D01*
X501604Y263738D01*
X500830Y261870D01*
X505030D01*
Y266070D01*
D02*
G37*
G36*
X474970D02*
Y261870D01*
X479170D01*
X478397Y263738D01*
X476838Y265297D01*
X474970Y266070D01*
D02*
G37*
G36*
X472430D02*
X470562Y265297D01*
X469003Y263738D01*
X468230Y261870D01*
X472430D01*
Y266070D01*
D02*
G37*
G36*
X511771Y259330D02*
X507570D01*
Y255130D01*
X509438Y255904D01*
X510997Y257462D01*
X511771Y259330D01*
D02*
G37*
G36*
X505030D02*
X500830D01*
X501604Y257462D01*
X503162Y255904D01*
X505030Y255130D01*
Y259330D01*
D02*
G37*
G36*
X479170D02*
X474970D01*
Y255130D01*
X476838Y255904D01*
X478397Y257462D01*
X479170Y259330D01*
D02*
G37*
G36*
X472430D02*
X468230D01*
X469003Y257462D01*
X470562Y255904D01*
X472430Y255130D01*
Y259330D01*
D02*
G37*
G36*
X581500Y237186D02*
X398500D01*
X395890Y236843D01*
X393457Y235835D01*
X391368Y234232D01*
X389765Y232143D01*
X388758Y229711D01*
X388414Y227100D01*
X388758Y224490D01*
X389765Y222057D01*
X391368Y219968D01*
X393457Y218365D01*
X395890Y217358D01*
X398500Y217014D01*
X581500D01*
X584111Y217358D01*
X586543Y218365D01*
X588632Y219968D01*
X590235Y222057D01*
X591243Y224490D01*
X591586Y227100D01*
X591243Y229711D01*
X590235Y232143D01*
X588632Y234232D01*
X586543Y235835D01*
X584111Y236843D01*
X581500Y237186D01*
D02*
G37*
G36*
X276625Y175100D02*
X273375D01*
X270187Y174466D01*
X267184Y173222D01*
X264482Y171416D01*
X262184Y169118D01*
X260378Y166416D01*
X259134Y163413D01*
X258500Y160225D01*
Y156975D01*
X259134Y153787D01*
X260378Y150785D01*
X262184Y148082D01*
X264482Y145784D01*
X267184Y143978D01*
X270187Y142734D01*
X273375Y142100D01*
X276625D01*
X279813Y142734D01*
X282816Y143978D01*
X285518Y145784D01*
X287817Y148082D01*
X289622Y150785D01*
X290866Y153787D01*
X291500Y156975D01*
Y160225D01*
X290866Y163413D01*
X289622Y166416D01*
X287817Y169118D01*
X285518Y171416D01*
X282816Y173222D01*
X279813Y174466D01*
X276625Y175100D01*
D02*
G37*
G36*
X220630Y116931D02*
Y113542D01*
X224018D01*
X223420Y114986D01*
X222073Y116333D01*
X220630Y116931D01*
D02*
G37*
G36*
X218090D02*
X216646Y116333D01*
X215299Y114986D01*
X214701Y113542D01*
X218090D01*
Y116931D01*
D02*
G37*
G36*
X224018Y111002D02*
X220630D01*
Y107614D01*
X222073Y108212D01*
X223420Y109559D01*
X224018Y111002D01*
D02*
G37*
G36*
X218090D02*
X214701D01*
X215299Y109559D01*
X216646Y108212D01*
X218090Y107614D01*
Y111002D01*
D02*
G37*
G36*
X811625Y133870D02*
X808375D01*
X805187Y133236D01*
X802184Y131992D01*
X799482Y130187D01*
X797184Y127888D01*
X795378Y125186D01*
X794134Y122183D01*
X793500Y118995D01*
Y115745D01*
X794134Y112557D01*
X795378Y109554D01*
X797184Y106852D01*
X799482Y104554D01*
X802184Y102748D01*
X805187Y101504D01*
X808375Y100870D01*
X811625D01*
X814813Y101504D01*
X817816Y102748D01*
X820518Y104554D01*
X822816Y106852D01*
X824622Y109554D01*
X825866Y112557D01*
X826500Y115745D01*
Y118995D01*
X825866Y122183D01*
X824622Y125186D01*
X822816Y127888D01*
X820518Y130187D01*
X817816Y131992D01*
X814813Y133236D01*
X811625Y133870D01*
D02*
G37*
G36*
X171625D02*
X168375D01*
X165187Y133236D01*
X162184Y131992D01*
X159482Y130187D01*
X157184Y127888D01*
X155378Y125186D01*
X154134Y122183D01*
X153500Y118995D01*
Y115745D01*
X154134Y112557D01*
X155378Y109554D01*
X157184Y106852D01*
X159482Y104554D01*
X162184Y102748D01*
X165187Y101504D01*
X168375Y100870D01*
X171625D01*
X174813Y101504D01*
X177816Y102748D01*
X180518Y104554D01*
X182817Y106852D01*
X184622Y109554D01*
X185866Y112557D01*
X186500Y115745D01*
Y118995D01*
X185866Y122183D01*
X184622Y125186D01*
X182817Y127888D01*
X180518Y130187D01*
X177816Y131992D01*
X174813Y133236D01*
X171625Y133870D01*
D02*
G37*
G36*
X210900Y97862D02*
X206630D01*
Y93792D01*
X210900D01*
Y97862D01*
D02*
G37*
G36*
X204090D02*
X199820D01*
Y93792D01*
X204090D01*
Y97862D01*
D02*
G37*
G36*
X281646Y87550D02*
X280154D01*
X278776Y86979D01*
X277721Y85924D01*
X277150Y84546D01*
Y83054D01*
X277721Y81676D01*
X278776Y80621D01*
X280154Y80050D01*
X281646D01*
X283024Y80621D01*
X284079Y81676D01*
X284650Y83054D01*
Y84546D01*
X284079Y85924D01*
X283024Y86979D01*
X281646Y87550D01*
D02*
G37*
G36*
X210900Y91252D02*
X205360D01*
X199820D01*
Y87182D01*
X200860D01*
Y79522D01*
X202271D01*
X203015Y78522D01*
X203193Y77625D01*
X203701Y76864D01*
X204465Y76101D01*
Y72742D01*
X204119Y72599D01*
X203389Y71870D01*
X202560Y71392D01*
X201730Y71870D01*
X201000Y72599D01*
X199254Y73322D01*
X197365D01*
X195619Y72599D01*
X194846Y71827D01*
X194718Y71852D01*
X193089Y73481D01*
X191080Y74313D01*
Y68572D01*
X188540D01*
Y74313D01*
X186530Y73481D01*
X184901Y71852D01*
X184020Y69724D01*
Y69374D01*
X182750Y69121D01*
X182459Y69823D01*
X181331Y71293D01*
X179860Y72422D01*
X178147Y73131D01*
X177580Y73206D01*
Y58772D01*
Y44339D01*
X178147Y44414D01*
X179860Y45123D01*
X181331Y46251D01*
X182459Y47722D01*
X183168Y49435D01*
X183410Y51272D01*
Y52073D01*
X184680Y52326D01*
X184901Y51793D01*
X186530Y50164D01*
X188540Y49331D01*
Y55072D01*
X191080D01*
Y49331D01*
X192961Y50111D01*
X194231Y49646D01*
Y47351D01*
X194231Y47351D01*
X194542Y45791D01*
X195426Y44468D01*
X198355Y41539D01*
X198355Y41539D01*
X199678Y40655D01*
X201239Y40344D01*
X237881D01*
X237881Y40344D01*
X239441Y40655D01*
X240765Y41539D01*
X243693Y44468D01*
X243694Y44468D01*
X244578Y45791D01*
X244888Y47351D01*
Y49646D01*
X246158Y50111D01*
X248040Y49331D01*
Y55072D01*
X250580D01*
Y49331D01*
X252589Y50164D01*
X254218Y51793D01*
X254439Y52326D01*
X255709Y52073D01*
Y51272D01*
X255951Y49435D01*
X256660Y47722D01*
X257789Y46251D01*
X259259Y45123D01*
X260972Y44414D01*
X261540Y44339D01*
Y58772D01*
Y73206D01*
X260972Y73131D01*
X259259Y72422D01*
X257789Y71293D01*
X256660Y69823D01*
X256370Y69121D01*
X255100Y69374D01*
Y69724D01*
X254218Y71852D01*
X252589Y73481D01*
X250580Y74313D01*
Y68572D01*
X248040D01*
Y74313D01*
X246030Y73481D01*
X244401Y71852D01*
X244273Y71827D01*
X243500Y72599D01*
X241754Y73322D01*
X239865D01*
X238119Y72599D01*
X237389Y71870D01*
X236560Y71392D01*
X235730Y71870D01*
X235000Y72599D01*
X233255Y73322D01*
X231365D01*
X229619Y72599D01*
X228889Y71870D01*
X228060Y71392D01*
X227230Y71870D01*
X226500Y72599D01*
X224755Y73322D01*
X222865D01*
X221119Y72599D01*
X220389Y71870D01*
X219560Y71392D01*
X218730Y71870D01*
X218000Y72599D01*
X216255Y73322D01*
X214365D01*
X212619Y72599D01*
X211889Y71870D01*
X211060Y71392D01*
X210230Y71870D01*
X209500Y72599D01*
X209155Y72742D01*
Y77072D01*
X209155Y77072D01*
X208976Y77970D01*
X208787Y78252D01*
X209385Y79501D01*
X209410Y79522D01*
X209860D01*
Y87182D01*
X210900D01*
Y91252D01*
D02*
G37*
G36*
X677706Y73222D02*
X676214D01*
X674836Y72652D01*
X673781Y71597D01*
X673210Y70218D01*
Y68727D01*
X673781Y67348D01*
X674836Y66293D01*
X676214Y65722D01*
X677706D01*
X679084Y66293D01*
X680139Y67348D01*
X680710Y68727D01*
Y70218D01*
X680139Y71597D01*
X679084Y72652D01*
X677706Y73222D01*
D02*
G37*
G36*
X264080Y73206D02*
Y60042D01*
X269910D01*
Y66272D01*
X269668Y68110D01*
X268959Y69823D01*
X267831Y71293D01*
X266360Y72422D01*
X264648Y73131D01*
X264080Y73206D01*
D02*
G37*
G36*
X175040D02*
X174472Y73131D01*
X172759Y72422D01*
X171289Y71293D01*
X170160Y69823D01*
X169451Y68110D01*
X169209Y66272D01*
Y60042D01*
X175040D01*
Y73206D01*
D02*
G37*
G36*
X351060Y666472D02*
X349568D01*
X348190Y665901D01*
X347135Y664847D01*
X346564Y663468D01*
Y662289D01*
X252901Y568627D01*
X252393Y567866D01*
X252215Y566968D01*
X252215Y566968D01*
Y127591D01*
X252215Y127591D01*
X252393Y126694D01*
X252901Y125933D01*
X253839Y124996D01*
X253839Y124995D01*
X254599Y124487D01*
X255497Y124309D01*
X348955D01*
Y54910D01*
X348955Y54910D01*
X349134Y54012D01*
X349642Y53251D01*
X350579Y52314D01*
X350579Y52314D01*
X351340Y51806D01*
X352237Y51627D01*
X424871D01*
X425705Y50793D01*
X427084Y50222D01*
X428576D01*
X429954Y50793D01*
X431009Y51848D01*
X431580Y53226D01*
Y54718D01*
X431009Y56097D01*
X429954Y57151D01*
X428576Y57722D01*
X427084D01*
X425705Y57151D01*
X424871Y56317D01*
X353645D01*
Y125716D01*
X353467Y126614D01*
X352958Y127375D01*
X352958Y127375D01*
X352021Y128312D01*
X351260Y128820D01*
X350363Y128999D01*
X350363Y128999D01*
X256905D01*
Y565997D01*
X349880Y658972D01*
X351060D01*
X352438Y659543D01*
X353493Y660598D01*
X354064Y661976D01*
Y663468D01*
X353493Y664847D01*
X352438Y665901D01*
X351060Y666472D01*
D02*
G37*
G36*
X340505Y57722D02*
X339014D01*
X337635Y57151D01*
X336581Y56097D01*
X336010Y54718D01*
Y53226D01*
X336581Y51848D01*
X337635Y50793D01*
X339014Y50222D01*
X340505D01*
X341884Y50793D01*
X342939Y51848D01*
X343510Y53226D01*
Y54718D01*
X342939Y56097D01*
X341884Y57151D01*
X340505Y57722D01*
D02*
G37*
G36*
X788827Y54430D02*
X788770D01*
Y45620D01*
X797580D01*
Y45677D01*
X796893Y48241D01*
X795566Y50539D01*
X793689Y52416D01*
X791391Y53743D01*
X788827Y54430D01*
D02*
G37*
G36*
X786230D02*
X786173D01*
X783609Y53743D01*
X781311Y52416D01*
X779434Y50539D01*
X778107Y48241D01*
X777420Y45677D01*
Y45620D01*
X786230D01*
Y54430D01*
D02*
G37*
G36*
X175040Y57502D02*
X169209D01*
Y51272D01*
X169451Y49435D01*
X170160Y47722D01*
X171289Y46251D01*
X172759Y45123D01*
X174472Y44414D01*
X175040Y44339D01*
Y57502D01*
D02*
G37*
G36*
X269910D02*
X264080D01*
Y44339D01*
X264648Y44414D01*
X266360Y45123D01*
X267831Y46251D01*
X268959Y47722D01*
X269668Y49435D01*
X269910Y51272D01*
Y57502D01*
D02*
G37*
G36*
X763690Y53390D02*
X761310D01*
X759011Y52774D01*
X756949Y51584D01*
X755266Y49901D01*
X754076Y47839D01*
X753460Y45540D01*
Y43160D01*
X754076Y40861D01*
X755266Y38799D01*
X756949Y37116D01*
X759011Y35926D01*
X761310Y35310D01*
X763690D01*
X765989Y35926D01*
X768051Y37116D01*
X769734Y38799D01*
X770924Y40861D01*
X771540Y43160D01*
Y45540D01*
X770924Y47839D01*
X769734Y49901D01*
X768051Y51584D01*
X765989Y52774D01*
X763690Y53390D01*
D02*
G37*
G36*
X746540D02*
X728460D01*
Y35310D01*
X746540D01*
Y53390D01*
D02*
G37*
G36*
X797580Y43080D02*
X788770D01*
Y34270D01*
X788827D01*
X791391Y34957D01*
X793689Y36284D01*
X795566Y38161D01*
X796893Y40459D01*
X797580Y43023D01*
Y43080D01*
D02*
G37*
G36*
X786230D02*
X777420D01*
Y43023D01*
X778107Y40459D01*
X779434Y38161D01*
X781311Y36284D01*
X783609Y34957D01*
X786173Y34270D01*
X786230D01*
Y43080D01*
D02*
G37*
G36*
X264080Y35906D02*
Y26242D01*
X269910D01*
Y28972D01*
X269668Y30810D01*
X268959Y32523D01*
X267831Y33993D01*
X266360Y35122D01*
X264648Y35831D01*
X264080Y35906D01*
D02*
G37*
G36*
X177580D02*
Y26242D01*
X183410D01*
Y28972D01*
X183168Y30810D01*
X182459Y32523D01*
X181331Y33993D01*
X179860Y35122D01*
X178147Y35831D01*
X177580Y35906D01*
D02*
G37*
G36*
X261540D02*
X260972Y35831D01*
X259259Y35122D01*
X257789Y33993D01*
X256660Y32523D01*
X255951Y30810D01*
X255709Y28972D01*
Y26242D01*
X261540D01*
Y35906D01*
D02*
G37*
G36*
X175040D02*
X174472Y35831D01*
X172759Y35122D01*
X171289Y33993D01*
X170160Y32523D01*
X169451Y30810D01*
X169209Y28972D01*
Y26242D01*
X175040D01*
Y35906D01*
D02*
G37*
G36*
X629922Y44786D02*
X602998D01*
X601850Y44310D01*
X601374Y43162D01*
Y25382D01*
X601850Y24234D01*
X602998Y23759D01*
X629922D01*
X631070Y24234D01*
X631545Y25382D01*
Y43162D01*
X631070Y44310D01*
X629922Y44786D01*
D02*
G37*
G36*
X348523Y28082D02*
X346136D01*
X343931Y27169D01*
X342243Y25481D01*
X341330Y23276D01*
Y20889D01*
X342243Y18684D01*
X343931Y16996D01*
X346136Y16082D01*
X348523D01*
X350728Y16996D01*
X352416Y18684D01*
X353330Y20889D01*
Y23276D01*
X352416Y25481D01*
X350728Y27169D01*
X348523Y28082D01*
D02*
G37*
G36*
X318523D02*
X316136D01*
X313931Y27169D01*
X312243Y25481D01*
X311330Y23276D01*
Y20889D01*
X312243Y18684D01*
X313931Y16996D01*
X316136Y16082D01*
X318523D01*
X320728Y16996D01*
X322416Y18684D01*
X323330Y20889D01*
Y23276D01*
X322416Y25481D01*
X320728Y27169D01*
X318523Y28082D01*
D02*
G37*
G36*
X261540Y23702D02*
X255709D01*
Y20972D01*
X255951Y19135D01*
X256660Y17422D01*
X257789Y15951D01*
X259259Y14823D01*
X260972Y14114D01*
X261540Y14039D01*
Y23702D01*
D02*
G37*
G36*
X175040D02*
X169209D01*
Y20972D01*
X169451Y19135D01*
X170160Y17422D01*
X171289Y15951D01*
X172759Y14823D01*
X174472Y14114D01*
X175040Y14039D01*
Y23702D01*
D02*
G37*
G36*
X269910D02*
X264080D01*
Y14039D01*
X264648Y14114D01*
X266360Y14823D01*
X267831Y15951D01*
X268959Y17422D01*
X269668Y19135D01*
X269910Y20972D01*
Y23702D01*
D02*
G37*
G36*
X183410D02*
X177580D01*
Y14039D01*
X178147Y14114D01*
X179860Y14823D01*
X181331Y15951D01*
X182459Y17422D01*
X183168Y19135D01*
X183410Y20972D01*
Y23702D01*
D02*
G37*
%LPD*%
D16*
X170700Y524772D02*
D03*
X197600D02*
D03*
X754260D02*
D03*
X803060D02*
D03*
X778660D02*
D03*
X669400Y401678D02*
D03*
Y426800D02*
D03*
X278000D02*
D03*
Y401678D02*
D03*
X579200Y627700D02*
D03*
X600500D02*
D03*
X579160Y652922D02*
D03*
X600460Y652772D02*
D03*
X489860Y497172D02*
D03*
X532793D02*
D03*
X554260D02*
D03*
X511326D02*
D03*
D25*
X205360Y92522D02*
D03*
Y83822D02*
D03*
X479360Y661222D02*
D03*
Y652522D02*
D03*
X463760D02*
D03*
Y661222D02*
D03*
X510560D02*
D03*
Y652522D02*
D03*
D28*
X494960Y660072D02*
D03*
X495460Y268272D02*
D03*
X494960Y651472D02*
D03*
X495460Y276872D02*
D03*
D31*
X458760Y289072D02*
D03*
X467360D02*
D03*
D38*
X526060Y811070D02*
D03*
X534760D02*
D03*
X453910Y828470D02*
D03*
X445210D02*
D03*
D71*
X347330Y22082D02*
D03*
X317330D02*
D03*
D87*
X363400Y279801D02*
Y361200D01*
X363700Y361500D01*
X363400Y279801D02*
X366329Y276872D01*
X467560D01*
X778660Y524772D02*
X788356D01*
X754260D02*
X764157D01*
X240810Y55072D02*
Y68572D01*
X198310Y47351D02*
X201239Y44422D01*
X237881D01*
X198310Y47351D02*
Y68572D01*
X237881Y44422D02*
X240810Y47351D01*
Y55072D01*
X278000Y426800D02*
X288000D01*
X278000Y401678D02*
X288000D01*
X669400D02*
X679400D01*
X669400Y426800D02*
X679400D01*
X487509Y651672D02*
Y657993D01*
Y645322D02*
Y651672D01*
X467776Y276872D02*
X495460D01*
X467560Y288622D02*
Y288872D01*
Y277089D02*
Y288622D01*
X467360Y289072D02*
X467560Y288872D01*
Y288622D02*
X475000D01*
X495460Y276872D02*
Y283972D01*
X502460Y651672D02*
X503010Y652222D01*
X510260D02*
X510560Y652522D01*
X503010Y652222D02*
X510260D01*
X495160Y651672D02*
X502460D01*
X479660Y660922D02*
X484580D01*
X487509Y657993D01*
X479360Y661222D02*
X479660Y660922D01*
X487509Y651672D02*
X494760D01*
X447410Y677372D02*
X463560Y661222D01*
X431560Y677372D02*
X447410D01*
X463560Y661222D02*
X463760D01*
X479360D01*
D88*
X197600Y524772D02*
X208000D01*
X170700D02*
X180700D01*
Y611200D01*
X140700Y651200D02*
X180700Y611200D01*
X75000Y651200D02*
X140700D01*
X575840Y683403D02*
Y922660D01*
X553500Y945000D02*
X575840Y922660D01*
X316400Y518600D02*
X449426D01*
X316300Y518700D02*
X316400Y518600D01*
X425898Y368802D02*
X428478D01*
X484648Y306414D02*
Y312632D01*
X425500Y369200D02*
X425898Y368802D01*
X428478D02*
X484648Y312632D01*
X490000Y306022D02*
Y317901D01*
X438700Y369200D02*
X490000Y317901D01*
X449560Y369418D02*
X495000Y323978D01*
Y306022D02*
Y323978D01*
X484648Y306414D02*
X485020Y306042D01*
X460500Y369200D02*
X501650Y328051D01*
Y304372D02*
Y328051D01*
X384455Y558655D02*
X445542D01*
X457360Y570472D01*
X505288Y566772D02*
X542045D01*
X482500Y589561D02*
Y599822D01*
Y589561D02*
X505288Y566772D01*
X487500Y591027D02*
X508154Y570372D01*
X547728D01*
X798698Y616672D02*
X832828D01*
X789570Y625800D02*
X798698Y616672D01*
X739040Y625800D02*
X789570D01*
X509350Y616672D02*
X729912D01*
X739040Y625800D01*
X798896Y607600D02*
X833000D01*
X673064D02*
X729409D01*
X780936Y589640D02*
X798896Y607600D01*
X747369Y589640D02*
X780936D01*
X729409Y607600D02*
X747369Y589640D01*
X832828Y616672D02*
X874500Y575000D01*
X600500Y627700D02*
X610500D01*
X579200D02*
X589200D01*
X527300Y623800D02*
X527400D01*
X519110Y626672D02*
X575840Y683403D01*
X516472Y631672D02*
X572380Y687580D01*
X534760Y810870D02*
X572380Y773250D01*
Y687580D02*
Y773250D01*
X673064Y607594D02*
X673461Y607197D01*
X832603D02*
X833000Y606800D01*
X350314Y634918D02*
X364282Y620950D01*
X350314Y634918D02*
Y643672D01*
X75000Y702000D02*
X75000Y702000D01*
X85000D01*
X616480Y411462D02*
Y526822D01*
X575000Y568302D02*
X616480Y526822D01*
X298620Y521732D02*
X334987Y558100D01*
X357634D01*
X441350Y563962D02*
X457560Y580172D01*
X330610Y563962D02*
X441350D01*
X298620Y531972D02*
X330610Y563962D01*
X383900Y558100D02*
X384455Y558655D01*
X457360Y570472D02*
Y570672D01*
X487500Y591027D02*
Y599822D01*
X498050Y594026D02*
Y599272D01*
Y594026D02*
X506325Y585750D01*
X610282D01*
X497500Y599822D02*
X498050Y599272D01*
X449426Y518600D02*
X452558Y521732D01*
X452870D01*
X374069Y413369D02*
X499151Y538451D01*
X540067D01*
X373650Y410372D02*
X374069Y410792D01*
Y413369D01*
X874500Y575000D02*
X897837D01*
X622400Y607800D02*
X622600Y607600D01*
X539700Y607800D02*
X622400D01*
X615900Y563000D02*
X623132D01*
X673760Y512372D01*
X432600Y426000D02*
X444909D01*
X453800Y417109D01*
Y408500D02*
Y417109D01*
X298620Y542212D02*
X356230Y599822D01*
X409500Y685932D02*
X430460Y664972D01*
X409500Y766300D02*
X411072Y767872D01*
X409500Y685932D02*
Y766300D01*
X411072Y767872D02*
X503672D01*
X254560Y566968D02*
X350314Y662722D01*
X254560Y127591D02*
Y566968D01*
Y127591D02*
X255497Y126654D01*
X350363D01*
X430460Y664972D02*
X444260D01*
X340998Y672672D02*
X397660D01*
X458660Y611672D01*
X470650D01*
X616015Y600117D02*
X681460Y534672D01*
X519450Y601054D02*
X520387Y600117D01*
X616015D01*
X519450Y601054D02*
Y605735D01*
X503437Y593022D02*
X612810D01*
X502500Y593960D02*
Y599822D01*
X612810Y593022D02*
X678720Y527112D01*
X502500Y593960D02*
X503437Y593022D01*
X610282Y585750D02*
X676650Y519382D01*
X539700Y607800D02*
X540200Y607300D01*
X542045Y566772D02*
X565460Y543358D01*
Y510912D02*
Y543358D01*
X571480Y516822D02*
Y546621D01*
X547728Y570372D02*
X571480Y546621D01*
X434060Y585172D02*
X440760Y591872D01*
X534760Y811070D02*
Y837421D01*
Y810870D02*
Y811070D01*
X447258Y838358D02*
X533823D01*
X534760Y837421D01*
X445210Y836310D02*
X447258Y838358D01*
X445210Y828470D02*
Y836310D01*
X509350Y631672D02*
X516472D01*
X509350Y626672D02*
X519110D01*
X509750Y773950D02*
Y811000D01*
X503672Y767872D02*
X509750Y773950D01*
X311671Y702000D02*
X340998Y672672D01*
X85000Y702000D02*
X311671Y702000D01*
X484062Y294372D02*
X485000Y293435D01*
Y287722D02*
Y293435D01*
X478350Y294372D02*
X484062D01*
X485000Y287722D02*
X490000D01*
X470650Y631672D02*
X477500D01*
X490000Y619172D01*
X497500Y638522D02*
X502500D01*
X497500Y626672D02*
Y638522D01*
X490000Y619172D02*
X497500Y626672D01*
X492500Y599822D02*
Y616672D01*
X490000Y619172D02*
X492500Y616672D01*
X364282Y620950D02*
X432900D01*
X665890Y65219D02*
Y175263D01*
X742900Y177137D02*
Y533735D01*
X666827Y176200D02*
X741963D01*
X665890Y175263D02*
X666827Y176200D01*
X741963D02*
X742900Y177137D01*
X648500Y77837D02*
Y194663D01*
X720863Y195600D02*
X721800Y196537D01*
X649437Y195600D02*
X720863D01*
X721800Y196537D02*
Y511435D01*
X648500Y194663D02*
X649437Y195600D01*
X660166Y67937D02*
Y181463D01*
X735463Y182400D02*
X736400Y183337D01*
X660166Y181463D02*
X661104Y182400D01*
X735463D01*
X736400Y183337D02*
Y526175D01*
X729000Y190000D02*
Y518445D01*
X654443Y187763D02*
X655380Y188700D01*
X727700D02*
X729000Y190000D01*
X654443Y72737D02*
Y187763D01*
X655380Y188700D02*
X727700D01*
X647563Y76900D02*
X648500Y77837D01*
X554113Y76900D02*
X647563D01*
X590900Y61800D02*
X662471D01*
X659229Y67000D02*
X660166Y67937D01*
X576097Y67000D02*
X659229D01*
X662471Y61800D02*
X665890Y65219D01*
X560657Y71800D02*
X653506D01*
X654443Y72737D01*
X485330Y53972D02*
X531185D01*
X554113Y76900D01*
X720863Y512372D02*
X721800Y511435D01*
X673760Y512372D02*
X720863D01*
X676650Y519382D02*
X728063D01*
X729000Y518445D01*
X681460Y534672D02*
X741963D01*
X742900Y533735D01*
X542830Y53972D02*
X560657Y71800D01*
X351300Y54910D02*
Y125716D01*
Y54910D02*
X352237Y53972D01*
X350363Y126654D02*
X351300Y125716D01*
X352237Y53972D02*
X427830D01*
X575160Y61800D02*
Y66063D01*
X576097Y67000D01*
X579160Y652922D02*
X589160D01*
X518512Y606672D02*
X519450Y605735D01*
X509350Y606672D02*
X518512D01*
X735463Y527112D02*
X736400Y526175D01*
X678720Y527112D02*
X735463D01*
X206810Y68572D02*
Y77072D01*
X205360Y78522D02*
X206810Y77072D01*
X205360Y78522D02*
Y83822D01*
X532105Y526022D02*
Y531121D01*
X531168Y532058D02*
X532105Y531121D01*
X498745Y532058D02*
X531168D01*
X383684Y416997D02*
X498745Y532058D01*
X465530Y489822D02*
X501607Y525900D01*
X522900D02*
X523200Y525600D01*
X465530Y376562D02*
Y489822D01*
X501607Y525900D02*
X522900D01*
X541005Y526027D02*
Y537514D01*
X540067Y538451D02*
X541005Y537514D01*
Y526027D02*
X541010Y526022D01*
X479360Y647222D02*
X480180D01*
X474060D02*
X479360D01*
Y652522D01*
X480180Y647222D02*
X482500Y644902D01*
X469269Y642432D02*
X474060Y647222D01*
X600460Y652772D02*
X610460D01*
X454260Y636972D02*
X455872Y635360D01*
X454260Y636972D02*
Y652522D01*
X455872Y635360D02*
X463850D01*
X459960Y642272D02*
X469060D01*
X463850Y635360D02*
X467012Y638522D01*
X383684Y410497D02*
Y416997D01*
X554260Y497172D02*
X564260D01*
X489860D02*
X499860D01*
X511326D02*
X521326D01*
X532843Y497122D02*
X543410D01*
X571480Y516822D02*
X581810Y506492D01*
X454260Y652522D02*
X454260Y652522D01*
X454260Y652522D02*
Y658572D01*
X454260Y652522D02*
X463760D01*
X454260Y658572D02*
X454460Y658772D01*
X440760Y591872D02*
X457560D01*
X356230Y599822D02*
X477500D01*
X469220Y642432D02*
X469269D01*
X469060Y642272D02*
X469220Y642432D01*
X477160Y650522D02*
X479160Y652522D01*
X479360D01*
X467012Y638522D02*
X477500D01*
X495460Y283972D02*
Y287262D01*
X495000Y287722D02*
X495460Y287262D01*
X517422Y661222D02*
X518360Y660285D01*
X510560Y661222D02*
X517422D01*
X516810Y645322D02*
X518360Y646872D01*
Y660285D01*
X493437Y645322D02*
X516810D01*
X510560Y661222D02*
Y671525D01*
X499690Y672462D02*
X509622D01*
X510560Y671525D01*
X482500Y638522D02*
Y644902D01*
X487500Y645313D02*
X487509Y645322D01*
X487500Y638522D02*
Y645313D01*
X492500Y644385D02*
X493437Y645322D01*
X492500Y638522D02*
Y644385D01*
X465530Y376562D02*
X514070Y328022D01*
Y291260D02*
Y328022D01*
X501650Y289372D02*
X512182D01*
X514070Y291260D01*
X565460Y510912D02*
X581810Y494562D01*
X383600Y410412D02*
X383684Y410497D01*
X574680Y559782D02*
X606180Y528282D01*
Y404782D02*
Y528282D01*
X609420Y401542D02*
X622860D01*
X606180Y404782D02*
X609420Y401542D01*
X622860D02*
X626430Y405112D01*
Y410412D01*
X525990Y811000D02*
X526060Y811070D01*
X509750Y811000D02*
X525990D01*
X453910Y828470D02*
X469720D01*
D91*
X215310Y68572D02*
X215997Y67885D01*
Y65422D02*
X223122Y58297D01*
Y55760D02*
Y58297D01*
Y55760D02*
X223810Y55072D01*
X215997Y65422D02*
Y67885D01*
D94*
X765500Y606800D02*
D03*
X873500D02*
D03*
X106500D02*
D03*
X214500D02*
D03*
D95*
X664900Y826200D02*
D03*
Y718200D02*
D03*
X315100Y718200D02*
D03*
Y826200D02*
D03*
D96*
X533771Y896595D02*
D03*
X591799Y805508D02*
D03*
D97*
X388201D02*
D03*
X446229Y896595D02*
D03*
D98*
X705000Y158600D02*
D03*
X275000D02*
D03*
X170000Y476370D02*
D03*
Y117370D02*
D03*
X810000Y476370D02*
D03*
Y117370D02*
D03*
D99*
X553500Y945000D02*
D03*
X528100D02*
D03*
X502700D02*
D03*
X477300D02*
D03*
X451900D02*
D03*
X905000Y676600D02*
D03*
Y651200D02*
D03*
Y625800D02*
D03*
Y600400D02*
D03*
Y575000D02*
D03*
X75000Y600400D02*
D03*
Y625800D02*
D03*
Y651200D02*
D03*
Y676600D02*
D03*
Y702000D02*
D03*
D100*
X426500Y945000D02*
D03*
D101*
X905000Y702000D02*
D03*
X75000Y575000D02*
D03*
D102*
X485760Y448972D02*
D03*
Y441472D02*
D03*
Y433972D02*
D03*
D103*
X787500Y44350D02*
D03*
X762500D02*
D03*
D104*
X262810Y58772D02*
D03*
X176310D02*
D03*
D105*
X262810Y24972D02*
D03*
X176310D02*
D03*
D106*
X189810Y55072D02*
D03*
X249310D02*
D03*
Y68572D02*
D03*
X189810D02*
D03*
X198310Y55072D02*
D03*
X206810D02*
D03*
X215310D02*
D03*
X223810D02*
D03*
X232310D02*
D03*
X240810D02*
D03*
Y68572D02*
D03*
X232310D02*
D03*
X223810D02*
D03*
X215310D02*
D03*
X206810D02*
D03*
X198310D02*
D03*
D107*
X490000Y90100D02*
D03*
Y227100D02*
D03*
D108*
X737500Y44350D02*
D03*
D109*
X180700Y524772D02*
D03*
X208000D02*
D03*
X420100Y489700D02*
D03*
X316300Y518700D02*
D03*
X610500Y627700D02*
D03*
X589200D02*
D03*
X527400Y623800D02*
D03*
X673064Y607600D02*
D03*
X546100Y418200D02*
D03*
Y430200D02*
D03*
X554900Y451200D02*
D03*
X551200Y459800D02*
D03*
X545300Y475100D02*
D03*
X530500D02*
D03*
X515700D02*
D03*
X500900D02*
D03*
X357634Y558100D02*
D03*
X383900D02*
D03*
X497360Y561372D02*
D03*
X490860D02*
D03*
X481500D02*
D03*
X420060Y532872D02*
D03*
X833000Y607600D02*
D03*
X622600D02*
D03*
X615900Y563000D02*
D03*
X500800Y379200D02*
D03*
X420100Y471638D02*
D03*
X431700Y404300D02*
D03*
X390100Y498500D02*
D03*
Y509300D02*
D03*
X459300Y480900D02*
D03*
X420100Y497900D02*
D03*
Y480800D02*
D03*
Y441804D02*
D03*
Y432201D02*
D03*
Y423200D02*
D03*
X452860Y474342D02*
D03*
Y464174D02*
D03*
Y454882D02*
D03*
Y445919D02*
D03*
Y437267D02*
D03*
X452860Y429072D02*
D03*
X458200Y419000D02*
D03*
X454100Y379200D02*
D03*
X443200D02*
D03*
X432300D02*
D03*
X432600Y426000D02*
D03*
X453800Y408500D02*
D03*
X461300Y410200D02*
D03*
X420100Y414900D02*
D03*
Y404300D02*
D03*
X443300D02*
D03*
X390200Y379200D02*
D03*
X375500D02*
D03*
X404900D02*
D03*
X419600D02*
D03*
X460500Y369200D02*
D03*
X449311D02*
D03*
X438700D02*
D03*
X425500D02*
D03*
X363700Y361500D02*
D03*
X282100Y556500D02*
D03*
Y550500D02*
D03*
X234250Y540500D02*
D03*
X228250D02*
D03*
X298620Y542212D02*
D03*
X477100Y379200D02*
D03*
X219360Y112272D02*
D03*
X339760Y53972D02*
D03*
X350314Y662722D02*
D03*
X395454Y816894D02*
D03*
X315100Y731700D02*
D03*
X438976Y885209D02*
D03*
X258200Y622000D02*
D03*
X229100Y652200D02*
D03*
X432000Y653300D02*
D03*
X860000Y606800D02*
D03*
X574680Y576800D02*
D03*
X664900Y731700D02*
D03*
X587600Y579200D02*
D03*
X584546Y816894D02*
D03*
X524000Y561372D02*
D03*
X515500D02*
D03*
X539700Y607800D02*
D03*
X201000Y606800D02*
D03*
X446900Y532872D02*
D03*
X581810Y506492D02*
D03*
X434060Y576672D02*
D03*
Y585172D02*
D03*
X397560Y643672D02*
D03*
X287400Y451200D02*
D03*
X432900Y613200D02*
D03*
X444260Y664972D02*
D03*
X432900Y620950D02*
D03*
X676960Y69472D02*
D03*
X590900Y61800D02*
D03*
X542830Y53972D02*
D03*
X485330D02*
D03*
X575160Y61800D02*
D03*
X589160Y652922D02*
D03*
X764260Y524772D02*
D03*
X523200Y526022D02*
D03*
X532105D02*
D03*
X541010D02*
D03*
X280900Y83800D02*
D03*
X288000Y426800D02*
D03*
Y401678D02*
D03*
X679400D02*
D03*
X695500Y353500D02*
D03*
X701500D02*
D03*
X596500Y380100D02*
D03*
X679400Y426800D02*
D03*
X586400Y380100D02*
D03*
X485700Y467800D02*
D03*
X610460Y652772D02*
D03*
X459960Y642272D02*
D03*
X350314Y643672D02*
D03*
X404060Y691372D02*
D03*
X384960Y543672D02*
D03*
Y537172D02*
D03*
X427830Y53972D02*
D03*
X788660Y524772D02*
D03*
X564260Y497172D02*
D03*
X499860D02*
D03*
X543410Y497122D02*
D03*
X521326Y497172D02*
D03*
X383760Y442572D02*
D03*
Y436572D02*
D03*
X531460Y394672D02*
D03*
Y388672D02*
D03*
X457560Y570672D02*
D03*
Y580172D02*
D03*
X581810Y480372D02*
D03*
X285020Y501332D02*
D03*
X454460Y658772D02*
D03*
X457560Y591872D02*
D03*
X431560Y677372D02*
D03*
X574680Y568302D02*
D03*
X499690Y672462D02*
D03*
X581810Y494562D02*
D03*
X452870Y521732D02*
D03*
X383600Y410412D02*
D03*
X373650D02*
D03*
X574680Y559782D02*
D03*
X626430Y410412D02*
D03*
X616480D02*
D03*
X298620Y521732D02*
D03*
Y531972D02*
D03*
D110*
X550200Y347300D02*
D03*
X531400Y370700D02*
D03*
X506300Y260600D02*
D03*
X473700D02*
D03*
X455700Y325300D02*
D03*
X450400Y312000D02*
D03*
Y301300D02*
D03*
X529600D02*
D03*
Y312000D02*
D03*
X541420Y289100D02*
D03*
X438580D02*
D03*
X524300Y325300D02*
D03*
D130*
X490000Y619172D02*
D03*
D131*
X470650Y631672D02*
D03*
Y626672D02*
D03*
Y621672D02*
D03*
Y616672D02*
D03*
Y611672D02*
D03*
Y606672D02*
D03*
X509350D02*
D03*
Y611672D02*
D03*
Y616672D02*
D03*
Y621672D02*
D03*
Y626672D02*
D03*
Y631672D02*
D03*
D132*
X502500Y638522D02*
D03*
X497500D02*
D03*
X492500Y599822D02*
D03*
Y638522D02*
D03*
X487500D02*
D03*
X482500D02*
D03*
X477500D02*
D03*
Y599822D02*
D03*
X482500D02*
D03*
X487500D02*
D03*
X497500D02*
D03*
X502500D02*
D03*
D133*
X470250Y811000D02*
D03*
X509750Y829000D02*
D03*
X470250D02*
D03*
X509750Y811000D02*
D03*
D134*
X501650Y294372D02*
D03*
Y299372D02*
D03*
X478350Y304372D02*
D03*
Y299372D02*
D03*
Y294372D02*
D03*
X501650Y289372D02*
D03*
Y304372D02*
D03*
X478350Y289372D02*
D03*
D135*
X485000Y287722D02*
D03*
X490000D02*
D03*
X495000Y306022D02*
D03*
X490000D02*
D03*
X485000D02*
D03*
X495000Y287722D02*
D03*
M02*
