G04*
G04 #@! TF.GenerationSoftware,Altium Limited,Altium Designer,23.1.1 (15)*
G04*
G04 Layer_Physical_Order=2*
G04 Layer_Color=32768*
%FSLAX44Y44*%
%MOMM*%
G71*
G04*
G04 #@! TF.SameCoordinates,06529313-8F5D-48FA-AF42-15034B8276AF*
G04*
G04*
G04 #@! TF.FilePolarity,Negative*
G04*
G01*
G75*
%ADD112C,1.0160*%
%AMTHOVALD113*
21,1,1.5000,2.1240,0,0,90.0*
1,1,2.1240,0.0000,-0.7500*
1,1,2.1240,0.0000,0.7500*
21,0,1.5000,1.6160,0,0,90.0*
1,0,1.6160,0.0000,-0.7500*
1,0,1.6160,0.0000,0.7500*
4,0,4,0.0898,-0.6602,0.8408,-1.4112,0.6611,-1.5908,-0.0898,-0.8398,0.0898,-0.6602,0.0*
4,0,4,0.0898,0.8398,-0.6611,1.5908,-0.8408,1.4112,-0.0898,0.6602,0.0898,0.8398,0.0*
4,0,4,0.0898,-0.8398,-0.6611,-1.5908,-0.8408,-1.4112,-0.0898,-0.6602,0.0898,-0.8398,0.0*
4,0,4,0.0898,0.6602,0.8408,1.4112,0.6611,1.5908,-0.0898,0.8398,0.0898,0.6602,0.0*
%
%ADD113THOVALD113*%

%AMTHOVALD114*
21,1,0.8000,2.1240,0,0,90.0*
1,1,2.1240,0.0000,-0.4000*
1,1,2.1240,0.0000,0.4000*
21,0,0.8000,1.6160,0,0,90.0*
1,0,1.6160,0.0000,-0.4000*
1,0,1.6160,0.0000,0.4000*
4,0,4,0.0898,-0.3102,0.8408,-1.0611,0.6611,-1.2408,-0.0898,-0.4898,0.0898,-0.3102,0.0*
4,0,4,0.0898,0.4898,-0.6611,1.2408,-0.8408,1.0611,-0.0898,0.3102,0.0898,0.4898,0.0*
4,0,4,0.0898,-0.4898,-0.6611,-1.2408,-0.8408,-1.0611,-0.0898,-0.3102,0.0898,-0.4898,0.0*
4,0,4,0.0898,0.3102,0.8408,1.0611,0.6611,1.2408,-0.0898,0.4898,0.0898,0.3102,0.0*
%
%ADD114THOVALD114*%

G04:AMPARAMS|DCode=115|XSize=1.924mm|YSize=1.924mm|CornerRadius=0mm|HoleSize=0mm|Usage=FLASHONLY|Rotation=0.000|XOffset=0mm|YOffset=0mm|HoleType=Round|Shape=Relief|Width=0.254mm|Gap=0.254mm|Entries=4|*
%AMTHD115*
7,0,0,1.9240,1.4160,0.2540,45*
%
%ADD115THD115*%
G04:AMPARAMS|DCode=116|XSize=2.594mm|YSize=2.594mm|CornerRadius=0mm|HoleSize=0mm|Usage=FLASHONLY|Rotation=0.000|XOffset=0mm|YOffset=0mm|HoleType=Round|Shape=Relief|Width=0.254mm|Gap=0.254mm|Entries=4|*
%AMTHD116*
7,0,0,2.5940,2.0860,0.2540,45*
%
%ADD116THD116*%
G04:AMPARAMS|DCode=117|XSize=2.564mm|YSize=2.564mm|CornerRadius=0mm|HoleSize=0mm|Usage=FLASHONLY|Rotation=0.000|XOffset=0mm|YOffset=0mm|HoleType=Round|Shape=Relief|Width=0.254mm|Gap=0.254mm|Entries=4|*
%AMTHD117*
7,0,0,2.5640,2.0560,0.2540,45*
%
%ADD117THD117*%
G04:AMPARAMS|DCode=118|XSize=1.724mm|YSize=1.724mm|CornerRadius=0mm|HoleSize=0mm|Usage=FLASHONLY|Rotation=0.000|XOffset=0mm|YOffset=0mm|HoleType=Round|Shape=Relief|Width=0.254mm|Gap=0.254mm|Entries=4|*
%AMTHD118*
7,0,0,1.7240,1.2160,0.2540,45*
%
%ADD118THD118*%
G04:AMPARAMS|DCode=119|XSize=2.574mm|YSize=2.574mm|CornerRadius=0mm|HoleSize=0mm|Usage=FLASHONLY|Rotation=0.000|XOffset=0mm|YOffset=0mm|HoleType=Round|Shape=Relief|Width=0.254mm|Gap=0.254mm|Entries=4|*
%AMTHD119*
7,0,0,2.5740,2.0660,0.2540,45*
%
%ADD119THD119*%
%ADD120C,1.4500*%
%ADD121C,1.4400*%
%ADD122C,1.3000*%
%ADD123C,1.4700*%
%ADD124C,0.8000*%
%ADD125C,2.9000*%
G04:AMPARAMS|DCode=126|XSize=1.774mm|YSize=1.774mm|CornerRadius=0mm|HoleSize=0mm|Usage=FLASHONLY|Rotation=0.000|XOffset=0mm|YOffset=0mm|HoleType=Round|Shape=Relief|Width=0.254mm|Gap=0.254mm|Entries=4|*
%AMTHD126*
7,0,0,1.7740,1.2660,0.2540,45*
%
%ADD126THD126*%
%ADD127C,0.6500*%
%ADD128C,0.6000*%
G36*
X247999Y746922D02*
X402000D01*
Y696423D01*
X402000Y696422D01*
X247999D01*
Y746922D01*
D02*
G37*
D112*
X700000Y720000D02*
G03*
X-50000Y720000I-375000J-132830D01*
G01*
Y550000D02*
Y720000D01*
X700000Y550000D02*
Y720000D01*
X650000Y550000D02*
X700000D01*
X650000Y-0D02*
Y550000D01*
X-0Y-0D02*
X650000D01*
X-0D02*
Y550000D01*
X-50000D02*
X-0D01*
D113*
X106209Y65472D02*
D03*
X19710D02*
D03*
D114*
X106209Y31672D02*
D03*
X19710D02*
D03*
D115*
X33210Y61772D02*
D03*
X92710D02*
D03*
Y75272D02*
D03*
X33210D02*
D03*
D116*
X17199Y687272D02*
D03*
X286900Y922472D02*
D03*
X632799Y763472D02*
D03*
D117*
X205060Y859461D02*
D03*
X444939Y859462D02*
D03*
X41490Y606822D02*
D03*
X523859Y825242D02*
D03*
X608509Y606822D02*
D03*
X126140Y825242D02*
D03*
D118*
X320760Y433972D02*
D03*
Y441472D02*
D03*
Y448972D02*
D03*
D119*
X596009Y63272D02*
D03*
D120*
Y38272D02*
D03*
D121*
X520920Y786392D02*
D03*
X502959Y804352D02*
D03*
X108179Y807282D02*
D03*
X608509Y581422D02*
D03*
X541820Y807282D02*
D03*
X41490Y581422D02*
D03*
X470340Y859462D02*
D03*
X179660Y859461D02*
D03*
X578489Y606822D02*
D03*
Y581422D02*
D03*
X71509Y606822D02*
D03*
Y581422D02*
D03*
X444939Y830662D02*
D03*
X470340D02*
D03*
X205060Y830661D02*
D03*
X179660D02*
D03*
X147040Y804352D02*
D03*
X129079Y786392D02*
D03*
D122*
X152330Y22082D02*
D03*
X182330D02*
D03*
D123*
X632799Y788872D02*
D03*
Y738072D02*
D03*
Y712672D02*
D03*
Y687272D02*
D03*
Y661872D02*
D03*
X261500Y922472D02*
D03*
X312299D02*
D03*
X337700D02*
D03*
X363100D02*
D03*
X388499D02*
D03*
X17199Y661872D02*
D03*
Y712672D02*
D03*
Y738072D02*
D03*
Y763472D02*
D03*
Y788872D02*
D03*
D124*
X41709Y75272D02*
D03*
X50209D02*
D03*
X58710D02*
D03*
X67210D02*
D03*
X75710D02*
D03*
X84209D02*
D03*
Y61772D02*
D03*
X75710D02*
D03*
X67210D02*
D03*
X58710D02*
D03*
X50209D02*
D03*
X41709D02*
D03*
D125*
X20499Y476372D02*
D03*
X629499D02*
D03*
X20499Y117372D02*
D03*
X629499D02*
D03*
D126*
X232560Y643672D02*
D03*
X108259Y792172D02*
D03*
X267360Y614872D02*
D03*
X122360Y447972D02*
D03*
X255060Y532872D02*
D03*
X534851Y793350D02*
D03*
X480820Y848390D02*
D03*
X56659Y573372D02*
D03*
X62759Y112272D02*
D03*
D127*
X186059Y666472D02*
D03*
Y643672D02*
D03*
X239060Y691372D02*
D03*
X412739Y87032D02*
D03*
X219960Y543672D02*
D03*
Y537172D02*
D03*
X262829Y53972D02*
D03*
X31360Y519472D02*
D03*
X267746Y409282D02*
D03*
X80160Y519472D02*
D03*
X276153Y409282D02*
D03*
X55760Y519472D02*
D03*
X284559Y409282D02*
D03*
X59710Y445472D02*
D03*
X623660Y519472D02*
D03*
X599259D02*
D03*
X445460Y652772D02*
D03*
X266159Y630372D02*
D03*
X424160Y652922D02*
D03*
X445460Y633872D02*
D03*
X424160D02*
D03*
X530560Y362238D02*
D03*
X536559D02*
D03*
X89660Y728572D02*
D03*
X62359D02*
D03*
X399259Y502872D02*
D03*
X334860D02*
D03*
X378410Y502822D02*
D03*
X356326Y502872D02*
D03*
X320060Y476872D02*
D03*
Y467772D02*
D03*
X198622Y372572D02*
D03*
X174760Y53972D02*
D03*
X527760Y72872D02*
D03*
X218759Y442572D02*
D03*
Y436572D02*
D03*
X366460Y394672D02*
D03*
Y388672D02*
D03*
X332360Y561372D02*
D03*
X325859D02*
D03*
X292560Y570672D02*
D03*
X269060Y576672D02*
D03*
X185560Y537172D02*
D03*
Y543672D02*
D03*
X292560Y580172D02*
D03*
X428359Y87032D02*
D03*
X566460Y552672D02*
D03*
X410960Y480372D02*
D03*
X120020Y501332D02*
D03*
X289459Y658772D02*
D03*
X292560Y591872D02*
D03*
X272959Y623172D02*
D03*
X294960Y642272D02*
D03*
X393559Y950072D02*
D03*
X482399Y723742D02*
D03*
X279259Y664972D02*
D03*
X266560Y677372D02*
D03*
X269060Y585172D02*
D03*
X320260Y53972D02*
D03*
X456359Y562072D02*
D03*
X377840Y53972D02*
D03*
X409679Y568302D02*
D03*
X334689Y672462D02*
D03*
X349370Y519952D02*
D03*
X259340Y409282D02*
D03*
X416810Y506492D02*
D03*
Y494562D02*
D03*
X376009Y526022D02*
D03*
X146910Y521732D02*
D03*
X287869D02*
D03*
X218599Y410412D02*
D03*
X208650D02*
D03*
X367550Y526022D02*
D03*
X409679Y559782D02*
D03*
X461429Y411462D02*
D03*
X451479D02*
D03*
X133619Y542212D02*
D03*
Y521732D02*
D03*
Y531972D02*
D03*
Y552452D02*
D03*
X513209Y552712D02*
D03*
X379850Y604372D02*
D03*
X416600Y855572D02*
D03*
X139389Y719532D02*
D03*
X271239Y855252D02*
D03*
D128*
X66210Y445472D02*
D03*
M02*
