G04*
G04 #@! TF.GenerationSoftware,Altium Limited,Altium Designer,23.1.1 (15)*
G04*
G04 Layer_Color=8388736*
%FSLAX44Y44*%
%MOMM*%
G71*
G04*
G04 #@! TF.SameCoordinates,06529313-8F5D-48FA-AF42-15034B8276AF*
G04*
G04*
G04 #@! TF.FilePolarity,Negative*
G04*
G01*
G75*
%ADD19R,1.1176X2.6924*%
%ADD23R,1.1176X1.4478*%
%ADD24R,2.6924X1.1176*%
%ADD45R,0.8040X0.7640*%
%ADD46R,0.7640X0.8040*%
G04:AMPARAMS|DCode=47|XSize=0.7432mm|YSize=0.8032mm|CornerRadius=0.2447mm|HoleSize=0mm|Usage=FLASHONLY|Rotation=270.000|XOffset=0mm|YOffset=0mm|HoleType=Round|Shape=RoundedRectangle|*
%AMROUNDEDRECTD47*
21,1,0.7432,0.3138,0,0,270.0*
21,1,0.2538,0.8032,0,0,270.0*
1,1,0.4894,-0.1569,-0.1269*
1,1,0.4894,-0.1569,0.1269*
1,1,0.4894,0.1569,0.1269*
1,1,0.4894,0.1569,-0.1269*
%
%ADD47ROUNDEDRECTD47*%
G04:AMPARAMS|DCode=48|XSize=0.7432mm|YSize=0.8032mm|CornerRadius=0.2447mm|HoleSize=0mm|Usage=FLASHONLY|Rotation=0.000|XOffset=0mm|YOffset=0mm|HoleType=Round|Shape=RoundedRectangle|*
%AMROUNDEDRECTD48*
21,1,0.7432,0.3138,0,0,0.0*
21,1,0.2538,0.8032,0,0,0.0*
1,1,0.4894,0.1269,-0.1569*
1,1,0.4894,-0.1269,-0.1569*
1,1,0.4894,-0.1269,0.1569*
1,1,0.4894,0.1269,0.1569*
%
%ADD48ROUNDEDRECTD48*%
%ADD49R,0.9040X1.7040*%
%ADD50R,1.0032X1.0032*%
%ADD51C,0.8532*%
G04:AMPARAMS|DCode=52|XSize=0.7432mm|YSize=0.8032mm|CornerRadius=0.2447mm|HoleSize=0mm|Usage=FLASHONLY|Rotation=45.000|XOffset=0mm|YOffset=0mm|HoleType=Round|Shape=RoundedRectangle|*
%AMROUNDEDRECTD52*
21,1,0.7432,0.3138,0,0,45.0*
21,1,0.2538,0.8032,0,0,45.0*
1,1,0.4894,0.2007,-0.0212*
1,1,0.4894,0.0212,-0.2007*
1,1,0.4894,-0.2007,0.0212*
1,1,0.4894,-0.0212,0.2007*
%
%ADD52ROUNDEDRECTD52*%
G04:AMPARAMS|DCode=53|XSize=1.4132mm|YSize=0.7932mm|CornerRadius=0.2491mm|HoleSize=0mm|Usage=FLASHONLY|Rotation=0.000|XOffset=0mm|YOffset=0mm|HoleType=Round|Shape=RoundedRectangle|*
%AMROUNDEDRECTD53*
21,1,1.4132,0.2950,0,0,0.0*
21,1,0.9150,0.7932,0,0,0.0*
1,1,0.4982,0.4575,-0.1475*
1,1,0.4982,-0.4575,-0.1475*
1,1,0.4982,-0.4575,0.1475*
1,1,0.4982,0.4575,0.1475*
%
%ADD53ROUNDEDRECTD53*%
G04:AMPARAMS|DCode=54|XSize=1.4132mm|YSize=0.7932mm|CornerRadius=0.2491mm|HoleSize=0mm|Usage=FLASHONLY|Rotation=90.000|XOffset=0mm|YOffset=0mm|HoleType=Round|Shape=RoundedRectangle|*
%AMROUNDEDRECTD54*
21,1,1.4132,0.2950,0,0,90.0*
21,1,0.9150,0.7932,0,0,90.0*
1,1,0.4982,0.1475,0.4575*
1,1,0.4982,0.1475,-0.4575*
1,1,0.4982,-0.1475,-0.4575*
1,1,0.4982,-0.1475,0.4575*
%
%ADD54ROUNDEDRECTD54*%
G04:AMPARAMS|DCode=55|XSize=0.764mm|YSize=0.804mm|CornerRadius=0mm|HoleSize=0mm|Usage=FLASHONLY|Rotation=225.000|XOffset=0mm|YOffset=0mm|HoleType=Round|Shape=Rectangle|*
%AMROTATEDRECTD55*
4,1,4,-0.0141,0.5544,0.5544,-0.0141,0.0141,-0.5544,-0.5544,0.0141,-0.0141,0.5544,0.0*
%
%ADD55ROTATEDRECTD55*%

G04:AMPARAMS|DCode=56|XSize=0.764mm|YSize=0.804mm|CornerRadius=0mm|HoleSize=0mm|Usage=FLASHONLY|Rotation=315.000|XOffset=0mm|YOffset=0mm|HoleType=Round|Shape=Rectangle|*
%AMROTATEDRECTD56*
4,1,4,-0.5544,-0.0141,0.0141,0.5544,0.5544,0.0141,-0.0141,-0.5544,-0.5544,-0.0141,0.0*
%
%ADD56ROTATEDRECTD56*%

%ADD57R,1.1032X1.2032*%
%ADD58R,1.9032X0.7532*%
G04:AMPARAMS|DCode=59|XSize=0.7432mm|YSize=0.8032mm|CornerRadius=0.2447mm|HoleSize=0mm|Usage=FLASHONLY|Rotation=135.000|XOffset=0mm|YOffset=0mm|HoleType=Round|Shape=RoundedRectangle|*
%AMROUNDEDRECTD59*
21,1,0.7432,0.3138,0,0,135.0*
21,1,0.2538,0.8032,0,0,135.0*
1,1,0.4894,0.0212,0.2007*
1,1,0.4894,0.2007,0.0212*
1,1,0.4894,-0.0212,-0.2007*
1,1,0.4894,-0.2007,-0.0212*
%
%ADD59ROUNDEDRECTD59*%
G04:AMPARAMS|DCode=60|XSize=1.4132mm|YSize=0.7932mm|CornerRadius=0.2491mm|HoleSize=0mm|Usage=FLASHONLY|Rotation=135.000|XOffset=0mm|YOffset=0mm|HoleType=Round|Shape=RoundedRectangle|*
%AMROUNDEDRECTD60*
21,1,1.4132,0.2950,0,0,135.0*
21,1,0.9150,0.7932,0,0,135.0*
1,1,0.4982,-0.2192,0.4278*
1,1,0.4982,0.4278,-0.2192*
1,1,0.4982,0.2192,-0.4278*
1,1,0.4982,-0.4278,0.2192*
%
%ADD60ROUNDEDRECTD60*%
G04:AMPARAMS|DCode=61|XSize=1.4132mm|YSize=0.7932mm|CornerRadius=0.2491mm|HoleSize=0mm|Usage=FLASHONLY|Rotation=45.000|XOffset=0mm|YOffset=0mm|HoleType=Round|Shape=RoundedRectangle|*
%AMROUNDEDRECTD61*
21,1,1.4132,0.2950,0,0,45.0*
21,1,0.9150,0.7932,0,0,45.0*
1,1,0.4982,0.4278,0.2192*
1,1,0.4982,-0.2192,-0.4278*
1,1,0.4982,-0.4278,-0.2192*
1,1,0.4982,0.2192,0.4278*
%
%ADD61ROUNDEDRECTD61*%
G04:AMPARAMS|DCode=62|XSize=1.7732mm|YSize=0.6132mm|CornerRadius=0.1529mm|HoleSize=0mm|Usage=FLASHONLY|Rotation=0.000|XOffset=0mm|YOffset=0mm|HoleType=Round|Shape=RoundedRectangle|*
%AMROUNDEDRECTD62*
21,1,1.7732,0.3075,0,0,0.0*
21,1,1.4675,0.6132,0,0,0.0*
1,1,0.3057,0.7338,-0.1538*
1,1,0.3057,-0.7338,-0.1538*
1,1,0.3057,-0.7338,0.1538*
1,1,0.3057,0.7338,0.1538*
%
%ADD62ROUNDEDRECTD62*%
%ADD63R,0.8032X1.7532*%
%ADD64R,1.4032X1.4032*%
%ADD65R,0.6032X1.0032*%
%ADD66R,1.0032X0.6032*%
%ADD67R,1.0032X1.0032*%
G04:AMPARAMS|DCode=68|XSize=0.6632mm|YSize=0.4032mm|CornerRadius=0.1266mm|HoleSize=0mm|Usage=FLASHONLY|Rotation=270.000|XOffset=0mm|YOffset=0mm|HoleType=Round|Shape=RoundedRectangle|*
%AMROUNDEDRECTD68*
21,1,0.6632,0.1500,0,0,270.0*
21,1,0.4100,0.4032,0,0,270.0*
1,1,0.2532,-0.0750,-0.2050*
1,1,0.2532,-0.0750,0.2050*
1,1,0.2532,0.0750,0.2050*
1,1,0.2532,0.0750,-0.2050*
%
%ADD68ROUNDEDRECTD68*%
G04:AMPARAMS|DCode=69|XSize=2.1732mm|YSize=0.8032mm|CornerRadius=0.1466mm|HoleSize=0mm|Usage=FLASHONLY|Rotation=180.000|XOffset=0mm|YOffset=0mm|HoleType=Round|Shape=RoundedRectangle|*
%AMROUNDEDRECTD69*
21,1,2.1732,0.5100,0,0,180.0*
21,1,1.8800,0.8032,0,0,180.0*
1,1,0.2932,-0.9400,0.2550*
1,1,0.2932,0.9400,0.2550*
1,1,0.2932,0.9400,-0.2550*
1,1,0.2932,-0.9400,-0.2550*
%
%ADD69ROUNDEDRECTD69*%
%ADD70R,1.4032X2.0032*%
%ADD71R,2.6832X3.6032*%
%ADD72R,1.2040X1.0040*%
%ADD73O,1.1032X2.6032*%
%ADD74O,1.1032X1.9032*%
%ADD75C,1.8082*%
%ADD76R,1.7632X1.7632*%
%ADD77R,1.7632X1.7632*%
%ADD78P,2.4935X4X360.0*%
%ADD79P,2.4935X4X270.0*%
%ADD80C,1.7782*%
%ADD81R,1.7782X1.7782*%
%ADD82C,1.7632*%
%ADD83C,0.9000*%
%ADD84R,1.8082X1.8082*%
%ADD85R,1.8082X1.8082*%
%ADD86C,3.2032*%
%ADD87C,0.7032*%
G36*
X315499Y628672D02*
X301500D01*
Y636172D01*
X307999Y642672D01*
X315499D01*
Y628672D01*
D02*
G37*
G36*
X333340Y453212D02*
X333359D01*
X333390Y453202D01*
X333410D01*
X333439Y453192D01*
X333460Y453182D01*
X333489Y453172D01*
X333509Y453152D01*
X333530Y453142D01*
X333549Y453122D01*
X333569Y453112D01*
X333590Y453092D01*
X333610Y453072D01*
X333629Y453052D01*
X333649Y453032D01*
X333660Y453012D01*
X333680Y452992D01*
X333689Y452972D01*
X333709Y452952D01*
X333719Y452922D01*
X333730Y452902D01*
X333740Y452872D01*
Y452852D01*
X333750Y452822D01*
Y452802D01*
X333759Y452772D01*
Y452752D01*
Y452722D01*
Y449722D01*
Y449692D01*
Y449672D01*
X333750Y449642D01*
Y449622D01*
X333740Y449592D01*
Y449572D01*
X333730Y449542D01*
X333719Y449522D01*
X333709Y449492D01*
X333689Y449472D01*
X333680Y449452D01*
X333660Y449432D01*
X333649Y449412D01*
X333629Y449392D01*
X333610Y449372D01*
X333590Y449352D01*
X333569Y449332D01*
X333549Y449322D01*
X333530Y449302D01*
X333509Y449292D01*
X333489Y449272D01*
X333460Y449262D01*
X333439Y449252D01*
X333410Y449242D01*
X333390D01*
X333359Y449232D01*
X333340D01*
X333310Y449222D01*
X329210D01*
X329179Y449232D01*
X329160D01*
X329129Y449242D01*
X329109D01*
X329080Y449252D01*
X329059Y449262D01*
X329030Y449272D01*
X329010Y449292D01*
X328989Y449302D01*
X328969Y449322D01*
X328950Y449332D01*
X328929Y449352D01*
X328909Y449372D01*
X328890Y449392D01*
X328870Y449412D01*
X328859Y449432D01*
X328839Y449452D01*
X328829Y449472D01*
X328810Y449492D01*
X328800Y449522D01*
X328789Y449542D01*
X328779Y449572D01*
Y449592D01*
X328769Y449622D01*
Y449642D01*
X328759Y449672D01*
Y449692D01*
Y449722D01*
Y452722D01*
Y452752D01*
Y452772D01*
X328769Y452802D01*
Y452822D01*
X328779Y452852D01*
Y452872D01*
X328789Y452902D01*
X328800Y452922D01*
X328810Y452952D01*
X328829Y452972D01*
X328839Y452992D01*
X328859Y453012D01*
X328870Y453032D01*
X328890Y453052D01*
X328909Y453072D01*
X328929Y453092D01*
X328950Y453112D01*
X328969Y453122D01*
X328989Y453142D01*
X329010Y453152D01*
X329030Y453172D01*
X329059Y453182D01*
X329080Y453192D01*
X329109Y453202D01*
X329129D01*
X329160Y453212D01*
X329179D01*
X329210Y453222D01*
X333310D01*
X333340Y453212D01*
D02*
G37*
G36*
X312339D02*
X312360D01*
X312390Y453202D01*
X312409D01*
X312439Y453192D01*
X312460Y453182D01*
X312489Y453172D01*
X312509Y453152D01*
X312530Y453142D01*
X312549Y453122D01*
X312570Y453112D01*
X312589Y453092D01*
X312610Y453072D01*
X312630Y453052D01*
X312649Y453032D01*
X312659Y453012D01*
X312680Y452992D01*
X312689Y452972D01*
X312710Y452952D01*
X312719Y452922D01*
X312729Y452902D01*
X312740Y452872D01*
Y452852D01*
X312750Y452822D01*
Y452802D01*
X312759Y452772D01*
Y452752D01*
Y452722D01*
Y449722D01*
Y449692D01*
Y449672D01*
X312750Y449642D01*
Y449622D01*
X312740Y449592D01*
Y449572D01*
X312729Y449542D01*
X312719Y449522D01*
X312710Y449492D01*
X312689Y449472D01*
X312680Y449452D01*
X312659Y449432D01*
X312649Y449412D01*
X312630Y449392D01*
X312610Y449372D01*
X312589Y449352D01*
X312570Y449332D01*
X312549Y449322D01*
X312530Y449302D01*
X312509Y449292D01*
X312489Y449272D01*
X312460Y449262D01*
X312439Y449252D01*
X312409Y449242D01*
X312390D01*
X312360Y449232D01*
X312339D01*
X312309Y449222D01*
X308209D01*
X308179Y449232D01*
X308160D01*
X308130Y449242D01*
X308109D01*
X308079Y449252D01*
X308060Y449262D01*
X308029Y449272D01*
X308009Y449292D01*
X307990Y449302D01*
X307969Y449322D01*
X307950Y449332D01*
X307929Y449352D01*
X307910Y449372D01*
X307889Y449392D01*
X307869Y449412D01*
X307859Y449432D01*
X307840Y449452D01*
X307829Y449472D01*
X307810Y449492D01*
X307799Y449522D01*
X307789Y449542D01*
X307780Y449572D01*
Y449592D01*
X307770Y449622D01*
Y449642D01*
X307759Y449672D01*
Y449692D01*
Y449722D01*
Y452722D01*
Y452752D01*
Y452772D01*
X307770Y452802D01*
Y452822D01*
X307780Y452852D01*
Y452872D01*
X307789Y452902D01*
X307799Y452922D01*
X307810Y452952D01*
X307829Y452972D01*
X307840Y452992D01*
X307859Y453012D01*
X307869Y453032D01*
X307889Y453052D01*
X307910Y453072D01*
X307929Y453092D01*
X307950Y453112D01*
X307969Y453122D01*
X307990Y453142D01*
X308009Y453152D01*
X308029Y453172D01*
X308060Y453182D01*
X308079Y453192D01*
X308109Y453202D01*
X308130D01*
X308160Y453212D01*
X308179D01*
X308209Y453222D01*
X312309D01*
X312339Y453212D01*
D02*
G37*
G36*
X333340Y446712D02*
X333359D01*
X333390Y446702D01*
X333410D01*
X333439Y446692D01*
X333460Y446682D01*
X333489Y446672D01*
X333509Y446652D01*
X333530Y446642D01*
X333549Y446622D01*
X333569Y446612D01*
X333590Y446592D01*
X333610Y446572D01*
X333629Y446552D01*
X333649Y446532D01*
X333660Y446512D01*
X333680Y446492D01*
X333689Y446472D01*
X333709Y446452D01*
X333719Y446422D01*
X333730Y446402D01*
X333740Y446372D01*
Y446352D01*
X333750Y446322D01*
Y446302D01*
X333759Y446272D01*
Y446252D01*
Y446222D01*
Y443222D01*
Y443192D01*
Y443172D01*
X333750Y443142D01*
Y443122D01*
X333740Y443092D01*
Y443072D01*
X333730Y443042D01*
X333719Y443022D01*
X333709Y442992D01*
X333689Y442972D01*
X333680Y442952D01*
X333660Y442932D01*
X333649Y442912D01*
X333629Y442892D01*
X333610Y442872D01*
X333590Y442852D01*
X333569Y442832D01*
X333549Y442822D01*
X333530Y442802D01*
X333509Y442792D01*
X333489Y442772D01*
X333460Y442762D01*
X333439Y442752D01*
X333410Y442742D01*
X333390D01*
X333359Y442732D01*
X333340D01*
X333310Y442722D01*
X329210D01*
X329179Y442732D01*
X329160D01*
X329129Y442742D01*
X329109D01*
X329080Y442752D01*
X329059Y442762D01*
X329030Y442772D01*
X329010Y442792D01*
X328989Y442802D01*
X328969Y442822D01*
X328950Y442832D01*
X328929Y442852D01*
X328909Y442872D01*
X328890Y442892D01*
X328870Y442912D01*
X328859Y442932D01*
X328839Y442952D01*
X328829Y442972D01*
X328810Y442992D01*
X328800Y443022D01*
X328789Y443042D01*
X328779Y443072D01*
Y443092D01*
X328769Y443122D01*
Y443142D01*
X328759Y443172D01*
Y443192D01*
Y443222D01*
Y446222D01*
Y446252D01*
Y446272D01*
X328769Y446302D01*
Y446322D01*
X328779Y446352D01*
Y446372D01*
X328789Y446402D01*
X328800Y446422D01*
X328810Y446452D01*
X328829Y446472D01*
X328839Y446492D01*
X328859Y446512D01*
X328870Y446532D01*
X328890Y446552D01*
X328909Y446572D01*
X328929Y446592D01*
X328950Y446612D01*
X328969Y446622D01*
X328989Y446642D01*
X329010Y446652D01*
X329030Y446672D01*
X329059Y446682D01*
X329080Y446692D01*
X329109Y446702D01*
X329129D01*
X329160Y446712D01*
X329179D01*
X329210Y446722D01*
X333310D01*
X333340Y446712D01*
D02*
G37*
G36*
X312339D02*
X312360D01*
X312390Y446702D01*
X312409D01*
X312439Y446692D01*
X312460Y446682D01*
X312489Y446672D01*
X312509Y446652D01*
X312530Y446642D01*
X312549Y446622D01*
X312570Y446612D01*
X312589Y446592D01*
X312610Y446572D01*
X312630Y446552D01*
X312649Y446532D01*
X312659Y446512D01*
X312680Y446492D01*
X312689Y446472D01*
X312710Y446452D01*
X312719Y446422D01*
X312729Y446402D01*
X312740Y446372D01*
Y446352D01*
X312750Y446322D01*
Y446302D01*
X312759Y446272D01*
Y446252D01*
Y446222D01*
Y443222D01*
Y443192D01*
Y443172D01*
X312750Y443142D01*
Y443122D01*
X312740Y443092D01*
Y443072D01*
X312729Y443042D01*
X312719Y443022D01*
X312710Y442992D01*
X312689Y442972D01*
X312680Y442952D01*
X312659Y442932D01*
X312649Y442912D01*
X312630Y442892D01*
X312610Y442872D01*
X312589Y442852D01*
X312570Y442832D01*
X312549Y442822D01*
X312530Y442802D01*
X312509Y442792D01*
X312489Y442772D01*
X312460Y442762D01*
X312439Y442752D01*
X312409Y442742D01*
X312390D01*
X312360Y442732D01*
X312339D01*
X312309Y442722D01*
X308209D01*
X308179Y442732D01*
X308160D01*
X308130Y442742D01*
X308109D01*
X308079Y442752D01*
X308060Y442762D01*
X308029Y442772D01*
X308009Y442792D01*
X307990Y442802D01*
X307969Y442822D01*
X307950Y442832D01*
X307929Y442852D01*
X307910Y442872D01*
X307889Y442892D01*
X307869Y442912D01*
X307859Y442932D01*
X307840Y442952D01*
X307829Y442972D01*
X307810Y442992D01*
X307799Y443022D01*
X307789Y443042D01*
X307780Y443072D01*
Y443092D01*
X307770Y443122D01*
Y443142D01*
X307759Y443172D01*
Y443192D01*
Y443222D01*
Y446222D01*
Y446252D01*
Y446272D01*
X307770Y446302D01*
Y446322D01*
X307780Y446352D01*
Y446372D01*
X307789Y446402D01*
X307799Y446422D01*
X307810Y446452D01*
X307829Y446472D01*
X307840Y446492D01*
X307859Y446512D01*
X307869Y446532D01*
X307889Y446552D01*
X307910Y446572D01*
X307929Y446592D01*
X307950Y446612D01*
X307969Y446622D01*
X307990Y446642D01*
X308009Y446652D01*
X308029Y446672D01*
X308060Y446682D01*
X308079Y446692D01*
X308109Y446702D01*
X308130D01*
X308160Y446712D01*
X308179D01*
X308209Y446722D01*
X312309D01*
X312339Y446712D01*
D02*
G37*
G36*
X333340Y440212D02*
X333359D01*
X333390Y440202D01*
X333410D01*
X333439Y440192D01*
X333460Y440182D01*
X333489Y440172D01*
X333509Y440152D01*
X333530Y440142D01*
X333549Y440122D01*
X333569Y440112D01*
X333590Y440092D01*
X333610Y440072D01*
X333629Y440052D01*
X333649Y440032D01*
X333660Y440012D01*
X333680Y439992D01*
X333689Y439972D01*
X333709Y439952D01*
X333719Y439922D01*
X333730Y439902D01*
X333740Y439872D01*
Y439852D01*
X333750Y439822D01*
Y439802D01*
X333759Y439772D01*
Y439752D01*
Y439722D01*
Y436722D01*
Y436692D01*
Y436672D01*
X333750Y436642D01*
Y436622D01*
X333740Y436592D01*
Y436572D01*
X333730Y436542D01*
X333719Y436522D01*
X333709Y436492D01*
X333689Y436472D01*
X333680Y436452D01*
X333660Y436432D01*
X333649Y436412D01*
X333629Y436392D01*
X333610Y436372D01*
X333590Y436352D01*
X333569Y436332D01*
X333549Y436322D01*
X333530Y436302D01*
X333509Y436292D01*
X333489Y436272D01*
X333460Y436262D01*
X333439Y436252D01*
X333410Y436242D01*
X333390D01*
X333359Y436232D01*
X333340D01*
X333310Y436222D01*
X329210D01*
X329179Y436232D01*
X329160D01*
X329129Y436242D01*
X329109D01*
X329080Y436252D01*
X329059Y436262D01*
X329030Y436272D01*
X329010Y436292D01*
X328989Y436302D01*
X328969Y436322D01*
X328950Y436332D01*
X328929Y436352D01*
X328909Y436372D01*
X328890Y436392D01*
X328870Y436412D01*
X328859Y436432D01*
X328839Y436452D01*
X328829Y436472D01*
X328810Y436492D01*
X328800Y436522D01*
X328789Y436542D01*
X328779Y436572D01*
Y436592D01*
X328769Y436622D01*
Y436642D01*
X328759Y436672D01*
Y436692D01*
Y436722D01*
Y439722D01*
Y439752D01*
Y439772D01*
X328769Y439802D01*
Y439822D01*
X328779Y439852D01*
Y439872D01*
X328789Y439902D01*
X328800Y439922D01*
X328810Y439952D01*
X328829Y439972D01*
X328839Y439992D01*
X328859Y440012D01*
X328870Y440032D01*
X328890Y440052D01*
X328909Y440072D01*
X328929Y440092D01*
X328950Y440112D01*
X328969Y440122D01*
X328989Y440142D01*
X329010Y440152D01*
X329030Y440172D01*
X329059Y440182D01*
X329080Y440192D01*
X329109Y440202D01*
X329129D01*
X329160Y440212D01*
X329179D01*
X329210Y440222D01*
X333310D01*
X333340Y440212D01*
D02*
G37*
G36*
X312339D02*
X312360D01*
X312390Y440202D01*
X312409D01*
X312439Y440192D01*
X312460Y440182D01*
X312489Y440172D01*
X312509Y440152D01*
X312530Y440142D01*
X312549Y440122D01*
X312570Y440112D01*
X312589Y440092D01*
X312610Y440072D01*
X312630Y440052D01*
X312649Y440032D01*
X312659Y440012D01*
X312680Y439992D01*
X312689Y439972D01*
X312710Y439952D01*
X312719Y439922D01*
X312729Y439902D01*
X312740Y439872D01*
Y439852D01*
X312750Y439822D01*
Y439802D01*
X312759Y439772D01*
Y439752D01*
Y439722D01*
Y436722D01*
Y436692D01*
Y436672D01*
X312750Y436642D01*
Y436622D01*
X312740Y436592D01*
Y436572D01*
X312729Y436542D01*
X312719Y436522D01*
X312710Y436492D01*
X312689Y436472D01*
X312680Y436452D01*
X312659Y436432D01*
X312649Y436412D01*
X312630Y436392D01*
X312610Y436372D01*
X312589Y436352D01*
X312570Y436332D01*
X312549Y436322D01*
X312530Y436302D01*
X312509Y436292D01*
X312489Y436272D01*
X312460Y436262D01*
X312439Y436252D01*
X312409Y436242D01*
X312390D01*
X312360Y436232D01*
X312339D01*
X312309Y436222D01*
X308209D01*
X308179Y436232D01*
X308160D01*
X308130Y436242D01*
X308109D01*
X308079Y436252D01*
X308060Y436262D01*
X308029Y436272D01*
X308009Y436292D01*
X307990Y436302D01*
X307969Y436322D01*
X307950Y436332D01*
X307929Y436352D01*
X307910Y436372D01*
X307889Y436392D01*
X307869Y436412D01*
X307859Y436432D01*
X307840Y436452D01*
X307829Y436472D01*
X307810Y436492D01*
X307799Y436522D01*
X307789Y436542D01*
X307780Y436572D01*
Y436592D01*
X307770Y436622D01*
Y436642D01*
X307759Y436672D01*
Y436692D01*
Y436722D01*
Y439722D01*
Y439752D01*
Y439772D01*
X307770Y439802D01*
Y439822D01*
X307780Y439852D01*
Y439872D01*
X307789Y439902D01*
X307799Y439922D01*
X307810Y439952D01*
X307829Y439972D01*
X307840Y439992D01*
X307859Y440012D01*
X307869Y440032D01*
X307889Y440052D01*
X307910Y440072D01*
X307929Y440092D01*
X307950Y440112D01*
X307969Y440122D01*
X307990Y440142D01*
X308009Y440152D01*
X308029Y440172D01*
X308060Y440182D01*
X308079Y440192D01*
X308109Y440202D01*
X308130D01*
X308160Y440212D01*
X308179D01*
X308209Y440222D01*
X312309D01*
X312339Y440212D01*
D02*
G37*
G36*
X326259Y431972D02*
X315259D01*
Y450972D01*
X326259D01*
Y431972D01*
D02*
G37*
G36*
X333340Y433712D02*
X333359D01*
X333390Y433702D01*
X333410D01*
X333439Y433692D01*
X333460Y433682D01*
X333489Y433672D01*
X333509Y433652D01*
X333530Y433642D01*
X333549Y433622D01*
X333569Y433612D01*
X333590Y433592D01*
X333610Y433572D01*
X333629Y433552D01*
X333649Y433532D01*
X333660Y433512D01*
X333680Y433492D01*
X333689Y433472D01*
X333709Y433452D01*
X333719Y433422D01*
X333730Y433402D01*
X333740Y433372D01*
Y433352D01*
X333750Y433322D01*
Y433302D01*
X333759Y433272D01*
Y433252D01*
Y433222D01*
Y430222D01*
Y430192D01*
Y430172D01*
X333750Y430142D01*
Y430122D01*
X333740Y430092D01*
Y430072D01*
X333730Y430042D01*
X333719Y430022D01*
X333709Y429992D01*
X333689Y429972D01*
X333680Y429952D01*
X333660Y429932D01*
X333649Y429912D01*
X333629Y429892D01*
X333610Y429872D01*
X333590Y429852D01*
X333569Y429832D01*
X333549Y429822D01*
X333530Y429802D01*
X333509Y429792D01*
X333489Y429772D01*
X333460Y429762D01*
X333439Y429752D01*
X333410Y429742D01*
X333390D01*
X333359Y429732D01*
X333340D01*
X333310Y429722D01*
X329210D01*
X329179Y429732D01*
X329160D01*
X329129Y429742D01*
X329109D01*
X329080Y429752D01*
X329059Y429762D01*
X329030Y429772D01*
X329010Y429792D01*
X328989Y429802D01*
X328969Y429822D01*
X328950Y429832D01*
X328929Y429852D01*
X328909Y429872D01*
X328890Y429892D01*
X328870Y429912D01*
X328859Y429932D01*
X328839Y429952D01*
X328829Y429972D01*
X328810Y429992D01*
X328800Y430022D01*
X328789Y430042D01*
X328779Y430072D01*
Y430092D01*
X328769Y430122D01*
Y430142D01*
X328759Y430172D01*
Y430192D01*
Y430222D01*
Y433222D01*
Y433252D01*
Y433272D01*
X328769Y433302D01*
Y433322D01*
X328779Y433352D01*
Y433372D01*
X328789Y433402D01*
X328800Y433422D01*
X328810Y433452D01*
X328829Y433472D01*
X328839Y433492D01*
X328859Y433512D01*
X328870Y433532D01*
X328890Y433552D01*
X328909Y433572D01*
X328929Y433592D01*
X328950Y433612D01*
X328969Y433622D01*
X328989Y433642D01*
X329010Y433652D01*
X329030Y433672D01*
X329059Y433682D01*
X329080Y433692D01*
X329109Y433702D01*
X329129D01*
X329160Y433712D01*
X329179D01*
X329210Y433722D01*
X333310D01*
X333340Y433712D01*
D02*
G37*
G36*
X312339D02*
X312360D01*
X312390Y433702D01*
X312409D01*
X312439Y433692D01*
X312460Y433682D01*
X312489Y433672D01*
X312509Y433652D01*
X312530Y433642D01*
X312549Y433622D01*
X312570Y433612D01*
X312589Y433592D01*
X312610Y433572D01*
X312630Y433552D01*
X312649Y433532D01*
X312659Y433512D01*
X312680Y433492D01*
X312689Y433472D01*
X312710Y433452D01*
X312719Y433422D01*
X312729Y433402D01*
X312740Y433372D01*
Y433352D01*
X312750Y433322D01*
Y433302D01*
X312759Y433272D01*
Y433252D01*
Y433222D01*
Y430222D01*
Y430192D01*
Y430172D01*
X312750Y430142D01*
Y430122D01*
X312740Y430092D01*
Y430072D01*
X312729Y430042D01*
X312719Y430022D01*
X312710Y429992D01*
X312689Y429972D01*
X312680Y429952D01*
X312659Y429932D01*
X312649Y429912D01*
X312630Y429892D01*
X312610Y429872D01*
X312589Y429852D01*
X312570Y429832D01*
X312549Y429822D01*
X312530Y429802D01*
X312509Y429792D01*
X312489Y429772D01*
X312460Y429762D01*
X312439Y429752D01*
X312409Y429742D01*
X312390D01*
X312360Y429732D01*
X312339D01*
X312309Y429722D01*
X308209D01*
X308179Y429732D01*
X308160D01*
X308130Y429742D01*
X308109D01*
X308079Y429752D01*
X308060Y429762D01*
X308029Y429772D01*
X308009Y429792D01*
X307990Y429802D01*
X307969Y429822D01*
X307950Y429832D01*
X307929Y429852D01*
X307910Y429872D01*
X307889Y429892D01*
X307869Y429912D01*
X307859Y429932D01*
X307840Y429952D01*
X307829Y429972D01*
X307810Y429992D01*
X307799Y430022D01*
X307789Y430042D01*
X307780Y430072D01*
Y430092D01*
X307770Y430122D01*
Y430142D01*
X307759Y430172D01*
Y430192D01*
Y430222D01*
Y433222D01*
Y433252D01*
Y433272D01*
X307770Y433302D01*
Y433322D01*
X307780Y433352D01*
Y433372D01*
X307789Y433402D01*
X307799Y433422D01*
X307810Y433452D01*
X307829Y433472D01*
X307840Y433492D01*
X307859Y433512D01*
X307869Y433532D01*
X307889Y433552D01*
X307910Y433572D01*
X307929Y433592D01*
X307950Y433612D01*
X307969Y433622D01*
X307990Y433642D01*
X308009Y433652D01*
X308029Y433672D01*
X308060Y433682D01*
X308079Y433692D01*
X308109Y433702D01*
X308130D01*
X308160Y433712D01*
X308179D01*
X308209Y433722D01*
X312309D01*
X312339Y433712D01*
D02*
G37*
D19*
X229545Y707472D02*
D03*
X199573D02*
D03*
D23*
X311791Y411991D02*
D03*
X556628Y435372D02*
D03*
X242528Y455672D02*
D03*
X224592D02*
D03*
X538691Y435372D02*
D03*
X329728Y411991D02*
D03*
D24*
X359759Y417486D02*
D03*
X467259Y22686D02*
D03*
Y52658D02*
D03*
X359759Y447458D02*
D03*
D45*
X220459Y623427D02*
D03*
Y632127D02*
D03*
X220459Y652972D02*
D03*
Y661672D02*
D03*
X196460Y652972D02*
D03*
Y661672D02*
D03*
X396800Y49818D02*
D03*
Y58518D02*
D03*
X412739Y49818D02*
D03*
Y58518D02*
D03*
X428479Y49818D02*
D03*
Y58518D02*
D03*
X48759Y99222D02*
D03*
X125359Y70022D02*
D03*
X424829Y463422D02*
D03*
X297500Y446772D02*
D03*
X106955Y552722D02*
D03*
X535939D02*
D03*
X110289Y463421D02*
D03*
X48759Y90522D02*
D03*
X110289Y472121D02*
D03*
X196460Y632077D02*
D03*
Y623377D02*
D03*
X220459Y602272D02*
D03*
Y593572D02*
D03*
X196460Y602272D02*
D03*
Y593572D02*
D03*
X68660Y561422D02*
D03*
Y552722D02*
D03*
X535939Y561422D02*
D03*
X523936D02*
D03*
Y552722D02*
D03*
X603829D02*
D03*
Y561422D02*
D03*
X579829Y552722D02*
D03*
Y561422D02*
D03*
X106955D02*
D03*
X118955D02*
D03*
Y552722D02*
D03*
X44660D02*
D03*
Y561422D02*
D03*
X236859Y480472D02*
D03*
Y471772D02*
D03*
X297500Y455472D02*
D03*
X424829Y472122D02*
D03*
X125359Y61322D02*
D03*
X411059Y684322D02*
D03*
Y693022D02*
D03*
D46*
X210383Y676880D02*
D03*
X201684D02*
D03*
X223859Y567962D02*
D03*
X258690Y867252D02*
D03*
X400023Y867492D02*
D03*
X206709Y546472D02*
D03*
X198009D02*
D03*
X206709Y534522D02*
D03*
X198009D02*
D03*
X428229Y488972D02*
D03*
X436930D02*
D03*
X550910Y72676D02*
D03*
X542210D02*
D03*
X113709Y488972D02*
D03*
X122409D02*
D03*
X160569Y860342D02*
D03*
X151869D02*
D03*
X391324Y867492D02*
D03*
X249990Y867252D02*
D03*
X391324Y855492D02*
D03*
X400023D02*
D03*
X249990Y855252D02*
D03*
X258690D02*
D03*
X498940Y860342D02*
D03*
X490239D02*
D03*
X498940Y836342D02*
D03*
X490239D02*
D03*
X151869D02*
D03*
X160569D02*
D03*
X232559Y567962D02*
D03*
X306010Y467372D02*
D03*
X297309D02*
D03*
D47*
X232460Y661672D02*
D03*
Y653072D02*
D03*
X208459Y661672D02*
D03*
Y653072D02*
D03*
X297460Y436672D02*
D03*
Y428072D02*
D03*
X411059Y664672D02*
D03*
X591829Y561422D02*
D03*
X297959Y525572D02*
D03*
X310660Y525572D02*
D03*
X56659Y561422D02*
D03*
X436829Y463472D02*
D03*
X232460Y593622D02*
D03*
X208459D02*
D03*
X232460Y623477D02*
D03*
X208459D02*
D03*
X122289Y463471D02*
D03*
X224860Y480372D02*
D03*
Y471772D02*
D03*
X527859Y498742D02*
D03*
Y490142D02*
D03*
X212859Y471672D02*
D03*
Y480272D02*
D03*
Y498742D02*
D03*
Y490142D02*
D03*
X122289Y472071D02*
D03*
X208459Y632077D02*
D03*
X232460D02*
D03*
X208459Y602222D02*
D03*
X232460D02*
D03*
X436829Y472072D02*
D03*
X56659Y552822D02*
D03*
X310660Y534172D02*
D03*
X297959Y534172D02*
D03*
X591829Y552822D02*
D03*
X411059Y673272D02*
D03*
D48*
X222633Y676884D02*
D03*
X231234D02*
D03*
X223909Y579962D02*
D03*
X490289Y848342D02*
D03*
X160520D02*
D03*
X548359Y452172D02*
D03*
X512459Y72672D02*
D03*
X503859D02*
D03*
X539759Y452172D02*
D03*
Y464172D02*
D03*
X548359D02*
D03*
X151919Y848342D02*
D03*
X498890D02*
D03*
X232509Y579962D02*
D03*
D49*
X144830Y39582D02*
D03*
X189830D02*
D03*
X174830D02*
D03*
D50*
X412739Y37222D02*
D03*
Y22222D02*
D03*
X428479Y37222D02*
D03*
Y22222D02*
D03*
X397000D02*
D03*
Y37222D02*
D03*
D51*
X613660Y519472D02*
D03*
X589259D02*
D03*
X638060D02*
D03*
X45760D02*
D03*
X70160D02*
D03*
X21360D02*
D03*
X346326Y502872D02*
D03*
X389259D02*
D03*
X79660Y728572D02*
D03*
X324860Y502872D02*
D03*
X52359Y728572D02*
D03*
X367793Y502872D02*
D03*
X435460Y633872D02*
D03*
X414160Y652922D02*
D03*
X435460Y652772D02*
D03*
X414160Y633872D02*
D03*
X33210Y61772D02*
D03*
X92710D02*
D03*
Y75272D02*
D03*
X33210D02*
D03*
X41709D02*
D03*
X50209D02*
D03*
X58710D02*
D03*
X67210D02*
D03*
X75710D02*
D03*
X84209D02*
D03*
Y61772D02*
D03*
X75710D02*
D03*
X67210D02*
D03*
X58710D02*
D03*
X50209D02*
D03*
X41709D02*
D03*
D52*
X100021Y783904D02*
D03*
X93940Y777822D02*
D03*
D53*
X394570Y821162D02*
D03*
X255439Y840162D02*
D03*
X230340Y830662D02*
D03*
X255439Y821162D02*
D03*
X394570Y840162D02*
D03*
X419669Y830662D02*
D03*
D54*
X126010Y581572D02*
D03*
X542990D02*
D03*
X523989D02*
D03*
X533489Y606672D02*
D03*
X107009Y581572D02*
D03*
X116510Y606672D02*
D03*
D55*
X139666Y736835D02*
D03*
X145818Y742987D02*
D03*
X154303Y734501D02*
D03*
X148151Y728349D02*
D03*
X85420Y786272D02*
D03*
X91571Y792424D02*
D03*
X102390Y769302D02*
D03*
X108542Y775453D02*
D03*
D56*
X510099Y737143D02*
D03*
X537318Y773793D02*
D03*
X543470Y767641D02*
D03*
X554289Y790763D02*
D03*
X560441Y784612D02*
D03*
X503947Y743295D02*
D03*
X495462Y734810D02*
D03*
X501614Y728658D02*
D03*
D57*
X377830Y17322D02*
D03*
X336829D02*
D03*
X320330D02*
D03*
X279329D02*
D03*
X262829D02*
D03*
X221829D02*
D03*
Y33322D02*
D03*
X262829D02*
D03*
X279329D02*
D03*
X320330D02*
D03*
X336829D02*
D03*
X377830D02*
D03*
D58*
X357329Y11072D02*
D03*
X299830D02*
D03*
X242330D02*
D03*
D59*
X545839Y782243D02*
D03*
X551920Y776162D02*
D03*
D60*
X495711Y761396D02*
D03*
X471245Y772427D02*
D03*
X482276Y747961D02*
D03*
D61*
X167723Y747921D02*
D03*
X154288Y761356D02*
D03*
X178754Y772387D02*
D03*
D62*
X511009Y504722D02*
D03*
Y498222D02*
D03*
Y459222D02*
D03*
X453610Y465722D02*
D03*
X196390Y504722D02*
D03*
Y498222D02*
D03*
Y459222D02*
D03*
X138989Y465722D02*
D03*
Y504722D02*
D03*
Y498222D02*
D03*
Y491722D02*
D03*
Y485222D02*
D03*
Y478722D02*
D03*
Y472222D02*
D03*
Y459222D02*
D03*
X196390Y465722D02*
D03*
Y472222D02*
D03*
Y478722D02*
D03*
Y485222D02*
D03*
Y491722D02*
D03*
X453610Y504722D02*
D03*
Y498222D02*
D03*
Y491722D02*
D03*
Y485222D02*
D03*
Y478722D02*
D03*
Y472222D02*
D03*
Y459222D02*
D03*
X511009Y465722D02*
D03*
Y472222D02*
D03*
Y478722D02*
D03*
Y485222D02*
D03*
Y491722D02*
D03*
D63*
X471440Y395822D02*
D03*
X228559D02*
D03*
X178559D02*
D03*
X188559D02*
D03*
X198559D02*
D03*
X208559D02*
D03*
X218559D02*
D03*
X421440D02*
D03*
X431440D02*
D03*
X441440D02*
D03*
X451440D02*
D03*
X461440D02*
D03*
D64*
X308500Y619172D02*
D03*
Y602672D02*
D03*
X325000D02*
D03*
X341499D02*
D03*
Y619172D02*
D03*
Y635672D02*
D03*
X325000D02*
D03*
Y619172D02*
D03*
D65*
X265499Y689172D02*
D03*
X274000D02*
D03*
X282500D02*
D03*
X291000D02*
D03*
X299499D02*
D03*
X307999D02*
D03*
X316500D02*
D03*
X325000D02*
D03*
X333499D02*
D03*
X342000D02*
D03*
X350499D02*
D03*
X358999D02*
D03*
X367500D02*
D03*
X375999D02*
D03*
X384500D02*
D03*
X265499Y549172D02*
D03*
X274000D02*
D03*
X282500D02*
D03*
X291000D02*
D03*
X299499D02*
D03*
X307999D02*
D03*
X316500D02*
D03*
X325000D02*
D03*
X333499D02*
D03*
X342000D02*
D03*
X350499D02*
D03*
X358999D02*
D03*
X367500D02*
D03*
X375999D02*
D03*
X384500D02*
D03*
D66*
X395000Y661672D02*
D03*
Y653172D02*
D03*
X255000Y670172D02*
D03*
Y678672D02*
D03*
Y661672D02*
D03*
Y653172D02*
D03*
Y644672D02*
D03*
Y636172D02*
D03*
Y627672D02*
D03*
Y619172D02*
D03*
Y610672D02*
D03*
Y602172D02*
D03*
Y593672D02*
D03*
Y585172D02*
D03*
Y576672D02*
D03*
Y568172D02*
D03*
Y559672D02*
D03*
X395000D02*
D03*
Y568172D02*
D03*
Y576672D02*
D03*
Y585172D02*
D03*
Y593672D02*
D03*
Y602172D02*
D03*
Y610672D02*
D03*
Y619172D02*
D03*
Y627672D02*
D03*
Y636172D02*
D03*
Y644672D02*
D03*
Y670172D02*
D03*
Y678672D02*
D03*
D67*
Y549172D02*
D03*
Y689172D02*
D03*
X255000Y549172D02*
D03*
Y689172D02*
D03*
D68*
X62959Y100622D02*
D03*
X66459Y90222D02*
D03*
X59460D02*
D03*
D69*
X547509Y19722D02*
D03*
Y32422D02*
D03*
Y45122D02*
D03*
Y57822D02*
D03*
X498009D02*
D03*
Y45122D02*
D03*
Y32422D02*
D03*
Y19722D02*
D03*
D70*
X165560Y421072D02*
D03*
X241560D02*
D03*
X408439D02*
D03*
X484440D02*
D03*
D71*
X167689Y481972D02*
D03*
X482309D02*
D03*
D72*
X130829Y32582D02*
D03*
Y11582D02*
D03*
X203829Y32582D02*
D03*
Y11582D02*
D03*
D73*
X106209Y65472D02*
D03*
X19710D02*
D03*
D74*
X106209Y31672D02*
D03*
X19710D02*
D03*
D75*
X17199Y687272D02*
D03*
X286900Y922472D02*
D03*
X632799Y763472D02*
D03*
Y738072D02*
D03*
Y712672D02*
D03*
Y687272D02*
D03*
Y661872D02*
D03*
X312299Y922472D02*
D03*
X337700D02*
D03*
X363100D02*
D03*
X388499D02*
D03*
X17199Y712672D02*
D03*
Y738072D02*
D03*
Y763472D02*
D03*
Y788872D02*
D03*
D76*
X205060Y859461D02*
D03*
X444939Y859462D02*
D03*
Y830662D02*
D03*
X205060Y830661D02*
D03*
D77*
X41490Y606822D02*
D03*
X608509D02*
D03*
X578489D02*
D03*
X71509D02*
D03*
D78*
X523859Y825242D02*
D03*
X502959Y804352D02*
D03*
D79*
X126140Y825242D02*
D03*
X147040Y804352D02*
D03*
D80*
X596009Y63272D02*
D03*
D81*
Y38272D02*
D03*
D82*
X520920Y786392D02*
D03*
X108179Y807282D02*
D03*
X608509Y581422D02*
D03*
X541820Y807282D02*
D03*
X41490Y581422D02*
D03*
X470340Y859462D02*
D03*
X179660Y859461D02*
D03*
X578489Y581422D02*
D03*
X71509D02*
D03*
X470340Y830662D02*
D03*
X179660Y830661D02*
D03*
X129079Y786392D02*
D03*
D83*
X152330Y22082D02*
D03*
X182330D02*
D03*
D84*
X632799Y788872D02*
D03*
X17199Y661872D02*
D03*
D85*
X261500Y922472D02*
D03*
D86*
X20499Y476372D02*
D03*
X629499D02*
D03*
X20499Y117372D02*
D03*
X629499D02*
D03*
D87*
X232560Y643672D02*
D03*
X108259Y792172D02*
D03*
X186059Y666472D02*
D03*
Y643672D02*
D03*
X239060Y691372D02*
D03*
X267360Y614872D02*
D03*
X122360Y447972D02*
D03*
X255060Y532872D02*
D03*
X534851Y793350D02*
D03*
X480820Y848390D02*
D03*
X56659Y573372D02*
D03*
X62759Y112272D02*
D03*
X412739Y87032D02*
D03*
X219960Y543672D02*
D03*
Y537172D02*
D03*
X262829Y53972D02*
D03*
X31360Y519472D02*
D03*
X267746Y409282D02*
D03*
X80160Y519472D02*
D03*
X276153Y409282D02*
D03*
X55760Y519472D02*
D03*
X284559Y409282D02*
D03*
X59710Y445472D02*
D03*
X623660Y519472D02*
D03*
X599259D02*
D03*
X445460Y652772D02*
D03*
X266159Y630372D02*
D03*
X424160Y652922D02*
D03*
X445460Y633872D02*
D03*
X424160D02*
D03*
X530560Y362238D02*
D03*
X536559D02*
D03*
X89660Y728572D02*
D03*
X62359D02*
D03*
X66210Y445472D02*
D03*
X399259Y502872D02*
D03*
X334860D02*
D03*
X378410Y502822D02*
D03*
X356326Y502872D02*
D03*
X320060Y476872D02*
D03*
Y467772D02*
D03*
X198622Y372572D02*
D03*
X174760Y53972D02*
D03*
X527760Y72872D02*
D03*
X218759Y442572D02*
D03*
Y436572D02*
D03*
X366460Y394672D02*
D03*
Y388672D02*
D03*
X332360Y561372D02*
D03*
X325859D02*
D03*
X292560Y570672D02*
D03*
X269060Y576672D02*
D03*
X185560Y537172D02*
D03*
Y543672D02*
D03*
X292560Y580172D02*
D03*
X428359Y87032D02*
D03*
X566460Y552672D02*
D03*
X410960Y480372D02*
D03*
X120020Y501332D02*
D03*
X289459Y658772D02*
D03*
X292560Y591872D02*
D03*
X272959Y623172D02*
D03*
X294960Y642272D02*
D03*
X393559Y950072D02*
D03*
X482399Y723742D02*
D03*
X279259Y664972D02*
D03*
X266560Y677372D02*
D03*
X269060Y585172D02*
D03*
X320260Y53972D02*
D03*
X456359Y562072D02*
D03*
X377840Y53972D02*
D03*
X409679Y568302D02*
D03*
X334689Y672462D02*
D03*
X349370Y519952D02*
D03*
X259340Y409282D02*
D03*
X416810Y506492D02*
D03*
Y494562D02*
D03*
X376009Y526022D02*
D03*
X146910Y521732D02*
D03*
X287869D02*
D03*
X218599Y410412D02*
D03*
X208650D02*
D03*
X367550Y526022D02*
D03*
X409679Y559782D02*
D03*
X461429Y411462D02*
D03*
X451479D02*
D03*
X133619Y542212D02*
D03*
Y521732D02*
D03*
Y531972D02*
D03*
Y552452D02*
D03*
X513209Y552712D02*
D03*
X379850Y604372D02*
D03*
X416600Y855572D02*
D03*
X139389Y719532D02*
D03*
X271239Y855252D02*
D03*
M02*
