G04*
G04 #@! TF.GenerationSoftware,Altium Limited,Altium Designer,23.1.1 (15)*
G04*
G04 Layer_Physical_Order=2*
G04 Layer_Color=32768*
%FSLAX44Y44*%
%MOMM*%
G71*
G04*
G04 #@! TF.SameCoordinates,BDDFE241-78E9-4F8E-813D-FE03931EC528*
G04*
G04*
G04 #@! TF.FilePolarity,Negative*
G04*
G01*
G75*
%ADD109C,1.0160*%
%ADD110O,1.7000X2.9000*%
%ADD111O,2.9000X1.7000*%
G04:AMPARAMS|DCode=112|XSize=2.9mm|YSize=1.7mm|CornerRadius=0mm|HoleSize=0mm|Usage=FLASHONLY|Rotation=32.500|XOffset=0mm|YOffset=0mm|HoleType=Round|Shape=Round|*
%AMOVALD112*
21,1,1.2000,1.7000,0.0000,0.0000,32.5*
1,1,1.7000,-0.5060,-0.3224*
1,1,1.7000,0.5060,0.3224*
%
%ADD112OVALD112*%

G04:AMPARAMS|DCode=113|XSize=2.9mm|YSize=1.7mm|CornerRadius=0mm|HoleSize=0mm|Usage=FLASHONLY|Rotation=147.500|XOffset=0mm|YOffset=0mm|HoleType=Round|Shape=Round|*
%AMOVALD113*
21,1,1.2000,1.7000,0.0000,0.0000,147.5*
1,1,1.7000,0.5060,-0.3224*
1,1,1.7000,-0.5060,0.3224*
%
%ADD113OVALD113*%

%ADD114C,2.9000*%
%ADD115C,1.3000*%
%ADD116C,1.4700*%
G04:AMPARAMS|DCode=117|XSize=2.594mm|YSize=2.594mm|CornerRadius=0mm|HoleSize=0mm|Usage=FLASHONLY|Rotation=0.000|XOffset=0mm|YOffset=0mm|HoleType=Round|Shape=Relief|Width=0.254mm|Gap=0.254mm|Entries=4|*
%AMTHD117*
7,0,0,2.5940,2.0860,0.2540,45*
%
%ADD117THD117*%
G04:AMPARAMS|DCode=118|XSize=1.724mm|YSize=1.724mm|CornerRadius=0mm|HoleSize=0mm|Usage=FLASHONLY|Rotation=0.000|XOffset=0mm|YOffset=0mm|HoleType=Round|Shape=Relief|Width=0.254mm|Gap=0.254mm|Entries=4|*
%AMTHD118*
7,0,0,1.7240,1.2160,0.2540,45*
%
%ADD118THD118*%
G04:AMPARAMS|DCode=119|XSize=2.524mm|YSize=2.524mm|CornerRadius=0mm|HoleSize=0mm|Usage=FLASHONLY|Rotation=0.000|XOffset=0mm|YOffset=0mm|HoleType=Round|Shape=Relief|Width=0.254mm|Gap=0.254mm|Entries=4|*
%AMTHD119*
7,0,0,2.5240,2.0160,0.2540,45*
%
%ADD119THD119*%
%AMTHOVALD120*
21,1,1.5000,2.1240,0,0,90.0*
1,1,2.1240,0.0000,-0.7500*
1,1,2.1240,0.0000,0.7500*
21,0,1.5000,1.6160,0,0,90.0*
1,0,1.6160,0.0000,-0.7500*
1,0,1.6160,0.0000,0.7500*
4,0,4,0.0898,-0.6602,0.8408,-1.4112,0.6611,-1.5908,-0.0898,-0.8398,0.0898,-0.6602,0.0*
4,0,4,0.0898,0.8398,-0.6611,1.5908,-0.8408,1.4112,-0.0898,0.6602,0.0898,0.8398,0.0*
4,0,4,0.0898,-0.8398,-0.6611,-1.5908,-0.8408,-1.4112,-0.0898,-0.6602,0.0898,-0.8398,0.0*
4,0,4,0.0898,0.6602,0.8408,1.4112,0.6611,1.5908,-0.0898,0.8398,0.0898,0.6602,0.0*
%
%ADD120THOVALD120*%

%AMTHOVALD121*
21,1,0.8000,2.1240,0,0,90.0*
1,1,2.1240,0.0000,-0.4000*
1,1,2.1240,0.0000,0.4000*
21,0,0.8000,1.6160,0,0,90.0*
1,0,1.6160,0.0000,-0.4000*
1,0,1.6160,0.0000,0.4000*
4,0,4,0.0898,-0.3102,0.8408,-1.0611,0.6611,-1.2408,-0.0898,-0.4898,0.0898,-0.3102,0.0*
4,0,4,0.0898,0.4898,-0.6611,1.2408,-0.8408,1.0611,-0.0898,0.3102,0.0898,0.4898,0.0*
4,0,4,0.0898,-0.4898,-0.6611,-1.2408,-0.8408,-1.0611,-0.0898,-0.3102,0.0898,-0.4898,0.0*
4,0,4,0.0898,0.3102,0.8408,1.0611,0.6611,1.2408,-0.0898,0.4898,0.0898,0.3102,0.0*
%
%ADD121THOVALD121*%

G04:AMPARAMS|DCode=122|XSize=1.924mm|YSize=1.924mm|CornerRadius=0mm|HoleSize=0mm|Usage=FLASHONLY|Rotation=0.000|XOffset=0mm|YOffset=0mm|HoleType=Round|Shape=Relief|Width=0.254mm|Gap=0.254mm|Entries=4|*
%AMTHD122*
7,0,0,1.9240,1.4160,0.2540,45*
%
%ADD122THD122*%
%ADD123O,20.4000X2.1000*%
%ADD124C,0.8000*%
%ADD125C,1.4000*%
G04:AMPARAMS|DCode=126|XSize=1.824mm|YSize=1.824mm|CornerRadius=0mm|HoleSize=0mm|Usage=FLASHONLY|Rotation=0.000|XOffset=0mm|YOffset=0mm|HoleType=Round|Shape=Relief|Width=0.254mm|Gap=0.254mm|Entries=4|*
%AMTHD126*
7,0,0,1.8240,1.3160,0.2540,45*
%
%ADD126THD126*%
%ADD127C,0.7000*%
G36*
X413000Y746922D02*
X567000D01*
Y696423D01*
X567000Y696422D01*
X413000D01*
Y746922D01*
D02*
G37*
D109*
X980000Y600000D02*
G03*
X0Y600000I-490000J-139459D01*
G01*
Y550000D02*
Y600000D01*
X980000Y550000D02*
Y600000D01*
X830000Y550000D02*
X980000D01*
X830000D02*
X830000Y0D01*
X150000D02*
X830000D01*
X150000Y550000D02*
X150000Y0D01*
X0Y550000D02*
X150000Y550000D01*
D110*
X765500Y606800D02*
D03*
X873500D02*
D03*
X106500D02*
D03*
X214500D02*
D03*
D111*
X664900Y826200D02*
D03*
Y718200D02*
D03*
X315100Y718200D02*
D03*
Y826200D02*
D03*
D112*
X533771Y896595D02*
D03*
X591799Y805508D02*
D03*
D113*
X388201D02*
D03*
X446229Y896595D02*
D03*
D114*
X705000Y158600D02*
D03*
X275000D02*
D03*
X170000Y476370D02*
D03*
Y117370D02*
D03*
X810000Y476370D02*
D03*
Y117370D02*
D03*
D115*
X347330Y22082D02*
D03*
X317330D02*
D03*
D116*
X553500Y945000D02*
D03*
X528100D02*
D03*
X502700D02*
D03*
X477300D02*
D03*
X426500D02*
D03*
X905000Y702000D02*
D03*
Y651200D02*
D03*
Y625800D02*
D03*
Y600400D02*
D03*
Y575000D02*
D03*
X75000Y575000D02*
D03*
Y625800D02*
D03*
Y651200D02*
D03*
Y676600D02*
D03*
Y702000D02*
D03*
D117*
X451900Y945000D02*
D03*
X905000Y676600D02*
D03*
X75000Y600400D02*
D03*
D118*
X485760Y448972D02*
D03*
Y441472D02*
D03*
Y433972D02*
D03*
D119*
X787500Y44350D02*
D03*
D120*
X262810Y58772D02*
D03*
X176310D02*
D03*
D121*
X262810Y24972D02*
D03*
X176310D02*
D03*
D122*
X189810Y55072D02*
D03*
X249310D02*
D03*
Y68572D02*
D03*
X189810D02*
D03*
D123*
X490000Y90100D02*
D03*
Y227100D02*
D03*
D124*
X198310Y55072D02*
D03*
X206810D02*
D03*
X215310D02*
D03*
X223810D02*
D03*
X232310D02*
D03*
X240810D02*
D03*
Y68572D02*
D03*
X232310D02*
D03*
X223810D02*
D03*
X215310D02*
D03*
X206810D02*
D03*
X198310D02*
D03*
D125*
X737500Y44350D02*
D03*
X762500D02*
D03*
D126*
X219360Y112272D02*
D03*
X420100Y489700D02*
D03*
X527400Y623800D02*
D03*
X546100Y418200D02*
D03*
Y430200D02*
D03*
X565600Y457500D02*
D03*
X550900D02*
D03*
X545300Y475100D02*
D03*
X530500D02*
D03*
X515700D02*
D03*
X500900D02*
D03*
X420060Y532872D02*
D03*
X500800Y379200D02*
D03*
X420100Y471638D02*
D03*
X431700Y404300D02*
D03*
X390100Y498500D02*
D03*
Y509300D02*
D03*
X459800Y482600D02*
D03*
X420100Y497900D02*
D03*
Y480800D02*
D03*
Y441804D02*
D03*
Y432201D02*
D03*
Y423200D02*
D03*
X452860Y474342D02*
D03*
Y464174D02*
D03*
Y454882D02*
D03*
Y445919D02*
D03*
Y437267D02*
D03*
X452860Y429072D02*
D03*
X460400Y417600D02*
D03*
X454100Y379200D02*
D03*
X443200D02*
D03*
X432300D02*
D03*
X460465Y404300D02*
D03*
X420100Y414900D02*
D03*
Y404300D02*
D03*
X443300D02*
D03*
X390200Y379200D02*
D03*
X375500D02*
D03*
X404900D02*
D03*
X419600D02*
D03*
X550200Y347300D02*
D03*
X531400Y370700D02*
D03*
X506300Y260600D02*
D03*
X473700D02*
D03*
X448350Y325572D02*
D03*
Y312272D02*
D03*
Y301572D02*
D03*
X531650D02*
D03*
Y312272D02*
D03*
Y289372D02*
D03*
X448350D02*
D03*
X477100Y379200D02*
D03*
X531650Y325572D02*
D03*
X397560Y643672D02*
D03*
X287400Y451200D02*
D03*
X432900Y613200D02*
D03*
D127*
X180700Y524772D02*
D03*
X208000D02*
D03*
X316300Y518700D02*
D03*
X610500Y627700D02*
D03*
X589200D02*
D03*
X673064Y607600D02*
D03*
X357634Y558100D02*
D03*
X383900D02*
D03*
X497360Y561372D02*
D03*
X490860D02*
D03*
X481500D02*
D03*
X833000Y607600D02*
D03*
X622600D02*
D03*
X615900Y563000D02*
D03*
X432600Y426000D02*
D03*
X453800Y408500D02*
D03*
X460500Y369200D02*
D03*
X449311D02*
D03*
X438700D02*
D03*
X425500D02*
D03*
X363700Y361500D02*
D03*
X282100Y556500D02*
D03*
Y550500D02*
D03*
X234250Y540500D02*
D03*
X228250D02*
D03*
X298620Y542212D02*
D03*
X339760Y53972D02*
D03*
X350314Y662722D02*
D03*
X395454Y816894D02*
D03*
X315100Y731700D02*
D03*
X438976Y885209D02*
D03*
X258200Y622000D02*
D03*
X229100Y652200D02*
D03*
X432000Y653300D02*
D03*
X860000Y606800D02*
D03*
X574680Y576800D02*
D03*
X664900Y731700D02*
D03*
X587600Y579200D02*
D03*
X584546Y816894D02*
D03*
X524000Y561372D02*
D03*
X515500D02*
D03*
X539700Y607800D02*
D03*
X201000Y606800D02*
D03*
X446900Y532872D02*
D03*
X581810Y506492D02*
D03*
X434060Y576672D02*
D03*
Y585172D02*
D03*
X444260Y664972D02*
D03*
X432900Y620950D02*
D03*
X676960Y69472D02*
D03*
X590900Y61800D02*
D03*
X542830Y53972D02*
D03*
X485330D02*
D03*
X575160Y61800D02*
D03*
X589160Y652922D02*
D03*
X764260Y524772D02*
D03*
X523200Y526022D02*
D03*
X532105D02*
D03*
X541010D02*
D03*
X280900Y83800D02*
D03*
X288000Y426800D02*
D03*
Y401678D02*
D03*
X679400D02*
D03*
X695500Y353500D02*
D03*
X701500D02*
D03*
X596500Y380100D02*
D03*
X679400Y426800D02*
D03*
X586400Y380100D02*
D03*
X485700Y467800D02*
D03*
X610460Y652772D02*
D03*
X459960Y642272D02*
D03*
X350314Y643672D02*
D03*
X404060Y691372D02*
D03*
X384960Y543672D02*
D03*
Y537172D02*
D03*
X427830Y53972D02*
D03*
X788660Y524772D02*
D03*
X564260Y497172D02*
D03*
X499860D02*
D03*
X543410Y497122D02*
D03*
X521326Y497172D02*
D03*
X383760Y442572D02*
D03*
Y436572D02*
D03*
X531460Y394672D02*
D03*
Y388672D02*
D03*
X457560Y570672D02*
D03*
Y580172D02*
D03*
X581810Y480372D02*
D03*
X285020Y501332D02*
D03*
X454460Y658772D02*
D03*
X457560Y591872D02*
D03*
X431560Y677372D02*
D03*
X574680Y568302D02*
D03*
X499690Y672462D02*
D03*
X581810Y494562D02*
D03*
X452870Y521732D02*
D03*
X383600Y410412D02*
D03*
X373650D02*
D03*
X574680Y559782D02*
D03*
X626430Y410412D02*
D03*
X616480D02*
D03*
X298620Y521732D02*
D03*
Y531972D02*
D03*
M02*
