G04*
G04 #@! TF.GenerationSoftware,Altium Limited,Altium Designer,23.1.1 (15)*
G04*
G04 Layer_Physical_Order=3*
G04 Layer_Color=36540*
%FSLAX44Y44*%
%MOMM*%
G71*
G04*
G04 #@! TF.SameCoordinates,6E2E4CF0-E359-4451-A4CD-7E5F78DB66F6*
G04*
G04*
G04 #@! TF.FilePolarity,Positive*
G04*
G01*
G75*
%ADD71C,0.9000*%
%ADD87C,0.5000*%
%ADD88C,0.1600*%
%ADD91C,0.2703*%
%ADD93C,1.7000*%
%ADD94R,1.0000X1.0000*%
%ADD95R,1.0000X1.0000*%
%ADD96P,1.4142X4X77.5*%
%ADD97P,1.4142X4X192.5*%
%ADD98C,3.0000*%
%ADD99C,1.6050*%
%ADD102C,0.3000*%
%ADD103C,1.5080*%
%ADD104O,0.9000X2.4000*%
%ADD105O,0.9000X1.7000*%
%ADD106C,0.6500*%
%ADD107C,1.0000*%
%ADD109C,0.4500*%
%ADD110C,0.6000*%
G36*
X522934Y969053D02*
X544823Y967161D01*
X566609Y964327D01*
X588253Y960557D01*
X609714Y955857D01*
X630953Y950236D01*
X651930Y943706D01*
X672606Y936277D01*
X692942Y927964D01*
X712901Y918782D01*
X732446Y908748D01*
X751540Y897881D01*
X770148Y886201D01*
X788235Y873730D01*
X805768Y860491D01*
X822714Y846508D01*
X839041Y831808D01*
X854720Y816418D01*
X869721Y800367D01*
X884016Y783683D01*
X897578Y766399D01*
X910383Y748547D01*
X922407Y730159D01*
X933626Y711270D01*
X944021Y691915D01*
X953573Y672130D01*
X962262Y651952D01*
X970074Y631417D01*
X976993Y610565D01*
X980000Y600000D01*
X980000Y550000D01*
X830000D01*
X830000Y0D01*
X150000D01*
X150000Y550000D01*
X0Y550000D01*
Y600000D01*
X0Y600000D01*
X0Y600000D01*
X3007Y610565D01*
X9926Y631417D01*
X17738Y651952D01*
X26427Y672130D01*
X35979Y691915D01*
X46374Y711270D01*
X57593Y730159D01*
X69617Y748547D01*
X82422Y766399D01*
X95984Y783683D01*
X110279Y800367D01*
X125280Y816418D01*
X140958Y831808D01*
X157286Y846508D01*
X174232Y860491D01*
X191765Y873730D01*
X209852Y886201D01*
X228460Y897881D01*
X247554Y908748D01*
X267099Y918782D01*
X287058Y927963D01*
X307394Y936277D01*
X328070Y943706D01*
X349047Y950236D01*
X370286Y955857D01*
X391747Y960557D01*
X413391Y964327D01*
X435177Y967161D01*
X457066Y969053D01*
X479015Y970000D01*
X500985Y970000D01*
X522934Y969053D01*
D02*
G37*
%LPC*%
G36*
X453291Y955565D02*
X453170D01*
Y946270D01*
X462465D01*
Y946391D01*
X461745Y949078D01*
X460354Y951487D01*
X458387Y953454D01*
X455978Y954845D01*
X453291Y955565D01*
D02*
G37*
G36*
X450630D02*
X450509D01*
X447822Y954845D01*
X445413Y953454D01*
X443446Y951487D01*
X442055Y949078D01*
X441335Y946391D01*
Y946270D01*
X450630D01*
Y955565D01*
D02*
G37*
G36*
X427754Y954525D02*
X425246D01*
X422824Y953876D01*
X420652Y952622D01*
X418878Y950849D01*
X417624Y948677D01*
X416975Y946254D01*
Y943746D01*
X417624Y941324D01*
X418878Y939152D01*
X420652Y937378D01*
X422824Y936124D01*
X425246Y935475D01*
X427754D01*
X430177Y936124D01*
X432349Y937378D01*
X434122Y939152D01*
X435376Y941324D01*
X436025Y943746D01*
Y946254D01*
X435376Y948677D01*
X434122Y950849D01*
X432349Y952622D01*
X430177Y953876D01*
X427754Y954525D01*
D02*
G37*
G36*
X462465Y943730D02*
X453170D01*
Y934435D01*
X453291D01*
X455978Y935155D01*
X458387Y936546D01*
X460354Y938513D01*
X461745Y940922D01*
X462465Y943609D01*
Y943730D01*
D02*
G37*
G36*
X450630D02*
X441335D01*
Y943609D01*
X442055Y940922D01*
X443446Y938513D01*
X445413Y936546D01*
X447822Y935155D01*
X450509Y934435D01*
X450630D01*
Y943730D01*
D02*
G37*
G36*
X441521Y907880D02*
X439422Y907696D01*
X437443Y906976D01*
X435718Y905768D01*
X434364Y904154D01*
X433473Y902245D01*
X433108Y900170D01*
X433291Y898072D01*
X434012Y896093D01*
X435220Y894367D01*
X436833Y893013D01*
X446954Y886565D01*
X448863Y885675D01*
X450938Y885310D01*
X453036Y885493D01*
X455015Y886214D01*
X456741Y887422D01*
X458095Y889035D01*
X458985Y890944D01*
X459351Y893019D01*
X459167Y895117D01*
X458447Y897097D01*
X457239Y898822D01*
X455625Y900176D01*
X445504Y906624D01*
X443595Y907514D01*
X441521Y907880D01*
D02*
G37*
G36*
X538479Y907880D02*
X536405Y907514D01*
X534496Y906624D01*
X524375Y900176D01*
X522761Y898822D01*
X521553Y897097D01*
X520833Y895117D01*
X520649Y893019D01*
X521015Y890944D01*
X521905Y889035D01*
X523259Y887422D01*
X524985Y886214D01*
X526964Y885493D01*
X529062Y885309D01*
X531137Y885675D01*
X533046Y886565D01*
X543167Y893013D01*
X544780Y894367D01*
X545989Y896093D01*
X546709Y898072D01*
X546893Y900170D01*
X546527Y902245D01*
X545637Y904154D01*
X544283Y905768D01*
X542557Y906976D01*
X540578Y907696D01*
X538479Y907880D01*
D02*
G37*
G36*
X377210Y833888D02*
X376870Y833821D01*
X376523Y833830D01*
X376097Y833667D01*
X375649Y833578D01*
X375361Y833385D01*
X375037Y833261D01*
X374706Y832947D01*
X374326Y832694D01*
X331965Y790333D01*
X331081Y789009D01*
X330770Y787449D01*
X330770Y787449D01*
Y735779D01*
X315100D01*
X313540Y735468D01*
X312216Y734584D01*
X311332Y733261D01*
X311022Y731700D01*
X311332Y730139D01*
X312216Y728816D01*
X313540Y727932D01*
X315100Y727622D01*
X330770D01*
Y654251D01*
X316136D01*
X315100Y654457D01*
X314065Y654251D01*
X286372D01*
X284812Y653940D01*
X283489Y653056D01*
X283489Y653056D01*
X255316Y624884D01*
X254432Y623561D01*
X254122Y622000D01*
X254432Y620439D01*
X255316Y619116D01*
X256639Y618232D01*
X258200Y617922D01*
X259761Y618232D01*
X261084Y619116D01*
X288062Y646094D01*
X314894D01*
X314894Y646094D01*
X314894Y646094D01*
X345883D01*
X346732Y644824D01*
X346564Y644418D01*
Y642926D01*
X347135Y641548D01*
X348190Y640493D01*
X349568Y639922D01*
X351060D01*
X352438Y640493D01*
X353493Y641548D01*
X354064Y642926D01*
Y644418D01*
X353896Y644824D01*
X354744Y646094D01*
X392235D01*
X392941Y645038D01*
X392901Y644942D01*
X402218D01*
X402179Y645038D01*
X402884Y646094D01*
X404360D01*
X404360Y646094D01*
X405920Y646404D01*
X407243Y647289D01*
X434443Y674489D01*
X434444Y674489D01*
X435327Y675812D01*
X435638Y677372D01*
X435327Y678933D01*
X434444Y680256D01*
X433120Y681140D01*
X431560Y681451D01*
X419749D01*
X406944Y694256D01*
X405620Y695140D01*
X404060Y695451D01*
X402499Y695140D01*
X401176Y694256D01*
X400292Y692933D01*
X399981Y691372D01*
X400292Y689812D01*
X401176Y688489D01*
X415176Y674489D01*
X416499Y673605D01*
X418060Y673294D01*
X418060Y673294D01*
X420054D01*
X420540Y672121D01*
X402670Y654251D01*
X338927D01*
Y731700D01*
Y785759D01*
X377661Y824494D01*
X393098Y813566D01*
X394551Y812917D01*
X396142Y812874D01*
X397628Y813443D01*
X398783Y814538D01*
X399432Y815991D01*
X399474Y817582D01*
X398905Y819068D01*
X397811Y820223D01*
X379567Y833139D01*
X379150Y833325D01*
X378771Y833578D01*
X378430Y833646D01*
X378113Y833787D01*
X377658Y833800D01*
X377210Y833888D01*
D02*
G37*
G36*
X670900Y834269D02*
X658900D01*
X656812Y833994D01*
X654866Y833188D01*
X653195Y831906D01*
X651912Y830235D01*
X651106Y828289D01*
X650831Y826200D01*
X651106Y824112D01*
X651912Y822166D01*
X653195Y820495D01*
X654866Y819212D01*
X656812Y818406D01*
X658900Y818131D01*
X670900D01*
X672989Y818406D01*
X674935Y819212D01*
X676606Y820495D01*
X677888Y822166D01*
X678694Y824112D01*
X678969Y826200D01*
X678694Y828289D01*
X677888Y830235D01*
X676606Y831906D01*
X674935Y833188D01*
X672989Y833994D01*
X670900Y834269D01*
D02*
G37*
G36*
X321100Y834269D02*
X309100D01*
X307012Y833994D01*
X305066Y833188D01*
X303395Y831906D01*
X302112Y830235D01*
X301306Y828288D01*
X301031Y826200D01*
X301306Y824112D01*
X302112Y822166D01*
X303395Y820495D01*
X305066Y819212D01*
X307012Y818406D01*
X309100Y818131D01*
X321100D01*
X323189Y818406D01*
X325135Y819212D01*
X326806Y820495D01*
X328088Y822166D01*
X328894Y824112D01*
X329169Y826200D01*
X328894Y828288D01*
X328088Y830235D01*
X326806Y831906D01*
X325135Y833188D01*
X323189Y833994D01*
X321100Y834269D01*
D02*
G37*
G36*
X596508Y816793D02*
X594433Y816428D01*
X592524Y815537D01*
X582403Y809090D01*
X580790Y807736D01*
X579581Y806010D01*
X578861Y804031D01*
X578677Y801933D01*
X579043Y799858D01*
X579934Y797949D01*
X581287Y796335D01*
X583013Y795127D01*
X584992Y794407D01*
X587091Y794223D01*
X589165Y794589D01*
X591074Y795479D01*
X601195Y801927D01*
X602809Y803281D01*
X604017Y805006D01*
X604737Y806986D01*
X604921Y809084D01*
X604555Y811159D01*
X603665Y813068D01*
X602311Y814681D01*
X600585Y815889D01*
X598606Y816610D01*
X596508Y816793D01*
D02*
G37*
G36*
X383493D02*
X381394Y816610D01*
X379415Y815889D01*
X377689Y814681D01*
X376335Y813068D01*
X375445Y811159D01*
X375079Y809084D01*
X375263Y806986D01*
X375983Y805006D01*
X377192Y803281D01*
X378805Y801927D01*
X388926Y795479D01*
X390835Y794589D01*
X392909Y794223D01*
X395008Y794407D01*
X396987Y795127D01*
X398713Y796335D01*
X400067Y797949D01*
X400957Y799858D01*
X401323Y801933D01*
X401139Y804031D01*
X400419Y806010D01*
X399210Y807736D01*
X397597Y809090D01*
X387476Y815537D01*
X385567Y816428D01*
X383493Y816793D01*
D02*
G37*
G36*
X670900Y726269D02*
X658900D01*
X656812Y725994D01*
X654866Y725188D01*
X653195Y723906D01*
X651912Y722235D01*
X651106Y720289D01*
X650831Y718200D01*
X651106Y716112D01*
X651912Y714166D01*
X653195Y712495D01*
X654866Y711212D01*
X656812Y710406D01*
X658900Y710131D01*
X670900D01*
X672989Y710406D01*
X674935Y711212D01*
X676606Y712495D01*
X677888Y714166D01*
X678694Y716112D01*
X678969Y718200D01*
X678694Y720289D01*
X677888Y722235D01*
X676606Y723906D01*
X674935Y725188D01*
X672989Y725994D01*
X670900Y726269D01*
D02*
G37*
G36*
X321100Y726269D02*
X309100D01*
X307012Y725994D01*
X305066Y725188D01*
X303395Y723906D01*
X302112Y722235D01*
X301306Y720288D01*
X301031Y718200D01*
X301306Y716112D01*
X302112Y714166D01*
X303395Y712495D01*
X305066Y711212D01*
X307012Y710406D01*
X309100Y710131D01*
X321100D01*
X323189Y710406D01*
X325135Y711212D01*
X326806Y712495D01*
X328088Y714166D01*
X328894Y716112D01*
X329169Y718200D01*
X328894Y720288D01*
X328088Y722235D01*
X326806Y723906D01*
X325135Y725188D01*
X323189Y725994D01*
X321100Y726269D01*
D02*
G37*
G36*
X665646Y735450D02*
X664154D01*
X662776Y734879D01*
X661721Y733824D01*
X661150Y732446D01*
Y730954D01*
X661721Y729576D01*
X662776Y728521D01*
X664154Y727950D01*
X665646D01*
X667024Y728521D01*
X667859Y729355D01*
X689875D01*
Y704675D01*
X665750D01*
X664852Y704497D01*
X664091Y703988D01*
X664091Y703988D01*
X663242Y703139D01*
X662734Y702378D01*
X662555Y701481D01*
X662555Y701481D01*
Y581545D01*
X590558D01*
X589724Y582379D01*
X588346Y582950D01*
X586854D01*
X585476Y582379D01*
X584421Y581324D01*
X583850Y579946D01*
Y578454D01*
X584421Y577076D01*
X585476Y576021D01*
X586854Y575450D01*
X588346D01*
X589724Y576021D01*
X590558Y576855D01*
X663963D01*
X663963Y576855D01*
X664860Y577034D01*
X665621Y577542D01*
X666559Y578479D01*
X667067Y579240D01*
X667245Y580137D01*
X667245Y580137D01*
Y699985D01*
X691283D01*
X691283Y699985D01*
X692180Y700164D01*
X692941Y700672D01*
X693878Y701609D01*
X693878Y701609D01*
X694387Y702370D01*
X694565Y703267D01*
Y730763D01*
X694387Y731660D01*
X693878Y732421D01*
X693878Y732421D01*
X692941Y733358D01*
X692180Y733867D01*
X691283Y734045D01*
X691283Y734045D01*
X667859D01*
X667024Y734879D01*
X665646Y735450D01*
D02*
G37*
G36*
X567000Y748546D02*
X413000D01*
X411852Y748071D01*
X411376Y746922D01*
Y696422D01*
X411852Y695274D01*
X413000Y694799D01*
X567000D01*
X568148Y695274D01*
X568623Y696422D01*
Y746922D01*
X568148Y748071D01*
X567000Y748546D01*
D02*
G37*
G36*
X388450Y722558D02*
X370670D01*
X369522Y722083D01*
X369046Y720934D01*
Y694010D01*
X369522Y692862D01*
X370670Y692387D01*
X388450D01*
X389598Y692862D01*
X390073Y694010D01*
Y720934D01*
X389598Y722083D01*
X388450Y722558D01*
D02*
G37*
G36*
X600698Y681448D02*
X600698Y681447D01*
X445198D01*
X445198Y681448D01*
X444301Y681269D01*
X443540Y680761D01*
X443540Y680760D01*
X430342Y667562D01*
X429834Y666802D01*
X429655Y665904D01*
X429655Y665904D01*
Y656258D01*
X428821Y655424D01*
X428250Y654046D01*
Y652554D01*
X428821Y651176D01*
X429876Y650121D01*
X431254Y649550D01*
X432746D01*
X434124Y650121D01*
X435179Y651176D01*
X435750Y652554D01*
Y654046D01*
X435179Y655424D01*
X434345Y656258D01*
Y664933D01*
X446170Y676757D01*
X497022D01*
X497287Y676214D01*
X497411Y675487D01*
X496511Y674587D01*
X495940Y673208D01*
Y671717D01*
X496511Y670338D01*
X497565Y669283D01*
X498944Y668712D01*
X500435D01*
X501814Y669283D01*
X502869Y670338D01*
X503440Y671717D01*
Y673208D01*
X502869Y674587D01*
X501968Y675487D01*
X502093Y676214D01*
X502357Y676757D01*
X599726D01*
X608115Y668369D01*
Y655731D01*
X607281Y654897D01*
X606710Y653518D01*
Y652027D01*
X607281Y650648D01*
X608335Y649593D01*
X609714Y649022D01*
X611205D01*
X612584Y649593D01*
X613639Y650648D01*
X614210Y652027D01*
Y653518D01*
X613639Y654897D01*
X612805Y655731D01*
Y669341D01*
X612805Y669341D01*
X612626Y670238D01*
X612118Y670999D01*
X602356Y680761D01*
X601595Y681269D01*
X600698Y681448D01*
D02*
G37*
G36*
X906391Y687165D02*
X906270D01*
Y677870D01*
X915565D01*
Y677991D01*
X914845Y680678D01*
X913454Y683087D01*
X911487Y685054D01*
X909078Y686445D01*
X906391Y687165D01*
D02*
G37*
G36*
X903730D02*
X903609D01*
X900922Y686445D01*
X898513Y685054D01*
X896546Y683087D01*
X895155Y680678D01*
X894435Y677991D01*
Y677870D01*
X903730D01*
Y687165D01*
D02*
G37*
G36*
X915565Y675330D02*
X906270D01*
Y666035D01*
X906391D01*
X909078Y666755D01*
X911487Y668146D01*
X913454Y670113D01*
X914845Y672522D01*
X915565Y675209D01*
Y675330D01*
D02*
G37*
G36*
X903730D02*
X894435D01*
Y675209D01*
X895155Y672522D01*
X896546Y670113D01*
X898513Y668146D01*
X900922Y666755D01*
X903609Y666035D01*
X903730D01*
Y675330D01*
D02*
G37*
G36*
X445005Y668722D02*
X443514D01*
X442135Y668151D01*
X441081Y667097D01*
X440510Y665718D01*
Y664227D01*
X441081Y662848D01*
X442135Y661793D01*
X443514Y661222D01*
X445005D01*
X446384Y661793D01*
X447439Y662848D01*
X448010Y664227D01*
Y665718D01*
X447439Y667097D01*
X446384Y668151D01*
X445005Y668722D01*
D02*
G37*
G36*
X351060Y666472D02*
X349568D01*
X348190Y665901D01*
X347135Y664847D01*
X346564Y663468D01*
Y661976D01*
X347135Y660598D01*
X348190Y659543D01*
X349568Y658972D01*
X351060D01*
X352438Y659543D01*
X353493Y660598D01*
X354064Y661976D01*
Y663468D01*
X353493Y664847D01*
X352438Y665901D01*
X351060Y666472D01*
D02*
G37*
G36*
X589906Y656672D02*
X588414D01*
X587035Y656101D01*
X585981Y655046D01*
X585410Y653668D01*
Y652176D01*
X585981Y650798D01*
X587035Y649743D01*
X588414Y649172D01*
X589906D01*
X591284Y649743D01*
X592339Y650798D01*
X592910Y652176D01*
Y653668D01*
X592339Y655046D01*
X591284Y656101D01*
X589906Y656672D01*
D02*
G37*
G36*
X572300Y960045D02*
X572300Y960045D01*
X478237D01*
X477340Y959867D01*
X476579Y959358D01*
X476579Y959358D01*
X475642Y958421D01*
X475134Y957660D01*
X474955Y956763D01*
X474955Y956763D01*
Y954233D01*
X473624Y953876D01*
X471452Y952622D01*
X469678Y950849D01*
X468424Y948677D01*
X467775Y946254D01*
Y943746D01*
X468424Y941324D01*
X469678Y939152D01*
X471452Y937378D01*
X473624Y936124D01*
X474955Y935768D01*
Y925771D01*
X471029Y921845D01*
X323600D01*
X322703Y921667D01*
X321942Y921158D01*
X321942Y921158D01*
X125729Y724945D01*
X70510D01*
X70510Y724945D01*
X69612Y724767D01*
X68851Y724258D01*
X55632Y711039D01*
X55124Y710278D01*
X54945Y709381D01*
X54945Y709380D01*
Y635410D01*
X54945Y635410D01*
X55124Y634513D01*
X55632Y633752D01*
X65242Y624142D01*
X65242Y624142D01*
X65658Y623864D01*
X66124Y622123D01*
X67378Y619952D01*
X69152Y618178D01*
X71323Y616924D01*
X73746Y616275D01*
X76254D01*
X78677Y616924D01*
X80849Y618178D01*
X82622Y619952D01*
X83876Y622123D01*
X84233Y623455D01*
X141129D01*
X205655Y558929D01*
Y527731D01*
X204821Y526897D01*
X204250Y525518D01*
Y524026D01*
X204821Y522648D01*
X205876Y521593D01*
X207254Y521022D01*
X208746D01*
X210124Y521593D01*
X211179Y522648D01*
X211750Y524026D01*
Y525518D01*
X211179Y526897D01*
X210345Y527731D01*
Y559900D01*
X210167Y560798D01*
X209658Y561558D01*
X143758Y627458D01*
X142998Y627966D01*
X142100Y628145D01*
X142100Y628145D01*
X92321D01*
X91835Y629318D01*
X125871Y663355D01*
X237355D01*
Y609000D01*
X237355Y609000D01*
X237534Y608103D01*
X238042Y607342D01*
X253422Y591962D01*
X253422Y591962D01*
X254183Y591454D01*
X255080Y591275D01*
X369081D01*
X385341Y575014D01*
X385342Y575014D01*
X386102Y574506D01*
X387000Y574327D01*
X431101D01*
X431935Y573493D01*
X433314Y572922D01*
X434805D01*
X436184Y573493D01*
X437018Y574327D01*
X443322D01*
X443322Y574327D01*
X444220Y574506D01*
X444981Y575014D01*
X445918Y575951D01*
X445918Y575951D01*
X446426Y576712D01*
X446605Y577610D01*
Y596827D01*
X454514D01*
X455411Y597006D01*
X456172Y597514D01*
X456680Y598275D01*
X456858Y599172D01*
X456805Y599443D01*
Y638465D01*
X458075Y638994D01*
X459214Y638522D01*
X460705D01*
X462084Y639093D01*
X463139Y640148D01*
X463710Y641526D01*
Y643018D01*
X463139Y644397D01*
X462084Y645451D01*
X460705Y646022D01*
X459214D01*
X458075Y645551D01*
X456805Y646080D01*
Y655814D01*
X457639Y656648D01*
X458210Y658027D01*
Y659518D01*
X457639Y660897D01*
X456584Y661952D01*
X455205Y662522D01*
X453714D01*
X452335Y661952D01*
X451281Y660897D01*
X450710Y659518D01*
Y658027D01*
X451281Y656648D01*
X452115Y655814D01*
Y601517D01*
X444260D01*
X443362Y601339D01*
X442601Y600831D01*
X442093Y600070D01*
X441915Y599172D01*
Y579017D01*
X437018D01*
X436184Y579851D01*
X435224Y580249D01*
Y581596D01*
X436184Y581993D01*
X437239Y583048D01*
X437810Y584426D01*
Y585918D01*
X437239Y587297D01*
X436184Y588352D01*
X434805Y588922D01*
X433314D01*
X431935Y588352D01*
X431101Y587517D01*
X395031D01*
X374468Y608081D01*
X373707Y608589D01*
X372810Y608768D01*
X372809Y608767D01*
X258449D01*
X250745Y616471D01*
Y678100D01*
X250567Y678997D01*
X250058Y679758D01*
X250058Y679758D01*
X244658Y685158D01*
X243897Y685667D01*
X243000Y685845D01*
X243000Y685845D01*
X124621D01*
X124135Y687019D01*
X346571Y909455D01*
X602599D01*
X685408Y826646D01*
X685408Y826646D01*
X685408Y826646D01*
X887912Y624142D01*
X887912Y624142D01*
X888673Y623634D01*
X889570Y623455D01*
X895768D01*
X896124Y622124D01*
X897378Y619952D01*
X899152Y618178D01*
X901324Y616924D01*
X903746Y616275D01*
X906254D01*
X908677Y616924D01*
X910849Y618178D01*
X912622Y619952D01*
X913876Y622124D01*
X914525Y624546D01*
Y627054D01*
X913876Y629477D01*
X912622Y631649D01*
X910849Y633422D01*
X908677Y634676D01*
X906254Y635325D01*
X903746D01*
X901324Y634676D01*
X899152Y633422D01*
X897378Y631649D01*
X896124Y629477D01*
X895767Y628145D01*
X890542D01*
X688725Y829962D01*
X688724Y829962D01*
X605228Y913458D01*
X604468Y913967D01*
X603570Y914145D01*
X603570Y914145D01*
X505045D01*
Y935768D01*
X506377Y936124D01*
X508549Y937378D01*
X510322Y939152D01*
X511576Y941324D01*
X512225Y943746D01*
Y946254D01*
X511576Y948677D01*
X510322Y950849D01*
X508549Y952622D01*
X506377Y953876D01*
X505596Y954085D01*
X505764Y955355D01*
X525037D01*
X525204Y954085D01*
X524424Y953876D01*
X522252Y952622D01*
X520478Y950849D01*
X519224Y948677D01*
X518575Y946254D01*
Y943746D01*
X519224Y941324D01*
X520478Y939152D01*
X522252Y937378D01*
X524424Y936124D01*
X526846Y935475D01*
X529354D01*
X531777Y936124D01*
X533949Y937378D01*
X535722Y939152D01*
X536976Y941324D01*
X537625Y943746D01*
Y946254D01*
X536976Y948677D01*
X535722Y950849D01*
X533949Y952622D01*
X531777Y953876D01*
X530996Y954085D01*
X531164Y955355D01*
X550437D01*
X550604Y954085D01*
X549824Y953876D01*
X547652Y952622D01*
X545878Y950849D01*
X544624Y948677D01*
X543975Y946254D01*
Y943746D01*
X544624Y941324D01*
X545878Y939152D01*
X547652Y937378D01*
X549824Y936124D01*
X552246Y935475D01*
X554754D01*
X557177Y936124D01*
X559349Y937378D01*
X561122Y939152D01*
X562376Y941324D01*
X563025Y943746D01*
Y946254D01*
X562376Y948677D01*
X561122Y950849D01*
X559349Y952622D01*
X557177Y953876D01*
X556396Y954085D01*
X556564Y955355D01*
X571329D01*
X877142Y649542D01*
X877142Y649542D01*
X877903Y649034D01*
X878800Y648855D01*
X878800Y648855D01*
X895768D01*
X896124Y647524D01*
X897378Y645352D01*
X899152Y643578D01*
X901324Y642324D01*
X903746Y641675D01*
X906254D01*
X908677Y642324D01*
X910849Y643578D01*
X912622Y645352D01*
X913876Y647524D01*
X914525Y649946D01*
Y652454D01*
X913876Y654877D01*
X912622Y657049D01*
X910849Y658822D01*
X908677Y660076D01*
X906254Y660725D01*
X903746D01*
X901324Y660076D01*
X899152Y658822D01*
X897378Y657049D01*
X896124Y654877D01*
X895767Y653545D01*
X879771D01*
X573958Y959358D01*
X573198Y959867D01*
X572300Y960045D01*
D02*
G37*
G36*
X402218Y642402D02*
X398830D01*
Y639014D01*
X400273Y639612D01*
X401620Y640959D01*
X402218Y642402D01*
D02*
G37*
G36*
X396290D02*
X392901D01*
X393499Y640959D01*
X394846Y639612D01*
X396290Y639014D01*
Y642402D01*
D02*
G37*
G36*
X528670Y628459D02*
Y625070D01*
X532059D01*
X531461Y626513D01*
X530113Y627861D01*
X528670Y628459D01*
D02*
G37*
G36*
X526130D02*
X524687Y627861D01*
X523339Y626513D01*
X522742Y625070D01*
X526130D01*
Y628459D01*
D02*
G37*
G36*
X611246Y631450D02*
X609754D01*
X608376Y630879D01*
X607321Y629824D01*
X606750Y628446D01*
Y626954D01*
X607321Y625576D01*
X608376Y624521D01*
X609754Y623950D01*
X611246D01*
X612624Y624521D01*
X613679Y625576D01*
X614250Y626954D01*
Y628446D01*
X613679Y629824D01*
X612624Y630879D01*
X611246Y631450D01*
D02*
G37*
G36*
X589946D02*
X588454D01*
X587076Y630879D01*
X586021Y629824D01*
X585450Y628446D01*
Y626954D01*
X586021Y625576D01*
X587076Y624521D01*
X588454Y623950D01*
X589946D01*
X591324Y624521D01*
X592379Y625576D01*
X592950Y626954D01*
Y628446D01*
X592379Y629824D01*
X591324Y630879D01*
X589946Y631450D01*
D02*
G37*
G36*
X532059Y622530D02*
X528670D01*
Y619142D01*
X530113Y619739D01*
X531461Y621087D01*
X532059Y622530D01*
D02*
G37*
G36*
X526130D02*
X522742D01*
X523339Y621087D01*
X524687Y619739D01*
X526130Y619142D01*
Y622530D01*
D02*
G37*
G36*
X433646Y624700D02*
X432154D01*
X430776Y624129D01*
X429721Y623074D01*
X429150Y621696D01*
Y620204D01*
X429721Y618826D01*
X429992Y618555D01*
X430187Y617261D01*
X428839Y615913D01*
X428242Y614470D01*
X437559D01*
X436961Y615913D01*
X435613Y617261D01*
X435808Y618555D01*
X436079Y618826D01*
X436650Y620204D01*
Y621696D01*
X436079Y623074D01*
X435024Y624129D01*
X433646Y624700D01*
D02*
G37*
G36*
X437559Y611930D02*
X434170D01*
Y608542D01*
X435613Y609139D01*
X436961Y610487D01*
X437559Y611930D01*
D02*
G37*
G36*
X431630D02*
X428242D01*
X428839Y610487D01*
X430187Y609139D01*
X431630Y608542D01*
Y611930D01*
D02*
G37*
G36*
X540446Y611550D02*
X538954D01*
X537576Y610979D01*
X536521Y609924D01*
X535950Y608546D01*
Y607054D01*
X536521Y605676D01*
X537576Y604621D01*
X538954Y604050D01*
X540446D01*
X541824Y604621D01*
X542879Y605676D01*
X543450Y607054D01*
Y608546D01*
X542879Y609924D01*
X541824Y610979D01*
X540446Y611550D01*
D02*
G37*
G36*
X833746Y611350D02*
X832254D01*
X830876Y610779D01*
X829821Y609724D01*
X829250Y608346D01*
Y606854D01*
X829821Y605476D01*
X830876Y604421D01*
X832254Y603850D01*
X833746D01*
X835124Y604421D01*
X836179Y605476D01*
X836750Y606854D01*
Y608346D01*
X836179Y609724D01*
X835124Y610779D01*
X833746Y611350D01*
D02*
G37*
G36*
X673810D02*
X672318D01*
X670940Y610779D01*
X669885Y609724D01*
X669314Y608346D01*
Y606854D01*
X669885Y605476D01*
X670940Y604421D01*
X672318Y603850D01*
X673810D01*
X675188Y604421D01*
X676243Y605476D01*
X676814Y606854D01*
Y608346D01*
X676243Y609724D01*
X675188Y610779D01*
X673810Y611350D01*
D02*
G37*
G36*
X623346D02*
X621854D01*
X620476Y610779D01*
X619421Y609724D01*
X618850Y608346D01*
Y606854D01*
X619421Y605476D01*
X620476Y604421D01*
X621854Y603850D01*
X623346D01*
X624724Y604421D01*
X625779Y605476D01*
X626350Y606854D01*
Y608346D01*
X625779Y609724D01*
X624724Y610779D01*
X623346Y611350D01*
D02*
G37*
G36*
X76391Y610965D02*
X76270D01*
Y601670D01*
X85565D01*
Y601791D01*
X84845Y604478D01*
X83454Y606887D01*
X81487Y608854D01*
X79078Y610245D01*
X76391Y610965D01*
D02*
G37*
G36*
X73730D02*
X73609D01*
X70922Y610245D01*
X68513Y608854D01*
X66546Y606887D01*
X65155Y604478D01*
X64435Y601791D01*
Y601670D01*
X73730D01*
Y610965D01*
D02*
G37*
G36*
X873500Y620869D02*
X871412Y620594D01*
X869466Y619788D01*
X867794Y618506D01*
X866512Y616835D01*
X865706Y614889D01*
X865431Y612800D01*
Y600800D01*
X865706Y598712D01*
X866512Y596766D01*
X867794Y595095D01*
X869466Y593812D01*
X871412Y593006D01*
X873500Y592731D01*
X875589Y593006D01*
X877535Y593812D01*
X879206Y595095D01*
X880488Y596766D01*
X881294Y598712D01*
X881569Y600800D01*
Y612800D01*
X881294Y614889D01*
X880488Y616835D01*
X879206Y618506D01*
X877535Y619788D01*
X875589Y620594D01*
X873500Y620869D01*
D02*
G37*
G36*
X765500D02*
X763412Y620594D01*
X761466Y619788D01*
X759794Y618506D01*
X758512Y616835D01*
X757706Y614889D01*
X757431Y612800D01*
Y600800D01*
X757706Y598712D01*
X758512Y596766D01*
X759794Y595095D01*
X761466Y593812D01*
X763412Y593006D01*
X765500Y592731D01*
X767589Y593006D01*
X769535Y593812D01*
X771206Y595095D01*
X772488Y596766D01*
X773294Y598712D01*
X773569Y600800D01*
Y612800D01*
X773294Y614889D01*
X772488Y616835D01*
X771206Y618506D01*
X769535Y619788D01*
X767589Y620594D01*
X765500Y620869D01*
D02*
G37*
G36*
X214500D02*
X212412Y620594D01*
X210466Y619788D01*
X208794Y618506D01*
X207512Y616835D01*
X206706Y614889D01*
X206431Y612800D01*
Y600800D01*
X206706Y598712D01*
X207512Y596766D01*
X208794Y595095D01*
X210466Y593812D01*
X212412Y593006D01*
X214500Y592731D01*
X216588Y593006D01*
X218535Y593812D01*
X220206Y595095D01*
X221488Y596766D01*
X222294Y598712D01*
X222569Y600800D01*
Y612800D01*
X222294Y614889D01*
X221488Y616835D01*
X220206Y618506D01*
X218535Y619788D01*
X216588Y620594D01*
X214500Y620869D01*
D02*
G37*
G36*
X106500D02*
X104412Y620594D01*
X102466Y619788D01*
X100794Y618506D01*
X99512Y616835D01*
X98706Y614889D01*
X98431Y612800D01*
Y600800D01*
X98706Y598712D01*
X99512Y596766D01*
X100794Y595095D01*
X102466Y593812D01*
X104412Y593006D01*
X106500Y592731D01*
X108588Y593006D01*
X110535Y593812D01*
X112206Y595095D01*
X113488Y596766D01*
X114294Y598712D01*
X114569Y600800D01*
Y612800D01*
X114294Y614889D01*
X113488Y616835D01*
X112206Y618506D01*
X110535Y619788D01*
X108588Y620594D01*
X106500Y620869D01*
D02*
G37*
G36*
X906254Y609925D02*
X903746D01*
X901324Y609276D01*
X899152Y608022D01*
X897378Y606249D01*
X896124Y604077D01*
X895475Y601654D01*
Y599146D01*
X896124Y596724D01*
X897378Y594552D01*
X899152Y592778D01*
X901324Y591524D01*
X903746Y590875D01*
X906254D01*
X908677Y591524D01*
X910849Y592778D01*
X912622Y594552D01*
X913876Y596724D01*
X914525Y599146D01*
Y601654D01*
X913876Y604077D01*
X912622Y606249D01*
X910849Y608022D01*
X908677Y609276D01*
X906254Y609925D01*
D02*
G37*
G36*
X85565Y599130D02*
X76270D01*
Y589835D01*
X76391D01*
X79078Y590555D01*
X81487Y591946D01*
X83454Y593913D01*
X84845Y596322D01*
X85565Y599009D01*
Y599130D01*
D02*
G37*
G36*
X73730D02*
X64435D01*
Y599009D01*
X65155Y596322D01*
X66546Y593913D01*
X68513Y591946D01*
X70922Y590555D01*
X73609Y589835D01*
X73730D01*
Y599130D01*
D02*
G37*
G36*
X458306Y595622D02*
X456814D01*
X455435Y595051D01*
X454380Y593997D01*
X453810Y592618D01*
Y591127D01*
X454380Y589748D01*
X455435Y588693D01*
X456814Y588122D01*
X458306D01*
X459684Y588693D01*
X460739Y589748D01*
X461310Y591127D01*
Y592618D01*
X460739Y593997D01*
X459684Y595051D01*
X458306Y595622D01*
D02*
G37*
G36*
X439722Y888959D02*
X438230D01*
X436852Y888388D01*
X435797Y887333D01*
X435226Y885955D01*
Y884463D01*
X435797Y883085D01*
X436852Y882030D01*
X438230Y881459D01*
X439409D01*
X628755Y692113D01*
Y599045D01*
X550827D01*
X549930Y598867D01*
X549169Y598358D01*
X549169Y598358D01*
X515933Y565122D01*
X514754D01*
X513375Y564551D01*
X512321Y563497D01*
X511750Y562118D01*
Y560626D01*
X512321Y559248D01*
X513375Y558193D01*
X514754Y557622D01*
X516245D01*
X517624Y558193D01*
X518679Y559248D01*
X519076Y560208D01*
X520423D01*
X520821Y559248D01*
X521875Y558193D01*
X523254Y557622D01*
X524745D01*
X526124Y558193D01*
X527179Y559248D01*
X527750Y560626D01*
Y561806D01*
X552899Y586955D01*
X647063D01*
X647063Y586955D01*
X647960Y587134D01*
X648721Y587642D01*
X649658Y588579D01*
X649658Y588579D01*
X650167Y589340D01*
X650345Y590237D01*
Y700640D01*
X650345Y700640D01*
X650167Y701537D01*
X649658Y702298D01*
X619645Y732311D01*
Y820343D01*
X619467Y821240D01*
X618958Y822001D01*
X618958Y822001D01*
X618021Y822938D01*
X617260Y823447D01*
X616363Y823625D01*
X616363Y823625D01*
X588932D01*
X588932Y823625D01*
X588034Y823447D01*
X587273Y822938D01*
X587273Y822938D01*
X584979Y820644D01*
X583800D01*
X582421Y820073D01*
X581367Y819018D01*
X580796Y817640D01*
Y816148D01*
X581367Y814770D01*
X582421Y813715D01*
X583800Y813144D01*
X585292D01*
X586670Y813715D01*
X587725Y814770D01*
X588296Y816148D01*
Y817328D01*
X589903Y818935D01*
X614955D01*
Y731340D01*
X614955Y731340D01*
X615134Y730443D01*
X615642Y729682D01*
X645655Y699669D01*
Y591645D01*
X551927D01*
X551927Y591645D01*
X551030Y591467D01*
X550269Y590958D01*
X525355Y566044D01*
X525296Y566056D01*
X524878Y567434D01*
X551799Y594355D01*
X630163D01*
X630163Y594355D01*
X631060Y594534D01*
X631821Y595042D01*
X632758Y595979D01*
X632758Y595979D01*
X633267Y596740D01*
X633445Y597637D01*
Y693084D01*
X633267Y693982D01*
X632758Y694743D01*
X442726Y884775D01*
Y885955D01*
X442155Y887333D01*
X441100Y888388D01*
X439722Y888959D01*
D02*
G37*
G36*
X458306Y583922D02*
X456814D01*
X455435Y583352D01*
X454380Y582297D01*
X453810Y580918D01*
Y579426D01*
X454380Y578048D01*
X455435Y576993D01*
X456814Y576422D01*
X458306D01*
X459684Y576993D01*
X460739Y578048D01*
X461310Y579426D01*
Y580918D01*
X460739Y582297D01*
X459684Y583352D01*
X458306Y583922D01*
D02*
G37*
G36*
X860746Y610550D02*
X859254D01*
X857876Y609979D01*
X856821Y608924D01*
X856250Y607546D01*
Y606367D01*
X824029Y574145D01*
X580651D01*
X578430Y576367D01*
Y577546D01*
X577859Y578924D01*
X576804Y579979D01*
X575425Y580550D01*
X573934D01*
X572555Y579979D01*
X571501Y578924D01*
X570930Y577546D01*
Y576054D01*
X571501Y574676D01*
X572555Y573621D01*
X573510Y573226D01*
Y571877D01*
X572555Y571482D01*
X571721Y570647D01*
X553890D01*
X553890Y570648D01*
X552992Y570469D01*
X552231Y569961D01*
X552231Y569961D01*
X545855Y563585D01*
X545347Y562824D01*
X545168Y561926D01*
X545168Y561926D01*
Y529696D01*
X543899Y529083D01*
X543355Y529515D01*
Y530978D01*
X543176Y531876D01*
X542668Y532637D01*
X542668Y532637D01*
X540410Y534894D01*
X539650Y535402D01*
X538752Y535581D01*
X538752Y535581D01*
X500797D01*
X499899Y535402D01*
X499139Y534894D01*
X499139Y534894D01*
X498201Y533957D01*
X497693Y533196D01*
X497514Y532299D01*
X497515Y532299D01*
Y500131D01*
X496681Y499296D01*
X496110Y497918D01*
Y496426D01*
X496681Y495048D01*
X497735Y493993D01*
X497924Y493915D01*
X497671Y492645D01*
X474309D01*
X457586Y509369D01*
X456825Y509877D01*
X455927Y510056D01*
X455927Y510055D01*
X407248D01*
X406350Y509877D01*
X405589Y509369D01*
X405589Y509369D01*
X404652Y508431D01*
X404144Y507671D01*
X403965Y506773D01*
X403965Y506773D01*
Y492645D01*
X391801D01*
X391548Y493915D01*
X392813Y494439D01*
X394161Y495787D01*
X394759Y497230D01*
X385442D01*
X386039Y495787D01*
X387387Y494439D01*
X388652Y493915D01*
X388400Y492645D01*
X361597D01*
Y529022D01*
X361419Y529920D01*
X360910Y530681D01*
X360149Y531189D01*
X359252Y531367D01*
X311602D01*
X310705Y531189D01*
X309944Y530681D01*
X306252Y526988D01*
X305744Y526227D01*
X305565Y525330D01*
X305565Y525330D01*
Y513644D01*
X295598Y503677D01*
X287978D01*
X287144Y504511D01*
X285765Y505082D01*
X284274D01*
X282895Y504511D01*
X281841Y503457D01*
X281270Y502078D01*
Y500587D01*
X281841Y499208D01*
X282895Y498153D01*
X284274Y497582D01*
X285765D01*
X287144Y498153D01*
X287978Y498987D01*
X296569D01*
X296570Y498987D01*
X297467Y499166D01*
X298228Y499674D01*
X309568Y511015D01*
X310077Y511776D01*
X310255Y512673D01*
X310255Y512673D01*
Y524359D01*
X312574Y526677D01*
X356907D01*
Y491548D01*
X356907Y491548D01*
X357085Y490651D01*
X357594Y489890D01*
X358842Y488642D01*
X358842Y488642D01*
X359603Y488134D01*
X360500Y487955D01*
X406310D01*
X407208Y488134D01*
X407969Y488642D01*
X408477Y489403D01*
X408655Y490300D01*
Y505365D01*
X454956D01*
X471679Y488642D01*
X471679Y488642D01*
X472440Y488134D01*
X473338Y487955D01*
X473338Y487955D01*
X565617D01*
X565617Y487955D01*
X566515Y488134D01*
X567276Y488642D01*
X581376Y502742D01*
X582556D01*
X583934Y503313D01*
X584989Y504368D01*
X585560Y505746D01*
Y507238D01*
X584989Y508617D01*
X583934Y509671D01*
X582556Y510242D01*
X581064D01*
X579685Y509671D01*
X578630Y508617D01*
X578295Y507806D01*
X577025Y508058D01*
Y556824D01*
X577859Y557658D01*
X578430Y559036D01*
Y560528D01*
X577859Y561907D01*
X576804Y562962D01*
X575796Y563379D01*
Y564706D01*
X576804Y565123D01*
X577859Y566178D01*
X578430Y567556D01*
Y568458D01*
X579437Y569411D01*
X579603Y569470D01*
X579680Y569455D01*
X579680Y569455D01*
X825000D01*
X825000Y569455D01*
X825897Y569634D01*
X826658Y570142D01*
X859566Y603050D01*
X860746D01*
X862124Y603621D01*
X863179Y604676D01*
X863750Y606054D01*
Y607546D01*
X863179Y608924D01*
X862124Y609979D01*
X860746Y610550D01*
D02*
G37*
G36*
X906254Y584525D02*
X903746D01*
X901324Y583876D01*
X899152Y582622D01*
X897378Y580849D01*
X896124Y578677D01*
X895475Y576254D01*
Y573746D01*
X896124Y571324D01*
X897378Y569152D01*
X899152Y567378D01*
X901324Y566124D01*
X903746Y565475D01*
X906254D01*
X908677Y566124D01*
X910849Y567378D01*
X912622Y569152D01*
X913876Y571324D01*
X914525Y573746D01*
Y576254D01*
X913876Y578677D01*
X912622Y580849D01*
X910849Y582622D01*
X908677Y583876D01*
X906254Y584525D01*
D02*
G37*
G36*
X76254Y584525D02*
X73746D01*
X71323Y583876D01*
X69152Y582622D01*
X67378Y580849D01*
X66124Y578677D01*
X65475Y576254D01*
Y573746D01*
X66124Y571324D01*
X67378Y569152D01*
X69152Y567378D01*
X71323Y566124D01*
X73746Y565475D01*
X76254D01*
X78677Y566124D01*
X80849Y567378D01*
X82622Y569152D01*
X83876Y571324D01*
X84525Y573746D01*
Y576254D01*
X83876Y578677D01*
X82622Y580849D01*
X80849Y582622D01*
X78677Y583876D01*
X76254Y584525D01*
D02*
G37*
G36*
X906254Y711525D02*
X903746D01*
X901324Y710876D01*
X899152Y709622D01*
X897378Y707849D01*
X896124Y705677D01*
X895475Y703254D01*
Y700746D01*
X896124Y698324D01*
X897378Y696152D01*
X899152Y694378D01*
X901324Y693124D01*
X903746Y692475D01*
X906254D01*
X908677Y693124D01*
X910849Y694378D01*
X912622Y696152D01*
X912671Y696237D01*
X920022D01*
X920562Y695697D01*
Y571444D01*
X912797Y563679D01*
X738788D01*
X738787Y563679D01*
X737227Y563368D01*
X735903Y562484D01*
X735903Y562484D01*
X657870Y484451D01*
X575960D01*
X575960Y484451D01*
X574399Y484140D01*
X573076Y483256D01*
X561670Y471851D01*
X550484D01*
X549665Y473121D01*
X549959Y473830D01*
X540642D01*
X540935Y473121D01*
X540116Y471851D01*
X535684D01*
X534865Y473121D01*
X535159Y473830D01*
X525841D01*
X526135Y473121D01*
X525316Y471851D01*
X520884D01*
X520065Y473121D01*
X520359Y473830D01*
X511041D01*
X511335Y473121D01*
X510516Y471851D01*
X506084D01*
X505265Y473121D01*
X505559Y473830D01*
X496241D01*
X496535Y473121D01*
X495716Y471851D01*
X485840D01*
X485700Y471879D01*
X484139Y471568D01*
X482816Y470684D01*
X481932Y469361D01*
X481622Y467800D01*
X481932Y466239D01*
X482816Y464916D01*
X482844Y464889D01*
X482844Y464889D01*
X484167Y464005D01*
X485728Y463694D01*
X546661D01*
X547147Y462521D01*
X547139Y462513D01*
X546541Y461070D01*
X555859D01*
X555261Y462513D01*
X555254Y462521D01*
X555740Y463694D01*
X563359D01*
X563360Y463694D01*
X564920Y464005D01*
X566243Y464889D01*
X577649Y476294D01*
X659559D01*
X659560Y476294D01*
X661120Y476604D01*
X662443Y477489D01*
X740477Y555522D01*
X784581D01*
Y524772D01*
X784892Y523212D01*
X785776Y521889D01*
X787099Y521004D01*
X788660Y520694D01*
X790220Y521004D01*
X791544Y521889D01*
X792428Y523212D01*
X792738Y524772D01*
Y555522D01*
X914486D01*
X914486Y555522D01*
X916047Y555832D01*
X917370Y556716D01*
X927524Y566870D01*
X927524Y566870D01*
X928408Y568194D01*
X928718Y569754D01*
X928718Y569754D01*
Y697387D01*
X928408Y698947D01*
X927524Y700270D01*
X927524Y700271D01*
X924595Y703199D01*
X923272Y704084D01*
X921711Y704394D01*
X921711Y704394D01*
X914220D01*
X913876Y705677D01*
X912622Y707849D01*
X910849Y709622D01*
X908677Y710876D01*
X906254Y711525D01*
D02*
G37*
G36*
X616646Y566750D02*
X615154D01*
X613776Y566179D01*
X612721Y565124D01*
X612150Y563746D01*
Y562254D01*
X612721Y560876D01*
X613776Y559821D01*
X615154Y559250D01*
X616646D01*
X618024Y559821D01*
X619079Y560876D01*
X619650Y562254D01*
Y563746D01*
X619079Y565124D01*
X618024Y566179D01*
X616646Y566750D01*
D02*
G37*
G36*
X358380Y561850D02*
X356888D01*
X355510Y561279D01*
X354455Y560224D01*
X353884Y558846D01*
Y557354D01*
X354455Y555976D01*
X355510Y554921D01*
X356888Y554350D01*
X358380D01*
X359758Y554921D01*
X360813Y555976D01*
X361384Y557354D01*
Y558846D01*
X360813Y560224D01*
X359758Y561279D01*
X358380Y561850D01*
D02*
G37*
G36*
X282846Y560250D02*
X281354D01*
X279976Y559679D01*
X279072Y558775D01*
X236655D01*
X235543Y558554D01*
X234599Y557923D01*
X226538Y549862D01*
X225908Y548919D01*
X225687Y547806D01*
Y543240D01*
X225071Y542624D01*
X224500Y541246D01*
Y539754D01*
X225071Y538376D01*
X226126Y537321D01*
X227504Y536750D01*
X228996D01*
X230374Y537321D01*
X231250Y538197D01*
X232126Y537321D01*
X233504Y536750D01*
X234996D01*
X236374Y537321D01*
X237429Y538376D01*
X238000Y539754D01*
Y541246D01*
X237429Y542624D01*
X236374Y543679D01*
X236505Y544910D01*
X239821Y548225D01*
X279072D01*
X279976Y547321D01*
X281354Y546750D01*
X282846D01*
X284224Y547321D01*
X285279Y548376D01*
X285850Y549754D01*
Y551246D01*
X285279Y552624D01*
X284403Y553500D01*
X285279Y554376D01*
X285850Y555754D01*
Y557246D01*
X285279Y558624D01*
X284224Y559679D01*
X282846Y560250D01*
D02*
G37*
G36*
X299366Y545962D02*
X297874D01*
X296495Y545391D01*
X295441Y544337D01*
X294870Y542958D01*
Y541466D01*
X295441Y540088D01*
X296495Y539033D01*
X297874Y538462D01*
X299366D01*
X300744Y539033D01*
X301799Y540088D01*
X302370Y541466D01*
Y542958D01*
X301799Y544337D01*
X300744Y545391D01*
X299366Y545962D01*
D02*
G37*
G36*
X421330Y537531D02*
Y534142D01*
X424718D01*
X424120Y535586D01*
X422773Y536933D01*
X421330Y537531D01*
D02*
G37*
G36*
X299366Y535722D02*
X297874D01*
X296495Y535151D01*
X295441Y534097D01*
X294870Y532718D01*
Y531227D01*
X295441Y529848D01*
X296495Y528793D01*
X297874Y528222D01*
X299366D01*
X300744Y528793D01*
X301799Y529848D01*
X302370Y531227D01*
Y532718D01*
X301799Y534097D01*
X300744Y535151D01*
X299366Y535722D01*
D02*
G37*
G36*
X765005Y528522D02*
X763514D01*
X762135Y527952D01*
X761080Y526897D01*
X760510Y525518D01*
Y524026D01*
X761080Y522648D01*
X762135Y521593D01*
X763514Y521022D01*
X765005D01*
X766384Y521593D01*
X767439Y522648D01*
X768010Y524026D01*
Y525518D01*
X767439Y526897D01*
X766384Y527952D01*
X765005Y528522D01*
D02*
G37*
G36*
X181446D02*
X179954D01*
X178576Y527952D01*
X177521Y526897D01*
X176950Y525518D01*
Y524026D01*
X177521Y522648D01*
X178576Y521593D01*
X179954Y521022D01*
X181446D01*
X182824Y521593D01*
X183879Y522648D01*
X184450Y524026D01*
Y525518D01*
X183879Y526897D01*
X182824Y527952D01*
X181446Y528522D01*
D02*
G37*
G36*
X453615Y525482D02*
X452124D01*
X450745Y524911D01*
X449691Y523857D01*
X449120Y522478D01*
Y520987D01*
X449691Y519608D01*
X450745Y518553D01*
X452124Y517982D01*
X453615D01*
X454994Y518553D01*
X456049Y519608D01*
X456620Y520987D01*
Y522478D01*
X456049Y523857D01*
X454994Y524911D01*
X453615Y525482D01*
D02*
G37*
G36*
X299366D02*
X297874D01*
X296495Y524911D01*
X295441Y523857D01*
X294870Y522478D01*
Y520987D01*
X295441Y519608D01*
X296495Y518553D01*
X297874Y517982D01*
X299366D01*
X300744Y518553D01*
X301799Y519608D01*
X302370Y520987D01*
Y522478D01*
X301799Y523857D01*
X300744Y524911D01*
X299366Y525482D01*
D02*
G37*
G36*
X229846Y655950D02*
X228354D01*
X226976Y655379D01*
X225921Y654324D01*
X225350Y652946D01*
Y651454D01*
X225921Y650076D01*
X226755Y649242D01*
Y599600D01*
X226755Y599600D01*
X226934Y598703D01*
X227442Y597942D01*
X246072Y579312D01*
X246072Y579312D01*
X246833Y578804D01*
X247730Y578625D01*
X247730Y578625D01*
X363359D01*
X374655Y567329D01*
Y525437D01*
X374833Y524540D01*
X375342Y523779D01*
X375342Y523779D01*
X376279Y522842D01*
X376279Y522842D01*
X377040Y522334D01*
X377937Y522155D01*
X430952D01*
X430952Y522155D01*
X431100Y522184D01*
X431725Y521014D01*
X428657Y517945D01*
X370471D01*
Y559800D01*
X370293Y560698D01*
X369784Y561458D01*
X369784Y561458D01*
X360316Y570927D01*
X359555Y571435D01*
X358657Y571614D01*
X358657Y571614D01*
X221583D01*
X203345Y589851D01*
Y603842D01*
X204179Y604676D01*
X204750Y606054D01*
Y607546D01*
X204179Y608924D01*
X203124Y609979D01*
X201746Y610550D01*
X200254D01*
X198876Y609979D01*
X197821Y608924D01*
X197250Y607546D01*
Y606054D01*
X197821Y604676D01*
X198655Y603842D01*
Y588880D01*
X198655Y588880D01*
X198834Y587983D01*
X199342Y587222D01*
X218953Y567611D01*
X218953Y567611D01*
X219714Y567102D01*
X220611Y566924D01*
X220612Y566924D01*
X357686D01*
X365781Y558829D01*
Y516538D01*
X365781Y516537D01*
X365960Y515640D01*
X366468Y514879D01*
X367405Y513942D01*
X367405Y513942D01*
X368166Y513434D01*
X369063Y513255D01*
X385622D01*
X386108Y512082D01*
X386039Y512013D01*
X385442Y510570D01*
X394759D01*
X394161Y512013D01*
X394092Y512082D01*
X394579Y513255D01*
X429628D01*
X429628Y513255D01*
X430525Y513434D01*
X431286Y513942D01*
X446466Y529122D01*
X447646D01*
X449024Y529693D01*
X450079Y530748D01*
X450650Y532127D01*
Y533618D01*
X450079Y534997D01*
X449024Y536051D01*
X448028Y536464D01*
X447564Y537796D01*
X453723Y543955D01*
X466427D01*
X466427Y543955D01*
X467325Y544134D01*
X468086Y544642D01*
X481066Y557622D01*
X482245D01*
X483624Y558193D01*
X484679Y559248D01*
X485250Y560626D01*
Y562118D01*
X484679Y563497D01*
X483624Y564551D01*
X482245Y565122D01*
X480754D01*
X479375Y564551D01*
X478321Y563497D01*
X477750Y562118D01*
Y560939D01*
X465456Y548645D01*
X457212D01*
X456726Y549818D01*
X475966Y569058D01*
X485579D01*
X488835Y565802D01*
Y564771D01*
X488593Y564409D01*
X487681Y563497D01*
X487110Y562118D01*
Y560626D01*
X487681Y559248D01*
X488736Y558193D01*
X490114Y557622D01*
X491606D01*
X492984Y558193D01*
X493280Y558489D01*
X494110Y559188D01*
X494939Y558489D01*
X495235Y558193D01*
X496614Y557622D01*
X498106D01*
X499484Y558193D01*
X500539Y559248D01*
X501110Y560626D01*
Y562118D01*
X500539Y563497D01*
X499626Y564409D01*
X499384Y564771D01*
Y568967D01*
X499163Y570080D01*
X498533Y571023D01*
X490800Y578756D01*
X489857Y579386D01*
X488744Y579608D01*
X472800D01*
X471688Y579386D01*
X470744Y578756D01*
X462580Y570591D01*
X461310Y571117D01*
Y571418D01*
X460739Y572797D01*
X459684Y573852D01*
X458306Y574422D01*
X456814D01*
X455435Y573852D01*
X454380Y572797D01*
X453810Y571418D01*
Y569926D01*
X454380Y568548D01*
X455435Y567493D01*
X456814Y566922D01*
X457115D01*
X457641Y565652D01*
X450296Y558307D01*
X423342D01*
X422230Y558086D01*
X421286Y557456D01*
X409528Y545697D01*
X388358D01*
X387996Y545939D01*
X387084Y546852D01*
X385705Y547422D01*
X384214D01*
X382835Y546852D01*
X381781Y545797D01*
X381210Y544418D01*
Y542926D01*
X381781Y541548D01*
X382077Y541252D01*
X382776Y540422D01*
X382077Y539593D01*
X381781Y539297D01*
X381210Y537918D01*
Y536427D01*
X381781Y535048D01*
X382835Y533993D01*
X384214Y533422D01*
X385705D01*
X387084Y533993D01*
X387996Y534906D01*
X388358Y535148D01*
X412693D01*
X413806Y535369D01*
X414749Y535999D01*
X415007Y536257D01*
X415999Y535586D01*
X415401Y534142D01*
X418790D01*
Y537531D01*
X417346Y536933D01*
X416675Y537925D01*
X426508Y547758D01*
X449234D01*
X449720Y546585D01*
X429980Y526845D01*
X421091D01*
X421012Y528082D01*
X422773Y528812D01*
X424120Y530159D01*
X424718Y531602D01*
X415401D01*
X415999Y530159D01*
X417346Y528812D01*
X419107Y528082D01*
X419028Y526845D01*
X379345D01*
Y555979D01*
X380615Y556232D01*
X380721Y555976D01*
X381776Y554921D01*
X383154Y554350D01*
X384646D01*
X386024Y554921D01*
X387079Y555976D01*
X387650Y557354D01*
Y558846D01*
X387079Y560224D01*
X386024Y561279D01*
X384646Y561850D01*
X383154D01*
X381776Y561279D01*
X380721Y560224D01*
X380615Y559969D01*
X379345Y560221D01*
Y568300D01*
X379345Y568300D01*
X379167Y569198D01*
X378658Y569958D01*
X365988Y582628D01*
X365228Y583137D01*
X364330Y583315D01*
X364330Y583315D01*
X248701D01*
X231445Y600572D01*
Y649242D01*
X232279Y650076D01*
X232850Y651454D01*
Y652946D01*
X232279Y654324D01*
X231224Y655379D01*
X229846Y655950D01*
D02*
G37*
G36*
X317046Y522450D02*
X315554D01*
X314176Y521879D01*
X313121Y520824D01*
X312550Y519446D01*
Y517954D01*
X313121Y516576D01*
X314176Y515521D01*
X315554Y514950D01*
X317046D01*
X318424Y515521D01*
X319479Y516576D01*
X320050Y517954D01*
Y519446D01*
X319479Y520824D01*
X318424Y521879D01*
X317046Y522450D01*
D02*
G37*
G36*
X394759Y508030D02*
X385442D01*
X386039Y506587D01*
X387387Y505239D01*
X389147Y504510D01*
Y503290D01*
X387387Y502561D01*
X386039Y501213D01*
X385442Y499770D01*
X394759D01*
X394161Y501213D01*
X392813Y502561D01*
X391053Y503290D01*
Y504510D01*
X392813Y505239D01*
X394161Y506587D01*
X394759Y508030D01*
D02*
G37*
G36*
X421370Y502559D02*
Y499170D01*
X424759D01*
X424161Y500613D01*
X422813Y501961D01*
X421370Y502559D01*
D02*
G37*
G36*
X418830D02*
X417387Y501961D01*
X416039Y500613D01*
X415442Y499170D01*
X418830D01*
Y502559D01*
D02*
G37*
G36*
X424759Y496630D02*
X415442D01*
X416039Y495187D01*
X416596Y494630D01*
X417351Y493800D01*
X416596Y492971D01*
X416039Y492413D01*
X415442Y490970D01*
X424759D01*
X424161Y492413D01*
X423604Y492971D01*
X422849Y493800D01*
X423604Y494630D01*
X424161Y495187D01*
X424759Y496630D01*
D02*
G37*
G36*
X582556Y498312D02*
X581064D01*
X579685Y497741D01*
X578630Y496687D01*
X578060Y495308D01*
Y493816D01*
X578630Y492438D01*
X579685Y491383D01*
X581064Y490812D01*
X582556D01*
X583934Y491383D01*
X584989Y492438D01*
X585560Y493816D01*
Y495308D01*
X584989Y496687D01*
X583934Y497741D01*
X582556Y498312D01*
D02*
G37*
G36*
X460570Y485559D02*
Y482170D01*
X463959D01*
X463361Y483613D01*
X462013Y484961D01*
X460570Y485559D01*
D02*
G37*
G36*
X458030D02*
X456587Y484961D01*
X455239Y483613D01*
X454641Y482170D01*
X458030D01*
Y485559D01*
D02*
G37*
G36*
X424759Y488430D02*
X415442D01*
X416039Y486987D01*
X416965Y486061D01*
X417250Y485250D01*
X416965Y484439D01*
X416039Y483513D01*
X415442Y482070D01*
X424759D01*
X424161Y483513D01*
X423235Y484439D01*
X422950Y485250D01*
X423235Y486061D01*
X424161Y486987D01*
X424759Y488430D01*
D02*
G37*
G36*
X546570Y479759D02*
Y476370D01*
X549959D01*
X549361Y477813D01*
X548013Y479161D01*
X546570Y479759D01*
D02*
G37*
G36*
X544030D02*
X542587Y479161D01*
X541239Y477813D01*
X540642Y476370D01*
X544030D01*
Y479759D01*
D02*
G37*
G36*
X531770D02*
Y476370D01*
X535159D01*
X534561Y477813D01*
X533213Y479161D01*
X531770Y479759D01*
D02*
G37*
G36*
X529230D02*
X527787Y479161D01*
X526439Y477813D01*
X525841Y476370D01*
X529230D01*
Y479759D01*
D02*
G37*
G36*
X516970D02*
Y476370D01*
X520359D01*
X519761Y477813D01*
X518413Y479161D01*
X516970Y479759D01*
D02*
G37*
G36*
X514430D02*
X512987Y479161D01*
X511639Y477813D01*
X511041Y476370D01*
X514430D01*
Y479759D01*
D02*
G37*
G36*
X502170D02*
Y476370D01*
X505559D01*
X504961Y477813D01*
X503613Y479161D01*
X502170Y479759D01*
D02*
G37*
G36*
X499630D02*
X498187Y479161D01*
X496839Y477813D01*
X496241Y476370D01*
X499630D01*
Y479759D01*
D02*
G37*
G36*
X463959Y479630D02*
X460570D01*
Y476241D01*
X462013Y476839D01*
X463361Y478187D01*
X463959Y479630D01*
D02*
G37*
G36*
X458030D02*
X454130D01*
Y475612D01*
X458030D01*
Y479630D01*
D02*
G37*
G36*
X451590Y479001D02*
X450147Y478403D01*
X448799Y477055D01*
X448201Y475612D01*
X451590D01*
Y479001D01*
D02*
G37*
G36*
X424759Y479530D02*
X415442D01*
X416039Y478087D01*
X417150Y476976D01*
X417290Y476219D01*
X417150Y475463D01*
X416039Y474352D01*
X415442Y472908D01*
X424759D01*
X424161Y474352D01*
X423050Y475463D01*
X422910Y476219D01*
X423050Y476976D01*
X424161Y478087D01*
X424759Y479530D01*
D02*
G37*
G36*
Y470368D02*
X421370D01*
Y466980D01*
X422813Y467577D01*
X424161Y468925D01*
X424759Y470368D01*
D02*
G37*
G36*
X418830D02*
X415442D01*
X416039Y468925D01*
X417387Y467577D01*
X418830Y466980D01*
Y470368D01*
D02*
G37*
G36*
X457519Y473072D02*
X448201D01*
X448799Y471629D01*
X450147Y470281D01*
X450957Y469945D01*
Y468571D01*
X450147Y468235D01*
X448799Y466888D01*
X448201Y465444D01*
X457519D01*
X456921Y466888D01*
X455573Y468235D01*
X454763Y468571D01*
Y469945D01*
X455573Y470281D01*
X456921Y471629D01*
X457519Y473072D01*
D02*
G37*
G36*
X811625Y492870D02*
X808375D01*
X805187Y492236D01*
X802184Y490992D01*
X799482Y489187D01*
X797184Y486888D01*
X795378Y484186D01*
X794134Y481183D01*
X793500Y477995D01*
Y474745D01*
X794134Y471557D01*
X795378Y468554D01*
X797184Y465852D01*
X799482Y463554D01*
X802184Y461748D01*
X805187Y460504D01*
X808375Y459870D01*
X811625D01*
X814813Y460504D01*
X817816Y461748D01*
X820518Y463554D01*
X822816Y465852D01*
X824622Y468554D01*
X825866Y471557D01*
X826500Y474745D01*
Y477995D01*
X825866Y481183D01*
X824622Y484186D01*
X822816Y486888D01*
X820518Y489187D01*
X817816Y490992D01*
X814813Y492236D01*
X811625Y492870D01*
D02*
G37*
G36*
X171625D02*
X168375D01*
X165187Y492236D01*
X162184Y490992D01*
X159482Y489187D01*
X157184Y486888D01*
X155378Y484186D01*
X154134Y481183D01*
X153500Y477995D01*
Y474745D01*
X154134Y471557D01*
X155378Y468554D01*
X157184Y465852D01*
X159482Y463554D01*
X162184Y461748D01*
X165187Y460504D01*
X168375Y459870D01*
X171625D01*
X174813Y460504D01*
X177816Y461748D01*
X180518Y463554D01*
X182817Y465852D01*
X184622Y468554D01*
X185866Y471557D01*
X186500Y474745D01*
Y477995D01*
X185866Y481183D01*
X184622Y484186D01*
X182817Y486888D01*
X180518Y489187D01*
X177816Y490992D01*
X174813Y492236D01*
X171625Y492870D01*
D02*
G37*
G36*
X457519Y462904D02*
X448201D01*
X448799Y461461D01*
X450003Y460257D01*
X450083Y459528D01*
X450003Y458798D01*
X448799Y457595D01*
X448201Y456152D01*
X457519D01*
X456921Y457595D01*
X455717Y458798D01*
X455638Y459528D01*
X455717Y460257D01*
X456921Y461461D01*
X457519Y462904D01*
D02*
G37*
G36*
X555859Y458530D02*
X546541D01*
X547139Y457087D01*
X548487Y455739D01*
X550247Y455010D01*
X550277D01*
X550768Y453740D01*
X550242Y452470D01*
X559559D01*
X558961Y453913D01*
X557613Y455261D01*
X555853Y455990D01*
X555824D01*
X555333Y457260D01*
X555859Y458530D01*
D02*
G37*
G36*
X288670Y455859D02*
Y452470D01*
X292059D01*
X291461Y453913D01*
X290113Y455261D01*
X288670Y455859D01*
D02*
G37*
G36*
X286130D02*
X284687Y455261D01*
X283339Y453913D01*
X282742Y452470D01*
X286130D01*
Y455859D01*
D02*
G37*
G36*
X487030Y452819D02*
Y450243D01*
X489606D01*
X489184Y451261D01*
X488048Y452397D01*
X487030Y452819D01*
D02*
G37*
G36*
X484490Y452819D02*
X483471Y452397D01*
X482335Y451261D01*
X481913Y450243D01*
X484490D01*
Y452819D01*
D02*
G37*
G36*
X457519Y453612D02*
X448201D01*
X448799Y452168D01*
X449770Y451198D01*
X450017Y450400D01*
X449770Y449603D01*
X448799Y448632D01*
X448201Y447189D01*
X457519D01*
X456921Y448632D01*
X455951Y449603D01*
X455704Y450400D01*
X455951Y451198D01*
X456921Y452168D01*
X457519Y453612D01*
D02*
G37*
G36*
X401432Y464535D02*
X395688D01*
X394539Y464059D01*
X394064Y462911D01*
Y448433D01*
X394539Y447285D01*
X395688Y446810D01*
X401432D01*
X402580Y447285D01*
X403055Y448433D01*
Y462911D01*
X402580Y464059D01*
X401432Y464535D01*
D02*
G37*
G36*
X559559Y449930D02*
X556170D01*
Y446542D01*
X557613Y447139D01*
X558961Y448487D01*
X559559Y449930D01*
D02*
G37*
G36*
X553630D02*
X550242D01*
X550839Y448487D01*
X552187Y447139D01*
X553630Y446542D01*
Y449930D01*
D02*
G37*
G36*
X292059D02*
X288670D01*
Y446542D01*
X290113Y447139D01*
X291461Y448487D01*
X292059Y449930D01*
D02*
G37*
G36*
X286130D02*
X282742D01*
X283339Y448487D01*
X284687Y447139D01*
X286130Y446542D01*
Y449930D01*
D02*
G37*
G36*
X421370Y446462D02*
Y443074D01*
X424759D01*
X424161Y444517D01*
X422813Y445864D01*
X421370Y446462D01*
D02*
G37*
G36*
X418830D02*
X417387Y445864D01*
X416039Y444517D01*
X415442Y443074D01*
X418830D01*
Y446462D01*
D02*
G37*
G36*
X489607Y447702D02*
X485760D01*
X481913D01*
X482335Y446684D01*
X482966Y446052D01*
X483329Y445222D01*
X482966Y444393D01*
X482335Y443761D01*
X481913Y442742D01*
X485760D01*
X489607D01*
X489184Y443761D01*
X488553Y444393D01*
X488190Y445222D01*
X488553Y446052D01*
X489184Y446684D01*
X489607Y447702D01*
D02*
G37*
G36*
X457519Y444649D02*
X448201D01*
X448799Y443205D01*
X449582Y442423D01*
X450010Y441593D01*
X449582Y440763D01*
X448799Y439980D01*
X448201Y438537D01*
X457519D01*
X456921Y439980D01*
X456138Y440763D01*
X455710Y441593D01*
X456138Y442423D01*
X456921Y443205D01*
X457519Y444649D01*
D02*
G37*
G36*
X489606Y440202D02*
X485760D01*
X481913D01*
X482335Y439184D01*
X482966Y438552D01*
X483329Y437722D01*
X482966Y436893D01*
X482335Y436261D01*
X481913Y435243D01*
X485760D01*
X489606D01*
X489184Y436261D01*
X488553Y436893D01*
X488190Y437722D01*
X488553Y438552D01*
X489184Y439184D01*
X489606Y440202D01*
D02*
G37*
G36*
X424759Y440533D02*
X415442D01*
X416039Y439090D01*
X417387Y437743D01*
X417515Y437690D01*
Y436315D01*
X417387Y436262D01*
X416039Y434915D01*
X415442Y433471D01*
X424759D01*
X424161Y434915D01*
X422813Y436262D01*
X422686Y436315D01*
Y437690D01*
X422813Y437743D01*
X424161Y439090D01*
X424759Y440533D01*
D02*
G37*
G36*
X547370Y434859D02*
Y431470D01*
X550759D01*
X550161Y432913D01*
X548813Y434261D01*
X547370Y434859D01*
D02*
G37*
G36*
X544830D02*
X543387Y434261D01*
X542039Y432913D01*
X541441Y431470D01*
X544830D01*
Y434859D01*
D02*
G37*
G36*
X457519Y435997D02*
X448201D01*
X448799Y434554D01*
X449353Y434000D01*
X450113Y433169D01*
X449353Y432340D01*
X448799Y431786D01*
X448201Y430342D01*
X457518D01*
X456920Y431786D01*
X456366Y432340D01*
X455607Y433170D01*
X456366Y433999D01*
X456921Y434554D01*
X457519Y435997D01*
D02*
G37*
G36*
X489607Y432702D02*
X487030D01*
Y430126D01*
X488048Y430547D01*
X489184Y431684D01*
X489607Y432702D01*
D02*
G37*
G36*
X484490D02*
X481913D01*
X482335Y431684D01*
X483471Y430547D01*
X484490Y430126D01*
Y432702D01*
D02*
G37*
G36*
X715532Y444235D02*
X709788D01*
X708640Y443759D01*
X708164Y442611D01*
Y428133D01*
X708640Y426985D01*
X709788Y426510D01*
X715532D01*
X716680Y426985D01*
X717155Y428133D01*
Y442611D01*
X716680Y443759D01*
X715532Y444235D01*
D02*
G37*
G36*
X550759Y428930D02*
X547370D01*
Y425541D01*
X548813Y426139D01*
X550161Y427487D01*
X550759Y428930D01*
D02*
G37*
G36*
X544830D02*
X541441D01*
X542039Y427487D01*
X543387Y426139D01*
X544830Y425541D01*
Y428930D01*
D02*
G37*
G36*
X424759Y430932D02*
X415442D01*
X416039Y429488D01*
X417037Y428491D01*
X417262Y427701D01*
X417037Y426911D01*
X416039Y425913D01*
X415442Y424470D01*
X424759D01*
X424161Y425913D01*
X423163Y426911D01*
X422939Y427701D01*
X423163Y428491D01*
X424161Y429488D01*
X424759Y430932D01*
D02*
G37*
G36*
X457518Y427802D02*
X454130D01*
Y424414D01*
X455573Y425012D01*
X456920Y426359D01*
X457518Y427802D01*
D02*
G37*
G36*
X451590D02*
X448201D01*
X448799Y426359D01*
X450146Y425012D01*
X451590Y424414D01*
Y427802D01*
D02*
G37*
G36*
X288746Y430550D02*
X287254D01*
X285876Y429979D01*
X284821Y428924D01*
X284250Y427546D01*
Y426054D01*
X284821Y424676D01*
X285876Y423621D01*
X287254Y423050D01*
X288746D01*
X290124Y423621D01*
X291179Y424676D01*
X291750Y426054D01*
Y427546D01*
X291179Y428924D01*
X290124Y429979D01*
X288746Y430550D01*
D02*
G37*
G36*
X433346Y429750D02*
X431854D01*
X430476Y429179D01*
X429421Y428124D01*
X428850Y426746D01*
Y425254D01*
X429421Y423876D01*
X430476Y422821D01*
X431854Y422250D01*
X433346D01*
X434724Y422821D01*
X435779Y423876D01*
X436350Y425254D01*
Y426746D01*
X435779Y428124D01*
X434724Y429179D01*
X433346Y429750D01*
D02*
G37*
G36*
X538222Y442986D02*
X511298D01*
X510150Y442510D01*
X509674Y441362D01*
Y423582D01*
X510150Y422434D01*
X511298Y421959D01*
X538222D01*
X539370Y422434D01*
X539845Y423582D01*
Y441362D01*
X539370Y442510D01*
X538222Y442986D01*
D02*
G37*
G36*
X459470Y423659D02*
Y420270D01*
X462859D01*
X462261Y421713D01*
X460913Y423061D01*
X459470Y423659D01*
D02*
G37*
G36*
X456930D02*
X455487Y423061D01*
X454139Y421713D01*
X453541Y420270D01*
X456930D01*
Y423659D01*
D02*
G37*
G36*
X547370Y422859D02*
Y419470D01*
X550759D01*
X550161Y420913D01*
X548813Y422261D01*
X547370Y422859D01*
D02*
G37*
G36*
X544830D02*
X543387Y422261D01*
X542039Y420913D01*
X541441Y419470D01*
X544830D01*
Y422859D01*
D02*
G37*
G36*
X424759Y421930D02*
X415442D01*
X416039Y420487D01*
X416646Y419880D01*
X417315Y419050D01*
X416646Y418220D01*
X416039Y417613D01*
X415442Y416170D01*
X424759D01*
X424161Y417613D01*
X423554Y418220D01*
X422885Y419050D01*
X423554Y419880D01*
X424161Y420487D01*
X424759Y421930D01*
D02*
G37*
G36*
X550759Y416930D02*
X547370D01*
Y413541D01*
X548813Y414139D01*
X550161Y415487D01*
X550759Y416930D01*
D02*
G37*
G36*
X544830D02*
X541441D01*
X542039Y415487D01*
X543387Y414139D01*
X544830Y413541D01*
Y416930D01*
D02*
G37*
G36*
X462859Y417730D02*
X453541D01*
X454139Y416287D01*
X455487Y414939D01*
X456719Y414429D01*
X457148Y413185D01*
X456561Y412175D01*
X455437Y411881D01*
X454546Y412250D01*
X453054D01*
X451676Y411679D01*
X450621Y410624D01*
X450050Y409246D01*
Y407754D01*
X450621Y406376D01*
X451676Y405321D01*
X453054Y404750D01*
X454546D01*
X455924Y405321D01*
X456979Y406376D01*
X458123Y406603D01*
X458587Y406139D01*
X460030Y405541D01*
Y410200D01*
X461300D01*
Y411470D01*
X465959D01*
X465361Y412913D01*
X464013Y414261D01*
X462612Y414841D01*
X462137Y416163D01*
X462261Y416287D01*
X462859Y417730D01*
D02*
G37*
G36*
X627175Y414162D02*
X625684D01*
X624305Y413591D01*
X623251Y412537D01*
X622680Y411158D01*
Y409666D01*
X623251Y408288D01*
X624305Y407233D01*
X625684Y406662D01*
X627175D01*
X628554Y407233D01*
X629609Y408288D01*
X630180Y409666D01*
Y411158D01*
X629609Y412537D01*
X628554Y413591D01*
X627175Y414162D01*
D02*
G37*
G36*
X617225D02*
X615734D01*
X614355Y413591D01*
X613301Y412537D01*
X612730Y411158D01*
Y409666D01*
X613301Y408288D01*
X614355Y407233D01*
X615734Y406662D01*
X617225D01*
X618604Y407233D01*
X619659Y408288D01*
X620230Y409666D01*
Y411158D01*
X619659Y412537D01*
X618604Y413591D01*
X617225Y414162D01*
D02*
G37*
G36*
X384346D02*
X382854D01*
X381475Y413591D01*
X380420Y412537D01*
X379850Y411158D01*
Y409666D01*
X380420Y408288D01*
X381475Y407233D01*
X382854Y406662D01*
X384346D01*
X385724Y407233D01*
X386779Y408288D01*
X387350Y409666D01*
Y411158D01*
X386779Y412537D01*
X385724Y413591D01*
X384346Y414162D01*
D02*
G37*
G36*
X374395D02*
X372904D01*
X371525Y413591D01*
X370471Y412537D01*
X369900Y411158D01*
Y409666D01*
X370471Y408288D01*
X371525Y407233D01*
X372904Y406662D01*
X374395D01*
X375774Y407233D01*
X376829Y408288D01*
X377400Y409666D01*
Y411158D01*
X376829Y412537D01*
X375774Y413591D01*
X374395Y414162D01*
D02*
G37*
G36*
X444570Y408959D02*
Y405570D01*
X447959D01*
X447361Y407013D01*
X446013Y408361D01*
X444570Y408959D01*
D02*
G37*
G36*
X442030D02*
X440587Y408361D01*
X439239Y407013D01*
X438642Y405570D01*
X442030D01*
Y408959D01*
D02*
G37*
G36*
X432970D02*
Y405570D01*
X436359D01*
X435761Y407013D01*
X434413Y408361D01*
X432970Y408959D01*
D02*
G37*
G36*
X430430D02*
X428987Y408361D01*
X427639Y407013D01*
X427042Y405570D01*
X430430D01*
Y408959D01*
D02*
G37*
G36*
X424759Y413630D02*
X415442D01*
X416039Y412187D01*
X417387Y410839D01*
X418777Y410263D01*
Y408937D01*
X417387Y408361D01*
X416039Y407013D01*
X415442Y405570D01*
X424759D01*
X424161Y407013D01*
X422813Y408361D01*
X421423Y408937D01*
Y410263D01*
X422813Y410839D01*
X424161Y412187D01*
X424759Y413630D01*
D02*
G37*
G36*
X465959Y408930D02*
X462570D01*
Y405541D01*
X464013Y406139D01*
X465361Y407487D01*
X465959Y408930D01*
D02*
G37*
G36*
X488632Y420854D02*
X482888D01*
X481740Y420378D01*
X481264Y419230D01*
Y404752D01*
X481740Y403604D01*
X482888Y403129D01*
X488632D01*
X489780Y403604D01*
X490255Y404752D01*
Y419230D01*
X489780Y420378D01*
X488632Y420854D01*
D02*
G37*
G36*
X288746Y405428D02*
X287254D01*
X285876Y404857D01*
X284821Y403802D01*
X284250Y402423D01*
Y400932D01*
X284821Y399553D01*
X285876Y398498D01*
X287254Y397928D01*
X288746D01*
X290124Y398498D01*
X291179Y399553D01*
X291750Y400932D01*
Y402423D01*
X291179Y403802D01*
X290124Y404857D01*
X288746Y405428D01*
D02*
G37*
G36*
X679400Y405756D02*
X677839Y405445D01*
X676516Y404561D01*
X675632Y403238D01*
X675322Y401678D01*
Y385989D01*
X673511Y384179D01*
X596500D01*
X594939Y383868D01*
X593616Y382984D01*
X592732Y381661D01*
X592422Y380100D01*
X592732Y378539D01*
X593616Y377216D01*
X594939Y376332D01*
X596500Y376022D01*
X675200D01*
X675200Y376022D01*
X676761Y376332D01*
X678084Y377216D01*
X682284Y381416D01*
X682284Y381416D01*
X683168Y382739D01*
X683478Y384300D01*
Y401678D01*
X683168Y403238D01*
X682284Y404561D01*
X680961Y405445D01*
X679400Y405756D01*
D02*
G37*
G36*
X505459Y377930D02*
X502070D01*
Y374542D01*
X503513Y375139D01*
X504861Y376487D01*
X505459Y377930D01*
D02*
G37*
G36*
X499530D02*
X496142D01*
X496739Y376487D01*
X498087Y375139D01*
X499530Y374542D01*
Y377930D01*
D02*
G37*
G36*
X481759D02*
X478370D01*
Y374542D01*
X479813Y375139D01*
X481161Y376487D01*
X481759Y377930D01*
D02*
G37*
G36*
X475830D02*
X472441D01*
X473039Y376487D01*
X474387Y375139D01*
X475830Y374542D01*
Y377930D01*
D02*
G37*
G36*
X458759D02*
X455370D01*
Y374542D01*
X456813Y375139D01*
X458161Y376487D01*
X458759Y377930D01*
D02*
G37*
G36*
X431030D02*
X427641D01*
X428239Y376487D01*
X429587Y375139D01*
X431030Y374542D01*
Y377930D01*
D02*
G37*
G36*
X424259D02*
X420870D01*
Y374542D01*
X422313Y375139D01*
X423661Y376487D01*
X424259Y377930D01*
D02*
G37*
G36*
X418330D02*
X414941D01*
X415539Y376487D01*
X416887Y375139D01*
X418330Y374542D01*
Y377930D01*
D02*
G37*
G36*
X409559D02*
X406170D01*
Y374542D01*
X407613Y375139D01*
X408961Y376487D01*
X409559Y377930D01*
D02*
G37*
G36*
X403630D02*
X400242D01*
X400839Y376487D01*
X402187Y375139D01*
X403630Y374542D01*
Y377930D01*
D02*
G37*
G36*
X394859D02*
X391470D01*
Y374542D01*
X392913Y375139D01*
X394261Y376487D01*
X394859Y377930D01*
D02*
G37*
G36*
X388930D02*
X385541D01*
X386139Y376487D01*
X387487Y375139D01*
X388930Y374542D01*
Y377930D01*
D02*
G37*
G36*
X380159D02*
X376770D01*
Y374542D01*
X378213Y375139D01*
X379561Y376487D01*
X380159Y377930D01*
D02*
G37*
G36*
X374230D02*
X370841D01*
X371439Y376487D01*
X372787Y375139D01*
X374230Y374542D01*
Y377930D01*
D02*
G37*
G36*
X679400Y430878D02*
X677839Y430568D01*
X676516Y429684D01*
X675632Y428361D01*
X675322Y426800D01*
X675632Y425239D01*
X676516Y423916D01*
X685222Y415211D01*
Y381689D01*
X677911Y374379D01*
X591018D01*
X590478Y374918D01*
Y380100D01*
X590168Y381661D01*
X589284Y382984D01*
X587961Y383868D01*
X586400Y384179D01*
X584839Y383868D01*
X583516Y382984D01*
X582632Y381661D01*
X582322Y380100D01*
Y373229D01*
X582322Y373229D01*
X582632Y371668D01*
X583516Y370345D01*
X586445Y367416D01*
X586445Y367416D01*
X587768Y366532D01*
X589329Y366222D01*
X679600D01*
X679600Y366222D01*
X681161Y366532D01*
X682484Y367416D01*
X692184Y377116D01*
X693068Y378439D01*
X693379Y380000D01*
X693378Y380000D01*
Y416900D01*
X693379Y416900D01*
X693068Y418461D01*
X692184Y419784D01*
X692184Y419784D01*
X682284Y429684D01*
X680961Y430568D01*
X679400Y430878D01*
D02*
G37*
G36*
X461246Y372950D02*
X459754D01*
X458376Y372379D01*
X457321Y371324D01*
X456750Y369946D01*
Y368454D01*
X457321Y367076D01*
X458376Y366021D01*
X459754Y365450D01*
X461246D01*
X462624Y366021D01*
X463679Y367076D01*
X464250Y368454D01*
Y369946D01*
X463679Y371324D01*
X462624Y372379D01*
X461246Y372950D01*
D02*
G37*
G36*
X450057D02*
X448565D01*
X447187Y372379D01*
X446132Y371324D01*
X445561Y369946D01*
Y368454D01*
X446132Y367076D01*
X447187Y366021D01*
X448565Y365450D01*
X450057D01*
X451436Y366021D01*
X452490Y367076D01*
X453061Y368454D01*
Y369946D01*
X452490Y371324D01*
X451436Y372379D01*
X450057Y372950D01*
D02*
G37*
G36*
X439446D02*
X437954D01*
X436576Y372379D01*
X435521Y371324D01*
X434950Y369946D01*
Y368454D01*
X435521Y367076D01*
X436576Y366021D01*
X437954Y365450D01*
X439446D01*
X440824Y366021D01*
X441879Y367076D01*
X442450Y368454D01*
Y369946D01*
X441879Y371324D01*
X440824Y372379D01*
X439446Y372950D01*
D02*
G37*
G36*
X426246D02*
X424754D01*
X423376Y372379D01*
X422321Y371324D01*
X421750Y369946D01*
Y368454D01*
X422321Y367076D01*
X423376Y366021D01*
X424754Y365450D01*
X426246D01*
X427624Y366021D01*
X428679Y367076D01*
X429250Y368454D01*
Y369946D01*
X428679Y371324D01*
X427624Y372379D01*
X426246Y372950D01*
D02*
G37*
G36*
X530130Y369430D02*
X525930D01*
X526703Y367562D01*
X528262Y366003D01*
X530130Y365230D01*
Y369430D01*
D02*
G37*
G36*
X364446Y365250D02*
X362954D01*
X361576Y364679D01*
X360521Y363624D01*
X359950Y362246D01*
Y360754D01*
X360521Y359376D01*
X361576Y358321D01*
X362954Y357750D01*
X364446D01*
X365824Y358321D01*
X366879Y359376D01*
X367450Y360754D01*
Y362246D01*
X366879Y363624D01*
X365824Y364679D01*
X364446Y365250D01*
D02*
G37*
G36*
X551470Y352771D02*
Y348570D01*
X555671D01*
X554897Y350438D01*
X553338Y351997D01*
X551470Y352771D01*
D02*
G37*
G36*
X548930D02*
X547062Y351997D01*
X545504Y350438D01*
X544730Y348570D01*
X548930D01*
Y352771D01*
D02*
G37*
G36*
X383940Y449459D02*
X363518D01*
X360908Y449115D01*
X358475Y448107D01*
X356386Y446504D01*
X346428Y436546D01*
X344825Y434457D01*
X343817Y432024D01*
X343473Y429414D01*
Y401531D01*
X343817Y398920D01*
X344825Y396488D01*
X346428Y394399D01*
X356386Y384440D01*
X358475Y382837D01*
X360908Y381830D01*
X363518Y381486D01*
X370119D01*
X370798Y380470D01*
X380202D01*
X380881Y381486D01*
X384819D01*
X385498Y380470D01*
X394902D01*
X395581Y381486D01*
X399519D01*
X400198Y380470D01*
X409602D01*
X410281Y381486D01*
X414219D01*
X414898Y380470D01*
X424302D01*
X424981Y381486D01*
X426919D01*
X427598Y380470D01*
X432300D01*
Y379200D01*
X433570D01*
Y374542D01*
X435013Y375139D01*
X436361Y376487D01*
X437090Y378247D01*
Y380153D01*
X437447Y380242D01*
X438410Y379177D01*
Y378247D01*
X439139Y376487D01*
X440487Y375139D01*
X441930Y374542D01*
Y379200D01*
X444470D01*
Y374542D01*
X445913Y375139D01*
X447261Y376487D01*
X447990Y378247D01*
Y380153D01*
X448347Y380242D01*
X449310Y379177D01*
Y378247D01*
X450039Y376487D01*
X451387Y375139D01*
X452830Y374542D01*
Y379200D01*
X454100D01*
Y380470D01*
X458802D01*
X459481Y381486D01*
X471719D01*
X472398Y380470D01*
X481802D01*
X482481Y381486D01*
X495419D01*
X496098Y380470D01*
X505502D01*
X506181Y381486D01*
X527382D01*
X531358Y377510D01*
X530832Y376240D01*
X530298D01*
X528262Y375397D01*
X526703Y373838D01*
X525930Y371970D01*
X531400D01*
Y370700D01*
X532670D01*
Y365230D01*
X534538Y366003D01*
X536097Y367562D01*
X536940Y369598D01*
Y370132D01*
X538210Y370658D01*
X562500Y346368D01*
X564589Y344765D01*
X567021Y343758D01*
X569632Y343414D01*
X698500D01*
X701111Y343758D01*
X703543Y344765D01*
X705632Y346368D01*
X707235Y348457D01*
X708243Y350890D01*
X708586Y353500D01*
X708243Y356111D01*
X707235Y358543D01*
X705632Y360632D01*
X703543Y362235D01*
X701111Y363243D01*
X698500Y363586D01*
X573810D01*
X538692Y398704D01*
X536603Y400307D01*
X534170Y401315D01*
X531560Y401659D01*
X448534D01*
X447828Y402715D01*
X447959Y403030D01*
X438642D01*
X438765Y402733D01*
X438096Y401732D01*
X436904D01*
X436236Y402733D01*
X436359Y403030D01*
X427042D01*
X427165Y402733D01*
X426496Y401732D01*
X425304D01*
X424636Y402733D01*
X424759Y403030D01*
X415442D01*
X415572Y402715D01*
X414867Y401659D01*
X367696D01*
X363646Y405709D01*
Y425236D01*
X367696Y429286D01*
X383940D01*
X386550Y429630D01*
X388983Y430637D01*
X391072Y432240D01*
X392675Y434329D01*
X393682Y436762D01*
X394026Y439372D01*
X393682Y441983D01*
X392675Y444416D01*
X391072Y446504D01*
X388983Y448107D01*
X386550Y449115D01*
X383940Y449459D01*
D02*
G37*
G36*
X555671Y346030D02*
X551470D01*
Y341830D01*
X553338Y342603D01*
X554897Y344162D01*
X555671Y346030D01*
D02*
G37*
G36*
X548930D02*
X544730D01*
X545504Y344162D01*
X547062Y342603D01*
X548930Y341830D01*
Y346030D01*
D02*
G37*
G36*
X525570Y330770D02*
Y326570D01*
X529771D01*
X528997Y328438D01*
X527438Y329997D01*
X525570Y330770D01*
D02*
G37*
G36*
X523030D02*
X521162Y329997D01*
X519604Y328438D01*
X518830Y326570D01*
X523030D01*
Y330770D01*
D02*
G37*
G36*
X456970D02*
Y326570D01*
X461171D01*
X460397Y328438D01*
X458838Y329997D01*
X456970Y330770D01*
D02*
G37*
G36*
X454430D02*
X452562Y329997D01*
X451003Y328438D01*
X450230Y326570D01*
X454430D01*
Y330770D01*
D02*
G37*
G36*
X529771Y324030D02*
X525570D01*
Y319830D01*
X527438Y320603D01*
X528997Y322162D01*
X529771Y324030D01*
D02*
G37*
G36*
X523030D02*
X518830D01*
X519604Y322162D01*
X521162Y320603D01*
X523030Y319830D01*
Y324030D01*
D02*
G37*
G36*
X461171D02*
X456970D01*
Y319830D01*
X458838Y320603D01*
X460397Y322162D01*
X461171Y324030D01*
D02*
G37*
G36*
X454430D02*
X450230D01*
X451003Y322162D01*
X452562Y320603D01*
X454430Y319830D01*
Y324030D01*
D02*
G37*
G36*
X530870Y317470D02*
Y313270D01*
X535070D01*
X534297Y315138D01*
X532738Y316697D01*
X530870Y317470D01*
D02*
G37*
G36*
X528330D02*
X526462Y316697D01*
X524903Y315138D01*
X524130Y313270D01*
X528330D01*
Y317470D01*
D02*
G37*
G36*
X451670D02*
Y313270D01*
X455871D01*
X455097Y315138D01*
X453538Y316697D01*
X451670Y317470D01*
D02*
G37*
G36*
X449130D02*
X447262Y316697D01*
X445704Y315138D01*
X444930Y313270D01*
X449130D01*
Y317470D01*
D02*
G37*
G36*
X535070Y310730D02*
X524130D01*
X524903Y308862D01*
X526462Y307304D01*
X526506Y307285D01*
Y306015D01*
X526462Y305997D01*
X524903Y304438D01*
X524130Y302570D01*
X535070D01*
X534297Y304438D01*
X532738Y305997D01*
X532694Y306015D01*
Y307285D01*
X532738Y307304D01*
X534297Y308862D01*
X535070Y310730D01*
D02*
G37*
G36*
X455871D02*
X444930D01*
X445704Y308862D01*
X447262Y307304D01*
X447306Y307285D01*
Y306015D01*
X447262Y305997D01*
X445704Y304438D01*
X444930Y302570D01*
X455871D01*
X455097Y304438D01*
X453538Y305997D01*
X453494Y306015D01*
Y307285D01*
X453538Y307304D01*
X455097Y308862D01*
X455871Y310730D01*
D02*
G37*
G36*
X535070Y300030D02*
X530870D01*
Y295830D01*
X532738Y296604D01*
X534297Y298162D01*
X535070Y300030D01*
D02*
G37*
G36*
X528330D02*
X524130D01*
X524903Y298162D01*
X526462Y296604D01*
X528330Y295830D01*
Y300030D01*
D02*
G37*
G36*
X455871D02*
X451670D01*
Y295830D01*
X453538Y296604D01*
X455097Y298162D01*
X455871Y300030D01*
D02*
G37*
G36*
X449130D02*
X444930D01*
X445704Y298162D01*
X447262Y296604D01*
X449130Y295830D01*
Y300030D01*
D02*
G37*
G36*
X542690Y294571D02*
Y290370D01*
X546890D01*
X546117Y292238D01*
X544558Y293797D01*
X542690Y294571D01*
D02*
G37*
G36*
X540150D02*
X538282Y293797D01*
X536724Y292238D01*
X535950Y290370D01*
X540150D01*
Y294571D01*
D02*
G37*
G36*
X439850D02*
Y290370D01*
X444050D01*
X443277Y292238D01*
X441718Y293797D01*
X439850Y294571D01*
D02*
G37*
G36*
X437310D02*
X435442Y293797D01*
X433884Y292238D01*
X433110Y290370D01*
X437310D01*
Y294571D01*
D02*
G37*
G36*
X546890Y287830D02*
X542690D01*
Y283630D01*
X544558Y284403D01*
X546117Y285962D01*
X546890Y287830D01*
D02*
G37*
G36*
X540150D02*
X535950D01*
X536724Y285962D01*
X538282Y284403D01*
X540150Y283630D01*
Y287830D01*
D02*
G37*
G36*
X444050D02*
X439850D01*
Y283630D01*
X441718Y284403D01*
X443277Y285962D01*
X444050Y287830D01*
D02*
G37*
G36*
X437310D02*
X433110D01*
X433884Y285962D01*
X435442Y284403D01*
X437310Y283630D01*
Y287830D01*
D02*
G37*
G36*
X507570Y266070D02*
Y261870D01*
X511771D01*
X510997Y263738D01*
X509438Y265297D01*
X507570Y266070D01*
D02*
G37*
G36*
X505030D02*
X503162Y265297D01*
X501604Y263738D01*
X500830Y261870D01*
X505030D01*
Y266070D01*
D02*
G37*
G36*
X474970D02*
Y261870D01*
X479170D01*
X478397Y263738D01*
X476838Y265297D01*
X474970Y266070D01*
D02*
G37*
G36*
X472430D02*
X470562Y265297D01*
X469003Y263738D01*
X468230Y261870D01*
X472430D01*
Y266070D01*
D02*
G37*
G36*
X511771Y259330D02*
X507570D01*
Y255130D01*
X509438Y255904D01*
X510997Y257462D01*
X511771Y259330D01*
D02*
G37*
G36*
X505030D02*
X500830D01*
X501604Y257462D01*
X503162Y255904D01*
X505030Y255130D01*
Y259330D01*
D02*
G37*
G36*
X479170D02*
X474970D01*
Y255130D01*
X476838Y255904D01*
X478397Y257462D01*
X479170Y259330D01*
D02*
G37*
G36*
X472430D02*
X468230D01*
X469003Y257462D01*
X470562Y255904D01*
X472430Y255130D01*
Y259330D01*
D02*
G37*
G36*
X581500Y237186D02*
X398500D01*
X395890Y236843D01*
X393457Y235835D01*
X391368Y234232D01*
X389765Y232143D01*
X388758Y229711D01*
X388414Y227100D01*
X388758Y224490D01*
X389765Y222057D01*
X391368Y219968D01*
X393457Y218365D01*
X395890Y217358D01*
X398500Y217014D01*
X581500D01*
X584111Y217358D01*
X586543Y218365D01*
X588632Y219968D01*
X590235Y222057D01*
X591243Y224490D01*
X591586Y227100D01*
X591243Y229711D01*
X590235Y232143D01*
X588632Y234232D01*
X586543Y235835D01*
X584111Y236843D01*
X581500Y237186D01*
D02*
G37*
G36*
X706625Y175100D02*
X703375D01*
X700187Y174466D01*
X697184Y173222D01*
X694482Y171416D01*
X692184Y169118D01*
X690378Y166416D01*
X689134Y163413D01*
X688500Y160225D01*
Y156975D01*
X689134Y153787D01*
X690378Y150785D01*
X692184Y148082D01*
X694482Y145784D01*
X697184Y143978D01*
X700187Y142734D01*
X703375Y142100D01*
X706625D01*
X709813Y142734D01*
X712816Y143978D01*
X715518Y145784D01*
X717816Y148082D01*
X719622Y150785D01*
X720866Y153787D01*
X721500Y156975D01*
Y160225D01*
X720866Y163413D01*
X719622Y166416D01*
X717816Y169118D01*
X715518Y171416D01*
X712816Y173222D01*
X709813Y174466D01*
X706625Y175100D01*
D02*
G37*
G36*
X276625D02*
X273375D01*
X270187Y174466D01*
X267184Y173222D01*
X264482Y171416D01*
X262184Y169118D01*
X260378Y166416D01*
X259134Y163413D01*
X258500Y160225D01*
Y156975D01*
X259134Y153787D01*
X260378Y150785D01*
X262184Y148082D01*
X264482Y145784D01*
X267184Y143978D01*
X270187Y142734D01*
X273375Y142100D01*
X276625D01*
X279813Y142734D01*
X282816Y143978D01*
X285518Y145784D01*
X287817Y148082D01*
X289622Y150785D01*
X290866Y153787D01*
X291500Y156975D01*
Y160225D01*
X290866Y163413D01*
X289622Y166416D01*
X287817Y169118D01*
X285518Y171416D01*
X282816Y173222D01*
X279813Y174466D01*
X276625Y175100D01*
D02*
G37*
G36*
X220630Y116931D02*
Y113542D01*
X224018D01*
X223420Y114986D01*
X222073Y116333D01*
X220630Y116931D01*
D02*
G37*
G36*
X218090D02*
X216646Y116333D01*
X215299Y114986D01*
X214701Y113542D01*
X218090D01*
Y116931D01*
D02*
G37*
G36*
X224018Y111002D02*
X220630D01*
Y107614D01*
X222073Y108212D01*
X223420Y109559D01*
X224018Y111002D01*
D02*
G37*
G36*
X218090D02*
X214701D01*
X215299Y109559D01*
X216646Y108212D01*
X218090Y107614D01*
Y111002D01*
D02*
G37*
G36*
X811625Y133870D02*
X808375D01*
X805187Y133236D01*
X802184Y131992D01*
X799482Y130187D01*
X797184Y127888D01*
X795378Y125186D01*
X794134Y122183D01*
X793500Y118995D01*
Y115745D01*
X794134Y112557D01*
X795378Y109554D01*
X797184Y106852D01*
X799482Y104554D01*
X802184Y102748D01*
X805187Y101504D01*
X808375Y100870D01*
X811625D01*
X814813Y101504D01*
X817816Y102748D01*
X820518Y104554D01*
X822816Y106852D01*
X824622Y109554D01*
X825866Y112557D01*
X826500Y115745D01*
Y118995D01*
X825866Y122183D01*
X824622Y125186D01*
X822816Y127888D01*
X820518Y130187D01*
X817816Y131992D01*
X814813Y133236D01*
X811625Y133870D01*
D02*
G37*
G36*
X171625D02*
X168375D01*
X165187Y133236D01*
X162184Y131992D01*
X159482Y130187D01*
X157184Y127888D01*
X155378Y125186D01*
X154134Y122183D01*
X153500Y118995D01*
Y115745D01*
X154134Y112557D01*
X155378Y109554D01*
X157184Y106852D01*
X159482Y104554D01*
X162184Y102748D01*
X165187Y101504D01*
X168375Y100870D01*
X171625D01*
X174813Y101504D01*
X177816Y102748D01*
X180518Y104554D01*
X182817Y106852D01*
X184622Y109554D01*
X185866Y112557D01*
X186500Y115745D01*
Y118995D01*
X185866Y122183D01*
X184622Y125186D01*
X182817Y127888D01*
X180518Y130187D01*
X177816Y131992D01*
X174813Y133236D01*
X171625Y133870D01*
D02*
G37*
G36*
X581500Y100186D02*
X398500D01*
X395890Y99843D01*
X393457Y98835D01*
X391368Y97232D01*
X389765Y95143D01*
X388758Y92711D01*
X388414Y90100D01*
X388758Y87490D01*
X389765Y85057D01*
X391368Y82968D01*
X393457Y81365D01*
X395890Y80358D01*
X398500Y80014D01*
X581500D01*
X584111Y80358D01*
X586543Y81365D01*
X588632Y82968D01*
X590235Y85057D01*
X591243Y87490D01*
X591586Y90100D01*
X591243Y92711D01*
X590235Y95143D01*
X588632Y97232D01*
X586543Y98835D01*
X584111Y99843D01*
X581500Y100186D01*
D02*
G37*
G36*
X248040Y74313D02*
X246030Y73481D01*
X244401Y71852D01*
X244273Y71827D01*
X243500Y72599D01*
X241754Y73322D01*
X239865D01*
X238119Y72599D01*
X237389Y71870D01*
X236560Y71392D01*
X235730Y71870D01*
X235000Y72599D01*
X233255Y73322D01*
X231365D01*
X229619Y72599D01*
X228889Y71870D01*
X228060Y71392D01*
X227230Y71870D01*
X226500Y72599D01*
X224755Y73322D01*
X222865D01*
X221119Y72599D01*
X220389Y71870D01*
X219560Y71392D01*
X218730Y71870D01*
X218000Y72599D01*
X216255Y73322D01*
X214365D01*
X212619Y72599D01*
X211889Y71870D01*
X211060Y71392D01*
X210230Y71870D01*
X209500Y72599D01*
X207754Y73322D01*
X205865D01*
X204119Y72599D01*
X203389Y71870D01*
X202560Y71392D01*
X201730Y71870D01*
X201000Y72599D01*
X199254Y73322D01*
X197365D01*
X195619Y72599D01*
X194846Y71827D01*
X194718Y71852D01*
X193089Y73481D01*
X191080Y74313D01*
Y68572D01*
Y62831D01*
X193089Y63664D01*
X194718Y65293D01*
X194846Y65318D01*
X195619Y64545D01*
X197365Y63822D01*
X199254D01*
X201000Y64545D01*
X201730Y65275D01*
X202560Y65753D01*
X203389Y65275D01*
X204119Y64545D01*
X205865Y63822D01*
X207754D01*
X209500Y64545D01*
X210230Y65275D01*
X211060Y65753D01*
X211889Y65275D01*
X212619Y64545D01*
X214365Y63822D01*
X216255D01*
X218000Y64545D01*
X218730Y65275D01*
X219560Y65753D01*
X220389Y65275D01*
X221119Y64545D01*
X222865Y63822D01*
X224755D01*
X226500Y64545D01*
X227230Y65275D01*
X228060Y65753D01*
X228889Y65275D01*
X229619Y64545D01*
X231365Y63822D01*
X233255D01*
X235000Y64545D01*
X235730Y65275D01*
X236560Y65753D01*
X237389Y65275D01*
X238119Y64545D01*
X239865Y63822D01*
X241754D01*
X243500Y64545D01*
X244273Y65318D01*
X244401Y65293D01*
X246030Y63664D01*
X248040Y62831D01*
Y68572D01*
Y74313D01*
D02*
G37*
G36*
X188540D02*
X186530Y73481D01*
X184901Y71852D01*
X184020Y69724D01*
Y69374D01*
X182750Y69121D01*
X182459Y69823D01*
X181331Y71293D01*
X179860Y72422D01*
X178147Y73131D01*
X177580Y73206D01*
Y58772D01*
Y44339D01*
X178147Y44414D01*
X179860Y45123D01*
X181331Y46251D01*
X182459Y47722D01*
X183168Y49435D01*
X183410Y51272D01*
Y52073D01*
X184680Y52326D01*
X184901Y51793D01*
X186530Y50164D01*
X188540Y49331D01*
Y55072D01*
Y60813D01*
X186530Y59981D01*
X184901Y58352D01*
X184680Y57819D01*
X183410Y58072D01*
Y65573D01*
X184680Y65826D01*
X184901Y65293D01*
X186530Y63664D01*
X188540Y62831D01*
Y68572D01*
Y74313D01*
D02*
G37*
G36*
X677706Y73222D02*
X676214D01*
X674836Y72652D01*
X674001Y71817D01*
X355260D01*
X354362Y71639D01*
X353601Y71131D01*
X340193Y57722D01*
X339014D01*
X337635Y57151D01*
X336581Y56097D01*
X336010Y54718D01*
Y53226D01*
X336581Y51848D01*
X337635Y50793D01*
X339014Y50222D01*
X340505D01*
X341884Y50793D01*
X342939Y51848D01*
X343510Y53226D01*
Y54406D01*
X356231Y67127D01*
X674001D01*
X674836Y66293D01*
X676214Y65722D01*
X677706D01*
X679084Y66293D01*
X680139Y67348D01*
X680710Y68727D01*
Y70218D01*
X680139Y71597D01*
X679084Y72652D01*
X677706Y73222D01*
D02*
G37*
G36*
X264080Y73206D02*
Y60042D01*
X269910D01*
Y66272D01*
X269668Y68110D01*
X268959Y69823D01*
X267831Y71293D01*
X266360Y72422D01*
X264648Y73131D01*
X264080Y73206D01*
D02*
G37*
G36*
X175040D02*
X174472Y73131D01*
X172759Y72422D01*
X171289Y71293D01*
X170160Y69823D01*
X169451Y68110D01*
X169209Y66272D01*
Y60042D01*
X175040D01*
Y73206D01*
D02*
G37*
G36*
X591646Y65550D02*
X590154D01*
X588776Y64979D01*
X587721Y63924D01*
X587150Y62546D01*
Y61054D01*
X587721Y59676D01*
X588776Y58621D01*
X590154Y58050D01*
X591646D01*
X593024Y58621D01*
X594079Y59676D01*
X594650Y61054D01*
Y62546D01*
X594079Y63924D01*
X593024Y64979D01*
X591646Y65550D01*
D02*
G37*
G36*
X575906D02*
X574414D01*
X573036Y64979D01*
X571981Y63924D01*
X571410Y62546D01*
Y61054D01*
X571981Y59676D01*
X573036Y58621D01*
X574414Y58050D01*
X575906D01*
X577284Y58621D01*
X578339Y59676D01*
X578910Y61054D01*
Y62546D01*
X578339Y63924D01*
X577284Y64979D01*
X575906Y65550D01*
D02*
G37*
G36*
X543576Y57722D02*
X542084D01*
X540705Y57151D01*
X539651Y56097D01*
X539080Y54718D01*
Y53226D01*
X539651Y51848D01*
X540705Y50793D01*
X542084Y50222D01*
X543576D01*
X544954Y50793D01*
X546009Y51848D01*
X546580Y53226D01*
Y54718D01*
X546009Y56097D01*
X544954Y57151D01*
X543576Y57722D01*
D02*
G37*
G36*
X486076D02*
X484584D01*
X483205Y57151D01*
X482151Y56097D01*
X481580Y54718D01*
Y53226D01*
X482151Y51848D01*
X483205Y50793D01*
X484584Y50222D01*
X486076D01*
X487454Y50793D01*
X488509Y51848D01*
X489080Y53226D01*
Y54718D01*
X488509Y56097D01*
X487454Y57151D01*
X486076Y57722D01*
D02*
G37*
G36*
X428576D02*
X427084D01*
X425705Y57151D01*
X424651Y56097D01*
X424080Y54718D01*
Y53226D01*
X424651Y51848D01*
X425705Y50793D01*
X427084Y50222D01*
X428576D01*
X429954Y50793D01*
X431009Y51848D01*
X431580Y53226D01*
Y54718D01*
X431009Y56097D01*
X429954Y57151D01*
X428576Y57722D01*
D02*
G37*
G36*
X788827Y54430D02*
X788770D01*
Y45620D01*
X797580D01*
Y45677D01*
X796893Y48241D01*
X795566Y50539D01*
X793689Y52416D01*
X791391Y53743D01*
X788827Y54430D01*
D02*
G37*
G36*
X786230D02*
X786173D01*
X783609Y53743D01*
X781311Y52416D01*
X779434Y50539D01*
X778107Y48241D01*
X777420Y45677D01*
Y45620D01*
X786230D01*
Y54430D01*
D02*
G37*
G36*
X281646Y87550D02*
X280154D01*
X278776Y86979D01*
X277721Y85924D01*
X277150Y84546D01*
Y83054D01*
X277721Y81676D01*
X278555Y80842D01*
Y53767D01*
X269905Y45118D01*
X268439D01*
X268057Y45829D01*
X267935Y46388D01*
X268959Y47722D01*
X269668Y49435D01*
X269910Y51272D01*
Y57502D01*
X262810D01*
Y58772D01*
X261540D01*
Y73206D01*
X260972Y73131D01*
X259259Y72422D01*
X257789Y71293D01*
X256660Y69823D01*
X256370Y69121D01*
X255100Y69374D01*
Y69724D01*
X254218Y71852D01*
X252589Y73481D01*
X250580Y74313D01*
Y68572D01*
Y62831D01*
X252589Y63664D01*
X254218Y65293D01*
X254439Y65826D01*
X255709Y65573D01*
Y58072D01*
X254439Y57819D01*
X254218Y58352D01*
X252589Y59981D01*
X250580Y60813D01*
Y55072D01*
X248040D01*
Y60813D01*
X246030Y59981D01*
X244401Y58352D01*
X244273Y58327D01*
X243500Y59099D01*
X241754Y59822D01*
X239865D01*
X238119Y59099D01*
X237389Y58370D01*
X236560Y57892D01*
X235730Y58370D01*
X235000Y59099D01*
X233255Y59822D01*
X231365D01*
X229619Y59099D01*
X228889Y58370D01*
X228060Y57892D01*
X227230Y58370D01*
X226500Y59099D01*
X224755Y59822D01*
X222865D01*
X221119Y59099D01*
X220389Y58370D01*
X219560Y57892D01*
X218730Y58370D01*
X218000Y59099D01*
X216255Y59822D01*
X214365D01*
X212619Y59099D01*
X211889Y58370D01*
X211060Y57892D01*
X210230Y58370D01*
X209500Y59099D01*
X207754Y59822D01*
X205865D01*
X204119Y59099D01*
X203389Y58370D01*
X202560Y57892D01*
X201730Y58370D01*
X201000Y59099D01*
X199254Y59822D01*
X197365D01*
X195619Y59099D01*
X194846Y58327D01*
X194718Y58352D01*
X193089Y59981D01*
X191080Y60813D01*
Y55072D01*
Y49331D01*
X193089Y50164D01*
X194718Y51793D01*
X194846Y51818D01*
X195619Y51045D01*
X197365Y50322D01*
X199254D01*
X201000Y51045D01*
X201730Y51775D01*
X202560Y52253D01*
X203389Y51775D01*
X204119Y51045D01*
X205865Y50322D01*
X207754D01*
X209500Y51045D01*
X210230Y51775D01*
X211060Y52253D01*
X211889Y51775D01*
X212619Y51045D01*
X214365Y50322D01*
X216255D01*
X218000Y51045D01*
X218730Y51775D01*
X219560Y52253D01*
X220389Y51775D01*
X221119Y51045D01*
X222865Y50322D01*
X224755D01*
X226500Y51045D01*
X227230Y51775D01*
X228060Y52253D01*
X228889Y51775D01*
X229619Y51045D01*
X231365Y50322D01*
X233255D01*
X233600Y50465D01*
X242951Y41114D01*
X242951Y41114D01*
X243712Y40606D01*
X244610Y40427D01*
X270877D01*
X270877Y40427D01*
X271774Y40606D01*
X272535Y41114D01*
X282558Y51137D01*
X282558Y51137D01*
X283067Y51898D01*
X283245Y52796D01*
Y80842D01*
X284079Y81676D01*
X284650Y83054D01*
Y84546D01*
X284079Y85924D01*
X283024Y86979D01*
X281646Y87550D01*
D02*
G37*
G36*
X175040Y57502D02*
X169209D01*
Y51272D01*
X169451Y49435D01*
X170160Y47722D01*
X171289Y46251D01*
X172759Y45123D01*
X174472Y44414D01*
X175040Y44339D01*
Y57502D01*
D02*
G37*
G36*
X763690Y53390D02*
X761310D01*
X759011Y52774D01*
X756949Y51584D01*
X755266Y49901D01*
X754076Y47839D01*
X753460Y45540D01*
Y43160D01*
X754076Y40861D01*
X755266Y38799D01*
X756949Y37116D01*
X759011Y35926D01*
X761310Y35310D01*
X763690D01*
X765989Y35926D01*
X768051Y37116D01*
X769734Y38799D01*
X770924Y40861D01*
X771540Y43160D01*
Y45540D01*
X770924Y47839D01*
X769734Y49901D01*
X768051Y51584D01*
X765989Y52774D01*
X763690Y53390D01*
D02*
G37*
G36*
X738690D02*
X736310D01*
X734011Y52774D01*
X731949Y51584D01*
X730266Y49901D01*
X729076Y47839D01*
X728460Y45540D01*
Y43160D01*
X729076Y40861D01*
X730266Y38799D01*
X731949Y37116D01*
X734011Y35926D01*
X736310Y35310D01*
X738690D01*
X740989Y35926D01*
X743051Y37116D01*
X744734Y38799D01*
X745924Y40861D01*
X746540Y43160D01*
Y45540D01*
X745924Y47839D01*
X744734Y49901D01*
X743051Y51584D01*
X740989Y52774D01*
X738690Y53390D01*
D02*
G37*
G36*
X797580Y43080D02*
X788770D01*
Y34270D01*
X788827D01*
X791391Y34957D01*
X793689Y36284D01*
X795566Y38161D01*
X796893Y40459D01*
X797580Y43023D01*
Y43080D01*
D02*
G37*
G36*
X786230D02*
X777420D01*
Y43023D01*
X778107Y40459D01*
X779434Y38161D01*
X781311Y36284D01*
X783609Y34957D01*
X786173Y34270D01*
X786230D01*
Y43080D01*
D02*
G37*
G36*
X264080Y35906D02*
Y26242D01*
X269910D01*
Y28972D01*
X269668Y30810D01*
X268959Y32523D01*
X267831Y33993D01*
X266360Y35122D01*
X264648Y35831D01*
X264080Y35906D01*
D02*
G37*
G36*
X177580D02*
Y26242D01*
X183410D01*
Y28972D01*
X183168Y30810D01*
X182459Y32523D01*
X181331Y33993D01*
X179860Y35122D01*
X178147Y35831D01*
X177580Y35906D01*
D02*
G37*
G36*
X261540D02*
X260972Y35831D01*
X259259Y35122D01*
X257789Y33993D01*
X256660Y32523D01*
X255951Y30810D01*
X255709Y28972D01*
Y26242D01*
X261540D01*
Y35906D01*
D02*
G37*
G36*
X175040D02*
X174472Y35831D01*
X172759Y35122D01*
X171289Y33993D01*
X170160Y32523D01*
X169451Y30810D01*
X169209Y28972D01*
Y26242D01*
X175040D01*
Y35906D01*
D02*
G37*
G36*
X629922Y44786D02*
X602998D01*
X601850Y44310D01*
X601374Y43162D01*
Y25382D01*
X601850Y24234D01*
X602998Y23759D01*
X629922D01*
X631070Y24234D01*
X631545Y25382D01*
Y43162D01*
X631070Y44310D01*
X629922Y44786D01*
D02*
G37*
G36*
X348523Y28082D02*
X346136D01*
X343931Y27169D01*
X342243Y25481D01*
X341330Y23276D01*
Y20889D01*
X342243Y18684D01*
X343931Y16996D01*
X346136Y16082D01*
X348523D01*
X350728Y16996D01*
X352416Y18684D01*
X353330Y20889D01*
Y23276D01*
X352416Y25481D01*
X350728Y27169D01*
X348523Y28082D01*
D02*
G37*
G36*
X318523D02*
X316136D01*
X313931Y27169D01*
X312243Y25481D01*
X311330Y23276D01*
Y20889D01*
X312243Y18684D01*
X313931Y16996D01*
X316136Y16082D01*
X318523D01*
X320728Y16996D01*
X322416Y18684D01*
X323330Y20889D01*
Y23276D01*
X322416Y25481D01*
X320728Y27169D01*
X318523Y28082D01*
D02*
G37*
G36*
X261540Y23702D02*
X255709D01*
Y20972D01*
X255951Y19135D01*
X256660Y17422D01*
X257789Y15951D01*
X259259Y14823D01*
X260972Y14114D01*
X261540Y14039D01*
Y23702D01*
D02*
G37*
G36*
X175040D02*
X169209D01*
Y20972D01*
X169451Y19135D01*
X170160Y17422D01*
X171289Y15951D01*
X172759Y14823D01*
X174472Y14114D01*
X175040Y14039D01*
Y23702D01*
D02*
G37*
G36*
X269910D02*
X264080D01*
Y14039D01*
X264648Y14114D01*
X266360Y14823D01*
X267831Y15951D01*
X268959Y17422D01*
X269668Y19135D01*
X269910Y20972D01*
Y23702D01*
D02*
G37*
G36*
X183410D02*
X177580D01*
Y14039D01*
X178147Y14114D01*
X179860Y14823D01*
X181331Y15951D01*
X182459Y17422D01*
X183168Y19135D01*
X183410Y20972D01*
Y23702D01*
D02*
G37*
%LPD*%
D71*
X347330Y22082D02*
D03*
X317330D02*
D03*
D87*
X334849Y731700D02*
Y787449D01*
Y650172D02*
Y731700D01*
X377210Y829810D02*
X395454Y816894D01*
X334849Y787449D02*
X377210Y829810D01*
X334849Y650172D02*
X404360D01*
X314894D02*
X334849D01*
X315100Y731700D02*
X334849D01*
X906685Y700316D02*
X921711D01*
X924640Y697387D01*
Y569754D02*
Y697387D01*
X914486Y559600D02*
X924640Y569754D01*
X905000Y702000D02*
X906685Y700316D01*
X788660Y559600D02*
X914486D01*
X586400Y373229D02*
X589329Y370300D01*
X679600D01*
X586400Y373229D02*
Y380100D01*
X679600Y370300D02*
X689300Y380000D01*
X286372Y650172D02*
X314894D01*
X315100Y650378D01*
X258200Y622000D02*
X286372Y650172D01*
X404360D02*
X431560Y677372D01*
X679400Y426800D02*
X689300Y416900D01*
Y380000D02*
Y416900D01*
X738787Y559600D02*
X788660D01*
X659560Y480372D02*
X738787Y559600D01*
X788660Y524772D02*
Y559600D01*
X581810Y480372D02*
X659560D01*
X575960D02*
X581810D01*
X679400Y384300D02*
Y401678D01*
X675200Y380100D02*
X679400Y384300D01*
X596500Y380100D02*
X675200D01*
X485700Y467800D02*
X485728Y467772D01*
X563360D01*
X575960Y480372D01*
X418060Y677372D02*
X431560D01*
X404060Y691372D02*
X418060Y677372D01*
D88*
X87700Y625800D02*
X142100D01*
X66900D02*
X87700D01*
Y628500D02*
X124900Y665700D01*
X87700Y625800D02*
Y628500D01*
X208000Y524772D02*
Y559900D01*
X142100Y625800D02*
X208000Y559900D01*
X572300Y957700D02*
X878800Y651200D01*
X477300Y924800D02*
Y945000D01*
X478237Y957700D02*
X572300D01*
X477300Y945000D02*
Y956763D01*
X478237Y957700D01*
X648000Y590237D02*
Y700640D01*
X617300Y731340D02*
Y820343D01*
Y731340D02*
X648000Y700640D01*
X473338Y490300D02*
X565617D01*
X360500D02*
X406310D01*
X407248Y507710D02*
X455927D01*
X473338Y490300D01*
X406310D02*
Y506773D01*
X407248Y507710D01*
X359252Y491548D02*
Y529022D01*
X565617Y490300D02*
X581810Y506492D01*
X359252Y491548D02*
X360500Y490300D01*
X311602Y529022D02*
X359252D01*
X285020Y501332D02*
X296570D01*
X307910Y525330D02*
X311602Y529022D01*
X307910Y512673D02*
Y525330D01*
X296570Y501332D02*
X307910Y512673D01*
X255080Y593620D02*
X370052D01*
X239700Y609000D02*
X255080Y593620D01*
X370052D02*
X387000Y576672D01*
X364330Y580970D02*
X377000Y568300D01*
X229100Y599600D02*
X247730Y580970D01*
X364330D01*
X603570Y911800D02*
X687066Y828304D01*
X502860Y911800D02*
X603570D01*
X687066Y828304D02*
X687066D01*
X889570Y625800D02*
X905000D01*
X687066Y828304D02*
X889570Y625800D01*
X664900Y580137D02*
Y701481D01*
X691283Y702330D02*
X692220Y703267D01*
X665750Y702330D02*
X691283D01*
X692220Y703267D02*
Y730763D01*
X664900Y701481D02*
X665750Y702330D01*
X664900Y731700D02*
X691283D01*
X692220Y730763D01*
X588932Y821280D02*
X616363D01*
X584546Y816894D02*
X588932Y821280D01*
X616363D02*
X617300Y820343D01*
X438976Y885209D02*
X631100Y693084D01*
Y597637D02*
Y693084D01*
X630163Y596700D02*
X631100Y597637D01*
X550827Y596700D02*
X630163D01*
X647063Y589300D02*
X648000Y590237D01*
X551927Y589300D02*
X647063D01*
X663963Y579200D02*
X664900Y580137D01*
X587600Y579200D02*
X663963D01*
X345600Y911800D02*
X502860D01*
X502700Y911961D02*
X502860Y911800D01*
X502700Y911961D02*
Y945000D01*
X117300Y683500D02*
X345600Y911800D01*
X201000Y588880D02*
Y606800D01*
X220611Y569269D02*
X358657D01*
X201000Y588880D02*
X220611Y569269D01*
X75000Y651200D02*
X75000Y651200D01*
X85000D01*
X57290Y635410D02*
Y709381D01*
X70510Y722600D02*
X126700D01*
X57290Y709381D02*
X70510Y722600D01*
X57290Y635410D02*
X66900Y625800D01*
X368126Y516537D02*
Y559800D01*
X358657Y569269D02*
X368126Y559800D01*
X377000Y525437D02*
Y568300D01*
X229100Y599600D02*
Y652200D01*
X466427Y546300D02*
X481500Y561372D01*
X430952Y524500D02*
X452752Y546300D01*
X466427D01*
X377937Y524500D02*
X430952D01*
X369063Y515600D02*
X429628D01*
X446900Y532872D01*
X355260Y69472D02*
X676960D01*
X339760Y53972D02*
X355260Y69472D01*
X368126Y516537D02*
X369063Y515600D01*
X878800Y651200D02*
X905000D01*
X472000Y919500D02*
X477300Y924800D01*
X126700Y722600D02*
X323600Y919500D01*
X472000D01*
X372810Y606422D02*
X394060Y585172D01*
X434060D01*
X257478Y606422D02*
X372810D01*
X248400Y615500D02*
X257478Y606422D01*
X454460Y599226D02*
Y658772D01*
X444260Y599172D02*
X454514D01*
X454460Y599226D02*
X454514Y599172D01*
X248400Y615500D02*
Y678100D01*
X243000Y683500D02*
X248400Y678100D01*
X117300Y683500D02*
X243000D01*
X85000Y651200D02*
X117300Y683500D01*
X124900Y665700D02*
X238763D01*
X239700Y664763D01*
Y609000D02*
Y664763D01*
X387000Y576672D02*
X434060D01*
X600698Y679102D02*
X610460Y669341D01*
Y652772D02*
Y669341D01*
X445198Y679102D02*
X600698D01*
X432000Y665904D02*
X445198Y679102D01*
X432000Y653300D02*
Y665904D01*
X574680Y576800D02*
X579680Y571800D01*
X825000D01*
X860000Y606800D01*
X524000Y561372D02*
X551927Y589300D01*
X515500Y561372D02*
X550827Y596700D01*
X377000Y525437D02*
X377937Y524500D01*
X444260Y577610D02*
Y599172D01*
X434060Y576672D02*
X443322D01*
X244610Y42772D02*
X270877D01*
X232310Y55072D02*
X244610Y42772D01*
X521326Y514799D02*
X532550Y526022D01*
X538752Y533236D02*
X541010Y530978D01*
Y526022D02*
Y530978D01*
X280900Y52796D02*
Y83800D01*
X270877Y42772D02*
X280900Y52796D01*
X547514Y561926D02*
X553890Y568302D01*
X543410Y497122D02*
X547514Y501226D01*
Y561926D01*
X564260Y497172D02*
X574680Y507592D01*
X521326Y497172D02*
Y514799D01*
X499860Y497172D02*
Y532299D01*
X574680Y507592D02*
Y559782D01*
X499860Y532299D02*
X500797Y533236D01*
X538752D01*
X553890Y568302D02*
X574680D01*
X443322Y576672D02*
X444260Y577610D01*
D91*
X490860Y561372D02*
X491203Y561716D01*
Y563183D01*
X491742Y563722D01*
X496477D02*
X497016Y563183D01*
X474761Y571965D02*
X486783D01*
X497016Y561716D02*
X497360Y561372D01*
X486783Y571965D02*
X491742Y567006D01*
Y563722D02*
Y567006D01*
X472800Y576700D02*
X488744D01*
X496477Y563722D02*
Y568967D01*
X488744Y576700D02*
X496477Y568967D01*
X497016Y561716D02*
Y563183D01*
X425303Y550665D02*
X453461D01*
X451500Y555400D02*
X472800Y576700D01*
X453461Y550665D02*
X474761Y571965D01*
X412693Y538055D02*
X425303Y550665D01*
X387309Y538055D02*
X412693D01*
X386770Y537516D02*
X387309Y538055D01*
X385303Y537516D02*
X386770D01*
X423342Y555400D02*
X451500D01*
X386770Y543329D02*
X387309Y542790D01*
X384960Y543672D02*
X385303Y543329D01*
X387309Y542790D02*
X410732D01*
X423342Y555400D01*
X384960Y537172D02*
X385303Y537516D01*
Y543329D02*
X386770D01*
X233329Y541908D02*
Y545845D01*
X238617Y551133D01*
X234250Y540500D02*
Y540986D01*
X236655Y555868D02*
X281468D01*
X228594Y547806D02*
X236655Y555868D01*
X228594Y542115D02*
X228594Y542115D01*
Y547806D01*
X228594Y540844D02*
Y542115D01*
X233329Y541908D02*
X234250Y540986D01*
X281468Y555868D02*
X282100Y556500D01*
X281468Y551133D02*
X282100Y550500D01*
X238617Y551133D02*
X281468D01*
X228250Y540500D02*
X228594Y540844D01*
D93*
X363518Y391572D02*
X531560D01*
X569632Y353500D02*
X695500D01*
X531560Y391572D02*
X569632Y353500D01*
X363518Y439372D02*
X383940D01*
X695500Y353500D02*
X698500D01*
X353560Y429414D02*
X363518Y439372D01*
X353560Y401531D02*
Y429414D01*
Y401531D02*
X363518Y391572D01*
D94*
X765500Y606800D02*
D03*
X873500D02*
D03*
X106500D02*
D03*
X214500D02*
D03*
D95*
X664900Y826200D02*
D03*
Y718200D02*
D03*
X315100Y718200D02*
D03*
Y826200D02*
D03*
D96*
X533771Y896595D02*
D03*
X591799Y805508D02*
D03*
D97*
X388201D02*
D03*
X446229Y896595D02*
D03*
D98*
X705000Y158600D02*
D03*
X275000D02*
D03*
X170000Y476370D02*
D03*
Y117370D02*
D03*
X810000Y476370D02*
D03*
Y117370D02*
D03*
D99*
X553500Y945000D02*
D03*
X528100D02*
D03*
X502700D02*
D03*
X477300D02*
D03*
X426500D02*
D03*
X451900D02*
D03*
X905000Y702000D02*
D03*
Y676600D02*
D03*
Y651200D02*
D03*
Y625800D02*
D03*
Y600400D02*
D03*
Y575000D02*
D03*
X75000Y575000D02*
D03*
Y600400D02*
D03*
Y625800D02*
D03*
Y651200D02*
D03*
Y676600D02*
D03*
Y702000D02*
D03*
D102*
X485760Y448972D02*
D03*
Y441472D02*
D03*
Y433972D02*
D03*
D103*
X787500Y44350D02*
D03*
X737500D02*
D03*
X762500D02*
D03*
D104*
X262810Y58772D02*
D03*
X176310D02*
D03*
D105*
X262810Y24972D02*
D03*
X176310D02*
D03*
D106*
X189810Y55072D02*
D03*
X249310D02*
D03*
Y68572D02*
D03*
X189810D02*
D03*
X198310Y55072D02*
D03*
X206810D02*
D03*
X215310D02*
D03*
X223810D02*
D03*
X232310D02*
D03*
X240810D02*
D03*
Y68572D02*
D03*
X232310D02*
D03*
X223810D02*
D03*
X215310D02*
D03*
X206810D02*
D03*
X198310D02*
D03*
D107*
X490000Y90100D02*
D03*
Y227100D02*
D03*
D109*
X180700Y524772D02*
D03*
X208000D02*
D03*
X420100Y489700D02*
D03*
X316300Y518700D02*
D03*
X610500Y627700D02*
D03*
X589200D02*
D03*
X527400Y623800D02*
D03*
X673064Y607600D02*
D03*
X546100Y418200D02*
D03*
Y430200D02*
D03*
X554900Y451200D02*
D03*
X551200Y459800D02*
D03*
X545300Y475100D02*
D03*
X530500D02*
D03*
X515700D02*
D03*
X500900D02*
D03*
X357634Y558100D02*
D03*
X383900D02*
D03*
X497360Y561372D02*
D03*
X490860D02*
D03*
X481500D02*
D03*
X420060Y532872D02*
D03*
X833000Y607600D02*
D03*
X622600D02*
D03*
X615900Y563000D02*
D03*
X500800Y379200D02*
D03*
X420100Y471638D02*
D03*
X431700Y404300D02*
D03*
X390100Y498500D02*
D03*
Y509300D02*
D03*
X459300Y480900D02*
D03*
X420100Y497900D02*
D03*
Y480800D02*
D03*
Y441804D02*
D03*
Y432201D02*
D03*
Y423200D02*
D03*
X452860Y474342D02*
D03*
Y464174D02*
D03*
Y454882D02*
D03*
Y445919D02*
D03*
Y437267D02*
D03*
X452860Y429072D02*
D03*
X458200Y419000D02*
D03*
X454100Y379200D02*
D03*
X443200D02*
D03*
X432300D02*
D03*
X432600Y426000D02*
D03*
X453800Y408500D02*
D03*
X461300Y410200D02*
D03*
X420100Y414900D02*
D03*
Y404300D02*
D03*
X443300D02*
D03*
X390200Y379200D02*
D03*
X375500D02*
D03*
X404900D02*
D03*
X419600D02*
D03*
X460500Y369200D02*
D03*
X449311D02*
D03*
X438700D02*
D03*
X425500D02*
D03*
X363700Y361500D02*
D03*
X282100Y556500D02*
D03*
Y550500D02*
D03*
X234250Y540500D02*
D03*
X228250D02*
D03*
X298620Y542212D02*
D03*
X477100Y379200D02*
D03*
X219360Y112272D02*
D03*
X339760Y53972D02*
D03*
X350314Y662722D02*
D03*
X395454Y816894D02*
D03*
X315100Y731700D02*
D03*
X438976Y885209D02*
D03*
X258200Y622000D02*
D03*
X229100Y652200D02*
D03*
X432000Y653300D02*
D03*
X860000Y606800D02*
D03*
X574680Y576800D02*
D03*
X664900Y731700D02*
D03*
X587600Y579200D02*
D03*
X584546Y816894D02*
D03*
X524000Y561372D02*
D03*
X515500D02*
D03*
X539700Y607800D02*
D03*
X201000Y606800D02*
D03*
X446900Y532872D02*
D03*
X581810Y506492D02*
D03*
X434060Y576672D02*
D03*
Y585172D02*
D03*
X397560Y643672D02*
D03*
X287400Y451200D02*
D03*
X432900Y613200D02*
D03*
X444260Y664972D02*
D03*
X432900Y620950D02*
D03*
X676960Y69472D02*
D03*
X590900Y61800D02*
D03*
X542830Y53972D02*
D03*
X485330D02*
D03*
X575160Y61800D02*
D03*
X589160Y652922D02*
D03*
X764260Y524772D02*
D03*
X523200Y526022D02*
D03*
X532105D02*
D03*
X541010D02*
D03*
X280900Y83800D02*
D03*
X288000Y426800D02*
D03*
Y401678D02*
D03*
X679400D02*
D03*
X695500Y353500D02*
D03*
X701500D02*
D03*
X596500Y380100D02*
D03*
X679400Y426800D02*
D03*
X586400Y380100D02*
D03*
X485700Y467800D02*
D03*
X610460Y652772D02*
D03*
X459960Y642272D02*
D03*
X350314Y643672D02*
D03*
X404060Y691372D02*
D03*
X384960Y543672D02*
D03*
Y537172D02*
D03*
X427830Y53972D02*
D03*
X788660Y524772D02*
D03*
X564260Y497172D02*
D03*
X499860D02*
D03*
X543410Y497122D02*
D03*
X521326Y497172D02*
D03*
X383760Y442572D02*
D03*
Y436572D02*
D03*
X531460Y394672D02*
D03*
Y388672D02*
D03*
X457560Y570672D02*
D03*
Y580172D02*
D03*
X581810Y480372D02*
D03*
X285020Y501332D02*
D03*
X454460Y658772D02*
D03*
X457560Y591872D02*
D03*
X431560Y677372D02*
D03*
X574680Y568302D02*
D03*
X499690Y672462D02*
D03*
X581810Y494562D02*
D03*
X452870Y521732D02*
D03*
X383600Y410412D02*
D03*
X373650D02*
D03*
X574680Y559782D02*
D03*
X626430Y410412D02*
D03*
X616480D02*
D03*
X298620Y521732D02*
D03*
Y531972D02*
D03*
D110*
X550200Y347300D02*
D03*
X531400Y370700D02*
D03*
X506300Y260600D02*
D03*
X473700D02*
D03*
X455700Y325300D02*
D03*
X450400Y312000D02*
D03*
Y301300D02*
D03*
X529600D02*
D03*
Y312000D02*
D03*
X541420Y289100D02*
D03*
X438580D02*
D03*
X524300Y325300D02*
D03*
M02*
