G04*
G04 #@! TF.GenerationSoftware,Altium Limited,Altium Designer,23.1.1 (15)*
G04*
G04 Layer_Color=32896*
%FSLAX44Y44*%
%MOMM*%
G71*
G04*
G04 #@! TF.SameCoordinates,6E2E4CF0-E359-4451-A4CD-7E5F78DB66F6*
G04*
G04*
G04 #@! TF.FilePolarity,Positive*
G04*
G01*
G75*
%ADD10C,0.1270*%
%ADD11C,0.2000*%
%ADD12C,0.2540*%
%ADD14C,0.1000*%
G36*
X569773Y171514D02*
X571499D01*
Y171370D01*
X572507D01*
Y171227D01*
X573370D01*
Y171083D01*
X573945D01*
Y170939D01*
X574521D01*
Y170795D01*
X574953D01*
Y170651D01*
X575384D01*
Y170507D01*
X575816D01*
Y170363D01*
X576104D01*
Y170219D01*
X576535D01*
Y170075D01*
X576823D01*
Y169932D01*
X577111D01*
Y169788D01*
X577398D01*
Y169644D01*
X577686D01*
Y169500D01*
X577830D01*
Y169356D01*
X578118D01*
Y169212D01*
X578262D01*
Y169068D01*
X578550D01*
Y168924D01*
X578694D01*
Y168780D01*
X578837D01*
Y168637D01*
X579125D01*
Y168493D01*
X579269D01*
Y168349D01*
X579413D01*
Y168205D01*
X579557D01*
Y168061D01*
X579701D01*
Y167917D01*
X579845D01*
Y167773D01*
X579988D01*
Y167630D01*
X580132D01*
Y167486D01*
X580276D01*
Y167342D01*
X580420D01*
Y167198D01*
X580564D01*
Y167054D01*
X580708D01*
Y166910D01*
X580852D01*
Y166622D01*
X580995D01*
Y166479D01*
X581139D01*
Y166191D01*
X581283D01*
Y166047D01*
X581427D01*
Y165759D01*
X581571D01*
Y165471D01*
X581715D01*
Y165184D01*
X581859D01*
Y164896D01*
X582003D01*
Y164608D01*
X582147D01*
Y164176D01*
X582290D01*
Y163745D01*
X582434D01*
Y163169D01*
X582578D01*
Y162306D01*
X582722D01*
Y161299D01*
X573514D01*
Y161730D01*
X573370D01*
Y162306D01*
X573226D01*
Y162738D01*
X573082D01*
Y163025D01*
X572938D01*
Y163313D01*
X572794D01*
Y163457D01*
X572650D01*
Y163745D01*
X572507D01*
Y163889D01*
X572363D01*
Y164032D01*
X572219D01*
Y164176D01*
X572075D01*
Y164320D01*
X571787D01*
Y164464D01*
X571643D01*
Y164608D01*
X571356D01*
Y164752D01*
X571068D01*
Y164896D01*
X570780D01*
Y165040D01*
X570349D01*
Y165184D01*
X569773D01*
Y165327D01*
X567902D01*
Y165184D01*
X567327D01*
Y165040D01*
X566895D01*
Y164896D01*
X566608D01*
Y164752D01*
X566464D01*
Y164608D01*
X566176D01*
Y164464D01*
X566032D01*
Y164320D01*
X565888D01*
Y164176D01*
X565744D01*
Y163889D01*
X565600D01*
Y163745D01*
X565457D01*
Y163313D01*
X565313D01*
Y161874D01*
X565457D01*
Y161587D01*
X565600D01*
Y161443D01*
X565744D01*
Y161299D01*
X565888D01*
Y161155D01*
X566032D01*
Y161011D01*
X566176D01*
Y160867D01*
X566464D01*
Y160723D01*
X566752D01*
Y160579D01*
X567039D01*
Y160436D01*
X567471D01*
Y160292D01*
X568046D01*
Y160148D01*
X568622D01*
Y160004D01*
X569341D01*
Y159860D01*
X570061D01*
Y159716D01*
X570924D01*
Y159572D01*
X571787D01*
Y159428D01*
X572650D01*
Y159284D01*
X573514D01*
Y159141D01*
X574377D01*
Y158997D01*
X575097D01*
Y158853D01*
X575672D01*
Y158709D01*
X576247D01*
Y158565D01*
X576679D01*
Y158421D01*
X577111D01*
Y158277D01*
X577542D01*
Y158133D01*
X577974D01*
Y157990D01*
X578406D01*
Y157846D01*
X578694D01*
Y157702D01*
X578981D01*
Y157558D01*
X579269D01*
Y157414D01*
X579557D01*
Y157270D01*
X579701D01*
Y157126D01*
X579988D01*
Y156982D01*
X580276D01*
Y156839D01*
X580420D01*
Y156695D01*
X580708D01*
Y156551D01*
X580852D01*
Y156407D01*
X580995D01*
Y156263D01*
X581139D01*
Y156119D01*
X581427D01*
Y155975D01*
X581571D01*
Y155831D01*
X581715D01*
Y155688D01*
X581859D01*
Y155544D01*
X582003D01*
Y155256D01*
X582147D01*
Y155112D01*
X582290D01*
Y154968D01*
X582434D01*
Y154824D01*
X582578D01*
Y154537D01*
X582722D01*
Y154393D01*
X582866D01*
Y154105D01*
X583010D01*
Y153817D01*
X583154D01*
Y153529D01*
X583298D01*
Y153242D01*
X583442D01*
Y152810D01*
X583585D01*
Y152522D01*
X583729D01*
Y151947D01*
X583873D01*
Y151227D01*
X584017D01*
Y150220D01*
X584161D01*
Y148350D01*
X584017D01*
Y147199D01*
X583873D01*
Y146623D01*
X583729D01*
Y146048D01*
X583585D01*
Y145760D01*
X583442D01*
Y145328D01*
X583298D01*
Y145040D01*
X583154D01*
Y144897D01*
X583010D01*
Y144609D01*
X582866D01*
Y144465D01*
X582722D01*
Y144177D01*
X582578D01*
Y144033D01*
X582434D01*
Y143889D01*
X582290D01*
Y143745D01*
X582147D01*
Y143602D01*
X582003D01*
Y143458D01*
X581859D01*
Y143314D01*
X581715D01*
Y143170D01*
X581571D01*
Y143026D01*
X581283D01*
Y142882D01*
X581139D01*
Y142738D01*
X580852D01*
Y142594D01*
X580708D01*
Y142451D01*
X580420D01*
Y142307D01*
X580132D01*
Y142163D01*
X579701D01*
Y142019D01*
X579413D01*
Y141875D01*
X578981D01*
Y141731D01*
X578550D01*
Y141587D01*
X577974D01*
Y141444D01*
X577111D01*
Y141300D01*
X575816D01*
Y141156D01*
X573802D01*
Y141300D01*
X572219D01*
Y141444D01*
X571499D01*
Y141587D01*
X570924D01*
Y141731D01*
X570349D01*
Y141875D01*
X569917D01*
Y142019D01*
X569485D01*
Y142163D01*
X569197D01*
Y142307D01*
X568766D01*
Y142451D01*
X568478D01*
Y142594D01*
X568190D01*
Y142738D01*
X567902D01*
Y142882D01*
X567615D01*
Y143026D01*
X567327D01*
Y143170D01*
X567183D01*
Y143314D01*
X566895D01*
Y143458D01*
X566752D01*
Y143602D01*
X566464D01*
Y143745D01*
X566320D01*
Y143889D01*
X566032D01*
Y144033D01*
X565888D01*
Y144177D01*
X565744D01*
Y144321D01*
X565600D01*
Y144465D01*
X565313D01*
Y143889D01*
X565169D01*
Y143314D01*
X565025D01*
Y142882D01*
X564881D01*
Y142594D01*
X564737D01*
Y142307D01*
X564593D01*
Y142163D01*
X564449D01*
Y141875D01*
X554953D01*
Y142163D01*
X554809D01*
Y142451D01*
X554953D01*
Y142738D01*
X555097D01*
Y142882D01*
X555241D01*
Y143170D01*
X555385D01*
Y143314D01*
X555529D01*
Y143745D01*
X555673D01*
Y144177D01*
X555817D01*
Y144609D01*
X555961D01*
Y144753D01*
Y144897D01*
Y145184D01*
X556104D01*
Y146767D01*
X556248D01*
Y148350D01*
X556104D01*
Y151803D01*
X556248D01*
Y151947D01*
X556104D01*
Y152234D01*
X556248D01*
Y155975D01*
X556104D01*
Y161443D01*
X556248D01*
Y164464D01*
X556392D01*
Y165040D01*
X556536D01*
Y165471D01*
X556680D01*
Y165903D01*
X556824D01*
Y166335D01*
X556968D01*
Y166622D01*
X557112D01*
Y166910D01*
X557255D01*
Y167054D01*
X557399D01*
Y167342D01*
X557543D01*
Y167486D01*
X557687D01*
Y167630D01*
X557831D01*
Y167917D01*
X557975D01*
Y168061D01*
X558119D01*
Y168205D01*
X558263D01*
Y168349D01*
X558406D01*
Y168493D01*
X558550D01*
Y168637D01*
X558694D01*
Y168780D01*
X558838D01*
Y168924D01*
X559126D01*
Y169068D01*
X559270D01*
Y169212D01*
X559414D01*
Y169356D01*
X559701D01*
Y169500D01*
X559989D01*
Y169644D01*
X560133D01*
Y169788D01*
X560421D01*
Y169932D01*
X560709D01*
Y170075D01*
X560996D01*
Y170219D01*
X561284D01*
Y170363D01*
X561716D01*
Y170507D01*
X562147D01*
Y170651D01*
X562579D01*
Y170795D01*
X563011D01*
Y170939D01*
X563586D01*
Y171083D01*
X564305D01*
Y171227D01*
X565025D01*
Y171370D01*
X566176D01*
Y171514D01*
X568046D01*
Y171658D01*
X569773D01*
Y171514D01*
D02*
G37*
G36*
X440138D02*
X442008D01*
Y171370D01*
X443015D01*
Y171227D01*
X443735D01*
Y171083D01*
X444454D01*
Y170939D01*
X445029D01*
Y170795D01*
X445461D01*
Y170651D01*
X445893D01*
Y170507D01*
X446325D01*
Y170363D01*
X446612D01*
Y170219D01*
X447044D01*
Y170075D01*
X447332D01*
Y169932D01*
X447619D01*
Y169788D01*
X447907D01*
Y169644D01*
X448195D01*
Y169500D01*
X448483D01*
Y169356D01*
X448627D01*
Y169212D01*
X448914D01*
Y169068D01*
X449058D01*
Y168924D01*
X449346D01*
Y168780D01*
X449490D01*
Y168637D01*
X449634D01*
Y168493D01*
X449778D01*
Y168349D01*
X450065D01*
Y168205D01*
X450209D01*
Y168061D01*
X450353D01*
Y167917D01*
X450497D01*
Y167773D01*
X450641D01*
Y167630D01*
X450785D01*
Y167486D01*
X450929D01*
Y167342D01*
X451073D01*
Y167054D01*
X451216D01*
Y166910D01*
X451360D01*
Y166766D01*
X451504D01*
Y166622D01*
X451648D01*
Y166335D01*
X451792D01*
Y166191D01*
X451936D01*
Y165903D01*
X452080D01*
Y165615D01*
X452224D01*
Y165327D01*
X452367D01*
Y165040D01*
X452511D01*
Y164608D01*
X452655D01*
Y164320D01*
X452799D01*
Y163889D01*
X452943D01*
Y163313D01*
X453087D01*
Y162594D01*
X453231D01*
Y161299D01*
X444022D01*
Y162018D01*
X443879D01*
Y162450D01*
X443735D01*
Y162738D01*
X443591D01*
Y163025D01*
X443447D01*
Y163313D01*
X443303D01*
Y163601D01*
X443159D01*
Y163745D01*
X443015D01*
Y163889D01*
X442871D01*
Y164032D01*
X442728D01*
Y164176D01*
X442584D01*
Y164320D01*
X442296D01*
Y164464D01*
X442152D01*
Y164608D01*
X441864D01*
Y164752D01*
X441576D01*
Y164896D01*
X441289D01*
Y165040D01*
X440857D01*
Y165184D01*
X440138D01*
Y165327D01*
X438555D01*
Y165184D01*
X437836D01*
Y165040D01*
X437548D01*
Y164896D01*
X437260D01*
Y164752D01*
X436972D01*
Y164608D01*
X436828D01*
Y164464D01*
X436541D01*
Y164320D01*
X436397D01*
Y164032D01*
X436253D01*
Y163889D01*
X436109D01*
Y163601D01*
X435965D01*
Y163169D01*
X435821D01*
Y161874D01*
X435965D01*
Y161587D01*
X436109D01*
Y161443D01*
X436253D01*
Y161299D01*
X436397D01*
Y161155D01*
X436541D01*
Y161011D01*
X436684D01*
Y160867D01*
X436972D01*
Y160723D01*
X437260D01*
Y160579D01*
X437548D01*
Y160436D01*
X437979D01*
Y160292D01*
X438555D01*
Y160148D01*
X439131D01*
Y160004D01*
X439850D01*
Y159860D01*
X440569D01*
Y159716D01*
X441576D01*
Y159572D01*
X442440D01*
Y159428D01*
X443447D01*
Y159284D01*
X444166D01*
Y159141D01*
X445029D01*
Y158997D01*
X445749D01*
Y158853D01*
X446325D01*
Y158709D01*
X446756D01*
Y158565D01*
X447188D01*
Y158421D01*
X447619D01*
Y158277D01*
X448051D01*
Y158133D01*
X448483D01*
Y157990D01*
X448914D01*
Y157846D01*
X449202D01*
Y157702D01*
X449490D01*
Y157558D01*
X449778D01*
Y157414D01*
X450065D01*
Y157270D01*
X450209D01*
Y157126D01*
X450497D01*
Y156982D01*
X450785D01*
Y156839D01*
X450929D01*
Y156695D01*
X451216D01*
Y156551D01*
X451360D01*
Y156407D01*
X451504D01*
Y156263D01*
X451648D01*
Y156119D01*
X451936D01*
Y155975D01*
X452080D01*
Y155831D01*
X452224D01*
Y155688D01*
X452367D01*
Y155544D01*
X452511D01*
Y155400D01*
X452655D01*
Y155112D01*
X452799D01*
Y154968D01*
X452943D01*
Y154824D01*
X453087D01*
Y154537D01*
X453231D01*
Y154393D01*
X453374D01*
Y154105D01*
X453518D01*
Y153961D01*
X453662D01*
Y153673D01*
X453806D01*
Y153385D01*
X453950D01*
Y152954D01*
X454094D01*
Y152666D01*
X454238D01*
Y152234D01*
X454382D01*
Y151515D01*
X454526D01*
Y150652D01*
X454669D01*
Y147918D01*
X454526D01*
Y147055D01*
X454382D01*
Y146479D01*
X454238D01*
Y146048D01*
X454094D01*
Y145616D01*
X453950D01*
Y145472D01*
Y145328D01*
X453806D01*
Y145040D01*
X453662D01*
Y144753D01*
X453518D01*
Y144609D01*
X453374D01*
Y144321D01*
X453231D01*
Y144177D01*
X453087D01*
Y144033D01*
X452943D01*
Y143889D01*
X452799D01*
Y143745D01*
X452655D01*
Y143602D01*
X452511D01*
Y143458D01*
X452367D01*
Y143314D01*
X452224D01*
Y143170D01*
X452080D01*
Y143026D01*
X451792D01*
Y142882D01*
X451648D01*
Y142738D01*
X451360D01*
Y142594D01*
X451216D01*
Y142451D01*
X450929D01*
Y142307D01*
X450641D01*
Y142163D01*
X450353D01*
Y142019D01*
X449921D01*
Y141875D01*
X449490D01*
Y141731D01*
X449058D01*
Y141587D01*
X448483D01*
Y141444D01*
X447763D01*
Y141300D01*
X446468D01*
Y141156D01*
X444310D01*
Y141300D01*
X442871D01*
Y141444D01*
X442008D01*
Y141587D01*
X441432D01*
Y141731D01*
X441001D01*
Y141875D01*
X440569D01*
Y142019D01*
X439994D01*
Y142163D01*
X439706D01*
Y142307D01*
X439274D01*
Y142451D01*
X438987D01*
Y142594D01*
X438699D01*
Y142738D01*
X438555D01*
Y142882D01*
X438267D01*
Y143026D01*
X437979D01*
Y143170D01*
X437692D01*
Y143314D01*
X437548D01*
Y143458D01*
X437260D01*
Y143602D01*
X437116D01*
Y143745D01*
X436828D01*
Y143889D01*
X436684D01*
Y144033D01*
X436541D01*
Y144177D01*
X436253D01*
Y144321D01*
X436109D01*
Y144465D01*
X435821D01*
Y143745D01*
X435677D01*
Y143170D01*
X435533D01*
Y142882D01*
X435390D01*
Y142451D01*
X435246D01*
Y142307D01*
X435102D01*
Y142019D01*
X434958D01*
Y141875D01*
X425606D01*
Y142019D01*
X425462D01*
Y142451D01*
X425606D01*
Y142738D01*
X425750D01*
Y142882D01*
X425894D01*
Y143170D01*
X426037D01*
Y143458D01*
X426181D01*
Y143745D01*
X426325D01*
Y144177D01*
X426469D01*
Y144897D01*
X426613D01*
Y145760D01*
X426757D01*
Y164176D01*
X426901D01*
Y164896D01*
X427045D01*
Y165471D01*
X427188D01*
Y165903D01*
X427332D01*
Y166191D01*
X427476D01*
Y166479D01*
X427620D01*
Y166766D01*
X427764D01*
Y167054D01*
X427908D01*
Y167342D01*
X428052D01*
Y167486D01*
X428196D01*
Y167773D01*
X428340D01*
Y167917D01*
X428483D01*
Y168061D01*
X428627D01*
Y168205D01*
X428771D01*
Y168349D01*
X428915D01*
Y168493D01*
X429059D01*
Y168637D01*
X429203D01*
Y168780D01*
X429347D01*
Y168924D01*
X429634D01*
Y169068D01*
X429778D01*
Y169212D01*
X429922D01*
Y169356D01*
X430210D01*
Y169500D01*
X430354D01*
Y169644D01*
X430642D01*
Y169788D01*
X430929D01*
Y169932D01*
X431217D01*
Y170075D01*
X431505D01*
Y170219D01*
X431793D01*
Y170363D01*
X432080D01*
Y170507D01*
X432512D01*
Y170651D01*
X432944D01*
Y170795D01*
X433519D01*
Y170939D01*
X434095D01*
Y171083D01*
X434670D01*
Y171227D01*
X435533D01*
Y171370D01*
X436541D01*
Y171514D01*
X438411D01*
Y171658D01*
X440138D01*
Y171514D01*
D02*
G37*
G36*
X385751Y172090D02*
X387190D01*
Y171946D01*
X388053D01*
Y171802D01*
X388773D01*
Y171658D01*
X389348D01*
Y171514D01*
X389924D01*
Y171370D01*
X390355D01*
Y171227D01*
X390643D01*
Y171083D01*
X391075D01*
Y170939D01*
X391362D01*
Y170795D01*
X391794D01*
Y170651D01*
X392082D01*
Y170507D01*
X392370D01*
Y170363D01*
X392514D01*
Y170219D01*
X392801D01*
Y170075D01*
X393089D01*
Y169932D01*
X393233D01*
Y169788D01*
X393521D01*
Y169644D01*
X393665D01*
Y169500D01*
X393952D01*
Y169356D01*
X394096D01*
Y169212D01*
X394240D01*
Y169068D01*
X394528D01*
Y168924D01*
X394672D01*
Y168780D01*
X394816D01*
Y168637D01*
X394959D01*
Y168493D01*
X395103D01*
Y168349D01*
X395247D01*
Y168205D01*
X395391D01*
Y168061D01*
X395535D01*
Y167917D01*
X395679D01*
Y167773D01*
X395823D01*
Y167630D01*
X395967D01*
Y167486D01*
X396111D01*
Y167342D01*
X396254D01*
Y167198D01*
X396398D01*
Y167054D01*
X396542D01*
Y166766D01*
X396686D01*
Y166622D01*
X396830D01*
Y166479D01*
X396974D01*
Y166335D01*
X397118D01*
Y166047D01*
X397262D01*
Y165903D01*
X397406D01*
Y165615D01*
X397549D01*
Y165327D01*
X397693D01*
Y165040D01*
X397837D01*
Y164896D01*
X397981D01*
Y164608D01*
X398125D01*
Y164320D01*
X398269D01*
Y164032D01*
X398413D01*
Y163745D01*
X398557D01*
Y163313D01*
X398700D01*
Y162882D01*
X398844D01*
Y162594D01*
X398988D01*
Y162162D01*
X399132D01*
Y161730D01*
X399276D01*
Y161155D01*
X399420D01*
Y160579D01*
X399564D01*
Y159860D01*
X399707D01*
Y158853D01*
X399851D01*
Y153961D01*
X399707D01*
Y152954D01*
X399564D01*
Y152234D01*
X399420D01*
Y151659D01*
X399276D01*
Y151083D01*
X399132D01*
Y150652D01*
X398988D01*
Y150220D01*
X398844D01*
Y149788D01*
X398700D01*
Y149357D01*
X398557D01*
Y149069D01*
X398413D01*
Y148781D01*
X398269D01*
Y148493D01*
X398125D01*
Y148206D01*
X397981D01*
Y147918D01*
X397837D01*
Y147774D01*
X397693D01*
Y147486D01*
X397549D01*
Y147199D01*
X397406D01*
Y147055D01*
X397262D01*
Y146767D01*
X397118D01*
Y146623D01*
X396974D01*
Y146479D01*
X396830D01*
Y146192D01*
X396686D01*
Y146048D01*
X396542D01*
Y145904D01*
X396398D01*
Y145760D01*
X396254D01*
Y145616D01*
X396111D01*
Y145472D01*
X395967D01*
Y145328D01*
X395823D01*
Y145184D01*
X395679D01*
Y145040D01*
X395535D01*
Y144897D01*
X395391D01*
Y144753D01*
X395247D01*
Y144609D01*
X395103D01*
Y144465D01*
X394816D01*
Y144321D01*
X394672D01*
Y144177D01*
X394528D01*
Y144033D01*
X394240D01*
Y143889D01*
X394096D01*
Y143745D01*
X393809D01*
Y143602D01*
X393665D01*
Y143458D01*
X393377D01*
Y143314D01*
X393089D01*
Y143170D01*
X392945D01*
Y143026D01*
X392514D01*
Y142882D01*
X392226D01*
Y142738D01*
X391938D01*
Y142594D01*
X391650D01*
Y142451D01*
X391219D01*
Y142307D01*
X390787D01*
Y142163D01*
X390355D01*
Y142019D01*
X389780D01*
Y141875D01*
X389061D01*
Y141731D01*
X388341D01*
Y141587D01*
X387190D01*
Y141444D01*
X381866D01*
Y141587D01*
X380859D01*
Y141731D01*
X380140D01*
Y141875D01*
X379421D01*
Y142019D01*
X378845D01*
Y142163D01*
X378413D01*
Y142307D01*
X377982D01*
Y142451D01*
X377550D01*
Y142594D01*
X377262D01*
Y142738D01*
X376831D01*
Y142882D01*
X376543D01*
Y143026D01*
X376255D01*
Y143170D01*
X375967D01*
Y143314D01*
X375680D01*
Y143458D01*
X375536D01*
Y143602D01*
X375248D01*
Y143745D01*
X375104D01*
Y143889D01*
X374816D01*
Y144033D01*
X374673D01*
Y144177D01*
X374385D01*
Y144321D01*
X374241D01*
Y144465D01*
X374097D01*
Y144609D01*
X373953D01*
Y144753D01*
X373809D01*
Y144897D01*
X373665D01*
Y145040D01*
X373521D01*
Y145184D01*
X373378D01*
Y145328D01*
X373234D01*
Y145472D01*
X373090D01*
Y145616D01*
X372946D01*
Y145760D01*
X372802D01*
Y145904D01*
X372658D01*
Y146048D01*
X372514D01*
Y146335D01*
X372370D01*
Y146479D01*
X372227D01*
Y146623D01*
X372083D01*
Y146911D01*
X371939D01*
Y147055D01*
X371795D01*
Y147343D01*
X371651D01*
Y147486D01*
X371507D01*
Y147774D01*
X371363D01*
Y148062D01*
X371219D01*
Y148350D01*
X371076D01*
Y148637D01*
X370932D01*
Y149069D01*
X370788D01*
Y149357D01*
X370644D01*
Y149788D01*
X370500D01*
Y150220D01*
X370356D01*
Y150796D01*
X370212D01*
Y151515D01*
X379133D01*
Y151371D01*
X379277D01*
Y150940D01*
X379421D01*
Y150652D01*
X379564D01*
Y150364D01*
X379708D01*
Y150076D01*
X379852D01*
Y149932D01*
X379996D01*
Y149645D01*
X380140D01*
Y149501D01*
X380284D01*
Y149357D01*
X380428D01*
Y149213D01*
X380572D01*
Y149069D01*
X380715D01*
Y148925D01*
X381003D01*
Y148781D01*
X381147D01*
Y148637D01*
X381435D01*
Y148493D01*
X381723D01*
Y148350D01*
X382154D01*
Y148206D01*
X382442D01*
Y148062D01*
X383161D01*
Y147918D01*
X385463D01*
Y148062D01*
X386039D01*
Y148206D01*
X386471D01*
Y148350D01*
X386902D01*
Y148493D01*
X387190D01*
Y148637D01*
X387334D01*
Y148781D01*
X387622D01*
Y148925D01*
X387766D01*
Y149069D01*
X388053D01*
Y149213D01*
X388197D01*
Y149357D01*
X388341D01*
Y149501D01*
X388485D01*
Y149645D01*
X388629D01*
Y149788D01*
X388773D01*
Y149932D01*
X388917D01*
Y150220D01*
X389061D01*
Y150364D01*
X389204D01*
Y150652D01*
X389348D01*
Y150940D01*
X389492D01*
Y151227D01*
X389636D01*
Y151515D01*
X389780D01*
Y151947D01*
X389924D01*
Y152378D01*
X390068D01*
Y153098D01*
X390211D01*
Y154105D01*
X369781D01*
Y158997D01*
X369925D01*
Y160292D01*
X370068D01*
Y161011D01*
X370212D01*
Y161730D01*
X370356D01*
Y162162D01*
X370500D01*
Y162738D01*
X370644D01*
Y163169D01*
X370788D01*
Y163601D01*
X370932D01*
Y163889D01*
X371076D01*
Y164320D01*
X371219D01*
Y164608D01*
X371363D01*
Y164896D01*
X371507D01*
Y165184D01*
X371651D01*
Y165471D01*
X371795D01*
Y165759D01*
X371939D01*
Y166047D01*
X372083D01*
Y166191D01*
X372227D01*
Y166479D01*
X372370D01*
Y166622D01*
X372514D01*
Y166910D01*
X372658D01*
Y167054D01*
X372802D01*
Y167198D01*
X372946D01*
Y167486D01*
X373090D01*
Y167630D01*
X373234D01*
Y167773D01*
X373378D01*
Y167917D01*
X373521D01*
Y168061D01*
X373665D01*
Y168205D01*
X373809D01*
Y168349D01*
X373953D01*
Y168493D01*
X374097D01*
Y168637D01*
X374241D01*
Y168780D01*
X374385D01*
Y168924D01*
X374529D01*
Y169068D01*
X374673D01*
Y169212D01*
X374960D01*
Y169356D01*
X375104D01*
Y169500D01*
X375248D01*
Y169644D01*
X375536D01*
Y169788D01*
X375680D01*
Y169932D01*
X375967D01*
Y170075D01*
X376111D01*
Y170219D01*
X376399D01*
Y170363D01*
X376687D01*
Y170507D01*
X376975D01*
Y170651D01*
X377262D01*
Y170795D01*
X377550D01*
Y170939D01*
X377982D01*
Y171083D01*
X378270D01*
Y171227D01*
X378701D01*
Y171370D01*
X379133D01*
Y171514D01*
X379708D01*
Y171658D01*
X380284D01*
Y171802D01*
X381003D01*
Y171946D01*
X381866D01*
Y172090D01*
X383305D01*
Y172234D01*
X385751D01*
Y172090D01*
D02*
G37*
G36*
X424023Y142019D02*
X414383D01*
Y180003D01*
X424023D01*
Y142019D01*
D02*
G37*
G36*
X411506Y144321D02*
Y144177D01*
Y142019D01*
X401866D01*
Y180003D01*
X411506D01*
Y144321D01*
D02*
G37*
G36*
X740126Y143938D02*
X738155D01*
Y141967D01*
X740126D01*
Y138026D01*
X738155D01*
Y139996D01*
X736184D01*
Y138026D01*
X738155D01*
Y136055D01*
X736184D01*
Y138026D01*
X730272D01*
Y141474D01*
Y141721D01*
Y141967D01*
X732243D01*
Y139996D01*
X734214D01*
Y141967D01*
X732243D01*
Y143938D01*
X728302D01*
Y145908D01*
X732243D01*
Y143938D01*
X734214D01*
Y141967D01*
X736184D01*
Y145908D01*
X740126D01*
Y143938D01*
D02*
G37*
G36*
X606031Y142019D02*
X588190D01*
Y141875D01*
X587758D01*
Y142019D01*
X585168D01*
Y142738D01*
Y142882D01*
Y149788D01*
X596247D01*
Y149932D01*
X596391D01*
Y150076D01*
X596247D01*
Y162450D01*
X596391D01*
Y164176D01*
X596247D01*
Y169932D01*
X596391D01*
Y176262D01*
X596247D01*
Y176550D01*
X596391D01*
Y179715D01*
X606031D01*
Y142019D01*
D02*
G37*
G36*
X473086Y180435D02*
X474237D01*
Y180291D01*
X475100D01*
Y180147D01*
X475820D01*
Y180003D01*
X476395D01*
Y179859D01*
X476971D01*
Y179715D01*
X477402D01*
Y179571D01*
X477834D01*
Y179428D01*
X478266D01*
Y179284D01*
X478697D01*
Y179140D01*
X478985D01*
Y178996D01*
X479273D01*
Y178852D01*
X479705D01*
Y178708D01*
X479992D01*
Y178564D01*
X480280D01*
Y178420D01*
X480424D01*
Y178277D01*
X480712D01*
Y178133D01*
X480999D01*
Y177989D01*
X481287D01*
Y177845D01*
X481431D01*
Y177701D01*
X481719D01*
Y177557D01*
X481863D01*
Y177413D01*
X482006D01*
Y177269D01*
X482294D01*
Y177125D01*
X482438D01*
Y176982D01*
X482582D01*
Y176838D01*
X482726D01*
Y176694D01*
X483014D01*
Y176550D01*
X483158D01*
Y176406D01*
X483301D01*
Y176262D01*
X483445D01*
Y176118D01*
X483589D01*
Y175975D01*
X483733D01*
Y175831D01*
X483877D01*
Y175687D01*
X484021D01*
Y175543D01*
X484165D01*
Y175399D01*
X484309D01*
Y175111D01*
X484453D01*
Y174967D01*
X484596D01*
Y174823D01*
X484740D01*
Y174536D01*
X484884D01*
Y174392D01*
X485028D01*
Y174248D01*
X485172D01*
Y173960D01*
X485316D01*
Y173672D01*
X485460D01*
Y173529D01*
X485603D01*
Y173241D01*
X485747D01*
Y172953D01*
X485891D01*
Y172521D01*
X486035D01*
Y172234D01*
X486179D01*
Y171946D01*
X486323D01*
Y171514D01*
X486467D01*
Y171083D01*
X486611D01*
Y170507D01*
X486755D01*
Y169788D01*
X486898D01*
Y168924D01*
X487042D01*
Y166622D01*
X486898D01*
Y165759D01*
X486755D01*
Y165184D01*
X486611D01*
Y164608D01*
X486467D01*
Y164176D01*
X486323D01*
Y163889D01*
X486179D01*
Y163745D01*
X486035D01*
Y163457D01*
X485891D01*
Y163169D01*
X485747D01*
Y162882D01*
X485603D01*
Y162738D01*
X485460D01*
Y162450D01*
X485316D01*
Y162306D01*
X485172D01*
Y162162D01*
X485028D01*
Y162018D01*
X484884D01*
Y161874D01*
X484740D01*
Y161730D01*
X484596D01*
Y161587D01*
X484453D01*
Y161443D01*
X484309D01*
Y161299D01*
X484165D01*
Y161155D01*
X484021D01*
Y161011D01*
X483877D01*
Y160867D01*
X483589D01*
Y160723D01*
X483445D01*
Y160579D01*
X483301D01*
Y160436D01*
X483014D01*
Y160292D01*
X482870D01*
Y160148D01*
X482582D01*
Y160004D01*
X482294D01*
Y159860D01*
X482150D01*
Y159716D01*
X481863D01*
Y159572D01*
X481575D01*
Y159428D01*
X481143D01*
Y159284D01*
X480855D01*
Y159141D01*
X480568D01*
Y158997D01*
X480136D01*
Y158853D01*
X479848D01*
Y158709D01*
X479417D01*
Y158565D01*
X478985D01*
Y158421D01*
X478697D01*
Y158277D01*
X478266D01*
Y158133D01*
X477690D01*
Y157990D01*
X477258D01*
Y157846D01*
X476827D01*
Y157702D01*
X476395D01*
Y157558D01*
X475820D01*
Y157414D01*
X475388D01*
Y157270D01*
X474957D01*
Y157126D01*
X474381D01*
Y156982D01*
X473949D01*
Y156839D01*
X473374D01*
Y156695D01*
X472942D01*
Y156551D01*
X472367D01*
Y156407D01*
X471935D01*
Y156263D01*
X471359D01*
Y156119D01*
X470928D01*
Y155975D01*
X470352D01*
Y155831D01*
X469921D01*
Y155688D01*
X469489D01*
Y155544D01*
X468913D01*
Y155400D01*
X468482D01*
Y155256D01*
X468050D01*
Y155112D01*
X467762D01*
Y154968D01*
X467331D01*
Y154824D01*
X467043D01*
Y154680D01*
X466899D01*
Y154537D01*
X466611D01*
Y154393D01*
X466468D01*
Y154249D01*
X466324D01*
Y154105D01*
X466180D01*
Y153961D01*
X466036D01*
Y153817D01*
X465892D01*
Y153673D01*
X465748D01*
Y153385D01*
X465604D01*
Y152954D01*
X465460D01*
Y151515D01*
X465604D01*
Y151083D01*
X465748D01*
Y150796D01*
X465892D01*
Y150508D01*
X466036D01*
Y150364D01*
X466180D01*
Y150076D01*
X466324D01*
Y149932D01*
X466611D01*
Y149788D01*
X466755D01*
Y149645D01*
X466899D01*
Y149501D01*
X467043D01*
Y149357D01*
X467331D01*
Y149213D01*
X467619D01*
Y149069D01*
X467906D01*
Y148925D01*
X468194D01*
Y148781D01*
X468626D01*
Y148637D01*
X469201D01*
Y148493D01*
X470065D01*
Y148350D01*
X472510D01*
Y148493D01*
X473374D01*
Y148637D01*
X473805D01*
Y148781D01*
X474237D01*
Y148925D01*
X474525D01*
Y149069D01*
X474957D01*
Y149213D01*
X475100D01*
Y149357D01*
X475388D01*
Y149501D01*
X475532D01*
Y149645D01*
X475676D01*
Y149788D01*
X475964D01*
Y149932D01*
X476107D01*
Y150076D01*
X476251D01*
Y150364D01*
X476395D01*
Y150508D01*
X476539D01*
Y150652D01*
X476683D01*
Y150940D01*
X476827D01*
Y151227D01*
X476971D01*
Y151515D01*
X477115D01*
Y151659D01*
Y151803D01*
X477258D01*
Y152378D01*
X477402D01*
Y153385D01*
X477546D01*
Y154249D01*
X487762D01*
Y154105D01*
X487906D01*
Y153961D01*
X487762D01*
Y153529D01*
X487906D01*
Y153242D01*
X487762D01*
Y151515D01*
X487618D01*
Y150652D01*
X487474D01*
Y150076D01*
X487330D01*
Y149501D01*
X487186D01*
Y149069D01*
X487042D01*
Y148637D01*
X486898D01*
Y148350D01*
X486755D01*
Y148062D01*
X486611D01*
Y147774D01*
X486467D01*
Y147486D01*
X486323D01*
Y147199D01*
X486179D01*
Y146911D01*
X486035D01*
Y146623D01*
X485891D01*
Y146479D01*
X485747D01*
Y146192D01*
X485603D01*
Y146048D01*
X485460D01*
Y145904D01*
X485316D01*
Y145760D01*
X485172D01*
Y145616D01*
X485028D01*
Y145472D01*
X484884D01*
Y145328D01*
X484740D01*
Y145184D01*
X484596D01*
Y145040D01*
X484453D01*
Y144897D01*
X484309D01*
Y144753D01*
X484165D01*
Y144609D01*
X484021D01*
Y144465D01*
X483877D01*
Y144321D01*
X483733D01*
Y144177D01*
X483445D01*
Y144033D01*
X483301D01*
Y143889D01*
X483014D01*
Y143745D01*
X482870D01*
Y143602D01*
X482582D01*
Y143458D01*
X482438D01*
Y143314D01*
X482150D01*
Y143170D01*
X481863D01*
Y143026D01*
X481575D01*
Y142882D01*
X481287D01*
Y142738D01*
X480999D01*
Y142594D01*
X480568D01*
Y142451D01*
X480280D01*
Y142307D01*
X479848D01*
Y142163D01*
X479417D01*
Y142019D01*
X478985D01*
Y141875D01*
X478410D01*
Y141731D01*
X477690D01*
Y141587D01*
X476971D01*
Y141444D01*
X475964D01*
Y141300D01*
X474237D01*
Y141156D01*
X470496D01*
Y141300D01*
X468770D01*
Y141444D01*
X467762D01*
Y141587D01*
X466899D01*
Y141731D01*
X466324D01*
Y141875D01*
X465748D01*
Y142019D01*
X465173D01*
Y142163D01*
X464597D01*
Y142307D01*
X464165D01*
Y142451D01*
X463734D01*
Y142594D01*
X463302D01*
Y142738D01*
X463014D01*
Y142882D01*
X462583D01*
Y143026D01*
X462295D01*
Y143170D01*
X462007D01*
Y143314D01*
X461720D01*
Y143458D01*
X461432D01*
Y143602D01*
X461144D01*
Y143745D01*
X460856D01*
Y143889D01*
X460712D01*
Y144033D01*
X460425D01*
Y144177D01*
X460281D01*
Y144321D01*
X459993D01*
Y144465D01*
X459849D01*
Y144609D01*
X459561D01*
Y144753D01*
X459417D01*
Y144897D01*
X459274D01*
Y145040D01*
X458986D01*
Y145184D01*
X458842D01*
Y145328D01*
X458698D01*
Y145472D01*
X458554D01*
Y145616D01*
X458410D01*
Y145760D01*
X458266D01*
Y145904D01*
X458123D01*
Y146048D01*
X457979D01*
Y146192D01*
X457835D01*
Y146335D01*
X457691D01*
Y146479D01*
X457547D01*
Y146623D01*
X457403D01*
Y146767D01*
X457259D01*
Y147055D01*
X457115D01*
Y147199D01*
X456972D01*
Y147343D01*
X456828D01*
Y147630D01*
X456684D01*
Y147918D01*
X456540D01*
Y148062D01*
X456396D01*
Y148350D01*
X456252D01*
Y148637D01*
X456108D01*
Y148925D01*
X455964D01*
Y149213D01*
X455821D01*
Y149501D01*
X455677D01*
Y149932D01*
X455533D01*
Y150220D01*
X455389D01*
Y150652D01*
X455245D01*
Y151227D01*
X455101D01*
Y151947D01*
X454957D01*
Y152810D01*
X454813D01*
Y155256D01*
X454957D01*
Y156119D01*
X455101D01*
Y156695D01*
X455245D01*
Y157270D01*
X455389D01*
Y157558D01*
X455533D01*
Y157990D01*
X455677D01*
Y158277D01*
X455821D01*
Y158565D01*
X455964D01*
Y158709D01*
X456108D01*
Y158997D01*
X456252D01*
Y159284D01*
X456396D01*
Y159428D01*
X456540D01*
Y159572D01*
X456684D01*
Y159716D01*
X456828D01*
Y159860D01*
X456972D01*
Y160004D01*
X457115D01*
Y160292D01*
X457259D01*
Y160436D01*
X457547D01*
Y160579D01*
X457691D01*
Y160723D01*
X457835D01*
Y160867D01*
X457979D01*
Y161011D01*
X458123D01*
Y161155D01*
X458410D01*
Y161299D01*
X458554D01*
Y161443D01*
X458842D01*
Y161587D01*
X459130D01*
Y161730D01*
X459274D01*
Y161874D01*
X459561D01*
Y162018D01*
X459849D01*
Y162162D01*
X460137D01*
Y162306D01*
X460425D01*
Y162450D01*
X460712D01*
Y162594D01*
X461000D01*
Y162738D01*
X461432D01*
Y162882D01*
X461720D01*
Y163025D01*
X462151D01*
Y163169D01*
X462439D01*
Y163313D01*
X462871D01*
Y163457D01*
X463302D01*
Y163601D01*
X463734D01*
Y163745D01*
X464165D01*
Y163889D01*
X464597D01*
Y164032D01*
X465173D01*
Y164176D01*
X465604D01*
Y164320D01*
X466180D01*
Y164464D01*
X466611D01*
Y164608D01*
X467187D01*
Y164752D01*
X467619D01*
Y164896D01*
X468194D01*
Y165040D01*
X468626D01*
Y165184D01*
X469201D01*
Y165327D01*
X469633D01*
Y165471D01*
X470065D01*
Y165615D01*
X470640D01*
Y165759D01*
X471072D01*
Y165903D01*
X471647D01*
Y166047D01*
X472079D01*
Y166191D01*
X472510D01*
Y166335D01*
X473086D01*
Y166479D01*
X473518D01*
Y166622D01*
X473949D01*
Y166766D01*
X474381D01*
Y166910D01*
X474669D01*
Y167054D01*
X475100D01*
Y167198D01*
X475244D01*
Y167342D01*
X475532D01*
Y167486D01*
X475676D01*
Y167630D01*
X475820D01*
Y167773D01*
X475964D01*
Y167917D01*
X476107D01*
Y168061D01*
X476251D01*
Y168205D01*
X476395D01*
Y168493D01*
X476539D01*
Y168924D01*
X476683D01*
Y170363D01*
X476539D01*
Y170795D01*
X476395D01*
Y171227D01*
X476251D01*
Y171370D01*
X476107D01*
Y171658D01*
X475964D01*
Y171802D01*
X475820D01*
Y171946D01*
X475676D01*
Y172090D01*
X475532D01*
Y172234D01*
X475244D01*
Y172377D01*
X475100D01*
Y172521D01*
X474813D01*
Y172665D01*
X474669D01*
Y172809D01*
X474237D01*
Y172953D01*
X473949D01*
Y173097D01*
X473374D01*
Y173241D01*
X472798D01*
Y173385D01*
X470208D01*
Y173241D01*
X469489D01*
Y173097D01*
X469057D01*
Y172953D01*
X468626D01*
Y172809D01*
X468338D01*
Y172665D01*
X468050D01*
Y172521D01*
X467906D01*
Y172377D01*
X467619D01*
Y172234D01*
X467475D01*
Y172090D01*
X467187D01*
Y171946D01*
X467043D01*
Y171802D01*
X466899D01*
Y171514D01*
X466755D01*
Y171370D01*
X466611D01*
Y171083D01*
X466468D01*
Y170939D01*
X466324D01*
Y170651D01*
X466180D01*
Y170219D01*
X466036D01*
Y169788D01*
X465892D01*
Y168924D01*
X465748D01*
Y168061D01*
X455677D01*
Y170795D01*
X455821D01*
Y171658D01*
X455964D01*
Y172234D01*
X456108D01*
Y172665D01*
X456252D01*
Y173241D01*
X456396D01*
Y173529D01*
X456540D01*
Y173960D01*
X456684D01*
Y174248D01*
X456828D01*
Y174536D01*
X456972D01*
Y174680D01*
X457115D01*
Y174967D01*
X457259D01*
Y175255D01*
X457403D01*
Y175399D01*
X457547D01*
Y175543D01*
X457691D01*
Y175831D01*
X457835D01*
Y175975D01*
X457979D01*
Y176118D01*
X458123D01*
Y176262D01*
X458266D01*
Y176406D01*
X458410D01*
Y176550D01*
X458554D01*
Y176694D01*
X458698D01*
Y176838D01*
X458842D01*
Y176982D01*
X458986D01*
Y177125D01*
X459130D01*
Y177269D01*
X459274D01*
Y177413D01*
X459417D01*
Y177557D01*
X459705D01*
Y177701D01*
X459849D01*
Y177845D01*
X460137D01*
Y177989D01*
X460281D01*
Y178133D01*
X460569D01*
Y178277D01*
X460856D01*
Y178420D01*
X461000D01*
Y178564D01*
X461288D01*
Y178708D01*
X461576D01*
Y178852D01*
X461863D01*
Y178996D01*
X462295D01*
Y179140D01*
X462583D01*
Y179284D01*
X463014D01*
Y179428D01*
X463302D01*
Y179571D01*
X463734D01*
Y179715D01*
X464309D01*
Y179859D01*
X464741D01*
Y180003D01*
X465460D01*
Y180147D01*
X466180D01*
Y180291D01*
X467043D01*
Y180435D01*
X468194D01*
Y180579D01*
X473086D01*
Y180435D01*
D02*
G37*
G36*
X728302Y139996D02*
X726331D01*
Y140982D01*
Y141228D01*
Y141967D01*
X728302D01*
Y139996D01*
D02*
G37*
G36*
X755891Y132114D02*
X742096D01*
Y145908D01*
X755891D01*
Y132114D01*
D02*
G37*
G36*
X716478D02*
X714507D01*
Y132852D01*
Y133099D01*
Y136055D01*
X716478D01*
Y132114D01*
D02*
G37*
G36*
X712536Y132360D02*
Y132114D01*
X698742D01*
Y145908D01*
X712536D01*
Y132360D01*
D02*
G37*
G36*
X718448Y141967D02*
X720419D01*
Y143938D01*
X724361D01*
Y141967D01*
X722390D01*
Y139503D01*
Y139257D01*
Y138026D01*
X730272D01*
Y136055D01*
X734214D01*
Y134084D01*
X736184D01*
Y133345D01*
Y133099D01*
Y130143D01*
X734214D01*
Y128172D01*
X732243D01*
Y132114D01*
X730272D01*
Y134084D01*
X728302D01*
Y132114D01*
X730272D01*
Y128172D01*
X732243D01*
Y126201D01*
X734214D01*
Y124231D01*
X732243D01*
Y126201D01*
X728302D01*
Y128172D01*
X726331D01*
Y130143D01*
X724361D01*
Y129650D01*
Y129404D01*
Y128172D01*
X722390D01*
Y134084D01*
X724361D01*
Y132114D01*
X726331D01*
Y130143D01*
X728302D01*
Y132114D01*
X726331D01*
Y134084D01*
X724361D01*
Y136055D01*
X722390D01*
Y138026D01*
X720419D01*
Y139996D01*
X718448D01*
Y138026D01*
X720419D01*
Y132114D01*
X718448D01*
Y138026D01*
X714507D01*
Y139996D01*
X716478D01*
Y141967D01*
X714507D01*
Y143938D01*
X716478D01*
Y145908D01*
X718448D01*
Y141967D01*
D02*
G37*
G36*
X605743Y128494D02*
X605887D01*
Y126624D01*
X605743D01*
Y126480D01*
X559557D01*
Y126624D01*
X559414D01*
Y127056D01*
X559270D01*
Y127487D01*
X559126D01*
Y127919D01*
X558982D01*
Y128350D01*
X558838D01*
Y128638D01*
X605743D01*
Y128494D01*
D02*
G37*
G36*
X539702D02*
X539846D01*
Y128350D01*
X539990D01*
Y128207D01*
X540134D01*
Y128063D01*
X540278D01*
Y127919D01*
X540422D01*
Y127775D01*
X540709D01*
Y127631D01*
X540853D01*
Y127487D01*
X540997D01*
Y127343D01*
X541141D01*
Y127199D01*
X541285D01*
Y127056D01*
X541429D01*
Y126912D01*
X541573D01*
Y126768D01*
X541860D01*
Y126480D01*
X369925D01*
Y128638D01*
X539702D01*
Y128494D01*
D02*
G37*
G36*
X753920Y126201D02*
X751950D01*
Y127926D01*
Y128172D01*
Y130143D01*
X753920D01*
Y126201D01*
D02*
G37*
G36*
X755891Y122260D02*
X753920D01*
Y124231D01*
X755891D01*
Y122260D01*
D02*
G37*
G36*
X728302D02*
X726331D01*
Y124231D01*
X728302D01*
Y122260D01*
D02*
G37*
G36*
X524595Y212952D02*
X524739D01*
Y212808D01*
X524883D01*
Y212376D01*
X525027D01*
Y211944D01*
X525170D01*
Y211369D01*
X525314D01*
Y210937D01*
X525458D01*
Y210506D01*
X525602D01*
Y209930D01*
X525746D01*
Y209498D01*
X525890D01*
Y209067D01*
X526034D01*
Y208491D01*
X526177D01*
Y208060D01*
X526321D01*
Y207628D01*
X526465D01*
Y207052D01*
X526609D01*
Y206621D01*
X526753D01*
Y206189D01*
X526897D01*
Y205614D01*
X527041D01*
Y205182D01*
X527185D01*
Y204750D01*
X527328D01*
Y204319D01*
X527472D01*
Y203743D01*
X527616D01*
Y203312D01*
X527760D01*
Y202880D01*
X527904D01*
Y202448D01*
X528048D01*
Y202017D01*
X528192D01*
Y201585D01*
X528336D01*
Y201153D01*
X528480D01*
Y200722D01*
X528624D01*
Y200146D01*
X528767D01*
Y199715D01*
X528911D01*
Y199283D01*
X529055D01*
Y198851D01*
X529199D01*
Y198420D01*
X529343D01*
Y197988D01*
X529487D01*
Y197556D01*
X529631D01*
Y197125D01*
X529775D01*
Y196549D01*
X529918D01*
Y196118D01*
X530062D01*
Y195686D01*
X530206D01*
Y195254D01*
X530350D01*
Y194823D01*
X530494D01*
Y194391D01*
X530638D01*
Y193959D01*
X530782D01*
Y193384D01*
X530925D01*
Y192952D01*
X531069D01*
Y192521D01*
X531213D01*
Y192089D01*
X531357D01*
Y191657D01*
X531501D01*
Y191226D01*
X531645D01*
Y190650D01*
X531789D01*
Y190219D01*
X531933D01*
Y189787D01*
X532077D01*
Y189355D01*
X532220D01*
Y188924D01*
X532364D01*
Y188492D01*
X532508D01*
Y188060D01*
X532652D01*
Y187629D01*
X532796D01*
Y187197D01*
X532940D01*
Y186622D01*
X533084D01*
Y186190D01*
X533228D01*
Y185758D01*
X533372D01*
Y185327D01*
X533515D01*
Y184895D01*
X533659D01*
Y184319D01*
X533803D01*
Y183888D01*
X533947D01*
Y183456D01*
X534091D01*
Y183169D01*
X534666D01*
Y183312D01*
X535530D01*
Y183456D01*
X536393D01*
Y183600D01*
X537400D01*
Y183744D01*
X538263D01*
Y183888D01*
X539127D01*
Y184032D01*
X539990D01*
Y184176D01*
X540853D01*
Y184319D01*
X541716D01*
Y184463D01*
X542580D01*
Y184607D01*
X543443D01*
Y184751D01*
X544306D01*
Y184895D01*
X545170D01*
Y185039D01*
X546033D01*
Y185183D01*
X547040D01*
Y185327D01*
X547903D01*
Y185471D01*
X548767D01*
Y185614D01*
X549774D01*
Y185758D01*
X550637D01*
Y185902D01*
X551500D01*
Y186046D01*
X552364D01*
Y186190D01*
X553227D01*
Y186334D01*
X554234D01*
Y186478D01*
X554953D01*
Y186622D01*
X555961D01*
Y186765D01*
X556824D01*
Y186909D01*
X557831D01*
Y187053D01*
X558694D01*
Y187197D01*
X559557D01*
Y187341D01*
X560421D01*
Y187485D01*
X561428D01*
Y187629D01*
X562291D01*
Y187773D01*
X563154D01*
Y187917D01*
X564018D01*
Y188060D01*
X564881D01*
Y188204D01*
X565744D01*
Y188348D01*
X566752D01*
Y188492D01*
X567759D01*
Y188636D01*
X568622D01*
Y188780D01*
X569485D01*
Y188924D01*
X570349D01*
Y189067D01*
X571356D01*
Y188924D01*
X571499D01*
Y188348D01*
X571356D01*
Y188204D01*
X571068D01*
Y188060D01*
X570924D01*
Y187917D01*
X570780D01*
Y187773D01*
X570492D01*
Y187629D01*
X570349D01*
Y187485D01*
X570205D01*
Y187341D01*
X570061D01*
Y187197D01*
X569773D01*
Y187053D01*
X569629D01*
Y186909D01*
X569485D01*
Y186765D01*
X569341D01*
Y186622D01*
X569053D01*
Y186478D01*
X568910D01*
Y186334D01*
X568766D01*
Y186190D01*
X568622D01*
Y186046D01*
X568478D01*
Y185902D01*
X568190D01*
Y185758D01*
X568046D01*
Y185614D01*
X567902D01*
Y185471D01*
X567759D01*
Y185327D01*
X567471D01*
Y185183D01*
X567327D01*
Y185039D01*
X567183D01*
Y184895D01*
X567039D01*
Y184751D01*
X566752D01*
Y184607D01*
X566608D01*
Y184463D01*
X566464D01*
Y184319D01*
X566320D01*
Y184176D01*
X566176D01*
Y184032D01*
X565888D01*
Y183888D01*
X565744D01*
Y183744D01*
X565600D01*
Y183600D01*
X565457D01*
Y183456D01*
X565313D01*
Y183312D01*
X565025D01*
Y183169D01*
X564881D01*
Y183025D01*
X564737D01*
Y182881D01*
X564593D01*
Y182737D01*
X564305D01*
Y182593D01*
X564162D01*
Y182449D01*
X564018D01*
Y182305D01*
X563874D01*
Y182161D01*
X563730D01*
Y182017D01*
X563442D01*
Y181874D01*
X563298D01*
Y181730D01*
X563154D01*
Y181586D01*
X563011D01*
Y181442D01*
X562867D01*
Y181298D01*
X562579D01*
Y181154D01*
X562435D01*
Y181010D01*
X562291D01*
Y180866D01*
X562147D01*
Y180723D01*
X561860D01*
Y180579D01*
X561716D01*
Y180435D01*
X561572D01*
Y180291D01*
X561428D01*
Y180147D01*
X561140D01*
Y180003D01*
X560996D01*
Y179859D01*
X560852D01*
Y179715D01*
X560709D01*
Y179571D01*
X560565D01*
Y179428D01*
X560421D01*
Y179284D01*
X560133D01*
Y179140D01*
X559989D01*
Y178996D01*
X559845D01*
Y178852D01*
X559701D01*
Y178708D01*
X559414D01*
Y178564D01*
X559270D01*
Y178420D01*
X559126D01*
Y178277D01*
X558982D01*
Y178133D01*
X558694D01*
Y177989D01*
X558550D01*
Y177845D01*
X558406D01*
Y177701D01*
X558263D01*
Y177557D01*
X558119D01*
Y177413D01*
X557831D01*
Y177269D01*
X557687D01*
Y177125D01*
X557543D01*
Y176982D01*
X557399D01*
Y176838D01*
X557112D01*
Y176694D01*
X556968D01*
Y176550D01*
X556824D01*
Y176406D01*
X556680D01*
Y176262D01*
X556536D01*
Y176118D01*
X556392D01*
Y175975D01*
X556104D01*
Y175831D01*
X555961D01*
Y175687D01*
X555817D01*
Y175543D01*
X555673D01*
Y175399D01*
X555385D01*
Y175255D01*
X555241D01*
Y175111D01*
X555097D01*
Y174967D01*
X554953D01*
Y174823D01*
X554809D01*
Y174680D01*
X554522D01*
Y174536D01*
X554378D01*
Y174392D01*
X554234D01*
Y174248D01*
X554090D01*
Y174104D01*
X553802D01*
Y173960D01*
X553658D01*
Y173816D01*
X553515D01*
Y173672D01*
X553371D01*
Y173529D01*
X553227D01*
Y173385D01*
X552939D01*
Y173241D01*
X552795D01*
Y173097D01*
X552651D01*
Y172953D01*
X552507D01*
Y172809D01*
X552364D01*
Y172665D01*
X552076D01*
Y172521D01*
X551932D01*
Y172377D01*
X551788D01*
Y172234D01*
X551644D01*
Y172090D01*
X551500D01*
Y171946D01*
X551213D01*
Y171802D01*
X551069D01*
Y171658D01*
X550925D01*
Y171514D01*
X550781D01*
Y171370D01*
X550493D01*
Y171227D01*
X550349D01*
Y171083D01*
X550205D01*
Y170939D01*
X550061D01*
Y170795D01*
X549774D01*
Y170651D01*
X549630D01*
Y170507D01*
X549486D01*
Y170363D01*
X549342D01*
Y170219D01*
X549198D01*
Y170075D01*
X549054D01*
Y169932D01*
X548767D01*
Y169788D01*
X548623D01*
Y169644D01*
X548479D01*
Y169500D01*
X548335D01*
Y169356D01*
X548047D01*
Y169212D01*
X547903D01*
Y169068D01*
X547759D01*
Y168924D01*
X547616D01*
Y168780D01*
X547328D01*
Y168637D01*
X547184D01*
Y168493D01*
X547040D01*
Y168349D01*
X546896D01*
Y168205D01*
X546752D01*
Y168061D01*
X546465D01*
Y167917D01*
X546321D01*
Y167773D01*
X546177D01*
Y167630D01*
X546033D01*
Y167486D01*
X545889D01*
Y167342D01*
X545601D01*
Y167198D01*
X545457D01*
Y167054D01*
X545313D01*
Y166910D01*
X545170D01*
Y166766D01*
X544882D01*
Y166622D01*
X544738D01*
Y166479D01*
X544594D01*
Y166335D01*
X544450D01*
Y166191D01*
X544162D01*
Y166047D01*
X544019D01*
Y165903D01*
X543875D01*
Y165759D01*
X543731D01*
Y165615D01*
X543587D01*
Y165471D01*
X543299D01*
Y165327D01*
X543155D01*
Y165184D01*
X543011D01*
Y165040D01*
X542868D01*
Y164896D01*
X542580D01*
Y164752D01*
X542436D01*
Y164608D01*
X542292D01*
Y164464D01*
X542148D01*
Y164320D01*
X542004D01*
Y164176D01*
X542148D01*
Y163745D01*
X542292D01*
Y163313D01*
X542436D01*
Y162882D01*
X542580D01*
Y162450D01*
X542724D01*
Y162018D01*
X542868D01*
Y161587D01*
X543011D01*
Y161155D01*
X543155D01*
Y160723D01*
X543299D01*
Y160292D01*
X543443D01*
Y159860D01*
X543587D01*
Y159428D01*
X543731D01*
Y158853D01*
X543875D01*
Y158421D01*
X544019D01*
Y158133D01*
X544162D01*
Y157702D01*
X544306D01*
Y157126D01*
X544450D01*
Y156695D01*
X544594D01*
Y156263D01*
X544738D01*
Y155831D01*
X544882D01*
Y155400D01*
X545026D01*
Y154968D01*
X545170D01*
Y154537D01*
X545313D01*
Y154105D01*
X545457D01*
Y153673D01*
X545601D01*
Y153242D01*
X545745D01*
Y152810D01*
X545889D01*
Y152378D01*
X546033D01*
Y151947D01*
X546177D01*
Y151515D01*
X546321D01*
Y151083D01*
X546465D01*
Y150652D01*
X546608D01*
Y150220D01*
X546752D01*
Y149645D01*
X546896D01*
Y149213D01*
X547040D01*
Y148781D01*
X547184D01*
Y148350D01*
X547328D01*
Y147918D01*
X547472D01*
Y147486D01*
X547616D01*
Y147055D01*
X547759D01*
Y146623D01*
X547903D01*
Y146192D01*
X548047D01*
Y145760D01*
X548191D01*
Y145328D01*
X548335D01*
Y144897D01*
X548479D01*
Y144465D01*
X548623D01*
Y144177D01*
X548767D01*
Y143745D01*
X548910D01*
Y143170D01*
X549054D01*
Y142738D01*
X549198D01*
Y142307D01*
X549342D01*
Y141875D01*
X549486D01*
Y141444D01*
X549630D01*
Y141012D01*
X549774D01*
Y140580D01*
X549918D01*
Y140148D01*
X550061D01*
Y139717D01*
X550205D01*
Y139285D01*
X550349D01*
Y138854D01*
X550493D01*
Y138422D01*
X550637D01*
Y137990D01*
X550781D01*
Y137559D01*
X550925D01*
Y137127D01*
X551069D01*
Y136695D01*
X551213D01*
Y136264D01*
X551356D01*
Y135688D01*
X551500D01*
Y135257D01*
X551644D01*
Y134825D01*
X551788D01*
Y134393D01*
X551932D01*
Y133962D01*
X552076D01*
Y133530D01*
X552220D01*
Y133098D01*
X552364D01*
Y132667D01*
X552507D01*
Y132235D01*
X552651D01*
Y131804D01*
X552795D01*
Y131228D01*
X552939D01*
Y130796D01*
X553083D01*
Y130365D01*
X553227D01*
Y129933D01*
X553371D01*
Y129501D01*
X553515D01*
Y129070D01*
X553658D01*
Y128638D01*
X553802D01*
Y128207D01*
X553946D01*
Y127775D01*
X554090D01*
Y127343D01*
X554234D01*
Y126912D01*
X554378D01*
Y126336D01*
X554522D01*
Y125905D01*
X554666D01*
Y125473D01*
X554809D01*
Y125041D01*
X554953D01*
Y124610D01*
X555097D01*
Y124178D01*
X555241D01*
Y123746D01*
X555385D01*
Y123315D01*
X555529D01*
Y122883D01*
X555673D01*
Y122451D01*
X555817D01*
Y122020D01*
X555961D01*
Y121588D01*
X556104D01*
Y121013D01*
X555961D01*
Y120869D01*
X555385D01*
Y121013D01*
X555241D01*
Y121157D01*
X555097D01*
Y121300D01*
X554953D01*
Y121444D01*
X554809D01*
Y121588D01*
X554522D01*
Y121732D01*
X554378D01*
Y121876D01*
X554234D01*
Y122020D01*
X554090D01*
Y122164D01*
X553946D01*
Y122308D01*
X553802D01*
Y122451D01*
X553658D01*
Y122595D01*
X553371D01*
Y122739D01*
X553227D01*
Y122883D01*
X553083D01*
Y123027D01*
X552939D01*
Y123171D01*
X552795D01*
Y123315D01*
X552651D01*
Y123458D01*
X552507D01*
Y123602D01*
X552364D01*
Y123746D01*
X552076D01*
Y123890D01*
X551932D01*
Y124034D01*
X551788D01*
Y124178D01*
X551644D01*
Y124322D01*
X551500D01*
Y124466D01*
X551356D01*
Y124610D01*
X551213D01*
Y124753D01*
X550925D01*
Y124897D01*
X550781D01*
Y125041D01*
X550637D01*
Y125185D01*
X550493D01*
Y125329D01*
X550349D01*
Y125473D01*
X550205D01*
Y125617D01*
X550061D01*
Y125761D01*
X549918D01*
Y125905D01*
X549630D01*
Y126048D01*
X549486D01*
Y126192D01*
X549342D01*
Y126336D01*
X549198D01*
Y126480D01*
X549054D01*
Y126624D01*
X548910D01*
Y126768D01*
X548767D01*
Y126912D01*
X548479D01*
Y127056D01*
X548335D01*
Y127199D01*
X548191D01*
Y127343D01*
X548047D01*
Y127487D01*
X547903D01*
Y127631D01*
X547759D01*
Y127775D01*
X547472D01*
Y127919D01*
X547328D01*
Y128063D01*
X547184D01*
Y128207D01*
X547040D01*
Y128350D01*
X546896D01*
Y128494D01*
X546752D01*
Y128638D01*
X546608D01*
Y128782D01*
X546465D01*
Y128926D01*
X546177D01*
Y129070D01*
X546033D01*
Y129214D01*
X545889D01*
Y129358D01*
X545745D01*
Y129501D01*
X545601D01*
Y129645D01*
X545457D01*
Y129789D01*
X545170D01*
Y129933D01*
X545026D01*
Y130077D01*
X544882D01*
Y130221D01*
X544738D01*
Y130365D01*
X544594D01*
Y130509D01*
X544450D01*
Y130653D01*
X544306D01*
Y130796D01*
X544019D01*
Y130940D01*
X543875D01*
Y131084D01*
X543731D01*
Y131228D01*
X543587D01*
Y131372D01*
X543443D01*
Y131516D01*
X543299D01*
Y131660D01*
X543155D01*
Y131804D01*
X542868D01*
Y131947D01*
X542724D01*
Y132091D01*
X542580D01*
Y132235D01*
X542436D01*
Y132379D01*
X542292D01*
Y132523D01*
X542148D01*
Y132667D01*
X542004D01*
Y132811D01*
X541716D01*
Y132955D01*
X541573D01*
Y133098D01*
X541429D01*
Y133242D01*
X541285D01*
Y133386D01*
X541141D01*
Y133530D01*
X540997D01*
Y133674D01*
X540853D01*
Y133818D01*
X540565D01*
Y133962D01*
X540422D01*
Y134106D01*
X540278D01*
Y134249D01*
X540134D01*
Y134393D01*
X539990D01*
Y134537D01*
X539846D01*
Y134681D01*
X539558D01*
Y134825D01*
X539414D01*
Y134969D01*
X539271D01*
Y135113D01*
X539127D01*
Y135257D01*
X538983D01*
Y135400D01*
X538839D01*
Y135544D01*
X538695D01*
Y135688D01*
X538407D01*
Y135832D01*
X538263D01*
Y135976D01*
X538120D01*
Y136120D01*
X537976D01*
Y136264D01*
X537832D01*
Y136408D01*
X537688D01*
Y136552D01*
X537544D01*
Y136695D01*
X537256D01*
Y136839D01*
X537112D01*
Y136983D01*
X536968D01*
Y137127D01*
X536825D01*
Y137271D01*
X536681D01*
Y137415D01*
X536537D01*
Y137559D01*
X536249D01*
Y137703D01*
X536105D01*
Y137846D01*
X535961D01*
Y137990D01*
X535817D01*
Y138134D01*
X535673D01*
Y138278D01*
X535530D01*
Y138422D01*
X535386D01*
Y138566D01*
X535098D01*
Y138710D01*
X534954D01*
Y138854D01*
X534810D01*
Y138997D01*
X534666D01*
Y139141D01*
X534523D01*
Y139285D01*
X534379D01*
Y139429D01*
X534235D01*
Y139573D01*
X533947D01*
Y139717D01*
X533803D01*
Y139861D01*
X533659D01*
Y140005D01*
X533515D01*
Y140148D01*
X533372D01*
Y140292D01*
X533228D01*
Y140436D01*
X532940D01*
Y140580D01*
X532796D01*
Y140724D01*
X532652D01*
Y140868D01*
X532508D01*
Y141012D01*
X532364D01*
Y141156D01*
X532220D01*
Y141300D01*
X531933D01*
Y141444D01*
X531789D01*
Y141587D01*
X531645D01*
Y141731D01*
X531501D01*
Y141875D01*
X531357D01*
Y142019D01*
X531069D01*
Y142163D01*
X530925D01*
Y142307D01*
X530782D01*
Y142451D01*
X530638D01*
Y142594D01*
X530494D01*
Y142738D01*
X530350D01*
Y142882D01*
X530206D01*
Y143026D01*
X529918D01*
Y143170D01*
X529775D01*
Y143314D01*
X529631D01*
Y143458D01*
X529487D01*
Y143602D01*
X529199D01*
Y143745D01*
X529055D01*
Y143889D01*
X528911D01*
Y144033D01*
X528767D01*
Y144177D01*
X528624D01*
Y144321D01*
X528480D01*
Y144465D01*
X528192D01*
Y144609D01*
X528048D01*
Y144753D01*
X527904D01*
Y144897D01*
X527760D01*
Y145040D01*
X527616D01*
Y145184D01*
X527472D01*
Y145328D01*
X527328D01*
Y145472D01*
X527041D01*
Y145616D01*
X526897D01*
Y145760D01*
X526753D01*
Y145904D01*
X526609D01*
Y146048D01*
X526465D01*
Y146192D01*
X526177D01*
Y146335D01*
X526034D01*
Y146479D01*
X525890D01*
Y146623D01*
X525746D01*
Y146767D01*
X525602D01*
Y146911D01*
X525458D01*
Y147055D01*
X525314D01*
Y147199D01*
X525027D01*
Y147343D01*
X524883D01*
Y147486D01*
X524739D01*
Y147630D01*
X524595D01*
Y147774D01*
X524451D01*
Y147918D01*
X524019D01*
Y147774D01*
X523588D01*
Y147630D01*
X523300D01*
Y147486D01*
X523012D01*
Y147343D01*
X522724D01*
Y147199D01*
X522437D01*
Y147055D01*
X522149D01*
Y146911D01*
X521717D01*
Y146767D01*
X521429D01*
Y146623D01*
X521142D01*
Y146479D01*
X520854D01*
Y146335D01*
X520566D01*
Y146192D01*
X520278D01*
Y146048D01*
X519847D01*
Y145904D01*
X519559D01*
Y145760D01*
X519271D01*
Y145616D01*
X518983D01*
Y145472D01*
X518696D01*
Y145328D01*
X518264D01*
Y145184D01*
X517976D01*
Y145040D01*
X517689D01*
Y144897D01*
X517257D01*
Y144753D01*
X516969D01*
Y144609D01*
X516682D01*
Y144465D01*
X516394D01*
Y144321D01*
X516106D01*
Y144177D01*
X515818D01*
Y144033D01*
X515387D01*
Y143889D01*
X515099D01*
Y143745D01*
X514811D01*
Y143602D01*
X514523D01*
Y143458D01*
X514235D01*
Y143314D01*
X513804D01*
Y143170D01*
X513516D01*
Y143026D01*
X513228D01*
Y142882D01*
X512941D01*
Y142738D01*
X512653D01*
Y142594D01*
X512365D01*
Y142451D01*
X512077D01*
Y142307D01*
X511646D01*
Y142163D01*
X511358D01*
Y142019D01*
X511070D01*
Y141875D01*
X510782D01*
Y141731D01*
X510351D01*
Y141587D01*
X510063D01*
Y141444D01*
X509775D01*
Y141300D01*
X509487D01*
Y141156D01*
X509200D01*
Y141012D01*
X508768D01*
Y140868D01*
X508480D01*
Y140724D01*
X508193D01*
Y140580D01*
X507905D01*
Y140436D01*
X507617D01*
Y140292D01*
X507185D01*
Y140148D01*
X506898D01*
Y140005D01*
X506610D01*
Y139861D01*
X506322D01*
Y139717D01*
X506034D01*
Y139573D01*
X505747D01*
Y139429D01*
X505315D01*
Y139285D01*
X505027D01*
Y139141D01*
X504739D01*
Y138997D01*
X504452D01*
Y138854D01*
X504164D01*
Y138710D01*
X503732D01*
Y138566D01*
X503445D01*
Y138422D01*
X503157D01*
Y138278D01*
X502869D01*
Y138134D01*
X502581D01*
Y137990D01*
X502294D01*
Y137846D01*
X501862D01*
Y137703D01*
X501574D01*
Y137559D01*
X501286D01*
Y137415D01*
X500999D01*
Y137271D01*
X500711D01*
Y137127D01*
X500423D01*
Y136983D01*
X499991D01*
Y136839D01*
X499704D01*
Y136695D01*
X499416D01*
Y136552D01*
X499128D01*
Y136408D01*
X498840D01*
Y136264D01*
X498409D01*
Y136120D01*
X498121D01*
Y135976D01*
X497833D01*
Y135832D01*
X497546D01*
Y135688D01*
X497258D01*
Y135544D01*
X496970D01*
Y135400D01*
X496538D01*
Y135257D01*
X496251D01*
Y135113D01*
X495963D01*
Y134969D01*
X495675D01*
Y134825D01*
X495387D01*
Y134681D01*
X494956D01*
Y134537D01*
X494668D01*
Y134393D01*
X494380D01*
Y134249D01*
X494092D01*
Y134106D01*
X493805D01*
Y133962D01*
X493373D01*
Y133818D01*
X493085D01*
Y133674D01*
X492798D01*
Y133530D01*
X492510D01*
Y133386D01*
X492222D01*
Y133242D01*
X491934D01*
Y133098D01*
X491359D01*
Y133242D01*
X491215D01*
Y133386D01*
X491071D01*
Y133674D01*
X491215D01*
Y134106D01*
X491359D01*
Y134393D01*
X491503D01*
Y134681D01*
X491646D01*
Y135113D01*
X491790D01*
Y135400D01*
X491934D01*
Y135688D01*
X492078D01*
Y136120D01*
X492222D01*
Y136408D01*
X492366D01*
Y136695D01*
X492510D01*
Y136983D01*
X492654D01*
Y137415D01*
X492798D01*
Y137703D01*
X492941D01*
Y137990D01*
X493085D01*
Y138278D01*
X493229D01*
Y138566D01*
X493373D01*
Y138997D01*
X493517D01*
Y139285D01*
X493661D01*
Y139573D01*
X493805D01*
Y139861D01*
X493949D01*
Y140292D01*
X494092D01*
Y140580D01*
X494236D01*
Y140868D01*
X494380D01*
Y141156D01*
X494524D01*
Y141444D01*
X494668D01*
Y141731D01*
X494812D01*
Y142163D01*
X494956D01*
Y142451D01*
X495099D01*
Y142738D01*
X495243D01*
Y143026D01*
X495387D01*
Y143314D01*
X495531D01*
Y143745D01*
X495675D01*
Y144033D01*
X495819D01*
Y144321D01*
X495963D01*
Y144609D01*
X496107D01*
Y144897D01*
X496251D01*
Y145328D01*
X496395D01*
Y145616D01*
X496538D01*
Y145904D01*
X496682D01*
Y146192D01*
X496826D01*
Y146479D01*
X496970D01*
Y146911D01*
X497114D01*
Y147199D01*
X497258D01*
Y147486D01*
X497402D01*
Y147774D01*
X497546D01*
Y148062D01*
X497689D01*
Y148350D01*
X497833D01*
Y148781D01*
X497977D01*
Y149069D01*
X498121D01*
Y149357D01*
X498265D01*
Y149645D01*
X498409D01*
Y149932D01*
X498553D01*
Y150364D01*
X498697D01*
Y150652D01*
X498840D01*
Y150940D01*
X498984D01*
Y151227D01*
X499128D01*
Y151515D01*
X499272D01*
Y151803D01*
X499416D01*
Y152091D01*
X499560D01*
Y152378D01*
X499704D01*
Y152810D01*
X499848D01*
Y153098D01*
X499991D01*
Y153385D01*
X500135D01*
Y153673D01*
X500279D01*
Y153961D01*
X500423D01*
Y154249D01*
X500567D01*
Y154537D01*
X500711D01*
Y154824D01*
X500855D01*
Y155256D01*
X500999D01*
Y155544D01*
X501143D01*
Y155831D01*
X501286D01*
Y156119D01*
X501430D01*
Y156407D01*
X501574D01*
Y156695D01*
X501718D01*
Y156982D01*
X501862D01*
Y157270D01*
X502006D01*
Y157702D01*
X502150D01*
Y157990D01*
X502294D01*
Y158277D01*
X502437D01*
Y158565D01*
X502581D01*
Y158853D01*
X502725D01*
Y159141D01*
X502869D01*
Y159428D01*
X503013D01*
Y159860D01*
X503157D01*
Y160148D01*
X503301D01*
Y160436D01*
X503445D01*
Y160723D01*
X503588D01*
Y161011D01*
X503732D01*
Y161299D01*
X503876D01*
Y161587D01*
X504020D01*
Y162018D01*
X504164D01*
Y162306D01*
X504308D01*
Y162594D01*
X504452D01*
Y162882D01*
X504596D01*
Y163169D01*
X504739D01*
Y163457D01*
X504883D01*
Y163745D01*
X505027D01*
Y164176D01*
X504883D01*
Y164320D01*
X504739D01*
Y164464D01*
X504452D01*
Y164608D01*
X504308D01*
Y164752D01*
X504164D01*
Y164896D01*
X504020D01*
Y165040D01*
X503876D01*
Y165184D01*
X503588D01*
Y165327D01*
X503445D01*
Y165471D01*
X503301D01*
Y165615D01*
X503157D01*
Y165759D01*
X502869D01*
Y165903D01*
X502725D01*
Y166047D01*
X502581D01*
Y166191D01*
X502437D01*
Y166335D01*
X502150D01*
Y166479D01*
X502006D01*
Y166622D01*
X501862D01*
Y166766D01*
X501574D01*
Y166910D01*
X501430D01*
Y167054D01*
X501286D01*
Y167198D01*
X501143D01*
Y167342D01*
X500855D01*
Y167486D01*
X500711D01*
Y167630D01*
X500567D01*
Y167773D01*
X500423D01*
Y167917D01*
X500135D01*
Y168061D01*
X499991D01*
Y168205D01*
X499848D01*
Y168349D01*
X499704D01*
Y168493D01*
X499416D01*
Y168637D01*
X499272D01*
Y168780D01*
X499128D01*
Y168924D01*
X498984D01*
Y169068D01*
X498697D01*
Y169212D01*
X498553D01*
Y169356D01*
X498409D01*
Y169500D01*
X498265D01*
Y169644D01*
X497977D01*
Y169788D01*
X497833D01*
Y169932D01*
X497689D01*
Y170075D01*
X497546D01*
Y170219D01*
X497258D01*
Y170363D01*
X497114D01*
Y170507D01*
X496970D01*
Y170651D01*
X496826D01*
Y170795D01*
X496538D01*
Y170939D01*
X496395D01*
Y171083D01*
X496251D01*
Y171227D01*
X496107D01*
Y171370D01*
X495819D01*
Y171514D01*
X495675D01*
Y171658D01*
X495531D01*
Y171802D01*
X495387D01*
Y171946D01*
X495243D01*
Y172090D01*
X494956D01*
Y172234D01*
X494812D01*
Y172377D01*
X494668D01*
Y172521D01*
X494524D01*
Y172665D01*
X494236D01*
Y172809D01*
X494092D01*
Y172953D01*
X493949D01*
Y173097D01*
X493805D01*
Y173241D01*
X493517D01*
Y173385D01*
X493373D01*
Y173529D01*
X493229D01*
Y173672D01*
X493085D01*
Y173816D01*
X492798D01*
Y173960D01*
X492654D01*
Y174104D01*
X492510D01*
Y174248D01*
X492366D01*
Y174392D01*
X492222D01*
Y174536D01*
X491934D01*
Y174680D01*
X491790D01*
Y174823D01*
X491646D01*
Y174967D01*
X491503D01*
Y175111D01*
X491215D01*
Y175255D01*
X491071D01*
Y175399D01*
X490927D01*
Y175543D01*
X490783D01*
Y175687D01*
X490495D01*
Y175831D01*
X490351D01*
Y175975D01*
X490208D01*
Y176118D01*
X490064D01*
Y176262D01*
X489920D01*
Y176406D01*
X489632D01*
Y176550D01*
X489488D01*
Y176694D01*
X489344D01*
Y176838D01*
X489201D01*
Y176982D01*
X488913D01*
Y177125D01*
X488769D01*
Y177269D01*
X488625D01*
Y177413D01*
X488481D01*
Y177557D01*
X488193D01*
Y177701D01*
X488050D01*
Y177845D01*
X487906D01*
Y177989D01*
X487762D01*
Y178133D01*
X487474D01*
Y178277D01*
X487330D01*
Y178420D01*
X487186D01*
Y178564D01*
X487042D01*
Y178708D01*
X486755D01*
Y178852D01*
X486611D01*
Y178996D01*
X486467D01*
Y179140D01*
X486323D01*
Y179284D01*
X486035D01*
Y179428D01*
X485891D01*
Y179571D01*
X485747D01*
Y179715D01*
X485603D01*
Y179859D01*
X485460D01*
Y180003D01*
X485172D01*
Y180147D01*
X485028D01*
Y180291D01*
X484884D01*
Y180435D01*
X484596D01*
Y180579D01*
X484453D01*
Y180723D01*
X484309D01*
Y180866D01*
X484165D01*
Y181010D01*
X483877D01*
Y181154D01*
X483733D01*
Y181298D01*
X483589D01*
Y181730D01*
X483733D01*
Y181874D01*
X484453D01*
Y182017D01*
X490783D01*
Y182161D01*
X496395D01*
Y182305D01*
X503157D01*
Y182449D01*
X508768D01*
Y182593D01*
X514523D01*
Y182737D01*
X514667D01*
Y183312D01*
X514811D01*
Y183744D01*
X514955D01*
Y184176D01*
X515099D01*
Y184607D01*
X515243D01*
Y185039D01*
X515387D01*
Y185614D01*
X515530D01*
Y186046D01*
X515674D01*
Y186478D01*
X515818D01*
Y186909D01*
X515962D01*
Y187341D01*
X516106D01*
Y187917D01*
X516250D01*
Y188348D01*
X516394D01*
Y188780D01*
X516538D01*
Y189211D01*
X516682D01*
Y189643D01*
X516825D01*
Y190075D01*
X516969D01*
Y190506D01*
X517113D01*
Y190938D01*
X517257D01*
Y191514D01*
X517401D01*
Y191801D01*
X517545D01*
Y192233D01*
X517689D01*
Y192665D01*
X517832D01*
Y193096D01*
X517976D01*
Y193672D01*
X518120D01*
Y194103D01*
X518264D01*
Y194535D01*
X518408D01*
Y194967D01*
X518552D01*
Y195398D01*
X518696D01*
Y195830D01*
X518840D01*
Y196262D01*
X518983D01*
Y196693D01*
X519127D01*
Y197125D01*
X519271D01*
Y197556D01*
X519415D01*
Y198132D01*
X519559D01*
Y198564D01*
X519703D01*
Y198995D01*
X519847D01*
Y199427D01*
X519991D01*
Y199858D01*
X520135D01*
Y200290D01*
X520278D01*
Y200722D01*
X520422D01*
Y201153D01*
X520566D01*
Y201585D01*
X520710D01*
Y202017D01*
X520854D01*
Y202448D01*
X520998D01*
Y202880D01*
X521142D01*
Y203312D01*
X521286D01*
Y203743D01*
X521429D01*
Y204175D01*
X521573D01*
Y204606D01*
X521717D01*
Y205182D01*
X521861D01*
Y205614D01*
X522005D01*
Y206045D01*
X522149D01*
Y206477D01*
X522293D01*
Y206909D01*
X522437D01*
Y207340D01*
X522580D01*
Y207772D01*
X522724D01*
Y208204D01*
X522868D01*
Y208779D01*
X523012D01*
Y209211D01*
X523156D01*
Y209642D01*
X523300D01*
Y210074D01*
X523444D01*
Y210506D01*
X523588D01*
Y210937D01*
X523731D01*
Y211513D01*
X523875D01*
Y211944D01*
X524019D01*
Y212376D01*
X524163D01*
Y212808D01*
X524307D01*
Y213095D01*
X524595D01*
Y212952D01*
D02*
G37*
G36*
X720419Y128172D02*
X718448D01*
Y124231D01*
X720419D01*
Y126201D01*
X724361D01*
Y124231D01*
X722390D01*
Y120289D01*
X730272D01*
Y114377D01*
X732243D01*
Y110436D01*
X734214D01*
Y108465D01*
X736184D01*
Y110436D01*
X734214D01*
Y112407D01*
X738155D01*
Y114377D01*
X732243D01*
Y118319D01*
X734214D01*
Y116348D01*
X736184D01*
Y118319D01*
X734214D01*
Y120289D01*
X732243D01*
Y122260D01*
X730272D01*
Y124231D01*
X732243D01*
Y122260D01*
X736184D01*
Y120043D01*
Y119797D01*
Y118319D01*
X738155D01*
Y116348D01*
X740126D01*
Y110436D01*
X738155D01*
Y108465D01*
X748008D01*
Y106495D01*
X753920D01*
Y102554D01*
X751950D01*
Y104524D01*
X748008D01*
Y102554D01*
X751950D01*
Y100583D01*
X755891D01*
Y96642D01*
X749979D01*
Y100583D01*
X748008D01*
Y96642D01*
X746038D01*
Y92700D01*
X742096D01*
Y90730D01*
X744067D01*
Y88759D01*
X736184D01*
Y90730D01*
X734214D01*
Y88759D01*
X728302D01*
Y89005D01*
Y89251D01*
Y90730D01*
X726331D01*
Y92700D01*
X728302D01*
Y94671D01*
X730272D01*
Y92700D01*
X732243D01*
Y94671D01*
X730272D01*
Y96642D01*
X726331D01*
Y98612D01*
X724361D01*
Y96642D01*
X722390D01*
Y100583D01*
X724361D01*
Y102554D01*
X722390D01*
Y104524D01*
X720419D01*
Y110436D01*
X724361D01*
Y108465D01*
X722390D01*
Y104524D01*
X728302D01*
Y102554D01*
X730272D01*
Y100583D01*
X732243D01*
Y94671D01*
X734214D01*
Y96642D01*
X736184D01*
Y94671D01*
X738155D01*
Y92700D01*
X740126D01*
Y94671D01*
X738155D01*
Y100583D01*
X736184D01*
Y104524D01*
X738155D01*
Y106495D01*
X734214D01*
Y104524D01*
X728302D01*
Y106495D01*
X726331D01*
Y108465D01*
X732243D01*
Y110436D01*
X728302D01*
Y112407D01*
X726331D01*
Y114377D01*
X724361D01*
Y112407D01*
X722390D01*
Y116348D01*
X724361D01*
Y118319D01*
X722390D01*
Y120289D01*
X720419D01*
Y122260D01*
X718448D01*
Y120289D01*
X720419D01*
Y112407D01*
X718448D01*
Y104524D01*
X716478D01*
Y100583D01*
X714507D01*
Y108465D01*
X716478D01*
Y114377D01*
X718448D01*
Y118319D01*
X714507D01*
Y114377D01*
X712536D01*
Y116348D01*
X708595D01*
Y118319D01*
X712536D01*
Y120289D01*
X710566D01*
Y122260D01*
X704654D01*
Y124231D01*
X702683D01*
Y126201D01*
X700712D01*
Y126940D01*
Y127187D01*
Y128172D01*
X698742D01*
Y130143D01*
X708595D01*
Y126201D01*
X712536D01*
Y124231D01*
X714507D01*
Y120289D01*
X716478D01*
Y124231D01*
X714507D01*
Y126201D01*
X712536D01*
Y128172D01*
X710566D01*
Y130143D01*
X720419D01*
Y128172D01*
D02*
G37*
G36*
X740126Y130143D02*
X742096D01*
Y129404D01*
Y129157D01*
Y126201D01*
X738155D01*
Y122260D01*
X740126D01*
Y124231D01*
X744067D01*
Y130143D01*
X746038D01*
Y128172D01*
X748008D01*
Y130143D01*
X749979D01*
Y126201D01*
X751950D01*
Y124231D01*
X749979D01*
Y123984D01*
Y123738D01*
Y122260D01*
X748008D01*
Y120289D01*
X749979D01*
Y118319D01*
X751950D01*
Y120289D01*
X753920D01*
Y118319D01*
X755891D01*
Y114377D01*
X751950D01*
Y116348D01*
X748008D01*
Y119058D01*
Y119304D01*
Y120289D01*
X742096D01*
Y118319D01*
X738155D01*
Y122260D01*
X736184D01*
Y128172D01*
X738155D01*
Y134084D01*
X740126D01*
Y130143D01*
D02*
G37*
G36*
X700712Y114377D02*
X698742D01*
Y115363D01*
Y115609D01*
Y116348D01*
X700712D01*
Y114377D01*
D02*
G37*
G36*
X712536Y112653D02*
Y112407D01*
X714507D01*
Y110436D01*
X712536D01*
Y112407D01*
X710566D01*
Y114377D01*
X712536D01*
Y112653D01*
D02*
G37*
G36*
X755891Y108465D02*
X753920D01*
Y112407D01*
X755891D01*
Y108465D01*
D02*
G37*
G36*
X748008Y114377D02*
X746038D01*
Y112900D01*
Y112653D01*
Y112407D01*
X749979D01*
Y110436D01*
X751950D01*
Y108465D01*
X748008D01*
Y110436D01*
X744067D01*
Y114377D01*
X742096D01*
Y116348D01*
X748008D01*
Y114377D01*
D02*
G37*
G36*
X702683Y122260D02*
X704654D01*
Y120289D01*
X706624D01*
Y116348D01*
X704654D01*
Y112407D01*
X708595D01*
Y111914D01*
Y111668D01*
Y110436D01*
X712536D01*
Y109205D01*
Y108958D01*
Y108465D01*
X708595D01*
Y110436D01*
X704654D01*
Y112407D01*
X702683D01*
Y120289D01*
X700712D01*
Y118319D01*
X698742D01*
Y124231D01*
X702683D01*
Y122260D01*
D02*
G37*
G36*
X433951Y108063D02*
X431361D01*
Y112380D01*
X427188D01*
Y112524D01*
X427045D01*
Y112668D01*
X427188D01*
Y113387D01*
X427045D01*
Y114394D01*
X427188D01*
Y114538D01*
X431361D01*
Y117128D01*
X426757D01*
Y117272D01*
X426613D01*
Y119142D01*
X426757D01*
Y119286D01*
X433951D01*
Y108063D01*
D02*
G37*
G36*
X425318D02*
X418124D01*
Y110222D01*
X422728D01*
Y114970D01*
Y115113D01*
Y119286D01*
X425318D01*
Y108063D01*
D02*
G37*
G36*
X405751D02*
X403304D01*
Y112236D01*
X403161D01*
Y112380D01*
X401578D01*
Y112236D01*
X401434D01*
Y111948D01*
X401290D01*
Y111660D01*
X401146D01*
Y111373D01*
X401002D01*
Y111085D01*
X400859D01*
Y110797D01*
X400715D01*
Y110509D01*
X400571D01*
Y110222D01*
X400427D01*
Y109934D01*
X400283D01*
Y109646D01*
X400139D01*
Y109358D01*
X399995D01*
Y109071D01*
X399851D01*
Y108783D01*
X399707D01*
Y108495D01*
X399564D01*
Y108207D01*
X399420D01*
Y108063D01*
X396686D01*
Y108495D01*
X396830D01*
Y108783D01*
X396974D01*
Y109071D01*
X397118D01*
Y109214D01*
X397262D01*
Y109502D01*
X397406D01*
Y109790D01*
X397549D01*
Y110078D01*
X397693D01*
Y110365D01*
X397837D01*
Y110653D01*
X397981D01*
Y110941D01*
X398125D01*
Y111229D01*
X398269D01*
Y111517D01*
X398413D01*
Y111804D01*
X398557D01*
Y111948D01*
X398700D01*
Y112236D01*
X398844D01*
Y112524D01*
X398988D01*
Y112811D01*
X399132D01*
Y113099D01*
X398844D01*
Y113243D01*
X398557D01*
Y113387D01*
X398413D01*
Y113531D01*
X398269D01*
Y113675D01*
X398125D01*
Y113819D01*
X397981D01*
Y113962D01*
X397837D01*
Y114106D01*
X397693D01*
Y114394D01*
X397549D01*
Y114682D01*
X397406D01*
Y115257D01*
X397262D01*
Y115545D01*
Y115689D01*
Y116696D01*
X397406D01*
Y117272D01*
X397549D01*
Y117559D01*
X397693D01*
Y117847D01*
X397837D01*
Y117991D01*
X397981D01*
Y118135D01*
X398125D01*
Y118279D01*
X398269D01*
Y118423D01*
X398413D01*
Y118567D01*
X398700D01*
Y118710D01*
X398988D01*
Y118854D01*
X399276D01*
Y118998D01*
X399707D01*
Y119142D01*
X400427D01*
Y119286D01*
X405751D01*
Y108063D01*
D02*
G37*
G36*
X395535Y113675D02*
Y113531D01*
Y108063D01*
X393089D01*
Y108207D01*
X392945D01*
Y119142D01*
X393089D01*
Y119286D01*
X395535D01*
Y113675D01*
D02*
G37*
G36*
X391075Y108063D02*
X386183D01*
Y108207D01*
X385463D01*
Y108351D01*
X385032D01*
Y108495D01*
X384600D01*
Y108639D01*
X384169D01*
Y108783D01*
X383881D01*
Y108927D01*
X383737D01*
Y109071D01*
X383449D01*
Y109214D01*
X383305D01*
Y109358D01*
X383161D01*
Y109502D01*
X383018D01*
Y109646D01*
X382874D01*
Y109790D01*
X382730D01*
Y109934D01*
X382586D01*
Y110222D01*
X382442D01*
Y110365D01*
X382298D01*
Y110653D01*
X382154D01*
Y110941D01*
X382010D01*
Y111229D01*
X381866D01*
Y111660D01*
X381723D01*
Y112236D01*
X381579D01*
Y115257D01*
X381723D01*
Y115833D01*
X381866D01*
Y116265D01*
X382010D01*
Y116552D01*
X382154D01*
Y116840D01*
X382298D01*
Y117128D01*
X382442D01*
Y117416D01*
X382586D01*
Y117559D01*
X382730D01*
Y117703D01*
X382874D01*
Y117847D01*
X383018D01*
Y117991D01*
X383161D01*
Y118135D01*
X383305D01*
Y118279D01*
X383593D01*
Y118423D01*
X383737D01*
Y118567D01*
X384025D01*
Y118710D01*
X384312D01*
Y118854D01*
X384744D01*
Y118998D01*
X385176D01*
Y119142D01*
X386039D01*
Y119286D01*
X391075D01*
Y108063D01*
D02*
G37*
G36*
X377694Y119142D02*
X377838D01*
Y118710D01*
X377982D01*
Y118279D01*
X378126D01*
Y117847D01*
X378270D01*
Y117559D01*
X378413D01*
Y117128D01*
X378557D01*
Y116696D01*
X378701D01*
Y116265D01*
X378845D01*
Y115833D01*
X378989D01*
Y115401D01*
X379133D01*
Y114970D01*
X379277D01*
Y114538D01*
X379421D01*
Y114250D01*
X379564D01*
Y113819D01*
X379708D01*
Y113387D01*
X379852D01*
Y112955D01*
X379996D01*
Y112524D01*
X380140D01*
Y112092D01*
X380284D01*
Y111660D01*
X380428D01*
Y111373D01*
X380572D01*
Y110941D01*
X380715D01*
Y110509D01*
X380859D01*
Y110078D01*
X381003D01*
Y109646D01*
X381147D01*
Y109358D01*
X381291D01*
Y108927D01*
X381435D01*
Y108351D01*
X381579D01*
Y108063D01*
X378989D01*
Y108207D01*
X378845D01*
Y108639D01*
X378701D01*
Y109071D01*
X378557D01*
Y109502D01*
X378413D01*
Y109934D01*
X378270D01*
Y110365D01*
X378126D01*
Y110509D01*
X374385D01*
Y110365D01*
X374241D01*
Y109934D01*
X374097D01*
Y109502D01*
X373953D01*
Y108927D01*
X373809D01*
Y108495D01*
X373665D01*
Y108207D01*
X373521D01*
Y108063D01*
X370932D01*
Y108639D01*
X371076D01*
Y109071D01*
X371219D01*
Y109502D01*
X371363D01*
Y109934D01*
X371507D01*
Y110365D01*
X371651D01*
Y110797D01*
X371795D01*
Y111085D01*
X371939D01*
Y111517D01*
X372083D01*
Y111948D01*
X372227D01*
Y112380D01*
X372370D01*
Y112811D01*
X372514D01*
Y113243D01*
X372658D01*
Y113675D01*
X372802D01*
Y114106D01*
X372946D01*
Y114538D01*
X373090D01*
Y114826D01*
X373234D01*
Y115257D01*
X373378D01*
Y115401D01*
Y115545D01*
Y115689D01*
X373521D01*
Y116121D01*
X373665D01*
Y116552D01*
X373809D01*
Y116984D01*
X373953D01*
Y117416D01*
X374097D01*
Y117847D01*
X374241D01*
Y118135D01*
X374385D01*
Y118567D01*
X374529D01*
Y118998D01*
X374673D01*
Y119286D01*
X377694D01*
Y119142D01*
D02*
G37*
G36*
X413808Y119286D02*
X414239D01*
Y119142D01*
X414671D01*
Y118998D01*
X414959D01*
Y118854D01*
X415247D01*
Y118710D01*
X415534D01*
Y118567D01*
X415678D01*
Y118423D01*
X415966D01*
Y118279D01*
X416110D01*
Y118135D01*
X416254D01*
Y117991D01*
X416398D01*
Y117847D01*
X416541D01*
Y117559D01*
X416685D01*
Y117416D01*
X416829D01*
Y117272D01*
X416973D01*
Y116984D01*
X417117D01*
Y116696D01*
X417261D01*
Y116409D01*
X417405D01*
Y115977D01*
X417549D01*
Y115401D01*
X417692D01*
Y114682D01*
X417836D01*
Y112668D01*
X417692D01*
Y111804D01*
X417549D01*
Y111373D01*
X417405D01*
Y110941D01*
X417261D01*
Y110653D01*
X417117D01*
Y110365D01*
X416973D01*
Y110078D01*
X416829D01*
Y109790D01*
X416685D01*
Y109646D01*
X416541D01*
Y109502D01*
X416398D01*
Y109358D01*
X416254D01*
Y109214D01*
X416110D01*
Y109071D01*
X415966D01*
Y108927D01*
X415822D01*
Y108783D01*
X415534D01*
Y108639D01*
X415390D01*
Y108495D01*
X415103D01*
Y108351D01*
X414815D01*
Y108207D01*
X414383D01*
Y108063D01*
X413808D01*
Y107920D01*
X411218D01*
Y108063D01*
X410642D01*
Y108207D01*
X410211D01*
Y108351D01*
X409923D01*
Y108495D01*
X409635D01*
Y108639D01*
X409347D01*
Y108783D01*
X409204D01*
Y108927D01*
X409060D01*
Y109071D01*
X408916D01*
Y109214D01*
X408772D01*
Y109358D01*
X408628D01*
Y109502D01*
X408484D01*
Y109646D01*
X408340D01*
Y109790D01*
X408196D01*
Y110078D01*
X408052D01*
Y110222D01*
X407909D01*
Y110509D01*
X407765D01*
Y110941D01*
X407621D01*
Y111373D01*
X407477D01*
Y111804D01*
X407333D01*
Y112668D01*
X407189D01*
Y114682D01*
X407333D01*
Y115545D01*
X407477D01*
Y115977D01*
X407621D01*
Y116409D01*
X407765D01*
Y116696D01*
X407909D01*
Y116984D01*
X408052D01*
Y117272D01*
X408196D01*
Y117559D01*
X408340D01*
Y117703D01*
X408484D01*
Y117847D01*
X408628D01*
Y117991D01*
X408772D01*
Y118135D01*
X408916D01*
Y118279D01*
X409060D01*
Y118423D01*
X409204D01*
Y118567D01*
X409491D01*
Y118710D01*
X409635D01*
Y118854D01*
X409923D01*
Y118998D01*
X410211D01*
Y119142D01*
X410642D01*
Y119286D01*
X411218D01*
Y119430D01*
X413808D01*
Y119286D01*
D02*
G37*
G36*
X706624Y106495D02*
X704654D01*
Y107480D01*
Y107726D01*
Y108465D01*
X706624D01*
Y106495D01*
D02*
G37*
G36*
X712536Y104524D02*
X708595D01*
Y106495D01*
X712536D01*
Y104524D01*
D02*
G37*
G36*
X700712D02*
X698742D01*
Y112407D01*
X700712D01*
Y104524D01*
D02*
G37*
G36*
X734214Y100583D02*
X736184D01*
Y98612D01*
X734214D01*
Y100583D01*
X732243D01*
Y102554D01*
X734214D01*
Y100583D01*
D02*
G37*
G36*
X720419Y101322D02*
Y101075D01*
Y98612D01*
X718448D01*
Y102554D01*
X720419D01*
Y101322D01*
D02*
G37*
G36*
X753920Y92700D02*
X755891D01*
Y91468D01*
Y91222D01*
Y90730D01*
X753920D01*
Y92700D01*
X751950D01*
Y88759D01*
X746038D01*
Y90730D01*
X748008D01*
Y92700D01*
X749979D01*
Y94671D01*
X753920D01*
Y92700D01*
D02*
G37*
G36*
X718448Y94671D02*
X724361D01*
Y92700D01*
X722390D01*
Y88759D01*
X714507D01*
Y98612D01*
X718448D01*
Y94671D01*
D02*
G37*
G36*
X712536Y88759D02*
X698742D01*
Y102554D01*
X712536D01*
Y88759D01*
D02*
G37*
G36*
X736312Y177600D02*
X733792D01*
Y185890D01*
Y186117D01*
Y186343D01*
X733818Y186495D01*
Y186520D01*
Y186545D01*
X733843Y186822D01*
X733868Y187049D01*
Y187150D01*
X733893Y187225D01*
Y187276D01*
Y187301D01*
X733767Y187074D01*
X733666Y186873D01*
X733591Y186696D01*
X733566Y186671D01*
Y186646D01*
X733414Y186394D01*
X733238Y186167D01*
X733188Y186066D01*
X733137Y186016D01*
X733087Y185965D01*
Y185940D01*
X728022Y179213D01*
X727392D01*
X722353Y185915D01*
X722227Y186091D01*
X722126Y186268D01*
X722051Y186394D01*
X722025Y186419D01*
Y186444D01*
X721874Y186721D01*
X721723Y187024D01*
X721673Y187150D01*
X721622Y187250D01*
X721574Y187299D01*
X721597Y186999D01*
X721622Y186747D01*
X721647Y186646D01*
Y186570D01*
Y186520D01*
Y186495D01*
X721673Y186243D01*
Y186041D01*
Y185940D01*
Y185890D01*
Y177600D01*
X718775D01*
Y191030D01*
X721295D01*
X727468Y182892D01*
X733792Y191030D01*
X736312D01*
Y177600D01*
D02*
G37*
G36*
X697660D02*
X695493D01*
X688111Y191030D01*
X691235D01*
X696400Y181304D01*
X701843Y191030D01*
X705396D01*
X697660Y177600D01*
D02*
G37*
G36*
X776954Y191005D02*
X777257Y190980D01*
X777509Y190929D01*
X777761Y190879D01*
X777962Y190803D01*
X778340Y190702D01*
X778592Y190576D01*
X778794Y190450D01*
X778895Y190375D01*
X778920Y190350D01*
X779046Y190198D01*
X779146Y190047D01*
X779323Y189669D01*
X779424Y189266D01*
X779525Y188838D01*
X779575Y188460D01*
Y188284D01*
X779600Y188132D01*
Y188006D01*
Y187906D01*
Y187855D01*
Y187830D01*
Y180750D01*
Y180422D01*
X779575Y180120D01*
X779525Y179843D01*
X779499Y179591D01*
X779373Y179162D01*
X779247Y178810D01*
X779146Y178558D01*
X779021Y178381D01*
X778945Y178280D01*
X778920Y178255D01*
X778769Y178129D01*
X778617Y178029D01*
X778214Y177877D01*
X777786Y177751D01*
X777332Y177676D01*
X776929Y177625D01*
X776753D01*
X776602Y177600D01*
X766674D01*
X766347Y177625D01*
X766069Y177651D01*
X765792Y177701D01*
X765565Y177751D01*
X765339Y177802D01*
X764986Y177928D01*
X764734Y178054D01*
X764532Y178155D01*
X764432Y178230D01*
X764406Y178255D01*
X764280Y178381D01*
X764180Y178558D01*
X764003Y178910D01*
X763877Y179339D01*
X763776Y179742D01*
X763726Y180145D01*
Y180296D01*
X763701Y180447D01*
Y180573D01*
Y180674D01*
Y180725D01*
Y180750D01*
Y185386D01*
X771840D01*
Y183093D01*
X766724D01*
Y180120D01*
X776476D01*
Y188636D01*
X766724D01*
Y187125D01*
X763701Y187654D01*
Y187981D01*
X763726Y188586D01*
X763802Y189065D01*
X763928Y189493D01*
X764054Y189821D01*
X764180Y190047D01*
X764306Y190224D01*
X764381Y190324D01*
X764406Y190350D01*
X764558Y190476D01*
X764709Y190576D01*
X765112Y190753D01*
X765540Y190854D01*
X765969Y190954D01*
X766372Y191005D01*
X766548D01*
X766724Y191030D01*
X776627D01*
X776954Y191005D01*
D02*
G37*
G36*
X754731D02*
X755033Y190980D01*
X755285Y190929D01*
X755537Y190879D01*
X755739Y190803D01*
X756117Y190702D01*
X756369Y190576D01*
X756570Y190450D01*
X756671Y190375D01*
X756696Y190350D01*
X756822Y190198D01*
X756923Y190047D01*
X757099Y189669D01*
X757200Y189266D01*
X757301Y188838D01*
X757351Y188460D01*
Y188309D01*
X757376Y188158D01*
Y188032D01*
Y187931D01*
Y187880D01*
Y187855D01*
Y180750D01*
Y180422D01*
X757351Y180120D01*
X757301Y179843D01*
X757276Y179591D01*
X757150Y179162D01*
X757024Y178810D01*
X756923Y178558D01*
X756797Y178381D01*
X756721Y178280D01*
X756696Y178255D01*
X756545Y178129D01*
X756394Y178029D01*
X755991Y177877D01*
X755562Y177751D01*
X755109Y177676D01*
X754706Y177625D01*
X754529D01*
X754378Y177600D01*
X745710D01*
X745383Y177625D01*
X745080Y177651D01*
X744828Y177701D01*
X744576Y177751D01*
X744350Y177802D01*
X743997Y177928D01*
X743745Y178054D01*
X743543Y178155D01*
X743443Y178230D01*
X743418Y178255D01*
X743291Y178381D01*
X743191Y178558D01*
X743014Y178910D01*
X742888Y179339D01*
X742788Y179742D01*
X742737Y180145D01*
Y180296D01*
X742712Y180447D01*
Y180573D01*
Y180674D01*
Y180725D01*
Y180750D01*
Y182362D01*
X745836Y183017D01*
Y180120D01*
X754252D01*
Y188636D01*
X745836D01*
Y186091D01*
X742712Y186570D01*
Y187855D01*
Y188183D01*
X742737Y188485D01*
X742788Y188762D01*
X742813Y189014D01*
X742939Y189443D01*
X743065Y189795D01*
X743191Y190047D01*
X743317Y190224D01*
X743392Y190324D01*
X743418Y190350D01*
X743569Y190476D01*
X743720Y190576D01*
X744123Y190753D01*
X744551Y190854D01*
X745005Y190954D01*
X745408Y191005D01*
X745584D01*
X745736Y191030D01*
X754403D01*
X754731Y191005D01*
D02*
G37*
G36*
X681534Y190249D02*
Y188460D01*
X678687D01*
Y177600D01*
X675865D01*
Y191131D01*
X681534Y190249D01*
D02*
G37*
%LPC*%
G36*
X565744Y155256D02*
X565313D01*
Y152091D01*
X565457D01*
Y151515D01*
X565600D01*
Y151227D01*
X565744D01*
Y150796D01*
X565888D01*
Y150652D01*
X566032D01*
Y150364D01*
X566176D01*
Y150220D01*
X566320D01*
Y149932D01*
X566464D01*
Y149788D01*
X566608D01*
Y149645D01*
X566752D01*
Y149501D01*
X566895D01*
Y149357D01*
X567039D01*
Y149213D01*
X567183D01*
Y149069D01*
X567327D01*
Y148925D01*
X567615D01*
Y148781D01*
X567759D01*
Y148637D01*
X568046D01*
Y148493D01*
X568190D01*
Y148350D01*
X568478D01*
Y148206D01*
X568766D01*
Y148062D01*
X569053D01*
Y147918D01*
X569629D01*
Y147774D01*
X570205D01*
Y147630D01*
X572075D01*
Y147774D01*
X572650D01*
Y147918D01*
X573082D01*
Y148062D01*
X573370D01*
Y148206D01*
X573514D01*
Y148350D01*
X573658D01*
Y148493D01*
X573802D01*
Y148637D01*
X573945D01*
Y148781D01*
X574089D01*
Y148925D01*
X574233D01*
Y149213D01*
X574377D01*
Y149645D01*
X574521D01*
Y151371D01*
X574377D01*
Y151803D01*
X574233D01*
Y152091D01*
X574089D01*
Y152234D01*
X573945D01*
Y152522D01*
X573802D01*
Y152666D01*
X573658D01*
Y152810D01*
X573514D01*
Y152954D01*
X573370D01*
Y153098D01*
X573082D01*
Y153242D01*
X572938D01*
Y153385D01*
X572650D01*
Y153529D01*
X572507D01*
Y153673D01*
X572219D01*
Y153817D01*
X571787D01*
Y153961D01*
X571356D01*
Y154105D01*
X570924D01*
Y154249D01*
X570492D01*
Y154393D01*
X569773D01*
Y154537D01*
X569197D01*
Y154680D01*
X568478D01*
Y154824D01*
X567615D01*
Y154968D01*
X566752D01*
Y155112D01*
X565744D01*
Y155256D01*
D02*
G37*
G36*
X436397D02*
X435821D01*
Y152234D01*
X435965D01*
Y151659D01*
X436109D01*
Y151227D01*
X436253D01*
Y150940D01*
X436397D01*
Y150652D01*
X436541D01*
Y150364D01*
X436684D01*
Y150220D01*
X436828D01*
Y150076D01*
X436972D01*
Y149788D01*
X437116D01*
Y149645D01*
X437260D01*
Y149501D01*
X437404D01*
Y149357D01*
X437548D01*
Y149213D01*
X437692D01*
Y149069D01*
X437836D01*
Y148925D01*
X438123D01*
Y148781D01*
X438267D01*
Y148637D01*
X438555D01*
Y148493D01*
X438699D01*
Y148350D01*
X438987D01*
Y148206D01*
X439274D01*
Y148062D01*
X439706D01*
Y147918D01*
X440138D01*
Y147774D01*
X440713D01*
Y147630D01*
X442728D01*
Y147774D01*
X443303D01*
Y147918D01*
X443591D01*
Y148062D01*
X443879D01*
Y148206D01*
X444022D01*
Y148350D01*
X444310D01*
Y148493D01*
X444454D01*
Y148637D01*
X444598D01*
Y148925D01*
X444742D01*
Y149069D01*
X444886D01*
Y149501D01*
X445029D01*
Y149932D01*
X445173D01*
Y151083D01*
X445029D01*
Y151515D01*
X444886D01*
Y151947D01*
X444742D01*
Y152234D01*
X444598D01*
Y152378D01*
X444454D01*
Y152522D01*
X444310D01*
Y152666D01*
X444166D01*
Y152810D01*
X444022D01*
Y152954D01*
X443879D01*
Y153098D01*
X443735D01*
Y153242D01*
X443591D01*
Y153385D01*
X443303D01*
Y153529D01*
X443015D01*
Y153673D01*
X442728D01*
Y153817D01*
X442440D01*
Y153961D01*
X442008D01*
Y154105D01*
X441576D01*
Y154249D01*
X441145D01*
Y154393D01*
X440569D01*
Y154537D01*
X439850D01*
Y154680D01*
X439131D01*
Y154824D01*
X438123D01*
Y154968D01*
X437260D01*
Y155112D01*
X436397D01*
Y155256D01*
D02*
G37*
G36*
X385463Y165615D02*
X383593D01*
Y165471D01*
X382874D01*
Y165327D01*
X382442D01*
Y165184D01*
X382154D01*
Y165040D01*
X381866D01*
Y164896D01*
X381579D01*
Y164752D01*
X381435D01*
Y164608D01*
X381291D01*
Y164464D01*
X381003D01*
Y164320D01*
X380859D01*
Y164176D01*
X380715D01*
Y164032D01*
X380572D01*
Y163889D01*
X380428D01*
Y163601D01*
X380284D01*
Y163457D01*
X380140D01*
Y163169D01*
X379996D01*
Y163025D01*
X379852D01*
Y162738D01*
X379708D01*
Y162306D01*
X379564D01*
Y162018D01*
X379421D01*
Y161874D01*
Y161443D01*
X379277D01*
Y160579D01*
X379133D01*
Y160292D01*
X379852D01*
Y160148D01*
X390068D01*
Y161155D01*
X389924D01*
Y161587D01*
X389780D01*
Y162018D01*
X389636D01*
Y162450D01*
X389492D01*
Y162738D01*
X389348D01*
Y163025D01*
X389204D01*
Y163169D01*
X389061D01*
Y163457D01*
X388917D01*
Y163601D01*
X388773D01*
Y163745D01*
X388629D01*
Y163889D01*
X388485D01*
Y164032D01*
X388341D01*
Y164176D01*
X388197D01*
Y164320D01*
X388053D01*
Y164464D01*
X387909D01*
Y164608D01*
X387622D01*
Y164752D01*
X387478D01*
Y164896D01*
X387190D01*
Y165040D01*
X386902D01*
Y165184D01*
X386614D01*
Y165327D01*
X386039D01*
Y165471D01*
X385463D01*
Y165615D01*
D02*
G37*
G36*
X753920Y143938D02*
X744067D01*
Y134084D01*
X753920D01*
Y143938D01*
D02*
G37*
%LPD*%
G36*
X751950Y136055D02*
X746038D01*
Y141967D01*
X751950D01*
Y136055D01*
D02*
G37*
%LPC*%
G36*
X710566Y143938D02*
X700712D01*
Y134084D01*
X710566D01*
Y143938D01*
D02*
G37*
%LPD*%
G36*
X708595Y136055D02*
X702683D01*
Y141967D01*
X708595D01*
Y136055D01*
D02*
G37*
%LPC*%
G36*
X734214Y134084D02*
X732243D01*
Y132114D01*
X734214D01*
Y134084D01*
D02*
G37*
G36*
X524451Y194535D02*
X524307D01*
Y193959D01*
X524163D01*
Y193384D01*
X524019D01*
Y192952D01*
X523875D01*
Y192808D01*
Y192377D01*
X523731D01*
Y191945D01*
X523588D01*
Y191514D01*
X523444D01*
Y190938D01*
X523300D01*
Y190506D01*
X523156D01*
Y189931D01*
X523012D01*
Y189499D01*
X522868D01*
Y189067D01*
X522724D01*
Y188636D01*
X522580D01*
Y188060D01*
X522437D01*
Y187629D01*
X522293D01*
Y187197D01*
X522149D01*
Y186765D01*
X522005D01*
Y186190D01*
X521861D01*
Y185758D01*
X521717D01*
Y185327D01*
X521573D01*
Y184751D01*
X521429D01*
Y184319D01*
X521286D01*
Y183744D01*
X521142D01*
Y183312D01*
X520998D01*
Y182737D01*
X520854D01*
Y182305D01*
X520710D01*
Y181874D01*
X520566D01*
Y181298D01*
X520422D01*
Y180866D01*
X520278D01*
Y180291D01*
X520135D01*
Y179859D01*
X519991D01*
Y179284D01*
X519847D01*
Y178852D01*
X519703D01*
Y178277D01*
X519559D01*
Y177845D01*
X519415D01*
Y177269D01*
X519271D01*
Y176838D01*
X519127D01*
Y176550D01*
X512653D01*
Y176406D01*
X499416D01*
Y176118D01*
X499704D01*
Y175975D01*
X499848D01*
Y175831D01*
X499991D01*
Y175687D01*
X500279D01*
Y175543D01*
X500423D01*
Y175399D01*
X500567D01*
Y175255D01*
X500855D01*
Y175111D01*
X500999D01*
Y174967D01*
X501143D01*
Y174823D01*
X501430D01*
Y174680D01*
X501574D01*
Y174536D01*
X501718D01*
Y174392D01*
X501862D01*
Y174248D01*
X502150D01*
Y174104D01*
X502294D01*
Y173960D01*
X502437D01*
Y173816D01*
X502725D01*
Y173672D01*
X502869D01*
Y173529D01*
X503013D01*
Y173385D01*
X503301D01*
Y173241D01*
X503445D01*
Y173097D01*
X503588D01*
Y172953D01*
X503876D01*
Y172809D01*
X504020D01*
Y172665D01*
X504164D01*
Y172521D01*
X504308D01*
Y172377D01*
X504596D01*
Y172234D01*
X504739D01*
Y172090D01*
X504883D01*
Y171946D01*
X505171D01*
Y171802D01*
X505315D01*
Y171658D01*
X505459D01*
Y171514D01*
X505747D01*
Y171370D01*
X505891D01*
Y171227D01*
X506034D01*
Y171083D01*
X506322D01*
Y170939D01*
X506466D01*
Y170795D01*
X506610D01*
Y170651D01*
X506754D01*
Y170507D01*
X507042D01*
Y170363D01*
X507185D01*
Y170219D01*
X507329D01*
Y170075D01*
X507617D01*
Y169932D01*
X507761D01*
Y169788D01*
X507905D01*
Y169644D01*
X508193D01*
Y169500D01*
X508336D01*
Y169356D01*
X508480D01*
Y169212D01*
X508768D01*
Y169068D01*
X508912D01*
Y168924D01*
X509056D01*
Y168780D01*
X509344D01*
Y168637D01*
X509487D01*
Y168493D01*
X509631D01*
Y168349D01*
X509775D01*
Y168205D01*
X510063D01*
Y168061D01*
X510207D01*
Y167917D01*
X510351D01*
Y167773D01*
X510639D01*
Y167630D01*
X510782D01*
Y167486D01*
X510926D01*
Y167342D01*
X511214D01*
Y167198D01*
X511358D01*
Y167054D01*
X511502D01*
Y166910D01*
X511790D01*
Y166766D01*
X511933D01*
Y166622D01*
X512077D01*
Y166479D01*
X512365D01*
Y166335D01*
X512509D01*
Y166191D01*
X512797D01*
Y166047D01*
X512941D01*
Y165759D01*
X512797D01*
Y165471D01*
X512653D01*
Y165327D01*
X512509D01*
Y165040D01*
X512365D01*
Y164608D01*
X512221D01*
Y164320D01*
X512077D01*
Y164032D01*
X511933D01*
Y163745D01*
X511790D01*
Y163457D01*
X511646D01*
Y163169D01*
X511502D01*
Y162882D01*
X511358D01*
Y162594D01*
X511214D01*
Y162306D01*
X511070D01*
Y161874D01*
X510926D01*
Y161587D01*
X510782D01*
Y161299D01*
X510639D01*
Y161011D01*
X510495D01*
Y160723D01*
X510351D01*
Y160436D01*
X510207D01*
Y160148D01*
X510063D01*
Y159860D01*
X509919D01*
Y159428D01*
X509775D01*
Y159141D01*
X509631D01*
Y158853D01*
X509487D01*
Y158565D01*
X509344D01*
Y158277D01*
X509200D01*
Y157990D01*
X509056D01*
Y157702D01*
X508912D01*
Y157414D01*
X508768D01*
Y156982D01*
X508624D01*
Y156695D01*
X508480D01*
Y156407D01*
X508336D01*
Y156119D01*
X508193D01*
Y155831D01*
X508049D01*
Y155544D01*
X507905D01*
Y155256D01*
X507761D01*
Y154824D01*
X507617D01*
Y154537D01*
X507473D01*
Y154249D01*
X507329D01*
Y153961D01*
X507185D01*
Y153673D01*
X507042D01*
Y153242D01*
X506898D01*
Y152954D01*
X506754D01*
Y152666D01*
X506610D01*
Y152378D01*
X506466D01*
Y152091D01*
X506322D01*
Y151659D01*
X506178D01*
Y151371D01*
X506034D01*
Y151083D01*
X505891D01*
Y150796D01*
X505747D01*
Y150364D01*
X505603D01*
Y150076D01*
X505459D01*
Y149788D01*
X505315D01*
Y149501D01*
X505171D01*
Y149069D01*
X505027D01*
Y148781D01*
X504883D01*
Y148493D01*
X504739D01*
Y148206D01*
X504596D01*
Y147774D01*
X504452D01*
Y147486D01*
X504308D01*
Y147199D01*
X504164D01*
Y146911D01*
X504020D01*
Y146479D01*
X503876D01*
Y146192D01*
X503732D01*
Y145904D01*
X503588D01*
Y145472D01*
X503445D01*
Y145184D01*
X503301D01*
Y144897D01*
X503157D01*
Y144753D01*
X503445D01*
Y144897D01*
X503732D01*
Y145040D01*
X504020D01*
Y145184D01*
X504308D01*
Y145328D01*
X504596D01*
Y145472D01*
X504883D01*
Y145616D01*
X505171D01*
Y145760D01*
X505459D01*
Y145904D01*
X505747D01*
Y146048D01*
X506034D01*
Y146192D01*
X506322D01*
Y146335D01*
X506610D01*
Y146479D01*
X506898D01*
Y146623D01*
X507185D01*
Y146767D01*
X507473D01*
Y146911D01*
X507761D01*
Y147055D01*
X507905D01*
Y147199D01*
X508193D01*
Y147343D01*
X508480D01*
Y147486D01*
X508768D01*
Y147630D01*
X509056D01*
Y147774D01*
X509344D01*
Y147918D01*
X509631D01*
Y148062D01*
X509919D01*
Y148206D01*
X510207D01*
Y148350D01*
X510495D01*
Y148493D01*
X510782D01*
Y148637D01*
X511070D01*
Y148781D01*
X511358D01*
Y148925D01*
X511646D01*
Y149069D01*
X511933D01*
Y149213D01*
X512077D01*
Y149357D01*
X512365D01*
Y149501D01*
X512653D01*
Y149645D01*
X512941D01*
Y149788D01*
X513228D01*
Y149932D01*
X513516D01*
Y150076D01*
X513804D01*
Y150220D01*
X514092D01*
Y150364D01*
X514379D01*
Y150508D01*
X514667D01*
Y150652D01*
X514955D01*
Y150796D01*
X515243D01*
Y150940D01*
X515530D01*
Y151083D01*
X515818D01*
Y151227D01*
X516106D01*
Y151371D01*
X516394D01*
Y151515D01*
X516682D01*
Y151659D01*
X516969D01*
Y151803D01*
X517257D01*
Y151947D01*
X517545D01*
Y152091D01*
X517689D01*
Y152234D01*
X517976D01*
Y152378D01*
X518264D01*
Y152522D01*
X518552D01*
Y152666D01*
X518840D01*
Y152810D01*
X519127D01*
Y152954D01*
X519415D01*
Y153098D01*
X519703D01*
Y153242D01*
X519991D01*
Y153385D01*
X520278D01*
Y153529D01*
X520566D01*
Y153673D01*
X520854D01*
Y153817D01*
X521142D01*
Y153961D01*
X521429D01*
Y154105D01*
X521717D01*
Y154249D01*
X522005D01*
Y154393D01*
X522293D01*
Y154537D01*
X522580D01*
Y154680D01*
X522868D01*
Y154824D01*
X523156D01*
Y154968D01*
X523444D01*
Y155112D01*
X523731D01*
Y155256D01*
X524019D01*
Y155400D01*
X524307D01*
Y155544D01*
X524595D01*
Y155400D01*
X524739D01*
Y155256D01*
X524883D01*
Y155112D01*
X525027D01*
Y154968D01*
X525314D01*
Y154824D01*
X525458D01*
Y154680D01*
X525602D01*
Y154537D01*
X525746D01*
Y154393D01*
X525890D01*
Y154249D01*
X526034D01*
Y154105D01*
X526177D01*
Y153961D01*
X526321D01*
Y153817D01*
X526609D01*
Y153673D01*
X526753D01*
Y153529D01*
X526897D01*
Y153385D01*
X527041D01*
Y153242D01*
X527185D01*
Y153098D01*
X527328D01*
Y152954D01*
X527616D01*
Y152810D01*
X527760D01*
Y152666D01*
X527904D01*
Y152522D01*
X528048D01*
Y152378D01*
X528192D01*
Y152234D01*
X528336D01*
Y152091D01*
X528480D01*
Y151947D01*
X528767D01*
Y151803D01*
X528911D01*
Y151659D01*
X529055D01*
Y151515D01*
X529199D01*
Y151371D01*
X529343D01*
Y151227D01*
X529487D01*
Y151083D01*
X529775D01*
Y150940D01*
X529918D01*
Y150796D01*
X530062D01*
Y150652D01*
X530206D01*
Y150508D01*
X530350D01*
Y150364D01*
X530494D01*
Y150220D01*
X530782D01*
Y150076D01*
X530925D01*
Y149932D01*
X531069D01*
Y149788D01*
X531213D01*
Y149645D01*
X531357D01*
Y149501D01*
X531501D01*
Y149357D01*
X531645D01*
Y149213D01*
X531933D01*
Y149069D01*
X532077D01*
Y148925D01*
X532220D01*
Y148781D01*
X532364D01*
Y148637D01*
X532508D01*
Y148493D01*
X532652D01*
Y148350D01*
X532940D01*
Y148206D01*
X533084D01*
Y148062D01*
X533228D01*
Y147918D01*
X533372D01*
Y147774D01*
X533515D01*
Y147630D01*
X533659D01*
Y147486D01*
X533947D01*
Y147343D01*
X534091D01*
Y147199D01*
X534235D01*
Y147055D01*
X534379D01*
Y146911D01*
X534523D01*
Y146767D01*
X534666D01*
Y146623D01*
X534810D01*
Y146479D01*
X535098D01*
Y146335D01*
X535242D01*
Y146192D01*
X535386D01*
Y146048D01*
X535530D01*
Y145904D01*
X535673D01*
Y145760D01*
X535961D01*
Y145616D01*
X536105D01*
Y145472D01*
X536249D01*
Y145328D01*
X536393D01*
Y145184D01*
X536537D01*
Y145040D01*
X536681D01*
Y144897D01*
X536968D01*
Y144753D01*
X537112D01*
Y144609D01*
X537256D01*
Y144465D01*
X537400D01*
Y144321D01*
X537544D01*
Y144177D01*
X537688D01*
Y144033D01*
X537976D01*
Y143889D01*
X538120D01*
Y143745D01*
X538263D01*
Y143602D01*
X538407D01*
Y143458D01*
X538551D01*
Y143314D01*
X538695D01*
Y143170D01*
X538983D01*
Y143026D01*
X539127D01*
Y142882D01*
X539271D01*
Y142738D01*
X539414D01*
Y142594D01*
X539558D01*
Y142451D01*
X539846D01*
Y142307D01*
X539990D01*
Y142163D01*
X540134D01*
Y142019D01*
X540278D01*
Y141875D01*
X540422D01*
Y141731D01*
X540565D01*
Y141587D01*
X540853D01*
Y141444D01*
X540997D01*
Y141300D01*
X541141D01*
Y141156D01*
X541285D01*
Y141012D01*
X541429D01*
Y140868D01*
X541716D01*
Y140724D01*
X541860D01*
Y140580D01*
X542004D01*
Y140436D01*
X542148D01*
Y140292D01*
X542292D01*
Y140148D01*
X542436D01*
Y140005D01*
X542724D01*
Y139861D01*
X542868D01*
Y139717D01*
X543011D01*
Y139573D01*
X543155D01*
Y139429D01*
X543299D01*
Y139285D01*
X543587D01*
Y139141D01*
X543731D01*
Y138997D01*
X543875D01*
Y138854D01*
X544019D01*
Y138710D01*
X544162D01*
Y139141D01*
X544019D01*
Y139429D01*
X543875D01*
Y139861D01*
X543731D01*
Y140292D01*
X543587D01*
Y140724D01*
X543443D01*
Y141156D01*
X543299D01*
Y141587D01*
X543155D01*
Y142019D01*
X543011D01*
Y142451D01*
X542868D01*
Y142882D01*
X542724D01*
Y143314D01*
X542580D01*
Y143745D01*
X542436D01*
Y144177D01*
X542292D01*
Y144609D01*
X542148D01*
Y145040D01*
X542004D01*
Y145472D01*
X541860D01*
Y145904D01*
X541716D01*
Y146335D01*
X541573D01*
Y146911D01*
X541429D01*
Y147343D01*
X541285D01*
Y147774D01*
X541141D01*
Y148206D01*
X540997D01*
Y148637D01*
X540853D01*
Y149069D01*
X540709D01*
Y149357D01*
X540565D01*
Y149932D01*
X540422D01*
Y150220D01*
X540278D01*
Y150796D01*
X540134D01*
Y151227D01*
X539990D01*
Y151659D01*
X539846D01*
Y152091D01*
X539702D01*
Y152522D01*
X539558D01*
Y152810D01*
X539414D01*
Y153242D01*
X539271D01*
Y153673D01*
X539127D01*
Y154105D01*
X538983D01*
Y154537D01*
X538839D01*
Y154968D01*
X538695D01*
Y155400D01*
X538551D01*
Y155831D01*
X538407D01*
Y156263D01*
X538263D01*
Y156695D01*
X538120D01*
Y157126D01*
X537976D01*
Y157558D01*
X537832D01*
Y157990D01*
X537688D01*
Y158421D01*
X537544D01*
Y158853D01*
X537400D01*
Y159284D01*
X537256D01*
Y159572D01*
X537112D01*
Y160004D01*
X536968D01*
Y160436D01*
X536825D01*
Y160867D01*
X536681D01*
Y161299D01*
X536537D01*
Y161730D01*
X536393D01*
Y162162D01*
X536249D01*
Y162594D01*
X536105D01*
Y163025D01*
X535961D01*
Y163457D01*
X535817D01*
Y163889D01*
X535673D01*
Y164320D01*
X535530D01*
Y164752D01*
X535386D01*
Y165184D01*
X535242D01*
Y165615D01*
X535098D01*
Y166047D01*
X534954D01*
Y166479D01*
X534810D01*
Y166622D01*
X534954D01*
Y166766D01*
X535098D01*
Y166910D01*
X535242D01*
Y167054D01*
X535386D01*
Y167198D01*
X535673D01*
Y167342D01*
X535817D01*
Y167486D01*
X535961D01*
Y167630D01*
X536249D01*
Y167773D01*
X536393D01*
Y167917D01*
X536537D01*
Y168061D01*
X536681D01*
Y168205D01*
X536825D01*
Y168349D01*
X537112D01*
Y168493D01*
X537256D01*
Y168637D01*
X537400D01*
Y168780D01*
X537544D01*
Y168924D01*
X537832D01*
Y169068D01*
X537976D01*
Y169212D01*
X538120D01*
Y169356D01*
X538263D01*
Y169500D01*
X538407D01*
Y169644D01*
X538695D01*
Y169788D01*
X538839D01*
Y169932D01*
X538983D01*
Y170075D01*
X539271D01*
Y170219D01*
X539414D01*
Y170363D01*
X539558D01*
Y170507D01*
X539702D01*
Y170651D01*
X539846D01*
Y170795D01*
X540134D01*
Y170939D01*
X540278D01*
Y171083D01*
X540422D01*
Y171227D01*
X540709D01*
Y171370D01*
X540853D01*
Y171514D01*
X540997D01*
Y171658D01*
X541141D01*
Y171802D01*
X541429D01*
Y171946D01*
X541573D01*
Y172090D01*
X541716D01*
Y172234D01*
X541860D01*
Y172377D01*
X542148D01*
Y172521D01*
X542292D01*
Y172665D01*
X542436D01*
Y172809D01*
X542580D01*
Y172953D01*
X542724D01*
Y173097D01*
X543011D01*
Y173241D01*
X543155D01*
Y173385D01*
X543299D01*
Y173529D01*
X543443D01*
Y173672D01*
X543731D01*
Y173816D01*
X543875D01*
Y173960D01*
X544019D01*
Y174104D01*
X544162D01*
Y174248D01*
X544450D01*
Y174392D01*
X544594D01*
Y174536D01*
X544738D01*
Y174680D01*
X544882D01*
Y174823D01*
X545026D01*
Y174967D01*
X545313D01*
Y175111D01*
X545457D01*
Y175255D01*
X545601D01*
Y175399D01*
X545745D01*
Y175543D01*
X546033D01*
Y175687D01*
X546177D01*
Y175831D01*
X546321D01*
Y175975D01*
X546465D01*
Y176118D01*
X546752D01*
Y176262D01*
X546896D01*
Y176406D01*
X547040D01*
Y176550D01*
X547184D01*
Y176694D01*
X547328D01*
Y176838D01*
X547616D01*
Y176982D01*
X547759D01*
Y177125D01*
X547903D01*
Y177269D01*
X548047D01*
Y177413D01*
X548335D01*
Y177557D01*
X548479D01*
Y177701D01*
X548623D01*
Y177845D01*
X548767D01*
Y177989D01*
X549054D01*
Y178133D01*
X549198D01*
Y178277D01*
X549342D01*
Y178420D01*
X549486D01*
Y178564D01*
X549774D01*
Y178708D01*
X549918D01*
Y178852D01*
X550061D01*
Y178996D01*
X550205D01*
Y179140D01*
X550493D01*
Y179284D01*
X550637D01*
Y179428D01*
X550781D01*
Y179571D01*
X550925D01*
Y179715D01*
X551069D01*
Y179859D01*
X551356D01*
Y180147D01*
X551213D01*
Y180003D01*
X550061D01*
Y179859D01*
X549054D01*
Y179715D01*
X547903D01*
Y179571D01*
X547040D01*
Y179428D01*
X546033D01*
Y179284D01*
X545026D01*
Y179140D01*
X544019D01*
Y178996D01*
X543011D01*
Y178852D01*
X542004D01*
Y178708D01*
X540853D01*
Y178564D01*
X539990D01*
Y178420D01*
X538983D01*
Y178277D01*
X537976D01*
Y178133D01*
X537112D01*
Y177989D01*
X535961D01*
Y177845D01*
X534954D01*
Y177701D01*
X533947D01*
Y177557D01*
X532940D01*
Y177413D01*
X532077D01*
Y177269D01*
X530925D01*
Y177125D01*
X530062D01*
Y176982D01*
X529487D01*
Y177413D01*
X529343D01*
Y177989D01*
X529199D01*
Y178420D01*
X529055D01*
Y178852D01*
X528911D01*
Y179428D01*
X528767D01*
Y179859D01*
X528624D01*
Y180435D01*
X528480D01*
Y180866D01*
X528336D01*
Y181442D01*
X528192D01*
Y181874D01*
X528048D01*
Y182449D01*
X527904D01*
Y182881D01*
X527760D01*
Y183456D01*
X527616D01*
Y183888D01*
X527472D01*
Y184463D01*
X527328D01*
Y184895D01*
X527185D01*
Y185327D01*
X527041D01*
Y185902D01*
X526897D01*
Y186334D01*
X526753D01*
Y186765D01*
X526609D01*
Y187341D01*
X526465D01*
Y187917D01*
X526321D01*
Y188348D01*
X526177D01*
Y188924D01*
X526034D01*
Y189355D01*
X525890D01*
Y189931D01*
X525746D01*
Y190362D01*
X525602D01*
Y190938D01*
X525458D01*
Y191370D01*
X525314D01*
Y191945D01*
X525170D01*
Y192377D01*
X525027D01*
Y192808D01*
X524883D01*
Y193384D01*
X524739D01*
Y193959D01*
X524595D01*
Y194391D01*
X524451D01*
Y194535D01*
D02*
G37*
G36*
X706624Y128172D02*
X704654D01*
Y126201D01*
X706624D01*
Y127679D01*
Y127926D01*
Y128172D01*
D02*
G37*
G36*
X712536Y124231D02*
X710566D01*
Y122260D01*
X712536D01*
Y124231D01*
D02*
G37*
G36*
X728302Y116348D02*
X726331D01*
Y114377D01*
X728302D01*
Y116348D01*
D02*
G37*
G36*
X746038Y104524D02*
X740126D01*
Y98858D01*
Y98612D01*
X746038D01*
Y104524D01*
D02*
G37*
G36*
X728302Y100583D02*
X726331D01*
Y98612D01*
X728302D01*
Y100583D01*
D02*
G37*
G36*
X744067Y96642D02*
X742096D01*
Y94671D01*
X744067D01*
Y96642D01*
D02*
G37*
G36*
X738155Y92700D02*
X736184D01*
Y90730D01*
X738155D01*
Y92700D01*
D02*
G37*
%LPD*%
G36*
X744067Y100583D02*
X742096D01*
Y102554D01*
X744067D01*
Y100583D01*
D02*
G37*
%LPC*%
G36*
X748008Y126201D02*
X746038D01*
Y124231D01*
X748008D01*
Y125463D01*
Y125709D01*
Y126201D01*
D02*
G37*
G36*
X403161Y117272D02*
X400859D01*
Y117128D01*
X400571D01*
Y116984D01*
X400283D01*
Y116840D01*
X400139D01*
Y116552D01*
X399995D01*
Y116121D01*
X399851D01*
Y115545D01*
X399995D01*
Y115113D01*
X400139D01*
Y114826D01*
X400283D01*
Y114682D01*
X400427D01*
Y114538D01*
X400715D01*
Y114394D01*
X401146D01*
Y114250D01*
X403161D01*
Y114394D01*
X403304D01*
Y116984D01*
Y117128D01*
X403161D01*
Y117272D01*
D02*
G37*
G36*
X388485D02*
X386614D01*
Y117128D01*
X386039D01*
Y116984D01*
X385607D01*
Y116840D01*
X385463D01*
Y116696D01*
X385176D01*
Y116552D01*
X385032D01*
Y116409D01*
X384888D01*
Y116265D01*
X384744D01*
Y115977D01*
X384600D01*
Y115689D01*
X384456D01*
Y115257D01*
X384312D01*
Y114538D01*
X384169D01*
Y112811D01*
X384312D01*
Y112236D01*
X384456D01*
Y111804D01*
X384600D01*
Y111517D01*
X384744D01*
Y111229D01*
X384888D01*
Y111085D01*
X385032D01*
Y110941D01*
X385176D01*
Y110797D01*
X385320D01*
Y110653D01*
X385607D01*
Y110509D01*
X385751D01*
Y110365D01*
X386183D01*
Y110222D01*
X387478D01*
Y110078D01*
X387766D01*
Y110222D01*
X388485D01*
Y117272D01*
D02*
G37*
G36*
X376399Y116552D02*
X376111D01*
Y116121D01*
X375967D01*
Y115689D01*
X375824D01*
Y115257D01*
X375680D01*
Y114970D01*
Y114826D01*
X375536D01*
Y114250D01*
X375392D01*
Y113819D01*
X375248D01*
Y113243D01*
X375104D01*
Y112811D01*
X374960D01*
Y112524D01*
X377550D01*
Y112811D01*
X377406D01*
Y113243D01*
X377262D01*
Y113675D01*
X377118D01*
Y114250D01*
X376975D01*
Y114826D01*
X376831D01*
Y115257D01*
X376687D01*
Y115689D01*
X376543D01*
Y116121D01*
X376399D01*
Y116552D01*
D02*
G37*
G36*
X413088Y117416D02*
X411937D01*
Y117272D01*
X411506D01*
Y117128D01*
X411218D01*
Y116984D01*
X411074D01*
Y116840D01*
X410930D01*
Y116696D01*
X410786D01*
Y116552D01*
X410642D01*
Y116409D01*
X410499D01*
Y116265D01*
X410355D01*
Y115977D01*
X410211D01*
Y115545D01*
X410067D01*
Y114970D01*
X409923D01*
Y112380D01*
X410067D01*
Y111804D01*
X410211D01*
Y111517D01*
X410355D01*
Y111085D01*
X410499D01*
Y110941D01*
X410642D01*
Y110797D01*
X410786D01*
Y110653D01*
X410930D01*
Y110509D01*
X411074D01*
Y110365D01*
X411218D01*
Y110222D01*
X411506D01*
Y110078D01*
X412081D01*
Y109934D01*
X412944D01*
Y110078D01*
X413520D01*
Y110222D01*
X413808D01*
Y110365D01*
X413952D01*
Y110509D01*
X414095D01*
Y110653D01*
X414239D01*
Y110797D01*
X414383D01*
Y110941D01*
X414527D01*
Y111085D01*
X414671D01*
Y111373D01*
X414815D01*
Y111804D01*
X414959D01*
Y112380D01*
X415103D01*
Y114970D01*
X414959D01*
Y115545D01*
X414815D01*
Y115977D01*
X414671D01*
Y116265D01*
X414527D01*
Y116409D01*
X414383D01*
Y116696D01*
X414239D01*
Y116840D01*
X413952D01*
Y116984D01*
X413808D01*
Y117128D01*
X413520D01*
Y117272D01*
X413088D01*
Y117416D01*
D02*
G37*
G36*
X718448Y94671D02*
X716478D01*
Y90730D01*
X720419D01*
Y92700D01*
X718448D01*
Y94671D01*
D02*
G37*
G36*
X710566Y100583D02*
X700712D01*
Y90730D01*
X710566D01*
Y100583D01*
D02*
G37*
%LPD*%
G36*
X708595Y92700D02*
X702683D01*
Y98612D01*
X708595D01*
Y92700D01*
D02*
G37*
%LPC*%
G36*
X721572Y187326D02*
Y187301D01*
X721574Y187299D01*
X721572Y187326D01*
D02*
G37*
%LPD*%
D10*
X510000Y636222D02*
Y639172D01*
Y599172D02*
Y602122D01*
X470000Y636222D02*
Y639172D01*
Y599172D02*
Y602122D01*
X507050Y639172D02*
X510000D01*
X507050Y599172D02*
X510000D01*
X470000Y639172D02*
X472950D01*
X470000Y599172D02*
X472950D01*
X490160Y650772D02*
Y660772D01*
X499760Y650772D02*
Y660772D01*
X475500Y838000D02*
X504500D01*
X475500Y802000D02*
X504500D01*
X475500Y836000D02*
Y838000D01*
X504500Y836000D02*
Y838000D01*
Y802000D02*
Y804000D01*
X475500Y802000D02*
Y804000D01*
X499900Y284372D02*
X505000D01*
X475000D02*
X480100D01*
X475000Y309372D02*
X480100D01*
X499900D02*
X505000D01*
X490660Y267572D02*
Y277572D01*
X500260Y267572D02*
Y277572D01*
X458060Y293872D02*
X468060D01*
X458060Y284272D02*
X468060D01*
D11*
X520750Y631672D02*
G03*
X520750Y631672I-1000J0D01*
G01*
X469000Y839000D02*
G03*
X469000Y839000I-1000J0D01*
G01*
X511000Y304872D02*
G03*
X511000Y304872I-1000J0D01*
G01*
D12*
X207498Y543909D02*
X204165D01*
X205831D01*
Y533912D01*
X207498D01*
X204165D01*
X192502D02*
X199167D01*
X192502Y540577D01*
Y542243D01*
X194168Y543909D01*
X197501D01*
X199167Y542243D01*
X182506D02*
X184172Y543909D01*
X187504D01*
X189170Y542243D01*
Y535578D01*
X187504Y533912D01*
X184172D01*
X182506Y535578D01*
X175295Y515044D02*
X176461Y516210D01*
X178794D01*
X179960Y515044D01*
Y513878D01*
X178794Y512711D01*
X176461D01*
X175295Y511545D01*
Y510379D01*
X176461Y509212D01*
X178794D01*
X179960Y510379D01*
X172962Y516210D02*
Y509212D01*
X169464D01*
X168297Y510379D01*
Y515044D01*
X169464Y516210D01*
X172962D01*
X165965Y509212D02*
Y513878D01*
X163632Y516210D01*
X161299Y513878D01*
Y509212D01*
Y512711D01*
X165965D01*
X202892Y515044D02*
X204058Y516210D01*
X206390D01*
X207557Y515044D01*
Y513878D01*
X206390Y512711D01*
X204058D01*
X202892Y511545D01*
Y510379D01*
X204058Y509212D01*
X206390D01*
X207557Y510379D01*
X195894Y515044D02*
X197060Y516210D01*
X199393D01*
X200559Y515044D01*
Y510379D01*
X199393Y509212D01*
X197060D01*
X195894Y510379D01*
X193561Y516210D02*
Y509212D01*
X188896D01*
X807654Y515044D02*
X808821Y516210D01*
X811153D01*
X812320Y515044D01*
Y510379D01*
X811153Y509212D01*
X808821D01*
X807654Y510379D01*
Y512711D01*
X809987D01*
X805322Y509212D02*
Y516210D01*
X800657Y509212D01*
Y516210D01*
X798324D02*
Y509212D01*
X794825D01*
X793659Y510379D01*
Y515044D01*
X794825Y516210D01*
X798324D01*
X784820Y515044D02*
X783653Y516210D01*
X781321D01*
X780154Y515044D01*
Y513878D01*
X781321Y512711D01*
X782487D01*
X781321D01*
X780154Y511545D01*
Y510379D01*
X781321Y509212D01*
X783653D01*
X784820Y510379D01*
X777822Y516210D02*
Y511545D01*
X775489Y509212D01*
X773157Y511545D01*
Y516210D01*
X767260D02*
Y509212D01*
X763761D01*
X762595Y510379D01*
Y511545D01*
X763761Y512711D01*
X767260D01*
X763761D01*
X762595Y513878D01*
Y515044D01*
X763761Y516210D01*
X767260D01*
X760262Y509212D02*
Y513878D01*
X757930Y516210D01*
X755597Y513878D01*
Y509212D01*
Y512711D01*
X760262D01*
X753265Y516210D02*
X748599D01*
X750932D01*
Y509212D01*
X294340Y387840D02*
X304337D01*
X301005Y391172D01*
X304337Y394505D01*
X294340D01*
X304337Y397837D02*
Y404501D01*
Y401169D01*
X294340D01*
Y407834D02*
X304337D01*
Y412832D01*
X302671Y414498D01*
X299338D01*
X297672Y412832D01*
Y407834D01*
Y411166D02*
X294340Y414498D01*
Y427827D02*
Y431160D01*
Y429493D01*
X304337D01*
X302671Y427827D01*
X685040Y384540D02*
X695037D01*
X691705Y387872D01*
X695037Y391205D01*
X685040D01*
X695037Y394537D02*
Y401201D01*
Y397869D01*
X685040D01*
Y404534D02*
X695037D01*
Y409532D01*
X693371Y411198D01*
X690039D01*
X688372Y409532D01*
Y404534D01*
Y407866D02*
X685040Y411198D01*
Y431192D02*
Y424527D01*
X691705Y431192D01*
X693371D01*
X695037Y429526D01*
Y426193D01*
X693371Y424527D01*
X282670Y411263D02*
Y418261D01*
X280338Y415928D01*
X278005Y418261D01*
Y411263D01*
X275673D02*
X273340D01*
X274506D01*
Y418261D01*
X275673Y417094D01*
X284403Y386140D02*
Y393138D01*
X282070Y390805D01*
X279738Y393138D01*
Y386140D01*
X272740D02*
X277405D01*
X272740Y390805D01*
Y391972D01*
X273906Y393138D01*
X276239D01*
X277405Y391972D01*
X675803Y386140D02*
Y393138D01*
X673470Y390805D01*
X671138Y393138D01*
Y386140D01*
X664140D02*
X668805D01*
X664140Y390805D01*
Y391972D01*
X665306Y393138D01*
X667639D01*
X668805Y391972D01*
X674070Y411263D02*
Y418261D01*
X671738Y415928D01*
X669405Y418261D01*
Y411263D01*
X667073D02*
X664740D01*
X665906D01*
Y418261D01*
X667073Y417094D01*
X553955Y516937D02*
X560620D01*
Y506940D01*
X553955D01*
X560620Y511939D02*
X557287D01*
X550623Y506940D02*
Y516937D01*
X543958Y506940D01*
Y516937D01*
X533961Y515271D02*
X535628Y516937D01*
X538960D01*
X540626Y515271D01*
Y508606D01*
X538960Y506940D01*
X535628D01*
X533961Y508606D01*
X525631Y516937D02*
X528963D01*
X530629Y515271D01*
Y508606D01*
X528963Y506940D01*
X525631D01*
X523965Y508606D01*
Y515271D01*
X525631Y516937D01*
X520633D02*
Y506940D01*
X515634D01*
X513968Y508606D01*
Y515271D01*
X515634Y516937D01*
X520633D01*
X503971D02*
X510636D01*
Y506940D01*
X503971D01*
X510636Y511939D02*
X507304D01*
X500639Y506940D02*
Y516937D01*
X495640D01*
X493974Y515271D01*
Y511939D01*
X495640Y510272D01*
X500639D01*
X497307D02*
X493974Y506940D01*
X483978Y515271D02*
X485644Y516937D01*
X488976D01*
X490642Y515271D01*
Y513605D01*
X488976Y511939D01*
X485644D01*
X483978Y510272D01*
Y508606D01*
X485644Y506940D01*
X488976D01*
X490642Y508606D01*
X620720Y643210D02*
Y636212D01*
X617221D01*
X616054Y637379D01*
Y638545D01*
X617221Y639711D01*
X620720D01*
X617221D01*
X616054Y640878D01*
Y642044D01*
X617221Y643210D01*
X620720D01*
X610223D02*
X612556D01*
X613722Y642044D01*
Y637379D01*
X612556Y636212D01*
X610223D01*
X609057Y637379D01*
Y642044D01*
X610223Y643210D01*
X603225D02*
X605558D01*
X606724Y642044D01*
Y637379D01*
X605558Y636212D01*
X603225D01*
X602059Y637379D01*
Y642044D01*
X603225Y643210D01*
X599726D02*
X595061D01*
X597394D01*
Y636212D01*
X606860Y618038D02*
X602195D01*
X604528D01*
Y611040D01*
X599862Y618038D02*
X595197Y611040D01*
Y618038D02*
X599862Y611040D01*
X585560Y611140D02*
Y618138D01*
X582061D01*
X580895Y616972D01*
Y614639D01*
X582061Y613473D01*
X585560D01*
X583228D02*
X580895Y611140D01*
X578562Y618138D02*
X573897Y611140D01*
Y618138D02*
X578562Y611140D01*
X580854Y643210D02*
X585520D01*
Y636212D01*
X580854D01*
X585520Y639711D02*
X583187D01*
X578522Y636212D02*
Y643210D01*
X573857Y636212D01*
Y643210D01*
X812360Y533912D02*
Y543909D01*
X807362D01*
X805696Y542243D01*
Y538911D01*
X807362Y537245D01*
X812360D01*
X802364Y543909D02*
Y533912D01*
X799031Y537245D01*
X795699Y533912D01*
Y543909D01*
X792367Y533912D02*
Y543909D01*
X787368D01*
X785702Y542243D01*
Y538911D01*
X787368Y537245D01*
X792367D01*
X789035D02*
X785702Y533912D01*
X555954Y481712D02*
X560620D01*
X555954Y486377D01*
Y487544D01*
X557121Y488710D01*
X559453D01*
X560620Y487544D01*
X553622Y488710D02*
Y481712D01*
X550123D01*
X548957Y482879D01*
Y484045D01*
X550123Y485211D01*
X553622D01*
X550123D01*
X548957Y486377D01*
Y487544D01*
X550123Y488710D01*
X553622D01*
X533955Y481712D02*
X538620D01*
X533955Y486377D01*
Y487544D01*
X535121Y488710D01*
X537453D01*
X538620Y487544D01*
X531622Y481712D02*
Y486377D01*
X529289Y488710D01*
X526957Y486377D01*
Y481712D01*
Y485211D01*
X531622D01*
X515520Y481712D02*
X513187D01*
X514353D01*
Y488710D01*
X515520Y487544D01*
X509688Y488710D02*
Y481712D01*
X506189D01*
X505023Y482879D01*
Y484045D01*
X506189Y485211D01*
X509688D01*
X506189D01*
X505023Y486377D01*
Y487544D01*
X506189Y488710D01*
X509688D01*
X497020Y481712D02*
X494687D01*
X495853D01*
Y488710D01*
X497020Y487544D01*
X491188Y481712D02*
Y486377D01*
X488856Y488710D01*
X486523Y486377D01*
Y481712D01*
Y485211D01*
X491188D01*
D14*
X686400Y246000D02*
Y257996D01*
X682401Y253997D01*
X678403Y257996D01*
Y246000D01*
X674404D02*
X670405D01*
X672405D01*
Y253997D01*
X674404D01*
X656410D02*
X662408D01*
X664407Y251998D01*
Y247999D01*
X662408Y246000D01*
X656410D01*
X652411Y253997D02*
Y246000D01*
Y249999D01*
X650412Y251998D01*
X648412Y253997D01*
X646413D01*
X638416Y246000D02*
X634417D01*
X632418Y247999D01*
Y251998D01*
X634417Y253997D01*
X638416D01*
X640415Y251998D01*
Y247999D01*
X638416Y246000D01*
X628419D02*
Y253997D01*
X626419D01*
X624420Y251998D01*
Y246000D01*
Y251998D01*
X622421Y253997D01*
X620421Y251998D01*
Y246000D01*
X614423D02*
X610425D01*
X608425Y247999D01*
Y251998D01*
X610425Y253997D01*
X614423D01*
X616423Y251998D01*
Y247999D01*
X614423Y246000D01*
X604427Y253997D02*
Y247999D01*
X602427Y246000D01*
X596429D01*
Y253997D01*
X592430Y246000D02*
X586432D01*
X584433Y247999D01*
X586432Y249999D01*
X590431D01*
X592430Y251998D01*
X590431Y253997D01*
X584433D01*
X574436Y246000D02*
X578435D01*
X580434Y247999D01*
Y251998D01*
X578435Y253997D01*
X574436D01*
X572437Y251998D01*
Y249999D01*
X580434D01*
X792303Y273811D02*
X800300D01*
Y267813D01*
X796301D01*
X800300D01*
Y261815D01*
X782306D02*
X786305D01*
X788304Y263815D01*
Y267813D01*
X786305Y269813D01*
X782306D01*
X780307Y267813D01*
Y265814D01*
X788304D01*
X776308Y261815D02*
X772309D01*
X774308D01*
Y273811D01*
X776308D01*
X766311Y261815D02*
X762312D01*
X764312D01*
Y269813D01*
X766311D01*
X756314Y257817D02*
Y269813D01*
X750316D01*
X748317Y267813D01*
Y263815D01*
X750316Y261815D01*
X756314D01*
X738320D02*
X742319D01*
X744318Y263815D01*
Y267813D01*
X742319Y269813D01*
X738320D01*
X736321Y267813D01*
Y265814D01*
X744318D01*
X712329Y273811D02*
X720326D01*
Y267813D01*
X716327D01*
X720326D01*
Y261815D01*
X708330D02*
Y263815D01*
X706330D01*
Y261815D01*
X708330D01*
X678340Y271812D02*
X680339Y273811D01*
X684338D01*
X686337Y271812D01*
Y263815D01*
X684338Y261815D01*
X680339D01*
X678340Y263815D01*
X674341Y269813D02*
Y261815D01*
Y265814D01*
X672342Y267813D01*
X670342Y269813D01*
X668343D01*
X660345Y261815D02*
X656347D01*
X654347Y263815D01*
Y267813D01*
X656347Y269813D01*
X660345D01*
X662345Y267813D01*
Y263815D01*
X660345Y261815D01*
X642351Y269813D02*
X648349D01*
X650349Y267813D01*
Y263815D01*
X648349Y261815D01*
X642351D01*
X630355Y269813D02*
X636353D01*
X638353Y267813D01*
Y263815D01*
X636353Y261815D01*
X630355D01*
X624357D02*
X620358D01*
X618359Y263815D01*
Y267813D01*
X620358Y269813D01*
X624357D01*
X626356Y267813D01*
Y263815D01*
X624357Y261815D01*
X792500Y289613D02*
X784503D01*
X788501D01*
Y277617D01*
X778505D02*
X774506D01*
X772507Y279616D01*
Y283615D01*
X774506Y285614D01*
X778505D01*
X780504Y283615D01*
Y279616D01*
X778505Y277617D01*
X768508D02*
Y285614D01*
X766508D01*
X764509Y283615D01*
Y277617D01*
Y283615D01*
X762510Y285614D01*
X760510Y283615D01*
Y277617D01*
X754512Y285614D02*
X750514D01*
X748514Y283615D01*
Y277617D01*
X754512D01*
X756512Y279616D01*
X754512Y281615D01*
X748514D01*
X744516Y277617D02*
X738518D01*
X736518Y279616D01*
X738518Y281615D01*
X742516D01*
X744516Y283615D01*
X742516Y285614D01*
X736518D01*
X712526Y287613D02*
X714525Y289613D01*
X718524D01*
X720523Y287613D01*
Y285614D01*
X718524Y283615D01*
X714525D01*
X712526Y281615D01*
Y279616D01*
X714525Y277617D01*
X718524D01*
X720523Y279616D01*
X708527Y277617D02*
Y279616D01*
X706528D01*
Y277617D01*
X708527D01*
X678537Y287613D02*
X680536Y289613D01*
X684535D01*
X686534Y287613D01*
Y279616D01*
X684535Y277617D01*
X680536D01*
X678537Y279616D01*
Y283615D01*
X682536D01*
X674538Y277617D02*
X670540D01*
X672539D01*
Y285614D01*
X674538D01*
X662542Y277617D02*
X658543D01*
X656544Y279616D01*
Y283615D01*
X658543Y285614D01*
X662542D01*
X664541Y283615D01*
Y279616D01*
X662542Y277617D01*
X652545D02*
Y285614D01*
X650546D01*
X648547Y283615D01*
Y277617D01*
Y283615D01*
X646547Y285614D01*
X644548Y283615D01*
Y277617D01*
X640549D02*
X636551D01*
X638550D01*
Y285614D01*
X640549D01*
X742303Y246000D02*
X750300D01*
X742303Y253997D01*
Y255997D01*
X744302Y257996D01*
X748301D01*
X750300Y255997D01*
X738304D02*
X736305Y257996D01*
X732306D01*
X730307Y255997D01*
Y247999D01*
X732306Y246000D01*
X736305D01*
X738304Y247999D01*
Y255997D01*
X718310Y246000D02*
X726308D01*
X718310Y253997D01*
Y255997D01*
X720310Y257996D01*
X724308D01*
X726308Y255997D01*
X706314Y257996D02*
X710313Y255997D01*
X714312Y251998D01*
Y247999D01*
X712312Y246000D01*
X708314D01*
X706314Y247999D01*
Y249999D01*
X708314Y251998D01*
X714312D01*
M02*
