G04*
G04 #@! TF.GenerationSoftware,Altium Limited,Altium Designer,23.1.1 (15)*
G04*
G04 Layer_Color=255*
%FSLAX44Y44*%
%MOMM*%
G71*
G04*
G04 #@! TF.SameCoordinates,06529313-8F5D-48FA-AF42-15034B8276AF*
G04*
G04*
G04 #@! TF.FilePolarity,Positive*
G04*
G01*
G75*
%ADD15R,0.6000X0.5600*%
%ADD16R,0.5600X0.6000*%
G04:AMPARAMS|DCode=17|XSize=0.54mm|YSize=0.6mm|CornerRadius=0.1431mm|HoleSize=0mm|Usage=FLASHONLY|Rotation=270.000|XOffset=0mm|YOffset=0mm|HoleType=Round|Shape=RoundedRectangle|*
%AMROUNDEDRECTD17*
21,1,0.5400,0.3138,0,0,270.0*
21,1,0.2538,0.6000,0,0,270.0*
1,1,0.2862,-0.1569,-0.1269*
1,1,0.2862,-0.1569,0.1269*
1,1,0.2862,0.1569,0.1269*
1,1,0.2862,0.1569,-0.1269*
%
%ADD17ROUNDEDRECTD17*%
G04:AMPARAMS|DCode=18|XSize=0.54mm|YSize=0.6mm|CornerRadius=0.1431mm|HoleSize=0mm|Usage=FLASHONLY|Rotation=0.000|XOffset=0mm|YOffset=0mm|HoleType=Round|Shape=RoundedRectangle|*
%AMROUNDEDRECTD18*
21,1,0.5400,0.3138,0,0,0.0*
21,1,0.2538,0.6000,0,0,0.0*
1,1,0.2862,0.1269,-0.1569*
1,1,0.2862,-0.1269,-0.1569*
1,1,0.2862,-0.1269,0.1569*
1,1,0.2862,0.1269,0.1569*
%
%ADD18ROUNDEDRECTD18*%
%ADD19R,1.1176X2.6924*%
%ADD20R,0.7000X1.5000*%
%ADD21R,0.8000X0.8000*%
%ADD22C,0.6500*%
%ADD23R,1.1176X1.4478*%
%ADD24R,2.6924X1.1176*%
G04:AMPARAMS|DCode=25|XSize=0.54mm|YSize=0.6mm|CornerRadius=0.1431mm|HoleSize=0mm|Usage=FLASHONLY|Rotation=45.000|XOffset=0mm|YOffset=0mm|HoleType=Round|Shape=RoundedRectangle|*
%AMROUNDEDRECTD25*
21,1,0.5400,0.3138,0,0,45.0*
21,1,0.2538,0.6000,0,0,45.0*
1,1,0.2862,0.2007,-0.0212*
1,1,0.2862,0.0212,-0.2007*
1,1,0.2862,-0.2007,0.0212*
1,1,0.2862,-0.0212,0.2007*
%
%ADD25ROUNDEDRECTD25*%
G04:AMPARAMS|DCode=26|XSize=1.21mm|YSize=0.59mm|CornerRadius=0.1475mm|HoleSize=0mm|Usage=FLASHONLY|Rotation=0.000|XOffset=0mm|YOffset=0mm|HoleType=Round|Shape=RoundedRectangle|*
%AMROUNDEDRECTD26*
21,1,1.2100,0.2950,0,0,0.0*
21,1,0.9150,0.5900,0,0,0.0*
1,1,0.2950,0.4575,-0.1475*
1,1,0.2950,-0.4575,-0.1475*
1,1,0.2950,-0.4575,0.1475*
1,1,0.2950,0.4575,0.1475*
%
%ADD26ROUNDEDRECTD26*%
G04:AMPARAMS|DCode=27|XSize=1.21mm|YSize=0.59mm|CornerRadius=0.1475mm|HoleSize=0mm|Usage=FLASHONLY|Rotation=90.000|XOffset=0mm|YOffset=0mm|HoleType=Round|Shape=RoundedRectangle|*
%AMROUNDEDRECTD27*
21,1,1.2100,0.2950,0,0,90.0*
21,1,0.9150,0.5900,0,0,90.0*
1,1,0.2950,0.1475,0.4575*
1,1,0.2950,0.1475,-0.4575*
1,1,0.2950,-0.1475,-0.4575*
1,1,0.2950,-0.1475,0.4575*
%
%ADD27ROUNDEDRECTD27*%
G04:AMPARAMS|DCode=28|XSize=0.56mm|YSize=0.6mm|CornerRadius=0mm|HoleSize=0mm|Usage=FLASHONLY|Rotation=225.000|XOffset=0mm|YOffset=0mm|HoleType=Round|Shape=Rectangle|*
%AMROTATEDRECTD28*
4,1,4,-0.0141,0.4101,0.4101,-0.0141,0.0141,-0.4101,-0.4101,0.0141,-0.0141,0.4101,0.0*
%
%ADD28ROTATEDRECTD28*%

G04:AMPARAMS|DCode=29|XSize=0.56mm|YSize=0.6mm|CornerRadius=0mm|HoleSize=0mm|Usage=FLASHONLY|Rotation=315.000|XOffset=0mm|YOffset=0mm|HoleType=Round|Shape=Rectangle|*
%AMROTATEDRECTD29*
4,1,4,-0.4101,-0.0141,0.0141,0.4101,0.4101,0.0141,-0.0141,-0.4101,-0.4101,-0.0141,0.0*
%
%ADD29ROTATEDRECTD29*%

%ADD30R,0.9000X1.0000*%
%ADD31R,1.7000X0.5500*%
G04:AMPARAMS|DCode=32|XSize=0.54mm|YSize=0.6mm|CornerRadius=0.1431mm|HoleSize=0mm|Usage=FLASHONLY|Rotation=135.000|XOffset=0mm|YOffset=0mm|HoleType=Round|Shape=RoundedRectangle|*
%AMROUNDEDRECTD32*
21,1,0.5400,0.3138,0,0,135.0*
21,1,0.2538,0.6000,0,0,135.0*
1,1,0.2862,0.0212,0.2007*
1,1,0.2862,0.2007,0.0212*
1,1,0.2862,-0.0212,-0.2007*
1,1,0.2862,-0.2007,-0.0212*
%
%ADD32ROUNDEDRECTD32*%
G04:AMPARAMS|DCode=33|XSize=1.21mm|YSize=0.59mm|CornerRadius=0.1475mm|HoleSize=0mm|Usage=FLASHONLY|Rotation=135.000|XOffset=0mm|YOffset=0mm|HoleType=Round|Shape=RoundedRectangle|*
%AMROUNDEDRECTD33*
21,1,1.2100,0.2950,0,0,135.0*
21,1,0.9150,0.5900,0,0,135.0*
1,1,0.2950,-0.2192,0.4278*
1,1,0.2950,0.4278,-0.2192*
1,1,0.2950,0.2192,-0.4278*
1,1,0.2950,-0.4278,0.2192*
%
%ADD33ROUNDEDRECTD33*%
G04:AMPARAMS|DCode=34|XSize=1.21mm|YSize=0.59mm|CornerRadius=0.1475mm|HoleSize=0mm|Usage=FLASHONLY|Rotation=45.000|XOffset=0mm|YOffset=0mm|HoleType=Round|Shape=RoundedRectangle|*
%AMROUNDEDRECTD34*
21,1,1.2100,0.2950,0,0,45.0*
21,1,0.9150,0.5900,0,0,45.0*
1,1,0.2950,0.4278,0.2192*
1,1,0.2950,-0.2192,-0.4278*
1,1,0.2950,-0.4278,-0.2192*
1,1,0.2950,0.2192,0.4278*
%
%ADD34ROUNDEDRECTD34*%
G04:AMPARAMS|DCode=35|XSize=1.57mm|YSize=0.41mm|CornerRadius=0.0513mm|HoleSize=0mm|Usage=FLASHONLY|Rotation=0.000|XOffset=0mm|YOffset=0mm|HoleType=Round|Shape=RoundedRectangle|*
%AMROUNDEDRECTD35*
21,1,1.5700,0.3075,0,0,0.0*
21,1,1.4675,0.4100,0,0,0.0*
1,1,0.1025,0.7338,-0.1538*
1,1,0.1025,-0.7338,-0.1538*
1,1,0.1025,-0.7338,0.1538*
1,1,0.1025,0.7338,0.1538*
%
%ADD35ROUNDEDRECTD35*%
%ADD36R,0.6000X1.5500*%
%ADD37R,1.2000X1.2000*%
%ADD38R,0.4000X0.8000*%
%ADD39R,0.8000X0.4000*%
%ADD40R,0.8000X0.8000*%
G04:AMPARAMS|DCode=41|XSize=0.46mm|YSize=0.2mm|CornerRadius=0.025mm|HoleSize=0mm|Usage=FLASHONLY|Rotation=270.000|XOffset=0mm|YOffset=0mm|HoleType=Round|Shape=RoundedRectangle|*
%AMROUNDEDRECTD41*
21,1,0.4600,0.1500,0,0,270.0*
21,1,0.4100,0.2000,0,0,270.0*
1,1,0.0500,-0.0750,-0.2050*
1,1,0.0500,-0.0750,0.2050*
1,1,0.0500,0.0750,0.2050*
1,1,0.0500,0.0750,-0.2050*
%
%ADD41ROUNDEDRECTD41*%
G04:AMPARAMS|DCode=42|XSize=1.97mm|YSize=0.6mm|CornerRadius=0.045mm|HoleSize=0mm|Usage=FLASHONLY|Rotation=180.000|XOffset=0mm|YOffset=0mm|HoleType=Round|Shape=RoundedRectangle|*
%AMROUNDEDRECTD42*
21,1,1.9700,0.5100,0,0,180.0*
21,1,1.8800,0.6000,0,0,180.0*
1,1,0.0900,-0.9400,0.2550*
1,1,0.0900,0.9400,0.2550*
1,1,0.0900,0.9400,-0.2550*
1,1,0.0900,-0.9400,-0.2550*
%
%ADD42ROUNDEDRECTD42*%
%ADD43R,1.2000X1.8000*%
%ADD44R,1.0000X0.8000*%
%ADD83C,0.9000*%
G04:AMPARAMS|DCode=88|XSize=0.6mm|YSize=0.5mm|CornerRadius=0.0125mm|HoleSize=0mm|Usage=FLASHONLY|Rotation=180.000|XOffset=0mm|YOffset=0mm|HoleType=Round|Shape=RoundedRectangle|*
%AMROUNDEDRECTD88*
21,1,0.6000,0.4750,0,0,180.0*
21,1,0.5750,0.5000,0,0,180.0*
1,1,0.0250,-0.2875,0.2375*
1,1,0.0250,0.2875,0.2375*
1,1,0.0250,0.2875,-0.2375*
1,1,0.0250,-0.2875,-0.2375*
%
%ADD88ROUNDEDRECTD88*%
G04:AMPARAMS|DCode=89|XSize=1.2mm|YSize=2mm|CornerRadius=0.03mm|HoleSize=0mm|Usage=FLASHONLY|Rotation=180.000|XOffset=0mm|YOffset=0mm|HoleType=Round|Shape=RoundedRectangle|*
%AMROUNDEDRECTD89*
21,1,1.2000,1.9400,0,0,180.0*
21,1,1.1400,2.0000,0,0,180.0*
1,1,0.0600,-0.5700,0.9700*
1,1,0.0600,0.5700,0.9700*
1,1,0.0600,0.5700,-0.9700*
1,1,0.0600,-0.5700,-0.9700*
%
%ADD89ROUNDEDRECTD89*%
%ADD90R,0.4000X0.4000*%
%ADD91R,2.4800X3.4000*%
%ADD97O,0.9000X2.4000*%
%ADD98O,0.9000X1.7000*%
%ADD99C,1.6050*%
%ADD100R,1.5600X1.5600*%
%ADD101R,1.5600X1.5600*%
%ADD102P,2.2062X4X360.0*%
%ADD103C,0.3000*%
%ADD104P,2.2062X4X270.0*%
%ADD105C,1.5750*%
%ADD106R,1.5750X1.5750*%
%ADD107C,1.5600*%
%ADD108R,1.6050X1.6050*%
%ADD109R,1.6050X1.6050*%
%ADD110C,3.0000*%
D15*
X220459Y623427D02*
D03*
Y632127D02*
D03*
X220459Y652972D02*
D03*
Y661672D02*
D03*
X196460Y652972D02*
D03*
Y661672D02*
D03*
X396800Y49818D02*
D03*
Y58518D02*
D03*
X412739Y49818D02*
D03*
Y58518D02*
D03*
X428479Y49818D02*
D03*
Y58518D02*
D03*
X48759Y99222D02*
D03*
X125359Y70022D02*
D03*
X424829Y463422D02*
D03*
X297500Y446772D02*
D03*
X106955Y552722D02*
D03*
X535939D02*
D03*
X110289Y463421D02*
D03*
X48759Y90522D02*
D03*
X110289Y472121D02*
D03*
X196460Y632077D02*
D03*
Y623377D02*
D03*
X220459Y602272D02*
D03*
Y593572D02*
D03*
X196460Y602272D02*
D03*
Y593572D02*
D03*
X68660Y561422D02*
D03*
Y552722D02*
D03*
X535939Y561422D02*
D03*
X523936D02*
D03*
Y552722D02*
D03*
X603829D02*
D03*
Y561422D02*
D03*
X579829Y552722D02*
D03*
Y561422D02*
D03*
X106955D02*
D03*
X118955D02*
D03*
Y552722D02*
D03*
X44660D02*
D03*
Y561422D02*
D03*
X236859Y480472D02*
D03*
Y471772D02*
D03*
X297500Y455472D02*
D03*
X424829Y472122D02*
D03*
X125359Y61322D02*
D03*
X411059Y684322D02*
D03*
Y693022D02*
D03*
D16*
X210383Y676880D02*
D03*
X201684D02*
D03*
X223859Y567962D02*
D03*
X258690Y867252D02*
D03*
X400023Y867492D02*
D03*
X206709Y546472D02*
D03*
X198009D02*
D03*
X206709Y534522D02*
D03*
X198009D02*
D03*
X428229Y488972D02*
D03*
X436930D02*
D03*
X550910Y72676D02*
D03*
X542210D02*
D03*
X113709Y488972D02*
D03*
X122409D02*
D03*
X160569Y860342D02*
D03*
X151869D02*
D03*
X391324Y867492D02*
D03*
X249990Y867252D02*
D03*
X391324Y855492D02*
D03*
X400023D02*
D03*
X249990Y855252D02*
D03*
X258690D02*
D03*
X498940Y860342D02*
D03*
X490239D02*
D03*
X498940Y836342D02*
D03*
X490239D02*
D03*
X151869D02*
D03*
X160569D02*
D03*
X232559Y567962D02*
D03*
X306010Y467372D02*
D03*
X297309D02*
D03*
D17*
X232460Y661672D02*
D03*
Y653072D02*
D03*
X208459Y661672D02*
D03*
Y653072D02*
D03*
X297460Y436672D02*
D03*
Y428072D02*
D03*
X411059Y664672D02*
D03*
X591829Y561422D02*
D03*
X297959Y525572D02*
D03*
X310660Y525572D02*
D03*
X56659Y561422D02*
D03*
X436829Y463472D02*
D03*
X232460Y593622D02*
D03*
X208459D02*
D03*
X232460Y623477D02*
D03*
X208459D02*
D03*
X122289Y463471D02*
D03*
X224860Y480372D02*
D03*
Y471772D02*
D03*
X527859Y498742D02*
D03*
Y490142D02*
D03*
X212859Y471672D02*
D03*
Y480272D02*
D03*
Y498742D02*
D03*
Y490142D02*
D03*
X122289Y472071D02*
D03*
X208459Y632077D02*
D03*
X232460D02*
D03*
X208459Y602222D02*
D03*
X232460D02*
D03*
X436829Y472072D02*
D03*
X56659Y552822D02*
D03*
X310660Y534172D02*
D03*
X297959Y534172D02*
D03*
X591829Y552822D02*
D03*
X411059Y673272D02*
D03*
D18*
X222633Y676884D02*
D03*
X231234D02*
D03*
X223909Y579962D02*
D03*
X490289Y848342D02*
D03*
X160520D02*
D03*
X548359Y452172D02*
D03*
X512459Y72672D02*
D03*
X503859D02*
D03*
X539759Y452172D02*
D03*
Y464172D02*
D03*
X548359D02*
D03*
X151919Y848342D02*
D03*
X498890D02*
D03*
X232509Y579962D02*
D03*
D19*
X229545Y707472D02*
D03*
X199573D02*
D03*
D20*
X144830Y39582D02*
D03*
X189830D02*
D03*
X174830D02*
D03*
D21*
X412739Y37222D02*
D03*
Y22222D02*
D03*
X428479Y37222D02*
D03*
Y22222D02*
D03*
X397000D02*
D03*
Y37222D02*
D03*
D22*
X613660Y519472D02*
D03*
X589259D02*
D03*
X638060D02*
D03*
X45760D02*
D03*
X70160D02*
D03*
X21360D02*
D03*
X346326Y502872D02*
D03*
X389259D02*
D03*
X79660Y728572D02*
D03*
X324860Y502872D02*
D03*
X52359Y728572D02*
D03*
X367793Y502872D02*
D03*
X435460Y633872D02*
D03*
X414160Y652922D02*
D03*
X435460Y652772D02*
D03*
X414160Y633872D02*
D03*
X33210Y61772D02*
D03*
X92710D02*
D03*
Y75272D02*
D03*
X33210D02*
D03*
X41709D02*
D03*
X50209D02*
D03*
X58710D02*
D03*
X67210D02*
D03*
X75710D02*
D03*
X84209D02*
D03*
Y61772D02*
D03*
X75710D02*
D03*
X67210D02*
D03*
X58710D02*
D03*
X50209D02*
D03*
X41709D02*
D03*
D23*
X311791Y411991D02*
D03*
X556628Y435372D02*
D03*
X242528Y455672D02*
D03*
X224592D02*
D03*
X538691Y435372D02*
D03*
X329728Y411991D02*
D03*
D24*
X359759Y417486D02*
D03*
X467259Y22686D02*
D03*
Y52658D02*
D03*
X359759Y447458D02*
D03*
D25*
X100021Y783904D02*
D03*
X93940Y777822D02*
D03*
D26*
X394570Y821162D02*
D03*
X255439Y840162D02*
D03*
X230340Y830662D02*
D03*
X255439Y821162D02*
D03*
X394570Y840162D02*
D03*
X419669Y830662D02*
D03*
D27*
X126010Y581572D02*
D03*
X542990D02*
D03*
X523989D02*
D03*
X533489Y606672D02*
D03*
X107009Y581572D02*
D03*
X116510Y606672D02*
D03*
D28*
X139666Y736835D02*
D03*
X145818Y742987D02*
D03*
X154303Y734501D02*
D03*
X148151Y728349D02*
D03*
X85420Y786272D02*
D03*
X91571Y792424D02*
D03*
X102390Y769302D02*
D03*
X108542Y775453D02*
D03*
D29*
X510099Y737143D02*
D03*
X537318Y773793D02*
D03*
X543470Y767641D02*
D03*
X554289Y790763D02*
D03*
X560441Y784612D02*
D03*
X503947Y743295D02*
D03*
X495462Y734810D02*
D03*
X501614Y728658D02*
D03*
D30*
X377830Y17322D02*
D03*
X336829D02*
D03*
X320330D02*
D03*
X279329D02*
D03*
X262829D02*
D03*
X221829D02*
D03*
Y33322D02*
D03*
X262829D02*
D03*
X279329D02*
D03*
X320330D02*
D03*
X336829D02*
D03*
X377830D02*
D03*
D31*
X357329Y11072D02*
D03*
X299830D02*
D03*
X242330D02*
D03*
D32*
X545839Y782243D02*
D03*
X551920Y776162D02*
D03*
D33*
X495711Y761396D02*
D03*
X471245Y772427D02*
D03*
X482276Y747961D02*
D03*
D34*
X167723Y747921D02*
D03*
X154288Y761356D02*
D03*
X178754Y772387D02*
D03*
D35*
X511009Y504722D02*
D03*
Y498222D02*
D03*
Y459222D02*
D03*
X453610Y465722D02*
D03*
X196390Y504722D02*
D03*
Y498222D02*
D03*
Y459222D02*
D03*
X138989Y465722D02*
D03*
Y504722D02*
D03*
Y498222D02*
D03*
Y491722D02*
D03*
Y485222D02*
D03*
Y478722D02*
D03*
Y472222D02*
D03*
Y459222D02*
D03*
X196390Y465722D02*
D03*
Y472222D02*
D03*
Y478722D02*
D03*
Y485222D02*
D03*
Y491722D02*
D03*
X453610Y504722D02*
D03*
Y498222D02*
D03*
Y491722D02*
D03*
Y485222D02*
D03*
Y478722D02*
D03*
Y472222D02*
D03*
Y459222D02*
D03*
X511009Y465722D02*
D03*
Y472222D02*
D03*
Y478722D02*
D03*
Y485222D02*
D03*
Y491722D02*
D03*
D36*
X471440Y395822D02*
D03*
X228559D02*
D03*
X178559D02*
D03*
X188559D02*
D03*
X198559D02*
D03*
X208559D02*
D03*
X218559D02*
D03*
X421440D02*
D03*
X431440D02*
D03*
X441440D02*
D03*
X451440D02*
D03*
X461440D02*
D03*
D37*
X308500Y619172D02*
D03*
Y602672D02*
D03*
X325000D02*
D03*
X341499D02*
D03*
Y619172D02*
D03*
Y635672D02*
D03*
X325000D02*
D03*
Y619172D02*
D03*
D38*
X265499Y689172D02*
D03*
X274000D02*
D03*
X282500D02*
D03*
X291000D02*
D03*
X299499D02*
D03*
X307999D02*
D03*
X316500D02*
D03*
X325000D02*
D03*
X333499D02*
D03*
X342000D02*
D03*
X350499D02*
D03*
X358999D02*
D03*
X367500D02*
D03*
X375999D02*
D03*
X384500D02*
D03*
X265499Y549172D02*
D03*
X274000D02*
D03*
X282500D02*
D03*
X291000D02*
D03*
X299499D02*
D03*
X307999D02*
D03*
X316500D02*
D03*
X325000D02*
D03*
X333499D02*
D03*
X342000D02*
D03*
X350499D02*
D03*
X358999D02*
D03*
X367500D02*
D03*
X375999D02*
D03*
X384500D02*
D03*
D39*
X395000Y661672D02*
D03*
Y653172D02*
D03*
X255000Y670172D02*
D03*
Y678672D02*
D03*
Y661672D02*
D03*
Y653172D02*
D03*
Y644672D02*
D03*
Y636172D02*
D03*
Y627672D02*
D03*
Y619172D02*
D03*
Y610672D02*
D03*
Y602172D02*
D03*
Y593672D02*
D03*
Y585172D02*
D03*
Y576672D02*
D03*
Y568172D02*
D03*
Y559672D02*
D03*
X395000D02*
D03*
Y568172D02*
D03*
Y576672D02*
D03*
Y585172D02*
D03*
Y593672D02*
D03*
Y602172D02*
D03*
Y610672D02*
D03*
Y619172D02*
D03*
Y627672D02*
D03*
Y636172D02*
D03*
Y644672D02*
D03*
Y670172D02*
D03*
Y678672D02*
D03*
D40*
Y549172D02*
D03*
Y689172D02*
D03*
X255000Y549172D02*
D03*
Y689172D02*
D03*
D41*
X62959Y100622D02*
D03*
X66459Y90222D02*
D03*
X59460D02*
D03*
D42*
X547509Y19722D02*
D03*
Y32422D02*
D03*
Y45122D02*
D03*
Y57822D02*
D03*
X498009D02*
D03*
Y45122D02*
D03*
Y32422D02*
D03*
Y19722D02*
D03*
D43*
X165560Y421072D02*
D03*
X241560D02*
D03*
X408439D02*
D03*
X484440D02*
D03*
D44*
X130829Y32582D02*
D03*
Y11582D02*
D03*
X203829Y32582D02*
D03*
Y11582D02*
D03*
D83*
X152330Y22082D02*
D03*
X182330D02*
D03*
D88*
X331259Y444722D02*
D03*
X310259Y431722D02*
D03*
Y438222D02*
D03*
Y444722D02*
D03*
Y451222D02*
D03*
X331259D02*
D03*
Y438222D02*
D03*
Y431722D02*
D03*
D89*
X320760Y441472D02*
D03*
D90*
X308500Y635672D02*
D03*
D91*
X167689Y481972D02*
D03*
X482309D02*
D03*
D97*
X106209Y65472D02*
D03*
X19710D02*
D03*
D98*
X106209Y31672D02*
D03*
X19710D02*
D03*
D99*
X17199Y687272D02*
D03*
X286900Y922472D02*
D03*
X632799Y763472D02*
D03*
Y738072D02*
D03*
Y712672D02*
D03*
Y687272D02*
D03*
Y661872D02*
D03*
X312299Y922472D02*
D03*
X337700D02*
D03*
X363100D02*
D03*
X388499D02*
D03*
X17199Y712672D02*
D03*
Y738072D02*
D03*
Y763472D02*
D03*
Y788872D02*
D03*
D100*
X205060Y859461D02*
D03*
X444939Y859462D02*
D03*
Y830662D02*
D03*
X205060Y830661D02*
D03*
D101*
X41490Y606822D02*
D03*
X608509D02*
D03*
X578489D02*
D03*
X71509D02*
D03*
D102*
X523859Y825242D02*
D03*
X502959Y804352D02*
D03*
D103*
X320760Y433972D02*
D03*
Y441472D02*
D03*
Y448972D02*
D03*
D104*
X126140Y825242D02*
D03*
X147040Y804352D02*
D03*
D105*
X596009Y63272D02*
D03*
D106*
Y38272D02*
D03*
D107*
X520920Y786392D02*
D03*
X108179Y807282D02*
D03*
X608509Y581422D02*
D03*
X541820Y807282D02*
D03*
X41490Y581422D02*
D03*
X470340Y859462D02*
D03*
X179660Y859461D02*
D03*
X578489Y581422D02*
D03*
X71509D02*
D03*
X470340Y830662D02*
D03*
X179660Y830661D02*
D03*
X129079Y786392D02*
D03*
D108*
X632799Y788872D02*
D03*
X17199Y661872D02*
D03*
D109*
X261500Y922472D02*
D03*
D110*
X20499Y476372D02*
D03*
X629499D02*
D03*
X20499Y117372D02*
D03*
X629499D02*
D03*
M02*
