G04*
G04 #@! TF.GenerationSoftware,Altium Limited,Altium Designer,23.1.1 (15)*
G04*
G04 Layer_Color=128*
%FSLAX44Y44*%
%MOMM*%
G71*
G04*
G04 #@! TF.SameCoordinates,6E2E4CF0-E359-4451-A4CD-7E5F78DB66F6*
G04*
G04*
G04 #@! TF.FilePolarity,Positive*
G04*
G01*
G75*
%ADD10C,0.1270*%
D10*
X759000Y606800D02*
X772000D01*
X765500Y600300D02*
Y613300D01*
X867000Y606800D02*
X880000D01*
X873500Y600300D02*
Y613300D01*
X658400Y826200D02*
X671400D01*
X664900Y819700D02*
Y832700D01*
X658400Y718200D02*
X671400D01*
X664900Y711700D02*
Y724700D01*
X527271Y896595D02*
X540271D01*
X533771Y890095D02*
Y903095D01*
X585299Y805508D02*
X598299D01*
X591799Y799008D02*
Y812008D01*
X100000Y606800D02*
X113000D01*
X106500Y600300D02*
Y613300D01*
X208000Y606800D02*
X221000D01*
X214500Y600300D02*
Y613300D01*
X381701Y805508D02*
X394701D01*
X388201Y799008D02*
Y812008D01*
X439729Y896595D02*
X452729D01*
X446229Y890095D02*
Y903095D01*
X308600Y718200D02*
X321600D01*
X315100Y711700D02*
Y724700D01*
X308600Y826200D02*
X321600D01*
X315100Y819700D02*
Y832700D01*
X692500Y158600D02*
X717500D01*
X705000Y146100D02*
Y171100D01*
X262500Y158600D02*
X287500D01*
X275000Y146100D02*
Y171100D01*
X157500Y476370D02*
X182500D01*
X170000Y463870D02*
Y488870D01*
X157500Y117370D02*
X182500D01*
X170000Y104870D02*
Y129870D01*
X342830Y22082D02*
X351830D01*
X347330Y17582D02*
Y26582D01*
X312830Y22082D02*
X321830D01*
X317330Y17582D02*
Y26582D01*
X548150Y945000D02*
X558850D01*
X553500Y939650D02*
Y950350D01*
X522750Y945000D02*
X533450D01*
X528100Y939650D02*
Y950350D01*
X497350Y945000D02*
X508050D01*
X502700Y939650D02*
Y950350D01*
X471950Y945000D02*
X482650D01*
X477300Y939650D02*
Y950350D01*
X421150Y945000D02*
X431850D01*
X426500Y939650D02*
Y950350D01*
X446550Y945000D02*
X457250D01*
X451900Y939650D02*
Y950350D01*
X899650Y702000D02*
X910350D01*
X905000Y696650D02*
Y707350D01*
X899650Y676600D02*
X910350D01*
X905000Y671250D02*
Y681950D01*
X899650Y651200D02*
X910350D01*
X905000Y645850D02*
Y656550D01*
X899650Y625800D02*
X910350D01*
X905000Y620450D02*
Y631150D01*
X899650Y600400D02*
X910350D01*
X905000Y595050D02*
Y605750D01*
X899650Y575000D02*
X910350D01*
X905000Y569650D02*
Y580350D01*
X69650Y575000D02*
X80350D01*
X75000Y569650D02*
Y580350D01*
X69650Y600400D02*
X80350D01*
X75000Y595050D02*
Y605750D01*
X69650Y625800D02*
X80350D01*
X75000Y620450D02*
Y631150D01*
X69650Y651200D02*
X80350D01*
X75000Y645850D02*
Y656550D01*
X69650Y676600D02*
X80350D01*
X75000Y671250D02*
Y681950D01*
X69650Y702000D02*
X80350D01*
X75000Y696650D02*
Y707350D01*
X484760Y448972D02*
X486760D01*
X485760Y447972D02*
Y449972D01*
X484760Y441472D02*
X486760D01*
X485760Y440472D02*
Y442472D01*
X484760Y433972D02*
X486760D01*
X485760Y432972D02*
Y434972D01*
X782500Y44350D02*
X792500D01*
X787500Y39350D02*
Y49350D01*
X259810Y58772D02*
X265810D01*
X262810Y55772D02*
Y61772D01*
X173310Y58772D02*
X179310D01*
X176310Y55772D02*
Y61772D01*
X259810Y24972D02*
X265810D01*
X262810Y21972D02*
Y27972D01*
X173310Y24972D02*
X179310D01*
X176310Y21972D02*
Y27972D01*
X187810Y55072D02*
X191810D01*
X189810Y53072D02*
Y57072D01*
X247310Y55072D02*
X251310D01*
X249310Y53072D02*
Y57072D01*
X247310Y68572D02*
X251310D01*
X249310Y66572D02*
Y70572D01*
X187810Y68572D02*
X191810D01*
X189810Y66572D02*
Y70572D01*
X481500Y90100D02*
X498500D01*
X490000Y81600D02*
Y98600D01*
X481500Y227100D02*
X498500D01*
X490000Y218600D02*
Y235600D01*
X196310Y55072D02*
X200310D01*
X198310Y53072D02*
Y57072D01*
X204810Y55072D02*
X208810D01*
X206810Y53072D02*
Y57072D01*
X213310Y55072D02*
X217310D01*
X215310Y53072D02*
Y57072D01*
X221810Y55072D02*
X225810D01*
X223810Y53072D02*
Y57072D01*
X230310Y55072D02*
X234310D01*
X232310Y53072D02*
Y57072D01*
X238810Y55072D02*
X242810D01*
X240810Y53072D02*
Y57072D01*
X238810Y68572D02*
X242810D01*
X240810Y66572D02*
Y70572D01*
X230310Y68572D02*
X234310D01*
X232310Y66572D02*
Y70572D01*
X221810Y68572D02*
X225810D01*
X223810Y66572D02*
Y70572D01*
X213310Y68572D02*
X217310D01*
X215310Y66572D02*
Y70572D01*
X204810Y68572D02*
X208810D01*
X206810Y66572D02*
Y70572D01*
X196310Y68572D02*
X200310D01*
X198310Y66572D02*
Y70572D01*
X732500Y44350D02*
X742500D01*
X737500Y39350D02*
Y49350D01*
X757500Y44350D02*
X767500D01*
X762500Y39350D02*
Y49350D01*
X797500Y476370D02*
X822500D01*
X810000Y463870D02*
Y488870D01*
X797500Y117370D02*
X822500D01*
X810000Y104870D02*
Y129870D01*
X179200Y524772D02*
X182200D01*
X180700Y523272D02*
Y526272D01*
X206500Y524772D02*
X209500D01*
X208000Y523272D02*
Y526272D01*
X418600Y489700D02*
X421600D01*
X420100Y488200D02*
Y491200D01*
X314800Y518700D02*
X317800D01*
X316300Y517200D02*
Y520200D01*
X609000Y627700D02*
X612000D01*
X610500Y626200D02*
Y629200D01*
X587700Y627700D02*
X590700D01*
X589200Y626200D02*
Y629200D01*
X525900Y623800D02*
X528900D01*
X527400Y622300D02*
Y625300D01*
X671564Y607600D02*
X674564D01*
X673064Y606100D02*
Y609100D01*
X544600Y418200D02*
X547600D01*
X546100Y416700D02*
Y419700D01*
X544600Y430200D02*
X547600D01*
X546100Y428700D02*
Y431700D01*
X553400Y451200D02*
X556400D01*
X554900Y449700D02*
Y452700D01*
X549700Y459800D02*
X552700D01*
X551200Y458300D02*
Y461300D01*
X543800Y475100D02*
X546800D01*
X545300Y473600D02*
Y476600D01*
X529000Y475100D02*
X532000D01*
X530500Y473600D02*
Y476600D01*
X514200Y475100D02*
X517200D01*
X515700Y473600D02*
Y476600D01*
X499400Y475100D02*
X502400D01*
X500900Y473600D02*
Y476600D01*
X356134Y558100D02*
X359134D01*
X357634Y556600D02*
Y559600D01*
X382400Y558100D02*
X385400D01*
X383900Y556600D02*
Y559600D01*
X495860Y561372D02*
X498860D01*
X497360Y559872D02*
Y562872D01*
X489360Y561372D02*
X492360D01*
X490860Y559872D02*
Y562872D01*
X480000Y561372D02*
X483000D01*
X481500Y559872D02*
Y562872D01*
X418560Y532872D02*
X421560D01*
X420060Y531372D02*
Y534372D01*
X831500Y607600D02*
X834500D01*
X833000Y606100D02*
Y609100D01*
X621100Y607600D02*
X624100D01*
X622600Y606100D02*
Y609100D01*
X614400Y563000D02*
X617400D01*
X615900Y561500D02*
Y564500D01*
X499300Y379200D02*
X502300D01*
X500800Y377700D02*
Y380700D01*
X418600Y471638D02*
X421600D01*
X420100Y470138D02*
Y473138D01*
X430200Y404300D02*
X433200D01*
X431700Y402800D02*
Y405800D01*
X388600Y498500D02*
X391600D01*
X390100Y497000D02*
Y500000D01*
X388600Y509300D02*
X391600D01*
X390100Y507800D02*
Y510800D01*
X457800Y480900D02*
X460800D01*
X459300Y479400D02*
Y482400D01*
X418600Y497900D02*
X421600D01*
X420100Y496400D02*
Y499400D01*
X418600Y480800D02*
X421600D01*
X420100Y479300D02*
Y482300D01*
X418600Y441804D02*
X421600D01*
X420100Y440303D02*
Y443303D01*
X418600Y432201D02*
X421600D01*
X420100Y430701D02*
Y433702D01*
X418600Y423200D02*
X421600D01*
X420100Y421700D02*
Y424700D01*
X451360Y474342D02*
X454360D01*
X452860Y472842D02*
Y475842D01*
X451360Y464174D02*
X454360D01*
X452860Y462674D02*
Y465674D01*
X451360Y454882D02*
X454360D01*
X452860Y453382D02*
Y456382D01*
X451360Y445919D02*
X454360D01*
X452860Y444419D02*
Y447419D01*
X451360Y437267D02*
X454360D01*
X452860Y435767D02*
Y438767D01*
X451360Y429072D02*
X454360D01*
X452860Y427572D02*
Y430572D01*
X456700Y419000D02*
X459700D01*
X458200Y417500D02*
Y420500D01*
X452600Y379200D02*
X455600D01*
X454100Y377700D02*
Y380700D01*
X441700Y379200D02*
X444700D01*
X443200Y377700D02*
Y380700D01*
X430800Y379200D02*
X433800D01*
X432300Y377700D02*
Y380700D01*
X431100Y426000D02*
X434100D01*
X432600Y424500D02*
Y427500D01*
X452300Y408500D02*
X455300D01*
X453800Y407000D02*
Y410000D01*
X459800Y410200D02*
X462800D01*
X461300Y408700D02*
Y411700D01*
X418600Y414900D02*
X421600D01*
X420100Y413400D02*
Y416400D01*
X418600Y404300D02*
X421600D01*
X420100Y402800D02*
Y405800D01*
X441800Y404300D02*
X444800D01*
X443300Y402800D02*
Y405800D01*
X388700Y379200D02*
X391700D01*
X390200Y377700D02*
Y380700D01*
X374000Y379200D02*
X377000D01*
X375500Y377700D02*
Y380700D01*
X403400Y379200D02*
X406400D01*
X404900Y377700D02*
Y380700D01*
X418100Y379200D02*
X421100D01*
X419600Y377700D02*
Y380700D01*
X459000Y369200D02*
X462000D01*
X460500Y367700D02*
Y370700D01*
X447811Y369200D02*
X450811D01*
X449311Y367700D02*
Y370700D01*
X437200Y369200D02*
X440200D01*
X438700Y367700D02*
Y370700D01*
X424000Y369200D02*
X427000D01*
X425500Y367700D02*
Y370700D01*
X362200Y361500D02*
X365200D01*
X363700Y360000D02*
Y363000D01*
X280600Y556500D02*
X283600D01*
X282100Y555000D02*
Y558000D01*
X280600Y550500D02*
X283600D01*
X282100Y549000D02*
Y552000D01*
X232750Y540500D02*
X235750D01*
X234250Y539000D02*
Y542000D01*
X226750Y540500D02*
X229750D01*
X228250Y539000D02*
Y542000D01*
X297120Y542212D02*
X300120D01*
X298620Y540712D02*
Y543712D01*
X548700Y347300D02*
X551700D01*
X550200Y345800D02*
Y348800D01*
X529900Y370700D02*
X532900D01*
X531400Y369200D02*
Y372200D01*
X504800Y260600D02*
X507800D01*
X506300Y259100D02*
Y262100D01*
X472200Y260600D02*
X475200D01*
X473700Y259100D02*
Y262100D01*
X454200Y325300D02*
X457200D01*
X455700Y323800D02*
Y326800D01*
X448900Y312000D02*
X451900D01*
X450400Y310500D02*
Y313500D01*
X448900Y301300D02*
X451900D01*
X450400Y299800D02*
Y302800D01*
X528100Y301300D02*
X531100D01*
X529600Y299800D02*
Y302800D01*
X528100Y312000D02*
X531100D01*
X529600Y310500D02*
Y313500D01*
X539920Y289100D02*
X542920D01*
X541420Y287600D02*
Y290600D01*
X437080Y289100D02*
X440080D01*
X438580Y287600D02*
Y290600D01*
X475600Y379200D02*
X478600D01*
X477100Y377700D02*
Y380700D01*
X522800Y325300D02*
X525800D01*
X524300Y323800D02*
Y326800D01*
X217860Y112272D02*
X220860D01*
X219360Y110772D02*
Y113772D01*
X338260Y53972D02*
X341260D01*
X339760Y52472D02*
Y55472D01*
X348814Y662722D02*
X351814D01*
X350314Y661222D02*
Y664222D01*
X393955Y816894D02*
X396954D01*
X395454Y815394D02*
Y818394D01*
X313600Y731700D02*
X316600D01*
X315100Y730200D02*
Y733200D01*
X437476Y885209D02*
X440476D01*
X438976Y883709D02*
Y886709D01*
X256700Y622000D02*
X259700D01*
X258200Y620500D02*
Y623500D01*
X227600Y652200D02*
X230600D01*
X229100Y650700D02*
Y653700D01*
X430500Y653300D02*
X433500D01*
X432000Y651800D02*
Y654800D01*
X858500Y606800D02*
X861500D01*
X860000Y605300D02*
Y608300D01*
X573180Y576800D02*
X576180D01*
X574680Y575300D02*
Y578300D01*
X663400Y731700D02*
X666400D01*
X664900Y730200D02*
Y733200D01*
X586100Y579200D02*
X589100D01*
X587600Y577700D02*
Y580700D01*
X583046Y816894D02*
X586046D01*
X584546Y815394D02*
Y818394D01*
X522500Y561372D02*
X525500D01*
X524000Y559872D02*
Y562872D01*
X514000Y561372D02*
X517000D01*
X515500Y559872D02*
Y562872D01*
X538200Y607800D02*
X541200D01*
X539700Y606300D02*
Y609300D01*
X199500Y606800D02*
X202500D01*
X201000Y605300D02*
Y608300D01*
X445400Y532872D02*
X448400D01*
X446900Y531372D02*
Y534372D01*
X580310Y506492D02*
X583310D01*
X581810Y504992D02*
Y507992D01*
X432560Y576672D02*
X435560D01*
X434060Y575172D02*
Y578172D01*
X432560Y585172D02*
X435560D01*
X434060Y583672D02*
Y586672D01*
X396060Y643672D02*
X399060D01*
X397560Y642172D02*
Y645172D01*
X285900Y451200D02*
X288900D01*
X287400Y449700D02*
Y452700D01*
X431400Y613200D02*
X434400D01*
X432900Y611700D02*
Y614700D01*
X442760Y664972D02*
X445760D01*
X444260Y663472D02*
Y666472D01*
X431400Y620950D02*
X434400D01*
X432900Y619450D02*
Y622450D01*
X675460Y69472D02*
X678460D01*
X676960Y67972D02*
Y70972D01*
X589400Y61800D02*
X592400D01*
X590900Y60300D02*
Y63300D01*
X541330Y53972D02*
X544330D01*
X542830Y52472D02*
Y55472D01*
X483830Y53972D02*
X486830D01*
X485330Y52472D02*
Y55472D01*
X573660Y61800D02*
X576660D01*
X575160Y60300D02*
Y63300D01*
X587660Y652922D02*
X590660D01*
X589160Y651422D02*
Y654422D01*
X762760Y524772D02*
X765760D01*
X764260Y523272D02*
Y526272D01*
X521700Y526022D02*
X524700D01*
X523200Y524522D02*
Y527522D01*
X530605Y526022D02*
X533605D01*
X532105Y524522D02*
Y527522D01*
X539510Y526022D02*
X542510D01*
X541010Y524522D02*
Y527522D01*
X279400Y83800D02*
X282400D01*
X280900Y82300D02*
Y85300D01*
X286500Y426800D02*
X289500D01*
X288000Y425300D02*
Y428300D01*
X286500Y401678D02*
X289500D01*
X288000Y400177D02*
Y403177D01*
X677900Y401678D02*
X680900D01*
X679400Y400177D02*
Y403177D01*
X694000Y353500D02*
X697000D01*
X695500Y352000D02*
Y355000D01*
X700000Y353500D02*
X703000D01*
X701500Y352000D02*
Y355000D01*
X595000Y380100D02*
X598000D01*
X596500Y378600D02*
Y381600D01*
X677900Y426800D02*
X680900D01*
X679400Y425300D02*
Y428300D01*
X584900Y380100D02*
X587900D01*
X586400Y378600D02*
Y381600D01*
X484200Y467800D02*
X487200D01*
X485700Y466300D02*
Y469300D01*
X608960Y652772D02*
X611960D01*
X610460Y651272D02*
Y654272D01*
X458460Y642272D02*
X461460D01*
X459960Y640772D02*
Y643772D01*
X348814Y643672D02*
X351814D01*
X350314Y642172D02*
Y645172D01*
X402560Y691372D02*
X405560D01*
X404060Y689872D02*
Y692872D01*
X383460Y543672D02*
X386460D01*
X384960Y542172D02*
Y545172D01*
X383460Y537172D02*
X386460D01*
X384960Y535672D02*
Y538672D01*
X426330Y53972D02*
X429330D01*
X427830Y52472D02*
Y55472D01*
X787160Y524772D02*
X790160D01*
X788660Y523272D02*
Y526272D01*
X562760Y497172D02*
X565760D01*
X564260Y495672D02*
Y498672D01*
X498360Y497172D02*
X501360D01*
X499860Y495672D02*
Y498672D01*
X541910Y497122D02*
X544910D01*
X543410Y495622D02*
Y498622D01*
X519826Y497172D02*
X522826D01*
X521326Y495672D02*
Y498672D01*
X382260Y442572D02*
X385260D01*
X383760Y441072D02*
Y444072D01*
X382260Y436572D02*
X385260D01*
X383760Y435072D02*
Y438072D01*
X529960Y394672D02*
X532960D01*
X531460Y393172D02*
Y396172D01*
X529960Y388672D02*
X532960D01*
X531460Y387172D02*
Y390172D01*
X456060Y570672D02*
X459060D01*
X457560Y569172D02*
Y572172D01*
X456060Y580172D02*
X459060D01*
X457560Y578672D02*
Y581672D01*
X580310Y480372D02*
X583310D01*
X581810Y478872D02*
Y481872D01*
X283520Y501332D02*
X286520D01*
X285020Y499832D02*
Y502832D01*
X452960Y658772D02*
X455960D01*
X454460Y657272D02*
Y660272D01*
X456060Y591872D02*
X459060D01*
X457560Y590372D02*
Y593372D01*
X430060Y677372D02*
X433060D01*
X431560Y675872D02*
Y678872D01*
X573180Y568302D02*
X576180D01*
X574680Y566802D02*
Y569802D01*
X498190Y672462D02*
X501190D01*
X499690Y670962D02*
Y673962D01*
X580310Y494562D02*
X583310D01*
X581810Y493062D02*
Y496062D01*
X451370Y521732D02*
X454370D01*
X452870Y520232D02*
Y523232D01*
X382100Y410412D02*
X385100D01*
X383600Y408912D02*
Y411912D01*
X372150Y410412D02*
X375150D01*
X373650Y408912D02*
Y411912D01*
X573180Y559782D02*
X576180D01*
X574680Y558282D02*
Y561282D01*
X624930Y410412D02*
X627930D01*
X626430Y408912D02*
Y411912D01*
X614980Y410412D02*
X617980D01*
X616480Y408912D02*
Y411912D01*
X297120Y521732D02*
X300120D01*
X298620Y520232D02*
Y523232D01*
X297120Y531972D02*
X300120D01*
X298620Y530472D02*
Y533472D01*
M02*
