G04*
G04 #@! TF.GenerationSoftware,Altium Limited,Altium Designer,23.1.1 (15)*
G04*
G04 Layer_Color=16711935*
%FSLAX44Y44*%
%MOMM*%
G71*
G04*
G04 #@! TF.SameCoordinates,6E2E4CF0-E359-4451-A4CD-7E5F78DB66F6*
G04*
G04*
G04 #@! TF.FilePolarity,Positive*
G04*
G01*
G75*
%ADD10C,0.1270*%
%ADD11C,0.2000*%
%ADD13C,0.1524*%
%ADD14C,0.1000*%
%ADD140C,0.0254*%
D10*
X346830Y-6918D02*
Y8082D01*
X317830Y-6918D02*
X346830D01*
X317830D02*
Y8082D01*
X297330D02*
Y36082D01*
Y8082D02*
X317830D01*
X346830D01*
X367330D01*
Y36082D01*
X297330D02*
X367330D01*
X568680Y516488D02*
Y527487D01*
X574280Y516488D02*
Y527487D01*
X568680Y516488D02*
X574280D01*
X568680Y527487D02*
X574280D01*
X411300Y957700D02*
X568700D01*
Y932300D02*
Y957700D01*
X411300Y932300D02*
X568700D01*
X411300D02*
Y957700D01*
X573260Y674272D02*
X578860D01*
Y663672D02*
Y674272D01*
X573260Y663672D02*
X578860D01*
X573260D02*
Y674272D01*
X892300Y717200D02*
X917700D01*
X892300Y559800D02*
Y717200D01*
Y559800D02*
X917700D01*
Y717200D01*
X62300Y559800D02*
X87700D01*
Y717200D01*
X62300D02*
X87700D01*
X62300Y559800D02*
Y717200D01*
X386330Y11322D02*
X428330D01*
X386330D02*
Y39322D01*
X428330D01*
Y11322D02*
Y39322D01*
X485830Y11322D02*
Y39322D01*
X443830D02*
X485830D01*
X443830Y11322D02*
Y39322D01*
Y11322D02*
X485830D01*
X690260Y66476D02*
X701260D01*
X690260Y72076D02*
X701260D01*
Y66476D02*
Y72076D01*
X690260Y66476D02*
Y72076D01*
X214560Y84722D02*
Y92722D01*
X224560D01*
Y84722D02*
Y92722D01*
X214560Y84722D02*
X224560D01*
X202560Y82672D02*
Y93672D01*
X208160Y82672D02*
Y93672D01*
X202560D02*
X208160D01*
X202560Y82672D02*
X208160D01*
X283600Y42846D02*
Y53846D01*
X278000Y42846D02*
Y53846D01*
X283600D01*
X278000Y42846D02*
X283600D01*
X745730Y76655D02*
X756730D01*
X745730Y82255D02*
X756730D01*
Y76655D02*
Y82255D01*
X745730Y76655D02*
Y82255D01*
X380660Y470672D02*
Y481272D01*
X375060D02*
X380660D01*
X375060Y470672D02*
Y481272D01*
Y470672D02*
X380660D01*
X599030Y462472D02*
X604630D01*
X599030D02*
Y473072D01*
X604630D01*
Y462472D02*
Y473072D01*
X398709Y565162D02*
Y570762D01*
X387710Y565162D02*
Y570762D01*
Y565162D02*
X398709D01*
X387710Y570762D02*
X398709D01*
X588140Y42846D02*
X593740D01*
X588140Y53846D02*
X593740D01*
X588140Y42846D02*
Y53846D01*
X593740Y42846D02*
Y53846D01*
X572400Y42846D02*
X578000D01*
X572400Y53846D02*
X578000D01*
X572400Y42846D02*
Y53846D01*
X578000Y42846D02*
Y53846D01*
X556700Y42846D02*
X562300D01*
X556700Y53846D02*
X562300D01*
X556700Y42846D02*
Y53846D01*
X562300Y42846D02*
Y53846D01*
X651960Y60372D02*
X691960D01*
X651960Y10372D02*
Y60372D01*
Y10372D02*
X691960D01*
Y60372D01*
X812000Y10350D02*
Y67850D01*
X713000D02*
X812000D01*
X713000Y10350D02*
Y67850D01*
Y10350D02*
X812000D01*
X388260Y622277D02*
Y633277D01*
X382660Y622277D02*
Y633277D01*
X388260D01*
X382660Y622277D02*
X388260D01*
X388260Y651822D02*
Y662822D01*
X382660Y651822D02*
Y662822D01*
X388260D01*
X382660Y651822D02*
X388260D01*
X365534Y679680D02*
X376534D01*
X365534Y674080D02*
X376534D01*
X365534D02*
Y679680D01*
X376534Y674080D02*
Y679680D01*
X400260Y652072D02*
Y662672D01*
X394660D02*
X400260D01*
X394660Y652072D02*
Y662672D01*
Y652072D02*
X400260D01*
X364260Y651822D02*
Y662822D01*
X358660Y651822D02*
Y662822D01*
X364260D01*
X358660Y651822D02*
X364260D01*
X376260Y652072D02*
Y662672D01*
X370660D02*
X376260D01*
X370660Y652072D02*
Y662672D01*
Y652072D02*
X376260D01*
X386634Y679684D02*
X397234D01*
X386634Y674084D02*
Y679684D01*
Y674084D02*
X397234D01*
Y679684D01*
X459660Y437672D02*
X465260D01*
Y427072D02*
Y437672D01*
X459660Y427072D02*
X465260D01*
X459660D02*
Y437672D01*
X361860Y543672D02*
Y549272D01*
X372860Y543672D02*
Y549272D01*
X361860D02*
X372860D01*
X361860Y543672D02*
X372860D01*
X361860Y531722D02*
Y537322D01*
X372860Y531722D02*
Y537322D01*
X361860D02*
X372860D01*
X361860Y531722D02*
X372860D01*
X387060Y470772D02*
Y481372D01*
Y470772D02*
X392660D01*
Y481372D01*
X387060D02*
X392660D01*
X603080Y486172D02*
Y491772D01*
X592080Y486172D02*
Y491772D01*
Y486172D02*
X603080D01*
X592080Y491772D02*
X603080D01*
X413000Y746922D02*
X567000D01*
Y696422D02*
Y746922D01*
Y541922D02*
Y696422D01*
X413000Y541922D02*
X567000D01*
X413000D02*
Y696422D01*
Y746922D01*
Y696422D02*
X567000D01*
X662660Y66472D02*
Y72072D01*
X652060Y66472D02*
X662660D01*
X652060D02*
Y72072D01*
X662660D01*
X690060Y499742D02*
X695660D01*
Y489142D02*
Y499742D01*
X690060Y489142D02*
X695660D01*
X690060D02*
Y499742D01*
X714360Y449372D02*
Y454972D01*
X703760Y449372D02*
X714360D01*
X703760D02*
Y454972D01*
X714360D01*
X703760Y461372D02*
Y466972D01*
X714360D01*
Y461372D02*
Y466972D01*
X703760Y461372D02*
X714360D01*
X328560Y428072D02*
X408560D01*
X328560Y399072D02*
Y428072D01*
Y399072D02*
X408560D01*
Y428072D01*
X571440D02*
X651440D01*
X571440Y399072D02*
Y428072D01*
Y399072D02*
X651440D01*
Y428072D01*
X288560Y486172D02*
Y491772D01*
X277560Y486172D02*
Y491772D01*
Y486172D02*
X288560D01*
X277560Y491772D02*
X288560D01*
X310690Y506972D02*
X354690D01*
X310690Y456972D02*
X354690D01*
X310690D02*
Y506972D01*
X354690Y456972D02*
Y506972D01*
X375060Y499742D02*
X380660D01*
Y489142D02*
Y499742D01*
X375060Y489142D02*
X380660D01*
X375060D02*
Y499742D01*
X272490Y473271D02*
X278090D01*
X272490Y462271D02*
X278090D01*
Y473271D01*
X272490Y462271D02*
Y473271D01*
X284490Y462471D02*
X290090D01*
X284490D02*
Y473071D01*
X290090D01*
Y462471D02*
Y473071D01*
X625310Y506972D02*
X669310D01*
X625310Y456972D02*
X669310D01*
X625310D02*
Y506972D01*
X669310Y456972D02*
Y506972D01*
X476560Y651372D02*
X482160D01*
X476560Y662372D02*
X482160D01*
Y651372D02*
Y662372D01*
X476560Y651372D02*
Y662372D01*
X460960D02*
X466560D01*
X460960Y651372D02*
X466560D01*
X460960D02*
Y662372D01*
X466560Y651372D02*
Y662372D01*
X510000Y599172D02*
Y639172D01*
X470000Y599172D02*
Y639172D01*
X510000D01*
X470000Y599172D02*
X510000D01*
X358660Y622227D02*
X364260D01*
X358660Y633227D02*
X364260D01*
X358660Y622227D02*
Y633227D01*
X364260Y622227D02*
Y633227D01*
X370660Y622477D02*
X376260D01*
X370660D02*
Y633077D01*
X376260D01*
Y622477D02*
Y633077D01*
X394660Y622477D02*
X400260D01*
X394660D02*
Y633077D01*
X400260D01*
Y622477D02*
Y633077D01*
X370660Y592622D02*
X376260D01*
X370660D02*
Y603222D01*
X376260D01*
Y592622D02*
Y603222D01*
X394660Y592622D02*
X400260D01*
X394660D02*
Y603222D01*
X400260D01*
Y592622D02*
Y603222D01*
X382660Y592422D02*
X388260D01*
X382660Y603422D02*
X388260D01*
X382660Y592422D02*
Y603422D01*
X388260Y592422D02*
Y603422D01*
X358660Y592422D02*
X364260D01*
X358660Y603422D02*
X364260D01*
X358660Y592422D02*
Y603422D01*
X364260Y592422D02*
Y603422D01*
X507760Y651372D02*
X513360D01*
X507760Y662372D02*
X513360D01*
Y651372D02*
Y662372D01*
X507760Y651372D02*
Y662372D01*
X492160Y661072D02*
X497760D01*
X492160Y650472D02*
Y661072D01*
Y650472D02*
X497760D01*
Y661072D01*
X543330Y11322D02*
Y39322D01*
X501330D02*
X543330D01*
X501330Y11322D02*
Y39322D01*
Y11322D02*
X543330D01*
X475500Y802000D02*
X504500D01*
Y838000D01*
X475500D02*
X504500D01*
X475500Y802000D02*
Y838000D01*
X475000Y284372D02*
X505000D01*
X475000D02*
Y309372D01*
X505000D01*
Y284372D02*
Y309372D01*
X471760Y426472D02*
X499760D01*
X471760D02*
Y456472D01*
X499760D01*
Y426472D02*
Y456472D01*
X399060Y470622D02*
Y481622D01*
X404660Y470622D02*
Y481622D01*
X399060Y470622D02*
X404660D01*
X399060Y481622D02*
X404660D01*
X524910Y813870D02*
X535910D01*
X524910Y808270D02*
X535910D01*
Y813870D01*
X524910Y808270D02*
Y813870D01*
X444060Y825670D02*
X455060D01*
X444060Y831270D02*
X455060D01*
X444060Y825670D02*
Y831270D01*
X455060Y825670D02*
Y831270D01*
X459700Y445622D02*
Y456622D01*
X465300Y445622D02*
Y456622D01*
X459700Y445622D02*
X465300D01*
X459700Y456622D02*
X465300D01*
X461160Y470172D02*
X472160D01*
X461160Y464572D02*
X472160D01*
X461160D02*
Y470172D01*
X472160Y464572D02*
Y470172D01*
X587030Y462272D02*
Y473272D01*
X592630Y462272D02*
Y473272D01*
X587030Y462272D02*
X592630D01*
X587030Y473272D02*
X592630D01*
X278000Y63546D02*
Y74546D01*
X283600Y63546D02*
Y74546D01*
X278000Y63546D02*
X283600D01*
X278000Y74546D02*
X283600D01*
X578860Y683172D02*
Y694172D01*
X573260Y683172D02*
Y694172D01*
X578860D01*
X573260Y683172D02*
X578860D01*
X492660Y267272D02*
Y277872D01*
X498260D01*
Y267272D02*
Y277872D01*
X492660Y267272D02*
X498260D01*
X457760Y291872D02*
X468360D01*
Y286272D02*
Y291872D01*
X457760Y286272D02*
X468360D01*
X457760D02*
Y291872D01*
X478460Y524572D02*
Y535172D01*
X472860D02*
X478460D01*
X472860Y524572D02*
Y535172D01*
Y524572D02*
X478460D01*
X465760Y524572D02*
Y535172D01*
X460160D02*
X465760D01*
X460160Y524572D02*
Y535172D01*
Y524572D02*
X465760D01*
X387910Y577162D02*
X398509D01*
Y582762D01*
X387910D02*
X398509D01*
X387910Y577162D02*
Y582762D01*
D11*
X556460Y12900D02*
G03*
X556460Y12900I-1000J0D01*
G01*
X572200D02*
G03*
X572200Y12900I-1000J0D01*
G01*
X587940D02*
G03*
X587940Y12900I-1000J0D01*
G01*
X277800Y12930D02*
G03*
X277800Y12930I-1000J0D01*
G01*
X716500Y83500D02*
G03*
X716500Y83500I-1000J0D01*
G01*
X310830Y54582D02*
G03*
X310830Y54582I-1000J0D01*
G01*
X406000Y945000D02*
G03*
X406000Y945000I-1000J0D01*
G01*
X906000Y723500D02*
G03*
X906000Y723500I-1000J0D01*
G01*
X76000Y553500D02*
G03*
X76000Y553500I-1000J0D01*
G01*
X679960Y14872D02*
G03*
X679960Y14872I-1000J0D01*
G01*
X719500Y59100D02*
G03*
X719500Y59100I-1000J0D01*
G01*
X419000Y700672D02*
G03*
X419000Y700672I-1000J0D01*
G01*
X344560Y381072D02*
G03*
X344560Y381072I-1000J0D01*
G01*
X587440D02*
G03*
X587440Y381072I-1000J0D01*
G01*
X316690Y504722D02*
G03*
X316690Y504722I-1000J0D01*
G01*
X631310D02*
G03*
X631310Y504722I-1000J0D01*
G01*
X520750Y631672D02*
G03*
X520750Y631672I-1000J0D01*
G01*
X469000Y839000D02*
G03*
X469000Y839000I-1000J0D01*
G01*
X511000Y304872D02*
G03*
X511000Y304872I-1000J0D01*
G01*
X505760Y429972D02*
G03*
X505760Y429972I-1000J0D01*
G01*
D13*
X555460Y15900D02*
Y31900D01*
X563460D01*
Y15900D02*
Y31900D01*
X555460Y15900D02*
X563460D01*
X571200D02*
Y31900D01*
X579200D01*
Y15900D02*
Y31900D01*
X571200Y15900D02*
X579200D01*
X586940D02*
Y31900D01*
X594940D01*
Y15900D02*
Y31900D01*
X586940Y15900D02*
X594940D01*
X276800Y15930D02*
Y31930D01*
X284800D01*
Y15930D02*
Y31930D01*
X276800Y15930D02*
X284800D01*
X718500Y83500D02*
X734500D01*
Y75500D02*
Y83500D01*
X718500Y75500D02*
X734500D01*
X718500D02*
Y83500D01*
D14*
X174860Y7572D02*
Y74172D01*
Y-17528D02*
Y7572D01*
Y-17528D02*
X264260D01*
Y74172D01*
X174860D02*
X264260D01*
D140*
X362542Y694010D02*
Y720934D01*
X396578D01*
Y694010D02*
Y720934D01*
X362542Y694010D02*
X396578D01*
X388958Y720934D02*
X396578D01*
Y694010D02*
Y720934D01*
X388958Y694010D02*
X396578D01*
X388958D02*
Y720934D01*
X362542Y694010D02*
X370162D01*
X362542D02*
Y720934D01*
X370162D01*
Y694010D02*
Y720934D01*
X401940Y448433D02*
Y462911D01*
Y448433D02*
X409560D01*
Y462911D01*
X401940D02*
X409560D01*
X395180Y448433D02*
Y462911D01*
X387560D02*
X395180D01*
X387560Y448433D02*
Y462911D01*
Y448433D02*
X395180D01*
X387560Y462911D02*
X409560D01*
X387560Y448433D02*
Y462911D01*
Y448433D02*
X409560D01*
Y462911D01*
X602998Y24874D02*
X629922D01*
X602998Y17254D02*
Y24874D01*
Y17254D02*
X629922D01*
Y24874D01*
X602998Y43670D02*
X629922D01*
Y51290D01*
X602998D02*
X629922D01*
X602998Y43670D02*
Y51290D01*
X629922Y17254D02*
Y51290D01*
X602998D02*
X629922D01*
X602998Y17254D02*
Y51290D01*
Y17254D02*
X629922D01*
X723660Y428133D02*
Y442611D01*
X701660Y428133D02*
X723660D01*
X701660D02*
Y442611D01*
X723660D01*
X701660Y428133D02*
X709280D01*
X701660D02*
Y442611D01*
X709280D01*
Y428133D02*
Y442611D01*
X716040D02*
X723660D01*
Y428133D02*
Y442611D01*
X716040Y428133D02*
X723660D01*
X716040D02*
Y442611D01*
X511298Y415454D02*
X538222D01*
X511298D02*
Y449490D01*
X538222D01*
Y415454D02*
Y449490D01*
X511298Y441870D02*
Y449490D01*
X538222D01*
Y441870D02*
Y449490D01*
X511298Y441870D02*
X538222D01*
Y415454D02*
Y423074D01*
X511298Y415454D02*
X538222D01*
X511298D02*
Y423074D01*
X538222D01*
X482380Y404752D02*
Y419230D01*
X474760D02*
X482380D01*
X474760Y404752D02*
Y419230D01*
Y404752D02*
X482380D01*
X489140D02*
Y419230D01*
Y404752D02*
X496760D01*
Y419230D01*
X489140D02*
X496760D01*
X474760Y404752D02*
X496760D01*
Y419230D01*
X474760D02*
X496760D01*
X474760Y404752D02*
Y419230D01*
M02*
