G04*
G04 #@! TF.GenerationSoftware,Altium Limited,Altium Designer,23.1.1 (15)*
G04*
G04 Layer_Color=2752767*
%FSLAX44Y44*%
%MOMM*%
G71*
G04*
G04 #@! TF.SameCoordinates,06529313-8F5D-48FA-AF42-15034B8276AF*
G04*
G04*
G04 #@! TF.FilePolarity,Positive*
G04*
G01*
G75*
%ADD11C,0.1270*%
%ADD142C,0.1693*%
%ADD143C,0.1016*%
D11*
X101130Y60392D02*
Y70552D01*
X111290D01*
Y60392D01*
X101130D01*
X14629D02*
Y70552D01*
X24790D01*
Y60392D01*
X14629D01*
X33210Y56692D02*
X28129Y66852D01*
X38289D01*
X33210Y56692D01*
X92710D02*
X87629Y66852D01*
X97789D01*
X92710Y56692D01*
Y70192D02*
X87629Y80352D01*
X97789D01*
X92710Y70192D01*
X33210D02*
X28129Y80352D01*
X38289D01*
X33210Y70192D01*
X12119Y682192D02*
Y692352D01*
X22280D01*
Y682192D01*
X12119D01*
X14152Y684224D02*
Y690320D01*
X20247D01*
Y684224D01*
X14152D01*
X281819Y917392D02*
Y927552D01*
X291980D01*
Y917392D01*
X281819D01*
X283852Y919424D02*
Y925520D01*
X289947D01*
Y919424D01*
X283852D01*
X627719Y758392D02*
Y768552D01*
X637879D01*
Y758392D01*
X627719D01*
X629752Y760424D02*
Y766520D01*
X635848D01*
Y760424D01*
X629752D01*
X199979Y859461D02*
X205060Y864541D01*
X210140Y859461D01*
X205060Y854381D01*
X199979Y859461D01*
X439860Y859462D02*
X444939Y864542D01*
X450019Y859462D01*
X444939Y854382D01*
X439860Y859462D01*
X36409Y606822D02*
X41490Y611902D01*
X46569Y606822D01*
X41490Y601742D01*
X36409Y606822D01*
X518779Y825242D02*
X523859Y830322D01*
X528939Y825242D01*
X523859Y820163D01*
X518779Y825242D01*
X603429Y606822D02*
X608509Y611902D01*
X613590Y606822D01*
X608509Y601742D01*
X603429Y606822D01*
X315679Y428892D02*
X318220Y433972D01*
X315679Y439052D01*
X320760Y436512D01*
X325840Y439052D01*
X323299Y433972D01*
X325840Y428892D01*
X320760Y431432D01*
X315679Y428892D01*
Y436392D02*
X318220Y441472D01*
X315679Y446552D01*
X320760Y444012D01*
X325840Y446552D01*
X323299Y441472D01*
X325840Y436392D01*
X320760Y438932D01*
X315679Y436392D01*
Y443892D02*
X318220Y448972D01*
X315679Y454052D01*
X320760Y451512D01*
X325840Y454052D01*
X323299Y448972D01*
X325840Y443892D01*
X320760Y446432D01*
X315679Y443892D01*
X121060Y825242D02*
X126140Y830322D01*
X131220Y825242D01*
X126140Y820163D01*
X121060Y825242D01*
X593470Y60732D02*
Y58192D01*
X598549D01*
Y60732D01*
X601090D01*
Y65812D01*
X598549D01*
Y68352D01*
X593470D01*
Y65812D01*
X590929D01*
Y60732D01*
X593470D01*
Y35732D02*
Y33192D01*
X598549D01*
Y35732D01*
X601090D01*
Y40812D01*
X598549D01*
Y43352D01*
X593470D01*
Y40812D01*
X590929D01*
Y35732D01*
X593470D01*
X515840Y786392D02*
X520920Y791472D01*
X526000Y786392D01*
X520920Y781312D01*
X515840Y786392D01*
X497879Y804352D02*
X502959Y809433D01*
X508039Y804352D01*
X502959Y799273D01*
X497879Y804352D01*
X103099Y807282D02*
X108179Y812362D01*
X113259Y807282D01*
X108179Y802202D01*
X103099Y807282D01*
X147249Y17002D02*
X149789D01*
X152330Y19542D01*
X154869Y17002D01*
X157409D01*
Y19542D01*
X154869Y22082D01*
X157409Y24622D01*
Y27162D01*
X154869D01*
X152330Y24622D01*
X149789Y27162D01*
X147249D01*
Y24622D01*
X149789Y22082D01*
X147249Y19542D01*
Y17002D01*
X177250D02*
X179790D01*
X182330Y19542D01*
X184869Y17002D01*
X187409D01*
Y19542D01*
X184869Y22082D01*
X187409Y24622D01*
Y27162D01*
X184869D01*
X182330Y24622D01*
X179790Y27162D01*
X177250D01*
Y24622D01*
X179790Y22082D01*
X177250Y19542D01*
Y17002D01*
X603429Y581422D02*
X608509Y586502D01*
X613590Y581422D01*
X608509Y576342D01*
X603429Y581422D01*
X536740Y807282D02*
X541820Y812362D01*
X546900Y807282D01*
X541820Y802202D01*
X536740Y807282D01*
X36409Y581422D02*
X41490Y586502D01*
X46569Y581422D01*
X41490Y576342D01*
X36409Y581422D01*
X465260Y859462D02*
X470340Y864542D01*
X475420Y859462D01*
X470340Y854382D01*
X465260Y859462D01*
X174580Y859461D02*
X179660Y864541D01*
X184739Y859461D01*
X179660Y854381D01*
X174580Y859461D01*
X627719Y783792D02*
Y793952D01*
X637879D01*
Y783792D01*
X627719D01*
X629752Y785824D02*
Y791920D01*
X635848D01*
Y785824D01*
X629752D01*
X627719Y732992D02*
Y743152D01*
X637879D01*
Y732992D01*
X627719D01*
X629752Y735024D02*
Y741120D01*
X635848D01*
Y735024D01*
X629752D01*
X627719Y707592D02*
Y717752D01*
X637879D01*
Y707592D01*
X627719D01*
X629752Y709624D02*
Y715720D01*
X635848D01*
Y709624D01*
X629752D01*
X627719Y682192D02*
Y692352D01*
X637879D01*
Y682192D01*
X627719D01*
X629752Y684224D02*
Y690320D01*
X635848D01*
Y684224D01*
X629752D01*
X627719Y656792D02*
Y666952D01*
X637879D01*
Y656792D01*
X627719D01*
X629752Y658824D02*
Y664920D01*
X635848D01*
Y658824D01*
X629752D01*
X256420Y917392D02*
Y927552D01*
X266579D01*
Y917392D01*
X256420D01*
X258451Y919424D02*
Y925520D01*
X264548D01*
Y919424D01*
X258451D01*
X307220Y917392D02*
Y927552D01*
X317379D01*
Y917392D01*
X307220D01*
X309251Y919424D02*
Y925520D01*
X315347D01*
Y919424D01*
X309251D01*
X332620Y917392D02*
Y927552D01*
X342780D01*
Y917392D01*
X332620D01*
X334651Y919424D02*
Y925520D01*
X340747D01*
Y919424D01*
X334651D01*
X358019Y917392D02*
Y927552D01*
X368180D01*
Y917392D01*
X358019D01*
X360051Y919424D02*
Y925520D01*
X366147D01*
Y919424D01*
X360051D01*
X383419Y917392D02*
Y927552D01*
X393579D01*
Y917392D01*
X383419D01*
X385452Y919424D02*
Y925520D01*
X391548D01*
Y919424D01*
X385452D01*
X12119Y656792D02*
Y666952D01*
X22280D01*
Y656792D01*
X12119D01*
X14152Y658824D02*
Y664920D01*
X20247D01*
Y658824D01*
X14152D01*
X12119Y707592D02*
Y717752D01*
X22280D01*
Y707592D01*
X12119D01*
X14152Y709624D02*
Y715720D01*
X20247D01*
Y709624D01*
X14152D01*
X12119Y732992D02*
Y743152D01*
X22280D01*
Y732992D01*
X12119D01*
X14152Y735024D02*
Y741120D01*
X20247D01*
Y735024D01*
X14152D01*
X12119Y758392D02*
Y768552D01*
X22280D01*
Y758392D01*
X12119D01*
X14152Y760424D02*
Y766520D01*
X20247D01*
Y760424D01*
X14152D01*
X12119Y783792D02*
Y793952D01*
X22280D01*
Y783792D01*
X12119D01*
X14152Y785824D02*
Y791920D01*
X20247D01*
Y785824D01*
X14152D01*
X41709Y70192D02*
X36630Y80352D01*
X46789D01*
X41709Y70192D01*
X50209D02*
X45129Y80352D01*
X55290D01*
X50209Y70192D01*
X58710D02*
X53629Y80352D01*
X63790D01*
X58710Y70192D01*
X67210D02*
X62130Y80352D01*
X72290D01*
X67210Y70192D01*
X75710D02*
X70630Y80352D01*
X80789D01*
X75710Y70192D01*
X84209D02*
X79130Y80352D01*
X89290D01*
X84209Y70192D01*
Y56692D02*
X79130Y66852D01*
X89290D01*
X84209Y56692D01*
X75710D02*
X70630Y66852D01*
X80789D01*
X75710Y56692D01*
X67210D02*
X62130Y66852D01*
X72290D01*
X67210Y56692D01*
X58710D02*
X53629Y66852D01*
X63790D01*
X58710Y56692D01*
X50209D02*
X45129Y66852D01*
X55290D01*
X50209Y56692D01*
X41709D02*
X36630Y66852D01*
X46789D01*
X41709Y56692D01*
X573410Y606822D02*
X578489Y611902D01*
X583569Y606822D01*
X578489Y601742D01*
X573410Y606822D01*
Y581422D02*
X578489Y586502D01*
X583569Y581422D01*
X578489Y576342D01*
X573410Y581422D01*
X66430Y606822D02*
X71509Y611902D01*
X76589Y606822D01*
X71509Y601742D01*
X66430Y606822D01*
Y581422D02*
X71509Y586502D01*
X76589Y581422D01*
X71509Y576342D01*
X66430Y581422D01*
X439860Y830662D02*
X444939Y835742D01*
X450019Y830662D01*
X444939Y825582D01*
X439860Y830662D01*
X465260D02*
X470340Y835742D01*
X475420Y830662D01*
X470340Y825582D01*
X465260Y830662D01*
X199979Y830661D02*
X205060Y835741D01*
X210140Y830661D01*
X205060Y825581D01*
X199979Y830661D01*
X174580D02*
X179660Y835741D01*
X184739Y830661D01*
X179660Y825581D01*
X174580Y830661D01*
X141960Y804352D02*
X147040Y809433D01*
X152120Y804352D01*
X147040Y799273D01*
X141960Y804352D01*
X123999Y786392D02*
X129079Y791472D01*
X134159Y786392D01*
X129079Y781312D01*
X123999Y786392D01*
X20499Y471292D02*
X23039Y473832D01*
X25579D01*
X23039Y476372D01*
X25579Y478912D01*
X23039D01*
X20499Y481452D01*
X17959Y478912D01*
X15419D01*
X17959Y476372D01*
X15419Y473832D01*
X17959D01*
X20499Y471292D01*
X629499D02*
X632039Y473832D01*
X634579D01*
X632039Y476372D01*
X634579Y478912D01*
X632039D01*
X629499Y481452D01*
X626959Y478912D01*
X624419D01*
X626959Y476372D01*
X624419Y473832D01*
X626959D01*
X629499Y471292D01*
X20499Y112292D02*
X23039Y114832D01*
X25579D01*
X23039Y117372D01*
X25579Y119912D01*
X23039D01*
X20499Y122452D01*
X17959Y119912D01*
X15419D01*
X17959Y117372D01*
X15419Y114832D01*
X17959D01*
X20499Y112292D01*
X629499D02*
X632039Y114832D01*
X634579D01*
X632039Y117372D01*
X634579Y119912D01*
X632039D01*
X629499Y122452D01*
X626959Y119912D01*
X624419D01*
X626959Y117372D01*
X624419Y114832D01*
X626959D01*
X629499Y112292D01*
X61129Y440392D02*
X63670Y445472D01*
X61129Y450552D01*
X66210Y448012D01*
X71290Y450552D01*
X68749Y445472D01*
X71290Y440392D01*
X66210Y442932D01*
X61129Y440392D01*
D142*
X111290Y31672D02*
G03*
X111290Y31672I-5080J0D01*
G01*
X24790D02*
G03*
X24790Y31672I-5080J0D01*
G01*
X237640Y643672D02*
G03*
X237640Y643672I-5080J0D01*
G01*
X113340Y792172D02*
G03*
X113340Y792172I-5080J0D01*
G01*
X191140Y666472D02*
G03*
X191140Y666472I-5080J0D01*
G01*
Y643672D02*
G03*
X191140Y643672I-5080J0D01*
G01*
X244139Y691372D02*
G03*
X244139Y691372I-5080J0D01*
G01*
X272439Y614872D02*
G03*
X272439Y614872I-5080J0D01*
G01*
X127439Y447972D02*
G03*
X127439Y447972I-5080J0D01*
G01*
X260140Y532872D02*
G03*
X260140Y532872I-5080J0D01*
G01*
X539930Y793350D02*
G03*
X539930Y793350I-5080J0D01*
G01*
X485900Y848390D02*
G03*
X485900Y848390I-5080J0D01*
G01*
X61740Y573372D02*
G03*
X61740Y573372I-5080J0D01*
G01*
X67839Y112272D02*
G03*
X67839Y112272I-5080J0D01*
G01*
X417820Y87032D02*
G03*
X417820Y87032I-5080J0D01*
G01*
X225040Y543672D02*
G03*
X225040Y543672I-5080J0D01*
G01*
Y537172D02*
G03*
X225040Y537172I-5080J0D01*
G01*
X267910Y53972D02*
G03*
X267910Y53972I-5080J0D01*
G01*
X36439Y519472D02*
G03*
X36439Y519472I-5080J0D01*
G01*
X272826Y409282D02*
G03*
X272826Y409282I-5080J0D01*
G01*
X85239Y519472D02*
G03*
X85239Y519472I-5080J0D01*
G01*
X281233Y409282D02*
G03*
X281233Y409282I-5080J0D01*
G01*
X60840Y519472D02*
G03*
X60840Y519472I-5080J0D01*
G01*
X289639Y409282D02*
G03*
X289639Y409282I-5080J0D01*
G01*
X64790Y445472D02*
G03*
X64790Y445472I-5080J0D01*
G01*
X628740Y519472D02*
G03*
X628740Y519472I-5080J0D01*
G01*
X604339D02*
G03*
X604339Y519472I-5080J0D01*
G01*
X450540Y652772D02*
G03*
X450540Y652772I-5080J0D01*
G01*
X271239Y630372D02*
G03*
X271239Y630372I-5080J0D01*
G01*
X429240Y652922D02*
G03*
X429240Y652922I-5080J0D01*
G01*
X450540Y633872D02*
G03*
X450540Y633872I-5080J0D01*
G01*
X429240D02*
G03*
X429240Y633872I-5080J0D01*
G01*
X535639Y362238D02*
G03*
X535639Y362238I-5080J0D01*
G01*
X541640D02*
G03*
X541640Y362238I-5080J0D01*
G01*
X94740Y728572D02*
G03*
X94740Y728572I-5080J0D01*
G01*
X67439D02*
G03*
X67439Y728572I-5080J0D01*
G01*
X404339Y502872D02*
G03*
X404339Y502872I-5080J0D01*
G01*
X339939D02*
G03*
X339939Y502872I-5080J0D01*
G01*
X383489Y502822D02*
G03*
X383489Y502822I-5080J0D01*
G01*
X361406Y502872D02*
G03*
X361406Y502872I-5080J0D01*
G01*
X325140Y476872D02*
G03*
X325140Y476872I-5080J0D01*
G01*
Y467772D02*
G03*
X325140Y467772I-5080J0D01*
G01*
X203702Y372572D02*
G03*
X203702Y372572I-5080J0D01*
G01*
X179839Y53972D02*
G03*
X179839Y53972I-5080J0D01*
G01*
X532840Y72872D02*
G03*
X532840Y72872I-5080J0D01*
G01*
X223839Y442572D02*
G03*
X223839Y442572I-5080J0D01*
G01*
Y436572D02*
G03*
X223839Y436572I-5080J0D01*
G01*
X371539Y394672D02*
G03*
X371539Y394672I-5080J0D01*
G01*
Y388672D02*
G03*
X371539Y388672I-5080J0D01*
G01*
X337439Y561372D02*
G03*
X337439Y561372I-5080J0D01*
G01*
X330939D02*
G03*
X330939Y561372I-5080J0D01*
G01*
X297640Y570672D02*
G03*
X297640Y570672I-5080J0D01*
G01*
X274139Y576672D02*
G03*
X274139Y576672I-5080J0D01*
G01*
X190639Y537172D02*
G03*
X190639Y537172I-5080J0D01*
G01*
Y543672D02*
G03*
X190639Y543672I-5080J0D01*
G01*
X297640Y580172D02*
G03*
X297640Y580172I-5080J0D01*
G01*
X433439Y87032D02*
G03*
X433439Y87032I-5080J0D01*
G01*
X571539Y552672D02*
G03*
X571539Y552672I-5080J0D01*
G01*
X416040Y480372D02*
G03*
X416040Y480372I-5080J0D01*
G01*
X125099Y501332D02*
G03*
X125099Y501332I-5080J0D01*
G01*
X294540Y658772D02*
G03*
X294540Y658772I-5080J0D01*
G01*
X297640Y591872D02*
G03*
X297640Y591872I-5080J0D01*
G01*
X278039Y623172D02*
G03*
X278039Y623172I-5080J0D01*
G01*
X300040Y642272D02*
G03*
X300040Y642272I-5080J0D01*
G01*
X398639Y950072D02*
G03*
X398639Y950072I-5080J0D01*
G01*
X487480Y723742D02*
G03*
X487480Y723742I-5080J0D01*
G01*
X284340Y664972D02*
G03*
X284340Y664972I-5080J0D01*
G01*
X271639Y677372D02*
G03*
X271639Y677372I-5080J0D01*
G01*
X274139Y585172D02*
G03*
X274139Y585172I-5080J0D01*
G01*
X325340Y53972D02*
G03*
X325340Y53972I-5080J0D01*
G01*
X461440Y562072D02*
G03*
X461440Y562072I-5080J0D01*
G01*
X382920Y53972D02*
G03*
X382920Y53972I-5080J0D01*
G01*
X414759Y568302D02*
G03*
X414759Y568302I-5080J0D01*
G01*
X339770Y672462D02*
G03*
X339770Y672462I-5080J0D01*
G01*
X354450Y519952D02*
G03*
X354450Y519952I-5080J0D01*
G01*
X264419Y409282D02*
G03*
X264419Y409282I-5080J0D01*
G01*
X421889Y506492D02*
G03*
X421889Y506492I-5080J0D01*
G01*
Y494562D02*
G03*
X421889Y494562I-5080J0D01*
G01*
X381090Y526022D02*
G03*
X381090Y526022I-5080J0D01*
G01*
X151989Y521732D02*
G03*
X151989Y521732I-5080J0D01*
G01*
X292950D02*
G03*
X292950Y521732I-5080J0D01*
G01*
X223680Y410412D02*
G03*
X223680Y410412I-5080J0D01*
G01*
X213729D02*
G03*
X213729Y410412I-5080J0D01*
G01*
X372630Y526022D02*
G03*
X372630Y526022I-5080J0D01*
G01*
X414759Y559782D02*
G03*
X414759Y559782I-5080J0D01*
G01*
X466510Y411462D02*
G03*
X466510Y411462I-5080J0D01*
G01*
X456559D02*
G03*
X456559Y411462I-5080J0D01*
G01*
X138700Y542212D02*
G03*
X138700Y542212I-5080J0D01*
G01*
Y521732D02*
G03*
X138700Y521732I-5080J0D01*
G01*
Y531972D02*
G03*
X138700Y531972I-5080J0D01*
G01*
Y552452D02*
G03*
X138700Y552452I-5080J0D01*
G01*
X518289Y552712D02*
G03*
X518289Y552712I-5080J0D01*
G01*
X384930Y604372D02*
G03*
X384930Y604372I-5080J0D01*
G01*
X421679Y855572D02*
G03*
X421679Y855572I-5080J0D01*
G01*
X144469Y719532D02*
G03*
X144469Y719532I-5080J0D01*
G01*
X276320Y855252D02*
G03*
X276320Y855252I-5080J0D01*
G01*
D143*
X235607Y643672D02*
G03*
X235607Y643672I-3048J0D01*
G01*
X111307Y792172D02*
G03*
X111307Y792172I-3048J0D01*
G01*
X189107Y666472D02*
G03*
X189107Y666472I-3048J0D01*
G01*
Y643672D02*
G03*
X189107Y643672I-3048J0D01*
G01*
X242108Y691372D02*
G03*
X242108Y691372I-3048J0D01*
G01*
X270408Y614872D02*
G03*
X270408Y614872I-3048J0D01*
G01*
X125407Y447972D02*
G03*
X125407Y447972I-3048J0D01*
G01*
X258107Y532872D02*
G03*
X258107Y532872I-3048J0D01*
G01*
X537898Y793350D02*
G03*
X537898Y793350I-3048J0D01*
G01*
X483868Y848390D02*
G03*
X483868Y848390I-3048J0D01*
G01*
X59707Y573372D02*
G03*
X59707Y573372I-3048J0D01*
G01*
X65807Y112272D02*
G03*
X65807Y112272I-3048J0D01*
G01*
X415788Y87032D02*
G03*
X415788Y87032I-3048J0D01*
G01*
X223008Y543672D02*
G03*
X223008Y543672I-3048J0D01*
G01*
Y537172D02*
G03*
X223008Y537172I-3048J0D01*
G01*
X265877Y53972D02*
G03*
X265877Y53972I-3048J0D01*
G01*
X34407Y519472D02*
G03*
X34407Y519472I-3048J0D01*
G01*
X270794Y409282D02*
G03*
X270794Y409282I-3048J0D01*
G01*
X83208Y519472D02*
G03*
X83208Y519472I-3048J0D01*
G01*
X279201Y409282D02*
G03*
X279201Y409282I-3048J0D01*
G01*
X58808Y519472D02*
G03*
X58808Y519472I-3048J0D01*
G01*
X287607Y409282D02*
G03*
X287607Y409282I-3048J0D01*
G01*
X62758Y445472D02*
G03*
X62758Y445472I-3048J0D01*
G01*
X626707Y519472D02*
G03*
X626707Y519472I-3048J0D01*
G01*
X602308D02*
G03*
X602308Y519472I-3048J0D01*
G01*
X448507Y652772D02*
G03*
X448507Y652772I-3048J0D01*
G01*
X269207Y630372D02*
G03*
X269207Y630372I-3048J0D01*
G01*
X427207Y652922D02*
G03*
X427207Y652922I-3048J0D01*
G01*
X448507Y633872D02*
G03*
X448507Y633872I-3048J0D01*
G01*
X427207D02*
G03*
X427207Y633872I-3048J0D01*
G01*
X533607Y362238D02*
G03*
X533607Y362238I-3048J0D01*
G01*
X539608D02*
G03*
X539608Y362238I-3048J0D01*
G01*
X92708Y728572D02*
G03*
X92708Y728572I-3048J0D01*
G01*
X65408D02*
G03*
X65408Y728572I-3048J0D01*
G01*
X402308Y502872D02*
G03*
X402308Y502872I-3048J0D01*
G01*
X337907D02*
G03*
X337907Y502872I-3048J0D01*
G01*
X381457Y502822D02*
G03*
X381457Y502822I-3048J0D01*
G01*
X359374Y502872D02*
G03*
X359374Y502872I-3048J0D01*
G01*
X323107Y476872D02*
G03*
X323107Y476872I-3048J0D01*
G01*
Y467772D02*
G03*
X323107Y467772I-3048J0D01*
G01*
X201670Y372572D02*
G03*
X201670Y372572I-3048J0D01*
G01*
X177808Y53972D02*
G03*
X177808Y53972I-3048J0D01*
G01*
X530807Y72872D02*
G03*
X530807Y72872I-3048J0D01*
G01*
X221807Y442572D02*
G03*
X221807Y442572I-3048J0D01*
G01*
Y436572D02*
G03*
X221807Y436572I-3048J0D01*
G01*
X369507Y394672D02*
G03*
X369507Y394672I-3048J0D01*
G01*
Y388672D02*
G03*
X369507Y388672I-3048J0D01*
G01*
X335407Y561372D02*
G03*
X335407Y561372I-3048J0D01*
G01*
X328908D02*
G03*
X328908Y561372I-3048J0D01*
G01*
X295607Y570672D02*
G03*
X295607Y570672I-3048J0D01*
G01*
X272108Y576672D02*
G03*
X272108Y576672I-3048J0D01*
G01*
X188608Y537172D02*
G03*
X188608Y537172I-3048J0D01*
G01*
Y543672D02*
G03*
X188608Y543672I-3048J0D01*
G01*
X295607Y580172D02*
G03*
X295607Y580172I-3048J0D01*
G01*
X431408Y87032D02*
G03*
X431408Y87032I-3048J0D01*
G01*
X569507Y552672D02*
G03*
X569507Y552672I-3048J0D01*
G01*
X414007Y480372D02*
G03*
X414007Y480372I-3048J0D01*
G01*
X123068Y501332D02*
G03*
X123068Y501332I-3048J0D01*
G01*
X292507Y658772D02*
G03*
X292507Y658772I-3048J0D01*
G01*
X295607Y591872D02*
G03*
X295607Y591872I-3048J0D01*
G01*
X276007Y623172D02*
G03*
X276007Y623172I-3048J0D01*
G01*
X298008Y642272D02*
G03*
X298008Y642272I-3048J0D01*
G01*
X396608Y950072D02*
G03*
X396608Y950072I-3048J0D01*
G01*
X485448Y723742D02*
G03*
X485448Y723742I-3048J0D01*
G01*
X282307Y664972D02*
G03*
X282307Y664972I-3048J0D01*
G01*
X269608Y677372D02*
G03*
X269608Y677372I-3048J0D01*
G01*
X272108Y585172D02*
G03*
X272108Y585172I-3048J0D01*
G01*
X323307Y53972D02*
G03*
X323307Y53972I-3048J0D01*
G01*
X459408Y562072D02*
G03*
X459408Y562072I-3048J0D01*
G01*
X380887Y53972D02*
G03*
X380887Y53972I-3048J0D01*
G01*
X412728Y568302D02*
G03*
X412728Y568302I-3048J0D01*
G01*
X337738Y672462D02*
G03*
X337738Y672462I-3048J0D01*
G01*
X352417Y519952D02*
G03*
X352417Y519952I-3048J0D01*
G01*
X262388Y409282D02*
G03*
X262388Y409282I-3048J0D01*
G01*
X419857Y506492D02*
G03*
X419857Y506492I-3048J0D01*
G01*
Y494562D02*
G03*
X419857Y494562I-3048J0D01*
G01*
X379058Y526022D02*
G03*
X379058Y526022I-3048J0D01*
G01*
X149958Y521732D02*
G03*
X149958Y521732I-3048J0D01*
G01*
X290917D02*
G03*
X290917Y521732I-3048J0D01*
G01*
X221647Y410412D02*
G03*
X221647Y410412I-3048J0D01*
G01*
X211698D02*
G03*
X211698Y410412I-3048J0D01*
G01*
X370597Y526022D02*
G03*
X370597Y526022I-3048J0D01*
G01*
X412728Y559782D02*
G03*
X412728Y559782I-3048J0D01*
G01*
X464478Y411462D02*
G03*
X464478Y411462I-3048J0D01*
G01*
X454528D02*
G03*
X454528Y411462I-3048J0D01*
G01*
X136667Y542212D02*
G03*
X136667Y542212I-3048J0D01*
G01*
Y521732D02*
G03*
X136667Y521732I-3048J0D01*
G01*
Y531972D02*
G03*
X136667Y531972I-3048J0D01*
G01*
Y552452D02*
G03*
X136667Y552452I-3048J0D01*
G01*
X516258Y552712D02*
G03*
X516258Y552712I-3048J0D01*
G01*
X382897Y604372D02*
G03*
X382897Y604372I-3048J0D01*
G01*
X419647Y855572D02*
G03*
X419647Y855572I-3048J0D01*
G01*
X142437Y719532D02*
G03*
X142437Y719532I-3048J0D01*
G01*
X274287Y855252D02*
G03*
X274287Y855252I-3048J0D01*
G01*
M02*
