G04*
G04 #@! TF.GenerationSoftware,Altium Limited,Altium Designer,23.1.1 (15)*
G04*
G04 Layer_Color=128*
%FSLAX44Y44*%
%MOMM*%
G71*
G04*
G04 #@! TF.SameCoordinates,BDDFE241-78E9-4F8E-813D-FE03931EC528*
G04*
G04*
G04 #@! TF.FilePolarity,Positive*
G04*
G01*
G75*
G04:AMPARAMS|DCode=16|XSize=0.54mm|YSize=0.6mm|CornerRadius=0.1431mm|HoleSize=0mm|Usage=FLASHONLY|Rotation=90.000|XOffset=0mm|YOffset=0mm|HoleType=Round|Shape=RoundedRectangle|*
%AMROUNDEDRECTD16*
21,1,0.5400,0.3138,0,0,90.0*
21,1,0.2538,0.6000,0,0,90.0*
1,1,0.2862,0.1569,0.1269*
1,1,0.2862,0.1569,-0.1269*
1,1,0.2862,-0.1569,-0.1269*
1,1,0.2862,-0.1569,0.1269*
%
%ADD16ROUNDEDRECTD16*%
%ADD17C,1.2000*%
%ADD26R,0.6000X0.5600*%
G04:AMPARAMS|DCode=31|XSize=0.54mm|YSize=0.6mm|CornerRadius=0.1431mm|HoleSize=0mm|Usage=FLASHONLY|Rotation=0.000|XOffset=0mm|YOffset=0mm|HoleType=Round|Shape=RoundedRectangle|*
%AMROUNDEDRECTD31*
21,1,0.5400,0.3138,0,0,0.0*
21,1,0.2538,0.6000,0,0,0.0*
1,1,0.2862,0.1269,-0.1569*
1,1,0.2862,-0.1269,-0.1569*
1,1,0.2862,-0.1269,0.1569*
1,1,0.2862,0.1269,0.1569*
%
%ADD31ROUNDEDRECTD31*%
%ADD38R,0.5600X0.6000*%
G04:AMPARAMS|DCode=129|XSize=0.86mm|YSize=0.27mm|CornerRadius=0.0338mm|HoleSize=0mm|Usage=FLASHONLY|Rotation=180.000|XOffset=0mm|YOffset=0mm|HoleType=Round|Shape=RoundedRectangle|*
%AMROUNDEDRECTD129*
21,1,0.8600,0.2025,0,0,180.0*
21,1,0.7925,0.2700,0,0,180.0*
1,1,0.0675,-0.3963,0.1013*
1,1,0.0675,0.3963,0.1013*
1,1,0.0675,0.3963,-0.1013*
1,1,0.0675,-0.3963,-0.1013*
%
%ADD129ROUNDEDRECTD129*%
G04:AMPARAMS|DCode=130|XSize=0.86mm|YSize=0.27mm|CornerRadius=0.0338mm|HoleSize=0mm|Usage=FLASHONLY|Rotation=90.000|XOffset=0mm|YOffset=0mm|HoleType=Round|Shape=RoundedRectangle|*
%AMROUNDEDRECTD130*
21,1,0.8600,0.2025,0,0,90.0*
21,1,0.7925,0.2700,0,0,90.0*
1,1,0.0675,0.1013,0.3963*
1,1,0.0675,0.1013,-0.3963*
1,1,0.0675,-0.1013,-0.3963*
1,1,0.0675,-0.1013,0.3963*
%
%ADD130ROUNDEDRECTD130*%
%ADD131R,1.5700X0.6900*%
G04:AMPARAMS|DCode=132|XSize=0.59mm|YSize=0.35mm|CornerRadius=0.0875mm|HoleSize=0mm|Usage=FLASHONLY|Rotation=180.000|XOffset=0mm|YOffset=0mm|HoleType=Round|Shape=RoundedRectangle|*
%AMROUNDEDRECTD132*
21,1,0.5900,0.1750,0,0,180.0*
21,1,0.4150,0.3500,0,0,180.0*
1,1,0.1750,-0.2075,0.0875*
1,1,0.1750,0.2075,0.0875*
1,1,0.1750,0.2075,-0.0875*
1,1,0.1750,-0.2075,-0.0875*
%
%ADD132ROUNDEDRECTD132*%
G04:AMPARAMS|DCode=133|XSize=0.59mm|YSize=0.35mm|CornerRadius=0.0875mm|HoleSize=0mm|Usage=FLASHONLY|Rotation=90.000|XOffset=0mm|YOffset=0mm|HoleType=Round|Shape=RoundedRectangle|*
%AMROUNDEDRECTD133*
21,1,0.5900,0.1750,0,0,90.0*
21,1,0.4150,0.3500,0,0,90.0*
1,1,0.1750,0.0875,0.2075*
1,1,0.1750,0.0875,-0.2075*
1,1,0.1750,-0.0875,-0.2075*
1,1,0.1750,-0.0875,0.2075*
%
%ADD133ROUNDEDRECTD133*%
G36*
X481800Y610972D02*
X498200D01*
Y627372D01*
X481800D01*
Y610972D01*
D02*
G37*
D16*
X494960Y660072D02*
D03*
X495460Y268272D02*
D03*
X494960Y651472D02*
D03*
X495460Y276872D02*
D03*
D17*
X170700Y524772D02*
D03*
X197600D02*
D03*
X754260D02*
D03*
X803060D02*
D03*
X778660D02*
D03*
X669400Y401678D02*
D03*
Y426800D02*
D03*
X278000D02*
D03*
Y401678D02*
D03*
X579200Y627700D02*
D03*
X600500D02*
D03*
X579160Y652922D02*
D03*
X600460Y652772D02*
D03*
X489860Y497172D02*
D03*
X532793D02*
D03*
X554260D02*
D03*
X511326D02*
D03*
D26*
X205360Y92522D02*
D03*
Y83822D02*
D03*
X479360Y661222D02*
D03*
Y652522D02*
D03*
X463760D02*
D03*
Y661222D02*
D03*
X510560D02*
D03*
Y652522D02*
D03*
D31*
X458760Y289072D02*
D03*
X467360D02*
D03*
D38*
X526060Y811070D02*
D03*
X534760D02*
D03*
X453910Y828470D02*
D03*
X445210D02*
D03*
D129*
X470650Y631672D02*
D03*
Y626672D02*
D03*
Y621672D02*
D03*
Y616672D02*
D03*
Y611672D02*
D03*
Y606672D02*
D03*
X509350D02*
D03*
Y611672D02*
D03*
Y616672D02*
D03*
Y621672D02*
D03*
Y626672D02*
D03*
Y631672D02*
D03*
D130*
X502500Y638522D02*
D03*
X497500D02*
D03*
X492500Y599822D02*
D03*
Y638522D02*
D03*
X487500D02*
D03*
X482500D02*
D03*
X477500D02*
D03*
Y599822D02*
D03*
X482500D02*
D03*
X487500D02*
D03*
X497500D02*
D03*
X502500D02*
D03*
D131*
X470250Y811000D02*
D03*
X509750Y829000D02*
D03*
X470250D02*
D03*
X509750Y811000D02*
D03*
D132*
X501650Y294372D02*
D03*
Y299372D02*
D03*
X478350Y304372D02*
D03*
Y299372D02*
D03*
Y294372D02*
D03*
X501650Y289372D02*
D03*
Y304372D02*
D03*
X478350Y289372D02*
D03*
D133*
X485000Y287722D02*
D03*
X490000D02*
D03*
X495000Y306022D02*
D03*
X490000D02*
D03*
X485000D02*
D03*
X495000Y287722D02*
D03*
M02*
