G04*
G04 #@! TF.GenerationSoftware,Altium Limited,Altium Designer,23.1.1 (15)*
G04*
G04 Layer_Physical_Order=3*
G04 Layer_Color=36540*
%FSLAX44Y44*%
%MOMM*%
G71*
G04*
G04 #@! TF.SameCoordinates,06529313-8F5D-48FA-AF42-15034B8276AF*
G04*
G04*
G04 #@! TF.FilePolarity,Positive*
G04*
G01*
G75*
%ADD22C,0.6500*%
%ADD83C,0.9000*%
%ADD92C,0.1600*%
%ADD93C,0.5000*%
%ADD94C,0.2906*%
%ADD95C,1.7000*%
%ADD97O,0.9000X2.4000*%
%ADD98O,0.9000X1.7000*%
%ADD99C,1.6050*%
%ADD100R,1.5600X1.5600*%
%ADD101R,1.5600X1.5600*%
%ADD102P,2.2062X4X360.0*%
%ADD103C,0.3000*%
%ADD104P,2.2062X4X270.0*%
%ADD105C,1.5750*%
%ADD107C,1.5600*%
%ADD110C,3.0000*%
%ADD111C,0.5000*%
D22*
X33210Y61772D02*
D03*
X92710D02*
D03*
Y75272D02*
D03*
X33210D02*
D03*
X41709D02*
D03*
X50209D02*
D03*
X58710D02*
D03*
X67210D02*
D03*
X75710D02*
D03*
X84209D02*
D03*
Y61772D02*
D03*
X75710D02*
D03*
X67210D02*
D03*
X58710D02*
D03*
X50209D02*
D03*
X41709D02*
D03*
D83*
X152330Y22082D02*
D03*
X182330D02*
D03*
D92*
X174760Y53972D02*
X193659Y72872D01*
X527760D01*
X38771Y433261D02*
Y512061D01*
X31360Y519472D02*
X38771Y512061D01*
X44715Y435128D02*
Y523228D01*
X50659Y514372D02*
X55760Y519472D01*
X50659Y437672D02*
Y514372D01*
X44715Y435128D02*
X66477Y413366D01*
X38771Y433261D02*
X64285Y407747D01*
X267746Y409282D02*
Y453061D01*
X250297Y470510D02*
X267746Y453061D01*
X125823Y407747D02*
X188586Y470510D01*
X250297D01*
X64285Y407747D02*
X125823D01*
X74060Y525572D02*
X80160Y519472D01*
X47059Y525572D02*
X74060D01*
X44715Y523228D02*
X47059Y525572D01*
X276153Y409282D02*
Y456543D01*
X256242Y476454D02*
X276153Y456543D01*
X121999Y413366D02*
X185088Y476454D01*
X256242D01*
X66477Y413366D02*
X121999D01*
X284559Y409282D02*
Y460025D01*
X182586Y482399D02*
X262186D01*
X284559Y460025D01*
X119559Y419372D02*
X182586Y482399D01*
X68959Y419372D02*
X119559D01*
X50659Y437672D02*
X68959Y419372D01*
X444522Y679102D02*
X445460Y678165D01*
Y652772D02*
Y678165D01*
X280272Y679102D02*
X444522D01*
X266159Y664990D02*
X280272Y679102D01*
X266159Y630372D02*
Y664990D01*
X289513Y599172D02*
X430460D01*
X569360Y738072D01*
X632799D01*
X563060Y712672D02*
X632799D01*
X285597Y586643D02*
X437031D01*
X563060Y712672D01*
X61422Y738072D02*
X62359Y737135D01*
X17199Y738072D02*
X61422D01*
X62359Y728572D02*
Y737135D01*
X89422Y712672D02*
X90359Y713609D01*
X89660Y727652D02*
X90359Y726952D01*
X89660Y727652D02*
Y728572D01*
X-703Y712672D02*
X89422D01*
X90359Y713609D02*
Y726952D01*
X399259Y502872D02*
X409679Y513292D01*
Y559782D01*
X202360Y532372D02*
X240060Y494672D01*
X404990D02*
X416810Y506492D01*
X240060Y494672D02*
X404990D01*
X169459Y551972D02*
X201422D01*
X202360Y551035D01*
Y532372D02*
Y551035D01*
X157160Y539672D02*
X169459Y551972D01*
X157160Y515372D02*
Y539672D01*
X143119Y501332D02*
X157160Y515372D01*
X120020Y501332D02*
X143119D01*
X356326Y502872D02*
Y514799D01*
X367550Y526022D01*
X334860Y502872D02*
Y532299D01*
X335797Y533236D01*
X373752D01*
X378410Y502822D02*
X378509D01*
X386860Y511172D01*
Y566272D01*
X388890Y568302D01*
X409679D01*
X376009Y526022D02*
Y530978D01*
X373752Y533236D02*
X376009Y530978D01*
X262917Y569690D02*
X283722D01*
X261980Y570628D02*
Y584235D01*
X283722Y569690D02*
X284660Y570628D01*
X261980D02*
X262917Y569690D01*
X284660Y570628D02*
Y585706D01*
X269060Y576672D02*
X278322D01*
X-1640Y630805D02*
Y711735D01*
X-6540Y626110D02*
Y736672D01*
Y626110D02*
X-5603Y625172D01*
X-703Y629868D02*
X232443D01*
X-5603Y625172D02*
X229060D01*
X232443Y629868D02*
X263139Y599172D01*
X-1640Y630805D02*
X-703Y629868D01*
X229060Y625172D02*
X269060Y585172D01*
X263139Y599172D02*
X289513D01*
X289459Y599226D02*
X289513Y599172D01*
X289459Y599226D02*
Y658772D01*
X632799Y738072D02*
X647019D01*
X263139Y599172D02*
X279259Y583051D01*
Y577609D02*
Y583051D01*
X647999Y739053D02*
Y802332D01*
X647019Y738072D02*
X647999Y739053D01*
X646260Y804072D02*
X647999Y802332D01*
X565685Y804072D02*
X646260D01*
X336885Y879326D02*
X490431D01*
X565685Y804072D01*
X312299Y903912D02*
X336885Y879326D01*
X312299Y903912D02*
Y922472D01*
X261980Y584235D02*
X262917Y585172D01*
X269060D01*
X284660Y585706D02*
X285597Y586643D01*
X337700Y922472D02*
Y939471D01*
X170389Y941002D02*
X336168D01*
X337700Y939471D01*
X151869Y922482D02*
X170389Y941002D01*
X151869Y872742D02*
Y922482D01*
X17199Y738072D02*
X151869Y872742D01*
X-1640Y711735D02*
X-703Y712672D01*
X-5141Y738072D02*
X17199D01*
X-6540Y736672D02*
X-5141Y738072D01*
X278322Y576672D02*
X279259Y577609D01*
D93*
X28900Y650172D02*
X239359D01*
X266560Y677372D01*
X17199Y661872D02*
X28900Y650172D01*
X494560Y480372D02*
X566460Y552272D01*
X410960Y480372D02*
X494560D01*
X566460Y552272D02*
Y552672D01*
X320060Y467772D02*
X398359D01*
X410960Y480372D01*
X239060Y691372D02*
Y900032D01*
X261500Y922472D01*
X279960Y690772D02*
X489759D01*
X587859Y788872D01*
X632799D01*
X266560Y677372D02*
X279960Y690772D01*
X253060Y677372D02*
X266560D01*
X239060Y691372D02*
X253060Y677372D01*
D94*
X229140Y538028D02*
X229140Y538028D01*
X222146Y542966D02*
X226061D01*
X221841Y543272D02*
X222146Y542966D01*
X219960Y544072D02*
X220760Y543272D01*
X226061Y542966D02*
X237634D01*
X229140Y538028D02*
X239679D01*
X222296Y538028D02*
X229140D01*
X219960Y537573D02*
X221841D01*
X220760Y543272D02*
X221841D01*
X221841Y537573D02*
X222296Y538028D01*
X219960Y537572D02*
X219960Y537573D01*
X226061Y542966D02*
X226061Y542966D01*
X239679Y538028D02*
X261293Y559642D01*
X309914Y575627D02*
X326984D01*
X326641Y562720D02*
Y568987D01*
X325859Y561939D02*
X326641Y562720D01*
X325859Y561372D02*
Y561939D01*
X326984Y575627D02*
X332360Y570251D01*
Y561372D02*
Y570251D01*
X237634Y542966D02*
X259247Y564580D01*
X59710Y445472D02*
X60110Y445873D01*
Y447354D02*
X60490Y447734D01*
Y452971D02*
X90430Y482910D01*
X65809Y445873D02*
X66210Y445472D01*
X65429Y447734D02*
Y450925D01*
X90430Y482910D02*
X161865D01*
X163910Y477972D02*
X168505Y482567D01*
X60490Y447734D02*
Y452971D01*
X60110Y445873D02*
Y447354D01*
X161865Y482910D02*
X163567Y484613D01*
X65429Y447734D02*
X65809Y447354D01*
Y445873D02*
Y447354D01*
X65429Y450925D02*
X92476Y477972D01*
X163910D01*
X168505Y482567D02*
Y533618D01*
X163567Y535663D02*
X170795Y542891D01*
X183298Y537953D02*
X183678Y537573D01*
X172840Y537953D02*
X183298D01*
X183678Y537573D02*
X185159D01*
X298867Y564580D02*
X309914Y575627D01*
X324938Y570689D02*
X326641Y568987D01*
X311959Y570689D02*
X324938D01*
X300913Y559642D02*
X311959Y570689D01*
X259247Y564580D02*
X298867D01*
X261293Y559642D02*
X300913D01*
X163567Y484613D02*
Y535663D01*
X185159Y537573D02*
X185560Y537172D01*
X183298Y542891D02*
X183678Y543272D01*
X170795Y542891D02*
X183298D01*
X183678Y543272D02*
X185159D01*
X168505Y533618D02*
X172840Y537953D01*
X185159Y543272D02*
X185560Y543672D01*
D95*
X395894Y362238D02*
X533559D01*
X366559Y391572D02*
X395894Y362238D01*
X198518Y439372D02*
X218939D01*
X198518Y391572D02*
X366559D01*
X188559Y429414D02*
X198518Y439372D01*
X188559Y401531D02*
Y429414D01*
Y401531D02*
X198518Y391572D01*
D97*
X106209Y65472D02*
D03*
X19710D02*
D03*
D98*
X106209Y31672D02*
D03*
X19710D02*
D03*
D99*
X17199Y687272D02*
D03*
X286900Y922472D02*
D03*
X632799Y763472D02*
D03*
Y788872D02*
D03*
Y738072D02*
D03*
Y712672D02*
D03*
Y687272D02*
D03*
Y661872D02*
D03*
X261500Y922472D02*
D03*
X312299D02*
D03*
X337700D02*
D03*
X363100D02*
D03*
X388499D02*
D03*
X17199Y661872D02*
D03*
Y712672D02*
D03*
Y738072D02*
D03*
Y763472D02*
D03*
Y788872D02*
D03*
D100*
X444939Y830662D02*
D03*
X205060Y830661D02*
D03*
D101*
X578489Y606822D02*
D03*
X71509D02*
D03*
D102*
X502959Y804352D02*
D03*
D103*
X320760Y433972D02*
D03*
Y441472D02*
D03*
Y448972D02*
D03*
D104*
X147040Y804352D02*
D03*
D105*
X596009Y63272D02*
D03*
Y38272D02*
D03*
D107*
X205060Y859461D02*
D03*
X444939Y859462D02*
D03*
X41490Y606822D02*
D03*
X523859Y825242D02*
D03*
X608509Y606822D02*
D03*
X126140Y825242D02*
D03*
X520920Y786392D02*
D03*
X108179Y807282D02*
D03*
X608509Y581422D02*
D03*
X541820Y807282D02*
D03*
X41490Y581422D02*
D03*
X470340Y859462D02*
D03*
X179660Y859461D02*
D03*
X578489Y581422D02*
D03*
X71509D02*
D03*
X470340Y830662D02*
D03*
X179660Y830661D02*
D03*
X129079Y786392D02*
D03*
D110*
X20499Y476372D02*
D03*
X629499D02*
D03*
X20499Y117372D02*
D03*
X629499D02*
D03*
D111*
X232560Y643672D02*
D03*
X108259Y792172D02*
D03*
X186059Y666472D02*
D03*
Y643672D02*
D03*
X239060Y691372D02*
D03*
X267360Y614872D02*
D03*
X122360Y447972D02*
D03*
X255060Y532872D02*
D03*
X534851Y793350D02*
D03*
X480820Y848390D02*
D03*
X56659Y573372D02*
D03*
X62759Y112272D02*
D03*
X412739Y87032D02*
D03*
X219960Y543672D02*
D03*
Y537172D02*
D03*
X262829Y53972D02*
D03*
X31360Y519472D02*
D03*
X267746Y409282D02*
D03*
X80160Y519472D02*
D03*
X276153Y409282D02*
D03*
X55760Y519472D02*
D03*
X284559Y409282D02*
D03*
X59710Y445472D02*
D03*
X623660Y519472D02*
D03*
X599259D02*
D03*
X445460Y652772D02*
D03*
X266159Y630372D02*
D03*
X424160Y652922D02*
D03*
X445460Y633872D02*
D03*
X424160D02*
D03*
X530560Y362238D02*
D03*
X536559D02*
D03*
X89660Y728572D02*
D03*
X62359D02*
D03*
X66210Y445472D02*
D03*
X399259Y502872D02*
D03*
X334860D02*
D03*
X378410Y502822D02*
D03*
X356326Y502872D02*
D03*
X320060Y476872D02*
D03*
Y467772D02*
D03*
X198622Y372572D02*
D03*
X174760Y53972D02*
D03*
X527760Y72872D02*
D03*
X218759Y442572D02*
D03*
Y436572D02*
D03*
X366460Y394672D02*
D03*
Y388672D02*
D03*
X332360Y561372D02*
D03*
X325859D02*
D03*
X292560Y570672D02*
D03*
X269060Y576672D02*
D03*
X185560Y537172D02*
D03*
Y543672D02*
D03*
X292560Y580172D02*
D03*
X428359Y87032D02*
D03*
X566460Y552672D02*
D03*
X410960Y480372D02*
D03*
X120020Y501332D02*
D03*
X289459Y658772D02*
D03*
X292560Y591872D02*
D03*
X272959Y623172D02*
D03*
X294960Y642272D02*
D03*
X393559Y950072D02*
D03*
X482399Y723742D02*
D03*
X279259Y664972D02*
D03*
X266560Y677372D02*
D03*
X269060Y585172D02*
D03*
X320260Y53972D02*
D03*
X456359Y562072D02*
D03*
X377840Y53972D02*
D03*
X409679Y568302D02*
D03*
X334689Y672462D02*
D03*
X349370Y519952D02*
D03*
X259340Y409282D02*
D03*
X416810Y506492D02*
D03*
Y494562D02*
D03*
X376009Y526022D02*
D03*
X146910Y521732D02*
D03*
X287869D02*
D03*
X218599Y410412D02*
D03*
X208650D02*
D03*
X367550Y526022D02*
D03*
X409679Y559782D02*
D03*
X461429Y411462D02*
D03*
X451479D02*
D03*
X133619Y542212D02*
D03*
Y521732D02*
D03*
Y531972D02*
D03*
Y552452D02*
D03*
X513209Y552712D02*
D03*
X379850Y604372D02*
D03*
X416600Y855572D02*
D03*
X139389Y719532D02*
D03*
X271239Y855252D02*
D03*
M02*
