G04*
G04 #@! TF.GenerationSoftware,Altium Limited,Altium Designer,23.1.1 (15)*
G04*
G04 Layer_Physical_Order=4*
G04 Layer_Color=16711680*
%FSLAX44Y44*%
%MOMM*%
G71*
G04*
G04 #@! TF.SameCoordinates,06529313-8F5D-48FA-AF42-15034B8276AF*
G04*
G04*
G04 #@! TF.FilePolarity,Positive*
G04*
G01*
G75*
%ADD13C,0.2540*%
%ADD15R,0.6000X0.5600*%
%ADD16R,0.5600X0.6000*%
G04:AMPARAMS|DCode=17|XSize=0.54mm|YSize=0.6mm|CornerRadius=0.1431mm|HoleSize=0mm|Usage=FLASHONLY|Rotation=270.000|XOffset=0mm|YOffset=0mm|HoleType=Round|Shape=RoundedRectangle|*
%AMROUNDEDRECTD17*
21,1,0.5400,0.3138,0,0,270.0*
21,1,0.2538,0.6000,0,0,270.0*
1,1,0.2862,-0.1569,-0.1269*
1,1,0.2862,-0.1569,0.1269*
1,1,0.2862,0.1569,0.1269*
1,1,0.2862,0.1569,-0.1269*
%
%ADD17ROUNDEDRECTD17*%
G04:AMPARAMS|DCode=18|XSize=0.54mm|YSize=0.6mm|CornerRadius=0.1431mm|HoleSize=0mm|Usage=FLASHONLY|Rotation=0.000|XOffset=0mm|YOffset=0mm|HoleType=Round|Shape=RoundedRectangle|*
%AMROUNDEDRECTD18*
21,1,0.5400,0.3138,0,0,0.0*
21,1,0.2538,0.6000,0,0,0.0*
1,1,0.2862,0.1269,-0.1569*
1,1,0.2862,-0.1269,-0.1569*
1,1,0.2862,-0.1269,0.1569*
1,1,0.2862,0.1269,0.1569*
%
%ADD18ROUNDEDRECTD18*%
%ADD22C,0.6500*%
%ADD83C,0.9000*%
%ADD92C,0.1600*%
%ADD93C,0.5000*%
%ADD97O,0.9000X2.4000*%
%ADD98O,0.9000X1.7000*%
%ADD99C,1.6050*%
%ADD100R,1.5600X1.5600*%
%ADD101R,1.5600X1.5600*%
%ADD102P,2.2062X4X360.0*%
%ADD103C,0.3000*%
%ADD104P,2.2062X4X270.0*%
%ADD105C,1.5750*%
%ADD106R,1.5750X1.5750*%
%ADD107C,1.5600*%
%ADD108R,1.6050X1.6050*%
%ADD109R,1.6050X1.6050*%
%ADD110C,3.0000*%
%ADD111C,0.5000*%
G04:AMPARAMS|DCode=129|XSize=0.59mm|YSize=0.35mm|CornerRadius=0.0875mm|HoleSize=0mm|Usage=FLASHONLY|Rotation=90.000|XOffset=0mm|YOffset=0mm|HoleType=Round|Shape=RoundedRectangle|*
%AMROUNDEDRECTD129*
21,1,0.5900,0.1750,0,0,90.0*
21,1,0.4150,0.3500,0,0,90.0*
1,1,0.1750,0.0875,0.2075*
1,1,0.1750,0.0875,-0.2075*
1,1,0.1750,-0.0875,-0.2075*
1,1,0.1750,-0.0875,0.2075*
%
%ADD129ROUNDEDRECTD129*%
G04:AMPARAMS|DCode=130|XSize=0.59mm|YSize=0.35mm|CornerRadius=0.0875mm|HoleSize=0mm|Usage=FLASHONLY|Rotation=0.000|XOffset=0mm|YOffset=0mm|HoleType=Round|Shape=RoundedRectangle|*
%AMROUNDEDRECTD130*
21,1,0.5900,0.1750,0,0,0.0*
21,1,0.4150,0.3500,0,0,0.0*
1,1,0.1750,0.2075,-0.0875*
1,1,0.1750,-0.2075,-0.0875*
1,1,0.1750,-0.2075,0.0875*
1,1,0.1750,0.2075,0.0875*
%
%ADD130ROUNDEDRECTD130*%
%ADD131R,1.5700X0.6900*%
G04:AMPARAMS|DCode=132|XSize=0.86mm|YSize=0.27mm|CornerRadius=0.0338mm|HoleSize=0mm|Usage=FLASHONLY|Rotation=90.000|XOffset=0mm|YOffset=0mm|HoleType=Round|Shape=RoundedRectangle|*
%AMROUNDEDRECTD132*
21,1,0.8600,0.2025,0,0,90.0*
21,1,0.7925,0.2700,0,0,90.0*
1,1,0.0675,0.1013,0.3963*
1,1,0.0675,0.1013,-0.3963*
1,1,0.0675,-0.1013,-0.3963*
1,1,0.0675,-0.1013,0.3963*
%
%ADD132ROUNDEDRECTD132*%
G04:AMPARAMS|DCode=133|XSize=0.86mm|YSize=0.27mm|CornerRadius=0.0338mm|HoleSize=0mm|Usage=FLASHONLY|Rotation=180.000|XOffset=0mm|YOffset=0mm|HoleType=Round|Shape=RoundedRectangle|*
%AMROUNDEDRECTD133*
21,1,0.8600,0.2025,0,0,180.0*
21,1,0.7925,0.2700,0,0,180.0*
1,1,0.0675,-0.3963,0.1013*
1,1,0.0675,0.3963,0.1013*
1,1,0.0675,0.3963,-0.1013*
1,1,0.0675,-0.3963,-0.1013*
%
%ADD133ROUNDEDRECTD133*%
%ADD134R,2.6000X2.6000*%
G36*
X353223Y984109D02*
X371968Y982330D01*
X390609Y979666D01*
X409102Y976123D01*
X427407Y971709D01*
X445483Y966434D01*
X463289Y960310D01*
X480785Y953351D01*
X497933Y945571D01*
X514693Y936990D01*
X531029Y927625D01*
X546903Y917497D01*
X562281Y906631D01*
X577127Y895049D01*
X591409Y882777D01*
X605094Y869844D01*
X618152Y856278D01*
X630554Y842109D01*
X642271Y827370D01*
X653279Y812093D01*
X663551Y796312D01*
X673065Y780063D01*
X681801Y763382D01*
X689737Y746306D01*
X696856Y728874D01*
X700000Y720000D01*
X700000D01*
X700000Y720000D01*
Y550000D01*
X650000D01*
Y-0D01*
X-0D01*
Y550000D01*
X-50000D01*
Y720000D01*
X-46857Y728874D01*
X-39737Y746306D01*
X-31801Y763382D01*
X-23066Y780063D01*
X-13552Y796312D01*
X-3279Y812093D01*
X7728Y827370D01*
X19446Y842109D01*
X31848Y856278D01*
X44906Y869844D01*
X58591Y882777D01*
X72873Y895049D01*
X87719Y906631D01*
X103097Y917497D01*
X118971Y927625D01*
X135307Y936990D01*
X152067Y945571D01*
X169214Y953351D01*
X186711Y960310D01*
X204517Y966434D01*
X222592Y971709D01*
X240898Y976123D01*
X259391Y979666D01*
X278031Y982330D01*
X296776Y984109D01*
X315585Y985000D01*
X334415D01*
X353223Y984109D01*
D02*
G37*
%LPC*%
G36*
X314599Y972952D02*
X295900D01*
Y969817D01*
X293209D01*
Y971972D01*
X285779D01*
X284610Y971972D01*
X283340Y971972D01*
X275910D01*
Y968740D01*
X258616Y951446D01*
X257732Y950123D01*
X257421Y948562D01*
X257421Y948562D01*
Y931997D01*
X251975D01*
Y912947D01*
X271024D01*
Y931997D01*
X265578D01*
Y946873D01*
X281677Y962972D01*
X284510Y962972D01*
X285779Y962972D01*
X293209D01*
Y965127D01*
X295900D01*
Y963052D01*
X314599D01*
Y972952D01*
D02*
G37*
G36*
X355140Y973992D02*
X346020D01*
Y969272D01*
X355140D01*
Y973992D01*
D02*
G37*
G36*
X343480D02*
X334360D01*
Y969272D01*
X343480D01*
Y973992D01*
D02*
G37*
G36*
X355140Y966732D02*
X346020D01*
Y962012D01*
X355140D01*
Y966732D01*
D02*
G37*
G36*
X343480D02*
X334360D01*
Y962012D01*
X343480D01*
Y966732D01*
D02*
G37*
G36*
X315639Y955992D02*
X306520D01*
Y951272D01*
X315639D01*
Y955992D01*
D02*
G37*
G36*
X303979D02*
X294860D01*
Y951272D01*
X303979D01*
Y955992D01*
D02*
G37*
G36*
X354100Y954952D02*
X335400D01*
Y945052D01*
X342404D01*
Y940328D01*
X342404Y940328D01*
X342583Y939430D01*
X343091Y938669D01*
X348115Y933646D01*
Y925312D01*
X346844Y925145D01*
X346575Y926149D01*
X345321Y928321D01*
X343548Y930094D01*
X341376Y931348D01*
X338954Y931997D01*
X336446D01*
X334023Y931348D01*
X331851Y930094D01*
X330078Y928321D01*
X328824Y926149D01*
X328175Y923726D01*
Y921218D01*
X328824Y918796D01*
X330078Y916624D01*
X331851Y914850D01*
X334023Y913596D01*
X336446Y912947D01*
X338954D01*
X341376Y913596D01*
X343548Y914850D01*
X345321Y916624D01*
X346575Y918796D01*
X346844Y919800D01*
X348115Y919633D01*
Y875444D01*
X237401Y764731D01*
X237075Y764241D01*
X235805Y764512D01*
Y816501D01*
X270556Y851252D01*
X272035D01*
X273505Y851861D01*
X274631Y852987D01*
X275240Y854457D01*
Y856048D01*
X274631Y857518D01*
X273505Y858643D01*
X272035Y859252D01*
X270444D01*
X268974Y858643D01*
X267848Y857518D01*
X267239Y856048D01*
Y854569D01*
X231801Y819130D01*
X231293Y818370D01*
X231114Y817472D01*
X231114Y817472D01*
Y687622D01*
X231114Y687622D01*
X231293Y686725D01*
X231801Y685964D01*
X235990Y681776D01*
X235180Y680789D01*
X234657Y681139D01*
X233759Y681317D01*
X233759Y681317D01*
X180921D01*
X143390Y718849D01*
Y720328D01*
X142781Y721798D01*
X141655Y722923D01*
X140185Y723532D01*
X138594D01*
X137124Y722923D01*
X135998Y721798D01*
X135389Y720328D01*
Y718737D01*
X135632Y718151D01*
X134555Y717432D01*
X61457Y790530D01*
X60696Y791039D01*
X59798Y791217D01*
X59798Y791217D01*
X26432D01*
X26075Y792549D01*
X24821Y794721D01*
X23048Y796494D01*
X20876Y797748D01*
X18454Y798397D01*
X15946D01*
X13523Y797748D01*
X11351Y796494D01*
X9578Y794721D01*
X8324Y792549D01*
X7674Y790126D01*
Y787618D01*
X8324Y785196D01*
X9578Y783024D01*
X11351Y781250D01*
X13523Y779996D01*
X15946Y779347D01*
X18454D01*
X20876Y779996D01*
X23048Y781250D01*
X24821Y783024D01*
X26075Y785196D01*
X26432Y786527D01*
X58827D01*
X174340Y671014D01*
X174340Y671014D01*
X175101Y670506D01*
X175998Y670327D01*
X182462D01*
X182988Y669057D01*
X182668Y668738D01*
X182059Y667268D01*
Y665789D01*
X87901Y571631D01*
X87393Y570870D01*
X87214Y569972D01*
X87214Y569972D01*
Y127591D01*
X87214Y127591D01*
X87393Y126693D01*
X87901Y125933D01*
X88839Y124995D01*
X88839Y124995D01*
X89599Y124487D01*
X90497Y124309D01*
X215207D01*
X219314Y120201D01*
Y54910D01*
X219314Y54910D01*
X219493Y54012D01*
X220001Y53251D01*
X220938Y52314D01*
X220938Y52314D01*
X221699Y51806D01*
X222597Y51627D01*
X259518D01*
X260564Y50581D01*
X262034Y49972D01*
X263625D01*
X265095Y50581D01*
X266220Y51706D01*
X266829Y53177D01*
Y54768D01*
X266220Y56238D01*
X265095Y57363D01*
X263625Y57972D01*
X262034D01*
X260564Y57363D01*
X259518Y56317D01*
X224005D01*
Y121172D01*
X224005Y121172D01*
X223826Y122070D01*
X223318Y122830D01*
X223318Y122830D01*
X217836Y128312D01*
X217076Y128820D01*
X216178Y128999D01*
X216178Y128999D01*
X91905D01*
Y569001D01*
X185376Y662472D01*
X186855D01*
X188325Y663081D01*
X189450Y664206D01*
X190060Y665677D01*
Y667268D01*
X189450Y668738D01*
X189131Y669057D01*
X189657Y670327D01*
X231688D01*
X266373Y635642D01*
X265847Y634372D01*
X265364D01*
X263894Y633763D01*
X262768Y632638D01*
X262160Y631168D01*
Y629577D01*
X262768Y628106D01*
X263894Y626981D01*
X264362Y626787D01*
X264109Y625517D01*
X198031D01*
X188405Y635144D01*
Y640360D01*
X189450Y641406D01*
X190060Y642877D01*
Y644468D01*
X189450Y645938D01*
X188325Y647063D01*
X186855Y647672D01*
X185264D01*
X183794Y647063D01*
X182668Y645938D01*
X182059Y644468D01*
Y642877D01*
X182668Y641406D01*
X183715Y640360D01*
Y634172D01*
X183714Y634172D01*
X183893Y633275D01*
X184401Y632514D01*
X195401Y621514D01*
X195401Y621514D01*
X196162Y621006D01*
X197059Y620827D01*
X265247D01*
X265500Y619557D01*
X264505Y619145D01*
X263087Y617727D01*
X262430Y616142D01*
X272289D01*
X271632Y617727D01*
X271136Y618223D01*
X271855Y619300D01*
X272164Y619172D01*
X273755D01*
X275225Y619781D01*
X276350Y620906D01*
X276959Y622377D01*
Y623260D01*
X278230Y623786D01*
X291728Y610287D01*
X291400Y609210D01*
X291256Y609017D01*
X269713D01*
X269461Y610287D01*
X270214Y610600D01*
X271632Y612017D01*
X272289Y613602D01*
X262430D01*
X263087Y612017D01*
X264505Y610600D01*
X265258Y610287D01*
X265006Y609017D01*
X187840D01*
X187840Y609017D01*
X186942Y608839D01*
X186181Y608330D01*
X186181Y608330D01*
X134303Y556452D01*
X132824D01*
X131354Y555843D01*
X130229Y554718D01*
X129620Y553248D01*
Y551657D01*
X130229Y550186D01*
X131354Y549061D01*
X132824Y548452D01*
X134415D01*
X134982Y548687D01*
X135701Y547610D01*
X134303Y546212D01*
X132824D01*
X131354Y545603D01*
X130229Y544478D01*
X129620Y543008D01*
Y541417D01*
X130229Y539946D01*
X131354Y538821D01*
X132824Y538212D01*
X134415D01*
X134982Y538447D01*
X135701Y537370D01*
X134303Y535972D01*
X132824D01*
X131354Y535363D01*
X130229Y534238D01*
X129620Y532768D01*
Y531177D01*
X130229Y529706D01*
X131354Y528581D01*
X132824Y527972D01*
X134415D01*
X134982Y528207D01*
X135701Y527130D01*
X134303Y525732D01*
X132824D01*
X131354Y525123D01*
X130229Y523998D01*
X129620Y522528D01*
Y520937D01*
X130229Y519467D01*
X131354Y518341D01*
X132824Y517732D01*
X134415D01*
X135885Y518341D01*
X137010Y519467D01*
X137619Y520937D01*
Y522416D01*
X169601Y554397D01*
X278429D01*
X278430Y554397D01*
X279327Y554576D01*
X280088Y555084D01*
X291702Y566698D01*
X291764Y566672D01*
X293355D01*
X294825Y567281D01*
X295951Y568406D01*
X296560Y569877D01*
Y571468D01*
X295951Y572938D01*
X294825Y574063D01*
X293392Y574657D01*
X293353Y574677D01*
X292689Y575942D01*
X292829Y576172D01*
X293355D01*
X294825Y576781D01*
X295951Y577906D01*
X296560Y579377D01*
Y580968D01*
X295951Y582438D01*
X294825Y583563D01*
X293355Y584172D01*
X291764D01*
X290294Y583563D01*
X289168Y582438D01*
X288559Y580968D01*
Y579489D01*
X275378Y566307D01*
X165610D01*
X165609Y566307D01*
X164712Y566129D01*
X163951Y565620D01*
X138462Y540131D01*
X137385Y540850D01*
X137619Y541417D01*
Y542896D01*
X192201Y597477D01*
X309613D01*
Y595860D01*
X309756Y595143D01*
X310162Y594535D01*
X310770Y594129D01*
X311487Y593986D01*
X313512D01*
X313884Y594060D01*
X314872Y593497D01*
X315154Y593220D01*
Y567710D01*
X315154Y567710D01*
X315333Y566812D01*
X315841Y566051D01*
X316779Y565114D01*
X316779Y565114D01*
X317539Y564606D01*
X318437Y564427D01*
X321598D01*
X322269Y563157D01*
X321860Y562168D01*
Y560577D01*
X322468Y559106D01*
X323594Y557981D01*
X325064Y557372D01*
X326655D01*
X328125Y557981D01*
X329109Y558965D01*
X330094Y557981D01*
X331564Y557372D01*
X333155D01*
X334625Y557981D01*
X335751Y559106D01*
X336359Y560577D01*
Y562168D01*
X335950Y563157D01*
X336621Y564427D01*
X356408D01*
X398115Y522721D01*
Y510912D01*
X398114Y510912D01*
X398293Y510015D01*
X398801Y509254D01*
X399913Y508142D01*
X399387Y506872D01*
X398464D01*
X396994Y506263D01*
X395948Y505217D01*
X393429D01*
X393286Y505563D01*
X391950Y506899D01*
X390204Y507622D01*
X388315D01*
X386569Y506899D01*
X385233Y505563D01*
X384510Y503817D01*
Y501927D01*
X385233Y500182D01*
X386569Y498845D01*
X388315Y498122D01*
X390204D01*
X391950Y498845D01*
X393286Y500182D01*
X393429Y500527D01*
X395948D01*
X396994Y499481D01*
X398464Y498872D01*
X400055D01*
X401525Y499481D01*
X402650Y500606D01*
X403260Y502077D01*
Y503000D01*
X404529Y503526D01*
X412809Y495246D01*
Y493767D01*
X413419Y492296D01*
X414544Y491171D01*
X416014Y490562D01*
X417605D01*
X419075Y491171D01*
X420201Y492296D01*
X420810Y493767D01*
Y495358D01*
X420201Y496828D01*
X419075Y497953D01*
X417605Y498562D01*
X416126D01*
X402805Y511884D01*
Y523692D01*
X402805Y523692D01*
X402626Y524590D01*
X402118Y525350D01*
X402118Y525350D01*
X360614Y566854D01*
X361100Y568027D01*
X362288D01*
X404134Y526181D01*
Y516822D01*
X404134Y516822D01*
X404313Y515925D01*
X404821Y515164D01*
X412809Y507176D01*
Y505697D01*
X413419Y504226D01*
X414544Y503101D01*
X416014Y502492D01*
X417605D01*
X419075Y503101D01*
X420201Y504226D01*
X420810Y505697D01*
Y507288D01*
X420201Y508758D01*
X419075Y509883D01*
X417605Y510492D01*
X416126D01*
X408825Y517794D01*
Y527152D01*
X408825Y527152D01*
X408646Y528050D01*
X408138Y528811D01*
X408138Y528811D01*
X366324Y570624D01*
X366810Y571797D01*
X405722D01*
X406288Y570568D01*
X405680Y569098D01*
Y567507D01*
X406288Y566036D01*
X407414Y564911D01*
X407852Y564730D01*
Y563355D01*
X407414Y563173D01*
X406288Y562048D01*
X405680Y560578D01*
Y558987D01*
X406288Y557517D01*
X407414Y556391D01*
X408884Y555782D01*
X410363D01*
X438834Y527311D01*
Y404782D01*
X438834Y404782D01*
X439013Y403885D01*
X439521Y403124D01*
X442761Y399884D01*
X442761Y399884D01*
X443522Y399376D01*
X444420Y399197D01*
X444420Y399197D01*
X457859D01*
X457859Y399197D01*
X458757Y399376D01*
X459518Y399884D01*
X463088Y403454D01*
X463596Y404215D01*
X463775Y405112D01*
Y408150D01*
X464821Y409197D01*
X465429Y410667D01*
Y412258D01*
X464821Y413728D01*
X463695Y414853D01*
X462225Y415462D01*
X460634D01*
X459164Y414853D01*
X458038Y413728D01*
X457430Y412258D01*
Y410667D01*
X458038Y409197D01*
X459085Y408150D01*
Y406084D01*
X456888Y403887D01*
X445391D01*
X443525Y405754D01*
Y528282D01*
X443525Y528282D01*
X443346Y529180D01*
X442838Y529940D01*
X414361Y558417D01*
X414429Y558760D01*
X415807Y559178D01*
X449134Y525851D01*
Y414774D01*
X448088Y413728D01*
X447480Y412258D01*
Y410667D01*
X448088Y409197D01*
X449214Y408071D01*
X450684Y407462D01*
X452275D01*
X453745Y408071D01*
X454870Y409197D01*
X455480Y410667D01*
Y412258D01*
X454870Y413728D01*
X453825Y414774D01*
Y526822D01*
X453646Y527720D01*
X453138Y528480D01*
X413680Y567939D01*
Y569098D01*
X413070Y570568D01*
X413638Y571797D01*
X455918D01*
X509991Y517724D01*
X509991Y517724D01*
X510752Y517216D01*
X511650Y517037D01*
X511650Y517037D01*
X563414D01*
Y146517D01*
X454360D01*
X454360Y146517D01*
X453462Y146339D01*
X452701Y145830D01*
X376181Y69310D01*
X375673Y68550D01*
X375494Y67652D01*
X375494Y67652D01*
Y57284D01*
X374449Y56238D01*
X373839Y54768D01*
Y53177D01*
X374449Y51706D01*
X375574Y50581D01*
X377044Y49972D01*
X378635D01*
X380105Y50581D01*
X381231Y51706D01*
X381839Y53177D01*
Y54768D01*
X381231Y56238D01*
X380185Y57284D01*
Y66681D01*
X455331Y141827D01*
X564822D01*
X564822Y141827D01*
X565720Y142006D01*
X566480Y142514D01*
X567418Y143451D01*
X567418Y143451D01*
X567926Y144212D01*
X568105Y145110D01*
Y518445D01*
X567926Y519342D01*
X567418Y520103D01*
X567418Y520103D01*
X566480Y521040D01*
X565720Y521549D01*
X564822Y521727D01*
X564822Y521727D01*
X512621D01*
X458548Y575801D01*
X457787Y576309D01*
X456889Y576487D01*
X456889Y576487D01*
X334845D01*
Y579716D01*
X335037Y579860D01*
X336115Y580188D01*
X336778Y579524D01*
X336778Y579524D01*
X337539Y579016D01*
X338437Y578837D01*
X458678D01*
X512061Y525454D01*
X512822Y524946D01*
X513719Y524767D01*
X513720Y524767D01*
X572215D01*
Y137227D01*
X460589D01*
X459692Y137049D01*
X458931Y136540D01*
X413423Y91032D01*
X411944D01*
X410474Y90423D01*
X409348Y89298D01*
X408740Y87828D01*
Y86237D01*
X409348Y84767D01*
X410474Y83641D01*
X411944Y83032D01*
X413535D01*
X415005Y83641D01*
X416130Y84767D01*
X416740Y86237D01*
Y87716D01*
X461561Y132537D01*
X573622D01*
X573622Y132537D01*
X574520Y132716D01*
X575280Y133224D01*
X576218Y134161D01*
X576218Y134161D01*
X576726Y134922D01*
X576905Y135820D01*
Y526175D01*
X576726Y527072D01*
X576218Y527833D01*
X576218Y527833D01*
X575280Y528770D01*
X574520Y529279D01*
X573622Y529457D01*
X573622Y529457D01*
X514691D01*
X461308Y582840D01*
X460547Y583349D01*
X459650Y583527D01*
X459649Y583527D01*
X339845D01*
Y594547D01*
X340243Y595143D01*
X340386Y595860D01*
Y603632D01*
X340540D01*
Y603786D01*
X348312D01*
X349029Y603929D01*
X349625Y604327D01*
X352104D01*
Y589630D01*
X352104Y589630D01*
X352283Y588732D01*
X352791Y587971D01*
X353728Y587034D01*
X353729Y587034D01*
X354489Y586526D01*
X355387Y586347D01*
X461468D01*
X514801Y533014D01*
X514801Y533014D01*
X515562Y532506D01*
X516460Y532327D01*
X516460Y532327D01*
X580914D01*
Y128217D01*
X466760D01*
X466759Y128217D01*
X465862Y128039D01*
X465101Y127530D01*
X465101Y127530D01*
X428603Y91032D01*
X427564D01*
X426094Y90423D01*
X424968Y89298D01*
X424360Y87828D01*
Y86237D01*
X424968Y84767D01*
X426094Y83641D01*
X427564Y83032D01*
X429155D01*
X430625Y83641D01*
X431750Y84767D01*
X432360Y86237D01*
Y87828D01*
X432263Y88060D01*
X467731Y123527D01*
X582322D01*
X582322Y123527D01*
X583220Y123706D01*
X583980Y124214D01*
X584918Y125151D01*
X584918Y125151D01*
X585426Y125912D01*
X585605Y126810D01*
Y514750D01*
X586875Y515319D01*
X588315Y514722D01*
X590204D01*
X591826Y515394D01*
X599259D01*
X599654Y515472D01*
X600055D01*
X600426Y515626D01*
X600820Y515704D01*
X601154Y515928D01*
X601525Y516081D01*
X601809Y516365D01*
X602143Y516588D01*
X602367Y516922D01*
X602650Y517206D01*
X602804Y517578D01*
X603027Y517911D01*
X603106Y518306D01*
X603260Y518677D01*
Y519078D01*
X603338Y519472D01*
X603260Y519866D01*
Y520268D01*
X603106Y520639D01*
X603027Y521033D01*
X602804Y521367D01*
X602650Y521738D01*
X602367Y522022D01*
X602143Y522356D01*
X601809Y522579D01*
X601525Y522863D01*
X601154Y523017D01*
X600820Y523240D01*
X600426Y523318D01*
X600055Y523472D01*
X599654D01*
X599259Y523551D01*
X591826D01*
X590204Y524222D01*
X588315D01*
X586875Y523626D01*
X585605Y524194D01*
Y533735D01*
X585426Y534632D01*
X584918Y535393D01*
X584918Y535393D01*
X583980Y536330D01*
X583220Y536839D01*
X582322Y537017D01*
X582322Y537017D01*
X517431D01*
X464098Y590350D01*
X463337Y590859D01*
X462439Y591037D01*
X462439Y591037D01*
X356795D01*
Y594828D01*
X358065Y595213D01*
X358341Y594799D01*
X359278Y593862D01*
X359279Y593862D01*
X360039Y593353D01*
X360937Y593175D01*
X464641D01*
X506761Y551054D01*
X506761Y551054D01*
X507522Y550546D01*
X508419Y550367D01*
X509898D01*
X510944Y549321D01*
X512414Y548712D01*
X514005D01*
X515475Y549321D01*
X516600Y550446D01*
X517210Y551917D01*
Y553508D01*
X516600Y554978D01*
X515475Y556103D01*
X514005Y556712D01*
X512414D01*
X510944Y556103D01*
X510437Y555597D01*
X508851D01*
X467270Y597178D01*
X466509Y597686D01*
X465612Y597865D01*
X465612Y597865D01*
X362345D01*
Y610735D01*
X362166Y611632D01*
X361658Y612393D01*
X361658Y612393D01*
X360994Y613057D01*
X361321Y614134D01*
X361466Y614327D01*
X477909D01*
X477910Y614327D01*
X478807Y614506D01*
X479568Y615014D01*
X524211Y659657D01*
X623532D01*
X623924Y658196D01*
X625178Y656024D01*
X626951Y654250D01*
X629123Y652996D01*
X631545Y652347D01*
X634053D01*
X636476Y652996D01*
X638648Y654250D01*
X640421Y656024D01*
X641675Y658196D01*
X642325Y660618D01*
Y663126D01*
X641675Y665549D01*
X640421Y667721D01*
X638648Y669494D01*
X636476Y670748D01*
X634053Y671397D01*
X631545D01*
X629123Y670748D01*
X626951Y669494D01*
X625178Y667721D01*
X623924Y665549D01*
X623602Y664347D01*
X523240D01*
X522342Y664169D01*
X521581Y663661D01*
X476938Y619017D01*
X367963D01*
X367819Y619210D01*
X367491Y620287D01*
X468601Y721397D01*
X479088D01*
X480134Y720351D01*
X481604Y719742D01*
X483195D01*
X484665Y720351D01*
X485790Y721477D01*
X486399Y722947D01*
Y724538D01*
X485790Y726008D01*
X484665Y727133D01*
X483195Y727742D01*
X481604D01*
X480134Y727133D01*
X479088Y726087D01*
X467630D01*
X467630Y726087D01*
X466732Y725909D01*
X465971Y725400D01*
X419447Y678876D01*
X418461Y679686D01*
X418726Y680083D01*
X418904Y680980D01*
Y852220D01*
X419991Y853306D01*
X420600Y854777D01*
Y856368D01*
X419991Y857838D01*
X418865Y858963D01*
X417395Y859572D01*
X415804D01*
X414334Y858963D01*
X413209Y857838D01*
X413075Y857515D01*
X411805Y857767D01*
Y901512D01*
X411805Y901512D01*
X411626Y902410D01*
X411118Y903170D01*
X411118Y903170D01*
X396686Y917602D01*
X397375Y918796D01*
X398024Y921218D01*
Y923726D01*
X397375Y926149D01*
X396121Y928321D01*
X394348Y930094D01*
X392176Y931348D01*
X389753Y931997D01*
X387245D01*
X384823Y931348D01*
X382651Y930094D01*
X380878Y928321D01*
X379624Y926149D01*
X378974Y923726D01*
Y921218D01*
X379624Y918796D01*
X380878Y916624D01*
X382651Y914850D01*
X384823Y913596D01*
X387245Y912947D01*
X389753D01*
X392176Y913596D01*
X393370Y914286D01*
X407114Y900541D01*
Y682994D01*
X358138Y634017D01*
X349625D01*
X349029Y634416D01*
X348312Y634558D01*
X341447D01*
X341446Y634560D01*
Y637252D01*
X337500D01*
Y639792D01*
X341446D01*
Y642485D01*
X341850Y642977D01*
X351809D01*
X351810Y642977D01*
X352707Y643156D01*
X353468Y643664D01*
X355018Y645214D01*
X355018Y645214D01*
X355526Y645975D01*
X355705Y646872D01*
X355705Y646872D01*
Y660285D01*
X355526Y661182D01*
X355018Y661943D01*
X355018Y661943D01*
X354081Y662880D01*
X353320Y663389D01*
X352422Y663567D01*
X352422Y663567D01*
X350060D01*
Y665522D01*
X347905D01*
Y671525D01*
X347726Y672422D01*
X347218Y673183D01*
X347218Y673183D01*
X346281Y674120D01*
X345520Y674629D01*
X344622Y674807D01*
X344622Y674807D01*
X338001D01*
X336955Y675853D01*
X335485Y676462D01*
X333894D01*
X332424Y675853D01*
X331298Y674728D01*
X330690Y673258D01*
Y671667D01*
X331298Y670196D01*
X332424Y669071D01*
X333894Y668462D01*
X335485D01*
X336955Y669071D01*
X338001Y670117D01*
X343214D01*
Y665522D01*
X341059D01*
Y656922D01*
X340047Y656301D01*
X338010D01*
X338009Y656301D01*
X336449Y655990D01*
X336044Y656231D01*
X335269Y657254D01*
X335577Y658802D01*
X329960D01*
Y660072D01*
X328690D01*
Y665390D01*
X328391D01*
X326841Y665082D01*
X325528Y664204D01*
X324860Y663206D01*
X323441Y662829D01*
X322464Y663806D01*
X321141Y664690D01*
X319888Y664939D01*
X318860Y665522D01*
X318860Y665522D01*
X318859Y665522D01*
X309860D01*
Y665301D01*
X303260D01*
Y665522D01*
X300027D01*
X285293Y680256D01*
X283970Y681140D01*
X282409Y681451D01*
X282409Y681451D01*
X266560D01*
X266166Y681372D01*
X265764D01*
X265393Y681218D01*
X264999Y681140D01*
X264665Y680917D01*
X264294Y680763D01*
X264010Y680479D01*
X263676Y680256D01*
X263452Y679922D01*
X263169Y679638D01*
X263015Y679267D01*
X262792Y678933D01*
X262713Y678539D01*
X262560Y678168D01*
Y677766D01*
X262481Y677372D01*
X262560Y676978D01*
Y676577D01*
X262713Y676206D01*
X262792Y675811D01*
X263015Y675478D01*
X263169Y675106D01*
X263452Y674822D01*
X263676Y674488D01*
X264010Y674265D01*
X264294Y673981D01*
X264665Y673828D01*
X264999Y673604D01*
X265393Y673526D01*
X265764Y673372D01*
X266166D01*
X266560Y673294D01*
X280720D01*
X289972Y664042D01*
X289446Y662772D01*
X288664D01*
X287194Y662163D01*
X286068Y661038D01*
X285459Y659568D01*
Y657977D01*
X286068Y656507D01*
X286915Y655660D01*
Y652522D01*
X286914Y652522D01*
X286915Y652522D01*
Y639143D01*
X285741Y638657D01*
X238597Y685801D01*
X239030Y687068D01*
X239063Y687076D01*
X240287Y687081D01*
X240795Y686320D01*
X263801Y663314D01*
X264562Y662806D01*
X265459Y662627D01*
X265460Y662627D01*
X275948D01*
X276994Y661581D01*
X278464Y660972D01*
X280055D01*
X281525Y661581D01*
X282651Y662706D01*
X283260Y664177D01*
Y665768D01*
X282651Y667238D01*
X281525Y668363D01*
X280055Y668972D01*
X278464D01*
X276994Y668363D01*
X275948Y667317D01*
X266431D01*
X245720Y688028D01*
X246026Y688487D01*
X246205Y689384D01*
Y693361D01*
X246026Y694258D01*
X245518Y695019D01*
X245518Y695019D01*
X242706Y697831D01*
X241945Y698339D01*
X241405Y698446D01*
Y762101D01*
X352118Y872814D01*
X352626Y873575D01*
X352805Y874472D01*
X352805Y874472D01*
Y919185D01*
X354075Y919352D01*
X354224Y918796D01*
X355478Y916624D01*
X357251Y914850D01*
X359423Y913596D01*
X361846Y912947D01*
X364353D01*
X366776Y913596D01*
X368948Y914850D01*
X370721Y916624D01*
X371975Y918796D01*
X372625Y921218D01*
Y923726D01*
X371975Y926149D01*
X370721Y928321D01*
X368948Y930094D01*
X366776Y931348D01*
X364353Y931997D01*
X361846D01*
X359423Y931348D01*
X357251Y930094D01*
X355478Y928321D01*
X354224Y926149D01*
X354075Y925593D01*
X352805Y925760D01*
Y934617D01*
X352805Y934617D01*
X352626Y935515D01*
X352118Y936276D01*
X347095Y941299D01*
Y945052D01*
X354100D01*
Y947657D01*
X356759D01*
Y945572D01*
X364189D01*
X365359Y945572D01*
X366629Y945572D01*
X374059D01*
Y945994D01*
X393559D01*
X393954Y946072D01*
X394355D01*
X394726Y946226D01*
X395120Y946304D01*
X395454Y946527D01*
X395825Y946681D01*
X396109Y946965D01*
X396443Y947188D01*
X396667Y947523D01*
X396950Y947806D01*
X397104Y948177D01*
X397327Y948512D01*
X397406Y948905D01*
X397560Y949277D01*
Y949678D01*
X397638Y950072D01*
X397560Y950466D01*
Y950868D01*
X397406Y951239D01*
X397327Y951633D01*
X397104Y951967D01*
X396950Y952338D01*
X396667Y952622D01*
X396443Y952956D01*
X396109Y953179D01*
X395825Y953463D01*
X395454Y953617D01*
X395120Y953840D01*
X394726Y953919D01*
X394355Y954072D01*
X393954D01*
X393559Y954151D01*
X374059D01*
Y954572D01*
X366629D01*
X365460Y954572D01*
X364189Y954572D01*
X356759D01*
Y952347D01*
X354100D01*
Y954952D01*
D02*
G37*
G36*
X315639Y948732D02*
X306520D01*
Y944012D01*
X315639D01*
Y948732D01*
D02*
G37*
G36*
X303979D02*
X294860D01*
Y944012D01*
X303979D01*
Y948732D01*
D02*
G37*
G36*
X288290Y933037D02*
X288169D01*
Y923742D01*
X297465D01*
Y923863D01*
X296744Y926550D01*
X295354Y928959D01*
X293387Y930926D01*
X290977Y932317D01*
X288290Y933037D01*
D02*
G37*
G36*
X285630D02*
X285509D01*
X282822Y932317D01*
X280412Y930926D01*
X278445Y928959D01*
X277055Y926550D01*
X276334Y923863D01*
Y923742D01*
X285630D01*
Y933037D01*
D02*
G37*
G36*
X313554Y931997D02*
X311045D01*
X308623Y931348D01*
X306451Y930094D01*
X304678Y928321D01*
X303424Y926149D01*
X302775Y923726D01*
Y921218D01*
X303424Y918796D01*
X304678Y916624D01*
X306451Y914850D01*
X308623Y913596D01*
X311045Y912947D01*
X313554D01*
X315976Y913596D01*
X318148Y914850D01*
X319921Y916624D01*
X321175Y918796D01*
X321824Y921218D01*
Y923726D01*
X321175Y926149D01*
X319921Y928321D01*
X318148Y930094D01*
X315976Y931348D01*
X313554Y931997D01*
D02*
G37*
G36*
X297465Y921202D02*
X288169D01*
Y911907D01*
X288290D01*
X290977Y912627D01*
X293387Y914018D01*
X295354Y915985D01*
X296744Y918394D01*
X297465Y921081D01*
Y921202D01*
D02*
G37*
G36*
X285630D02*
X276334D01*
Y921081D01*
X277055Y918394D01*
X278445Y915985D01*
X280412Y914018D01*
X282822Y912627D01*
X285509Y911907D01*
X285630D01*
Y921202D01*
D02*
G37*
G36*
X455280Y869802D02*
X446209D01*
Y860732D01*
X455280D01*
Y869802D01*
D02*
G37*
G36*
X443670D02*
X434599D01*
Y860732D01*
X443670D01*
Y869802D01*
D02*
G37*
G36*
X215399Y869801D02*
X206329D01*
Y860731D01*
X215399D01*
Y869801D01*
D02*
G37*
G36*
X203790D02*
X194720D01*
Y860731D01*
X203790D01*
Y869801D01*
D02*
G37*
G36*
X180884Y868761D02*
X178435D01*
X176070Y868127D01*
X173949Y866903D01*
X172218Y865171D01*
X170993Y863051D01*
X170359Y860685D01*
Y858237D01*
X170993Y855871D01*
X172218Y853751D01*
X173949Y852019D01*
X176070Y850795D01*
X178435Y850161D01*
X180884D01*
X183249Y850795D01*
X185370Y852019D01*
X187101Y853751D01*
X188326Y855871D01*
X188960Y858237D01*
Y860685D01*
X188326Y863051D01*
X187101Y865171D01*
X185370Y866903D01*
X183249Y868127D01*
X180884Y868761D01*
D02*
G37*
G36*
X482090Y853319D02*
Y849660D01*
X485749D01*
X485093Y851245D01*
X483675Y852663D01*
X482090Y853319D01*
D02*
G37*
G36*
X471564Y868762D02*
X469115D01*
X466750Y868129D01*
X464629Y866904D01*
X462898Y865173D01*
X461673Y863052D01*
X461040Y860687D01*
Y858238D01*
X461673Y855873D01*
X462898Y853752D01*
X464629Y852020D01*
X466750Y850796D01*
X469115Y850162D01*
X471564D01*
X473929Y850796D01*
X475320Y851599D01*
X476328Y850714D01*
X475891Y849660D01*
X479550D01*
Y853319D01*
X478732Y852980D01*
X478551Y853126D01*
X477940Y854027D01*
X479006Y855873D01*
X479640Y858238D01*
Y860687D01*
X479006Y863052D01*
X477781Y865173D01*
X476050Y866904D01*
X473929Y868129D01*
X471564Y868762D01*
D02*
G37*
G36*
X455280Y858192D02*
X446209D01*
Y849122D01*
X455280D01*
Y858192D01*
D02*
G37*
G36*
X443670D02*
X434599D01*
Y849122D01*
X443670D01*
Y858192D01*
D02*
G37*
G36*
X215399Y858191D02*
X206329D01*
Y849121D01*
X215399D01*
Y858191D01*
D02*
G37*
G36*
X203790D02*
X194720D01*
Y849121D01*
X203790D01*
Y858191D01*
D02*
G37*
G36*
X485749Y847120D02*
X482090D01*
Y843461D01*
X483675Y844117D01*
X485093Y845535D01*
X485749Y847120D01*
D02*
G37*
G36*
X479550D02*
X475891D01*
X476548Y845535D01*
X477965Y844117D01*
X479550Y843461D01*
Y847120D01*
D02*
G37*
G36*
X523859Y839865D02*
X517446Y833452D01*
X523859Y827039D01*
X530273Y833452D01*
X523859Y839865D01*
D02*
G37*
G36*
X126140D02*
X119726Y833452D01*
X126140Y827038D01*
X132553Y833452D01*
X126140Y839865D01*
D02*
G37*
G36*
X471564Y839962D02*
X469115D01*
X466750Y839329D01*
X464629Y838104D01*
X462898Y836373D01*
X461673Y834252D01*
X461040Y831887D01*
Y829438D01*
X461673Y827073D01*
X462898Y824952D01*
X464629Y823221D01*
X466750Y821996D01*
X469115Y821362D01*
X471564D01*
X473929Y821996D01*
X476050Y823221D01*
X477781Y824952D01*
X479006Y827073D01*
X479640Y829438D01*
Y831887D01*
X479006Y834252D01*
X477781Y836373D01*
X476050Y838104D01*
X473929Y839329D01*
X471564Y839962D01*
D02*
G37*
G36*
X454240D02*
X435639D01*
Y821362D01*
X454240D01*
Y839962D01*
D02*
G37*
G36*
X214359Y839961D02*
X195760D01*
Y821361D01*
X214359D01*
Y839961D01*
D02*
G37*
G36*
X180884D02*
X178435D01*
X176070Y839327D01*
X173949Y838103D01*
X172218Y836371D01*
X170993Y834251D01*
X170359Y831885D01*
Y829437D01*
X170993Y827071D01*
X172218Y824951D01*
X173949Y823219D01*
X176070Y821995D01*
X178435Y821361D01*
X180884D01*
X183249Y821995D01*
X185370Y823219D01*
X187101Y824951D01*
X188326Y827071D01*
X188960Y829437D01*
Y831885D01*
X188326Y834251D01*
X187101Y836371D01*
X185370Y838103D01*
X183249Y839327D01*
X180884Y839961D01*
D02*
G37*
G36*
X532069Y831656D02*
X525655Y825242D01*
X532069Y818829D01*
X538482Y825242D01*
X532069Y831656D01*
D02*
G37*
G36*
X515650Y831656D02*
X509236Y825242D01*
X515650Y818829D01*
X522063Y825242D01*
X515650Y831656D01*
D02*
G37*
G36*
X134349Y831656D02*
X127936Y825242D01*
X134349Y818829D01*
X140763Y825242D01*
X134349Y831656D01*
D02*
G37*
G36*
X117930Y831656D02*
X111517Y825242D01*
X117930Y818829D01*
X124344Y825242D01*
X117930Y831656D01*
D02*
G37*
G36*
X523859Y823447D02*
X517446Y817033D01*
X523859Y810620D01*
X530273Y817033D01*
X523859Y823447D01*
D02*
G37*
G36*
X126140Y823446D02*
X119726Y817033D01*
X126140Y810620D01*
X132553Y817033D01*
X126140Y823446D01*
D02*
G37*
G36*
X543044Y816582D02*
X540595D01*
X538230Y815948D01*
X536109Y814724D01*
X534378Y812992D01*
X533154Y810872D01*
X532520Y808506D01*
Y806058D01*
X533154Y803692D01*
X534378Y801572D01*
X536109Y799840D01*
X537222Y799198D01*
X536659Y798056D01*
X536120Y798279D01*
Y794620D01*
X539780D01*
X539123Y796205D01*
X537953Y797375D01*
X538611Y798514D01*
X540595Y797982D01*
X543044D01*
X545409Y798616D01*
X547530Y799840D01*
X549262Y801572D01*
X550486Y803692D01*
X551120Y806058D01*
Y808506D01*
X550486Y810872D01*
X549262Y812992D01*
X547530Y814724D01*
X545409Y815948D01*
X543044Y816582D01*
D02*
G37*
G36*
X533581Y798279D02*
X531996Y797623D01*
X530578Y796205D01*
X529921Y794620D01*
X533581D01*
Y798279D01*
D02*
G37*
G36*
X109404Y816582D02*
X106955D01*
X104590Y815948D01*
X102469Y814724D01*
X100737Y812992D01*
X99513Y810872D01*
X98879Y808506D01*
Y806058D01*
X99513Y803692D01*
X100737Y801572D01*
X102469Y799840D01*
X104590Y798616D01*
X106252Y798170D01*
X106339Y796832D01*
X105405Y796445D01*
X103987Y795027D01*
X103330Y793442D01*
X113189D01*
X112532Y795027D01*
X111115Y796445D01*
X110117Y796858D01*
X110204Y798197D01*
X111769Y798616D01*
X113890Y799840D01*
X115621Y801572D01*
X116846Y803692D01*
X117479Y806058D01*
Y808506D01*
X116846Y810872D01*
X115621Y812992D01*
X113890Y814724D01*
X111769Y815948D01*
X109404Y816582D01*
D02*
G37*
G36*
X502959Y817505D02*
X489807Y804352D01*
X502959Y791200D01*
X516111Y804352D01*
X502959Y817505D01*
D02*
G37*
G36*
X147040D02*
X133888Y804352D01*
X147040Y791200D01*
X160192Y804352D01*
X147040Y817505D01*
D02*
G37*
G36*
X539780Y792080D02*
X536120D01*
Y788421D01*
X537705Y789078D01*
X539123Y790495D01*
X539780Y792080D01*
D02*
G37*
G36*
X522144Y795692D02*
X519695D01*
X517330Y795058D01*
X515209Y793834D01*
X513478Y792102D01*
X512254Y789982D01*
X511620Y787616D01*
Y785168D01*
X512254Y782802D01*
X513478Y780682D01*
X515209Y778950D01*
X517330Y777726D01*
X519695Y777092D01*
X522144D01*
X524509Y777726D01*
X526630Y778950D01*
X528362Y780682D01*
X529586Y782802D01*
X530220Y785168D01*
Y787616D01*
X529692Y789585D01*
X530831Y790242D01*
X531996Y789078D01*
X533581Y788421D01*
Y792080D01*
X529921D01*
X530126Y791587D01*
X528984Y791024D01*
X528362Y792102D01*
X526630Y793834D01*
X524509Y795058D01*
X522144Y795692D01*
D02*
G37*
G36*
X113189Y790902D02*
X109529D01*
Y787243D01*
X111115Y787900D01*
X112532Y789317D01*
X113189Y790902D01*
D02*
G37*
G36*
X106989D02*
X103330D01*
X103987Y789317D01*
X105405Y787900D01*
X106989Y787243D01*
Y790902D01*
D02*
G37*
G36*
X642325Y798397D02*
X623274D01*
Y779347D01*
X642325D01*
Y798397D01*
D02*
G37*
G36*
X130304Y795692D02*
X127855D01*
X125490Y795058D01*
X123369Y793834D01*
X121637Y792102D01*
X120413Y789982D01*
X119779Y787616D01*
Y785168D01*
X120413Y782802D01*
X121637Y780682D01*
X123369Y778950D01*
X125490Y777726D01*
X127855Y777092D01*
X130304D01*
X132669Y777726D01*
X134790Y778950D01*
X136521Y780682D01*
X137746Y782802D01*
X138379Y785168D01*
Y787616D01*
X137746Y789982D01*
X136521Y792102D01*
X134790Y793834D01*
X132669Y795058D01*
X130304Y795692D01*
D02*
G37*
G36*
X634190Y774037D02*
X634070D01*
Y764742D01*
X643364D01*
Y764863D01*
X642645Y767550D01*
X641254Y769959D01*
X639287Y771926D01*
X636878Y773317D01*
X634190Y774037D01*
D02*
G37*
G36*
X631530D02*
X631409D01*
X628722Y773317D01*
X626312Y771926D01*
X624345Y769959D01*
X622954Y767550D01*
X622234Y764863D01*
Y764742D01*
X631530D01*
Y774037D01*
D02*
G37*
G36*
X18454Y772997D02*
X15946D01*
X13523Y772348D01*
X11351Y771094D01*
X9578Y769321D01*
X8324Y767149D01*
X7674Y764726D01*
Y762218D01*
X8324Y759796D01*
X9578Y757624D01*
X11351Y755850D01*
X13523Y754596D01*
X15946Y753947D01*
X18454D01*
X20876Y754596D01*
X23048Y755850D01*
X24821Y757624D01*
X26075Y759796D01*
X26725Y762218D01*
Y764726D01*
X26075Y767149D01*
X24821Y769321D01*
X23048Y771094D01*
X20876Y772348D01*
X18454Y772997D01*
D02*
G37*
G36*
X643364Y762202D02*
X634070D01*
Y752907D01*
X634190D01*
X636878Y753627D01*
X639287Y755018D01*
X641254Y756985D01*
X642645Y759394D01*
X643364Y762081D01*
Y762202D01*
D02*
G37*
G36*
X631530D02*
X622234D01*
Y762081D01*
X622954Y759394D01*
X624345Y756985D01*
X626312Y755018D01*
X628722Y753627D01*
X631409Y752907D01*
X631530D01*
Y762202D01*
D02*
G37*
G36*
X507037Y743044D02*
X507023D01*
X505942Y742829D01*
X505026Y742216D01*
X504414Y741300D01*
X504199Y740219D01*
X504414Y739139D01*
X505026Y738222D01*
X505942Y737610D01*
X507023Y737395D01*
X507037D01*
X508117Y737610D01*
X509034Y738222D01*
X509646Y739139D01*
X509861Y740219D01*
X509646Y741300D01*
X509034Y742216D01*
X508117Y742829D01*
X507037Y743044D01*
D02*
G37*
G36*
X634053Y747597D02*
X631545D01*
X629123Y746948D01*
X626951Y745694D01*
X625178Y743921D01*
X623924Y741749D01*
X623274Y739326D01*
Y736818D01*
X623924Y734396D01*
X625178Y732224D01*
X626951Y730450D01*
X629123Y729196D01*
X631545Y728547D01*
X634053D01*
X636476Y729196D01*
X638648Y730450D01*
X640421Y732224D01*
X641675Y734396D01*
X642325Y736818D01*
Y739326D01*
X641675Y741749D01*
X640421Y743921D01*
X638648Y745694D01*
X636476Y746948D01*
X634053Y747597D01*
D02*
G37*
G36*
X18454D02*
X15946D01*
X13523Y746948D01*
X11351Y745694D01*
X9578Y743921D01*
X8324Y741749D01*
X7674Y739326D01*
Y736818D01*
X8324Y734396D01*
X9578Y732224D01*
X11351Y730450D01*
X13523Y729196D01*
X15946Y728547D01*
X18454D01*
X20876Y729196D01*
X23048Y730450D01*
X24821Y732224D01*
X26075Y734396D01*
X26725Y736818D01*
Y739326D01*
X26075Y741749D01*
X24821Y743921D01*
X23048Y745694D01*
X20876Y746948D01*
X18454Y747597D01*
D02*
G37*
G36*
X80604Y733322D02*
X78715D01*
X76969Y732599D01*
X75633Y731263D01*
X74910Y729517D01*
Y727627D01*
X75633Y725882D01*
X76969Y724545D01*
X78715Y723822D01*
X80604D01*
X82350Y724545D01*
X83686Y725882D01*
X83829Y726227D01*
X86348D01*
X87394Y725181D01*
X88864Y724572D01*
X90455D01*
X91925Y725181D01*
X93050Y726306D01*
X93659Y727777D01*
Y729368D01*
X93050Y730838D01*
X91925Y731963D01*
X90455Y732572D01*
X88864D01*
X87394Y731963D01*
X86348Y730917D01*
X83829D01*
X83686Y731263D01*
X82350Y732599D01*
X80604Y733322D01*
D02*
G37*
G36*
X53304D02*
X51415D01*
X49669Y732599D01*
X48333Y731263D01*
X47610Y729517D01*
Y727627D01*
X48333Y725882D01*
X49669Y724545D01*
X51415Y723822D01*
X53304D01*
X55050Y724545D01*
X56386Y725882D01*
X56529Y726227D01*
X59048D01*
X60094Y725181D01*
X61564Y724572D01*
X63155D01*
X64625Y725181D01*
X65750Y726306D01*
X66360Y727777D01*
Y729368D01*
X65750Y730838D01*
X64625Y731963D01*
X63155Y732572D01*
X61564D01*
X60094Y731963D01*
X59048Y730917D01*
X56529D01*
X56386Y731263D01*
X55050Y732599D01*
X53304Y733322D01*
D02*
G37*
G36*
X634053Y722197D02*
X631545D01*
X629123Y721548D01*
X626951Y720294D01*
X625178Y718521D01*
X623924Y716349D01*
X623274Y713926D01*
Y711418D01*
X623924Y708996D01*
X625178Y706824D01*
X626951Y705050D01*
X629123Y703796D01*
X631545Y703147D01*
X634053D01*
X636476Y703796D01*
X638648Y705050D01*
X640421Y706824D01*
X641675Y708996D01*
X642325Y711418D01*
Y713926D01*
X641675Y716349D01*
X640421Y718521D01*
X638648Y720294D01*
X636476Y721548D01*
X634053Y722197D01*
D02*
G37*
G36*
X18454D02*
X15946D01*
X13523Y721548D01*
X11351Y720294D01*
X9578Y718521D01*
X8324Y716349D01*
X7674Y713926D01*
Y711418D01*
X8324Y708996D01*
X9578Y706824D01*
X11351Y705050D01*
X13523Y703796D01*
X15946Y703147D01*
X18454D01*
X20876Y703796D01*
X23048Y705050D01*
X24821Y706824D01*
X26075Y708996D01*
X26725Y711418D01*
Y713926D01*
X26075Y716349D01*
X24821Y718521D01*
X23048Y720294D01*
X20876Y721548D01*
X18454Y722197D01*
D02*
G37*
G36*
X402000Y748546D02*
X247999D01*
X246851Y748070D01*
X246376Y746922D01*
Y696422D01*
X246851Y695274D01*
X247999Y694799D01*
X402000D01*
X403148Y695274D01*
X403623Y696422D01*
Y746922D01*
X403148Y748070D01*
X402000Y748546D01*
D02*
G37*
G36*
X223449Y722558D02*
X205669D01*
X204522Y722082D01*
X204046Y720934D01*
Y694010D01*
X204522Y692862D01*
X205669Y692387D01*
X223449D01*
X224598Y692862D01*
X225073Y694010D01*
Y720934D01*
X224598Y722082D01*
X223449Y722558D01*
D02*
G37*
G36*
X18590Y697837D02*
X18470D01*
Y688542D01*
X27764D01*
Y688663D01*
X27044Y691350D01*
X25654Y693759D01*
X23687Y695726D01*
X21277Y697117D01*
X18590Y697837D01*
D02*
G37*
G36*
X15929D02*
X15809D01*
X13122Y697117D01*
X10712Y695726D01*
X8745Y693759D01*
X7355Y691350D01*
X6635Y688663D01*
Y688542D01*
X15929D01*
Y697837D01*
D02*
G37*
G36*
X634053Y696797D02*
X631545D01*
X629123Y696148D01*
X626951Y694894D01*
X625178Y693121D01*
X623924Y690949D01*
X623274Y688526D01*
Y686018D01*
X623924Y683596D01*
X625178Y681424D01*
X626951Y679650D01*
X629123Y678396D01*
X631545Y677747D01*
X634053D01*
X636476Y678396D01*
X638648Y679650D01*
X640421Y681424D01*
X641675Y683596D01*
X642325Y686018D01*
Y688526D01*
X641675Y690949D01*
X640421Y693121D01*
X638648Y694894D01*
X636476Y696148D01*
X634053Y696797D01*
D02*
G37*
G36*
X27764Y686002D02*
X18470D01*
Y676707D01*
X18590D01*
X21277Y677427D01*
X23687Y678818D01*
X25654Y680785D01*
X27044Y683194D01*
X27764Y685881D01*
Y686002D01*
D02*
G37*
G36*
X15929D02*
X6635D01*
Y685881D01*
X7355Y683194D01*
X8745Y680785D01*
X10712Y678818D01*
X13122Y677427D01*
X15809Y676707D01*
X15929D01*
Y686002D01*
D02*
G37*
G36*
X331529Y665390D02*
X331230D01*
Y661342D01*
X335577D01*
X335269Y662891D01*
X334392Y664204D01*
X333078Y665082D01*
X331529Y665390D01*
D02*
G37*
G36*
X26725Y671397D02*
X7674D01*
Y652347D01*
X26725D01*
Y671397D01*
D02*
G37*
G36*
X415104Y657672D02*
X413215D01*
X411469Y656949D01*
X410133Y655613D01*
X409409Y653867D01*
Y651977D01*
X410133Y650231D01*
X411469Y648895D01*
X413215Y648172D01*
X415104D01*
X416850Y648895D01*
X418186Y650231D01*
X418330Y650577D01*
X420848D01*
X421894Y649531D01*
X423364Y648922D01*
X424955D01*
X426425Y649531D01*
X427551Y650656D01*
X428159Y652127D01*
Y653718D01*
X427551Y655188D01*
X426425Y656313D01*
X424955Y656922D01*
X423364D01*
X421894Y656313D01*
X420848Y655267D01*
X418330D01*
X418186Y655613D01*
X416850Y656949D01*
X415104Y657672D01*
D02*
G37*
G36*
X436404Y657522D02*
X434515D01*
X432769Y656799D01*
X431433Y655463D01*
X430709Y653717D01*
Y651827D01*
X431433Y650082D01*
X432769Y648745D01*
X434515Y648022D01*
X436404D01*
X438150Y648745D01*
X439486Y650082D01*
X439630Y650427D01*
X442148D01*
X443194Y649381D01*
X444664Y648772D01*
X446255D01*
X447725Y649381D01*
X448851Y650506D01*
X449459Y651977D01*
Y653568D01*
X448851Y655038D01*
X447725Y656163D01*
X446255Y656772D01*
X444664D01*
X443194Y656163D01*
X442148Y655117D01*
X439630D01*
X439486Y655463D01*
X438150Y656799D01*
X436404Y657522D01*
D02*
G37*
G36*
X233829Y648602D02*
Y644942D01*
X237489D01*
X236832Y646527D01*
X235414Y647945D01*
X233829Y648602D01*
D02*
G37*
G36*
X231290D02*
X229705Y647945D01*
X228287Y646527D01*
X227630Y644942D01*
X231290D01*
Y648602D01*
D02*
G37*
G36*
X237489Y642402D02*
X233829D01*
Y638743D01*
X235414Y639400D01*
X236832Y640817D01*
X237489Y642402D01*
D02*
G37*
G36*
X231290D02*
X227630D01*
X228287Y640817D01*
X229705Y639400D01*
X231290Y638743D01*
Y642402D01*
D02*
G37*
G36*
X436404Y638622D02*
X434515D01*
X432769Y637899D01*
X431433Y636563D01*
X430709Y634817D01*
Y632927D01*
X431433Y631182D01*
X432769Y629845D01*
X434515Y629122D01*
X436404D01*
X438150Y629845D01*
X439486Y631182D01*
X439630Y631527D01*
X442148D01*
X443194Y630481D01*
X444664Y629872D01*
X446255D01*
X447725Y630481D01*
X448851Y631606D01*
X449459Y633077D01*
Y634668D01*
X448851Y636138D01*
X447725Y637263D01*
X446255Y637872D01*
X444664D01*
X443194Y637263D01*
X442148Y636217D01*
X439630D01*
X439486Y636563D01*
X438150Y637899D01*
X436404Y638622D01*
D02*
G37*
G36*
X415104D02*
X413215D01*
X411469Y637899D01*
X410133Y636563D01*
X409409Y634817D01*
Y632927D01*
X410133Y631182D01*
X411469Y629845D01*
X413215Y629122D01*
X415104D01*
X416850Y629845D01*
X418186Y631182D01*
X418330Y631527D01*
X420848D01*
X421894Y630481D01*
X423364Y629872D01*
X424955D01*
X426425Y630481D01*
X427551Y631606D01*
X428159Y633077D01*
Y634668D01*
X427551Y636138D01*
X426425Y637263D01*
X424955Y637872D01*
X423364D01*
X421894Y637263D01*
X420848Y636217D01*
X418330D01*
X418186Y636563D01*
X416850Y637899D01*
X415104Y638622D01*
D02*
G37*
G36*
X51830Y617162D02*
X42759D01*
Y608092D01*
X51830D01*
Y617162D01*
D02*
G37*
G36*
X40219D02*
X31149D01*
Y608092D01*
X40219D01*
Y617162D01*
D02*
G37*
G36*
X618849D02*
X609779D01*
Y608092D01*
X618849D01*
Y617162D01*
D02*
G37*
G36*
X607239D02*
X598170D01*
Y608092D01*
X607239D01*
Y617162D01*
D02*
G37*
G36*
X80809Y616122D02*
X62210D01*
Y597522D01*
X80809D01*
Y616122D01*
D02*
G37*
G36*
X51830Y605552D02*
X42759D01*
Y596482D01*
X51830D01*
Y605552D01*
D02*
G37*
G36*
X40219D02*
X31149D01*
Y596482D01*
X40219D01*
Y605552D01*
D02*
G37*
G36*
X618849Y605552D02*
X609779D01*
Y596482D01*
X618849D01*
Y605552D01*
D02*
G37*
G36*
X587789Y616122D02*
X569189D01*
Y597737D01*
X569189Y597522D01*
X568670Y596467D01*
X518961D01*
X509448Y605980D01*
X508687Y606489D01*
X507789Y606667D01*
X507789Y606667D01*
X383211D01*
X382115Y607763D01*
X380645Y608372D01*
X379054D01*
X377584Y607763D01*
X376459Y606638D01*
X375849Y605168D01*
Y603577D01*
X376459Y602106D01*
X377584Y600981D01*
X379054Y600372D01*
X380645D01*
X382115Y600981D01*
X383111Y601977D01*
X506818D01*
X516331Y592464D01*
X517092Y591956D01*
X517990Y591777D01*
X517990Y591777D01*
X576295D01*
X576463Y590507D01*
X574900Y590089D01*
X572779Y588864D01*
X571048Y587133D01*
X569823Y585012D01*
X569189Y582647D01*
Y580198D01*
X569823Y577833D01*
X571048Y575712D01*
X572779Y573980D01*
X574900Y572756D01*
X577265Y572122D01*
X579714D01*
X582079Y572756D01*
X584200Y573980D01*
X585931Y575712D01*
X587156Y577833D01*
X587789Y580198D01*
Y582647D01*
X587156Y585012D01*
X585931Y587133D01*
X584200Y588864D01*
X582079Y590089D01*
X580516Y590507D01*
X580684Y591777D01*
X594838D01*
X600488Y586128D01*
X599843Y585012D01*
X599210Y582647D01*
Y580198D01*
X599843Y577833D01*
X601068Y575712D01*
X602799Y573980D01*
X604920Y572756D01*
X607285Y572122D01*
X609734D01*
X612099Y572756D01*
X614220Y573980D01*
X615951Y575712D01*
X617176Y577833D01*
X617809Y580198D01*
Y582647D01*
X617176Y585012D01*
X615951Y587133D01*
X614220Y588864D01*
X612099Y590089D01*
X609734Y590722D01*
X607285D01*
X604920Y590089D01*
X603804Y589444D01*
X597942Y595307D01*
X598562Y596482D01*
X599292Y596482D01*
X607239D01*
Y605552D01*
X598170D01*
Y597681D01*
X598170Y596839D01*
X597084Y596037D01*
X596707Y596289D01*
X595810Y596467D01*
X595809Y596467D01*
X588309D01*
X587789Y597522D01*
X587789Y597737D01*
Y616122D01*
D02*
G37*
G36*
X293355Y595872D02*
X291764D01*
X290294Y595263D01*
X289248Y594217D01*
X275760D01*
X275760Y594217D01*
X274862Y594039D01*
X274101Y593531D01*
X269743Y589172D01*
X268264D01*
X266794Y588563D01*
X265669Y587438D01*
X265060Y585968D01*
Y584377D01*
X265669Y582906D01*
X266794Y581781D01*
X267208Y581610D01*
Y580235D01*
X266794Y580063D01*
X265669Y578938D01*
X265060Y577468D01*
Y575877D01*
X265669Y574406D01*
X266794Y573281D01*
X268264Y572672D01*
X269855D01*
X271325Y573281D01*
X272451Y574406D01*
X273060Y575877D01*
Y577468D01*
X272451Y578938D01*
X271325Y580063D01*
X270911Y580235D01*
Y581610D01*
X271325Y581781D01*
X272451Y582906D01*
X273060Y584377D01*
Y585856D01*
X276731Y589527D01*
X289248D01*
X290294Y588481D01*
X291764Y587872D01*
X293355D01*
X294825Y588481D01*
X295951Y589606D01*
X296560Y591077D01*
Y592668D01*
X295951Y594138D01*
X294825Y595263D01*
X293355Y595872D01*
D02*
G37*
G36*
X57930Y578302D02*
Y574642D01*
X61589D01*
X60932Y576227D01*
X59514Y577645D01*
X57930Y578302D01*
D02*
G37*
G36*
X55389D02*
X53805Y577645D01*
X52387Y576227D01*
X51730Y574642D01*
X55389D01*
Y578302D01*
D02*
G37*
G36*
X72734Y590722D02*
X70285D01*
X67920Y590089D01*
X65799Y588864D01*
X64068Y587133D01*
X62843Y585012D01*
X62210Y582647D01*
Y580198D01*
X62843Y577833D01*
X64068Y575712D01*
X65799Y573980D01*
X67920Y572756D01*
X70285Y572122D01*
X72734D01*
X75099Y572756D01*
X77220Y573980D01*
X78951Y575712D01*
X80176Y577833D01*
X80809Y580198D01*
Y582647D01*
X80176Y585012D01*
X78951Y587133D01*
X77220Y588864D01*
X75099Y590089D01*
X72734Y590722D01*
D02*
G37*
G36*
X42714D02*
X40265D01*
X37900Y590089D01*
X35779Y588864D01*
X34048Y587133D01*
X32823Y585012D01*
X32190Y582647D01*
Y580198D01*
X32823Y577833D01*
X34048Y575712D01*
X35779Y573980D01*
X37900Y572756D01*
X40265Y572122D01*
X42714D01*
X45079Y572756D01*
X47200Y573980D01*
X48931Y575712D01*
X50156Y577833D01*
X50789Y580198D01*
Y582647D01*
X50156Y585012D01*
X48931Y587133D01*
X47200Y588864D01*
X45079Y590089D01*
X42714Y590722D01*
D02*
G37*
G36*
X61589Y572102D02*
X57930D01*
Y568443D01*
X59514Y569100D01*
X60932Y570517D01*
X61589Y572102D01*
D02*
G37*
G36*
X55389D02*
X51730D01*
X52387Y570517D01*
X53805Y569100D01*
X55389Y568443D01*
Y572102D01*
D02*
G37*
G36*
X567255Y556672D02*
X565664D01*
X564194Y556063D01*
X563069Y554938D01*
X562459Y553468D01*
Y551877D01*
X563069Y550406D01*
X564194Y549281D01*
X565664Y548672D01*
X567255D01*
X568725Y549281D01*
X569851Y550406D01*
X570460Y551877D01*
Y553468D01*
X569851Y554938D01*
X568725Y556063D01*
X567255Y556672D01*
D02*
G37*
G36*
X256329Y537802D02*
Y534142D01*
X259989D01*
X259332Y535727D01*
X257914Y537145D01*
X256329Y537802D01*
D02*
G37*
G36*
X253790D02*
X252205Y537145D01*
X250787Y535727D01*
X250130Y534142D01*
X253790D01*
Y537802D01*
D02*
G37*
G36*
X220755Y547672D02*
X219164D01*
X217694Y547063D01*
X216569Y545938D01*
X215959Y544468D01*
Y542877D01*
X216569Y541407D01*
X217553Y540422D01*
X216569Y539438D01*
X215959Y537968D01*
Y536377D01*
X216569Y534907D01*
X217694Y533781D01*
X219164Y533172D01*
X220755D01*
X222225Y533781D01*
X223351Y534907D01*
X223960Y536377D01*
Y537968D01*
X223351Y539438D01*
X222366Y540422D01*
X223351Y541407D01*
X223960Y542877D01*
Y544468D01*
X223351Y545938D01*
X222225Y547063D01*
X220755Y547672D01*
D02*
G37*
G36*
X186355D02*
X184764D01*
X183294Y547063D01*
X182169Y545938D01*
X181560Y544468D01*
Y542877D01*
X182169Y541407D01*
X183153Y540422D01*
X182169Y539438D01*
X181560Y537968D01*
Y536377D01*
X182169Y534907D01*
X183294Y533781D01*
X184764Y533172D01*
X186355D01*
X187825Y533781D01*
X188951Y534907D01*
X189559Y536377D01*
Y537968D01*
X188951Y539438D01*
X187966Y540422D01*
X188951Y541407D01*
X189559Y542877D01*
Y544468D01*
X188951Y545938D01*
X187825Y547063D01*
X186355Y547672D01*
D02*
G37*
G36*
X259989Y531602D02*
X256329D01*
Y527943D01*
X257914Y528600D01*
X259332Y530017D01*
X259989Y531602D01*
D02*
G37*
G36*
X253790D02*
X250130D01*
X250787Y530017D01*
X252205Y528600D01*
X253790Y527943D01*
Y531602D01*
D02*
G37*
G36*
X288665Y525732D02*
X287074D01*
X285604Y525123D01*
X284558Y524077D01*
X150221D01*
X149175Y525123D01*
X147705Y525732D01*
X146114D01*
X144644Y525123D01*
X143518Y523998D01*
X142909Y522528D01*
Y520937D01*
X143518Y519467D01*
X144644Y518341D01*
X146114Y517732D01*
X147705D01*
X149175Y518341D01*
X150221Y519387D01*
X284558D01*
X285604Y518341D01*
X287074Y517732D01*
X288665D01*
X290135Y518341D01*
X291261Y519467D01*
X291870Y520937D01*
Y522528D01*
X291261Y523998D01*
X290135Y525123D01*
X288665Y525732D01*
D02*
G37*
G36*
X373752Y535581D02*
X373752Y535581D01*
X326045D01*
X325148Y535402D01*
X324387Y534894D01*
X324387Y534894D01*
X239228Y449735D01*
X238055Y450221D01*
Y462911D01*
X237580Y464059D01*
X236432Y464535D01*
X230688D01*
X229539Y464059D01*
X229064Y462911D01*
Y448433D01*
X229539Y447285D01*
X230688Y446810D01*
X234644D01*
X235130Y445636D01*
X223331Y433838D01*
X222254Y434557D01*
X222759Y435777D01*
Y437368D01*
X222150Y438838D01*
X221416Y439572D01*
X222150Y440306D01*
X222759Y441777D01*
Y443368D01*
X222150Y444838D01*
X221025Y445963D01*
X219555Y446572D01*
X217964D01*
X216494Y445963D01*
X215368Y444838D01*
X214760Y443368D01*
Y441777D01*
X215368Y440306D01*
X216103Y439572D01*
X215368Y438838D01*
X214760Y437368D01*
Y435777D01*
X215368Y434306D01*
X216494Y433181D01*
X217964Y432572D01*
X219555D01*
X220775Y433077D01*
X221494Y432001D01*
X206991Y417498D01*
X206483Y416737D01*
X206304Y415840D01*
X206304Y415840D01*
Y413724D01*
X205259Y412678D01*
X204650Y411208D01*
Y409617D01*
X205259Y408147D01*
X206384Y407021D01*
X207854Y406412D01*
X209445D01*
X210915Y407021D01*
X212041Y408147D01*
X212649Y409617D01*
Y411208D01*
X212041Y412678D01*
X210995Y413724D01*
Y414868D01*
X327017Y530891D01*
X365532D01*
X365784Y529621D01*
X365284Y529413D01*
X364238Y528367D01*
X327710D01*
X326812Y528189D01*
X326051Y527681D01*
X326051Y527680D01*
X217026Y418655D01*
X216518Y417894D01*
X216339Y416997D01*
X216339Y416997D01*
Y413806D01*
X216334Y413803D01*
X215208Y412678D01*
X214599Y411208D01*
Y409617D01*
X215208Y408147D01*
X216334Y407021D01*
X217804Y406412D01*
X219395D01*
X220865Y407021D01*
X221991Y408147D01*
X222600Y409617D01*
Y411208D01*
X221991Y412678D01*
X221029Y413639D01*
Y416025D01*
X328681Y523677D01*
X344233D01*
X344912Y522407D01*
X344838Y522297D01*
X330660D01*
X330659Y522297D01*
X329762Y522119D01*
X329001Y521610D01*
X298871Y491480D01*
X298363Y490720D01*
X298184Y489822D01*
X298185Y489822D01*
Y376562D01*
X298184Y376562D01*
X298363Y375665D01*
X298871Y374904D01*
X346725Y327051D01*
Y292231D01*
X346211Y291717D01*
X343054D01*
X342105Y292987D01*
X342128Y293102D01*
X336650D01*
Y295642D01*
X342128D01*
X341941Y296580D01*
X341746Y296872D01*
X341941Y297165D01*
X342128Y298102D01*
X336650D01*
Y300642D01*
X342128D01*
X341941Y301580D01*
X341187Y302709D01*
X341012Y302826D01*
X341146Y303497D01*
Y305247D01*
X340962Y306174D01*
X340437Y306959D01*
X339651Y307484D01*
X338994Y307615D01*
Y330382D01*
X338995Y330382D01*
X338816Y331280D01*
X338308Y332040D01*
X338308Y332041D01*
X294925Y375424D01*
Y416372D01*
X294925Y416372D01*
X294746Y417270D01*
X294238Y418031D01*
X294238Y418031D01*
X291768Y420500D01*
X291007Y421009D01*
X290110Y421187D01*
X290109Y421187D01*
X270310D01*
X270310Y421187D01*
X269412Y421009D01*
X268651Y420500D01*
X266088Y417937D01*
X265580Y417176D01*
X265401Y416279D01*
X265401Y416279D01*
Y412594D01*
X264355Y411548D01*
X264230Y411246D01*
X262855D01*
X262731Y411548D01*
X261605Y412673D01*
X260135Y413282D01*
X258544D01*
X257074Y412673D01*
X255949Y411548D01*
X255340Y410078D01*
Y408487D01*
X255949Y407016D01*
X256994Y405970D01*
Y375642D01*
X256994Y375642D01*
X257173Y374745D01*
X257681Y373984D01*
X317674Y313991D01*
Y309985D01*
X317412Y309809D01*
X316887Y309024D01*
X315530Y308708D01*
X315424Y308729D01*
X314620D01*
Y304372D01*
X313349D01*
Y303102D01*
X307871D01*
X308058Y302165D01*
X308253Y301872D01*
X308058Y301580D01*
X307871Y300642D01*
X313349D01*
Y298102D01*
X307871D01*
X308058Y297165D01*
X308253Y296872D01*
X308058Y296580D01*
X307871Y295642D01*
X313349D01*
Y293102D01*
X307468D01*
X307139Y292701D01*
X305778D01*
X305742Y292754D01*
X304772Y293402D01*
X303629Y293630D01*
X301091D01*
X299947Y293402D01*
X299629Y293190D01*
X297979Y293373D01*
X297892Y293504D01*
X296578Y294382D01*
X295030Y294690D01*
Y289072D01*
Y283455D01*
X296578Y283763D01*
X297211Y284186D01*
X298481Y283507D01*
Y280951D01*
X202700D01*
Y372572D01*
X202622Y372966D01*
Y373368D01*
X202468Y373739D01*
X202390Y374133D01*
X202167Y374467D01*
X202013Y374838D01*
X201729Y375122D01*
X201506Y375456D01*
X201172Y375679D01*
X200888Y375963D01*
X200517Y376117D01*
X200183Y376340D01*
X199789Y376418D01*
X199418Y376572D01*
X199016D01*
X198622Y376651D01*
X198228Y376572D01*
X197826D01*
X197455Y376418D01*
X197061Y376340D01*
X196727Y376117D01*
X196356Y375963D01*
X196072Y375679D01*
X195738Y375456D01*
X195515Y375122D01*
X195231Y374838D01*
X195077Y374467D01*
X194854Y374133D01*
X194776Y373739D01*
X194622Y373368D01*
Y372966D01*
X194544Y372572D01*
Y276953D01*
X194544Y276953D01*
X194544Y276953D01*
Y188263D01*
X194544Y188262D01*
X194854Y186702D01*
X195738Y185378D01*
X198667Y182450D01*
X198667Y182450D01*
X199990Y181565D01*
X201551Y181255D01*
X275572D01*
X276112Y180715D01*
Y39502D01*
X275891D01*
Y30502D01*
X276112D01*
Y14941D01*
X276112Y14941D01*
X276423Y13381D01*
X277307Y12057D01*
X283676Y5688D01*
X284999Y4804D01*
X286560Y4494D01*
X286560Y4494D01*
X366820D01*
X366821Y4494D01*
X368381Y4804D01*
X369704Y5688D01*
X372633Y8617D01*
X372633Y8617D01*
X373517Y9941D01*
X373828Y11501D01*
Y12502D01*
X374049D01*
Y21502D01*
X366619D01*
X365450Y21502D01*
Y21502D01*
X365350D01*
Y21502D01*
X356749D01*
Y19347D01*
X354100D01*
Y21952D01*
X335400D01*
Y12651D01*
X315639D01*
Y15732D01*
X305250D01*
X294860D01*
Y12651D01*
X288249D01*
X284269Y16631D01*
Y29365D01*
X284590Y30502D01*
X285760Y30502D01*
X293190D01*
Y32657D01*
X295900D01*
Y30052D01*
X314599D01*
Y39952D01*
X307485D01*
Y51191D01*
X361268Y104974D01*
X361776Y105735D01*
X361955Y106632D01*
X361955Y106632D01*
Y341602D01*
X361776Y342500D01*
X361268Y343260D01*
X361268Y343260D01*
X336455Y368074D01*
Y474446D01*
X336455Y474446D01*
X336276Y475344D01*
X335768Y476104D01*
X333342Y478531D01*
X332581Y479039D01*
X331683Y479217D01*
X331683Y479217D01*
X323371D01*
X322325Y480263D01*
X320855Y480872D01*
X319264D01*
X317794Y480263D01*
X316668Y479138D01*
X316059Y477668D01*
Y476077D01*
X316668Y474606D01*
X317794Y473481D01*
X319059Y472957D01*
X319087Y472794D01*
Y471850D01*
X319059Y471687D01*
X317794Y471163D01*
X316668Y470038D01*
X316059Y468568D01*
Y466977D01*
X316668Y465507D01*
X317794Y464381D01*
X319264Y463772D01*
X320855D01*
X322325Y464381D01*
X323451Y465507D01*
X324059Y466977D01*
Y468568D01*
X323451Y470038D01*
X322325Y471163D01*
X321060Y471687D01*
X321032Y471850D01*
Y472794D01*
X321060Y472957D01*
X322325Y473481D01*
X323371Y474527D01*
X330712D01*
X331764Y473475D01*
Y367102D01*
X331764Y367102D01*
X331943Y366205D01*
X332451Y365444D01*
X357265Y340631D01*
Y107604D01*
X303481Y53821D01*
X302973Y53060D01*
X302794Y52162D01*
X302794Y52162D01*
Y39952D01*
X295900D01*
Y37347D01*
X293190D01*
Y39502D01*
X285760D01*
X284590Y39502D01*
X284269Y40639D01*
Y182404D01*
X283958Y183965D01*
X283074Y185288D01*
X283074Y185288D01*
X280145Y188217D01*
X278822Y189101D01*
X277262Y189412D01*
X277261Y189412D01*
X203240D01*
X202700Y189952D01*
Y272794D01*
X302560D01*
X302668Y272815D01*
X302776Y272794D01*
X302776Y272794D01*
X324761D01*
X325439Y271524D01*
X325150Y271091D01*
X324842Y269542D01*
X330460D01*
X336077D01*
X335769Y271091D01*
X334891Y272404D01*
X334760Y272492D01*
X334577Y274142D01*
X334789Y274460D01*
X335017Y275603D01*
Y278141D01*
X334789Y279285D01*
X334538Y279661D01*
Y283972D01*
X334366Y284838D01*
X334382Y284933D01*
X335250Y286043D01*
X335316Y286076D01*
X338725D01*
X339651Y286260D01*
X340437Y286785D01*
X340599Y287027D01*
X347182D01*
X347182Y287027D01*
X348080Y287206D01*
X348840Y287714D01*
X350728Y289601D01*
X351236Y290362D01*
X351415Y291259D01*
X351415Y291260D01*
Y328022D01*
X351415Y328022D01*
X351236Y328920D01*
X350728Y329680D01*
X350728Y329680D01*
X302875Y377534D01*
Y488851D01*
X319367Y505343D01*
X320444Y504624D01*
X320109Y503817D01*
Y501927D01*
X320833Y500182D01*
X322169Y498845D01*
X323915Y498122D01*
X325804D01*
X327550Y498845D01*
X328886Y500182D01*
X329030Y500527D01*
X331548D01*
X332594Y499481D01*
X334064Y498872D01*
X335655D01*
X337125Y499481D01*
X338251Y500606D01*
X338859Y502077D01*
Y503668D01*
X338251Y505138D01*
X337125Y506263D01*
X335655Y506872D01*
X334064D01*
X332594Y506263D01*
X331548Y505217D01*
X329030D01*
X328886Y505563D01*
X327550Y506899D01*
X325804Y507622D01*
X323915D01*
X323108Y507288D01*
X322388Y508365D01*
X331631Y517607D01*
X346058D01*
X347104Y516561D01*
X348574Y515952D01*
X350165D01*
X351635Y516561D01*
X352761Y517686D01*
X353369Y519157D01*
Y520748D01*
X352761Y522218D01*
X352571Y522407D01*
X353097Y523677D01*
X364238D01*
X365284Y522631D01*
X366754Y522022D01*
X368345D01*
X369815Y522631D01*
X370941Y523756D01*
X371092Y524123D01*
X372467D01*
X372618Y523756D01*
X373744Y522631D01*
X375214Y522022D01*
X376805D01*
X378275Y522631D01*
X379400Y523756D01*
X380009Y525227D01*
Y526818D01*
X379400Y528288D01*
X378350Y529339D01*
Y530983D01*
X378350Y530983D01*
X378171Y531881D01*
X377663Y532641D01*
X375410Y534894D01*
X374649Y535402D01*
X373752Y535581D01*
D02*
G37*
G36*
X639330Y525213D02*
Y520742D01*
X643801D01*
X642968Y522752D01*
X641339Y524381D01*
X639330Y525213D01*
D02*
G37*
G36*
X636790Y525213D02*
X634780Y524381D01*
X633151Y522752D01*
X632318Y520742D01*
X636790D01*
Y525213D01*
D02*
G37*
G36*
X71104Y524222D02*
X69215D01*
X67469Y523499D01*
X66133Y522163D01*
X65409Y520417D01*
Y518527D01*
X66133Y516782D01*
X67469Y515445D01*
X69215Y514722D01*
X71104D01*
X72850Y515445D01*
X74186Y516782D01*
X74330Y517127D01*
X76848D01*
X77894Y516081D01*
X79364Y515472D01*
X80955D01*
X82425Y516081D01*
X83551Y517206D01*
X84159Y518677D01*
Y520268D01*
X83551Y521738D01*
X82425Y522863D01*
X80955Y523472D01*
X79364D01*
X77894Y522863D01*
X76848Y521817D01*
X74330D01*
X74186Y522163D01*
X72850Y523499D01*
X71104Y524222D01*
D02*
G37*
G36*
X46704D02*
X44815D01*
X43069Y523499D01*
X41733Y522163D01*
X41009Y520417D01*
Y518527D01*
X41733Y516782D01*
X43069Y515445D01*
X44815Y514722D01*
X46704D01*
X48450Y515445D01*
X49786Y516782D01*
X49929Y517127D01*
X52448D01*
X53494Y516081D01*
X54964Y515472D01*
X56555D01*
X58025Y516081D01*
X59151Y517206D01*
X59759Y518677D01*
Y520268D01*
X59151Y521738D01*
X58025Y522863D01*
X56555Y523472D01*
X54964D01*
X53494Y522863D01*
X52448Y521817D01*
X49929D01*
X49786Y522163D01*
X48450Y523499D01*
X46704Y524222D01*
D02*
G37*
G36*
X22304D02*
X20415D01*
X18669Y523499D01*
X17333Y522163D01*
X16609Y520417D01*
Y518527D01*
X17333Y516782D01*
X18669Y515445D01*
X20415Y514722D01*
X22304D01*
X24050Y515445D01*
X25386Y516782D01*
X25529Y517127D01*
X28048D01*
X29094Y516081D01*
X30564Y515472D01*
X32155D01*
X33625Y516081D01*
X34751Y517206D01*
X35359Y518677D01*
Y520268D01*
X34751Y521738D01*
X33625Y522863D01*
X32155Y523472D01*
X30564D01*
X29094Y522863D01*
X28048Y521817D01*
X25529D01*
X25386Y522163D01*
X24050Y523499D01*
X22304Y524222D01*
D02*
G37*
G36*
X614604D02*
X612715D01*
X610969Y523499D01*
X609633Y522163D01*
X608909Y520417D01*
Y518527D01*
X609633Y516782D01*
X610969Y515445D01*
X612715Y514722D01*
X614604D01*
X616226Y515394D01*
X623660D01*
X624053Y515472D01*
X624455D01*
X624826Y515626D01*
X625220Y515704D01*
X625554Y515928D01*
X625925Y516081D01*
X626209Y516365D01*
X626543Y516588D01*
X626767Y516922D01*
X627051Y517206D01*
X627204Y517578D01*
X627427Y517911D01*
X627506Y518306D01*
X627659Y518677D01*
Y519078D01*
X627738Y519472D01*
X627659Y519866D01*
Y520268D01*
X627506Y520639D01*
X627427Y521033D01*
X627204Y521367D01*
X627051Y521738D01*
X626767Y522022D01*
X626543Y522356D01*
X626209Y522579D01*
X625925Y522863D01*
X625554Y523017D01*
X625220Y523240D01*
X624826Y523318D01*
X624455Y523472D01*
X624053D01*
X623660Y523551D01*
X616226D01*
X614604Y524222D01*
D02*
G37*
G36*
X643801Y518202D02*
X639330D01*
Y513731D01*
X641339Y514564D01*
X642968Y516193D01*
X643801Y518202D01*
D02*
G37*
G36*
X636790D02*
X632318D01*
X633151Y516193D01*
X634780Y514564D01*
X636790Y513731D01*
Y518202D01*
D02*
G37*
G36*
X347271Y507622D02*
X345381D01*
X343635Y506899D01*
X342299Y505563D01*
X341576Y503817D01*
Y501927D01*
X342299Y500182D01*
X343635Y498845D01*
X345381Y498122D01*
X347271D01*
X349017Y498845D01*
X350353Y500182D01*
X350496Y500527D01*
X353014D01*
X354060Y499481D01*
X355531Y498872D01*
X357122D01*
X358592Y499481D01*
X359717Y500606D01*
X360326Y502077D01*
Y503668D01*
X359717Y505138D01*
X358592Y506263D01*
X357122Y506872D01*
X355531D01*
X354060Y506263D01*
X353014Y505217D01*
X350496D01*
X350353Y505563D01*
X349017Y506899D01*
X347271Y507622D01*
D02*
G37*
G36*
X368738D02*
X366848D01*
X365102Y506899D01*
X363766Y505563D01*
X363043Y503817D01*
Y501927D01*
X363766Y500182D01*
X365102Y498845D01*
X366848Y498122D01*
X368738D01*
X370484Y498845D01*
X371820Y500182D01*
X371942Y500477D01*
X375098D01*
X376144Y499431D01*
X377614Y498822D01*
X379205D01*
X380675Y499431D01*
X381801Y500556D01*
X382410Y502027D01*
Y503618D01*
X381801Y505088D01*
X380675Y506213D01*
X379205Y506822D01*
X377614D01*
X376144Y506213D01*
X375098Y505167D01*
X371984D01*
X371820Y505563D01*
X370484Y506899D01*
X368738Y507622D01*
D02*
G37*
G36*
X120815Y505332D02*
X119224D01*
X117754Y504723D01*
X116629Y503598D01*
X116019Y502128D01*
Y500537D01*
X116629Y499067D01*
X117754Y497941D01*
X119224Y497332D01*
X120815D01*
X122285Y497941D01*
X123411Y499067D01*
X124019Y500537D01*
Y502128D01*
X123411Y503598D01*
X122285Y504723D01*
X120815Y505332D01*
D02*
G37*
G36*
X411755Y484372D02*
X410164D01*
X408694Y483763D01*
X407569Y482638D01*
X406959Y481168D01*
Y479577D01*
X407569Y478106D01*
X408694Y476981D01*
X410164Y476372D01*
X411755D01*
X413225Y476981D01*
X414351Y478106D01*
X414959Y479577D01*
Y481168D01*
X414351Y482638D01*
X413225Y483763D01*
X411755Y484372D01*
D02*
G37*
G36*
X631124Y492872D02*
X627874D01*
X624687Y492238D01*
X621684Y490994D01*
X618981Y489189D01*
X616683Y486891D01*
X614877Y484188D01*
X613633Y481185D01*
X612999Y477998D01*
Y474747D01*
X613633Y471560D01*
X614877Y468557D01*
X616683Y465854D01*
X618981Y463556D01*
X621684Y461750D01*
X624687Y460507D01*
X627874Y459872D01*
X631124D01*
X634312Y460507D01*
X637315Y461750D01*
X640017Y463556D01*
X642316Y465854D01*
X644121Y468557D01*
X645365Y471560D01*
X645999Y474747D01*
Y477998D01*
X645365Y481185D01*
X644121Y484188D01*
X642316Y486891D01*
X640017Y489189D01*
X637315Y490994D01*
X634312Y492238D01*
X631124Y492872D01*
D02*
G37*
G36*
X22124D02*
X18874D01*
X15687Y492238D01*
X12684Y490994D01*
X9981Y489189D01*
X7683Y486891D01*
X5877Y484188D01*
X4633Y481185D01*
X3999Y477998D01*
Y474747D01*
X4633Y471560D01*
X5877Y468557D01*
X7683Y465854D01*
X9981Y463556D01*
X12684Y461750D01*
X15687Y460507D01*
X18874Y459872D01*
X22124D01*
X25312Y460507D01*
X28315Y461750D01*
X31017Y463556D01*
X33316Y465854D01*
X35121Y468557D01*
X36365Y471560D01*
X36999Y474747D01*
Y477998D01*
X36365Y481185D01*
X35121Y484188D01*
X33316Y486891D01*
X31017Y489189D01*
X28315Y490994D01*
X25312Y492238D01*
X22124Y492872D01*
D02*
G37*
G36*
X322030Y452819D02*
Y450242D01*
X324606D01*
X324184Y451261D01*
X323048Y452397D01*
X322030Y452819D01*
D02*
G37*
G36*
X319490Y452819D02*
X318471Y452397D01*
X317335Y451261D01*
X316913Y450242D01*
X319490D01*
Y452819D01*
D02*
G37*
G36*
X123630Y452901D02*
Y449242D01*
X127289D01*
X126632Y450827D01*
X125215Y452245D01*
X123630Y452901D01*
D02*
G37*
G36*
X121089D02*
X119505Y452245D01*
X118087Y450827D01*
X117430Y449242D01*
X121089D01*
Y452901D01*
D02*
G37*
G36*
X67005Y449472D02*
X65414D01*
X63944Y448863D01*
X62959Y447879D01*
X61975Y448863D01*
X60505Y449472D01*
X58914D01*
X57444Y448863D01*
X56318Y447738D01*
X55710Y446268D01*
Y444677D01*
X56318Y443206D01*
X57444Y442081D01*
X58914Y441472D01*
X60505D01*
X61975Y442081D01*
X62959Y443065D01*
X63944Y442081D01*
X65414Y441472D01*
X67005D01*
X68475Y442081D01*
X69601Y443206D01*
X70209Y444677D01*
Y446268D01*
X69601Y447738D01*
X68475Y448863D01*
X67005Y449472D01*
D02*
G37*
G36*
X127289Y446702D02*
X123630D01*
Y443043D01*
X125215Y443700D01*
X126632Y445117D01*
X127289Y446702D01*
D02*
G37*
G36*
X121089D02*
X117430D01*
X118087Y445117D01*
X119505Y443700D01*
X121089Y443043D01*
Y446702D01*
D02*
G37*
G36*
X324606Y447702D02*
X320760D01*
X316913D01*
X317335Y446684D01*
X317966Y446052D01*
X318329Y445222D01*
X317966Y444393D01*
X317335Y443761D01*
X316913Y442742D01*
X320760D01*
X324606D01*
X324184Y443761D01*
X323553Y444393D01*
X323190Y445222D01*
X323553Y446052D01*
X324184Y446684D01*
X324606Y447702D01*
D02*
G37*
G36*
X324606Y440202D02*
X320760D01*
X316913D01*
X317335Y439184D01*
X317966Y438552D01*
X318329Y437722D01*
X317966Y436893D01*
X317335Y436261D01*
X316913Y435242D01*
X320760D01*
X324606D01*
X324184Y436261D01*
X323553Y436893D01*
X323190Y437722D01*
X323553Y438552D01*
X324184Y439184D01*
X324606Y440202D01*
D02*
G37*
G36*
X324606Y432702D02*
X322030D01*
Y430126D01*
X323048Y430547D01*
X324184Y431684D01*
X324606Y432702D01*
D02*
G37*
G36*
X319490D02*
X316913D01*
X317335Y431684D01*
X318471Y430547D01*
X319490Y430125D01*
Y432702D01*
D02*
G37*
G36*
X550532Y444235D02*
X544787D01*
X543639Y443759D01*
X543164Y442611D01*
Y428133D01*
X543639Y426985D01*
X544787Y426510D01*
X550532D01*
X551680Y426985D01*
X552155Y428133D01*
Y442611D01*
X551680Y443759D01*
X550532Y444235D01*
D02*
G37*
G36*
X373222Y442986D02*
X346297D01*
X345149Y442510D01*
X344674Y441362D01*
Y423582D01*
X345149Y422434D01*
X346297Y421959D01*
X373222D01*
X374370Y422434D01*
X374845Y423582D01*
Y441362D01*
X374370Y442510D01*
X373222Y442986D01*
D02*
G37*
G36*
X323632Y420854D02*
X317887D01*
X316739Y420378D01*
X316264Y419230D01*
Y404752D01*
X316739Y403604D01*
X317887Y403129D01*
X323632D01*
X324780Y403604D01*
X325255Y404752D01*
Y419230D01*
X324780Y420378D01*
X323632Y420854D01*
D02*
G37*
G36*
X367255Y398672D02*
X365664D01*
X364194Y398063D01*
X363069Y396938D01*
X362459Y395468D01*
Y393877D01*
X363069Y392407D01*
X363803Y391672D01*
X363069Y390938D01*
X362459Y389468D01*
Y387877D01*
X363069Y386407D01*
X364194Y385281D01*
X365664Y384672D01*
X367255D01*
X368725Y385281D01*
X369851Y386407D01*
X370460Y387877D01*
Y389468D01*
X369851Y390938D01*
X369116Y391672D01*
X369851Y392407D01*
X370460Y393877D01*
Y395468D01*
X369851Y396938D01*
X368725Y398063D01*
X367255Y398672D01*
D02*
G37*
G36*
X537355Y366238D02*
X535764D01*
X534294Y365629D01*
X533559Y364894D01*
X532825Y365629D01*
X531355Y366238D01*
X529764D01*
X528294Y365629D01*
X527169Y364503D01*
X526559Y363033D01*
Y361442D01*
X527169Y359972D01*
X528294Y358847D01*
X529764Y358238D01*
X531355D01*
X532825Y358847D01*
X533559Y359581D01*
X534294Y358847D01*
X535764Y358238D01*
X537355D01*
X538825Y358847D01*
X539950Y359972D01*
X540560Y361442D01*
Y363033D01*
X539950Y364503D01*
X538825Y365629D01*
X537355Y366238D01*
D02*
G37*
G36*
X312080Y308729D02*
X311275D01*
X309942Y308464D01*
X308812Y307709D01*
X308058Y306580D01*
X307871Y305642D01*
X312080D01*
Y308729D01*
D02*
G37*
G36*
X292490Y294690D02*
X290941Y294382D01*
X289628Y293504D01*
X288750Y292191D01*
X288442Y290641D01*
Y290342D01*
X292490D01*
Y294690D01*
D02*
G37*
G36*
Y287802D02*
X288442D01*
Y287503D01*
X288750Y285954D01*
X289628Y284640D01*
X290941Y283763D01*
X292490Y283455D01*
Y287802D01*
D02*
G37*
G36*
X336077Y267002D02*
X331730D01*
Y262955D01*
X332029D01*
X333578Y263263D01*
X334891Y264140D01*
X335769Y265454D01*
X336077Y267002D01*
D02*
G37*
G36*
X329189D02*
X324842D01*
X325150Y265454D01*
X326027Y264140D01*
X327341Y263263D01*
X328890Y262955D01*
X329189D01*
Y267002D01*
D02*
G37*
G36*
X457155Y566072D02*
X455564D01*
X454094Y565463D01*
X452968Y564338D01*
X452360Y562868D01*
Y561277D01*
X452968Y559806D01*
X454094Y558681D01*
X455564Y558072D01*
X457155D01*
X458625Y558681D01*
X458880Y558936D01*
X507101Y510714D01*
X507862Y510206D01*
X508760Y510027D01*
X508760Y510027D01*
X554114D01*
Y155517D01*
X449459D01*
X448562Y155339D01*
X447801Y154831D01*
X349288Y56317D01*
X323571D01*
X322525Y57363D01*
X321055Y57972D01*
X319464D01*
X317994Y57363D01*
X316868Y56238D01*
X316259Y54768D01*
Y53177D01*
X316868Y51706D01*
X317994Y50581D01*
X319464Y49972D01*
X321055D01*
X322525Y50581D01*
X323571Y51627D01*
X350259D01*
X350260Y51627D01*
X351157Y51806D01*
X351918Y52314D01*
X450431Y150827D01*
X555522D01*
X555522Y150827D01*
X556420Y151006D01*
X557180Y151514D01*
X558118Y152451D01*
X558118Y152451D01*
X558626Y153212D01*
X558805Y154109D01*
Y511435D01*
X558626Y512332D01*
X558118Y513093D01*
X558118Y513093D01*
X557180Y514030D01*
X556420Y514539D01*
X555522Y514717D01*
X555522Y514717D01*
X509731D01*
X461233Y563216D01*
X460472Y563724D01*
X459963Y563825D01*
X459751Y564338D01*
X458625Y565463D01*
X457155Y566072D01*
D02*
G37*
G36*
X64029Y117201D02*
Y113542D01*
X67689D01*
X67032Y115127D01*
X65614Y116545D01*
X64029Y117201D01*
D02*
G37*
G36*
X61490D02*
X59905Y116545D01*
X58487Y115127D01*
X57830Y113542D01*
X61490D01*
Y117201D01*
D02*
G37*
G36*
X67689Y111002D02*
X64029D01*
Y107343D01*
X65614Y108000D01*
X67032Y109417D01*
X67689Y111002D01*
D02*
G37*
G36*
X61490D02*
X57830D01*
X58487Y109417D01*
X59905Y108000D01*
X61490Y107343D01*
Y111002D01*
D02*
G37*
G36*
X631124Y133872D02*
X627874D01*
X624687Y133238D01*
X621684Y131994D01*
X618981Y130189D01*
X616683Y127891D01*
X614877Y125188D01*
X613633Y122185D01*
X612999Y118997D01*
Y115747D01*
X613633Y112559D01*
X614877Y109557D01*
X616683Y106854D01*
X618981Y104556D01*
X621684Y102750D01*
X624687Y101507D01*
X627874Y100872D01*
X631124D01*
X634312Y101507D01*
X637315Y102750D01*
X640017Y104556D01*
X642316Y106854D01*
X644121Y109557D01*
X645365Y112559D01*
X645999Y115747D01*
Y118997D01*
X645365Y122185D01*
X644121Y125188D01*
X642316Y127891D01*
X640017Y130189D01*
X637315Y131994D01*
X634312Y133238D01*
X631124Y133872D01*
D02*
G37*
G36*
X22124D02*
X18874D01*
X15687Y133238D01*
X12684Y131994D01*
X9981Y130189D01*
X7683Y127891D01*
X5877Y125188D01*
X4633Y122185D01*
X3999Y118997D01*
Y115747D01*
X4633Y112559D01*
X5877Y109557D01*
X7683Y106854D01*
X9981Y104556D01*
X12684Y102750D01*
X15687Y101507D01*
X18874Y100872D01*
X22124D01*
X25312Y101507D01*
X28315Y102750D01*
X31017Y104556D01*
X33316Y106854D01*
X35121Y109557D01*
X36365Y112559D01*
X36999Y115747D01*
Y118997D01*
X36365Y122185D01*
X35121Y125188D01*
X33316Y127891D01*
X31017Y130189D01*
X28315Y131994D01*
X25312Y133238D01*
X22124Y133872D01*
D02*
G37*
G36*
X93980Y81013D02*
Y75272D01*
X91440D01*
Y81013D01*
X89430Y80181D01*
X87801Y78552D01*
X87673Y78527D01*
X86900Y79299D01*
X85154Y80022D01*
X83265D01*
X81519Y79299D01*
X80789Y78569D01*
X79960Y78092D01*
X79130Y78569D01*
X78400Y79299D01*
X76654Y80022D01*
X74765D01*
X73019Y79299D01*
X72289Y78569D01*
X71459Y78092D01*
X70630Y78569D01*
X69900Y79299D01*
X68154Y80022D01*
X66265D01*
X64519Y79299D01*
X63789Y78569D01*
X62959Y78092D01*
X62130Y78569D01*
X61400Y79299D01*
X59654Y80022D01*
X57765D01*
X56019Y79299D01*
X55289Y78569D01*
X54460Y78092D01*
X53630Y78569D01*
X52900Y79299D01*
X51154Y80022D01*
X49265D01*
X47519Y79299D01*
X46789Y78569D01*
X45960Y78092D01*
X45130Y78569D01*
X44400Y79299D01*
X42654Y80022D01*
X40765D01*
X39019Y79299D01*
X38246Y78527D01*
X38118Y78552D01*
X36489Y80181D01*
X34479Y81013D01*
Y75272D01*
X31939D01*
Y81013D01*
X29930Y80181D01*
X28301Y78552D01*
X27420Y76424D01*
Y76074D01*
X26149Y75821D01*
X25859Y76523D01*
X24731Y77993D01*
X23260Y79122D01*
X21547Y79831D01*
X20979Y79906D01*
Y65472D01*
Y51039D01*
X21547Y51114D01*
X23260Y51823D01*
X24731Y52951D01*
X25859Y54422D01*
X26568Y56134D01*
X26810Y57972D01*
Y58773D01*
X28080Y59025D01*
X28301Y58492D01*
X29930Y56864D01*
X31939Y56031D01*
Y61772D01*
X34479D01*
Y56031D01*
X36361Y56811D01*
X37631Y56346D01*
Y54051D01*
X37631Y54051D01*
X37942Y52491D01*
X38826Y51167D01*
X41755Y48239D01*
X41755Y48239D01*
X43078Y47354D01*
X44639Y47044D01*
X81280D01*
X81281Y47044D01*
X82841Y47354D01*
X84164Y48239D01*
X87093Y51167D01*
X87093Y51167D01*
X87977Y52491D01*
X88288Y54051D01*
Y56346D01*
X89558Y56811D01*
X91440Y56031D01*
Y61772D01*
X93980D01*
Y56031D01*
X95989Y56864D01*
X97618Y58492D01*
X97839Y59025D01*
X99109Y58773D01*
Y57972D01*
X99351Y56134D01*
X100060Y54422D01*
X101188Y52951D01*
X102659Y51823D01*
X104372Y51114D01*
X104939Y51039D01*
Y65472D01*
Y79906D01*
X104372Y79831D01*
X102659Y79122D01*
X101188Y77993D01*
X100060Y76523D01*
X99769Y75821D01*
X98499Y76074D01*
Y76424D01*
X97618Y78552D01*
X95989Y80181D01*
X93980Y81013D01*
D02*
G37*
G36*
X528555Y76872D02*
X526964D01*
X525494Y76263D01*
X524369Y75138D01*
X523759Y73668D01*
Y72077D01*
X524369Y70606D01*
X525494Y69481D01*
X526964Y68872D01*
X528555D01*
X530025Y69481D01*
X531151Y70606D01*
X531759Y72077D01*
Y73668D01*
X531151Y75138D01*
X530025Y76263D01*
X528555Y76872D01*
D02*
G37*
G36*
X107479Y79906D02*
Y66742D01*
X113310D01*
Y72972D01*
X113068Y74810D01*
X112359Y76523D01*
X111230Y77993D01*
X109760Y79122D01*
X108047Y79831D01*
X107479Y79906D01*
D02*
G37*
G36*
X18440D02*
X17872Y79831D01*
X16159Y79122D01*
X14689Y77993D01*
X13560Y76523D01*
X12851Y74810D01*
X12609Y72972D01*
Y66742D01*
X18440D01*
Y79906D01*
D02*
G37*
G36*
X597381Y73687D02*
X597280D01*
Y64542D01*
X606424D01*
Y64643D01*
X605715Y67292D01*
X604344Y69667D01*
X602405Y71606D01*
X600029Y72977D01*
X597381Y73687D01*
D02*
G37*
G36*
X594740D02*
X594638D01*
X591990Y72977D01*
X589614Y71606D01*
X587675Y69667D01*
X586304Y67292D01*
X585594Y64643D01*
Y64542D01*
X594740D01*
Y73687D01*
D02*
G37*
G36*
X606424Y62002D02*
X597280D01*
Y52857D01*
X597381D01*
X600029Y53567D01*
X602405Y54938D01*
X604344Y56877D01*
X605715Y59252D01*
X606424Y61901D01*
Y62002D01*
D02*
G37*
G36*
X594740D02*
X585594D01*
Y61901D01*
X586304Y59252D01*
X587675Y56877D01*
X589614Y54938D01*
X591990Y53567D01*
X594638Y52857D01*
X594740D01*
Y62002D01*
D02*
G37*
G36*
X18440Y64202D02*
X12609D01*
Y57972D01*
X12851Y56134D01*
X13560Y54422D01*
X14689Y52951D01*
X16159Y51823D01*
X17872Y51114D01*
X18440Y51039D01*
Y64202D01*
D02*
G37*
G36*
X113310D02*
X107479D01*
Y51039D01*
X108047Y51114D01*
X109760Y51823D01*
X111230Y52951D01*
X112359Y54422D01*
X113068Y56134D01*
X113310Y57972D01*
Y64202D01*
D02*
G37*
G36*
X175555Y57972D02*
X173964D01*
X172494Y57363D01*
X171369Y56238D01*
X170760Y54768D01*
Y53177D01*
X171369Y51706D01*
X172494Y50581D01*
X173964Y49972D01*
X175555D01*
X177025Y50581D01*
X178151Y51706D01*
X178759Y53177D01*
Y54768D01*
X178151Y56238D01*
X177025Y57363D01*
X175555Y57972D01*
D02*
G37*
G36*
X355140Y40992D02*
X346020D01*
Y36272D01*
X355140D01*
Y40992D01*
D02*
G37*
G36*
X343479D02*
X334360D01*
Y36272D01*
X343479D01*
Y40992D01*
D02*
G37*
G36*
X107479Y42606D02*
Y32942D01*
X113310D01*
Y35672D01*
X113068Y37510D01*
X112359Y39223D01*
X111230Y40693D01*
X109760Y41822D01*
X108047Y42531D01*
X107479Y42606D01*
D02*
G37*
G36*
X20979D02*
Y32942D01*
X26810D01*
Y35672D01*
X26568Y37510D01*
X25859Y39223D01*
X24731Y40693D01*
X23260Y41822D01*
X21547Y42531D01*
X20979Y42606D01*
D02*
G37*
G36*
X104939D02*
X104372Y42531D01*
X102659Y41822D01*
X101188Y40693D01*
X100060Y39223D01*
X99351Y37510D01*
X99109Y35672D01*
Y32942D01*
X104939D01*
Y42606D01*
D02*
G37*
G36*
X18440D02*
X17872Y42531D01*
X16159Y41822D01*
X14689Y40693D01*
X13560Y39223D01*
X12851Y37510D01*
X12609Y35672D01*
Y32942D01*
X18440D01*
Y42606D01*
D02*
G37*
G36*
X355140Y33732D02*
X346020D01*
Y29012D01*
X355140D01*
Y33732D01*
D02*
G37*
G36*
X343479D02*
X334360D01*
Y29012D01*
X343479D01*
Y33732D01*
D02*
G37*
G36*
X605384Y47647D02*
X586634D01*
Y28897D01*
X605384D01*
Y47647D01*
D02*
G37*
G36*
X480722Y48186D02*
X453797D01*
X452649Y47710D01*
X452174Y46562D01*
Y28782D01*
X452649Y27634D01*
X453797Y27159D01*
X480722D01*
X481870Y27634D01*
X482345Y28782D01*
Y46562D01*
X481870Y47710D01*
X480722Y48186D01*
D02*
G37*
G36*
X113310Y30402D02*
X107479D01*
Y20739D01*
X108047Y20814D01*
X109760Y21523D01*
X111230Y22651D01*
X112359Y24122D01*
X113068Y25834D01*
X113310Y27672D01*
Y30402D01*
D02*
G37*
G36*
X26810D02*
X20979D01*
Y20739D01*
X21547Y20814D01*
X23260Y21523D01*
X24731Y22651D01*
X25859Y24122D01*
X26568Y25834D01*
X26810Y27672D01*
Y30402D01*
D02*
G37*
G36*
X104939D02*
X99109D01*
Y27672D01*
X99351Y25834D01*
X100060Y24122D01*
X101188Y22651D01*
X102659Y21523D01*
X104372Y20814D01*
X104939Y20739D01*
Y30402D01*
D02*
G37*
G36*
X18440D02*
X12609D01*
Y27672D01*
X12851Y25834D01*
X13560Y24122D01*
X14689Y22651D01*
X16159Y21523D01*
X17872Y20814D01*
X18440Y20739D01*
Y30402D01*
D02*
G37*
G36*
X315639Y22992D02*
X306520D01*
Y18272D01*
X315639D01*
Y22992D01*
D02*
G37*
G36*
X303979D02*
X294860D01*
Y18272D01*
X303979D01*
Y22992D01*
D02*
G37*
G36*
X183523Y28082D02*
X181136D01*
X178931Y27169D01*
X177243Y25481D01*
X176329Y23276D01*
Y20889D01*
X177243Y18684D01*
X178931Y16996D01*
X181136Y16082D01*
X183523D01*
X185728Y16996D01*
X187416Y18684D01*
X188330Y20889D01*
Y23276D01*
X187416Y25481D01*
X185728Y27169D01*
X183523Y28082D01*
D02*
G37*
G36*
X153523D02*
X151136D01*
X148931Y27169D01*
X147243Y25481D01*
X146329Y23276D01*
Y20889D01*
X147243Y18684D01*
X148931Y16996D01*
X151136Y16082D01*
X153523D01*
X155728Y16996D01*
X157416Y18684D01*
X158329Y20889D01*
Y23276D01*
X157416Y25481D01*
X155728Y27169D01*
X153523Y28082D01*
D02*
G37*
%LPD*%
D13*
X507023Y740219D02*
X507037D01*
D15*
X314359Y661222D02*
D03*
Y652522D02*
D03*
X298759D02*
D03*
Y661222D02*
D03*
X345560D02*
D03*
Y652522D02*
D03*
D16*
X369749Y17002D02*
D03*
X361049D02*
D03*
X288890Y35002D02*
D03*
X280190D02*
D03*
X361059Y950072D02*
D03*
X369759D02*
D03*
X288909Y967472D02*
D03*
X280210D02*
D03*
D17*
X330460Y268272D02*
D03*
X329959Y660072D02*
D03*
Y651472D02*
D03*
X330460Y276872D02*
D03*
D18*
X293759Y289072D02*
D03*
X302360D02*
D03*
D22*
X613660Y519472D02*
D03*
X589259D02*
D03*
X638060D02*
D03*
X45760D02*
D03*
X70160D02*
D03*
X21360D02*
D03*
X346326Y502872D02*
D03*
X389259D02*
D03*
X79660Y728572D02*
D03*
X324860Y502872D02*
D03*
X52359Y728572D02*
D03*
X367793Y502872D02*
D03*
X435460Y633872D02*
D03*
X414160Y652922D02*
D03*
X435460Y652772D02*
D03*
X414160Y633872D02*
D03*
X33210Y61772D02*
D03*
X92710D02*
D03*
Y75272D02*
D03*
X33210D02*
D03*
X41709D02*
D03*
X50209D02*
D03*
X58710D02*
D03*
X67210D02*
D03*
X75710D02*
D03*
X84209D02*
D03*
Y61772D02*
D03*
X75710D02*
D03*
X67210D02*
D03*
X58710D02*
D03*
X50209D02*
D03*
X41709D02*
D03*
D83*
X152330Y22082D02*
D03*
X182330D02*
D03*
D92*
X89559Y127591D02*
Y569972D01*
X186059Y666472D01*
Y634172D02*
Y643672D01*
Y634172D02*
X197059Y623172D01*
X232659Y672672D02*
X293659Y611672D01*
X175998Y672672D02*
X232659D01*
X59798Y788872D02*
X175998Y672672D01*
X179949Y678972D02*
X233759D01*
X139389Y719532D02*
X179949Y678972D01*
X233759D02*
X296059Y616672D01*
X197059Y623172D02*
X272959D01*
X239060Y696172D02*
Y763072D01*
X243860Y689384D02*
Y693361D01*
X241048Y696172D02*
X243860Y693361D01*
X239060Y696172D02*
X241048D01*
X242454Y687978D02*
X265459Y664972D01*
X242454Y687978D02*
X243860Y689384D01*
X325000Y619172D02*
X327500Y616672D01*
Y599822D02*
Y616672D01*
X325000Y619172D02*
X332500Y626672D01*
Y638522D01*
X337500D01*
X312500Y631672D02*
X325000Y619172D01*
X305650Y631672D02*
X312500D01*
X320000Y287722D02*
X325000D01*
X313349Y294372D02*
X319062D01*
X320000Y287722D02*
Y293435D01*
X319062Y294372D02*
X320000Y293435D01*
X239060Y763072D02*
X350460Y874472D01*
X344749Y940328D02*
X350460Y934617D01*
Y874472D02*
Y934617D01*
X350260Y53972D02*
X449459Y153172D01*
X320260Y53972D02*
X350260D01*
X449459Y153172D02*
X555522D01*
X454360Y144172D02*
X564822D01*
X377840Y67652D02*
X454360Y144172D01*
X377840Y53972D02*
Y67652D01*
X412739Y87032D02*
X460589Y134882D01*
X573622D01*
X574560Y135820D01*
X322500Y571310D02*
Y599822D01*
X363260Y570372D02*
X406479Y527152D01*
X322500Y571310D02*
X323437Y570372D01*
X363260D01*
X318437Y566772D02*
X357379D01*
X317500Y567710D02*
Y599822D01*
X357379Y566772D02*
X400460Y523692D01*
X317500Y567710D02*
X318437Y566772D01*
X218684Y410497D02*
Y416997D01*
X327710Y526022D02*
X367550D01*
X218684Y416997D02*
X327710Y526022D01*
X222597Y53972D02*
X262829D01*
X221660Y54910D02*
X222597Y53972D01*
X221660Y54910D02*
Y121172D01*
X21360Y519472D02*
X31360D01*
X267746Y416279D02*
X270310Y418842D01*
X290110D02*
X292579Y416372D01*
X270310Y418842D02*
X290110D01*
X292579Y374452D02*
X336650Y330382D01*
X292579Y374452D02*
Y416372D01*
X336650Y304372D02*
Y330382D01*
X267746Y409282D02*
Y416279D01*
X70160Y519472D02*
X80160D01*
X325000Y306022D02*
Y320672D01*
X276153Y369519D02*
X325000Y320672D01*
X276153Y369519D02*
Y409282D01*
X45760Y519472D02*
X55760D01*
X330000Y306022D02*
Y326042D01*
X284559Y371482D02*
X330000Y326042D01*
X284559Y371482D02*
Y409282D01*
X574560Y135820D02*
Y526175D01*
X513719Y527112D02*
X573622D01*
X582322Y125872D02*
X583260Y126810D01*
X555522Y512372D02*
X556460Y511435D01*
X573622Y527112D02*
X574560Y526175D01*
X565760Y145110D02*
Y518445D01*
X583260Y126810D02*
Y533735D01*
X555522Y153172D02*
X556460Y154109D01*
X516460Y534672D02*
X582322D01*
X564822Y144172D02*
X565760Y145110D01*
X511650Y519382D02*
X564822D01*
X466759Y125872D02*
X582322D01*
X556460Y154109D02*
Y511435D01*
X582322Y534672D02*
X583260Y533735D01*
X508760Y512372D02*
X555522D01*
X564822Y519382D02*
X565760Y518445D01*
X435460Y652772D02*
X445460D01*
X414160Y652922D02*
X424160D01*
X344350Y621672D02*
X365560D01*
X467630Y723742D02*
X482399D01*
X365560Y621672D02*
X467630Y723742D01*
X435460Y633872D02*
X445460D01*
X414160D02*
X424160D01*
X79660Y728572D02*
X89660D01*
X52359D02*
X62359D01*
X90497Y126654D02*
X216178D01*
X89559Y127591D02*
X90497Y126654D01*
X389259Y502872D02*
X399259D01*
X324860D02*
X334860D01*
X346326D02*
X356326D01*
X367843Y502822D02*
X378410D01*
X367793Y502872D02*
X367843Y502822D01*
X406479Y516822D02*
Y527152D01*
Y516822D02*
X416810Y506492D01*
X334109Y367102D02*
Y474446D01*
X331683Y476872D02*
X334109Y474446D01*
X320060Y476872D02*
X331683D01*
X334109Y367102D02*
X359609Y341602D01*
X216178Y126654D02*
X221660Y121172D01*
X344749Y17002D02*
X361049D01*
X332500Y575079D02*
Y599822D01*
X333437Y574142D02*
X456889D01*
X332500Y575079D02*
X333437Y574142D01*
X278430Y556742D02*
X292360Y570672D01*
X276350Y563962D02*
X292560Y580172D01*
X165609Y563962D02*
X276350D01*
X208650Y415840D02*
X326045Y533236D01*
X208650Y410372D02*
Y415840D01*
X326045Y533236D02*
X373752D01*
X428359Y87472D02*
X466759Y125872D01*
X456359Y562072D02*
X456874Y561558D01*
X459574D02*
X508760Y512372D01*
X456874Y561558D02*
X459574D01*
X462439Y588692D02*
X516460Y534672D01*
X360937Y595520D02*
X465612D01*
X508419Y552712D01*
X513209D01*
X355387Y588692D02*
X462439D01*
X360000Y596457D02*
X360937Y595520D01*
X360000Y596457D02*
Y610735D01*
X289259Y652522D02*
X289259Y652522D01*
X289259Y652522D02*
Y658572D01*
Y636972D02*
Y652522D01*
X289259Y652522D02*
X298759D01*
X289259Y658572D02*
X289459Y658772D01*
X275760Y591872D02*
X292560D01*
X168629Y556742D02*
X278430D01*
X191230Y599822D02*
X312500D01*
X133619Y542212D02*
X191230Y599822D01*
X269060Y585172D02*
X275760Y591872D01*
X187840Y606672D02*
X305650D01*
X133619Y552452D02*
X187840Y606672D01*
X337500Y582119D02*
X338437Y581182D01*
X337500Y582119D02*
Y599822D01*
X338437Y581182D02*
X459650D01*
X304219Y642432D02*
X304269D01*
X304060Y642272D02*
X304219Y642432D01*
X304269D02*
X312160Y650322D01*
X294960Y642272D02*
X304060D01*
X312160Y650322D02*
Y650522D01*
X314160Y652522D01*
X314359D01*
X290872Y635360D02*
X298850D01*
X302012Y638522D01*
X312500D01*
X289259Y636972D02*
X290872Y635360D01*
X314359Y648042D02*
Y652522D01*
X265459Y664972D02*
X279259D01*
X233459Y687622D02*
X299410Y621672D01*
X305650D01*
X233459Y687622D02*
Y817472D01*
X296059Y616672D02*
X305650D01*
X293659Y611672D02*
X305650D01*
X330460Y283972D02*
Y287262D01*
X330000Y287722D02*
X330460Y287262D01*
X352422Y661222D02*
X353359Y660285D01*
X345560Y661222D02*
X352422D01*
X351810Y645322D02*
X353359Y646872D01*
Y660285D01*
X328437Y645322D02*
X351810D01*
X345560Y661222D02*
Y671525D01*
X334689Y672462D02*
X344622D01*
X345560Y671525D01*
X317500Y638522D02*
Y644902D01*
X314359Y648042D02*
X317500Y644902D01*
X322500Y645313D02*
X322509Y645322D01*
X322500Y638522D02*
Y645313D01*
X327500Y644385D02*
X328437Y645322D01*
X327500Y638522D02*
Y644385D01*
X416559Y680980D02*
Y855532D01*
X359109Y631672D02*
X409459Y682022D01*
X344350Y626672D02*
X362251D01*
X409459Y682022D02*
Y901512D01*
X362251Y626672D02*
X416559Y680980D01*
X344350Y631672D02*
X359109D01*
X233459Y817472D02*
X271239Y855252D01*
X344749Y940328D02*
Y950002D01*
X305140Y52162D02*
X359609Y106632D01*
Y341602D01*
X305140Y35112D02*
Y52162D01*
X17199Y788872D02*
X59798D01*
X456889Y574142D02*
X511650Y519382D01*
X410000Y568302D02*
X451479Y526822D01*
X459650Y581182D02*
X513719Y527112D01*
X354450Y589630D02*
X355387Y588692D01*
X354450Y589630D02*
Y605735D01*
X133619Y531972D02*
X165609Y563962D01*
X133619Y521732D02*
X168629Y556742D01*
X288890Y35002D02*
X305250D01*
X305140Y35112D02*
X305250Y35002D01*
X259340Y375642D02*
Y409172D01*
X320019Y306042D02*
Y314962D01*
X259340Y375642D02*
X320019Y314962D01*
X300529Y376562D02*
X349070Y328022D01*
Y291259D02*
Y328022D01*
X300529Y376562D02*
Y489822D01*
X330659Y519952D02*
X349370D01*
X300529Y489822D02*
X330659Y519952D01*
X287869Y521732D02*
X288296D01*
X146910D02*
X287869D01*
X353512Y606672D02*
X354450Y605735D01*
X344350Y606672D02*
X353512D01*
X336650Y289372D02*
X347182D01*
X349070Y291259D01*
X320000Y306022D02*
X320019Y306042D01*
X373752Y533236D02*
X376004Y530983D01*
Y526027D02*
X376009Y526022D01*
X376004Y526027D02*
Y530983D01*
X400460Y510912D02*
Y523692D01*
Y510912D02*
X416810Y494562D01*
X218599Y410412D02*
X218684Y410497D01*
X359062Y611672D02*
X360000Y610735D01*
X409679Y559782D02*
X441180Y528282D01*
Y404782D02*
Y528282D01*
X451479Y411462D02*
Y526822D01*
X444420Y401542D02*
X457859D01*
X441180Y404782D02*
X444420Y401542D01*
X457859D02*
X461429Y405112D01*
Y411462D01*
X344350Y616672D02*
X477910D01*
X379850Y604322D02*
X507789D01*
X477910Y616672D02*
X523240Y662002D01*
X344350Y611672D02*
X359062D01*
X507789Y604322D02*
X517990Y594122D01*
X523240Y662002D02*
X632669D01*
X632799Y661872D01*
X595810Y594122D02*
X608509Y581422D01*
X517990Y594122D02*
X595810D01*
X416559Y855532D02*
X416600Y855572D01*
X388499Y922472D02*
X409459Y901512D01*
X360989Y950002D02*
X361059Y950072D01*
X344749Y950002D02*
X360989D01*
X304720Y967472D02*
X305250Y968002D01*
X288909Y967472D02*
X304720D01*
D93*
X613660Y519472D02*
X623660D01*
X589259D02*
X599259D01*
X322509Y651672D02*
Y657993D01*
Y645322D02*
Y651672D01*
X280190Y35002D02*
Y182404D01*
Y14941D02*
Y35002D01*
X41709Y54051D02*
Y75272D01*
Y54051D02*
X44639Y51122D01*
X81281D01*
X84209Y54051D02*
Y75272D01*
X81281Y51122D02*
X84209Y54051D01*
X302776Y276872D02*
X330460D01*
X198703D02*
X302560D01*
Y277089D02*
X302776Y276872D01*
X198622Y276953D02*
Y372572D01*
Y188262D02*
Y276953D01*
X198703Y276872D01*
X201551Y185333D02*
X277262D01*
X280190Y182404D01*
X198622Y188262D02*
X201551Y185333D01*
X302560Y288622D02*
Y288872D01*
Y277089D02*
Y288622D01*
X302360Y289072D02*
X302560Y288872D01*
Y288622D02*
X310000D01*
X286560Y8572D02*
X366821D01*
X369749Y11501D02*
Y17002D01*
X366821Y8572D02*
X369749Y11501D01*
X280190Y14941D02*
X286560Y8572D01*
X369759Y950072D02*
X393559D01*
X261500Y948562D02*
X280210Y967272D01*
Y967472D01*
X261500Y922472D02*
Y948562D01*
X330460Y276872D02*
Y283972D01*
X337460Y651672D02*
X338009Y652222D01*
X345260D02*
X345560Y652522D01*
X338009Y652222D02*
X345260D01*
X329959Y651472D02*
X330159Y651672D01*
X337460D01*
X314660Y660922D02*
X319580D01*
X322509Y657993D01*
X314359Y661222D02*
X314660Y660922D01*
X322509Y651672D02*
X329759D01*
X282409Y677372D02*
X298559Y661222D01*
X266560Y677372D02*
X282409D01*
X298559Y661222D02*
X298759D01*
X314359D01*
D97*
X106209Y65472D02*
D03*
X19710D02*
D03*
D98*
X106209Y31672D02*
D03*
X19710D02*
D03*
D99*
X17199Y687272D02*
D03*
X286900Y922472D02*
D03*
X632799Y763472D02*
D03*
Y738072D02*
D03*
Y712672D02*
D03*
Y687272D02*
D03*
Y661872D02*
D03*
X312299Y922472D02*
D03*
X337700D02*
D03*
X363100D02*
D03*
X388499D02*
D03*
X17199Y712672D02*
D03*
Y738072D02*
D03*
Y763472D02*
D03*
Y788872D02*
D03*
D100*
X205060Y859461D02*
D03*
X444939Y859462D02*
D03*
Y830662D02*
D03*
X205060Y830661D02*
D03*
D101*
X41490Y606822D02*
D03*
X608509D02*
D03*
X578489D02*
D03*
X71509D02*
D03*
D102*
X523859Y825242D02*
D03*
X502959Y804352D02*
D03*
D103*
X320760Y433972D02*
D03*
Y441472D02*
D03*
Y448972D02*
D03*
D104*
X126140Y825242D02*
D03*
X147040Y804352D02*
D03*
D105*
X596009Y63272D02*
D03*
D106*
Y38272D02*
D03*
D107*
X520920Y786392D02*
D03*
X108179Y807282D02*
D03*
X608509Y581422D02*
D03*
X541820Y807282D02*
D03*
X41490Y581422D02*
D03*
X470340Y859462D02*
D03*
X179660Y859461D02*
D03*
X578489Y581422D02*
D03*
X71509D02*
D03*
X470340Y830662D02*
D03*
X179660Y830661D02*
D03*
X129079Y786392D02*
D03*
D108*
X632799Y788872D02*
D03*
X17199Y661872D02*
D03*
D109*
X261500Y922472D02*
D03*
D110*
X20499Y476372D02*
D03*
X629499D02*
D03*
X20499Y117372D02*
D03*
X629499D02*
D03*
D111*
X232560Y643672D02*
D03*
X108259Y792172D02*
D03*
X186059Y666472D02*
D03*
Y643672D02*
D03*
X239060Y691372D02*
D03*
X267360Y614872D02*
D03*
X122360Y447972D02*
D03*
X255060Y532872D02*
D03*
X534851Y793350D02*
D03*
X480820Y848390D02*
D03*
X56659Y573372D02*
D03*
X62759Y112272D02*
D03*
X412739Y87032D02*
D03*
X219960Y543672D02*
D03*
Y537172D02*
D03*
X262829Y53972D02*
D03*
X31360Y519472D02*
D03*
X267746Y409282D02*
D03*
X80160Y519472D02*
D03*
X276153Y409282D02*
D03*
X55760Y519472D02*
D03*
X284559Y409282D02*
D03*
X59710Y445472D02*
D03*
X623660Y519472D02*
D03*
X599259D02*
D03*
X445460Y652772D02*
D03*
X266159Y630372D02*
D03*
X424160Y652922D02*
D03*
X445460Y633872D02*
D03*
X424160D02*
D03*
X530560Y362238D02*
D03*
X536559D02*
D03*
X89660Y728572D02*
D03*
X62359D02*
D03*
X66210Y445472D02*
D03*
X399259Y502872D02*
D03*
X334860D02*
D03*
X378410Y502822D02*
D03*
X356326Y502872D02*
D03*
X320060Y476872D02*
D03*
Y467772D02*
D03*
X198622Y372572D02*
D03*
X174760Y53972D02*
D03*
X527760Y72872D02*
D03*
X218759Y442572D02*
D03*
Y436572D02*
D03*
X366460Y394672D02*
D03*
Y388672D02*
D03*
X332360Y561372D02*
D03*
X325859D02*
D03*
X292560Y570672D02*
D03*
X269060Y576672D02*
D03*
X185560Y537172D02*
D03*
Y543672D02*
D03*
X292560Y580172D02*
D03*
X428359Y87032D02*
D03*
X566460Y552672D02*
D03*
X410960Y480372D02*
D03*
X120020Y501332D02*
D03*
X289459Y658772D02*
D03*
X292560Y591872D02*
D03*
X272959Y623172D02*
D03*
X294960Y642272D02*
D03*
X393559Y950072D02*
D03*
X482399Y723742D02*
D03*
X279259Y664972D02*
D03*
X266560Y677372D02*
D03*
X269060Y585172D02*
D03*
X320260Y53972D02*
D03*
X456359Y562072D02*
D03*
X377840Y53972D02*
D03*
X409679Y568302D02*
D03*
X334689Y672462D02*
D03*
X349370Y519952D02*
D03*
X259340Y409282D02*
D03*
X416810Y506492D02*
D03*
Y494562D02*
D03*
X376009Y526022D02*
D03*
X146910Y521732D02*
D03*
X287869D02*
D03*
X218599Y410412D02*
D03*
X208650D02*
D03*
X367550Y526022D02*
D03*
X409679Y559782D02*
D03*
X461429Y411462D02*
D03*
X451479D02*
D03*
X133619Y542212D02*
D03*
Y521732D02*
D03*
Y531972D02*
D03*
Y552452D02*
D03*
X513209Y552712D02*
D03*
X379850Y604372D02*
D03*
X416600Y855572D02*
D03*
X139389Y719532D02*
D03*
X271239Y855252D02*
D03*
D129*
X325000Y287722D02*
D03*
X320000D02*
D03*
X330000Y306022D02*
D03*
X325000D02*
D03*
X320000D02*
D03*
X330000Y287722D02*
D03*
D130*
X313349Y294372D02*
D03*
Y299372D02*
D03*
Y304372D02*
D03*
X336650Y299372D02*
D03*
Y294372D02*
D03*
Y289372D02*
D03*
Y304372D02*
D03*
X313349Y289372D02*
D03*
D131*
X344749Y968002D02*
D03*
X305250Y950002D02*
D03*
X344749Y35002D02*
D03*
X305250Y17002D02*
D03*
Y35002D02*
D03*
X344749Y17002D02*
D03*
X305250Y968002D02*
D03*
X344749Y950002D02*
D03*
D132*
X327500Y599822D02*
D03*
X332500Y638522D02*
D03*
X337500D02*
D03*
X327500D02*
D03*
X322500D02*
D03*
X317500D02*
D03*
X312500D02*
D03*
Y599822D02*
D03*
X317500D02*
D03*
X322500D02*
D03*
X332500D02*
D03*
X337500D02*
D03*
D133*
X305650Y631672D02*
D03*
Y626672D02*
D03*
Y621672D02*
D03*
Y616672D02*
D03*
Y611672D02*
D03*
Y606672D02*
D03*
X344350D02*
D03*
Y611672D02*
D03*
Y616672D02*
D03*
Y621672D02*
D03*
Y626672D02*
D03*
Y631672D02*
D03*
D134*
X325000Y619172D02*
D03*
M02*
