G04*
G04 #@! TF.GenerationSoftware,Altium Limited,Altium Designer,23.1.1 (15)*
G04*
G04 Layer_Color=255*
%FSLAX44Y44*%
%MOMM*%
G71*
G04*
G04 #@! TF.SameCoordinates,BDDFE241-78E9-4F8E-813D-FE03931EC528*
G04*
G04*
G04 #@! TF.FilePolarity,Positive*
G04*
G01*
G75*
G04:AMPARAMS|DCode=16|XSize=0.54mm|YSize=0.6mm|CornerRadius=0.1431mm|HoleSize=0mm|Usage=FLASHONLY|Rotation=90.000|XOffset=0mm|YOffset=0mm|HoleType=Round|Shape=RoundedRectangle|*
%AMROUNDEDRECTD16*
21,1,0.5400,0.3138,0,0,90.0*
21,1,0.2538,0.6000,0,0,90.0*
1,1,0.2862,0.1569,0.1269*
1,1,0.2862,0.1569,-0.1269*
1,1,0.2862,-0.1569,-0.1269*
1,1,0.2862,-0.1569,0.1269*
%
%ADD16ROUNDEDRECTD16*%
%ADD17C,1.2000*%
%ADD26R,0.6000X0.5600*%
G04:AMPARAMS|DCode=31|XSize=0.54mm|YSize=0.6mm|CornerRadius=0.1431mm|HoleSize=0mm|Usage=FLASHONLY|Rotation=0.000|XOffset=0mm|YOffset=0mm|HoleType=Round|Shape=RoundedRectangle|*
%AMROUNDEDRECTD31*
21,1,0.5400,0.3138,0,0,0.0*
21,1,0.2538,0.6000,0,0,0.0*
1,1,0.2862,0.1269,-0.1569*
1,1,0.2862,-0.1269,-0.1569*
1,1,0.2862,-0.1269,0.1569*
1,1,0.2862,0.1269,0.1569*
%
%ADD31ROUNDEDRECTD31*%
%ADD38R,0.5600X0.6000*%
%ADD71C,0.9000*%
%ADD93R,1.0000X1.0000*%
%ADD94R,1.0000X1.0000*%
%ADD95P,1.4142X4X77.5*%
%ADD96P,1.4142X4X192.5*%
%ADD97C,3.0000*%
%ADD98C,1.6050*%
%ADD99R,1.6050X1.6050*%
%ADD100R,1.6050X1.6050*%
%ADD101C,0.4500*%
%ADD102C,1.5080*%
%ADD103O,0.9000X2.4000*%
%ADD104O,0.9000X1.7000*%
%ADD105C,0.6500*%
%ADD106C,1.0000*%
%ADD107R,1.5080X1.5080*%
%ADD128R,2.6000X2.6000*%
G04:AMPARAMS|DCode=129|XSize=0.86mm|YSize=0.27mm|CornerRadius=0.0338mm|HoleSize=0mm|Usage=FLASHONLY|Rotation=180.000|XOffset=0mm|YOffset=0mm|HoleType=Round|Shape=RoundedRectangle|*
%AMROUNDEDRECTD129*
21,1,0.8600,0.2025,0,0,180.0*
21,1,0.7925,0.2700,0,0,180.0*
1,1,0.0675,-0.3963,0.1013*
1,1,0.0675,0.3963,0.1013*
1,1,0.0675,0.3963,-0.1013*
1,1,0.0675,-0.3963,-0.1013*
%
%ADD129ROUNDEDRECTD129*%
G04:AMPARAMS|DCode=130|XSize=0.86mm|YSize=0.27mm|CornerRadius=0.0338mm|HoleSize=0mm|Usage=FLASHONLY|Rotation=90.000|XOffset=0mm|YOffset=0mm|HoleType=Round|Shape=RoundedRectangle|*
%AMROUNDEDRECTD130*
21,1,0.8600,0.2025,0,0,90.0*
21,1,0.7925,0.2700,0,0,90.0*
1,1,0.0675,0.1013,0.3963*
1,1,0.0675,0.1013,-0.3963*
1,1,0.0675,-0.1013,-0.3963*
1,1,0.0675,-0.1013,0.3963*
%
%ADD130ROUNDEDRECTD130*%
%ADD131R,1.5700X0.6900*%
G04:AMPARAMS|DCode=132|XSize=0.59mm|YSize=0.35mm|CornerRadius=0.0875mm|HoleSize=0mm|Usage=FLASHONLY|Rotation=180.000|XOffset=0mm|YOffset=0mm|HoleType=Round|Shape=RoundedRectangle|*
%AMROUNDEDRECTD132*
21,1,0.5900,0.1750,0,0,180.0*
21,1,0.4150,0.3500,0,0,180.0*
1,1,0.1750,-0.2075,0.0875*
1,1,0.1750,0.2075,0.0875*
1,1,0.1750,0.2075,-0.0875*
1,1,0.1750,-0.2075,-0.0875*
%
%ADD132ROUNDEDRECTD132*%
G04:AMPARAMS|DCode=133|XSize=0.59mm|YSize=0.35mm|CornerRadius=0.0875mm|HoleSize=0mm|Usage=FLASHONLY|Rotation=90.000|XOffset=0mm|YOffset=0mm|HoleType=Round|Shape=RoundedRectangle|*
%AMROUNDEDRECTD133*
21,1,0.5900,0.1750,0,0,90.0*
21,1,0.4150,0.3500,0,0,90.0*
1,1,0.1750,0.0875,0.2075*
1,1,0.1750,0.0875,-0.2075*
1,1,0.1750,-0.0875,-0.2075*
1,1,0.1750,-0.0875,0.2075*
%
%ADD133ROUNDEDRECTD133*%
D16*
X494960Y660072D02*
D03*
X495460Y268272D02*
D03*
X494960Y651472D02*
D03*
X495460Y276872D02*
D03*
D17*
X170700Y524772D02*
D03*
X197600D02*
D03*
X754260D02*
D03*
X803060D02*
D03*
X778660D02*
D03*
X669400Y401678D02*
D03*
Y426800D02*
D03*
X278000D02*
D03*
Y401678D02*
D03*
X579200Y627700D02*
D03*
X600500D02*
D03*
X579160Y652922D02*
D03*
X600460Y652772D02*
D03*
X489860Y497172D02*
D03*
X532793D02*
D03*
X554260D02*
D03*
X511326D02*
D03*
D26*
X205360Y92522D02*
D03*
Y83822D02*
D03*
X479360Y661222D02*
D03*
Y652522D02*
D03*
X463760D02*
D03*
Y661222D02*
D03*
X510560D02*
D03*
Y652522D02*
D03*
D31*
X458760Y289072D02*
D03*
X467360D02*
D03*
D38*
X526060Y811070D02*
D03*
X534760D02*
D03*
X453910Y828470D02*
D03*
X445210D02*
D03*
D71*
X347330Y22082D02*
D03*
X317330D02*
D03*
D93*
X765500Y606800D02*
D03*
X873500D02*
D03*
X106500D02*
D03*
X214500D02*
D03*
D94*
X664900Y826200D02*
D03*
Y718200D02*
D03*
X315100Y718200D02*
D03*
Y826200D02*
D03*
D95*
X533771Y896595D02*
D03*
X591799Y805508D02*
D03*
D96*
X388201D02*
D03*
X446229Y896595D02*
D03*
D97*
X705000Y158600D02*
D03*
X275000D02*
D03*
X170000Y476370D02*
D03*
Y117370D02*
D03*
X810000Y476370D02*
D03*
Y117370D02*
D03*
D98*
X553500Y945000D02*
D03*
X528100D02*
D03*
X502700D02*
D03*
X477300D02*
D03*
X451900D02*
D03*
X905000Y676600D02*
D03*
Y651200D02*
D03*
Y625800D02*
D03*
Y600400D02*
D03*
Y575000D02*
D03*
X75000Y600400D02*
D03*
Y625800D02*
D03*
Y651200D02*
D03*
Y676600D02*
D03*
Y702000D02*
D03*
D99*
X426500Y945000D02*
D03*
D100*
X905000Y702000D02*
D03*
X75000Y575000D02*
D03*
D101*
X485760Y448972D02*
D03*
Y441472D02*
D03*
Y433972D02*
D03*
D102*
X787500Y44350D02*
D03*
X762500D02*
D03*
D103*
X262810Y58772D02*
D03*
X176310D02*
D03*
D104*
X262810Y24972D02*
D03*
X176310D02*
D03*
D105*
X189810Y55072D02*
D03*
X249310D02*
D03*
Y68572D02*
D03*
X189810D02*
D03*
X198310Y55072D02*
D03*
X206810D02*
D03*
X215310D02*
D03*
X223810D02*
D03*
X232310D02*
D03*
X240810D02*
D03*
Y68572D02*
D03*
X232310D02*
D03*
X223810D02*
D03*
X215310D02*
D03*
X206810D02*
D03*
X198310D02*
D03*
D106*
X490000Y90100D02*
D03*
Y227100D02*
D03*
D107*
X737500Y44350D02*
D03*
D128*
X490000Y619172D02*
D03*
D129*
X470650Y631672D02*
D03*
Y626672D02*
D03*
Y621672D02*
D03*
Y616672D02*
D03*
Y611672D02*
D03*
Y606672D02*
D03*
X509350D02*
D03*
Y611672D02*
D03*
Y616672D02*
D03*
Y621672D02*
D03*
Y626672D02*
D03*
Y631672D02*
D03*
D130*
X502500Y638522D02*
D03*
X497500D02*
D03*
X492500Y599822D02*
D03*
Y638522D02*
D03*
X487500D02*
D03*
X482500D02*
D03*
X477500D02*
D03*
Y599822D02*
D03*
X482500D02*
D03*
X487500D02*
D03*
X497500D02*
D03*
X502500D02*
D03*
D131*
X470250Y811000D02*
D03*
X509750Y829000D02*
D03*
X470250D02*
D03*
X509750Y811000D02*
D03*
D132*
X501650Y294372D02*
D03*
Y299372D02*
D03*
X478350Y304372D02*
D03*
Y299372D02*
D03*
Y294372D02*
D03*
X501650Y289372D02*
D03*
Y304372D02*
D03*
X478350Y289372D02*
D03*
D133*
X485000Y287722D02*
D03*
X490000D02*
D03*
X495000Y306022D02*
D03*
X490000D02*
D03*
X485000D02*
D03*
X495000Y287722D02*
D03*
M02*
