G04*
G04 #@! TF.GenerationSoftware,Altium Limited,Altium Designer,23.1.1 (15)*
G04*
G04 Layer_Color=128*
%FSLAX44Y44*%
%MOMM*%
G71*
G04*
G04 #@! TF.SameCoordinates,06529313-8F5D-48FA-AF42-15034B8276AF*
G04*
G04*
G04 #@! TF.FilePolarity,Positive*
G04*
G01*
G75*
%ADD15R,0.6000X0.5600*%
%ADD16R,0.5600X0.6000*%
G04:AMPARAMS|DCode=17|XSize=0.54mm|YSize=0.6mm|CornerRadius=0.1431mm|HoleSize=0mm|Usage=FLASHONLY|Rotation=270.000|XOffset=0mm|YOffset=0mm|HoleType=Round|Shape=RoundedRectangle|*
%AMROUNDEDRECTD17*
21,1,0.5400,0.3138,0,0,270.0*
21,1,0.2538,0.6000,0,0,270.0*
1,1,0.2862,-0.1569,-0.1269*
1,1,0.2862,-0.1569,0.1269*
1,1,0.2862,0.1569,0.1269*
1,1,0.2862,0.1569,-0.1269*
%
%ADD17ROUNDEDRECTD17*%
G04:AMPARAMS|DCode=18|XSize=0.54mm|YSize=0.6mm|CornerRadius=0.1431mm|HoleSize=0mm|Usage=FLASHONLY|Rotation=0.000|XOffset=0mm|YOffset=0mm|HoleType=Round|Shape=RoundedRectangle|*
%AMROUNDEDRECTD18*
21,1,0.5400,0.3138,0,0,0.0*
21,1,0.2538,0.6000,0,0,0.0*
1,1,0.2862,0.1269,-0.1569*
1,1,0.2862,-0.1269,-0.1569*
1,1,0.2862,-0.1269,0.1569*
1,1,0.2862,0.1269,0.1569*
%
%ADD18ROUNDEDRECTD18*%
%ADD22C,0.6500*%
G04:AMPARAMS|DCode=129|XSize=0.59mm|YSize=0.35mm|CornerRadius=0.0875mm|HoleSize=0mm|Usage=FLASHONLY|Rotation=90.000|XOffset=0mm|YOffset=0mm|HoleType=Round|Shape=RoundedRectangle|*
%AMROUNDEDRECTD129*
21,1,0.5900,0.1750,0,0,90.0*
21,1,0.4150,0.3500,0,0,90.0*
1,1,0.1750,0.0875,0.2075*
1,1,0.1750,0.0875,-0.2075*
1,1,0.1750,-0.0875,-0.2075*
1,1,0.1750,-0.0875,0.2075*
%
%ADD129ROUNDEDRECTD129*%
G04:AMPARAMS|DCode=130|XSize=0.59mm|YSize=0.35mm|CornerRadius=0.0875mm|HoleSize=0mm|Usage=FLASHONLY|Rotation=0.000|XOffset=0mm|YOffset=0mm|HoleType=Round|Shape=RoundedRectangle|*
%AMROUNDEDRECTD130*
21,1,0.5900,0.1750,0,0,0.0*
21,1,0.4150,0.3500,0,0,0.0*
1,1,0.1750,0.2075,-0.0875*
1,1,0.1750,-0.2075,-0.0875*
1,1,0.1750,-0.2075,0.0875*
1,1,0.1750,0.2075,0.0875*
%
%ADD130ROUNDEDRECTD130*%
%ADD131R,1.5700X0.6900*%
G04:AMPARAMS|DCode=132|XSize=0.86mm|YSize=0.27mm|CornerRadius=0.0338mm|HoleSize=0mm|Usage=FLASHONLY|Rotation=90.000|XOffset=0mm|YOffset=0mm|HoleType=Round|Shape=RoundedRectangle|*
%AMROUNDEDRECTD132*
21,1,0.8600,0.2025,0,0,90.0*
21,1,0.7925,0.2700,0,0,90.0*
1,1,0.0675,0.1013,0.3963*
1,1,0.0675,0.1013,-0.3963*
1,1,0.0675,-0.1013,-0.3963*
1,1,0.0675,-0.1013,0.3963*
%
%ADD132ROUNDEDRECTD132*%
G04:AMPARAMS|DCode=133|XSize=0.86mm|YSize=0.27mm|CornerRadius=0.0338mm|HoleSize=0mm|Usage=FLASHONLY|Rotation=180.000|XOffset=0mm|YOffset=0mm|HoleType=Round|Shape=RoundedRectangle|*
%AMROUNDEDRECTD133*
21,1,0.8600,0.2025,0,0,180.0*
21,1,0.7925,0.2700,0,0,180.0*
1,1,0.0675,-0.3963,0.1013*
1,1,0.0675,0.3963,0.1013*
1,1,0.0675,0.3963,-0.1013*
1,1,0.0675,-0.3963,-0.1013*
%
%ADD133ROUNDEDRECTD133*%
G36*
X316800Y610972D02*
X333200D01*
Y627372D01*
X316800D01*
Y610972D01*
D02*
G37*
D15*
X314359Y661222D02*
D03*
Y652522D02*
D03*
X298759D02*
D03*
Y661222D02*
D03*
X345560D02*
D03*
Y652522D02*
D03*
D16*
X369749Y17002D02*
D03*
X361049D02*
D03*
X288890Y35002D02*
D03*
X280190D02*
D03*
X361059Y950072D02*
D03*
X369759D02*
D03*
X288909Y967472D02*
D03*
X280210D02*
D03*
D17*
X330460Y268272D02*
D03*
X329959Y660072D02*
D03*
Y651472D02*
D03*
X330460Y276872D02*
D03*
D18*
X293759Y289072D02*
D03*
X302360D02*
D03*
D22*
X613660Y519472D02*
D03*
X589259D02*
D03*
X638060D02*
D03*
X45760D02*
D03*
X70160D02*
D03*
X21360D02*
D03*
X346326Y502872D02*
D03*
X389259D02*
D03*
X79660Y728572D02*
D03*
X324860Y502872D02*
D03*
X52359Y728572D02*
D03*
X367793Y502872D02*
D03*
X435460Y633872D02*
D03*
X414160Y652922D02*
D03*
X435460Y652772D02*
D03*
X414160Y633872D02*
D03*
D129*
X325000Y287722D02*
D03*
X320000D02*
D03*
X330000Y306022D02*
D03*
X325000D02*
D03*
X320000D02*
D03*
X330000Y287722D02*
D03*
D130*
X313349Y294372D02*
D03*
Y299372D02*
D03*
Y304372D02*
D03*
X336650Y299372D02*
D03*
Y294372D02*
D03*
Y289372D02*
D03*
Y304372D02*
D03*
X313349Y289372D02*
D03*
D131*
X344749Y968002D02*
D03*
X305250Y950002D02*
D03*
X344749Y35002D02*
D03*
X305250Y17002D02*
D03*
Y35002D02*
D03*
X344749Y17002D02*
D03*
X305250Y968002D02*
D03*
X344749Y950002D02*
D03*
D132*
X327500Y599822D02*
D03*
X332500Y638522D02*
D03*
X337500D02*
D03*
X327500D02*
D03*
X322500D02*
D03*
X317500D02*
D03*
X312500D02*
D03*
Y599822D02*
D03*
X317500D02*
D03*
X322500D02*
D03*
X332500D02*
D03*
X337500D02*
D03*
D133*
X305650Y631672D02*
D03*
Y626672D02*
D03*
Y621672D02*
D03*
Y616672D02*
D03*
Y611672D02*
D03*
Y606672D02*
D03*
X344350D02*
D03*
Y611672D02*
D03*
Y616672D02*
D03*
Y621672D02*
D03*
Y626672D02*
D03*
Y631672D02*
D03*
M02*
