G04*
G04 #@! TF.GenerationSoftware,Altium Limited,Altium Designer,23.1.1 (15)*
G04*
G04 Layer_Color=255*
%FSLAX44Y44*%
%MOMM*%
G71*
G04*
G04 #@! TF.SameCoordinates,6E2E4CF0-E359-4451-A4CD-7E5F78DB66F6*
G04*
G04*
G04 #@! TF.FilePolarity,Positive*
G04*
G01*
G75*
%ADD16C,1.2000*%
%ADD17R,1.5000X5.8000*%
%ADD18R,5.8000X1.5000*%
G04:AMPARAMS|DCode=19|XSize=5.8mm|YSize=1.5mm|CornerRadius=0mm|HoleSize=0mm|Usage=FLASHONLY|Rotation=32.500|XOffset=0mm|YOffset=0mm|HoleType=Round|Shape=Rectangle|*
%AMROTATEDRECTD19*
4,1,4,-2.0429,-2.1907,-2.8488,-0.9256,2.0429,2.1907,2.8488,0.9256,-2.0429,-2.1907,0.0*
%
%ADD19ROTATEDRECTD19*%

G04:AMPARAMS|DCode=20|XSize=5.8mm|YSize=1.5mm|CornerRadius=0mm|HoleSize=0mm|Usage=FLASHONLY|Rotation=147.500|XOffset=0mm|YOffset=0mm|HoleType=Round|Shape=Rectangle|*
%AMROTATEDRECTD20*
4,1,4,2.8488,-0.9256,2.0429,-2.1907,-2.8488,0.9256,-2.0429,2.1907,2.8488,-0.9256,0.0*
%
%ADD20ROTATEDRECTD20*%

%ADD21R,0.8000X0.8000*%
%ADD22R,0.8000X0.8000*%
%ADD23R,0.8000X0.9000*%
%ADD24R,0.9000X1.2500*%
%ADD25R,0.6000X0.5600*%
%ADD26R,0.4000X0.8000*%
%ADD27R,0.8000X0.4000*%
G04:AMPARAMS|DCode=28|XSize=0.54mm|YSize=0.6mm|CornerRadius=0.1431mm|HoleSize=0mm|Usage=FLASHONLY|Rotation=90.000|XOffset=0mm|YOffset=0mm|HoleType=Round|Shape=RoundedRectangle|*
%AMROUNDEDRECTD28*
21,1,0.5400,0.3138,0,0,90.0*
21,1,0.2538,0.6000,0,0,90.0*
1,1,0.2862,0.1569,0.1269*
1,1,0.2862,0.1569,-0.1269*
1,1,0.2862,-0.1569,-0.1269*
1,1,0.2862,-0.1569,0.1269*
%
%ADD28ROUNDEDRECTD28*%
%ADD29R,1.1176X1.4478*%
%ADD30R,1.2000X1.2000*%
G04:AMPARAMS|DCode=31|XSize=0.54mm|YSize=0.6mm|CornerRadius=0.1431mm|HoleSize=0mm|Usage=FLASHONLY|Rotation=0.000|XOffset=0mm|YOffset=0mm|HoleType=Round|Shape=RoundedRectangle|*
%AMROUNDEDRECTD31*
21,1,0.5400,0.3138,0,0,0.0*
21,1,0.2538,0.6000,0,0,0.0*
1,1,0.2862,0.1269,-0.1569*
1,1,0.2862,-0.1269,-0.1569*
1,1,0.2862,-0.1269,0.1569*
1,1,0.2862,0.1269,0.1569*
%
%ADD31ROUNDEDRECTD31*%
%ADD32R,2.6924X1.1176*%
%ADD33R,0.6000X1.5500*%
G04:AMPARAMS|DCode=34|XSize=1.57mm|YSize=0.41mm|CornerRadius=0.0513mm|HoleSize=0mm|Usage=FLASHONLY|Rotation=0.000|XOffset=0mm|YOffset=0mm|HoleType=Round|Shape=RoundedRectangle|*
%AMROUNDEDRECTD34*
21,1,1.5700,0.3075,0,0,0.0*
21,1,1.4675,0.4100,0,0,0.0*
1,1,0.1025,0.7338,-0.1538*
1,1,0.1025,-0.7338,-0.1538*
1,1,0.1025,-0.7338,0.1538*
1,1,0.1025,0.7338,0.1538*
%
%ADD34ROUNDEDRECTD34*%
%ADD35R,1.7000X0.5500*%
%ADD36R,0.9000X1.0000*%
%ADD37R,1.1176X2.6924*%
%ADD38R,0.5600X0.6000*%
G04:AMPARAMS|DCode=39|XSize=0.46mm|YSize=0.2mm|CornerRadius=0.025mm|HoleSize=0mm|Usage=FLASHONLY|Rotation=270.000|XOffset=0mm|YOffset=0mm|HoleType=Round|Shape=RoundedRectangle|*
%AMROUNDEDRECTD39*
21,1,0.4600,0.1500,0,0,270.0*
21,1,0.4100,0.2000,0,0,270.0*
1,1,0.0500,-0.0750,-0.2050*
1,1,0.0500,-0.0750,0.2050*
1,1,0.0500,0.0750,0.2050*
1,1,0.0500,0.0750,-0.2050*
%
%ADD39ROUNDEDRECTD39*%
G04:AMPARAMS|DCode=40|XSize=1.97mm|YSize=0.6mm|CornerRadius=0.045mm|HoleSize=0mm|Usage=FLASHONLY|Rotation=180.000|XOffset=0mm|YOffset=0mm|HoleType=Round|Shape=RoundedRectangle|*
%AMROUNDEDRECTD40*
21,1,1.9700,0.5100,0,0,180.0*
21,1,1.8800,0.6000,0,0,180.0*
1,1,0.0900,-0.9400,0.2550*
1,1,0.0900,0.9400,0.2550*
1,1,0.0900,0.9400,-0.2550*
1,1,0.0900,-0.9400,-0.2550*
%
%ADD40ROUNDEDRECTD40*%
%ADD41R,1.2000X1.8000*%
%ADD71C,0.9000*%
%ADD83R,2.4800X3.4000*%
%ADD84R,0.4000X0.4000*%
G04:AMPARAMS|DCode=85|XSize=1.2mm|YSize=2mm|CornerRadius=0.03mm|HoleSize=0mm|Usage=FLASHONLY|Rotation=180.000|XOffset=0mm|YOffset=0mm|HoleType=Round|Shape=RoundedRectangle|*
%AMROUNDEDRECTD85*
21,1,1.2000,1.9400,0,0,180.0*
21,1,1.1400,2.0000,0,0,180.0*
1,1,0.0600,-0.5700,0.9700*
1,1,0.0600,0.5700,0.9700*
1,1,0.0600,0.5700,-0.9700*
1,1,0.0600,-0.5700,-0.9700*
%
%ADD85ROUNDEDRECTD85*%
G04:AMPARAMS|DCode=86|XSize=0.6mm|YSize=0.5mm|CornerRadius=0.0125mm|HoleSize=0mm|Usage=FLASHONLY|Rotation=180.000|XOffset=0mm|YOffset=0mm|HoleType=Round|Shape=RoundedRectangle|*
%AMROUNDEDRECTD86*
21,1,0.6000,0.4750,0,0,180.0*
21,1,0.5750,0.5000,0,0,180.0*
1,1,0.0250,-0.2875,0.2375*
1,1,0.0250,0.2875,0.2375*
1,1,0.0250,0.2875,-0.2375*
1,1,0.0250,-0.2875,-0.2375*
%
%ADD86ROUNDEDRECTD86*%
%ADD94R,1.0000X1.0000*%
%ADD95R,1.0000X1.0000*%
%ADD96P,1.4142X4X77.5*%
%ADD97P,1.4142X4X192.5*%
%ADD98C,3.0000*%
%ADD99C,1.6050*%
%ADD100R,1.6050X1.6050*%
%ADD101R,1.6050X1.6050*%
%ADD102C,0.3000*%
%ADD103C,1.5080*%
%ADD104O,0.9000X2.4000*%
%ADD105O,0.9000X1.7000*%
%ADD106C,0.6500*%
%ADD107C,1.0000*%
%ADD108R,1.5080X1.5080*%
D16*
X170700Y524772D02*
D03*
X197600D02*
D03*
X754260D02*
D03*
X803060D02*
D03*
X778660D02*
D03*
X669400Y401678D02*
D03*
Y426800D02*
D03*
X278000D02*
D03*
Y401678D02*
D03*
X579200Y627700D02*
D03*
X600500D02*
D03*
X579160Y652922D02*
D03*
X600460Y652772D02*
D03*
X489860Y497172D02*
D03*
X532793D02*
D03*
X554260D02*
D03*
X511326D02*
D03*
D17*
X860000Y606800D02*
D03*
X833000D02*
D03*
X806000D02*
D03*
X779000D02*
D03*
X201000D02*
D03*
X174000D02*
D03*
X147000D02*
D03*
X120000D02*
D03*
D18*
X664900Y731700D02*
D03*
Y758700D02*
D03*
Y785700D02*
D03*
Y812700D02*
D03*
X315100D02*
D03*
Y785700D02*
D03*
Y758700D02*
D03*
Y731700D02*
D03*
D19*
X584546Y816894D02*
D03*
X570039Y839666D02*
D03*
X555532Y862437D02*
D03*
X541024Y885209D02*
D03*
D20*
X438976Y885209D02*
D03*
X424469Y862437D02*
D03*
X409962Y839666D02*
D03*
X395454Y816894D02*
D03*
D21*
X559460Y31400D02*
D03*
Y16400D02*
D03*
X575200Y31400D02*
D03*
Y16400D02*
D03*
X590940Y31400D02*
D03*
Y16400D02*
D03*
X280800Y31430D02*
D03*
Y16430D02*
D03*
D22*
X734000Y79500D02*
D03*
X719000D02*
D03*
X420000Y689172D02*
D03*
Y549172D02*
D03*
X560000Y689172D02*
D03*
Y549172D02*
D03*
D23*
X294330Y33082D02*
D03*
Y11082D02*
D03*
X370330D02*
D03*
Y33082D02*
D03*
D24*
X354830Y42832D02*
D03*
X339830D02*
D03*
X309830D02*
D03*
D25*
X571480Y517637D02*
D03*
Y526338D02*
D03*
X275290Y463421D02*
D03*
X462500Y446772D02*
D03*
X589830Y463422D02*
D03*
X280800Y64696D02*
D03*
Y43996D02*
D03*
Y52696D02*
D03*
X590940D02*
D03*
Y43996D02*
D03*
X575200Y52696D02*
D03*
Y43996D02*
D03*
X559500Y52696D02*
D03*
Y43996D02*
D03*
X385460Y623427D02*
D03*
Y632127D02*
D03*
X385460Y652972D02*
D03*
Y661672D02*
D03*
X361460Y652972D02*
D03*
Y661672D02*
D03*
X275290Y472121D02*
D03*
X361460Y632077D02*
D03*
Y623377D02*
D03*
X385460Y602272D02*
D03*
Y593572D02*
D03*
X361460Y602272D02*
D03*
Y593572D02*
D03*
X401860Y480472D02*
D03*
Y471772D02*
D03*
X462500Y455472D02*
D03*
X589830Y472122D02*
D03*
X280800Y73396D02*
D03*
X576060Y684322D02*
D03*
Y693022D02*
D03*
D26*
X456000Y549172D02*
D03*
X481500D02*
D03*
X515500D02*
D03*
X524000D02*
D03*
X549500Y689172D02*
D03*
X541000D02*
D03*
X532500D02*
D03*
X524000D02*
D03*
X515500D02*
D03*
X507000D02*
D03*
X498500D02*
D03*
X490000D02*
D03*
X481500D02*
D03*
X473000D02*
D03*
X464500D02*
D03*
X456000D02*
D03*
X447500D02*
D03*
X439000D02*
D03*
X430500D02*
D03*
Y549172D02*
D03*
X439000D02*
D03*
X447500D02*
D03*
X464500D02*
D03*
X473000D02*
D03*
X490000D02*
D03*
X498500D02*
D03*
X507000D02*
D03*
X532500D02*
D03*
X541000D02*
D03*
X549500D02*
D03*
D27*
X560000Y576672D02*
D03*
Y585172D02*
D03*
X420000Y678672D02*
D03*
Y670172D02*
D03*
X560000Y653172D02*
D03*
Y661672D02*
D03*
X420000D02*
D03*
Y653172D02*
D03*
Y644672D02*
D03*
Y636172D02*
D03*
Y627672D02*
D03*
Y619172D02*
D03*
Y610672D02*
D03*
Y602172D02*
D03*
Y593672D02*
D03*
Y585172D02*
D03*
Y576672D02*
D03*
Y568172D02*
D03*
Y559672D02*
D03*
X560000D02*
D03*
Y568172D02*
D03*
Y593672D02*
D03*
Y602172D02*
D03*
Y610672D02*
D03*
Y619172D02*
D03*
Y627672D02*
D03*
Y636172D02*
D03*
Y644672D02*
D03*
Y670172D02*
D03*
Y678672D02*
D03*
D28*
X576060Y673272D02*
D03*
Y664672D02*
D03*
X389860Y480372D02*
D03*
X287290Y463471D02*
D03*
X373460Y623477D02*
D03*
X397460D02*
D03*
X373460Y593622D02*
D03*
X397460D02*
D03*
X475660Y525572D02*
D03*
X462960Y525572D02*
D03*
X462460Y436672D02*
D03*
X373460Y653072D02*
D03*
X397460D02*
D03*
X601830Y463472D02*
D03*
X377860Y480272D02*
D03*
Y471672D02*
D03*
X601830Y472072D02*
D03*
X397460Y661672D02*
D03*
X373460D02*
D03*
X462460Y428072D02*
D03*
X389860Y471772D02*
D03*
X692860Y498742D02*
D03*
Y490142D02*
D03*
X377860Y498742D02*
D03*
Y490142D02*
D03*
X287290Y472071D02*
D03*
X373460Y632077D02*
D03*
X397460D02*
D03*
X373460Y602222D02*
D03*
X397460D02*
D03*
X475660Y534172D02*
D03*
X462960Y534172D02*
D03*
D29*
X407528Y455672D02*
D03*
X721628Y435372D02*
D03*
X476792Y411991D02*
D03*
X389592Y455672D02*
D03*
X703692Y435372D02*
D03*
X494728Y411991D02*
D03*
D30*
X490000Y619172D02*
D03*
Y635672D02*
D03*
X506500D02*
D03*
Y619172D02*
D03*
Y602672D02*
D03*
X490000D02*
D03*
X473500D02*
D03*
Y619172D02*
D03*
D31*
X661660Y69272D02*
D03*
X713360Y452172D02*
D03*
X388909Y579962D02*
D03*
X396234Y676884D02*
D03*
X387634D02*
D03*
X653060Y69272D02*
D03*
X704760Y452172D02*
D03*
Y464172D02*
D03*
X713360D02*
D03*
X397509Y579962D02*
D03*
D32*
X616460Y19286D02*
D03*
X524760Y417486D02*
D03*
X616460Y49258D02*
D03*
X524760Y447458D02*
D03*
D33*
X393560Y395822D02*
D03*
X636440D02*
D03*
X343560D02*
D03*
X353560D02*
D03*
X363560D02*
D03*
X373560D02*
D03*
X383560D02*
D03*
X586440D02*
D03*
X596440D02*
D03*
X606440D02*
D03*
X616440D02*
D03*
X626440D02*
D03*
D34*
X303990Y465722D02*
D03*
X361390Y459222D02*
D03*
Y498222D02*
D03*
Y504722D02*
D03*
X618610Y465722D02*
D03*
X676010Y459222D02*
D03*
Y498222D02*
D03*
Y504722D02*
D03*
X303990D02*
D03*
Y498222D02*
D03*
Y491722D02*
D03*
Y485222D02*
D03*
Y478722D02*
D03*
Y472222D02*
D03*
Y459222D02*
D03*
X361390Y465722D02*
D03*
Y472222D02*
D03*
Y478722D02*
D03*
Y485222D02*
D03*
Y491722D02*
D03*
X618610Y504722D02*
D03*
Y498222D02*
D03*
Y491722D02*
D03*
Y485222D02*
D03*
Y478722D02*
D03*
Y472222D02*
D03*
Y459222D02*
D03*
X676010Y465722D02*
D03*
Y472222D02*
D03*
Y478722D02*
D03*
Y485222D02*
D03*
Y491722D02*
D03*
D35*
X522330Y11072D02*
D03*
X464830D02*
D03*
X407330D02*
D03*
D36*
X501830Y17322D02*
D03*
X542830D02*
D03*
X444330D02*
D03*
X485330D02*
D03*
X427830D02*
D03*
X386830D02*
D03*
X427830Y33322D02*
D03*
X386830D02*
D03*
X444330D02*
D03*
X485330D02*
D03*
X501830D02*
D03*
X542830D02*
D03*
D37*
X364574Y707472D02*
D03*
X394546D02*
D03*
D38*
X388859Y567962D02*
D03*
X691410Y69276D02*
D03*
X700110D02*
D03*
X746880Y79455D02*
D03*
X755580D02*
D03*
X397560Y567962D02*
D03*
X375384Y676880D02*
D03*
X366684D02*
D03*
X371710Y546472D02*
D03*
X363010D02*
D03*
X371710Y534522D02*
D03*
X363010D02*
D03*
X593230Y488972D02*
D03*
X601930D02*
D03*
X278710D02*
D03*
X287410D02*
D03*
X471010Y467372D02*
D03*
X462310D02*
D03*
D39*
X219560Y93922D02*
D03*
X216060Y83522D02*
D03*
X223060D02*
D03*
D40*
X647210Y16322D02*
D03*
Y29022D02*
D03*
Y41722D02*
D03*
Y54422D02*
D03*
X696710D02*
D03*
Y41722D02*
D03*
Y29022D02*
D03*
Y16322D02*
D03*
D41*
X330560Y421072D02*
D03*
X406560D02*
D03*
X573440D02*
D03*
X649440D02*
D03*
D71*
X347330Y22082D02*
D03*
X317330D02*
D03*
D83*
X332690Y481972D02*
D03*
X647310D02*
D03*
D84*
X473500Y635672D02*
D03*
D85*
X485760Y441472D02*
D03*
D86*
X496260Y444722D02*
D03*
X475260Y431722D02*
D03*
Y438222D02*
D03*
Y444722D02*
D03*
Y451222D02*
D03*
X496260D02*
D03*
Y438222D02*
D03*
Y431722D02*
D03*
D94*
X765500Y606800D02*
D03*
X873500D02*
D03*
X106500D02*
D03*
X214500D02*
D03*
D95*
X664900Y826200D02*
D03*
Y718200D02*
D03*
X315100Y718200D02*
D03*
Y826200D02*
D03*
D96*
X533771Y896595D02*
D03*
X591799Y805508D02*
D03*
D97*
X388201D02*
D03*
X446229Y896595D02*
D03*
D98*
X705000Y158600D02*
D03*
X275000D02*
D03*
X170000Y476370D02*
D03*
Y117370D02*
D03*
X810000Y476370D02*
D03*
Y117370D02*
D03*
D99*
X553500Y945000D02*
D03*
X528100D02*
D03*
X502700D02*
D03*
X477300D02*
D03*
X451900D02*
D03*
X905000Y676600D02*
D03*
Y651200D02*
D03*
Y625800D02*
D03*
Y600400D02*
D03*
Y575000D02*
D03*
X75000Y600400D02*
D03*
Y625800D02*
D03*
Y651200D02*
D03*
Y676600D02*
D03*
Y702000D02*
D03*
D100*
X426500Y945000D02*
D03*
D101*
X905000Y702000D02*
D03*
X75000Y575000D02*
D03*
D102*
X485760Y448972D02*
D03*
Y441472D02*
D03*
Y433972D02*
D03*
D103*
X787500Y44350D02*
D03*
X762500D02*
D03*
D104*
X262810Y58772D02*
D03*
X176310D02*
D03*
D105*
X262810Y24972D02*
D03*
X176310D02*
D03*
D106*
X189810Y55072D02*
D03*
X249310D02*
D03*
Y68572D02*
D03*
X189810D02*
D03*
X198310Y55072D02*
D03*
X206810D02*
D03*
X215310D02*
D03*
X223810D02*
D03*
X232310D02*
D03*
X240810D02*
D03*
Y68572D02*
D03*
X232310D02*
D03*
X223810D02*
D03*
X215310D02*
D03*
X206810D02*
D03*
X198310D02*
D03*
D107*
X490000Y90100D02*
D03*
Y227100D02*
D03*
D108*
X737500Y44350D02*
D03*
M02*
