G04*
G04 #@! TF.GenerationSoftware,Altium Limited,Altium Designer,23.1.1 (15)*
G04*
G04 Layer_Color=16711935*
%FSLAX44Y44*%
%MOMM*%
G71*
G04*
G04 #@! TF.SameCoordinates,06529313-8F5D-48FA-AF42-15034B8276AF*
G04*
G04*
G04 #@! TF.FilePolarity,Positive*
G04*
G01*
G75*
%ADD10C,0.2000*%
%ADD11C,0.1270*%
%ADD12C,0.1524*%
%ADD139C,0.1000*%
%ADD140C,0.0254*%
D10*
X413740Y11222D02*
G03*
X413740Y11222I-1000J0D01*
G01*
X429479D02*
G03*
X429479Y11222I-1000J0D01*
G01*
X397999D02*
G03*
X397999Y11222I-1000J0D01*
G01*
X565760Y19772D02*
G03*
X565760Y19772I-1000J0D01*
G01*
X254000Y700672D02*
G03*
X254000Y700672I-1000J0D01*
G01*
X597010Y6372D02*
G03*
X597010Y6372I-1000J0D01*
G01*
X179559Y381072D02*
G03*
X179559Y381072I-1000J0D01*
G01*
X422439D02*
G03*
X422439Y381072I-1000J0D01*
G01*
X151690Y504722D02*
G03*
X151690Y504722I-1000J0D01*
G01*
X466310D02*
G03*
X466310Y504722I-1000J0D01*
G01*
X355750Y631672D02*
G03*
X355750Y631672I-1000J0D01*
G01*
X147828Y753896D02*
G03*
X147828Y753896I-1000J0D01*
G01*
X266989Y821162D02*
G03*
X266989Y821162I-1000J0D01*
G01*
X493848Y814464D02*
G03*
X493848Y814464I-1000J0D01*
G01*
X490736Y740501D02*
G03*
X490736Y740501I-1000J0D01*
G01*
X137251Y835354D02*
G03*
X137251Y835354I-1000J0D01*
G01*
X145040Y52792D02*
G03*
X145040Y52792I-1000J0D01*
G01*
X347999Y7002D02*
G03*
X347999Y7002I-1000J0D01*
G01*
X304000Y978002D02*
G03*
X304000Y978002I-1000J0D01*
G01*
X345999Y304872D02*
G03*
X345999Y304872I-1000J0D01*
G01*
X340760Y429972D02*
G03*
X340760Y429972I-1000J0D01*
G01*
X524990Y571022D02*
G03*
X524990Y571022I-1000J0D01*
G01*
X609510Y621122D02*
G03*
X609510Y621122I-1000J0D01*
G01*
X514748Y835354D02*
G03*
X514748Y835354I-1000J0D01*
G01*
X108010Y571022D02*
G03*
X108010Y571022I-1000J0D01*
G01*
X385019Y840162D02*
G03*
X385019Y840162I-1000J0D01*
G01*
X42490Y621122D02*
G03*
X42490Y621122I-1000J0D01*
G01*
X431640Y859462D02*
G03*
X431640Y859462I-1000J0D01*
G01*
X220359Y859461D02*
G03*
X220359Y859461I-1000J0D01*
G01*
X633800Y810372D02*
G03*
X633800Y810372I-1000J0D01*
G01*
X241000Y922472D02*
G03*
X241000Y922472I-1000J0D01*
G01*
X18199Y640372D02*
G03*
X18199Y640372I-1000J0D01*
G01*
X579490Y621122D02*
G03*
X579490Y621122I-1000J0D01*
G01*
X72509D02*
G03*
X72509Y621122I-1000J0D01*
G01*
X431640Y830662D02*
G03*
X431640Y830662I-1000J0D01*
G01*
X220359Y830661D02*
G03*
X220359Y830661I-1000J0D01*
G01*
X158151Y814464D02*
G03*
X158151Y814464I-1000J0D01*
G01*
D11*
X528740Y795372D02*
G03*
X528740Y795372I-16800J0D01*
G01*
X137459Y816262D02*
G03*
X137459Y816262I-20300J0D01*
G01*
X628810Y594122D02*
G03*
X628810Y594122I-20300J0D01*
G01*
X553139Y816262D02*
G03*
X553139Y816262I-20300J0D01*
G01*
X61789Y594122D02*
G03*
X61789Y594122I-20300J0D01*
G01*
X477939Y859462D02*
G03*
X477939Y859462I-20300J0D01*
G01*
X212659Y859461D02*
G03*
X212659Y859461I-20300J0D01*
G01*
X595289Y594122D02*
G03*
X595289Y594122I-16800J0D01*
G01*
X88309D02*
G03*
X88309Y594122I-16800J0D01*
G01*
X474440Y830662D02*
G03*
X474440Y830662I-16800J0D01*
G01*
X209160Y830661D02*
G03*
X209160Y830661I-16800J0D01*
G01*
X154860Y795372D02*
G03*
X154860Y795372I-16800J0D01*
G01*
X223260Y622277D02*
Y633277D01*
X217659Y622277D02*
Y633277D01*
X223260D01*
X217659Y622277D02*
X223260D01*
X223260Y651822D02*
Y662822D01*
X217659Y651822D02*
Y662822D01*
X223260D01*
X217659Y651822D02*
X223260D01*
X200534Y679680D02*
X211534D01*
X200534Y674080D02*
X211534D01*
X200534D02*
Y679680D01*
X211534Y674080D02*
Y679680D01*
X235259Y652072D02*
Y662672D01*
X229660D02*
X235259D01*
X229660Y652072D02*
Y662672D01*
Y652072D02*
X235259D01*
X199259Y651822D02*
Y662822D01*
X193659Y651822D02*
Y662822D01*
X199259D01*
X193659Y651822D02*
X199259D01*
X211259Y652072D02*
Y662672D01*
X205660D02*
X211259D01*
X205660Y652072D02*
Y662672D01*
Y652072D02*
X211259D01*
X221633Y679684D02*
X232234D01*
X221633Y674084D02*
Y679684D01*
Y674084D02*
X232234D01*
Y679684D01*
X399599Y48668D02*
Y59668D01*
X393999Y48668D02*
Y59668D01*
X399599D01*
X393999Y48668D02*
X399599D01*
X415540D02*
Y59668D01*
X409939Y48668D02*
Y59668D01*
X415540D01*
X409939Y48668D02*
X415540D01*
X431279D02*
Y59668D01*
X425680Y48668D02*
Y59668D01*
X431279D01*
X425680Y48668D02*
X431279D01*
X294660Y437672D02*
X300259D01*
Y427072D02*
Y437672D01*
X294660Y427072D02*
X300259D01*
X294660D02*
Y437672D01*
X45960Y89372D02*
X51560D01*
X45960Y100372D02*
X51560D01*
X45960Y89372D02*
Y100372D01*
X51560Y89372D02*
Y100372D01*
X196859Y543672D02*
Y549272D01*
X207859Y543672D02*
Y549272D01*
X196859D02*
X207859D01*
X196859Y543672D02*
X207859D01*
X196859Y531722D02*
Y537322D01*
X207859Y531722D02*
Y537322D01*
X196859D02*
X207859D01*
X196859Y531722D02*
X207859D01*
X57959Y91422D02*
X67959D01*
Y99422D01*
X57959D02*
X67959D01*
X57959Y91422D02*
Y99422D01*
X222059Y470772D02*
Y481372D01*
Y470772D02*
X227659D01*
Y481372D01*
X222059D02*
X227659D01*
X542760Y13772D02*
Y63772D01*
X502760Y13772D02*
X542760D01*
X502760D02*
Y63772D01*
X542760D01*
X438079Y486172D02*
Y491772D01*
X427080Y486172D02*
Y491772D01*
Y486172D02*
X438079D01*
X427080Y491772D02*
X438079D01*
X541059Y69876D02*
Y75476D01*
X552060Y69876D02*
Y75476D01*
X541059D02*
X552060D01*
X541059Y69876D02*
X552060D01*
X247999Y746922D02*
X402000D01*
Y696422D02*
Y746922D01*
Y541922D02*
Y696422D01*
X247999Y541922D02*
X402000D01*
X247999D02*
Y696422D01*
Y746922D01*
Y696422D02*
X402000D01*
X513460Y69872D02*
Y75472D01*
X502859Y69872D02*
X513460D01*
X502859D02*
Y75472D01*
X513460D01*
X630009Y13772D02*
Y87772D01*
X572509D02*
X630009D01*
X572509Y13772D02*
Y87772D01*
Y13772D02*
X630009D01*
X525060Y499742D02*
X530659D01*
Y489142D02*
Y499742D01*
X525060Y489142D02*
X530659D01*
X525060D02*
Y499742D01*
X549360Y449372D02*
Y454972D01*
X538759Y449372D02*
X549360D01*
X538759D02*
Y454972D01*
X549360D01*
X538759Y461372D02*
Y466972D01*
X549360D01*
Y461372D02*
Y466972D01*
X538759Y461372D02*
X549360D01*
X163559Y428072D02*
X243559D01*
X163559Y399072D02*
Y428072D01*
Y399072D02*
X243559D01*
Y428072D01*
X406440D02*
X486440D01*
X406440Y399072D02*
Y428072D01*
Y399072D02*
X486440D01*
Y428072D01*
X123560Y486172D02*
Y491772D01*
X112559Y486172D02*
Y491772D01*
Y486172D02*
X123560D01*
X112559Y491772D02*
X123560D01*
X145689Y506972D02*
X189690D01*
X145689Y456972D02*
X189690D01*
X145689D02*
Y506972D01*
X189690Y456972D02*
Y506972D01*
X210060Y470672D02*
X215660D01*
X210060D02*
Y481272D01*
X215660D01*
Y470672D02*
Y481272D01*
X210060Y499742D02*
X215660D01*
Y489142D02*
Y499742D01*
X210060Y489142D02*
X215660D01*
X210060D02*
Y499742D01*
X107490Y473271D02*
X113090D01*
X107490Y462271D02*
X113090D01*
Y473271D01*
X107490Y462271D02*
Y473271D01*
X119489Y462471D02*
X125090D01*
X119489D02*
Y473071D01*
X125090D01*
Y462471D02*
Y473071D01*
X460309Y506972D02*
X504310D01*
X460309Y456972D02*
X504310D01*
X460309D02*
Y506972D01*
X504310Y456972D02*
Y506972D01*
X311560Y651372D02*
X317160D01*
X311560Y662372D02*
X317160D01*
Y651372D02*
Y662372D01*
X311560Y651372D02*
Y662372D01*
X295959D02*
X301560D01*
X295959Y651372D02*
X301560D01*
X295959D02*
Y662372D01*
X301560Y651372D02*
Y662372D01*
X345000Y599172D02*
Y639172D01*
X305000Y599172D02*
Y639172D01*
X345000D01*
X305000Y599172D02*
X345000D01*
X152555Y768109D02*
X174475Y746188D01*
X165283Y780836D02*
X187204Y758916D01*
X174475Y746188D02*
X187204Y758916D01*
X152555Y768109D02*
X165283Y780836D01*
X193659Y622227D02*
X199259D01*
X193659Y633227D02*
X199259D01*
X193659Y622227D02*
Y633227D01*
X199259Y622227D02*
Y633227D01*
X205660Y622477D02*
X211259D01*
X205660D02*
Y633077D01*
X211259D01*
Y622477D02*
Y633077D01*
X229660Y622477D02*
X235259D01*
X229660D02*
Y633077D01*
X235259D01*
Y622477D02*
Y633077D01*
X205660Y592622D02*
X211259D01*
X205660D02*
Y603222D01*
X211259D01*
Y592622D02*
Y603222D01*
X229660Y592622D02*
X235259D01*
X229660D02*
Y603222D01*
X235259D01*
Y592622D02*
Y603222D01*
X217659Y592422D02*
X223260D01*
X217659Y603422D02*
X223260D01*
X217659Y592422D02*
Y603422D01*
X223260Y592422D02*
Y603422D01*
X193659Y592422D02*
X199259D01*
X193659Y603422D02*
X199259D01*
X193659Y592422D02*
Y603422D01*
X199259Y592422D02*
Y603422D01*
X65859Y551572D02*
X71459D01*
X65859Y562572D02*
X71459D01*
X65859Y551572D02*
Y562572D01*
X71459Y551572D02*
Y562572D01*
X161520Y845542D02*
Y851142D01*
X150920Y845542D02*
X161520D01*
X150920D02*
Y851142D01*
X161520D01*
X233890Y815162D02*
X251889D01*
X233890Y846162D02*
X251889D01*
X233890Y815162D02*
Y846162D01*
X251889Y815162D02*
Y846162D01*
X150719Y857542D02*
Y863142D01*
X161719Y857542D02*
Y863142D01*
X150719D02*
X161719D01*
X150719Y857542D02*
X161719D01*
X542303Y764848D02*
X546263Y768808D01*
X534525Y772626D02*
X538485Y776586D01*
X534525Y772626D02*
X542303Y764848D01*
X538485Y776586D02*
X546263Y768808D01*
X462796Y758956D02*
X475523Y746228D01*
X484716Y780877D02*
X497444Y768149D01*
X462796Y758956D02*
X484716Y780877D01*
X475523Y746228D02*
X497444Y768149D01*
X559274Y781819D02*
X563234Y785778D01*
X551496Y789597D02*
X555456Y793557D01*
X551496Y789597D02*
X559274Y781819D01*
X555456Y793557D02*
X563234Y785778D01*
X543152Y780970D02*
X547112Y784930D01*
X554607Y777434D01*
X550647Y773475D02*
X554607Y777434D01*
X543152Y780970D02*
X550647Y773475D01*
X342760Y651372D02*
X348359D01*
X342760Y662372D02*
X348359D01*
Y651372D02*
Y662372D01*
X342760Y651372D02*
Y662372D01*
X327160Y661072D02*
X332760D01*
X327160Y650472D02*
Y661072D01*
Y650472D02*
X332760D01*
Y661072D01*
X263330Y11322D02*
Y39322D01*
X221329D02*
X263330D01*
X221329Y11322D02*
Y39322D01*
Y11322D02*
X263330D01*
X320830D02*
Y39322D01*
X278829D02*
X320830D01*
X278829Y11322D02*
Y39322D01*
Y11322D02*
X320830D01*
X378330D02*
Y39322D01*
X336329D02*
X378330D01*
X336329Y11322D02*
Y39322D01*
Y11322D02*
X378330D01*
X359899Y14202D02*
Y19802D01*
X370900Y14202D02*
Y19802D01*
X359899Y14202D02*
X370900D01*
X359899Y19802D02*
X370900D01*
X133829Y9082D02*
Y35082D01*
X200830D01*
Y9082D02*
Y35082D01*
X181329Y9082D02*
X200830D01*
X133829D02*
X168330D01*
Y-4918D02*
Y9082D01*
Y-4918D02*
X181329D01*
Y9082D01*
X168330D02*
X181329D01*
X339500Y8002D02*
Y44002D01*
X310499Y8002D02*
X339500D01*
X310499D02*
Y44002D01*
X339500D01*
X310499Y941002D02*
X339500D01*
Y977002D01*
X310499D02*
X339500D01*
X310499Y941002D02*
Y977002D01*
X310000Y284372D02*
X340000D01*
X310000D02*
Y309372D01*
X340000D01*
Y284372D02*
Y309372D01*
X306759Y426472D02*
X334759D01*
X306759D02*
Y456472D01*
X334759D01*
Y426472D02*
Y456472D01*
X533139Y551572D02*
Y562572D01*
X538740Y551572D02*
Y562572D01*
X533139Y551572D02*
X538740D01*
X533139Y562572D02*
X538740D01*
X501154Y742129D02*
X508932Y734350D01*
X505114Y746088D02*
X512892Y738310D01*
X508932Y734350D02*
X512892Y738310D01*
X501154Y742129D02*
X505114Y746088D01*
X521135Y551572D02*
Y562572D01*
X526735Y551572D02*
Y562572D01*
X521135Y551572D02*
X526735D01*
X521135Y562572D02*
X526735D01*
X492669Y733643D02*
X500447Y725865D01*
X496628Y737603D02*
X504407Y729825D01*
X500447Y725865D02*
X504407Y729825D01*
X492669Y733643D02*
X496628Y737603D01*
X606629Y551572D02*
Y562572D01*
X601030Y551572D02*
Y562572D01*
X606629D01*
X601030Y551572D02*
X606629D01*
X582630D02*
Y562572D01*
X577029Y551572D02*
Y562572D01*
X582630D01*
X577029Y551572D02*
X582630D01*
X104156D02*
Y562572D01*
X109755Y551572D02*
Y562572D01*
X104156Y551572D02*
X109755D01*
X104156Y562572D02*
X109755D01*
X390173Y864692D02*
X401174D01*
X390173Y870292D02*
X401174D01*
Y864692D02*
Y870292D01*
X390173Y864692D02*
Y870292D01*
X248840Y864452D02*
X259840D01*
X248840Y870052D02*
X259840D01*
Y864452D02*
Y870052D01*
X248840Y864452D02*
Y870052D01*
X136873Y738001D02*
X144651Y745779D01*
X140833Y734042D02*
X148611Y741820D01*
X136873Y738001D02*
X140833Y734042D01*
X144651Y745779D02*
X148611Y741820D01*
X116156Y551572D02*
Y562572D01*
X121756Y551572D02*
Y562572D01*
X116156Y551572D02*
X121756D01*
X116156Y562572D02*
X121756D01*
X390173Y852692D02*
X401174D01*
X390173Y858292D02*
X401174D01*
Y852692D02*
Y858292D01*
X390173Y852692D02*
Y858292D01*
X248840Y852452D02*
X259840D01*
X248840Y858052D02*
X259840D01*
Y852452D02*
Y858052D01*
X248840Y852452D02*
Y858052D01*
X145358Y729516D02*
X153136Y737294D01*
X149318Y725556D02*
X157096Y733335D01*
X145358Y729516D02*
X149318Y725556D01*
X153136Y737294D02*
X157096Y733335D01*
X47460Y551572D02*
Y562572D01*
X41859Y551572D02*
Y562572D01*
X47460D01*
X41859Y551572D02*
X47460D01*
X489090Y863142D02*
X500089D01*
X489090Y857542D02*
X500089D01*
X489090D02*
Y863142D01*
X500089Y857542D02*
Y863142D01*
X489090Y839142D02*
X500089D01*
X489090Y833542D02*
X500089D01*
X489090D02*
Y839142D01*
X500089Y833542D02*
Y839142D01*
X150719Y833542D02*
X161719D01*
X150719Y839142D02*
X161719D01*
Y833542D02*
Y839142D01*
X150719Y833542D02*
Y839142D01*
X86586Y783479D02*
X94364Y791257D01*
X82626Y787439D02*
X90405Y795217D01*
X94364Y791257D01*
X82626Y787439D02*
X86586Y783479D01*
X103557Y766509D02*
X111335Y774287D01*
X99597Y770468D02*
X107375Y778247D01*
X111335Y774287D01*
X99597Y770468D02*
X103557Y766509D01*
X234060Y470622D02*
Y481622D01*
X239660Y470622D02*
Y481622D01*
X234060Y470622D02*
X239660D01*
X234060Y481622D02*
X239660D01*
X222709Y570762D02*
X233709D01*
X222709Y565162D02*
X233709D01*
X222709D02*
Y570762D01*
X233709Y565162D02*
Y570762D01*
X279041Y32202D02*
X290040D01*
X279041Y37802D02*
X290040D01*
X279041Y32202D02*
Y37802D01*
X290040Y32202D02*
Y37802D01*
X359910Y952872D02*
X370910D01*
X359910Y947272D02*
X370910D01*
Y952872D01*
X359910Y947272D02*
Y952872D01*
X279060Y964672D02*
X290060D01*
X279060Y970272D02*
X290060D01*
X279060Y964672D02*
Y970272D01*
X290060Y964672D02*
Y970272D01*
X294699Y445622D02*
Y456622D01*
X300299Y445622D02*
Y456622D01*
X294699Y445622D02*
X300299D01*
X294699Y456622D02*
X300299D01*
X296159Y470172D02*
X307160D01*
X296159Y464572D02*
X307160D01*
X296159D02*
Y470172D01*
X307160Y464572D02*
Y470172D01*
X422029Y462272D02*
Y473272D01*
X427630Y462272D02*
Y473272D01*
X422029Y462272D02*
X427630D01*
X422029Y473272D02*
X427630D01*
X128160Y60172D02*
Y71172D01*
X122559Y60172D02*
Y71172D01*
X128160D01*
X122559Y60172D02*
X128160D01*
X413859Y683172D02*
Y694172D01*
X408260Y683172D02*
Y694172D01*
X413859D01*
X408260Y683172D02*
X413859D01*
X517990Y585122D02*
X548989D01*
X517990Y603122D02*
X548989D01*
Y585122D02*
Y603122D01*
X517990Y585122D02*
Y603122D01*
X101010Y585122D02*
X132009D01*
X101010Y603122D02*
X132009D01*
Y585122D02*
Y603122D01*
X101010Y585122D02*
Y603122D01*
X398120Y815162D02*
Y846162D01*
X416119Y815162D02*
Y846162D01*
X398120Y815162D02*
X416119D01*
X398120Y846162D02*
X416119D01*
X620099Y804072D02*
X645499D01*
X620099Y646672D02*
Y804072D01*
Y646672D02*
X645499D01*
Y804072D01*
X246299Y909772D02*
Y935172D01*
Y909772D02*
X403699D01*
Y935172D01*
X246299D02*
X403699D01*
X4500Y646672D02*
X29899D01*
Y804072D01*
X4500D02*
X29899D01*
X4500Y646672D02*
Y804072D01*
X439630Y462472D02*
Y473072D01*
X434030D02*
X439630D01*
X434030Y462472D02*
Y473072D01*
Y462472D02*
X439630D01*
X53860Y551822D02*
Y562422D01*
Y551822D02*
X59460D01*
Y562422D01*
X53860D02*
X59460D01*
X489290Y845542D02*
X499889D01*
Y851142D01*
X489290D02*
X499889D01*
X489290Y845542D02*
Y851142D01*
X91253Y779095D02*
X98749Y786590D01*
X91253Y779095D02*
X95213Y775135D01*
X102708Y782631D01*
X98749Y786590D02*
X102708Y782631D01*
X327659Y267272D02*
Y277872D01*
X333260D01*
Y267272D02*
Y277872D01*
X327659Y267272D02*
X333260D01*
X292759Y291872D02*
X303360D01*
Y286272D02*
Y291872D01*
X292759Y286272D02*
X303360D01*
X292759D02*
Y291872D01*
X313459Y524572D02*
Y535172D01*
X307859D02*
X313459D01*
X307859Y524572D02*
Y535172D01*
Y524572D02*
X313459D01*
X300760Y524572D02*
Y535172D01*
X295159D02*
X300760D01*
X295159Y524572D02*
Y535172D01*
Y524572D02*
X300760D01*
X589030Y551822D02*
Y562422D01*
Y551822D02*
X594630D01*
Y562422D01*
X589030D02*
X594630D01*
X222909Y577162D02*
X233509D01*
Y582762D01*
X222909D02*
X233509D01*
X222909Y577162D02*
Y582762D01*
X408260Y663672D02*
Y674272D01*
Y663672D02*
X413859D01*
Y674272D01*
X408260D02*
X413859D01*
D12*
X408740Y21722D02*
X416740D01*
Y37722D01*
X408740D02*
X416740D01*
X408740Y21722D02*
Y37722D01*
X424479Y21722D02*
X432480D01*
Y37722D01*
X424479D02*
X432480D01*
X424479Y21722D02*
Y37722D01*
X392999Y21722D02*
Y37722D01*
X400999D01*
Y21722D02*
Y37722D01*
X392999Y21722D02*
X400999D01*
D139*
X18260Y80872D02*
X107660D01*
Y-10828D02*
Y80872D01*
X18260Y-10828D02*
X107660D01*
X18260D02*
Y14272D01*
Y80872D01*
D140*
X197542Y694010D02*
Y720934D01*
X231577D01*
Y694010D02*
Y720934D01*
X197542Y694010D02*
X231577D01*
X223958Y720934D02*
X231577D01*
Y694010D02*
Y720934D01*
X223958Y694010D02*
X231577D01*
X223958D02*
Y720934D01*
X197542Y694010D02*
X205161D01*
X197542D02*
Y720934D01*
X205161D01*
Y694010D02*
Y720934D01*
X236940Y448433D02*
Y462911D01*
Y448433D02*
X244559D01*
Y462911D01*
X236940D02*
X244559D01*
X230180Y448433D02*
Y462911D01*
X222560D02*
X230180D01*
X222560Y448433D02*
Y462911D01*
Y448433D02*
X230180D01*
X222560Y462911D02*
X244559D01*
X222560Y448433D02*
Y462911D01*
Y448433D02*
X244559D01*
Y462911D01*
X453797Y28274D02*
X480722D01*
X453797Y20654D02*
Y28274D01*
Y20654D02*
X480722D01*
Y28274D01*
X453797Y47070D02*
X480722D01*
Y54690D01*
X453797D02*
X480722D01*
X453797Y47070D02*
Y54690D01*
X480722Y20654D02*
Y54690D01*
X453797D02*
X480722D01*
X453797Y20654D02*
Y54690D01*
Y20654D02*
X480722D01*
X558660Y428133D02*
Y442611D01*
X536660Y428133D02*
X558660D01*
X536660D02*
Y442611D01*
X558660D01*
X536660Y428133D02*
X544280D01*
X536660D02*
Y442611D01*
X544280D01*
Y428133D02*
Y442611D01*
X551040D02*
X558660D01*
Y428133D02*
Y442611D01*
X551040Y428133D02*
X558660D01*
X551040D02*
Y442611D01*
X346297Y415454D02*
X373222D01*
X346297D02*
Y449490D01*
X373222D01*
Y415454D02*
Y449490D01*
X346297Y441870D02*
Y449490D01*
X373222D01*
Y441870D02*
Y449490D01*
X346297Y441870D02*
X373222D01*
Y415454D02*
Y423074D01*
X346297Y415454D02*
X373222D01*
X346297D02*
Y423074D01*
X373222D01*
X317379Y404752D02*
Y419230D01*
X309760D02*
X317379D01*
X309760Y404752D02*
Y419230D01*
Y404752D02*
X317379D01*
X324140D02*
Y419230D01*
Y404752D02*
X331759D01*
Y419230D01*
X324140D02*
X331759D01*
X309760Y404752D02*
X331759D01*
Y419230D01*
X309760D02*
X331759D01*
X309760Y404752D02*
Y419230D01*
M02*
