G04*
G04 #@! TF.GenerationSoftware,Altium Limited,Altium Designer,23.1.1 (15)*
G04*
G04 Layer_Color=32768*
%FSLAX44Y44*%
%MOMM*%
G71*
G04*
G04 #@! TF.SameCoordinates,6E2E4CF0-E359-4451-A4CD-7E5F78DB66F6*
G04*
G04*
G04 #@! TF.FilePolarity,Positive*
G04*
G01*
G75*
%ADD13C,0.1524*%
%ADD141C,0.0500*%
D13*
X356446Y691470D02*
X402674D01*
Y723474D01*
X356446D02*
X402674D01*
X356446Y691470D02*
Y723474D01*
X415656Y445893D02*
Y465451D01*
X381464Y445893D02*
X415656D01*
X381464D02*
Y465451D01*
X415656D01*
X600458Y11158D02*
X632462D01*
X600458D02*
Y57386D01*
X632462D01*
Y11158D02*
Y57386D01*
X695564Y445151D02*
X729756D01*
X695564Y425593D02*
Y445151D01*
Y425593D02*
X729756D01*
Y445151D01*
X540762Y409358D02*
Y455586D01*
X508758D02*
X540762D01*
X508758Y409358D02*
Y455586D01*
Y409358D02*
X540762D01*
X468664Y402212D02*
Y421770D01*
X502856D01*
Y402212D02*
Y421770D01*
X468664Y402212D02*
X502856D01*
D141*
X552960Y9900D02*
X565960D01*
Y37900D01*
X552960D02*
X565960D01*
X552960Y9900D02*
Y37900D01*
X568700Y9900D02*
X581700D01*
Y37900D01*
X568700D02*
X581700D01*
X568700Y9900D02*
Y37900D01*
X584440Y9900D02*
X597440D01*
Y37900D01*
X584440D02*
X597440D01*
X584440Y9900D02*
Y37900D01*
X274300Y9930D02*
X287300D01*
Y37930D01*
X274300D02*
X287300D01*
X274300Y9930D02*
Y37930D01*
X712500Y73000D02*
Y86000D01*
Y73000D02*
X740500D01*
Y86000D01*
X712500D02*
X740500D01*
X287830Y-9418D02*
Y51582D01*
Y-9418D02*
X376830D01*
Y51582D01*
X287830D02*
X376830D01*
X565980Y512337D02*
Y531637D01*
X576979Y512337D02*
Y531637D01*
X565980D02*
X576979D01*
X565980Y512337D02*
X576979D01*
X408800Y960200D02*
X571200D01*
Y929800D02*
Y960200D01*
X408800Y929800D02*
X571200D01*
X408800D02*
Y960200D01*
X570660Y677472D02*
X581460D01*
Y660472D02*
Y677472D01*
X570660Y660472D02*
X581460D01*
X570660D02*
Y677472D01*
X889800Y719700D02*
X920200D01*
X889800Y557300D02*
Y719700D01*
Y557300D02*
X920200D01*
Y719700D01*
X59800Y557300D02*
X90200D01*
Y719700D01*
X59800D02*
X90200D01*
X59800Y557300D02*
Y719700D01*
X379830Y5822D02*
X434830D01*
X379830D02*
Y41822D01*
X434830D01*
Y5822D02*
Y41822D01*
X492330Y5822D02*
Y41822D01*
X437330D02*
X492330D01*
X437330Y5822D02*
Y41822D01*
Y5822D02*
X492330D01*
X686110Y63776D02*
X705410D01*
X686110Y74776D02*
X705410D01*
X686110Y63776D02*
Y74776D01*
X705410Y63776D02*
Y74776D01*
X212060Y78722D02*
Y98722D01*
X227060D01*
Y78722D02*
Y98722D01*
X212060Y78722D02*
X227060D01*
X199860Y78522D02*
Y97822D01*
X210860Y78522D02*
Y97822D01*
X199860Y78522D02*
X210860D01*
X199860Y97822D02*
X210860D01*
X169310Y-20028D02*
Y76672D01*
Y-20028D02*
X269810D01*
Y76672D01*
X169310D02*
X269810D01*
X286300Y38696D02*
Y57996D01*
X275300Y38696D02*
Y57996D01*
Y38696D02*
X286300D01*
X275300Y57996D02*
X286300D01*
X741580Y73955D02*
X760880D01*
X741580Y84955D02*
X760880D01*
X741580Y73955D02*
Y84955D01*
X760880Y73955D02*
Y84955D01*
X383260Y467472D02*
Y484472D01*
X372460D02*
X383260D01*
X372460Y467472D02*
Y484472D01*
Y467472D02*
X383260D01*
X596430Y459272D02*
X607230D01*
X596430D02*
Y476272D01*
X607230D01*
Y459272D02*
Y476272D01*
X383559Y562462D02*
Y573462D01*
X402859Y562462D02*
Y573462D01*
X383559Y562462D02*
X402859D01*
X383559Y573462D02*
X402859D01*
X585440Y57996D02*
X596440D01*
X585440Y38696D02*
X596440D01*
X585440D02*
Y57996D01*
X596440Y38696D02*
Y57996D01*
X569700D02*
X580700D01*
X569700Y38696D02*
X580700D01*
X569700D02*
Y57996D01*
X580700Y38696D02*
Y57996D01*
X554000D02*
X565000D01*
X554000Y38696D02*
X565000D01*
X554000D02*
Y57996D01*
X565000Y38696D02*
Y57996D01*
X634860Y10772D02*
Y59972D01*
X709060Y10772D02*
Y59972D01*
X694460D02*
X709060D01*
X694460D02*
Y62872D01*
X649460D02*
X694460D01*
X649460Y59972D02*
Y62872D01*
X634860Y59972D02*
X649460D01*
X634860Y10772D02*
X649460D01*
Y7872D02*
Y10772D01*
Y7872D02*
X694460D01*
Y10772D01*
X709060D01*
X814500Y7850D02*
Y70350D01*
X710500D02*
X814500D01*
X710500Y7850D02*
Y70350D01*
Y7850D02*
X814500D01*
X390960Y618127D02*
Y637427D01*
X379960Y618127D02*
Y637427D01*
Y618127D02*
X390960D01*
X379960Y637427D02*
X390960D01*
X390960Y647672D02*
Y666972D01*
X379960Y647672D02*
Y666972D01*
Y647672D02*
X390960D01*
X379960Y666972D02*
X390960D01*
X361384Y682380D02*
X380684D01*
X361384Y671380D02*
X380684D01*
Y682380D01*
X361384Y671380D02*
Y682380D01*
X402860Y648872D02*
Y665872D01*
X392060D02*
X402860D01*
X392060Y648872D02*
Y665872D01*
Y648872D02*
X402860D01*
X366960Y647672D02*
Y666972D01*
X355960Y647672D02*
Y666972D01*
Y647672D02*
X366960D01*
X355960Y666972D02*
X366960D01*
X378860Y648872D02*
Y665872D01*
X368060D02*
X378860D01*
X368060Y648872D02*
Y665872D01*
Y648872D02*
X378860D01*
X383434Y682284D02*
X400434D01*
X383434Y671484D02*
Y682284D01*
Y671484D02*
X400434D01*
Y682284D01*
X457060Y440872D02*
X467860D01*
Y423872D02*
Y440872D01*
X457060Y423872D02*
X467860D01*
X457060D02*
Y440872D01*
X377010Y540972D02*
Y551972D01*
X357710Y540972D02*
Y551972D01*
X377010D01*
X357710Y540972D02*
X377010D01*
Y529022D02*
Y540022D01*
X357710Y529022D02*
Y540022D01*
X377010D01*
X357710Y529022D02*
X377010D01*
X384460Y467572D02*
Y484572D01*
Y467572D02*
X395260D01*
Y484572D01*
X384460D02*
X395260D01*
X587930Y483472D02*
Y494472D01*
X607230Y483472D02*
Y494472D01*
X587930Y483472D02*
X607230D01*
X587930Y494472D02*
X607230D01*
X410500Y539422D02*
Y749422D01*
Y539422D02*
X569500D01*
Y749422D01*
X410500D02*
X569500D01*
X665860Y63872D02*
Y74672D01*
X648860Y63872D02*
X665860D01*
X648860D02*
Y74672D01*
X665860D01*
X687460Y502942D02*
X698260D01*
Y485942D02*
Y502942D01*
X687460Y485942D02*
X698260D01*
X687460D02*
Y502942D01*
X717560Y446772D02*
Y457572D01*
X700560Y446772D02*
X717560D01*
X700560D02*
Y457572D01*
X717560D01*
X700560Y458772D02*
Y469572D01*
X717560D01*
Y458772D02*
Y469572D01*
X700560Y458772D02*
X717560D01*
X322060Y432572D02*
X415060D01*
Y385572D02*
Y432572D01*
X322060Y385572D02*
X415060D01*
X322060D02*
Y432572D01*
X564940D02*
X657940D01*
Y385572D02*
Y432572D01*
X564940Y385572D02*
X657940D01*
X564940D02*
Y432572D01*
X273410Y483472D02*
Y494472D01*
X292710Y483472D02*
Y494472D01*
X273410Y483472D02*
X292710D01*
X273410Y494472D02*
X292710D01*
X293640Y509972D02*
X371740D01*
X293640Y453972D02*
X371740D01*
X293640D02*
Y509972D01*
X371740Y453972D02*
Y509972D01*
X372460Y502942D02*
X383260D01*
Y485942D02*
Y502942D01*
X372460Y485942D02*
X383260D01*
X372460D02*
Y502942D01*
X269790Y458121D02*
X280790D01*
X269790Y477421D02*
X280790D01*
Y458121D02*
Y477421D01*
X269790Y458121D02*
Y477421D01*
X281890Y459271D02*
X292690D01*
X281890D02*
Y476271D01*
X292690D01*
Y459271D02*
Y476271D01*
X608260Y509972D02*
X686360D01*
X608260Y453972D02*
X686360D01*
X608260D02*
Y509972D01*
X686360Y453972D02*
Y509972D01*
X473860Y666522D02*
X484860D01*
X473860Y647222D02*
X484860D01*
Y666522D01*
X473860Y647222D02*
Y666522D01*
X458260Y647222D02*
X469260D01*
X458260Y666522D02*
X469260D01*
X458260Y647222D02*
Y666522D01*
X469260Y647222D02*
Y666522D01*
X463850Y593022D02*
Y645322D01*
X516150Y593022D02*
Y645322D01*
X463850D02*
X516150D01*
X463850Y593022D02*
X516150D01*
X355960Y637377D02*
X366960D01*
X355960Y618077D02*
X366960D01*
X355960D02*
Y637377D01*
X366960Y618077D02*
Y637377D01*
X368060Y619277D02*
X378860D01*
X368060D02*
Y636277D01*
X378860D01*
Y619277D02*
Y636277D01*
X392060Y619277D02*
X402860D01*
X392060D02*
Y636277D01*
X402860D01*
Y619277D02*
Y636277D01*
X368060Y589422D02*
X378860D01*
X368060D02*
Y606422D01*
X378860D01*
Y589422D02*
Y606422D01*
X392060Y589422D02*
X402860D01*
X392060D02*
Y606422D01*
X402860D01*
Y589422D02*
Y606422D01*
X379960Y607572D02*
X390960D01*
X379960Y588272D02*
X390960D01*
X379960D02*
Y607572D01*
X390960Y588272D02*
Y607572D01*
X355960D02*
X366960D01*
X355960Y588272D02*
X366960D01*
X355960D02*
Y607572D01*
X366960Y588272D02*
Y607572D01*
X505060Y666522D02*
X516060D01*
X505060Y647222D02*
X516060D01*
Y666522D01*
X505060Y647222D02*
Y666522D01*
X489560Y664272D02*
X500360D01*
X489560Y647272D02*
Y664272D01*
Y647272D02*
X500360D01*
Y664272D01*
X549830Y5822D02*
Y41822D01*
X494830D02*
X549830D01*
X494830Y5822D02*
Y41822D01*
Y5822D02*
X549830D01*
X459900Y799500D02*
Y840500D01*
Y799500D02*
X520100D01*
Y840500D01*
X459900D02*
X520100D01*
X472500Y281872D02*
X507500D01*
X472500D02*
Y311872D01*
X507500D01*
Y281872D02*
Y311872D01*
X469760Y423972D02*
X501760D01*
X469760D02*
Y458972D01*
X501760D01*
Y423972D02*
Y458972D01*
X396360Y466472D02*
Y485772D01*
X407360Y466472D02*
Y485772D01*
X396360D02*
X407360D01*
X396360Y466472D02*
X407360D01*
X520760Y816570D02*
X540060D01*
X520760Y805570D02*
X540060D01*
X520760D02*
Y816570D01*
X540060Y805570D02*
Y816570D01*
X439910Y822970D02*
X459210D01*
X439910Y833970D02*
X459210D01*
Y822970D02*
Y833970D01*
X439910Y822970D02*
Y833970D01*
X457000Y441472D02*
Y460772D01*
X468000Y441472D02*
Y460772D01*
X457000D02*
X468000D01*
X457000Y441472D02*
X468000D01*
X457010Y472872D02*
X476310D01*
X457010Y461872D02*
X476310D01*
Y472872D01*
X457010Y461872D02*
Y472872D01*
X584330Y458122D02*
Y477422D01*
X595330Y458122D02*
Y477422D01*
X584330D02*
X595330D01*
X584330Y458122D02*
X595330D01*
X275300Y59396D02*
Y78696D01*
X286300Y59396D02*
Y78696D01*
X275300D02*
X286300D01*
X275300Y59396D02*
X286300D01*
X581560Y679022D02*
Y698322D01*
X570560Y679022D02*
Y698322D01*
Y679022D02*
X581560D01*
X570560Y698322D02*
X581560D01*
X490060Y264072D02*
Y281072D01*
X500860D01*
Y264072D02*
Y281072D01*
X490060Y264072D02*
X500860D01*
X454560Y294472D02*
X471560D01*
Y283672D02*
Y294472D01*
X454560Y283672D02*
X471560D01*
X454560D02*
Y294472D01*
X481060Y521372D02*
Y538372D01*
X470260D02*
X481060D01*
X470260Y521372D02*
Y538372D01*
Y521372D02*
X481060D01*
X468360Y521372D02*
Y538372D01*
X457560D02*
X468360D01*
X457560Y521372D02*
Y538372D01*
Y521372D02*
X468360D01*
X384710Y574562D02*
X401710D01*
Y585362D01*
X384710D02*
X401710D01*
X384710Y574562D02*
Y585362D01*
M02*
