M48
;Layer_Color=9474304
;FILE_FORMAT=4:4
METRIC,LZ
;TYPE=PLATED
T1F00S00C0.2000
T2F00S00C0.2500
T3F00S00C0.4000
T5F00S00C1.0400
T6F00S00C1.0500
T7F00S00C1.0700
T8F00S00C2.5000
;TYPE=NON_PLATED
T9F00S00C0.9000
%
T01
X0006621Y00445472
X0032076Y00448972
Y00441472
Y00433972
T02
X00262829Y00053972
X0032026
X0037784
X00412739Y00087032
X00428359
X0052776Y00072872
X0017476Y00053972
X00062759Y00112272
X0005971Y00445472
X0012236Y00447972
X0012002Y00501332
X00133619Y00521732
Y00531972
Y00542212
Y00552452
X0014691Y00521732
X0018556Y00537172
Y00543672
X00186059Y00643672
Y00666472
X00139389Y00719532
X0008966Y00728572
X00062359
X00056659Y00573372
X0005576Y00519472
X0003136
X0008016
X0020865Y00410412
X00198622Y00372572
X00218599Y00410412
X00218759Y00436572
Y00442572
X0025934Y00409282
X00267746
X00276153
X00284559
X0032006Y00467772
Y00476872
X0033486Y00502872
X00356326
X0037841Y00502822
X00399259Y00502872
X0041681Y00506492
Y00494562
X0041096Y00480372
X00376009Y00526022
X0036755
X0034937Y00519952
X0033236Y00561372
X00325859
X0029256Y00570672
Y00580172
Y00591872
X0026906Y00585172
Y00576672
X0026736Y00614872
X00272959Y00623172
X00266159Y00630372
X0029496Y00642272
X00289459Y00658772
X00279259Y00664972
X0026656Y00677372
X0023906Y00691372
X0023256Y00643672
X0021996Y00543672
Y00537172
X0025506Y00532872
X00287869Y00521732
X00409679Y00559782
Y00568302
X00456359Y00562072
X00513209Y00552712
X0056646Y00552672
X00599259Y00519472
X00536559Y00362238
X0053056
X00461429Y00411462
X00451479
X0036646Y00394672
Y00388672
X0037985Y00604372
X0042416Y00633872
Y00652922
X0044546Y00652772
Y00633872
X00482399Y00723742
X00334689Y00672462
X0062366Y00519472
X00534851Y0079335
X0048082Y0084839
X004166Y00855572
X00393559Y00950072
X00271239Y00855252
X00108259Y00792172
T03
X0003321Y00061772
X00041709
X00050209
X0005871
X0006721
X0007571
X00084209
X0009271
Y00075272
X00084209
X0007571
X0006721
X0005871
X00050209
X00041709
X0003321
T05
X0004149Y00581422
Y00606822
X00071509
Y00581422
X00578489
Y00606822
X00608509
Y00581422
X0054182Y00807282
X00523859Y00825242
X0052092Y00786392
X00502959Y00804352
X0047034Y00830662
X00444939
Y00859462
X0047034
X0020506Y00859461
X0017966
Y00830661
X0020506
X0014704Y00804352
X00129079Y00786392
X0012614Y00825242
X00108179Y00807282
T06
X00596009Y00038272
Y00063272
T07
X00017199Y00661872
Y00687272
Y00712672
X00632799
Y00687272
Y00661872
Y00738072
Y00763472
Y00788872
X00388499Y00922472
X003631
X003377
X00312299
X002869
X002615
X00017199Y00788872
Y00763472
Y00738072
T08
X00629499Y00117372
X00020499
Y00476372
X00629499
T09
X0015233Y00022082
X0018233
M30
