ISO-10303-21;
HEADER;
/* Generated by software containing ST-Developer
 * from STEP Tools, Inc. (www.steptools.com) 
 */

FILE_DESCRIPTION(
/* description */ (''),
/* implementation_level */ '2;1');

FILE_NAME(
/* name */ 'PololuMount3.stp',
/* time_stamp */ '2026-09-03T20:21:02-03:00',
/* author */ ('felip'),
/* organization */ (''),
/* preprocessor_version */ 'ST-DEVELOPER v20.1',
/* originating_system */ 'Autodesk Inventor 2027',
/* authorisation */ '');

FILE_SCHEMA (('AUTOMOTIVE_DESIGN { 1 0 10303 214 3 1 1 }'));
ENDSEC;

DATA;
#10=MECHANICAL_DESIGN_GEOMETRIC_PRESENTATION_REPRESENTATION('',(#13),#1380);
#11=SHAPE_REPRESENTATION_RELATIONSHIP('SRR','None',#1387,#12);
#12=ADVANCED_BREP_SHAPE_REPRESENTATION('',(#14),#1379);
#13=STYLED_ITEM('',(#1396),#14);
#14=MANIFOLD_SOLID_BREP('Solid2',#787);
#15=B_SPLINE_CURVE_WITH_KNOTS('',3,(#1249,#1250,#1251,#1252),
 .UNSPECIFIED.,.F.,.F.,(4,4),(0.505532240038508,0.57755551583026),
 .UNSPECIFIED.);
#16=B_SPLINE_CURVE_WITH_KNOTS('',3,(#1258,#1259,#1260,#1261,#1262,#1263),
 .UNSPECIFIED.,.F.,.F.,(4,2,4),(0.57755551588529,0.581995466601179,0.699558285734087),
 .UNSPECIFIED.);
#17=B_SPLINE_CURVE_WITH_KNOTS('',3,(#1281,#1282,#1283,#1284,#1285,#1286),
 .UNSPECIFIED.,.F.,.F.,(4,2,4),(0.,0.117562819132908,0.122002769848798),
 .UNSPECIFIED.);
#18=B_SPLINE_CURVE_WITH_KNOTS('',3,(#1292,#1293,#1294,#1295),
 .UNSPECIFIED.,.F.,.F.,(4,4),(0.122002769903828,0.19402604569558),
 .UNSPECIFIED.);
#19=TOROIDAL_SURFACE('',#817,6.,3.);
#20=TOROIDAL_SURFACE('',#830,6.,3.);
#21=TOROIDAL_SURFACE('',#850,2.,1.);
#22=TOROIDAL_SURFACE('',#860,2.,1.);
#23=FACE_BOUND('',#103,.T.);
#24=FACE_BOUND('',#106,.T.);
#25=FACE_BOUND('',#107,.T.);
#26=FACE_BOUND('',#108,.T.);
#27=FACE_BOUND('',#109,.T.);
#28=FACE_BOUND('',#110,.T.);
#29=FACE_BOUND('',#117,.T.);
#30=FACE_BOUND('',#118,.T.);
#31=FACE_BOUND('',#134,.T.);
#32=FACE_BOUND('',#135,.T.);
#33=FACE_BOUND('',#151,.T.);
#34=FACE_BOUND('',#152,.T.);
#35=FACE_BOUND('',#153,.T.);
#36=PLANE('',#816);
#37=PLANE('',#822);
#38=PLANE('',#836);
#39=PLANE('',#837);
#40=PLANE('',#838);
#41=PLANE('',#843);
#42=PLANE('',#844);
#43=PLANE('',#847);
#44=PLANE('',#848);
#45=PLANE('',#849);
#46=PLANE('',#857);
#47=PLANE('',#858);
#48=PLANE('',#868);
#49=PLANE('',#875);
#50=PLANE('',#879);
#51=PLANE('',#883);
#52=PLANE('',#888);
#53=PLANE('',#889);
#54=PLANE('',#894);
#55=PLANE('',#895);
#56=PLANE('',#896);
#57=FACE_OUTER_BOUND('',#100,.T.);
#58=FACE_OUTER_BOUND('',#101,.T.);
#59=FACE_OUTER_BOUND('',#102,.T.);
#60=FACE_OUTER_BOUND('',#104,.T.);
#61=FACE_OUTER_BOUND('',#105,.T.);
#62=FACE_OUTER_BOUND('',#111,.T.);
#63=FACE_OUTER_BOUND('',#112,.T.);
#64=FACE_OUTER_BOUND('',#113,.T.);
#65=FACE_OUTER_BOUND('',#114,.T.);
#66=FACE_OUTER_BOUND('',#115,.T.);
#67=FACE_OUTER_BOUND('',#116,.T.);
#68=FACE_OUTER_BOUND('',#119,.T.);
#69=FACE_OUTER_BOUND('',#120,.T.);
#70=FACE_OUTER_BOUND('',#121,.T.);
#71=FACE_OUTER_BOUND('',#122,.T.);
#72=FACE_OUTER_BOUND('',#123,.T.);
#73=FACE_OUTER_BOUND('',#124,.T.);
#74=FACE_OUTER_BOUND('',#125,.T.);
#75=FACE_OUTER_BOUND('',#126,.T.);
#76=FACE_OUTER_BOUND('',#127,.T.);
#77=FACE_OUTER_BOUND('',#128,.T.);
#78=FACE_OUTER_BOUND('',#129,.T.);
#79=FACE_OUTER_BOUND('',#130,.T.);
#80=FACE_OUTER_BOUND('',#131,.T.);
#81=FACE_OUTER_BOUND('',#132,.T.);
#82=FACE_OUTER_BOUND('',#133,.T.);
#83=FACE_OUTER_BOUND('',#136,.T.);
#84=FACE_OUTER_BOUND('',#137,.T.);
#85=FACE_OUTER_BOUND('',#138,.T.);
#86=FACE_OUTER_BOUND('',#139,.T.);
#87=FACE_OUTER_BOUND('',#140,.T.);
#88=FACE_OUTER_BOUND('',#141,.T.);
#89=FACE_OUTER_BOUND('',#142,.T.);
#90=FACE_OUTER_BOUND('',#143,.T.);
#91=FACE_OUTER_BOUND('',#144,.T.);
#92=FACE_OUTER_BOUND('',#145,.T.);
#93=FACE_OUTER_BOUND('',#146,.T.);
#94=FACE_OUTER_BOUND('',#147,.T.);
#95=FACE_OUTER_BOUND('',#148,.T.);
#96=FACE_OUTER_BOUND('',#149,.T.);
#97=FACE_OUTER_BOUND('',#150,.T.);
#98=FACE_OUTER_BOUND('',#154,.T.);
#99=FACE_OUTER_BOUND('',#155,.T.);
#100=EDGE_LOOP('',(#506,#507,#508,#509));
#101=EDGE_LOOP('',(#510,#511,#512,#513));
#102=EDGE_LOOP('',(#514));
#103=EDGE_LOOP('',(#515));
#104=EDGE_LOOP('',(#516,#517,#518,#519,#520));
#105=EDGE_LOOP('',(#521,#522,#523,#524,#525,#526));
#106=EDGE_LOOP('',(#527));
#107=EDGE_LOOP('',(#528));
#108=EDGE_LOOP('',(#529));
#109=EDGE_LOOP('',(#530));
#110=EDGE_LOOP('',(#531));
#111=EDGE_LOOP('',(#532,#533,#534,#535,#536));
#112=EDGE_LOOP('',(#537,#538,#539,#540,#541));
#113=EDGE_LOOP('',(#542,#543,#544,#545,#546));
#114=EDGE_LOOP('',(#547));
#115=EDGE_LOOP('',(#548));
#116=EDGE_LOOP('',(#549,#550,#551,#552,#553,#554,#555,#556,#557,#558,#559,
#560));
#117=EDGE_LOOP('',(#561));
#118=EDGE_LOOP('',(#562));
#119=EDGE_LOOP('',(#563,#564,#565,#566,#567));
#120=EDGE_LOOP('',(#568,#569,#570,#571,#572,#573));
#121=EDGE_LOOP('',(#574,#575,#576,#577));
#122=EDGE_LOOP('',(#578,#579,#580,#581));
#123=EDGE_LOOP('',(#582,#583,#584,#585));
#124=EDGE_LOOP('',(#586,#587,#588,#589,#590));
#125=EDGE_LOOP('',(#591,#592,#593,#594));
#126=EDGE_LOOP('',(#595,#596,#597,#598));
#127=EDGE_LOOP('',(#599,#600,#601,#602));
#128=EDGE_LOOP('',(#603,#604,#605,#606,#607,#608));
#129=EDGE_LOOP('',(#609,#610,#611,#612,#613));
#130=EDGE_LOOP('',(#614,#615,#616,#617));
#131=EDGE_LOOP('',(#618,#619,#620,#621));
#132=EDGE_LOOP('',(#622,#623,#624,#625));
#133=EDGE_LOOP('',(#626,#627,#628,#629,#630,#631,#632,#633));
#134=EDGE_LOOP('',(#634));
#135=EDGE_LOOP('',(#635));
#136=EDGE_LOOP('',(#636,#637,#638,#639));
#137=EDGE_LOOP('',(#640,#641,#642,#643));
#138=EDGE_LOOP('',(#644,#645,#646,#647));
#139=EDGE_LOOP('',(#648,#649,#650,#651));
#140=EDGE_LOOP('',(#652,#653,#654,#655,#656));
#141=EDGE_LOOP('',(#657,#658,#659,#660));
#142=EDGE_LOOP('',(#661,#662,#663,#664,#665,#666,#667,#668,#669,#670,#671,
#672));
#143=EDGE_LOOP('',(#673,#674,#675,#676));
#144=EDGE_LOOP('',(#677,#678,#679,#680));
#145=EDGE_LOOP('',(#681,#682,#683,#684));
#146=EDGE_LOOP('',(#685,#686,#687,#688,#689,#690));
#147=EDGE_LOOP('',(#691,#692,#693,#694,#695));
#148=EDGE_LOOP('',(#696,#697,#698,#699));
#149=EDGE_LOOP('',(#700,#701,#702,#703));
#150=EDGE_LOOP('',(#704,#705,#706,#707,#708,#709));
#151=EDGE_LOOP('',(#710));
#152=EDGE_LOOP('',(#711));
#153=EDGE_LOOP('',(#712));
#154=EDGE_LOOP('',(#713,#714,#715,#716,#717));
#155=EDGE_LOOP('',(#718,#719,#720,#721,#722,#723,#724,#725));
#156=LINE('',#1140,#218);
#157=LINE('',#1146,#219);
#158=LINE('',#1160,#220);
#159=LINE('',#1164,#221);
#160=LINE('',#1166,#222);
#161=LINE('',#1168,#223);
#162=LINE('',#1179,#224);
#163=LINE('',#1189,#225);
#164=LINE('',#1195,#226);
#165=LINE('',#1197,#227);
#166=LINE('',#1199,#228);
#167=LINE('',#1203,#229);
#168=LINE('',#1205,#230);
#169=LINE('',#1206,#231);
#170=LINE('',#1208,#232);
#171=LINE('',#1210,#233);
#172=LINE('',#1212,#234);
#173=LINE('',#1220,#235);
#174=LINE('',#1222,#236);
#175=LINE('',#1224,#237);
#176=LINE('',#1225,#238);
#177=LINE('',#1228,#239);
#178=LINE('',#1232,#240);
#179=LINE('',#1235,#241);
#180=LINE('',#1238,#242);
#181=LINE('',#1240,#243);
#182=LINE('',#1241,#244);
#183=LINE('',#1244,#245);
#184=LINE('',#1245,#246);
#185=LINE('',#1268,#247);
#186=LINE('',#1269,#248);
#187=LINE('',#1271,#249);
#188=LINE('',#1273,#250);
#189=LINE('',#1276,#251);
#190=LINE('',#1297,#252);
#191=LINE('',#1299,#253);
#192=LINE('',#1303,#254);
#193=LINE('',#1306,#255);
#194=LINE('',#1308,#256);
#195=LINE('',#1310,#257);
#196=LINE('',#1311,#258);
#197=LINE('',#1312,#259);
#198=LINE('',#1323,#260);
#199=LINE('',#1326,#261);
#200=LINE('',#1329,#262);
#201=LINE('',#1331,#263);
#202=LINE('',#1332,#264);
#203=LINE('',#1337,#265);
#204=LINE('',#1341,#266);
#205=LINE('',#1342,#267);
#206=LINE('',#1343,#268);
#207=LINE('',#1349,#269);
#208=LINE('',#1352,#270);
#209=LINE('',#1353,#271);
#210=LINE('',#1356,#272);
#211=LINE('',#1358,#273);
#212=LINE('',#1360,#274);
#213=LINE('',#1364,#275);
#214=LINE('',#1368,#276);
#215=LINE('',#1372,#277);
#216=LINE('',#1373,#278);
#217=LINE('',#1375,#279);
#218=VECTOR('',#903,2.1);
#219=VECTOR('',#910,2.5);
#220=VECTOR('',#927,10.);
#221=VECTOR('',#930,10.);
#222=VECTOR('',#931,10.);
#223=VECTOR('',#932,10.);
#224=VECTOR('',#945,3.);
#225=VECTOR('',#958,3.);
#226=VECTOR('',#965,10.);
#227=VECTOR('',#966,10.);
#228=VECTOR('',#967,10.);
#229=VECTOR('',#970,10.);
#230=VECTOR('',#971,10.);
#231=VECTOR('',#972,10.);
#232=VECTOR('',#973,10.);
#233=VECTOR('',#974,10.);
#234=VECTOR('',#975,10.);
#235=VECTOR('',#984,10.);
#236=VECTOR('',#985,10.);
#237=VECTOR('',#986,10.);
#238=VECTOR('',#987,10.);
#239=VECTOR('',#990,10.);
#240=VECTOR('',#993,10.);
#241=VECTOR('',#998,10.);
#242=VECTOR('',#1001,10.);
#243=VECTOR('',#1002,10.);
#244=VECTOR('',#1003,1.);
#245=VECTOR('',#1006,10.);
#246=VECTOR('',#1007,10.);
#247=VECTOR('',#1020,10.);
#248=VECTOR('',#1021,10.);
#249=VECTOR('',#1024,1.);
#250=VECTOR('',#1027,10.);
#251=VECTOR('',#1030,10.);
#252=VECTOR('',#1043,10.);
#253=VECTOR('',#1046,10.);
#254=VECTOR('',#1051,10.);
#255=VECTOR('',#1054,10.);
#256=VECTOR('',#1055,10.);
#257=VECTOR('',#1056,10.);
#258=VECTOR('',#1057,10.);
#259=VECTOR('',#1058,10.);
#260=VECTOR('',#1069,10.);
#261=VECTOR('',#1072,10.);
#262=VECTOR('',#1075,10.);
#263=VECTOR('',#1076,10.);
#264=VECTOR('',#1077,10.);
#265=VECTOR('',#1082,10.);
#266=VECTOR('',#1087,10.);
#267=VECTOR('',#1088,10.);
#268=VECTOR('',#1089,10.);
#269=VECTOR('',#1096,10.);
#270=VECTOR('',#1101,10.);
#271=VECTOR('',#1102,10.);
#272=VECTOR('',#1107,1.25);
#273=VECTOR('',#1110,1.25);
#274=VECTOR('',#1113,10.);
#275=VECTOR('',#1118,0.775);
#276=VECTOR('',#1123,0.775);
#277=VECTOR('',#1128,10.);
#278=VECTOR('',#1129,10.);
#279=VECTOR('',#1132,10.);
#280=CIRCLE('',#811,2.1);
#281=CIRCLE('',#812,2.1);
#282=CIRCLE('',#814,2.5);
#283=CIRCLE('',#815,2.5);
#284=CIRCLE('',#818,3.);
#285=CIRCLE('',#819,3.);
#286=CIRCLE('',#820,3.);
#287=CIRCLE('',#821,6.);
#288=CIRCLE('',#823,1.);
#289=CIRCLE('',#824,1.);
#290=CIRCLE('',#825,6.);
#291=CIRCLE('',#826,0.775);
#292=CIRCLE('',#827,0.775);
#293=CIRCLE('',#829,3.);
#294=CIRCLE('',#831,3.);
#295=CIRCLE('',#832,3.);
#296=CIRCLE('',#833,3.);
#297=CIRCLE('',#835,3.);
#298=CIRCLE('',#839,1.);
#299=CIRCLE('',#840,1.);
#300=CIRCLE('',#841,1.25);
#301=CIRCLE('',#842,1.25);
#302=CIRCLE('',#845,1.);
#303=CIRCLE('',#846,1.);
#304=CIRCLE('',#851,2.);
#305=CIRCLE('',#852,1.);
#306=CIRCLE('',#853,1.);
#307=CIRCLE('',#855,1.);
#308=CIRCLE('',#859,1.);
#309=CIRCLE('',#861,1.);
#310=CIRCLE('',#862,1.);
#311=CIRCLE('',#863,2.);
#312=CIRCLE('',#867,1.);
#313=CIRCLE('',#869,1.25);
#314=CIRCLE('',#870,1.25);
#315=CIRCLE('',#873,0.5);
#316=CIRCLE('',#874,0.5);
#317=CIRCLE('',#877,0.5);
#318=CIRCLE('',#878,0.5);
#319=CIRCLE('',#881,1.);
#320=CIRCLE('',#882,1.);
#321=CIRCLE('',#884,1.);
#322=CIRCLE('',#891,0.775);
#323=CIRCLE('',#893,0.775);
#324=VERTEX_POINT('',#1137);
#325=VERTEX_POINT('',#1139);
#326=VERTEX_POINT('',#1143);
#327=VERTEX_POINT('',#1145);
#328=VERTEX_POINT('',#1150);
#329=VERTEX_POINT('',#1151);
#330=VERTEX_POINT('',#1154);
#331=VERTEX_POINT('',#1158);
#332=VERTEX_POINT('',#1159);
#333=VERTEX_POINT('',#1161);
#334=VERTEX_POINT('',#1163);
#335=VERTEX_POINT('',#1165);
#336=VERTEX_POINT('',#1167);
#337=VERTEX_POINT('',#1170);
#338=VERTEX_POINT('',#1172);
#339=VERTEX_POINT('',#1174);
#340=VERTEX_POINT('',#1177);
#341=VERTEX_POINT('',#1181);
#342=VERTEX_POINT('',#1182);
#343=VERTEX_POINT('',#1187);
#344=VERTEX_POINT('',#1193);
#345=VERTEX_POINT('',#1194);
#346=VERTEX_POINT('',#1196);
#347=VERTEX_POINT('',#1198);
#348=VERTEX_POINT('',#1200);
#349=VERTEX_POINT('',#1202);
#350=VERTEX_POINT('',#1204);
#351=VERTEX_POINT('',#1207);
#352=VERTEX_POINT('',#1209);
#353=VERTEX_POINT('',#1211);
#354=VERTEX_POINT('',#1214);
#355=VERTEX_POINT('',#1216);
#356=VERTEX_POINT('',#1219);
#357=VERTEX_POINT('',#1221);
#358=VERTEX_POINT('',#1223);
#359=VERTEX_POINT('',#1227);
#360=VERTEX_POINT('',#1229);
#361=VERTEX_POINT('',#1231);
#362=VERTEX_POINT('',#1237);
#363=VERTEX_POINT('',#1239);
#364=VERTEX_POINT('',#1243);
#365=VERTEX_POINT('',#1247);
#366=VERTEX_POINT('',#1248);
#367=VERTEX_POINT('',#1253);
#368=VERTEX_POINT('',#1255);
#369=VERTEX_POINT('',#1265);
#370=VERTEX_POINT('',#1266);
#371=VERTEX_POINT('',#1275);
#372=VERTEX_POINT('',#1279);
#373=VERTEX_POINT('',#1280);
#374=VERTEX_POINT('',#1288);
#375=VERTEX_POINT('',#1290);
#376=VERTEX_POINT('',#1301);
#377=VERTEX_POINT('',#1305);
#378=VERTEX_POINT('',#1307);
#379=VERTEX_POINT('',#1309);
#380=VERTEX_POINT('',#1313);
#381=VERTEX_POINT('',#1315);
#382=VERTEX_POINT('',#1319);
#383=VERTEX_POINT('',#1320);
#384=VERTEX_POINT('',#1322);
#385=VERTEX_POINT('',#1324);
#386=VERTEX_POINT('',#1328);
#387=VERTEX_POINT('',#1330);
#388=VERTEX_POINT('',#1334);
#389=VERTEX_POINT('',#1336);
#390=VERTEX_POINT('',#1340);
#391=VERTEX_POINT('',#1345);
#392=VERTEX_POINT('',#1347);
#393=VERTEX_POINT('',#1363);
#394=VERTEX_POINT('',#1367);
#395=VERTEX_POINT('',#1371);
#396=EDGE_CURVE('',#324,#324,#280,.T.);
#397=EDGE_CURVE('',#324,#325,#156,.T.);
#398=EDGE_CURVE('',#325,#325,#281,.T.);
#399=EDGE_CURVE('',#326,#326,#282,.T.);
#400=EDGE_CURVE('',#326,#327,#157,.T.);
#401=EDGE_CURVE('',#327,#327,#283,.T.);
#402=EDGE_CURVE('',#328,#329,#284,.T.);
#403=EDGE_CURVE('',#329,#328,#285,.T.);
#404=EDGE_CURVE('',#328,#330,#286,.T.);
#405=EDGE_CURVE('',#330,#330,#287,.T.);
#406=EDGE_CURVE('',#331,#332,#158,.T.);
#407=EDGE_CURVE('',#333,#332,#288,.T.);
#408=EDGE_CURVE('',#334,#333,#159,.T.);
#409=EDGE_CURVE('',#334,#335,#160,.T.);
#410=EDGE_CURVE('',#336,#335,#161,.T.);
#411=EDGE_CURVE('',#331,#336,#289,.T.);
#412=EDGE_CURVE('',#337,#337,#290,.T.);
#413=EDGE_CURVE('',#338,#338,#291,.T.);
#414=EDGE_CURVE('',#339,#339,#292,.T.);
#415=EDGE_CURVE('',#340,#340,#293,.T.);
#416=EDGE_CURVE('',#340,#329,#162,.T.);
#417=EDGE_CURVE('',#341,#342,#294,.T.);
#418=EDGE_CURVE('',#342,#341,#295,.T.);
#419=EDGE_CURVE('',#341,#337,#296,.T.);
#420=EDGE_CURVE('',#343,#343,#297,.T.);
#421=EDGE_CURVE('',#343,#342,#163,.T.);
#422=EDGE_CURVE('',#344,#345,#164,.T.);
#423=EDGE_CURVE('',#346,#344,#165,.T.);
#424=EDGE_CURVE('',#347,#346,#166,.T.);
#425=EDGE_CURVE('',#348,#347,#298,.T.);
#426=EDGE_CURVE('',#349,#348,#167,.T.);
#427=EDGE_CURVE('',#350,#349,#168,.T.);
#428=EDGE_CURVE('',#335,#350,#169,.T.);
#429=EDGE_CURVE('',#351,#334,#170,.T.);
#430=EDGE_CURVE('',#352,#351,#171,.T.);
#431=EDGE_CURVE('',#353,#352,#172,.T.);
#432=EDGE_CURVE('',#345,#353,#299,.T.);
#433=EDGE_CURVE('',#354,#354,#300,.T.);
#434=EDGE_CURVE('',#355,#355,#301,.T.);
#435=EDGE_CURVE('',#352,#356,#173,.T.);
#436=EDGE_CURVE('',#357,#356,#174,.T.);
#437=EDGE_CURVE('',#358,#357,#175,.T.);
#438=EDGE_CURVE('',#353,#358,#176,.T.);
#439=EDGE_CURVE('',#359,#351,#177,.T.);
#440=EDGE_CURVE('',#360,#359,#302,.T.);
#441=EDGE_CURVE('',#361,#360,#178,.T.);
#442=EDGE_CURVE('',#356,#361,#303,.F.);
#443=EDGE_CURVE('',#359,#333,#179,.T.);
#444=EDGE_CURVE('',#362,#346,#180,.T.);
#445=EDGE_CURVE('',#363,#362,#181,.T.);
#446=EDGE_CURVE('',#347,#363,#182,.T.);
#447=EDGE_CURVE('',#350,#364,#183,.T.);
#448=EDGE_CURVE('',#336,#364,#184,.T.);
#449=EDGE_CURVE('',#365,#366,#15,.F.);
#450=EDGE_CURVE('',#366,#367,#304,.T.);
#451=EDGE_CURVE('',#367,#368,#305,.T.);
#452=EDGE_CURVE('',#368,#358,#306,.T.);
#453=EDGE_CURVE('',#358,#365,#16,.F.);
#454=EDGE_CURVE('',#369,#370,#307,.T.);
#455=EDGE_CURVE('',#370,#368,#185,.T.);
#456=EDGE_CURVE('',#367,#369,#186,.T.);
#457=EDGE_CURVE('',#368,#345,#187,.T.);
#458=EDGE_CURVE('',#344,#370,#188,.T.);
#459=EDGE_CURVE('',#369,#371,#189,.T.);
#460=EDGE_CURVE('',#362,#371,#308,.T.);
#461=EDGE_CURVE('',#372,#373,#17,.T.);
#462=EDGE_CURVE('',#372,#363,#309,.T.);
#463=EDGE_CURVE('',#363,#374,#310,.T.);
#464=EDGE_CURVE('',#374,#375,#311,.T.);
#465=EDGE_CURVE('',#373,#375,#18,.T.);
#466=EDGE_CURVE('',#371,#374,#190,.T.);
#467=EDGE_CURVE('',#372,#348,#191,.T.);
#468=EDGE_CURVE('',#364,#376,#312,.T.);
#469=EDGE_CURVE('',#376,#331,#192,.T.);
#470=EDGE_CURVE('',#377,#376,#193,.T.);
#471=EDGE_CURVE('',#378,#377,#194,.T.);
#472=EDGE_CURVE('',#379,#378,#195,.T.);
#473=EDGE_CURVE('',#361,#379,#196,.T.);
#474=EDGE_CURVE('',#332,#360,#197,.T.);
#475=EDGE_CURVE('',#380,#380,#313,.T.);
#476=EDGE_CURVE('',#381,#381,#314,.T.);
#477=EDGE_CURVE('',#382,#383,#315,.T.);
#478=EDGE_CURVE('',#382,#384,#198,.T.);
#479=EDGE_CURVE('',#384,#385,#316,.T.);
#480=EDGE_CURVE('',#385,#383,#199,.T.);
#481=EDGE_CURVE('',#382,#386,#200,.T.);
#482=EDGE_CURVE('',#387,#386,#201,.T.);
#483=EDGE_CURVE('',#384,#387,#202,.T.);
#484=EDGE_CURVE('',#388,#386,#317,.T.);
#485=EDGE_CURVE('',#388,#389,#203,.T.);
#486=EDGE_CURVE('',#389,#387,#318,.T.);
#487=EDGE_CURVE('',#388,#390,#204,.T.);
#488=EDGE_CURVE('',#390,#366,#205,.T.);
#489=EDGE_CURVE('',#389,#365,#206,.T.);
#490=EDGE_CURVE('',#391,#378,#319,.T.);
#491=EDGE_CURVE('',#377,#392,#320,.F.);
#492=EDGE_CURVE('',#392,#391,#207,.T.);
#493=EDGE_CURVE('',#379,#357,#321,.T.);
#494=EDGE_CURVE('',#391,#372,#208,.T.);
#495=EDGE_CURVE('',#373,#385,#209,.T.);
#496=EDGE_CURVE('',#381,#355,#210,.T.);
#497=EDGE_CURVE('',#380,#354,#211,.T.);
#498=EDGE_CURVE('',#392,#349,#212,.T.);
#499=EDGE_CURVE('',#339,#393,#213,.T.);
#500=EDGE_CURVE('',#393,#393,#322,.T.);
#501=EDGE_CURVE('',#338,#394,#214,.T.);
#502=EDGE_CURVE('',#394,#394,#323,.T.);
#503=EDGE_CURVE('',#395,#383,#215,.T.);
#504=EDGE_CURVE('',#390,#395,#216,.T.);
#505=EDGE_CURVE('',#395,#375,#217,.T.);
#506=ORIENTED_EDGE('',*,*,#396,.F.);
#507=ORIENTED_EDGE('',*,*,#397,.T.);
#508=ORIENTED_EDGE('',*,*,#398,.F.);
#509=ORIENTED_EDGE('',*,*,#397,.F.);
#510=ORIENTED_EDGE('',*,*,#399,.F.);
#511=ORIENTED_EDGE('',*,*,#400,.T.);
#512=ORIENTED_EDGE('',*,*,#401,.T.);
#513=ORIENTED_EDGE('',*,*,#400,.F.);
#514=ORIENTED_EDGE('',*,*,#401,.F.);
#515=ORIENTED_EDGE('',*,*,#398,.T.);
#516=ORIENTED_EDGE('',*,*,#402,.T.);
#517=ORIENTED_EDGE('',*,*,#403,.T.);
#518=ORIENTED_EDGE('',*,*,#404,.T.);
#519=ORIENTED_EDGE('',*,*,#405,.T.);
#520=ORIENTED_EDGE('',*,*,#404,.F.);
#521=ORIENTED_EDGE('',*,*,#406,.T.);
#522=ORIENTED_EDGE('',*,*,#407,.F.);
#523=ORIENTED_EDGE('',*,*,#408,.F.);
#524=ORIENTED_EDGE('',*,*,#409,.T.);
#525=ORIENTED_EDGE('',*,*,#410,.F.);
#526=ORIENTED_EDGE('',*,*,#411,.F.);
#527=ORIENTED_EDGE('',*,*,#399,.T.);
#528=ORIENTED_EDGE('',*,*,#412,.F.);
#529=ORIENTED_EDGE('',*,*,#413,.F.);
#530=ORIENTED_EDGE('',*,*,#414,.F.);
#531=ORIENTED_EDGE('',*,*,#405,.F.);
#532=ORIENTED_EDGE('',*,*,#415,.F.);
#533=ORIENTED_EDGE('',*,*,#416,.T.);
#534=ORIENTED_EDGE('',*,*,#402,.F.);
#535=ORIENTED_EDGE('',*,*,#403,.F.);
#536=ORIENTED_EDGE('',*,*,#416,.F.);
#537=ORIENTED_EDGE('',*,*,#417,.T.);
#538=ORIENTED_EDGE('',*,*,#418,.T.);
#539=ORIENTED_EDGE('',*,*,#419,.T.);
#540=ORIENTED_EDGE('',*,*,#412,.T.);
#541=ORIENTED_EDGE('',*,*,#419,.F.);
#542=ORIENTED_EDGE('',*,*,#420,.F.);
#543=ORIENTED_EDGE('',*,*,#421,.T.);
#544=ORIENTED_EDGE('',*,*,#417,.F.);
#545=ORIENTED_EDGE('',*,*,#418,.F.);
#546=ORIENTED_EDGE('',*,*,#421,.F.);
#547=ORIENTED_EDGE('',*,*,#420,.T.);
#548=ORIENTED_EDGE('',*,*,#415,.T.);
#549=ORIENTED_EDGE('',*,*,#422,.F.);
#550=ORIENTED_EDGE('',*,*,#423,.F.);
#551=ORIENTED_EDGE('',*,*,#424,.F.);
#552=ORIENTED_EDGE('',*,*,#425,.F.);
#553=ORIENTED_EDGE('',*,*,#426,.F.);
#554=ORIENTED_EDGE('',*,*,#427,.F.);
#555=ORIENTED_EDGE('',*,*,#428,.F.);
#556=ORIENTED_EDGE('',*,*,#409,.F.);
#557=ORIENTED_EDGE('',*,*,#429,.F.);
#558=ORIENTED_EDGE('',*,*,#430,.F.);
#559=ORIENTED_EDGE('',*,*,#431,.F.);
#560=ORIENTED_EDGE('',*,*,#432,.F.);
#561=ORIENTED_EDGE('',*,*,#433,.F.);
#562=ORIENTED_EDGE('',*,*,#434,.F.);
#563=ORIENTED_EDGE('',*,*,#431,.T.);
#564=ORIENTED_EDGE('',*,*,#435,.T.);
#565=ORIENTED_EDGE('',*,*,#436,.F.);
#566=ORIENTED_EDGE('',*,*,#437,.F.);
#567=ORIENTED_EDGE('',*,*,#438,.F.);
#568=ORIENTED_EDGE('',*,*,#430,.T.);
#569=ORIENTED_EDGE('',*,*,#439,.F.);
#570=ORIENTED_EDGE('',*,*,#440,.F.);
#571=ORIENTED_EDGE('',*,*,#441,.F.);
#572=ORIENTED_EDGE('',*,*,#442,.F.);
#573=ORIENTED_EDGE('',*,*,#435,.F.);
#574=ORIENTED_EDGE('',*,*,#429,.T.);
#575=ORIENTED_EDGE('',*,*,#408,.T.);
#576=ORIENTED_EDGE('',*,*,#443,.F.);
#577=ORIENTED_EDGE('',*,*,#439,.T.);
#578=ORIENTED_EDGE('',*,*,#424,.T.);
#579=ORIENTED_EDGE('',*,*,#444,.F.);
#580=ORIENTED_EDGE('',*,*,#445,.F.);
#581=ORIENTED_EDGE('',*,*,#446,.F.);
#582=ORIENTED_EDGE('',*,*,#428,.T.);
#583=ORIENTED_EDGE('',*,*,#447,.T.);
#584=ORIENTED_EDGE('',*,*,#448,.F.);
#585=ORIENTED_EDGE('',*,*,#410,.T.);
#586=ORIENTED_EDGE('',*,*,#449,.T.);
#587=ORIENTED_EDGE('',*,*,#450,.T.);
#588=ORIENTED_EDGE('',*,*,#451,.T.);
#589=ORIENTED_EDGE('',*,*,#452,.T.);
#590=ORIENTED_EDGE('',*,*,#453,.T.);
#591=ORIENTED_EDGE('',*,*,#454,.T.);
#592=ORIENTED_EDGE('',*,*,#455,.T.);
#593=ORIENTED_EDGE('',*,*,#451,.F.);
#594=ORIENTED_EDGE('',*,*,#456,.T.);
#595=ORIENTED_EDGE('',*,*,#432,.T.);
#596=ORIENTED_EDGE('',*,*,#438,.T.);
#597=ORIENTED_EDGE('',*,*,#452,.F.);
#598=ORIENTED_EDGE('',*,*,#457,.T.);
#599=ORIENTED_EDGE('',*,*,#422,.T.);
#600=ORIENTED_EDGE('',*,*,#457,.F.);
#601=ORIENTED_EDGE('',*,*,#455,.F.);
#602=ORIENTED_EDGE('',*,*,#458,.F.);
#603=ORIENTED_EDGE('',*,*,#423,.T.);
#604=ORIENTED_EDGE('',*,*,#458,.T.);
#605=ORIENTED_EDGE('',*,*,#454,.F.);
#606=ORIENTED_EDGE('',*,*,#459,.T.);
#607=ORIENTED_EDGE('',*,*,#460,.F.);
#608=ORIENTED_EDGE('',*,*,#444,.T.);
#609=ORIENTED_EDGE('',*,*,#461,.F.);
#610=ORIENTED_EDGE('',*,*,#462,.T.);
#611=ORIENTED_EDGE('',*,*,#463,.T.);
#612=ORIENTED_EDGE('',*,*,#464,.T.);
#613=ORIENTED_EDGE('',*,*,#465,.F.);
#614=ORIENTED_EDGE('',*,*,#460,.T.);
#615=ORIENTED_EDGE('',*,*,#466,.T.);
#616=ORIENTED_EDGE('',*,*,#463,.F.);
#617=ORIENTED_EDGE('',*,*,#445,.T.);
#618=ORIENTED_EDGE('',*,*,#425,.T.);
#619=ORIENTED_EDGE('',*,*,#446,.T.);
#620=ORIENTED_EDGE('',*,*,#462,.F.);
#621=ORIENTED_EDGE('',*,*,#467,.T.);
#622=ORIENTED_EDGE('',*,*,#411,.T.);
#623=ORIENTED_EDGE('',*,*,#448,.T.);
#624=ORIENTED_EDGE('',*,*,#468,.T.);
#625=ORIENTED_EDGE('',*,*,#469,.T.);
#626=ORIENTED_EDGE('',*,*,#469,.F.);
#627=ORIENTED_EDGE('',*,*,#470,.F.);
#628=ORIENTED_EDGE('',*,*,#471,.F.);
#629=ORIENTED_EDGE('',*,*,#472,.F.);
#630=ORIENTED_EDGE('',*,*,#473,.F.);
#631=ORIENTED_EDGE('',*,*,#441,.T.);
#632=ORIENTED_EDGE('',*,*,#474,.F.);
#633=ORIENTED_EDGE('',*,*,#406,.F.);
#634=ORIENTED_EDGE('',*,*,#475,.T.);
#635=ORIENTED_EDGE('',*,*,#476,.T.);
#636=ORIENTED_EDGE('',*,*,#440,.T.);
#637=ORIENTED_EDGE('',*,*,#443,.T.);
#638=ORIENTED_EDGE('',*,*,#407,.T.);
#639=ORIENTED_EDGE('',*,*,#474,.T.);
#640=ORIENTED_EDGE('',*,*,#477,.F.);
#641=ORIENTED_EDGE('',*,*,#478,.T.);
#642=ORIENTED_EDGE('',*,*,#479,.T.);
#643=ORIENTED_EDGE('',*,*,#480,.T.);
#644=ORIENTED_EDGE('',*,*,#478,.F.);
#645=ORIENTED_EDGE('',*,*,#481,.T.);
#646=ORIENTED_EDGE('',*,*,#482,.F.);
#647=ORIENTED_EDGE('',*,*,#483,.F.);
#648=ORIENTED_EDGE('',*,*,#484,.F.);
#649=ORIENTED_EDGE('',*,*,#485,.T.);
#650=ORIENTED_EDGE('',*,*,#486,.T.);
#651=ORIENTED_EDGE('',*,*,#482,.T.);
#652=ORIENTED_EDGE('',*,*,#485,.F.);
#653=ORIENTED_EDGE('',*,*,#487,.T.);
#654=ORIENTED_EDGE('',*,*,#488,.T.);
#655=ORIENTED_EDGE('',*,*,#449,.F.);
#656=ORIENTED_EDGE('',*,*,#489,.F.);
#657=ORIENTED_EDGE('',*,*,#490,.T.);
#658=ORIENTED_EDGE('',*,*,#471,.T.);
#659=ORIENTED_EDGE('',*,*,#491,.T.);
#660=ORIENTED_EDGE('',*,*,#492,.T.);
#661=ORIENTED_EDGE('',*,*,#437,.T.);
#662=ORIENTED_EDGE('',*,*,#493,.F.);
#663=ORIENTED_EDGE('',*,*,#472,.T.);
#664=ORIENTED_EDGE('',*,*,#490,.F.);
#665=ORIENTED_EDGE('',*,*,#494,.T.);
#666=ORIENTED_EDGE('',*,*,#461,.T.);
#667=ORIENTED_EDGE('',*,*,#495,.T.);
#668=ORIENTED_EDGE('',*,*,#479,.F.);
#669=ORIENTED_EDGE('',*,*,#483,.T.);
#670=ORIENTED_EDGE('',*,*,#486,.F.);
#671=ORIENTED_EDGE('',*,*,#489,.T.);
#672=ORIENTED_EDGE('',*,*,#453,.F.);
#673=ORIENTED_EDGE('',*,*,#493,.T.);
#674=ORIENTED_EDGE('',*,*,#436,.T.);
#675=ORIENTED_EDGE('',*,*,#442,.T.);
#676=ORIENTED_EDGE('',*,*,#473,.T.);
#677=ORIENTED_EDGE('',*,*,#476,.F.);
#678=ORIENTED_EDGE('',*,*,#496,.T.);
#679=ORIENTED_EDGE('',*,*,#434,.T.);
#680=ORIENTED_EDGE('',*,*,#496,.F.);
#681=ORIENTED_EDGE('',*,*,#475,.F.);
#682=ORIENTED_EDGE('',*,*,#497,.T.);
#683=ORIENTED_EDGE('',*,*,#433,.T.);
#684=ORIENTED_EDGE('',*,*,#497,.F.);
#685=ORIENTED_EDGE('',*,*,#427,.T.);
#686=ORIENTED_EDGE('',*,*,#498,.F.);
#687=ORIENTED_EDGE('',*,*,#491,.F.);
#688=ORIENTED_EDGE('',*,*,#470,.T.);
#689=ORIENTED_EDGE('',*,*,#468,.F.);
#690=ORIENTED_EDGE('',*,*,#447,.F.);
#691=ORIENTED_EDGE('',*,*,#426,.T.);
#692=ORIENTED_EDGE('',*,*,#467,.F.);
#693=ORIENTED_EDGE('',*,*,#494,.F.);
#694=ORIENTED_EDGE('',*,*,#492,.F.);
#695=ORIENTED_EDGE('',*,*,#498,.T.);
#696=ORIENTED_EDGE('',*,*,#414,.T.);
#697=ORIENTED_EDGE('',*,*,#499,.T.);
#698=ORIENTED_EDGE('',*,*,#500,.T.);
#699=ORIENTED_EDGE('',*,*,#499,.F.);
#700=ORIENTED_EDGE('',*,*,#413,.T.);
#701=ORIENTED_EDGE('',*,*,#501,.T.);
#702=ORIENTED_EDGE('',*,*,#502,.F.);
#703=ORIENTED_EDGE('',*,*,#501,.F.);
#704=ORIENTED_EDGE('',*,*,#477,.T.);
#705=ORIENTED_EDGE('',*,*,#503,.F.);
#706=ORIENTED_EDGE('',*,*,#504,.F.);
#707=ORIENTED_EDGE('',*,*,#487,.F.);
#708=ORIENTED_EDGE('',*,*,#484,.T.);
#709=ORIENTED_EDGE('',*,*,#481,.F.);
#710=ORIENTED_EDGE('',*,*,#500,.F.);
#711=ORIENTED_EDGE('',*,*,#396,.T.);
#712=ORIENTED_EDGE('',*,*,#502,.T.);
#713=ORIENTED_EDGE('',*,*,#480,.F.);
#714=ORIENTED_EDGE('',*,*,#495,.F.);
#715=ORIENTED_EDGE('',*,*,#465,.T.);
#716=ORIENTED_EDGE('',*,*,#505,.F.);
#717=ORIENTED_EDGE('',*,*,#503,.T.);
#718=ORIENTED_EDGE('',*,*,#450,.F.);
#719=ORIENTED_EDGE('',*,*,#488,.F.);
#720=ORIENTED_EDGE('',*,*,#504,.T.);
#721=ORIENTED_EDGE('',*,*,#505,.T.);
#722=ORIENTED_EDGE('',*,*,#464,.F.);
#723=ORIENTED_EDGE('',*,*,#466,.F.);
#724=ORIENTED_EDGE('',*,*,#459,.F.);
#725=ORIENTED_EDGE('',*,*,#456,.F.);
#726=CYLINDRICAL_SURFACE('',#810,2.1);
#727=CYLINDRICAL_SURFACE('',#813,2.5);
#728=CYLINDRICAL_SURFACE('',#828,3.);
#729=CYLINDRICAL_SURFACE('',#834,3.);
#730=CYLINDRICAL_SURFACE('',#854,1.);
#731=CYLINDRICAL_SURFACE('',#856,1.);
#732=CYLINDRICAL_SURFACE('',#864,1.);
#733=CYLINDRICAL_SURFACE('',#865,1.);
#734=CYLINDRICAL_SURFACE('',#866,1.);
#735=CYLINDRICAL_SURFACE('',#871,1.);
#736=CYLINDRICAL_SURFACE('',#872,0.5);
#737=CYLINDRICAL_SURFACE('',#876,0.5);
#738=CYLINDRICAL_SURFACE('',#880,1.);
#739=CYLINDRICAL_SURFACE('',#885,1.);
#740=CYLINDRICAL_SURFACE('',#886,1.25);
#741=CYLINDRICAL_SURFACE('',#887,1.25);
#742=CYLINDRICAL_SURFACE('',#890,0.775);
#743=CYLINDRICAL_SURFACE('',#892,0.775);
#744=ADVANCED_FACE('',(#57),#726,.F.);
#745=ADVANCED_FACE('',(#58),#727,.F.);
#746=ADVANCED_FACE('',(#59,#23),#36,.T.);
#747=ADVANCED_FACE('',(#60),#19,.F.);
#748=ADVANCED_FACE('',(#61,#24,#25,#26,#27,#28),#37,.T.);
#749=ADVANCED_FACE('',(#62),#728,.T.);
#750=ADVANCED_FACE('',(#63),#20,.F.);
#751=ADVANCED_FACE('',(#64),#729,.T.);
#752=ADVANCED_FACE('',(#65),#38,.F.);
#753=ADVANCED_FACE('',(#66),#39,.F.);
#754=ADVANCED_FACE('',(#67,#29,#30),#40,.F.);
#755=ADVANCED_FACE('',(#68),#41,.T.);
#756=ADVANCED_FACE('',(#69),#42,.T.);
#757=ADVANCED_FACE('',(#70),#43,.T.);
#758=ADVANCED_FACE('',(#71),#44,.T.);
#759=ADVANCED_FACE('',(#72),#45,.T.);
#760=ADVANCED_FACE('',(#73),#21,.T.);
#761=ADVANCED_FACE('',(#74),#730,.T.);
#762=ADVANCED_FACE('',(#75),#731,.F.);
#763=ADVANCED_FACE('',(#76),#46,.T.);
#764=ADVANCED_FACE('',(#77),#47,.T.);
#765=ADVANCED_FACE('',(#78),#22,.T.);
#766=ADVANCED_FACE('',(#79),#732,.T.);
#767=ADVANCED_FACE('',(#80),#733,.F.);
#768=ADVANCED_FACE('',(#81),#734,.T.);
#769=ADVANCED_FACE('',(#82,#31,#32),#48,.T.);
#770=ADVANCED_FACE('',(#83),#735,.T.);
#771=ADVANCED_FACE('',(#84),#736,.F.);
#772=ADVANCED_FACE('',(#85),#49,.T.);
#773=ADVANCED_FACE('',(#86),#737,.F.);
#774=ADVANCED_FACE('',(#87),#50,.T.);
#775=ADVANCED_FACE('',(#88),#738,.T.);
#776=ADVANCED_FACE('',(#89),#51,.T.);
#777=ADVANCED_FACE('',(#90),#739,.T.);
#778=ADVANCED_FACE('',(#91),#740,.F.);
#779=ADVANCED_FACE('',(#92),#741,.F.);
#780=ADVANCED_FACE('',(#93),#52,.T.);
#781=ADVANCED_FACE('',(#94),#53,.T.);
#782=ADVANCED_FACE('',(#95),#742,.F.);
#783=ADVANCED_FACE('',(#96),#743,.F.);
#784=ADVANCED_FACE('',(#97,#33,#34,#35),#54,.T.);
#785=ADVANCED_FACE('',(#98),#55,.T.);
#786=ADVANCED_FACE('',(#99),#56,.T.);
#787=CLOSED_SHELL('',(#744,#745,#746,#747,#748,#749,#750,#751,#752,#753,
#754,#755,#756,#757,#758,#759,#760,#761,#762,#763,#764,#765,#766,#767,#768,
#769,#770,#771,#772,#773,#774,#775,#776,#777,#778,#779,#780,#781,#782,#783,
#784,#785,#786));
#788=DERIVED_UNIT_ELEMENT(#791,1.);
#789=DERIVED_UNIT_ELEMENT(#1382,-3.);
#790=DIMENSIONAL_EXPONENTS(0.,1.,0.,0.,0.,0.,0.);
#791=(
CONVERSION_BASED_UNIT('gram',#793)
MASS_UNIT()
NAMED_UNIT(#790)
);
#792=(
MASS_UNIT()
NAMED_UNIT(*)
SI_UNIT(.KILO.,.GRAM.)
);
#793=MASS_MEASURE_WITH_UNIT(MASS_MEASURE(0.001),#792);
#794=DERIVED_UNIT((#788,#789));
#795=MEASURE_REPRESENTATION_ITEM('density measure',
POSITIVE_RATIO_MEASURE(1.),#794);
#796=PROPERTY_DEFINITION_REPRESENTATION(#801,#798);
#797=PROPERTY_DEFINITION_REPRESENTATION(#802,#799);
#798=REPRESENTATION('material name',(#800),#1379);
#799=REPRESENTATION('density',(#795),#1379);
#800=DESCRIPTIVE_REPRESENTATION_ITEM('Generic','Generic');
#801=PROPERTY_DEFINITION('material property','material name',#1389);
#802=PROPERTY_DEFINITION('material property','density of part',#1389);
#803=DATE_TIME_ROLE('creation_date');
#804=APPLIED_DATE_AND_TIME_ASSIGNMENT(#805,#803,(#1389));
#805=DATE_AND_TIME(#806,#807);
#806=CALENDAR_DATE(2026,10,8);
#807=LOCAL_TIME(0,58,6.,#808);
#808=COORDINATED_UNIVERSAL_TIME_OFFSET(0,0,.BEHIND.);
#809=AXIS2_PLACEMENT_3D('',#1135,#897,#898);
#810=AXIS2_PLACEMENT_3D('',#1136,#899,#900);
#811=AXIS2_PLACEMENT_3D('',#1138,#901,#902);
#812=AXIS2_PLACEMENT_3D('',#1141,#904,#905);
#813=AXIS2_PLACEMENT_3D('',#1142,#906,#907);
#814=AXIS2_PLACEMENT_3D('',#1144,#908,#909);
#815=AXIS2_PLACEMENT_3D('',#1147,#911,#912);
#816=AXIS2_PLACEMENT_3D('',#1148,#913,#914);
#817=AXIS2_PLACEMENT_3D('',#1149,#915,#916);
#818=AXIS2_PLACEMENT_3D('',#1152,#917,#918);
#819=AXIS2_PLACEMENT_3D('',#1153,#919,#920);
#820=AXIS2_PLACEMENT_3D('',#1155,#921,#922);
#821=AXIS2_PLACEMENT_3D('',#1156,#923,#924);
#822=AXIS2_PLACEMENT_3D('',#1157,#925,#926);
#823=AXIS2_PLACEMENT_3D('',#1162,#928,#929);
#824=AXIS2_PLACEMENT_3D('',#1169,#933,#934);
#825=AXIS2_PLACEMENT_3D('',#1171,#935,#936);
#826=AXIS2_PLACEMENT_3D('',#1173,#937,#938);
#827=AXIS2_PLACEMENT_3D('',#1175,#939,#940);
#828=AXIS2_PLACEMENT_3D('',#1176,#941,#942);
#829=AXIS2_PLACEMENT_3D('',#1178,#943,#944);
#830=AXIS2_PLACEMENT_3D('',#1180,#946,#947);
#831=AXIS2_PLACEMENT_3D('',#1183,#948,#949);
#832=AXIS2_PLACEMENT_3D('',#1184,#950,#951);
#833=AXIS2_PLACEMENT_3D('',#1185,#952,#953);
#834=AXIS2_PLACEMENT_3D('',#1186,#954,#955);
#835=AXIS2_PLACEMENT_3D('',#1188,#956,#957);
#836=AXIS2_PLACEMENT_3D('',#1190,#959,#960);
#837=AXIS2_PLACEMENT_3D('',#1191,#961,#962);
#838=AXIS2_PLACEMENT_3D('',#1192,#963,#964);
#839=AXIS2_PLACEMENT_3D('',#1201,#968,#969);
#840=AXIS2_PLACEMENT_3D('',#1213,#976,#977);
#841=AXIS2_PLACEMENT_3D('',#1215,#978,#979);
#842=AXIS2_PLACEMENT_3D('',#1217,#980,#981);
#843=AXIS2_PLACEMENT_3D('',#1218,#982,#983);
#844=AXIS2_PLACEMENT_3D('',#1226,#988,#989);
#845=AXIS2_PLACEMENT_3D('',#1230,#991,#992);
#846=AXIS2_PLACEMENT_3D('',#1233,#994,#995);
#847=AXIS2_PLACEMENT_3D('',#1234,#996,#997);
#848=AXIS2_PLACEMENT_3D('',#1236,#999,#1000);
#849=AXIS2_PLACEMENT_3D('',#1242,#1004,#1005);
#850=AXIS2_PLACEMENT_3D('',#1246,#1008,#1009);
#851=AXIS2_PLACEMENT_3D('',#1254,#1010,#1011);
#852=AXIS2_PLACEMENT_3D('',#1256,#1012,#1013);
#853=AXIS2_PLACEMENT_3D('',#1257,#1014,#1015);
#854=AXIS2_PLACEMENT_3D('',#1264,#1016,#1017);
#855=AXIS2_PLACEMENT_3D('',#1267,#1018,#1019);
#856=AXIS2_PLACEMENT_3D('',#1270,#1022,#1023);
#857=AXIS2_PLACEMENT_3D('',#1272,#1025,#1026);
#858=AXIS2_PLACEMENT_3D('',#1274,#1028,#1029);
#859=AXIS2_PLACEMENT_3D('',#1277,#1031,#1032);
#860=AXIS2_PLACEMENT_3D('',#1278,#1033,#1034);
#861=AXIS2_PLACEMENT_3D('',#1287,#1035,#1036);
#862=AXIS2_PLACEMENT_3D('',#1289,#1037,#1038);
#863=AXIS2_PLACEMENT_3D('',#1291,#1039,#1040);
#864=AXIS2_PLACEMENT_3D('',#1296,#1041,#1042);
#865=AXIS2_PLACEMENT_3D('',#1298,#1044,#1045);
#866=AXIS2_PLACEMENT_3D('',#1300,#1047,#1048);
#867=AXIS2_PLACEMENT_3D('',#1302,#1049,#1050);
#868=AXIS2_PLACEMENT_3D('',#1304,#1052,#1053);
#869=AXIS2_PLACEMENT_3D('',#1314,#1059,#1060);
#870=AXIS2_PLACEMENT_3D('',#1316,#1061,#1062);
#871=AXIS2_PLACEMENT_3D('',#1317,#1063,#1064);
#872=AXIS2_PLACEMENT_3D('',#1318,#1065,#1066);
#873=AXIS2_PLACEMENT_3D('',#1321,#1067,#1068);
#874=AXIS2_PLACEMENT_3D('',#1325,#1070,#1071);
#875=AXIS2_PLACEMENT_3D('',#1327,#1073,#1074);
#876=AXIS2_PLACEMENT_3D('',#1333,#1078,#1079);
#877=AXIS2_PLACEMENT_3D('',#1335,#1080,#1081);
#878=AXIS2_PLACEMENT_3D('',#1338,#1083,#1084);
#879=AXIS2_PLACEMENT_3D('',#1339,#1085,#1086);
#880=AXIS2_PLACEMENT_3D('',#1344,#1090,#1091);
#881=AXIS2_PLACEMENT_3D('',#1346,#1092,#1093);
#882=AXIS2_PLACEMENT_3D('',#1348,#1094,#1095);
#883=AXIS2_PLACEMENT_3D('',#1350,#1097,#1098);
#884=AXIS2_PLACEMENT_3D('',#1351,#1099,#1100);
#885=AXIS2_PLACEMENT_3D('',#1354,#1103,#1104);
#886=AXIS2_PLACEMENT_3D('',#1355,#1105,#1106);
#887=AXIS2_PLACEMENT_3D('',#1357,#1108,#1109);
#888=AXIS2_PLACEMENT_3D('',#1359,#1111,#1112);
#889=AXIS2_PLACEMENT_3D('',#1361,#1114,#1115);
#890=AXIS2_PLACEMENT_3D('',#1362,#1116,#1117);
#891=AXIS2_PLACEMENT_3D('',#1365,#1119,#1120);
#892=AXIS2_PLACEMENT_3D('',#1366,#1121,#1122);
#893=AXIS2_PLACEMENT_3D('',#1369,#1124,#1125);
#894=AXIS2_PLACEMENT_3D('',#1370,#1126,#1127);
#895=AXIS2_PLACEMENT_3D('',#1374,#1130,#1131);
#896=AXIS2_PLACEMENT_3D('',#1376,#1133,#1134);
#897=DIRECTION('axis',(0.,0.,1.));
#898=DIRECTION('refdir',(1.,0.,0.));
#899=DIRECTION('center_axis',(0.,0.,-1.));
#900=DIRECTION('ref_axis',(-1.,0.,0.));
#901=DIRECTION('center_axis',(0.,0.,1.));
#902=DIRECTION('ref_axis',(-1.,0.,0.));
#903=DIRECTION('',(0.,0.,1.));
#904=DIRECTION('center_axis',(0.,0.,-1.));
#905=DIRECTION('ref_axis',(-1.,0.,0.));
#906=DIRECTION('center_axis',(0.,0.,-1.));
#907=DIRECTION('ref_axis',(1.,0.,0.));
#908=DIRECTION('center_axis',(0.,0.,-1.));
#909=DIRECTION('ref_axis',(1.,0.,0.));
#910=DIRECTION('',(0.,0.,-1.));
#911=DIRECTION('center_axis',(0.,0.,-1.));
#912=DIRECTION('ref_axis',(1.,0.,0.));
#913=DIRECTION('center_axis',(0.,0.,1.));
#914=DIRECTION('ref_axis',(1.,0.,0.));
#915=DIRECTION('center_axis',(0.,0.,-1.));
#916=DIRECTION('ref_axis',(0.851235925733107,-0.524783192129188,0.));
#917=DIRECTION('center_axis',(0.,0.,-1.));
#918=DIRECTION('ref_axis',(0.851235925733107,-0.524783192129188,0.));
#919=DIRECTION('center_axis',(0.,0.,-1.));
#920=DIRECTION('ref_axis',(0.851235925733107,-0.524783192129188,0.));
#921=DIRECTION('center_axis',(0.524783192129188,0.851235925733107,0.));
#922=DIRECTION('ref_axis',(-0.851235925733107,0.524783192129188,0.));
#923=DIRECTION('center_axis',(0.,0.,1.));
#924=DIRECTION('ref_axis',(0.851235925733107,-0.524783192129188,0.));
#925=DIRECTION('center_axis',(0.,0.,1.));
#926=DIRECTION('ref_axis',(1.,0.,0.));
#927=DIRECTION('',(-1.,0.,0.));
#928=DIRECTION('center_axis',(0.,0.,-1.));
#929=DIRECTION('ref_axis',(-0.707106781186549,0.707106781186546,0.));
#930=DIRECTION('',(0.,1.,0.));
#931=DIRECTION('',(1.,0.,0.));
#932=DIRECTION('',(0.,-1.,0.));
#933=DIRECTION('center_axis',(0.,0.,-1.));
#934=DIRECTION('ref_axis',(0.707106781186549,0.707106781186546,0.));
#935=DIRECTION('center_axis',(0.,0.,1.));
#936=DIRECTION('ref_axis',(-0.0146866440681359,-0.999892145426703,0.));
#937=DIRECTION('center_axis',(0.,0.,1.));
#938=DIRECTION('ref_axis',(-1.,0.,0.));
#939=DIRECTION('center_axis',(0.,0.,1.));
#940=DIRECTION('ref_axis',(-1.,0.,0.));
#941=DIRECTION('center_axis',(0.,0.,1.));
#942=DIRECTION('ref_axis',(-1.,0.,0.));
#943=DIRECTION('center_axis',(0.,0.,1.));
#944=DIRECTION('ref_axis',(-1.,0.,0.));
#945=DIRECTION('',(0.,0.,-1.));
#946=DIRECTION('center_axis',(0.,0.,-1.));
#947=DIRECTION('ref_axis',(-0.014686644068136,-0.999892145426703,0.));
#948=DIRECTION('center_axis',(0.,0.,-1.));
#949=DIRECTION('ref_axis',(-0.0146866440681359,-0.999892145426703,0.));
#950=DIRECTION('center_axis',(0.,0.,-1.));
#951=DIRECTION('ref_axis',(-0.0146866440681359,-0.999892145426703,0.));
#952=DIRECTION('center_axis',(0.999892145426703,-0.0146866440681359,0.));
#953=DIRECTION('ref_axis',(0.0146866440681359,0.999892145426703,0.));
#954=DIRECTION('center_axis',(0.,0.,1.));
#955=DIRECTION('ref_axis',(-1.,0.,0.));
#956=DIRECTION('center_axis',(0.,0.,1.));
#957=DIRECTION('ref_axis',(-1.,0.,0.));
#958=DIRECTION('',(0.,0.,-1.));
#959=DIRECTION('center_axis',(0.,0.,-1.));
#960=DIRECTION('ref_axis',(-1.,0.,0.));
#961=DIRECTION('center_axis',(0.,0.,-1.));
#962=DIRECTION('ref_axis',(-1.,0.,0.));
#963=DIRECTION('center_axis',(0.,1.,0.));
#964=DIRECTION('ref_axis',(0.,0.,-1.));
#965=DIRECTION('',(0.,0.,1.));
#966=DIRECTION('',(-1.,0.,0.));
#967=DIRECTION('',(0.,0.,-1.));
#968=DIRECTION('center_axis',(0.,-1.,0.));
#969=DIRECTION('ref_axis',(-1.,0.,0.));
#970=DIRECTION('',(0.,0.,-1.));
#971=DIRECTION('',(-1.,0.,0.));
#972=DIRECTION('',(0.,0.,-1.));
#973=DIRECTION('',(0.,0.,1.));
#974=DIRECTION('',(-1.,0.,0.));
#975=DIRECTION('',(0.,0.,1.));
#976=DIRECTION('center_axis',(0.,-1.,0.));
#977=DIRECTION('ref_axis',(1.,0.,0.));
#978=DIRECTION('center_axis',(0.,-1.,0.));
#979=DIRECTION('ref_axis',(1.,0.,0.));
#980=DIRECTION('center_axis',(0.,-1.,0.));
#981=DIRECTION('ref_axis',(1.,0.,0.));
#982=DIRECTION('center_axis',(-1.,0.,0.));
#983=DIRECTION('ref_axis',(0.,1.,0.));
#984=DIRECTION('',(0.,1.,0.));
#985=DIRECTION('',(0.,0.,1.));
#986=DIRECTION('',(0.,1.,0.));
#987=DIRECTION('',(0.,1.,0.));
#988=DIRECTION('center_axis',(0.,0.,-1.));
#989=DIRECTION('ref_axis',(0.,-1.,0.));
#990=DIRECTION('',(0.,-1.,0.));
#991=DIRECTION('center_axis',(0.,0.,1.));
#992=DIRECTION('ref_axis',(-0.707106781186549,0.707106781186546,0.));
#993=DIRECTION('',(-1.,0.,0.));
#994=DIRECTION('center_axis',(0.,0.,1.));
#995=DIRECTION('ref_axis',(-0.707106781186548,0.707106781186548,0.));
#996=DIRECTION('center_axis',(-1.,0.,0.));
#997=DIRECTION('ref_axis',(0.,0.,1.));
#998=DIRECTION('',(0.,0.,1.));
#999=DIRECTION('center_axis',(1.,0.,0.));
#1000=DIRECTION('ref_axis',(0.,-1.,0.));
#1001=DIRECTION('',(-1.11022302462516E-15,-1.,0.));
#1002=DIRECTION('',(0.,0.,-1.));
#1003=DIRECTION('',(0.,1.,0.));
#1004=DIRECTION('center_axis',(1.,0.,0.));
#1005=DIRECTION('ref_axis',(0.,0.,-1.));
#1006=DIRECTION('',(0.,1.,0.));
#1007=DIRECTION('',(0.,0.,-1.));
#1008=DIRECTION('center_axis',(0.,1.,0.));
#1009=DIRECTION('ref_axis',(0.,0.,1.));
#1010=DIRECTION('center_axis',(0.,1.,0.));
#1011=DIRECTION('ref_axis',(0.707106781186546,0.,0.707106781186549));
#1012=DIRECTION('center_axis',(0.,0.,1.));
#1013=DIRECTION('ref_axis',(0.,1.,0.));
#1014=DIRECTION('center_axis',(0.,-1.,0.));
#1015=DIRECTION('ref_axis',(0.707106781186546,0.,0.707106781186549));
#1016=DIRECTION('center_axis',(0.,0.,-1.));
#1017=DIRECTION('ref_axis',(-0.707106781186548,0.707106781186548,0.));
#1018=DIRECTION('center_axis',(0.,0.,1.));
#1019=DIRECTION('ref_axis',(-0.707106781186548,0.707106781186548,0.));
#1020=DIRECTION('',(0.,0.,1.));
#1021=DIRECTION('',(0.,0.,-1.));
#1022=DIRECTION('center_axis',(0.,-1.,0.));
#1023=DIRECTION('ref_axis',(1.,0.,0.));
#1024=DIRECTION('',(0.,-1.,0.));
#1025=DIRECTION('center_axis',(-1.,0.,0.));
#1026=DIRECTION('ref_axis',(0.,1.,0.));
#1027=DIRECTION('',(0.,1.,0.));
#1028=DIRECTION('center_axis',(0.,0.,-1.));
#1029=DIRECTION('ref_axis',(-1.,0.,0.));
#1030=DIRECTION('',(1.,3.64007549057429E-16,0.));
#1031=DIRECTION('center_axis',(0.,0.,1.));
#1032=DIRECTION('ref_axis',(0.707106781186548,0.707106781186547,0.));
#1033=DIRECTION('center_axis',(0.,-1.,0.));
#1034=DIRECTION('ref_axis',(0.,0.,-1.));
#1035=DIRECTION('center_axis',(0.,-1.,0.));
#1036=DIRECTION('ref_axis',(-0.707106781186547,0.,0.707106781186548));
#1037=DIRECTION('center_axis',(0.,0.,1.));
#1038=DIRECTION('ref_axis',(1.,0.,0.));
#1039=DIRECTION('center_axis',(0.,1.,0.));
#1040=DIRECTION('ref_axis',(-0.707106781186547,0.,0.707106781186548));
#1041=DIRECTION('center_axis',(0.,0.,-1.));
#1042=DIRECTION('ref_axis',(0.707106781186548,0.707106781186547,0.));
#1043=DIRECTION('',(0.,0.,1.));
#1044=DIRECTION('center_axis',(0.,1.,0.));
#1045=DIRECTION('ref_axis',(-1.,0.,0.));
#1046=DIRECTION('',(0.,-1.,0.));
#1047=DIRECTION('center_axis',(0.,0.,1.));
#1048=DIRECTION('ref_axis',(0.707106781186549,0.707106781186546,0.));
#1049=DIRECTION('center_axis',(0.,0.,1.));
#1050=DIRECTION('ref_axis',(0.707106781186549,0.707106781186546,0.));
#1051=DIRECTION('',(0.,0.,1.));
#1052=DIRECTION('center_axis',(0.,1.,0.));
#1053=DIRECTION('ref_axis',(1.,0.,0.));
#1054=DIRECTION('',(1.,0.,0.));
#1055=DIRECTION('',(0.,0.,1.));
#1056=DIRECTION('',(1.,0.,0.));
#1057=DIRECTION('',(0.,0.,-1.));
#1058=DIRECTION('',(0.,0.,-1.));
#1059=DIRECTION('center_axis',(0.,-1.,0.));
#1060=DIRECTION('ref_axis',(1.,0.,0.));
#1061=DIRECTION('center_axis',(0.,-1.,0.));
#1062=DIRECTION('ref_axis',(1.,0.,0.));
#1063=DIRECTION('center_axis',(0.,0.,-1.));
#1064=DIRECTION('ref_axis',(-0.707106781186549,0.707106781186546,0.));
#1065=DIRECTION('center_axis',(0.,0.,-1.));
#1066=DIRECTION('ref_axis',(0.707106781186548,0.707106781186548,0.));
#1067=DIRECTION('center_axis',(0.,0.,-1.));
#1068=DIRECTION('ref_axis',(0.707106781186548,0.707106781186548,0.));
#1069=DIRECTION('',(0.,0.,-1.));
#1070=DIRECTION('center_axis',(0.,0.,-1.));
#1071=DIRECTION('ref_axis',(0.707106781186548,0.707106781186548,0.));
#1072=DIRECTION('',(0.,0.,1.));
#1073=DIRECTION('center_axis',(0.,-1.,0.));
#1074=DIRECTION('ref_axis',(-1.,0.,0.));
#1075=DIRECTION('',(-1.,0.,0.));
#1076=DIRECTION('',(0.,0.,1.));
#1077=DIRECTION('',(-1.,0.,0.));
#1078=DIRECTION('center_axis',(0.,0.,-1.));
#1079=DIRECTION('ref_axis',(-0.707106781186548,0.707106781186548,0.));
#1080=DIRECTION('center_axis',(0.,0.,-1.));
#1081=DIRECTION('ref_axis',(-0.707106781186548,0.707106781186548,0.));
#1082=DIRECTION('',(0.,0.,-1.));
#1083=DIRECTION('center_axis',(0.,0.,-1.));
#1084=DIRECTION('ref_axis',(-0.707106781186548,0.707106781186548,0.));
#1085=DIRECTION('center_axis',(1.,5.44226972855469E-16,0.));
#1086=DIRECTION('ref_axis',(5.44226972855469E-16,-1.,0.));
#1087=DIRECTION('',(5.44226972855469E-16,-1.,0.));
#1088=DIRECTION('',(0.,0.,-1.));
#1089=DIRECTION('',(0.,-1.,0.));
#1090=DIRECTION('center_axis',(0.,0.,-1.));
#1091=DIRECTION('ref_axis',(0.707106781186548,0.707106781186548,0.));
#1092=DIRECTION('center_axis',(0.,0.,1.));
#1093=DIRECTION('ref_axis',(0.707106781186548,0.707106781186548,0.));
#1094=DIRECTION('center_axis',(0.,0.,1.));
#1095=DIRECTION('ref_axis',(0.707106781186548,0.707106781186548,0.));
#1096=DIRECTION('',(0.,0.,-1.));
#1097=DIRECTION('center_axis',(0.,0.,-1.));
#1098=DIRECTION('ref_axis',(-1.,0.,0.));
#1099=DIRECTION('center_axis',(0.,0.,1.));
#1100=DIRECTION('ref_axis',(-0.707106781186548,0.707106781186548,0.));
#1101=DIRECTION('',(0.,-1.,0.));
#1102=DIRECTION('',(0.,1.,0.));
#1103=DIRECTION('center_axis',(0.,0.,-1.));
#1104=DIRECTION('ref_axis',(-0.707106781186548,0.707106781186548,0.));
#1105=DIRECTION('center_axis',(0.,-1.,0.));
#1106=DIRECTION('ref_axis',(1.,0.,0.));
#1107=DIRECTION('',(0.,-1.,0.));
#1108=DIRECTION('center_axis',(0.,-1.,0.));
#1109=DIRECTION('ref_axis',(1.,0.,0.));
#1110=DIRECTION('',(0.,-1.,0.));
#1111=DIRECTION('center_axis',(0.,0.,-1.));
#1112=DIRECTION('ref_axis',(0.,1.,0.));
#1113=DIRECTION('',(0.,-1.,0.));
#1114=DIRECTION('center_axis',(1.,0.,0.));
#1115=DIRECTION('ref_axis',(0.,-1.,0.));
#1116=DIRECTION('center_axis',(0.,0.,-1.));
#1117=DIRECTION('ref_axis',(-1.,0.,0.));
#1118=DIRECTION('',(0.,0.,-1.));
#1119=DIRECTION('center_axis',(0.,0.,-1.));
#1120=DIRECTION('ref_axis',(-1.,0.,0.));
#1121=DIRECTION('center_axis',(0.,0.,-1.));
#1122=DIRECTION('ref_axis',(-1.,0.,0.));
#1123=DIRECTION('',(0.,0.,-1.));
#1124=DIRECTION('center_axis',(0.,0.,1.));
#1125=DIRECTION('ref_axis',(-1.,0.,0.));
#1126=DIRECTION('center_axis',(0.,0.,-1.));
#1127=DIRECTION('ref_axis',(-1.,0.,0.));
#1128=DIRECTION('',(0.,1.,0.));
#1129=DIRECTION('',(1.,0.,0.));
#1130=DIRECTION('center_axis',(-1.,0.,0.));
#1131=DIRECTION('ref_axis',(0.,1.,0.));
#1132=DIRECTION('',(0.,0.,-1.));
#1133=DIRECTION('center_axis',(0.,1.,0.));
#1134=DIRECTION('ref_axis',(1.,0.,0.));
#1135=CARTESIAN_POINT('',(0.,0.,0.));
#1136=CARTESIAN_POINT('Origin',(0.,0.,-0.3));
#1137=CARTESIAN_POINT('',(2.1,2.57175827820944E-16,-1.));
#1138=CARTESIAN_POINT('Origin',(0.,0.,-1.));
#1139=CARTESIAN_POINT('',(2.1,2.57175827820944E-16,-0.3));
#1140=CARTESIAN_POINT('',(2.1,-2.57175827820944E-16,-0.3));
#1141=CARTESIAN_POINT('Origin',(0.,0.,-0.3));
#1142=CARTESIAN_POINT('Origin',(0.,0.,0.));
#1143=CARTESIAN_POINT('',(-2.5,3.06161699786838E-16,0.));
#1144=CARTESIAN_POINT('Origin',(0.,0.,0.));
#1145=CARTESIAN_POINT('',(-2.5,3.06161699786838E-16,-0.3));
#1146=CARTESIAN_POINT('',(-2.5,3.06161699786838E-16,0.));
#1147=CARTESIAN_POINT('Origin',(0.,0.,-0.3));
#1148=CARTESIAN_POINT('Origin',(0.,0.,-0.3));
#1149=CARTESIAN_POINT('Origin',(13.25,0.,3.));
#1150=CARTESIAN_POINT('',(10.6962922228007,1.57434957638756,3.));
#1151=CARTESIAN_POINT('',(16.25,3.67394039744206E-16,3.));
#1152=CARTESIAN_POINT('Origin',(13.25,0.,3.));
#1153=CARTESIAN_POINT('Origin',(13.25,0.,3.));
#1154=CARTESIAN_POINT('',(8.14258444560136,3.14869915277513,0.));
#1155=CARTESIAN_POINT('Origin',(8.14258444560136,3.14869915277513,3.));
#1156=CARTESIAN_POINT('Origin',(13.25,0.,0.));
#1157=CARTESIAN_POINT('Origin',(2.77555756156289E-15,-7.8,0.));
#1158=CARTESIAN_POINT('',(19.75,6.1,0.));
#1159=CARTESIAN_POINT('',(-19.75,6.1,0.));
#1160=CARTESIAN_POINT('',(7.1,6.1,0.));
#1161=CARTESIAN_POINT('',(-20.75,5.1,0.));
#1162=CARTESIAN_POINT('Origin',(-19.75,5.1,0.));
#1163=CARTESIAN_POINT('',(-20.75,-6.7,0.));
#1164=CARTESIAN_POINT('',(-20.75,-9.5,0.));
#1165=CARTESIAN_POINT('',(20.75,-6.7,0.));
#1166=CARTESIAN_POINT('',(10.375,-6.7,0.));
#1167=CARTESIAN_POINT('',(20.75,5.1,0.));
#1168=CARTESIAN_POINT('',(20.75,6.1,0.));
#1169=CARTESIAN_POINT('Origin',(19.75,5.1,0.));
#1170=CARTESIAN_POINT('',(-13.1618801355912,5.99935287256022,0.));
#1171=CARTESIAN_POINT('Origin',(-13.25,0.,0.));
#1172=CARTESIAN_POINT('',(5.275,2.31535617618423E-15,0.));
#1173=CARTESIAN_POINT('Origin',(4.5,2.22044604925031E-15,0.));
#1174=CARTESIAN_POINT('',(-3.725,9.49101269339199E-17,0.));
#1175=CARTESIAN_POINT('Origin',(-4.5,0.,0.));
#1176=CARTESIAN_POINT('Origin',(13.25,0.,-4.));
#1177=CARTESIAN_POINT('',(16.25,3.67394039744206E-16,16.));
#1178=CARTESIAN_POINT('Origin',(13.25,0.,16.));
#1179=CARTESIAN_POINT('',(16.25,3.67394039744206E-16,-4.));
#1180=CARTESIAN_POINT('Origin',(-13.25,0.,3.));
#1181=CARTESIAN_POINT('',(-13.2059400677956,2.99967643628011,3.));
#1182=CARTESIAN_POINT('',(-10.25,3.67394039744206E-16,3.));
#1183=CARTESIAN_POINT('Origin',(-13.25,0.,3.));
#1184=CARTESIAN_POINT('Origin',(-13.25,0.,3.));
#1185=CARTESIAN_POINT('Origin',(-13.1618801355912,5.99935287256022,3.));
#1186=CARTESIAN_POINT('Origin',(-13.25,0.,-4.));
#1187=CARTESIAN_POINT('',(-10.25,3.67394039744206E-16,16.));
#1188=CARTESIAN_POINT('Origin',(-13.25,0.,16.));
#1189=CARTESIAN_POINT('',(-10.25,3.67394039744206E-16,-4.));
#1190=CARTESIAN_POINT('Origin',(-13.25,0.,16.));
#1191=CARTESIAN_POINT('Origin',(13.25,0.,16.));
#1192=CARTESIAN_POINT('Origin',(20.75,-6.7,0.));
#1193=CARTESIAN_POINT('',(-6.09999999999999,-6.7,-32.5));
#1194=CARTESIAN_POINT('',(-6.09999999999999,-6.7,-15.1));
#1195=CARTESIAN_POINT('',(-6.09999999999999,-6.7,0.));
#1196=CARTESIAN_POINT('',(6.1,-6.7,-32.5));
#1197=CARTESIAN_POINT('',(10.375,-6.7,-32.5));
#1198=CARTESIAN_POINT('',(6.1,-6.7,-15.1));
#1199=CARTESIAN_POINT('',(6.1,-6.7,0.));
#1200=CARTESIAN_POINT('',(7.1,-6.7,-14.1));
#1201=CARTESIAN_POINT('Origin',(7.1,-6.7,-15.1));
#1202=CARTESIAN_POINT('',(7.1,-6.7,-4.));
#1203=CARTESIAN_POINT('',(7.1,-6.7,0.));
#1204=CARTESIAN_POINT('',(20.75,-6.7,-4.));
#1205=CARTESIAN_POINT('',(13.925,-6.7,-4.));
#1206=CARTESIAN_POINT('',(20.75,-6.7,-1.));
#1207=CARTESIAN_POINT('',(-20.75,-6.7,-4.));
#1208=CARTESIAN_POINT('',(-20.75,-6.7,-1.));
#1209=CARTESIAN_POINT('',(-7.1,-6.7,-4.));
#1210=CARTESIAN_POINT('',(6.825,-6.7,-4.));
#1211=CARTESIAN_POINT('',(-7.1,-6.7,-14.1));
#1212=CARTESIAN_POINT('',(-7.1,-6.7,0.));
#1213=CARTESIAN_POINT('Origin',(-7.09999999999999,-6.7,-15.1));
#1214=CARTESIAN_POINT('',(-19.2,-6.7,-2.));
#1215=CARTESIAN_POINT('Origin',(-17.95,-6.7,-2.));
#1216=CARTESIAN_POINT('',(16.7,-6.7,-2.));
#1217=CARTESIAN_POINT('Origin',(17.95,-6.7,-2.));
#1218=CARTESIAN_POINT('Origin',(-7.1,-9.5,0.));
#1219=CARTESIAN_POINT('',(-7.1,5.1,-4.));
#1220=CARTESIAN_POINT('',(-7.1,-1.7,-4.));
#1221=CARTESIAN_POINT('',(-7.1,5.1,-14.1));
#1222=CARTESIAN_POINT('',(-7.1,5.1,0.));
#1223=CARTESIAN_POINT('',(-7.1,-6.1,-14.1));
#1224=CARTESIAN_POINT('',(-7.1,-8.5,-14.1));
#1225=CARTESIAN_POINT('',(-7.1,-8.5,-14.1));
#1226=CARTESIAN_POINT('Origin',(-7.1,6.1,-4.));
#1227=CARTESIAN_POINT('',(-20.75,5.1,-4.));
#1228=CARTESIAN_POINT('',(-20.75,6.1,-4.));
#1229=CARTESIAN_POINT('',(-19.75,6.1,-4.));
#1230=CARTESIAN_POINT('Origin',(-19.75,5.1,-4.));
#1231=CARTESIAN_POINT('',(-6.1,6.1,-4.));
#1232=CARTESIAN_POINT('',(-7.1,6.1,-4.));
#1233=CARTESIAN_POINT('Origin',(-6.1,5.1,-4.));
#1234=CARTESIAN_POINT('Origin',(-20.75,-1.7,-2.));
#1235=CARTESIAN_POINT('',(-20.75,5.1,-1.));
#1236=CARTESIAN_POINT('Origin',(6.1,-6.1,0.));
#1237=CARTESIAN_POINT('',(6.1,-6.1,-32.5));
#1238=CARTESIAN_POINT('',(6.1,-5.1,-32.5));
#1239=CARTESIAN_POINT('',(6.1,-6.1,-15.1));
#1240=CARTESIAN_POINT('',(6.1,-6.1,0.));
#1241=CARTESIAN_POINT('',(6.1,-6.1,-15.1));
#1242=CARTESIAN_POINT('Origin',(20.75,-1.7,-2.));
#1243=CARTESIAN_POINT('',(20.75,5.1,-4.));
#1244=CARTESIAN_POINT('',(20.75,-9.5,-4.));
#1245=CARTESIAN_POINT('',(20.75,5.1,-1.));
#1246=CARTESIAN_POINT('Origin',(-7.09999999999999,-6.1,-15.1));
#1247=CARTESIAN_POINT('',(-6.09999999999999,-5.28953454698168,-14.09999999937));
#1248=CARTESIAN_POINT('',(-6.09999999999999,-5.1,-13.3679491924311));
#1249=CARTESIAN_POINT('Ctrl Pts',(-6.09999999999999,-5.1,-13.3679491924311));
#1250=CARTESIAN_POINT('Ctrl Pts',(-6.09999999999999,-5.1,-13.6080267784036));
#1251=CARTESIAN_POINT('Ctrl Pts',(-6.09999999999999,-5.17816769614437,-13.8820955324592));
#1252=CARTESIAN_POINT('Ctrl Pts',(-6.09999999999999,-5.28953454723698,-14.0999999992395));
#1253=CARTESIAN_POINT('',(-5.09999999999999,-5.1,-15.1));
#1254=CARTESIAN_POINT('Origin',(-7.09999999999999,-5.1,-15.1));
#1255=CARTESIAN_POINT('',(-6.09999999999999,-6.1,-15.1));
#1256=CARTESIAN_POINT('Origin',(-5.09999999999999,-6.1,-15.1));
#1257=CARTESIAN_POINT('Origin',(-7.09999999999999,-6.1,-15.1));
#1258=CARTESIAN_POINT('Ctrl Pts',(-6.09999999973904,-5.28953454749227,-14.1));
#1259=CARTESIAN_POINT('Ctrl Pts',(-6.11343295016089,-5.2963998743599,-14.1));
#1260=CARTESIAN_POINT('Ctrl Pts',(-6.1266729705645,-5.30335174923716,-14.1));
#1261=CARTESIAN_POINT('Ctrl Pts',(-6.48477672779598,-5.49608728381128,-14.1));
#1262=CARTESIAN_POINT('Ctrl Pts',(-6.82290177791903,-5.82290177791904,-14.1));
#1263=CARTESIAN_POINT('Ctrl Pts',(-7.09999999999999,-6.1,-14.1));
#1264=CARTESIAN_POINT('Origin',(-5.09999999999999,-6.1,0.));
#1265=CARTESIAN_POINT('',(-5.09999999999999,-5.10000000000001,-32.5));
#1266=CARTESIAN_POINT('',(-6.09999999999999,-6.1,-32.5));
#1267=CARTESIAN_POINT('Origin',(-5.09999999999999,-6.1,-32.5));
#1268=CARTESIAN_POINT('',(-6.09999999999999,-6.1,0.));
#1269=CARTESIAN_POINT('',(-5.09999999999999,-5.1,0.));
#1270=CARTESIAN_POINT('Origin',(-7.09999999999999,-9.5,-15.1));
#1271=CARTESIAN_POINT('',(-6.09999999999999,-9.5,-15.1));
#1272=CARTESIAN_POINT('Origin',(-6.09999999999999,-9.5,0.));
#1273=CARTESIAN_POINT('',(-6.09999999999999,-5.1,-32.5));
#1274=CARTESIAN_POINT('Origin',(3.33066907387547E-15,-7.8,-32.5));
#1275=CARTESIAN_POINT('',(5.1,-5.1,-32.5));
#1276=CARTESIAN_POINT('',(-6.09999999999999,-5.10000000000001,-32.5));
#1277=CARTESIAN_POINT('Origin',(5.1,-6.1,-32.5));
#1278=CARTESIAN_POINT('Origin',(7.1,-6.1,-15.1));
#1279=CARTESIAN_POINT('',(7.1,-6.1,-14.1));
#1280=CARTESIAN_POINT('',(6.1,-5.28953454698168,-14.09999999937));
#1281=CARTESIAN_POINT('Ctrl Pts',(7.1,-6.1,-14.1));
#1282=CARTESIAN_POINT('Ctrl Pts',(6.82290177791904,-5.82290177791904,-14.1));
#1283=CARTESIAN_POINT('Ctrl Pts',(6.48477672779599,-5.49608728381128,-14.1));
#1284=CARTESIAN_POINT('Ctrl Pts',(6.12667297056451,-5.30335174923716,-14.1));
#1285=CARTESIAN_POINT('Ctrl Pts',(6.11343295016091,-5.29639987435991,-14.1));
#1286=CARTESIAN_POINT('Ctrl Pts',(6.09999999973905,-5.28953454749227,-14.1));
#1287=CARTESIAN_POINT('Origin',(7.1,-6.1,-15.1));
#1288=CARTESIAN_POINT('',(5.1,-5.1,-15.1));
#1289=CARTESIAN_POINT('Origin',(5.1,-6.1,-15.1));
#1290=CARTESIAN_POINT('',(6.1,-5.1,-13.3679491924311));
#1291=CARTESIAN_POINT('Origin',(7.1,-5.1,-15.1));
#1292=CARTESIAN_POINT('Ctrl Pts',(6.1,-5.28953454723697,-14.0999999992395));
#1293=CARTESIAN_POINT('Ctrl Pts',(6.1,-5.17816769614437,-13.8820955324592));
#1294=CARTESIAN_POINT('Ctrl Pts',(6.1,-5.1,-13.6080267784036));
#1295=CARTESIAN_POINT('Ctrl Pts',(6.1,-5.1,-13.3679491924311));
#1296=CARTESIAN_POINT('Origin',(5.1,-6.1,0.));
#1297=CARTESIAN_POINT('',(5.1,-5.1,0.));
#1298=CARTESIAN_POINT('Origin',(7.1,-6.1,-15.1));
#1299=CARTESIAN_POINT('',(7.1,6.1,-14.1));
#1300=CARTESIAN_POINT('Origin',(19.75,5.1,-1.));
#1301=CARTESIAN_POINT('',(19.75,6.1,-4.));
#1302=CARTESIAN_POINT('Origin',(19.75,5.1,-4.));
#1303=CARTESIAN_POINT('',(19.75,6.1,-1.));
#1304=CARTESIAN_POINT('Origin',(-7.1,6.1,0.));
#1305=CARTESIAN_POINT('',(6.1,6.1,-4.));
#1306=CARTESIAN_POINT('',(7.1,6.1,-4.));
#1307=CARTESIAN_POINT('',(6.1,6.1,-14.1));
#1308=CARTESIAN_POINT('',(6.1,6.1,0.));
#1309=CARTESIAN_POINT('',(-6.1,6.1,-14.1));
#1310=CARTESIAN_POINT('',(-7.1,6.1,-14.1));
#1311=CARTESIAN_POINT('',(-6.1,6.1,0.));
#1312=CARTESIAN_POINT('',(-19.75,6.1,-1.));
#1313=CARTESIAN_POINT('',(-19.2,6.1,-2.));
#1314=CARTESIAN_POINT('Origin',(-17.95,6.1,-2.));
#1315=CARTESIAN_POINT('',(16.7,6.1,-2.));
#1316=CARTESIAN_POINT('Origin',(17.95,6.1,-2.));
#1317=CARTESIAN_POINT('Origin',(-19.75,5.1,-1.));
#1318=CARTESIAN_POINT('Origin',(5.6,4.6,0.));
#1319=CARTESIAN_POINT('',(5.6,5.1,-1.));
#1320=CARTESIAN_POINT('',(6.1,4.6,-1.));
#1321=CARTESIAN_POINT('Origin',(5.6,4.6,-1.));
#1322=CARTESIAN_POINT('',(5.6,5.1,-14.1));
#1323=CARTESIAN_POINT('',(5.6,5.1,0.));
#1324=CARTESIAN_POINT('',(6.1,4.6,-14.1));
#1325=CARTESIAN_POINT('Origin',(5.6,4.6,-14.1));
#1326=CARTESIAN_POINT('',(6.1,4.6,0.));
#1327=CARTESIAN_POINT('Origin',(6.1,5.1,0.));
#1328=CARTESIAN_POINT('',(-5.6,5.1,-1.));
#1329=CARTESIAN_POINT('',(3.05,5.1,-1.));
#1330=CARTESIAN_POINT('',(-5.6,5.1,-14.1));
#1331=CARTESIAN_POINT('',(-5.6,5.1,0.));
#1332=CARTESIAN_POINT('',(7.1,5.1,-14.1));
#1333=CARTESIAN_POINT('Origin',(-5.6,4.6,0.));
#1334=CARTESIAN_POINT('',(-6.1,4.6,-1.));
#1335=CARTESIAN_POINT('Origin',(-5.6,4.6,-1.));
#1336=CARTESIAN_POINT('',(-6.1,4.6,-14.1));
#1337=CARTESIAN_POINT('',(-6.1,4.6,0.));
#1338=CARTESIAN_POINT('Origin',(-5.6,4.6,-14.1));
#1339=CARTESIAN_POINT('Origin',(-6.1,5.1,0.));
#1340=CARTESIAN_POINT('',(-6.09999999999999,-5.1,-1.));
#1341=CARTESIAN_POINT('',(-6.1,1.7,-1.));
#1342=CARTESIAN_POINT('',(-6.09999999999999,-5.1,0.));
#1343=CARTESIAN_POINT('',(-6.1,6.1,-14.1));
#1344=CARTESIAN_POINT('Origin',(6.1,5.1,0.));
#1345=CARTESIAN_POINT('',(7.1,5.1,-14.1));
#1346=CARTESIAN_POINT('Origin',(6.1,5.1,-14.1));
#1347=CARTESIAN_POINT('',(7.1,5.1,-4.));
#1348=CARTESIAN_POINT('Origin',(6.1,5.1,-4.));
#1349=CARTESIAN_POINT('',(7.1,5.1,0.));
#1350=CARTESIAN_POINT('Origin',(0.,-1.2,-14.1));
#1351=CARTESIAN_POINT('Origin',(-6.1,5.1,-14.1));
#1352=CARTESIAN_POINT('',(7.1,6.1,-14.1));
#1353=CARTESIAN_POINT('',(6.1,-8.5,-14.1));
#1354=CARTESIAN_POINT('Origin',(-6.1,5.1,0.));
#1355=CARTESIAN_POINT('Origin',(17.95,6.1,-2.));
#1356=CARTESIAN_POINT('',(16.7,6.1,-2.));
#1357=CARTESIAN_POINT('Origin',(-17.95,6.1,-2.));
#1358=CARTESIAN_POINT('',(-19.2,6.1,-2.));
#1359=CARTESIAN_POINT('Origin',(7.1,-9.5,-4.));
#1360=CARTESIAN_POINT('',(7.1,-1.7,-4.));
#1361=CARTESIAN_POINT('Origin',(7.1,6.1,0.));
#1362=CARTESIAN_POINT('Origin',(-4.5,0.,0.));
#1363=CARTESIAN_POINT('',(-3.725,-9.49101269339199E-17,-1.));
#1364=CARTESIAN_POINT('',(-3.725,-9.49101269339199E-17,0.));
#1365=CARTESIAN_POINT('Origin',(-4.5,0.,-1.));
#1366=CARTESIAN_POINT('Origin',(4.5,2.22044604925031E-15,0.));
#1367=CARTESIAN_POINT('',(5.275,2.31535617618423E-15,-1.));
#1368=CARTESIAN_POINT('',(5.275,2.12553592231639E-15,0.));
#1369=CARTESIAN_POINT('Origin',(4.5,2.22044604925031E-15,-1.));
#1370=CARTESIAN_POINT('Origin',(0.,-1.7,-1.));
#1371=CARTESIAN_POINT('',(6.1,-5.1,-1.));
#1372=CARTESIAN_POINT('',(6.1,-3.4,-1.));
#1373=CARTESIAN_POINT('',(-3.05,-5.1,-1.));
#1374=CARTESIAN_POINT('Origin',(6.1,-5.1,0.));
#1375=CARTESIAN_POINT('',(6.1,-5.1,0.));
#1376=CARTESIAN_POINT('Origin',(-6.09999999999999,-5.1,0.));
#1377=UNCERTAINTY_MEASURE_WITH_UNIT(LENGTH_MEASURE(0.01),#1381,
'DISTANCE_ACCURACY_VALUE',
'Maximum model space distance between geometric entities at asserted c
onnectivities');
#1378=UNCERTAINTY_MEASURE_WITH_UNIT(LENGTH_MEASURE(0.01),#1381,
'DISTANCE_ACCURACY_VALUE',
'Maximum model space distance between geometric entities at asserted c
onnectivities');
#1379=(
GEOMETRIC_REPRESENTATION_CONTEXT(3)
GLOBAL_UNCERTAINTY_ASSIGNED_CONTEXT((#1377))
GLOBAL_UNIT_ASSIGNED_CONTEXT((#1381,#1383,#1384))
REPRESENTATION_CONTEXT('','3D')
);
#1380=(
GEOMETRIC_REPRESENTATION_CONTEXT(3)
GLOBAL_UNCERTAINTY_ASSIGNED_CONTEXT((#1378))
GLOBAL_UNIT_ASSIGNED_CONTEXT((#1381,#1383,#1384))
REPRESENTATION_CONTEXT('','3D')
);
#1381=(
LENGTH_UNIT()
NAMED_UNIT(*)
SI_UNIT(.MILLI.,.METRE.)
);
#1382=(
LENGTH_UNIT()
NAMED_UNIT(*)
SI_UNIT(.CENTI.,.METRE.)
);
#1383=(
NAMED_UNIT(*)
PLANE_ANGLE_UNIT()
SI_UNIT($,.RADIAN.)
);
#1384=(
NAMED_UNIT(*)
SI_UNIT($,.STERADIAN.)
SOLID_ANGLE_UNIT()
);
#1385=SHAPE_DEFINITION_REPRESENTATION(#1386,#1387);
#1386=PRODUCT_DEFINITION_SHAPE('',$,#1389);
#1387=SHAPE_REPRESENTATION('',(#809),#1379);
#1388=PRODUCT_DEFINITION_CONTEXT('part definition',#1393,'design');
#1389=PRODUCT_DEFINITION('PololuMount','PololuMount',#1390,#1388);
#1390=PRODUCT_DEFINITION_FORMATION('',$,#1395);
#1391=PRODUCT_RELATED_PRODUCT_CATEGORY('PololuMount','PololuMount',(#1395));
#1392=APPLICATION_PROTOCOL_DEFINITION('international standard',
'automotive_design',2009,#1393);
#1393=APPLICATION_CONTEXT(
'Core Data for Automotive Mechanical Design Process');
#1394=PRODUCT_CONTEXT('part definition',#1393,'mechanical');
#1395=PRODUCT('PololuMount','PololuMount',$,(#1394));
#1396=PRESENTATION_STYLE_ASSIGNMENT((#1397));
#1397=SURFACE_STYLE_USAGE(.BOTH.,#1400);
#1398=SURFACE_STYLE_RENDERING_WITH_PROPERTIES($,#1404,(#1399));
#1399=SURFACE_STYLE_TRANSPARENT(0.);
#1400=SURFACE_SIDE_STYLE('',(#1401,#1398));
#1401=SURFACE_STYLE_FILL_AREA(#1402);
#1402=FILL_AREA_STYLE('',(#1403));
#1403=FILL_AREA_STYLE_COLOUR('',#1404);
#1404=COLOUR_RGB('',0.749019607843137,0.749019607843137,0.749019607843137);
ENDSEC;
END-ISO-10303-21;
