ISO-10303-21;
HEADER;
/* Generated by software containing ST-Developer
 * from STEP Tools, Inc. (www.steptools.com) 
 */

FILE_DESCRIPTION(
/* description */ (''),
/* implementation_level */ '2;1');

FILE_NAME(
/* name */ 'PololuMount4.stp',
/* time_stamp */ '2026-09-04T17:33:36-03:00',
/* author */ ('felip'),
/* organization */ (''),
/* preprocessor_version */ 'ST-DEVELOPER v20.1',
/* originating_system */ 'Autodesk Inventor 2027',
/* authorisation */ '');

FILE_SCHEMA (('AUTOMOTIVE_DESIGN { 1 0 10303 214 3 1 1 }'));
ENDSEC;

DATA;
#10=MECHANICAL_DESIGN_GEOMETRIC_PRESENTATION_REPRESENTATION('',(#13),#1445);
#11=SHAPE_REPRESENTATION_RELATIONSHIP('SRR','None',#1452,#12);
#12=ADVANCED_BREP_SHAPE_REPRESENTATION('',(#14),#1444);
#13=STYLED_ITEM('',(#1461),#14);
#14=MANIFOLD_SOLID_BREP('Solid2',#824);
#15=B_SPLINE_CURVE_WITH_KNOTS('',3,(#1310,#1311,#1312,#1313),
 .UNSPECIFIED.,.F.,.F.,(4,4),(0.505532240038508,0.57755551583026),
 .UNSPECIFIED.);
#16=B_SPLINE_CURVE_WITH_KNOTS('',3,(#1319,#1320,#1321,#1322,#1323,#1324),
 .UNSPECIFIED.,.F.,.F.,(4,2,4),(0.57755551588529,0.581995466601179,0.699558285734087),
 .UNSPECIFIED.);
#17=B_SPLINE_CURVE_WITH_KNOTS('',3,(#1342,#1343,#1344,#1345,#1346,#1347),
 .UNSPECIFIED.,.F.,.F.,(4,2,4),(0.,0.117562819132908,0.122002769848798),
 .UNSPECIFIED.);
#18=B_SPLINE_CURVE_WITH_KNOTS('',3,(#1353,#1354,#1355,#1356),
 .UNSPECIFIED.,.F.,.F.,(4,4),(0.122002769903828,0.19402604569558),
 .UNSPECIFIED.);
#19=CYLINDRICAL_SURFACE('',#865,2.1);
#20=CYLINDRICAL_SURFACE('',#870,2.5);
#21=CYLINDRICAL_SURFACE('',#873,3.);
#22=CYLINDRICAL_SURFACE('',#876,3.);
#23=CYLINDRICAL_SURFACE('',#895,1.);
#24=CYLINDRICAL_SURFACE('',#897,1.);
#25=CYLINDRICAL_SURFACE('',#905,1.);
#26=CYLINDRICAL_SURFACE('',#906,1.);
#27=CYLINDRICAL_SURFACE('',#907,1.);
#28=CYLINDRICAL_SURFACE('',#912,1.);
#29=CYLINDRICAL_SURFACE('',#913,0.5);
#30=CYLINDRICAL_SURFACE('',#917,0.5);
#31=CYLINDRICAL_SURFACE('',#921,1.);
#32=CYLINDRICAL_SURFACE('',#926,1.);
#33=CYLINDRICAL_SURFACE('',#927,1.25);
#34=CYLINDRICAL_SURFACE('',#928,1.25);
#35=CYLINDRICAL_SURFACE('',#931,0.775);
#36=CYLINDRICAL_SURFACE('',#933,2.25);
#37=CYLINDRICAL_SURFACE('',#935,0.775);
#38=FACE_BOUND('',#253,.T.);
#39=FACE_BOUND('',#254,.T.);
#40=FACE_BOUND('',#255,.T.);
#41=FACE_BOUND('',#256,.T.);
#42=FACE_BOUND('',#257,.T.);
#43=FACE_BOUND('',#260,.T.);
#44=FACE_BOUND('',#262,.T.);
#45=FACE_BOUND('',#265,.T.);
#46=FACE_BOUND('',#268,.T.);
#47=FACE_BOUND('',#274,.T.);
#48=FACE_BOUND('',#275,.T.);
#49=FACE_BOUND('',#291,.T.);
#50=FACE_BOUND('',#292,.T.);
#51=FACE_BOUND('',#309,.T.);
#52=FACE_BOUND('',#310,.T.);
#53=FACE_BOUND('',#311,.T.);
#54=LINE('',#1201,#117);
#55=LINE('',#1205,#118);
#56=LINE('',#1207,#119);
#57=LINE('',#1209,#120);
#58=LINE('',#1233,#121);
#59=LINE('',#1240,#122);
#60=LINE('',#1246,#123);
#61=LINE('',#1251,#124);
#62=LINE('',#1256,#125);
#63=LINE('',#1258,#126);
#64=LINE('',#1260,#127);
#65=LINE('',#1264,#128);
#66=LINE('',#1266,#129);
#67=LINE('',#1267,#130);
#68=LINE('',#1269,#131);
#69=LINE('',#1271,#132);
#70=LINE('',#1273,#133);
#71=LINE('',#1281,#134);
#72=LINE('',#1283,#135);
#73=LINE('',#1285,#136);
#74=LINE('',#1286,#137);
#75=LINE('',#1289,#138);
#76=LINE('',#1293,#139);
#77=LINE('',#1296,#140);
#78=LINE('',#1299,#141);
#79=LINE('',#1301,#142);
#80=LINE('',#1302,#143);
#81=LINE('',#1305,#144);
#82=LINE('',#1306,#145);
#83=LINE('',#1329,#146);
#84=LINE('',#1330,#147);
#85=LINE('',#1332,#148);
#86=LINE('',#1334,#149);
#87=LINE('',#1337,#150);
#88=LINE('',#1358,#151);
#89=LINE('',#1360,#152);
#90=LINE('',#1364,#153);
#91=LINE('',#1367,#154);
#92=LINE('',#1369,#155);
#93=LINE('',#1371,#156);
#94=LINE('',#1372,#157);
#95=LINE('',#1373,#158);
#96=LINE('',#1384,#159);
#97=LINE('',#1387,#160);
#98=LINE('',#1390,#161);
#99=LINE('',#1392,#162);
#100=LINE('',#1393,#163);
#101=LINE('',#1398,#164);
#102=LINE('',#1402,#165);
#103=LINE('',#1403,#166);
#104=LINE('',#1404,#167);
#105=LINE('',#1410,#168);
#106=LINE('',#1413,#169);
#107=LINE('',#1414,#170);
#108=LINE('',#1417,#171);
#109=LINE('',#1419,#172);
#110=LINE('',#1421,#173);
#111=LINE('',#1425,#174);
#112=LINE('',#1429,#175);
#113=LINE('',#1433,#176);
#114=LINE('',#1437,#177);
#115=LINE('',#1438,#178);
#116=LINE('',#1440,#179);
#117=VECTOR('',#952,10.);
#118=VECTOR('',#955,10.);
#119=VECTOR('',#956,10.);
#120=VECTOR('',#957,10.);
#121=VECTOR('',#986,2.1);
#122=VECTOR('',#995,2.5);
#123=VECTOR('',#1004,3.);
#124=VECTOR('',#1011,3.);
#125=VECTOR('',#1016,10.);
#126=VECTOR('',#1017,10.);
#127=VECTOR('',#1018,10.);
#128=VECTOR('',#1021,10.);
#129=VECTOR('',#1022,10.);
#130=VECTOR('',#1023,10.);
#131=VECTOR('',#1024,10.);
#132=VECTOR('',#1025,10.);
#133=VECTOR('',#1026,10.);
#134=VECTOR('',#1035,10.);
#135=VECTOR('',#1036,10.);
#136=VECTOR('',#1037,10.);
#137=VECTOR('',#1038,10.);
#138=VECTOR('',#1041,10.);
#139=VECTOR('',#1044,10.);
#140=VECTOR('',#1049,10.);
#141=VECTOR('',#1052,10.);
#142=VECTOR('',#1053,10.);
#143=VECTOR('',#1054,1.);
#144=VECTOR('',#1057,10.);
#145=VECTOR('',#1058,10.);
#146=VECTOR('',#1071,10.);
#147=VECTOR('',#1072,10.);
#148=VECTOR('',#1075,1.);
#149=VECTOR('',#1078,10.);
#150=VECTOR('',#1081,10.);
#151=VECTOR('',#1094,10.);
#152=VECTOR('',#1097,10.);
#153=VECTOR('',#1102,10.);
#154=VECTOR('',#1105,10.);
#155=VECTOR('',#1106,10.);
#156=VECTOR('',#1107,10.);
#157=VECTOR('',#1108,10.);
#158=VECTOR('',#1109,10.);
#159=VECTOR('',#1120,10.);
#160=VECTOR('',#1123,10.);
#161=VECTOR('',#1126,10.);
#162=VECTOR('',#1127,10.);
#163=VECTOR('',#1128,10.);
#164=VECTOR('',#1133,10.);
#165=VECTOR('',#1138,10.);
#166=VECTOR('',#1139,10.);
#167=VECTOR('',#1140,10.);
#168=VECTOR('',#1147,10.);
#169=VECTOR('',#1152,10.);
#170=VECTOR('',#1153,10.);
#171=VECTOR('',#1158,1.25);
#172=VECTOR('',#1161,1.25);
#173=VECTOR('',#1164,10.);
#174=VECTOR('',#1169,0.775);
#175=VECTOR('',#1174,2.25);
#176=VECTOR('',#1179,0.775);
#177=VECTOR('',#1184,10.);
#178=VECTOR('',#1185,10.);
#179=VECTOR('',#1188,10.);
#180=PLANE('',#851);
#181=PLANE('',#861);
#182=PLANE('',#863);
#183=PLANE('',#868);
#184=PLANE('',#872);
#185=PLANE('',#875);
#186=PLANE('',#878);
#187=PLANE('',#879);
#188=PLANE('',#884);
#189=PLANE('',#885);
#190=PLANE('',#888);
#191=PLANE('',#889);
#192=PLANE('',#890);
#193=PLANE('',#898);
#194=PLANE('',#899);
#195=PLANE('',#909);
#196=PLANE('',#916);
#197=PLANE('',#920);
#198=PLANE('',#924);
#199=PLANE('',#929);
#200=PLANE('',#930);
#201=PLANE('',#937);
#202=PLANE('',#938);
#203=PLANE('',#939);
#204=FACE_OUTER_BOUND('',#251,.T.);
#205=FACE_OUTER_BOUND('',#252,.T.);
#206=FACE_OUTER_BOUND('',#258,.T.);
#207=FACE_OUTER_BOUND('',#259,.T.);
#208=FACE_OUTER_BOUND('',#261,.T.);
#209=FACE_OUTER_BOUND('',#263,.T.);
#210=FACE_OUTER_BOUND('',#264,.T.);
#211=FACE_OUTER_BOUND('',#266,.T.);
#212=FACE_OUTER_BOUND('',#267,.T.);
#213=FACE_OUTER_BOUND('',#269,.T.);
#214=FACE_OUTER_BOUND('',#270,.T.);
#215=FACE_OUTER_BOUND('',#271,.T.);
#216=FACE_OUTER_BOUND('',#272,.T.);
#217=FACE_OUTER_BOUND('',#273,.T.);
#218=FACE_OUTER_BOUND('',#276,.T.);
#219=FACE_OUTER_BOUND('',#277,.T.);
#220=FACE_OUTER_BOUND('',#278,.T.);
#221=FACE_OUTER_BOUND('',#279,.T.);
#222=FACE_OUTER_BOUND('',#280,.T.);
#223=FACE_OUTER_BOUND('',#281,.T.);
#224=FACE_OUTER_BOUND('',#282,.T.);
#225=FACE_OUTER_BOUND('',#283,.T.);
#226=FACE_OUTER_BOUND('',#284,.T.);
#227=FACE_OUTER_BOUND('',#285,.T.);
#228=FACE_OUTER_BOUND('',#286,.T.);
#229=FACE_OUTER_BOUND('',#287,.T.);
#230=FACE_OUTER_BOUND('',#288,.T.);
#231=FACE_OUTER_BOUND('',#289,.T.);
#232=FACE_OUTER_BOUND('',#290,.T.);
#233=FACE_OUTER_BOUND('',#293,.T.);
#234=FACE_OUTER_BOUND('',#294,.T.);
#235=FACE_OUTER_BOUND('',#295,.T.);
#236=FACE_OUTER_BOUND('',#296,.T.);
#237=FACE_OUTER_BOUND('',#297,.T.);
#238=FACE_OUTER_BOUND('',#298,.T.);
#239=FACE_OUTER_BOUND('',#299,.T.);
#240=FACE_OUTER_BOUND('',#300,.T.);
#241=FACE_OUTER_BOUND('',#301,.T.);
#242=FACE_OUTER_BOUND('',#302,.T.);
#243=FACE_OUTER_BOUND('',#303,.T.);
#244=FACE_OUTER_BOUND('',#304,.T.);
#245=FACE_OUTER_BOUND('',#305,.T.);
#246=FACE_OUTER_BOUND('',#306,.T.);
#247=FACE_OUTER_BOUND('',#307,.T.);
#248=FACE_OUTER_BOUND('',#308,.T.);
#249=FACE_OUTER_BOUND('',#312,.T.);
#250=FACE_OUTER_BOUND('',#313,.T.);
#251=EDGE_LOOP('',(#547,#548,#549,#550));
#252=EDGE_LOOP('',(#551,#552,#553,#554,#555,#556));
#253=EDGE_LOOP('',(#557));
#254=EDGE_LOOP('',(#558));
#255=EDGE_LOOP('',(#559));
#256=EDGE_LOOP('',(#560));
#257=EDGE_LOOP('',(#561));
#258=EDGE_LOOP('',(#562,#563,#564,#565));
#259=EDGE_LOOP('',(#566));
#260=EDGE_LOOP('',(#567));
#261=EDGE_LOOP('',(#568));
#262=EDGE_LOOP('',(#569));
#263=EDGE_LOOP('',(#570,#571,#572,#573));
#264=EDGE_LOOP('',(#574));
#265=EDGE_LOOP('',(#575));
#266=EDGE_LOOP('',(#576,#577,#578,#579));
#267=EDGE_LOOP('',(#580));
#268=EDGE_LOOP('',(#581));
#269=EDGE_LOOP('',(#582,#583,#584,#585));
#270=EDGE_LOOP('',(#586));
#271=EDGE_LOOP('',(#587,#588,#589,#590));
#272=EDGE_LOOP('',(#591));
#273=EDGE_LOOP('',(#592,#593,#594,#595,#596,#597,#598,#599,#600,#601,#602,
#603));
#274=EDGE_LOOP('',(#604));
#275=EDGE_LOOP('',(#605));
#276=EDGE_LOOP('',(#606,#607,#608,#609,#610));
#277=EDGE_LOOP('',(#611,#612,#613,#614,#615,#616));
#278=EDGE_LOOP('',(#617,#618,#619,#620));
#279=EDGE_LOOP('',(#621,#622,#623,#624));
#280=EDGE_LOOP('',(#625,#626,#627,#628));
#281=EDGE_LOOP('',(#629,#630,#631,#632,#633));
#282=EDGE_LOOP('',(#634,#635,#636,#637));
#283=EDGE_LOOP('',(#638,#639,#640,#641));
#284=EDGE_LOOP('',(#642,#643,#644,#645));
#285=EDGE_LOOP('',(#646,#647,#648,#649,#650,#651));
#286=EDGE_LOOP('',(#652,#653,#654,#655,#656));
#287=EDGE_LOOP('',(#657,#658,#659,#660));
#288=EDGE_LOOP('',(#661,#662,#663,#664));
#289=EDGE_LOOP('',(#665,#666,#667,#668));
#290=EDGE_LOOP('',(#669,#670,#671,#672,#673,#674,#675,#676));
#291=EDGE_LOOP('',(#677));
#292=EDGE_LOOP('',(#678));
#293=EDGE_LOOP('',(#679,#680,#681,#682));
#294=EDGE_LOOP('',(#683,#684,#685,#686));
#295=EDGE_LOOP('',(#687,#688,#689,#690));
#296=EDGE_LOOP('',(#691,#692,#693,#694));
#297=EDGE_LOOP('',(#695,#696,#697,#698,#699));
#298=EDGE_LOOP('',(#700,#701,#702,#703));
#299=EDGE_LOOP('',(#704,#705,#706,#707,#708,#709,#710,#711,#712,#713,#714,
#715));
#300=EDGE_LOOP('',(#716,#717,#718,#719));
#301=EDGE_LOOP('',(#720,#721,#722,#723));
#302=EDGE_LOOP('',(#724,#725,#726,#727));
#303=EDGE_LOOP('',(#728,#729,#730,#731,#732,#733));
#304=EDGE_LOOP('',(#734,#735,#736,#737,#738));
#305=EDGE_LOOP('',(#739,#740,#741,#742));
#306=EDGE_LOOP('',(#743,#744,#745,#746));
#307=EDGE_LOOP('',(#747,#748,#749,#750));
#308=EDGE_LOOP('',(#751,#752,#753,#754,#755,#756));
#309=EDGE_LOOP('',(#757));
#310=EDGE_LOOP('',(#758));
#311=EDGE_LOOP('',(#759));
#312=EDGE_LOOP('',(#760,#761,#762,#763,#764));
#313=EDGE_LOOP('',(#765,#766,#767,#768,#769,#770,#771,#772));
#314=CIRCLE('',#848,4.);
#315=CIRCLE('',#849,2.);
#316=CIRCLE('',#850,6.);
#317=CIRCLE('',#852,1.);
#318=CIRCLE('',#853,1.);
#319=CIRCLE('',#854,6.);
#320=CIRCLE('',#855,2.5);
#321=CIRCLE('',#856,0.775);
#322=CIRCLE('',#857,0.775);
#323=CIRCLE('',#859,4.);
#324=CIRCLE('',#860,2.);
#325=CIRCLE('',#862,3.);
#326=CIRCLE('',#864,3.);
#327=CIRCLE('',#866,2.1);
#328=CIRCLE('',#867,2.1);
#329=CIRCLE('',#869,2.25);
#330=CIRCLE('',#871,2.5);
#331=CIRCLE('',#874,3.);
#332=CIRCLE('',#877,3.);
#333=CIRCLE('',#880,1.);
#334=CIRCLE('',#881,1.);
#335=CIRCLE('',#882,1.25);
#336=CIRCLE('',#883,1.25);
#337=CIRCLE('',#886,1.);
#338=CIRCLE('',#887,1.);
#339=CIRCLE('',#892,2.);
#340=CIRCLE('',#893,1.);
#341=CIRCLE('',#894,1.);
#342=CIRCLE('',#896,1.);
#343=CIRCLE('',#900,1.);
#344=CIRCLE('',#902,1.);
#345=CIRCLE('',#903,1.);
#346=CIRCLE('',#904,2.);
#347=CIRCLE('',#908,1.);
#348=CIRCLE('',#910,1.25);
#349=CIRCLE('',#911,1.25);
#350=CIRCLE('',#914,0.5);
#351=CIRCLE('',#915,0.5);
#352=CIRCLE('',#918,0.5);
#353=CIRCLE('',#919,0.5);
#354=CIRCLE('',#922,1.);
#355=CIRCLE('',#923,1.);
#356=CIRCLE('',#925,1.);
#357=CIRCLE('',#932,0.775);
#358=CIRCLE('',#934,2.25);
#359=CIRCLE('',#936,0.775);
#360=VERTEX_POINT('',#1193);
#361=VERTEX_POINT('',#1195);
#362=VERTEX_POINT('',#1199);
#363=VERTEX_POINT('',#1200);
#364=VERTEX_POINT('',#1202);
#365=VERTEX_POINT('',#1204);
#366=VERTEX_POINT('',#1206);
#367=VERTEX_POINT('',#1208);
#368=VERTEX_POINT('',#1211);
#369=VERTEX_POINT('',#1213);
#370=VERTEX_POINT('',#1215);
#371=VERTEX_POINT('',#1217);
#372=VERTEX_POINT('',#1220);
#373=VERTEX_POINT('',#1224);
#374=VERTEX_POINT('',#1227);
#375=VERTEX_POINT('',#1230);
#376=VERTEX_POINT('',#1232);
#377=VERTEX_POINT('',#1236);
#378=VERTEX_POINT('',#1239);
#379=VERTEX_POINT('',#1244);
#380=VERTEX_POINT('',#1249);
#381=VERTEX_POINT('',#1254);
#382=VERTEX_POINT('',#1255);
#383=VERTEX_POINT('',#1257);
#384=VERTEX_POINT('',#1259);
#385=VERTEX_POINT('',#1261);
#386=VERTEX_POINT('',#1263);
#387=VERTEX_POINT('',#1265);
#388=VERTEX_POINT('',#1268);
#389=VERTEX_POINT('',#1270);
#390=VERTEX_POINT('',#1272);
#391=VERTEX_POINT('',#1275);
#392=VERTEX_POINT('',#1277);
#393=VERTEX_POINT('',#1280);
#394=VERTEX_POINT('',#1282);
#395=VERTEX_POINT('',#1284);
#396=VERTEX_POINT('',#1288);
#397=VERTEX_POINT('',#1290);
#398=VERTEX_POINT('',#1292);
#399=VERTEX_POINT('',#1298);
#400=VERTEX_POINT('',#1300);
#401=VERTEX_POINT('',#1304);
#402=VERTEX_POINT('',#1308);
#403=VERTEX_POINT('',#1309);
#404=VERTEX_POINT('',#1314);
#405=VERTEX_POINT('',#1316);
#406=VERTEX_POINT('',#1326);
#407=VERTEX_POINT('',#1327);
#408=VERTEX_POINT('',#1336);
#409=VERTEX_POINT('',#1340);
#410=VERTEX_POINT('',#1341);
#411=VERTEX_POINT('',#1349);
#412=VERTEX_POINT('',#1351);
#413=VERTEX_POINT('',#1362);
#414=VERTEX_POINT('',#1366);
#415=VERTEX_POINT('',#1368);
#416=VERTEX_POINT('',#1370);
#417=VERTEX_POINT('',#1374);
#418=VERTEX_POINT('',#1376);
#419=VERTEX_POINT('',#1380);
#420=VERTEX_POINT('',#1381);
#421=VERTEX_POINT('',#1383);
#422=VERTEX_POINT('',#1385);
#423=VERTEX_POINT('',#1389);
#424=VERTEX_POINT('',#1391);
#425=VERTEX_POINT('',#1395);
#426=VERTEX_POINT('',#1397);
#427=VERTEX_POINT('',#1401);
#428=VERTEX_POINT('',#1406);
#429=VERTEX_POINT('',#1408);
#430=VERTEX_POINT('',#1424);
#431=VERTEX_POINT('',#1428);
#432=VERTEX_POINT('',#1432);
#433=VERTEX_POINT('',#1436);
#434=EDGE_CURVE('',#360,#360,#314,.T.);
#435=EDGE_CURVE('',#360,#361,#315,.T.);
#436=EDGE_CURVE('',#361,#361,#316,.T.);
#437=EDGE_CURVE('',#362,#363,#54,.T.);
#438=EDGE_CURVE('',#364,#363,#317,.T.);
#439=EDGE_CURVE('',#365,#364,#55,.T.);
#440=EDGE_CURVE('',#365,#366,#56,.T.);
#441=EDGE_CURVE('',#367,#366,#57,.T.);
#442=EDGE_CURVE('',#362,#367,#318,.T.);
#443=EDGE_CURVE('',#368,#368,#319,.T.);
#444=EDGE_CURVE('',#369,#369,#320,.T.);
#445=EDGE_CURVE('',#370,#370,#321,.T.);
#446=EDGE_CURVE('',#371,#371,#322,.T.);
#447=EDGE_CURVE('',#372,#372,#323,.T.);
#448=EDGE_CURVE('',#372,#368,#324,.T.);
#449=EDGE_CURVE('',#373,#373,#325,.T.);
#450=EDGE_CURVE('',#374,#374,#326,.T.);
#451=EDGE_CURVE('',#375,#375,#327,.T.);
#452=EDGE_CURVE('',#375,#376,#58,.T.);
#453=EDGE_CURVE('',#376,#376,#328,.T.);
#454=EDGE_CURVE('',#377,#377,#329,.T.);
#455=EDGE_CURVE('',#369,#378,#59,.T.);
#456=EDGE_CURVE('',#378,#378,#330,.T.);
#457=EDGE_CURVE('',#379,#379,#331,.T.);
#458=EDGE_CURVE('',#379,#374,#60,.T.);
#459=EDGE_CURVE('',#380,#380,#332,.T.);
#460=EDGE_CURVE('',#380,#373,#61,.T.);
#461=EDGE_CURVE('',#381,#382,#62,.T.);
#462=EDGE_CURVE('',#383,#381,#63,.T.);
#463=EDGE_CURVE('',#384,#383,#64,.T.);
#464=EDGE_CURVE('',#385,#384,#333,.T.);
#465=EDGE_CURVE('',#386,#385,#65,.T.);
#466=EDGE_CURVE('',#387,#386,#66,.T.);
#467=EDGE_CURVE('',#366,#387,#67,.T.);
#468=EDGE_CURVE('',#388,#365,#68,.T.);
#469=EDGE_CURVE('',#389,#388,#69,.T.);
#470=EDGE_CURVE('',#390,#389,#70,.T.);
#471=EDGE_CURVE('',#382,#390,#334,.T.);
#472=EDGE_CURVE('',#391,#391,#335,.T.);
#473=EDGE_CURVE('',#392,#392,#336,.T.);
#474=EDGE_CURVE('',#389,#393,#71,.T.);
#475=EDGE_CURVE('',#394,#393,#72,.T.);
#476=EDGE_CURVE('',#395,#394,#73,.T.);
#477=EDGE_CURVE('',#390,#395,#74,.T.);
#478=EDGE_CURVE('',#396,#388,#75,.T.);
#479=EDGE_CURVE('',#397,#396,#337,.T.);
#480=EDGE_CURVE('',#398,#397,#76,.T.);
#481=EDGE_CURVE('',#393,#398,#338,.F.);
#482=EDGE_CURVE('',#396,#364,#77,.T.);
#483=EDGE_CURVE('',#399,#383,#78,.T.);
#484=EDGE_CURVE('',#400,#399,#79,.T.);
#485=EDGE_CURVE('',#384,#400,#80,.T.);
#486=EDGE_CURVE('',#387,#401,#81,.T.);
#487=EDGE_CURVE('',#367,#401,#82,.T.);
#488=EDGE_CURVE('',#402,#403,#15,.F.);
#489=EDGE_CURVE('',#403,#404,#339,.T.);
#490=EDGE_CURVE('',#404,#405,#340,.T.);
#491=EDGE_CURVE('',#405,#395,#341,.T.);
#492=EDGE_CURVE('',#395,#402,#16,.F.);
#493=EDGE_CURVE('',#406,#407,#342,.T.);
#494=EDGE_CURVE('',#407,#405,#83,.T.);
#495=EDGE_CURVE('',#404,#406,#84,.T.);
#496=EDGE_CURVE('',#405,#382,#85,.T.);
#497=EDGE_CURVE('',#381,#407,#86,.T.);
#498=EDGE_CURVE('',#406,#408,#87,.T.);
#499=EDGE_CURVE('',#399,#408,#343,.T.);
#500=EDGE_CURVE('',#409,#410,#17,.T.);
#501=EDGE_CURVE('',#409,#400,#344,.T.);
#502=EDGE_CURVE('',#400,#411,#345,.T.);
#503=EDGE_CURVE('',#411,#412,#346,.T.);
#504=EDGE_CURVE('',#410,#412,#18,.T.);
#505=EDGE_CURVE('',#408,#411,#88,.T.);
#506=EDGE_CURVE('',#409,#385,#89,.T.);
#507=EDGE_CURVE('',#401,#413,#347,.T.);
#508=EDGE_CURVE('',#413,#362,#90,.T.);
#509=EDGE_CURVE('',#414,#413,#91,.T.);
#510=EDGE_CURVE('',#415,#414,#92,.T.);
#511=EDGE_CURVE('',#416,#415,#93,.T.);
#512=EDGE_CURVE('',#398,#416,#94,.T.);
#513=EDGE_CURVE('',#363,#397,#95,.T.);
#514=EDGE_CURVE('',#417,#417,#348,.T.);
#515=EDGE_CURVE('',#418,#418,#349,.T.);
#516=EDGE_CURVE('',#419,#420,#350,.T.);
#517=EDGE_CURVE('',#419,#421,#96,.T.);
#518=EDGE_CURVE('',#421,#422,#351,.T.);
#519=EDGE_CURVE('',#422,#420,#97,.T.);
#520=EDGE_CURVE('',#419,#423,#98,.T.);
#521=EDGE_CURVE('',#424,#423,#99,.T.);
#522=EDGE_CURVE('',#421,#424,#100,.T.);
#523=EDGE_CURVE('',#425,#423,#352,.T.);
#524=EDGE_CURVE('',#425,#426,#101,.T.);
#525=EDGE_CURVE('',#426,#424,#353,.T.);
#526=EDGE_CURVE('',#425,#427,#102,.T.);
#527=EDGE_CURVE('',#427,#403,#103,.T.);
#528=EDGE_CURVE('',#426,#402,#104,.T.);
#529=EDGE_CURVE('',#428,#415,#354,.T.);
#530=EDGE_CURVE('',#414,#429,#355,.F.);
#531=EDGE_CURVE('',#429,#428,#105,.T.);
#532=EDGE_CURVE('',#416,#394,#356,.T.);
#533=EDGE_CURVE('',#428,#409,#106,.T.);
#534=EDGE_CURVE('',#410,#422,#107,.T.);
#535=EDGE_CURVE('',#418,#392,#108,.T.);
#536=EDGE_CURVE('',#417,#391,#109,.T.);
#537=EDGE_CURVE('',#429,#386,#110,.T.);
#538=EDGE_CURVE('',#371,#430,#111,.T.);
#539=EDGE_CURVE('',#430,#430,#357,.T.);
#540=EDGE_CURVE('',#377,#431,#112,.T.);
#541=EDGE_CURVE('',#431,#431,#358,.T.);
#542=EDGE_CURVE('',#370,#432,#113,.T.);
#543=EDGE_CURVE('',#432,#432,#359,.T.);
#544=EDGE_CURVE('',#433,#420,#114,.T.);
#545=EDGE_CURVE('',#427,#433,#115,.T.);
#546=EDGE_CURVE('',#433,#412,#116,.T.);
#547=ORIENTED_EDGE('',*,*,#434,.F.);
#548=ORIENTED_EDGE('',*,*,#435,.T.);
#549=ORIENTED_EDGE('',*,*,#436,.T.);
#550=ORIENTED_EDGE('',*,*,#435,.F.);
#551=ORIENTED_EDGE('',*,*,#437,.T.);
#552=ORIENTED_EDGE('',*,*,#438,.F.);
#553=ORIENTED_EDGE('',*,*,#439,.F.);
#554=ORIENTED_EDGE('',*,*,#440,.T.);
#555=ORIENTED_EDGE('',*,*,#441,.F.);
#556=ORIENTED_EDGE('',*,*,#442,.F.);
#557=ORIENTED_EDGE('',*,*,#443,.F.);
#558=ORIENTED_EDGE('',*,*,#444,.T.);
#559=ORIENTED_EDGE('',*,*,#445,.F.);
#560=ORIENTED_EDGE('',*,*,#446,.F.);
#561=ORIENTED_EDGE('',*,*,#436,.F.);
#562=ORIENTED_EDGE('',*,*,#447,.F.);
#563=ORIENTED_EDGE('',*,*,#448,.T.);
#564=ORIENTED_EDGE('',*,*,#443,.T.);
#565=ORIENTED_EDGE('',*,*,#448,.F.);
#566=ORIENTED_EDGE('',*,*,#434,.T.);
#567=ORIENTED_EDGE('',*,*,#449,.F.);
#568=ORIENTED_EDGE('',*,*,#447,.T.);
#569=ORIENTED_EDGE('',*,*,#450,.F.);
#570=ORIENTED_EDGE('',*,*,#451,.F.);
#571=ORIENTED_EDGE('',*,*,#452,.T.);
#572=ORIENTED_EDGE('',*,*,#453,.F.);
#573=ORIENTED_EDGE('',*,*,#452,.F.);
#574=ORIENTED_EDGE('',*,*,#454,.F.);
#575=ORIENTED_EDGE('',*,*,#451,.T.);
#576=ORIENTED_EDGE('',*,*,#444,.F.);
#577=ORIENTED_EDGE('',*,*,#455,.T.);
#578=ORIENTED_EDGE('',*,*,#456,.T.);
#579=ORIENTED_EDGE('',*,*,#455,.F.);
#580=ORIENTED_EDGE('',*,*,#456,.F.);
#581=ORIENTED_EDGE('',*,*,#453,.T.);
#582=ORIENTED_EDGE('',*,*,#457,.F.);
#583=ORIENTED_EDGE('',*,*,#458,.T.);
#584=ORIENTED_EDGE('',*,*,#450,.T.);
#585=ORIENTED_EDGE('',*,*,#458,.F.);
#586=ORIENTED_EDGE('',*,*,#457,.T.);
#587=ORIENTED_EDGE('',*,*,#459,.F.);
#588=ORIENTED_EDGE('',*,*,#460,.T.);
#589=ORIENTED_EDGE('',*,*,#449,.T.);
#590=ORIENTED_EDGE('',*,*,#460,.F.);
#591=ORIENTED_EDGE('',*,*,#459,.T.);
#592=ORIENTED_EDGE('',*,*,#461,.F.);
#593=ORIENTED_EDGE('',*,*,#462,.F.);
#594=ORIENTED_EDGE('',*,*,#463,.F.);
#595=ORIENTED_EDGE('',*,*,#464,.F.);
#596=ORIENTED_EDGE('',*,*,#465,.F.);
#597=ORIENTED_EDGE('',*,*,#466,.F.);
#598=ORIENTED_EDGE('',*,*,#467,.F.);
#599=ORIENTED_EDGE('',*,*,#440,.F.);
#600=ORIENTED_EDGE('',*,*,#468,.F.);
#601=ORIENTED_EDGE('',*,*,#469,.F.);
#602=ORIENTED_EDGE('',*,*,#470,.F.);
#603=ORIENTED_EDGE('',*,*,#471,.F.);
#604=ORIENTED_EDGE('',*,*,#472,.F.);
#605=ORIENTED_EDGE('',*,*,#473,.F.);
#606=ORIENTED_EDGE('',*,*,#470,.T.);
#607=ORIENTED_EDGE('',*,*,#474,.T.);
#608=ORIENTED_EDGE('',*,*,#475,.F.);
#609=ORIENTED_EDGE('',*,*,#476,.F.);
#610=ORIENTED_EDGE('',*,*,#477,.F.);
#611=ORIENTED_EDGE('',*,*,#469,.T.);
#612=ORIENTED_EDGE('',*,*,#478,.F.);
#613=ORIENTED_EDGE('',*,*,#479,.F.);
#614=ORIENTED_EDGE('',*,*,#480,.F.);
#615=ORIENTED_EDGE('',*,*,#481,.F.);
#616=ORIENTED_EDGE('',*,*,#474,.F.);
#617=ORIENTED_EDGE('',*,*,#468,.T.);
#618=ORIENTED_EDGE('',*,*,#439,.T.);
#619=ORIENTED_EDGE('',*,*,#482,.F.);
#620=ORIENTED_EDGE('',*,*,#478,.T.);
#621=ORIENTED_EDGE('',*,*,#463,.T.);
#622=ORIENTED_EDGE('',*,*,#483,.F.);
#623=ORIENTED_EDGE('',*,*,#484,.F.);
#624=ORIENTED_EDGE('',*,*,#485,.F.);
#625=ORIENTED_EDGE('',*,*,#467,.T.);
#626=ORIENTED_EDGE('',*,*,#486,.T.);
#627=ORIENTED_EDGE('',*,*,#487,.F.);
#628=ORIENTED_EDGE('',*,*,#441,.T.);
#629=ORIENTED_EDGE('',*,*,#488,.T.);
#630=ORIENTED_EDGE('',*,*,#489,.T.);
#631=ORIENTED_EDGE('',*,*,#490,.T.);
#632=ORIENTED_EDGE('',*,*,#491,.T.);
#633=ORIENTED_EDGE('',*,*,#492,.T.);
#634=ORIENTED_EDGE('',*,*,#493,.T.);
#635=ORIENTED_EDGE('',*,*,#494,.T.);
#636=ORIENTED_EDGE('',*,*,#490,.F.);
#637=ORIENTED_EDGE('',*,*,#495,.T.);
#638=ORIENTED_EDGE('',*,*,#471,.T.);
#639=ORIENTED_EDGE('',*,*,#477,.T.);
#640=ORIENTED_EDGE('',*,*,#491,.F.);
#641=ORIENTED_EDGE('',*,*,#496,.T.);
#642=ORIENTED_EDGE('',*,*,#461,.T.);
#643=ORIENTED_EDGE('',*,*,#496,.F.);
#644=ORIENTED_EDGE('',*,*,#494,.F.);
#645=ORIENTED_EDGE('',*,*,#497,.F.);
#646=ORIENTED_EDGE('',*,*,#462,.T.);
#647=ORIENTED_EDGE('',*,*,#497,.T.);
#648=ORIENTED_EDGE('',*,*,#493,.F.);
#649=ORIENTED_EDGE('',*,*,#498,.T.);
#650=ORIENTED_EDGE('',*,*,#499,.F.);
#651=ORIENTED_EDGE('',*,*,#483,.T.);
#652=ORIENTED_EDGE('',*,*,#500,.F.);
#653=ORIENTED_EDGE('',*,*,#501,.T.);
#654=ORIENTED_EDGE('',*,*,#502,.T.);
#655=ORIENTED_EDGE('',*,*,#503,.T.);
#656=ORIENTED_EDGE('',*,*,#504,.F.);
#657=ORIENTED_EDGE('',*,*,#499,.T.);
#658=ORIENTED_EDGE('',*,*,#505,.T.);
#659=ORIENTED_EDGE('',*,*,#502,.F.);
#660=ORIENTED_EDGE('',*,*,#484,.T.);
#661=ORIENTED_EDGE('',*,*,#464,.T.);
#662=ORIENTED_EDGE('',*,*,#485,.T.);
#663=ORIENTED_EDGE('',*,*,#501,.F.);
#664=ORIENTED_EDGE('',*,*,#506,.T.);
#665=ORIENTED_EDGE('',*,*,#442,.T.);
#666=ORIENTED_EDGE('',*,*,#487,.T.);
#667=ORIENTED_EDGE('',*,*,#507,.T.);
#668=ORIENTED_EDGE('',*,*,#508,.T.);
#669=ORIENTED_EDGE('',*,*,#508,.F.);
#670=ORIENTED_EDGE('',*,*,#509,.F.);
#671=ORIENTED_EDGE('',*,*,#510,.F.);
#672=ORIENTED_EDGE('',*,*,#511,.F.);
#673=ORIENTED_EDGE('',*,*,#512,.F.);
#674=ORIENTED_EDGE('',*,*,#480,.T.);
#675=ORIENTED_EDGE('',*,*,#513,.F.);
#676=ORIENTED_EDGE('',*,*,#437,.F.);
#677=ORIENTED_EDGE('',*,*,#514,.T.);
#678=ORIENTED_EDGE('',*,*,#515,.T.);
#679=ORIENTED_EDGE('',*,*,#479,.T.);
#680=ORIENTED_EDGE('',*,*,#482,.T.);
#681=ORIENTED_EDGE('',*,*,#438,.T.);
#682=ORIENTED_EDGE('',*,*,#513,.T.);
#683=ORIENTED_EDGE('',*,*,#516,.F.);
#684=ORIENTED_EDGE('',*,*,#517,.T.);
#685=ORIENTED_EDGE('',*,*,#518,.T.);
#686=ORIENTED_EDGE('',*,*,#519,.T.);
#687=ORIENTED_EDGE('',*,*,#517,.F.);
#688=ORIENTED_EDGE('',*,*,#520,.T.);
#689=ORIENTED_EDGE('',*,*,#521,.F.);
#690=ORIENTED_EDGE('',*,*,#522,.F.);
#691=ORIENTED_EDGE('',*,*,#523,.F.);
#692=ORIENTED_EDGE('',*,*,#524,.T.);
#693=ORIENTED_EDGE('',*,*,#525,.T.);
#694=ORIENTED_EDGE('',*,*,#521,.T.);
#695=ORIENTED_EDGE('',*,*,#524,.F.);
#696=ORIENTED_EDGE('',*,*,#526,.T.);
#697=ORIENTED_EDGE('',*,*,#527,.T.);
#698=ORIENTED_EDGE('',*,*,#488,.F.);
#699=ORIENTED_EDGE('',*,*,#528,.F.);
#700=ORIENTED_EDGE('',*,*,#529,.T.);
#701=ORIENTED_EDGE('',*,*,#510,.T.);
#702=ORIENTED_EDGE('',*,*,#530,.T.);
#703=ORIENTED_EDGE('',*,*,#531,.T.);
#704=ORIENTED_EDGE('',*,*,#476,.T.);
#705=ORIENTED_EDGE('',*,*,#532,.F.);
#706=ORIENTED_EDGE('',*,*,#511,.T.);
#707=ORIENTED_EDGE('',*,*,#529,.F.);
#708=ORIENTED_EDGE('',*,*,#533,.T.);
#709=ORIENTED_EDGE('',*,*,#500,.T.);
#710=ORIENTED_EDGE('',*,*,#534,.T.);
#711=ORIENTED_EDGE('',*,*,#518,.F.);
#712=ORIENTED_EDGE('',*,*,#522,.T.);
#713=ORIENTED_EDGE('',*,*,#525,.F.);
#714=ORIENTED_EDGE('',*,*,#528,.T.);
#715=ORIENTED_EDGE('',*,*,#492,.F.);
#716=ORIENTED_EDGE('',*,*,#532,.T.);
#717=ORIENTED_EDGE('',*,*,#475,.T.);
#718=ORIENTED_EDGE('',*,*,#481,.T.);
#719=ORIENTED_EDGE('',*,*,#512,.T.);
#720=ORIENTED_EDGE('',*,*,#515,.F.);
#721=ORIENTED_EDGE('',*,*,#535,.T.);
#722=ORIENTED_EDGE('',*,*,#473,.T.);
#723=ORIENTED_EDGE('',*,*,#535,.F.);
#724=ORIENTED_EDGE('',*,*,#514,.F.);
#725=ORIENTED_EDGE('',*,*,#536,.T.);
#726=ORIENTED_EDGE('',*,*,#472,.T.);
#727=ORIENTED_EDGE('',*,*,#536,.F.);
#728=ORIENTED_EDGE('',*,*,#466,.T.);
#729=ORIENTED_EDGE('',*,*,#537,.F.);
#730=ORIENTED_EDGE('',*,*,#530,.F.);
#731=ORIENTED_EDGE('',*,*,#509,.T.);
#732=ORIENTED_EDGE('',*,*,#507,.F.);
#733=ORIENTED_EDGE('',*,*,#486,.F.);
#734=ORIENTED_EDGE('',*,*,#465,.T.);
#735=ORIENTED_EDGE('',*,*,#506,.F.);
#736=ORIENTED_EDGE('',*,*,#533,.F.);
#737=ORIENTED_EDGE('',*,*,#531,.F.);
#738=ORIENTED_EDGE('',*,*,#537,.T.);
#739=ORIENTED_EDGE('',*,*,#446,.T.);
#740=ORIENTED_EDGE('',*,*,#538,.T.);
#741=ORIENTED_EDGE('',*,*,#539,.T.);
#742=ORIENTED_EDGE('',*,*,#538,.F.);
#743=ORIENTED_EDGE('',*,*,#454,.T.);
#744=ORIENTED_EDGE('',*,*,#540,.T.);
#745=ORIENTED_EDGE('',*,*,#541,.F.);
#746=ORIENTED_EDGE('',*,*,#540,.F.);
#747=ORIENTED_EDGE('',*,*,#445,.T.);
#748=ORIENTED_EDGE('',*,*,#542,.T.);
#749=ORIENTED_EDGE('',*,*,#543,.F.);
#750=ORIENTED_EDGE('',*,*,#542,.F.);
#751=ORIENTED_EDGE('',*,*,#516,.T.);
#752=ORIENTED_EDGE('',*,*,#544,.F.);
#753=ORIENTED_EDGE('',*,*,#545,.F.);
#754=ORIENTED_EDGE('',*,*,#526,.F.);
#755=ORIENTED_EDGE('',*,*,#523,.T.);
#756=ORIENTED_EDGE('',*,*,#520,.F.);
#757=ORIENTED_EDGE('',*,*,#539,.F.);
#758=ORIENTED_EDGE('',*,*,#541,.T.);
#759=ORIENTED_EDGE('',*,*,#543,.T.);
#760=ORIENTED_EDGE('',*,*,#519,.F.);
#761=ORIENTED_EDGE('',*,*,#534,.F.);
#762=ORIENTED_EDGE('',*,*,#504,.T.);
#763=ORIENTED_EDGE('',*,*,#546,.F.);
#764=ORIENTED_EDGE('',*,*,#544,.T.);
#765=ORIENTED_EDGE('',*,*,#489,.F.);
#766=ORIENTED_EDGE('',*,*,#527,.F.);
#767=ORIENTED_EDGE('',*,*,#545,.T.);
#768=ORIENTED_EDGE('',*,*,#546,.T.);
#769=ORIENTED_EDGE('',*,*,#503,.F.);
#770=ORIENTED_EDGE('',*,*,#505,.F.);
#771=ORIENTED_EDGE('',*,*,#498,.F.);
#772=ORIENTED_EDGE('',*,*,#495,.F.);
#773=TOROIDAL_SURFACE('',#847,6.,2.);
#774=TOROIDAL_SURFACE('',#858,6.,2.);
#775=TOROIDAL_SURFACE('',#891,2.,1.);
#776=TOROIDAL_SURFACE('',#901,2.,1.);
#777=ADVANCED_FACE('',(#204),#773,.F.);
#778=ADVANCED_FACE('',(#205,#38,#39,#40,#41,#42),#180,.T.);
#779=ADVANCED_FACE('',(#206),#774,.F.);
#780=ADVANCED_FACE('',(#207,#43),#181,.T.);
#781=ADVANCED_FACE('',(#208,#44),#182,.T.);
#782=ADVANCED_FACE('',(#209),#19,.F.);
#783=ADVANCED_FACE('',(#210,#45),#183,.F.);
#784=ADVANCED_FACE('',(#211),#20,.F.);
#785=ADVANCED_FACE('',(#212,#46),#184,.T.);
#786=ADVANCED_FACE('',(#213),#21,.T.);
#787=ADVANCED_FACE('',(#214),#185,.F.);
#788=ADVANCED_FACE('',(#215),#22,.T.);
#789=ADVANCED_FACE('',(#216),#186,.F.);
#790=ADVANCED_FACE('',(#217,#47,#48),#187,.F.);
#791=ADVANCED_FACE('',(#218),#188,.T.);
#792=ADVANCED_FACE('',(#219),#189,.T.);
#793=ADVANCED_FACE('',(#220),#190,.T.);
#794=ADVANCED_FACE('',(#221),#191,.T.);
#795=ADVANCED_FACE('',(#222),#192,.T.);
#796=ADVANCED_FACE('',(#223),#775,.T.);
#797=ADVANCED_FACE('',(#224),#23,.T.);
#798=ADVANCED_FACE('',(#225),#24,.F.);
#799=ADVANCED_FACE('',(#226),#193,.T.);
#800=ADVANCED_FACE('',(#227),#194,.T.);
#801=ADVANCED_FACE('',(#228),#776,.T.);
#802=ADVANCED_FACE('',(#229),#25,.T.);
#803=ADVANCED_FACE('',(#230),#26,.F.);
#804=ADVANCED_FACE('',(#231),#27,.T.);
#805=ADVANCED_FACE('',(#232,#49,#50),#195,.T.);
#806=ADVANCED_FACE('',(#233),#28,.T.);
#807=ADVANCED_FACE('',(#234),#29,.F.);
#808=ADVANCED_FACE('',(#235),#196,.T.);
#809=ADVANCED_FACE('',(#236),#30,.F.);
#810=ADVANCED_FACE('',(#237),#197,.T.);
#811=ADVANCED_FACE('',(#238),#31,.T.);
#812=ADVANCED_FACE('',(#239),#198,.T.);
#813=ADVANCED_FACE('',(#240),#32,.T.);
#814=ADVANCED_FACE('',(#241),#33,.F.);
#815=ADVANCED_FACE('',(#242),#34,.F.);
#816=ADVANCED_FACE('',(#243),#199,.T.);
#817=ADVANCED_FACE('',(#244),#200,.T.);
#818=ADVANCED_FACE('',(#245),#35,.F.);
#819=ADVANCED_FACE('',(#246),#36,.F.);
#820=ADVANCED_FACE('',(#247),#37,.F.);
#821=ADVANCED_FACE('',(#248,#51,#52,#53),#201,.T.);
#822=ADVANCED_FACE('',(#249),#202,.T.);
#823=ADVANCED_FACE('',(#250),#203,.T.);
#824=CLOSED_SHELL('',(#777,#778,#779,#780,#781,#782,#783,#784,#785,#786,
#787,#788,#789,#790,#791,#792,#793,#794,#795,#796,#797,#798,#799,#800,#801,
#802,#803,#804,#805,#806,#807,#808,#809,#810,#811,#812,#813,#814,#815,#816,
#817,#818,#819,#820,#821,#822,#823));
#825=DERIVED_UNIT_ELEMENT(#828,1.);
#826=DERIVED_UNIT_ELEMENT(#1447,-3.);
#827=DIMENSIONAL_EXPONENTS(0.,1.,0.,0.,0.,0.,0.);
#828=(
CONVERSION_BASED_UNIT('gram',#830)
MASS_UNIT()
NAMED_UNIT(#827)
);
#829=(
MASS_UNIT()
NAMED_UNIT(*)
SI_UNIT(.KILO.,.GRAM.)
);
#830=MASS_MEASURE_WITH_UNIT(MASS_MEASURE(0.001),#829);
#831=DERIVED_UNIT((#825,#826));
#832=MEASURE_REPRESENTATION_ITEM('density measure',
POSITIVE_RATIO_MEASURE(1.),#831);
#833=PROPERTY_DEFINITION_REPRESENTATION(#838,#835);
#834=PROPERTY_DEFINITION_REPRESENTATION(#839,#836);
#835=REPRESENTATION('material name',(#837),#1444);
#836=REPRESENTATION('density',(#832),#1444);
#837=DESCRIPTIVE_REPRESENTATION_ITEM('Generic','Generic');
#838=PROPERTY_DEFINITION('material property','material name',#1454);
#839=PROPERTY_DEFINITION('material property','density of part',#1454);
#840=DATE_TIME_ROLE('creation_date');
#841=APPLIED_DATE_AND_TIME_ASSIGNMENT(#842,#840,(#1454));
#842=DATE_AND_TIME(#843,#844);
#843=CALENDAR_DATE(2026,10,8);
#844=LOCAL_TIME(0,58,6.,#845);
#845=COORDINATED_UNIVERSAL_TIME_OFFSET(0,0,.BEHIND.);
#846=AXIS2_PLACEMENT_3D('',#1191,#940,#941);
#847=AXIS2_PLACEMENT_3D('',#1192,#942,#943);
#848=AXIS2_PLACEMENT_3D('',#1194,#944,#945);
#849=AXIS2_PLACEMENT_3D('',#1196,#946,#947);
#850=AXIS2_PLACEMENT_3D('',#1197,#948,#949);
#851=AXIS2_PLACEMENT_3D('',#1198,#950,#951);
#852=AXIS2_PLACEMENT_3D('',#1203,#953,#954);
#853=AXIS2_PLACEMENT_3D('',#1210,#958,#959);
#854=AXIS2_PLACEMENT_3D('',#1212,#960,#961);
#855=AXIS2_PLACEMENT_3D('',#1214,#962,#963);
#856=AXIS2_PLACEMENT_3D('',#1216,#964,#965);
#857=AXIS2_PLACEMENT_3D('',#1218,#966,#967);
#858=AXIS2_PLACEMENT_3D('',#1219,#968,#969);
#859=AXIS2_PLACEMENT_3D('',#1221,#970,#971);
#860=AXIS2_PLACEMENT_3D('',#1222,#972,#973);
#861=AXIS2_PLACEMENT_3D('',#1223,#974,#975);
#862=AXIS2_PLACEMENT_3D('',#1225,#976,#977);
#863=AXIS2_PLACEMENT_3D('',#1226,#978,#979);
#864=AXIS2_PLACEMENT_3D('',#1228,#980,#981);
#865=AXIS2_PLACEMENT_3D('',#1229,#982,#983);
#866=AXIS2_PLACEMENT_3D('',#1231,#984,#985);
#867=AXIS2_PLACEMENT_3D('',#1234,#987,#988);
#868=AXIS2_PLACEMENT_3D('',#1235,#989,#990);
#869=AXIS2_PLACEMENT_3D('',#1237,#991,#992);
#870=AXIS2_PLACEMENT_3D('',#1238,#993,#994);
#871=AXIS2_PLACEMENT_3D('',#1241,#996,#997);
#872=AXIS2_PLACEMENT_3D('',#1242,#998,#999);
#873=AXIS2_PLACEMENT_3D('',#1243,#1000,#1001);
#874=AXIS2_PLACEMENT_3D('',#1245,#1002,#1003);
#875=AXIS2_PLACEMENT_3D('',#1247,#1005,#1006);
#876=AXIS2_PLACEMENT_3D('',#1248,#1007,#1008);
#877=AXIS2_PLACEMENT_3D('',#1250,#1009,#1010);
#878=AXIS2_PLACEMENT_3D('',#1252,#1012,#1013);
#879=AXIS2_PLACEMENT_3D('',#1253,#1014,#1015);
#880=AXIS2_PLACEMENT_3D('',#1262,#1019,#1020);
#881=AXIS2_PLACEMENT_3D('',#1274,#1027,#1028);
#882=AXIS2_PLACEMENT_3D('',#1276,#1029,#1030);
#883=AXIS2_PLACEMENT_3D('',#1278,#1031,#1032);
#884=AXIS2_PLACEMENT_3D('',#1279,#1033,#1034);
#885=AXIS2_PLACEMENT_3D('',#1287,#1039,#1040);
#886=AXIS2_PLACEMENT_3D('',#1291,#1042,#1043);
#887=AXIS2_PLACEMENT_3D('',#1294,#1045,#1046);
#888=AXIS2_PLACEMENT_3D('',#1295,#1047,#1048);
#889=AXIS2_PLACEMENT_3D('',#1297,#1050,#1051);
#890=AXIS2_PLACEMENT_3D('',#1303,#1055,#1056);
#891=AXIS2_PLACEMENT_3D('',#1307,#1059,#1060);
#892=AXIS2_PLACEMENT_3D('',#1315,#1061,#1062);
#893=AXIS2_PLACEMENT_3D('',#1317,#1063,#1064);
#894=AXIS2_PLACEMENT_3D('',#1318,#1065,#1066);
#895=AXIS2_PLACEMENT_3D('',#1325,#1067,#1068);
#896=AXIS2_PLACEMENT_3D('',#1328,#1069,#1070);
#897=AXIS2_PLACEMENT_3D('',#1331,#1073,#1074);
#898=AXIS2_PLACEMENT_3D('',#1333,#1076,#1077);
#899=AXIS2_PLACEMENT_3D('',#1335,#1079,#1080);
#900=AXIS2_PLACEMENT_3D('',#1338,#1082,#1083);
#901=AXIS2_PLACEMENT_3D('',#1339,#1084,#1085);
#902=AXIS2_PLACEMENT_3D('',#1348,#1086,#1087);
#903=AXIS2_PLACEMENT_3D('',#1350,#1088,#1089);
#904=AXIS2_PLACEMENT_3D('',#1352,#1090,#1091);
#905=AXIS2_PLACEMENT_3D('',#1357,#1092,#1093);
#906=AXIS2_PLACEMENT_3D('',#1359,#1095,#1096);
#907=AXIS2_PLACEMENT_3D('',#1361,#1098,#1099);
#908=AXIS2_PLACEMENT_3D('',#1363,#1100,#1101);
#909=AXIS2_PLACEMENT_3D('',#1365,#1103,#1104);
#910=AXIS2_PLACEMENT_3D('',#1375,#1110,#1111);
#911=AXIS2_PLACEMENT_3D('',#1377,#1112,#1113);
#912=AXIS2_PLACEMENT_3D('',#1378,#1114,#1115);
#913=AXIS2_PLACEMENT_3D('',#1379,#1116,#1117);
#914=AXIS2_PLACEMENT_3D('',#1382,#1118,#1119);
#915=AXIS2_PLACEMENT_3D('',#1386,#1121,#1122);
#916=AXIS2_PLACEMENT_3D('',#1388,#1124,#1125);
#917=AXIS2_PLACEMENT_3D('',#1394,#1129,#1130);
#918=AXIS2_PLACEMENT_3D('',#1396,#1131,#1132);
#919=AXIS2_PLACEMENT_3D('',#1399,#1134,#1135);
#920=AXIS2_PLACEMENT_3D('',#1400,#1136,#1137);
#921=AXIS2_PLACEMENT_3D('',#1405,#1141,#1142);
#922=AXIS2_PLACEMENT_3D('',#1407,#1143,#1144);
#923=AXIS2_PLACEMENT_3D('',#1409,#1145,#1146);
#924=AXIS2_PLACEMENT_3D('',#1411,#1148,#1149);
#925=AXIS2_PLACEMENT_3D('',#1412,#1150,#1151);
#926=AXIS2_PLACEMENT_3D('',#1415,#1154,#1155);
#927=AXIS2_PLACEMENT_3D('',#1416,#1156,#1157);
#928=AXIS2_PLACEMENT_3D('',#1418,#1159,#1160);
#929=AXIS2_PLACEMENT_3D('',#1420,#1162,#1163);
#930=AXIS2_PLACEMENT_3D('',#1422,#1165,#1166);
#931=AXIS2_PLACEMENT_3D('',#1423,#1167,#1168);
#932=AXIS2_PLACEMENT_3D('',#1426,#1170,#1171);
#933=AXIS2_PLACEMENT_3D('',#1427,#1172,#1173);
#934=AXIS2_PLACEMENT_3D('',#1430,#1175,#1176);
#935=AXIS2_PLACEMENT_3D('',#1431,#1177,#1178);
#936=AXIS2_PLACEMENT_3D('',#1434,#1180,#1181);
#937=AXIS2_PLACEMENT_3D('',#1435,#1182,#1183);
#938=AXIS2_PLACEMENT_3D('',#1439,#1186,#1187);
#939=AXIS2_PLACEMENT_3D('',#1441,#1189,#1190);
#940=DIRECTION('axis',(0.,0.,1.));
#941=DIRECTION('refdir',(1.,0.,0.));
#942=DIRECTION('center_axis',(0.,0.,-1.));
#943=DIRECTION('ref_axis',(-0.661655449128411,-0.74980801985487,0.));
#944=DIRECTION('center_axis',(0.,0.,1.));
#945=DIRECTION('ref_axis',(1.,0.,0.));
#946=DIRECTION('center_axis',(0.74980801985487,-0.661655449128411,0.));
#947=DIRECTION('ref_axis',(0.661655449128411,0.74980801985487,0.));
#948=DIRECTION('center_axis',(0.,0.,1.));
#949=DIRECTION('ref_axis',(-0.661655449128411,-0.74980801985487,0.));
#950=DIRECTION('center_axis',(0.,0.,1.));
#951=DIRECTION('ref_axis',(1.,0.,0.));
#952=DIRECTION('',(-1.,0.,0.));
#953=DIRECTION('center_axis',(0.,0.,-1.));
#954=DIRECTION('ref_axis',(-0.707106781186549,0.707106781186546,0.));
#955=DIRECTION('',(0.,1.,0.));
#956=DIRECTION('',(1.,0.,0.));
#957=DIRECTION('',(0.,-1.,0.));
#958=DIRECTION('center_axis',(0.,0.,-1.));
#959=DIRECTION('ref_axis',(0.707106781186549,0.707106781186546,0.));
#960=DIRECTION('center_axis',(0.,0.,1.));
#961=DIRECTION('ref_axis',(-0.243216356716966,-0.969972063425192,0.));
#962=DIRECTION('center_axis',(0.,0.,-1.));
#963=DIRECTION('ref_axis',(1.,0.,0.));
#964=DIRECTION('center_axis',(0.,0.,1.));
#965=DIRECTION('ref_axis',(-1.,0.,0.));
#966=DIRECTION('center_axis',(0.,0.,1.));
#967=DIRECTION('ref_axis',(-1.,0.,0.));
#968=DIRECTION('center_axis',(0.,0.,-1.));
#969=DIRECTION('ref_axis',(-0.243216356716966,-0.969972063425193,0.));
#970=DIRECTION('center_axis',(0.,0.,1.));
#971=DIRECTION('ref_axis',(1.,0.,0.));
#972=DIRECTION('center_axis',(0.969972063425192,-0.243216356716966,0.));
#973=DIRECTION('ref_axis',(0.243216356716966,0.969972063425192,0.));
#974=DIRECTION('center_axis',(0.,0.,1.));
#975=DIRECTION('ref_axis',(1.,0.,0.));
#976=DIRECTION('center_axis',(0.,0.,1.));
#977=DIRECTION('ref_axis',(-1.,0.,0.));
#978=DIRECTION('center_axis',(0.,0.,1.));
#979=DIRECTION('ref_axis',(1.,0.,0.));
#980=DIRECTION('center_axis',(0.,0.,1.));
#981=DIRECTION('ref_axis',(-1.,0.,0.));
#982=DIRECTION('center_axis',(0.,0.,-1.));
#983=DIRECTION('ref_axis',(-1.,0.,0.));
#984=DIRECTION('center_axis',(0.,0.,1.));
#985=DIRECTION('ref_axis',(-1.,0.,0.));
#986=DIRECTION('',(0.,0.,1.));
#987=DIRECTION('center_axis',(0.,0.,-1.));
#988=DIRECTION('ref_axis',(-1.,0.,0.));
#989=DIRECTION('center_axis',(0.,0.,1.));
#990=DIRECTION('ref_axis',(1.,0.,0.));
#991=DIRECTION('center_axis',(0.,0.,1.));
#992=DIRECTION('ref_axis',(-1.,0.,0.));
#993=DIRECTION('center_axis',(0.,0.,-1.));
#994=DIRECTION('ref_axis',(1.,0.,0.));
#995=DIRECTION('',(0.,0.,-1.));
#996=DIRECTION('center_axis',(0.,0.,-1.));
#997=DIRECTION('ref_axis',(1.,0.,0.));
#998=DIRECTION('center_axis',(0.,0.,1.));
#999=DIRECTION('ref_axis',(1.,0.,0.));
#1000=DIRECTION('center_axis',(0.,0.,1.));
#1001=DIRECTION('ref_axis',(-1.,0.,0.));
#1002=DIRECTION('center_axis',(0.,0.,1.));
#1003=DIRECTION('ref_axis',(-1.,0.,0.));
#1004=DIRECTION('',(0.,0.,-1.));
#1005=DIRECTION('center_axis',(0.,0.,-1.));
#1006=DIRECTION('ref_axis',(-1.,0.,0.));
#1007=DIRECTION('center_axis',(0.,0.,1.));
#1008=DIRECTION('ref_axis',(-1.,0.,0.));
#1009=DIRECTION('center_axis',(0.,0.,1.));
#1010=DIRECTION('ref_axis',(-1.,0.,0.));
#1011=DIRECTION('',(0.,0.,-1.));
#1012=DIRECTION('center_axis',(0.,0.,-1.));
#1013=DIRECTION('ref_axis',(-1.,0.,0.));
#1014=DIRECTION('center_axis',(0.,1.,0.));
#1015=DIRECTION('ref_axis',(0.,0.,-1.));
#1016=DIRECTION('',(0.,0.,1.));
#1017=DIRECTION('',(-1.,0.,0.));
#1018=DIRECTION('',(0.,0.,-1.));
#1019=DIRECTION('center_axis',(0.,-1.,0.));
#1020=DIRECTION('ref_axis',(-1.,0.,0.));
#1021=DIRECTION('',(0.,0.,-1.));
#1022=DIRECTION('',(-1.,0.,0.));
#1023=DIRECTION('',(0.,0.,-1.));
#1024=DIRECTION('',(0.,0.,1.));
#1025=DIRECTION('',(-1.,0.,0.));
#1026=DIRECTION('',(0.,0.,1.));
#1027=DIRECTION('center_axis',(0.,-1.,0.));
#1028=DIRECTION('ref_axis',(1.,0.,0.));
#1029=DIRECTION('center_axis',(0.,-1.,0.));
#1030=DIRECTION('ref_axis',(1.,0.,0.));
#1031=DIRECTION('center_axis',(0.,-1.,0.));
#1032=DIRECTION('ref_axis',(1.,0.,0.));
#1033=DIRECTION('center_axis',(-1.,0.,0.));
#1034=DIRECTION('ref_axis',(0.,1.,0.));
#1035=DIRECTION('',(0.,1.,0.));
#1036=DIRECTION('',(0.,0.,1.));
#1037=DIRECTION('',(0.,1.,0.));
#1038=DIRECTION('',(0.,1.,0.));
#1039=DIRECTION('center_axis',(0.,0.,-1.));
#1040=DIRECTION('ref_axis',(0.,-1.,0.));
#1041=DIRECTION('',(0.,-1.,0.));
#1042=DIRECTION('center_axis',(0.,0.,1.));
#1043=DIRECTION('ref_axis',(-0.707106781186549,0.707106781186546,0.));
#1044=DIRECTION('',(-1.,0.,0.));
#1045=DIRECTION('center_axis',(0.,0.,1.));
#1046=DIRECTION('ref_axis',(-0.707106781186548,0.707106781186548,0.));
#1047=DIRECTION('center_axis',(-1.,0.,0.));
#1048=DIRECTION('ref_axis',(0.,0.,1.));
#1049=DIRECTION('',(0.,0.,1.));
#1050=DIRECTION('center_axis',(1.,0.,0.));
#1051=DIRECTION('ref_axis',(0.,-1.,0.));
#1052=DIRECTION('',(-1.11022302462516E-15,-1.,0.));
#1053=DIRECTION('',(0.,0.,-1.));
#1054=DIRECTION('',(0.,1.,0.));
#1055=DIRECTION('center_axis',(1.,0.,0.));
#1056=DIRECTION('ref_axis',(0.,0.,-1.));
#1057=DIRECTION('',(0.,1.,0.));
#1058=DIRECTION('',(0.,0.,-1.));
#1059=DIRECTION('center_axis',(0.,1.,0.));
#1060=DIRECTION('ref_axis',(0.,0.,1.));
#1061=DIRECTION('center_axis',(0.,1.,0.));
#1062=DIRECTION('ref_axis',(0.707106781186546,0.,0.707106781186549));
#1063=DIRECTION('center_axis',(0.,0.,1.));
#1064=DIRECTION('ref_axis',(0.,1.,0.));
#1065=DIRECTION('center_axis',(0.,-1.,0.));
#1066=DIRECTION('ref_axis',(0.707106781186546,0.,0.707106781186549));
#1067=DIRECTION('center_axis',(0.,0.,-1.));
#1068=DIRECTION('ref_axis',(-0.707106781186548,0.707106781186548,0.));
#1069=DIRECTION('center_axis',(0.,0.,1.));
#1070=DIRECTION('ref_axis',(-0.707106781186548,0.707106781186548,0.));
#1071=DIRECTION('',(0.,0.,1.));
#1072=DIRECTION('',(0.,0.,-1.));
#1073=DIRECTION('center_axis',(0.,-1.,0.));
#1074=DIRECTION('ref_axis',(1.,0.,0.));
#1075=DIRECTION('',(0.,-1.,0.));
#1076=DIRECTION('center_axis',(-1.,0.,0.));
#1077=DIRECTION('ref_axis',(0.,1.,0.));
#1078=DIRECTION('',(0.,1.,0.));
#1079=DIRECTION('center_axis',(0.,0.,-1.));
#1080=DIRECTION('ref_axis',(-1.,0.,0.));
#1081=DIRECTION('',(1.,3.64007549057429E-16,0.));
#1082=DIRECTION('center_axis',(0.,0.,1.));
#1083=DIRECTION('ref_axis',(0.707106781186548,0.707106781186547,0.));
#1084=DIRECTION('center_axis',(0.,-1.,0.));
#1085=DIRECTION('ref_axis',(0.,0.,-1.));
#1086=DIRECTION('center_axis',(0.,-1.,0.));
#1087=DIRECTION('ref_axis',(-0.707106781186547,0.,0.707106781186548));
#1088=DIRECTION('center_axis',(0.,0.,1.));
#1089=DIRECTION('ref_axis',(1.,0.,0.));
#1090=DIRECTION('center_axis',(0.,1.,0.));
#1091=DIRECTION('ref_axis',(-0.707106781186547,0.,0.707106781186548));
#1092=DIRECTION('center_axis',(0.,0.,-1.));
#1093=DIRECTION('ref_axis',(0.707106781186548,0.707106781186547,0.));
#1094=DIRECTION('',(0.,0.,1.));
#1095=DIRECTION('center_axis',(0.,1.,0.));
#1096=DIRECTION('ref_axis',(-1.,0.,0.));
#1097=DIRECTION('',(0.,-1.,0.));
#1098=DIRECTION('center_axis',(0.,0.,1.));
#1099=DIRECTION('ref_axis',(0.707106781186549,0.707106781186546,0.));
#1100=DIRECTION('center_axis',(0.,0.,1.));
#1101=DIRECTION('ref_axis',(0.707106781186549,0.707106781186546,0.));
#1102=DIRECTION('',(0.,0.,1.));
#1103=DIRECTION('center_axis',(0.,1.,0.));
#1104=DIRECTION('ref_axis',(1.,0.,0.));
#1105=DIRECTION('',(1.,0.,0.));
#1106=DIRECTION('',(0.,0.,1.));
#1107=DIRECTION('',(1.,0.,0.));
#1108=DIRECTION('',(0.,0.,-1.));
#1109=DIRECTION('',(0.,0.,-1.));
#1110=DIRECTION('center_axis',(0.,-1.,0.));
#1111=DIRECTION('ref_axis',(1.,0.,0.));
#1112=DIRECTION('center_axis',(0.,-1.,0.));
#1113=DIRECTION('ref_axis',(1.,0.,0.));
#1114=DIRECTION('center_axis',(0.,0.,-1.));
#1115=DIRECTION('ref_axis',(-0.707106781186549,0.707106781186546,0.));
#1116=DIRECTION('center_axis',(0.,0.,-1.));
#1117=DIRECTION('ref_axis',(0.707106781186548,0.707106781186548,0.));
#1118=DIRECTION('center_axis',(0.,0.,-1.));
#1119=DIRECTION('ref_axis',(0.707106781186548,0.707106781186548,0.));
#1120=DIRECTION('',(0.,0.,-1.));
#1121=DIRECTION('center_axis',(0.,0.,-1.));
#1122=DIRECTION('ref_axis',(0.707106781186548,0.707106781186548,0.));
#1123=DIRECTION('',(0.,0.,1.));
#1124=DIRECTION('center_axis',(0.,-1.,0.));
#1125=DIRECTION('ref_axis',(-1.,0.,0.));
#1126=DIRECTION('',(-1.,0.,0.));
#1127=DIRECTION('',(0.,0.,1.));
#1128=DIRECTION('',(-1.,0.,0.));
#1129=DIRECTION('center_axis',(0.,0.,-1.));
#1130=DIRECTION('ref_axis',(-0.707106781186548,0.707106781186548,0.));
#1131=DIRECTION('center_axis',(0.,0.,-1.));
#1132=DIRECTION('ref_axis',(-0.707106781186548,0.707106781186548,0.));
#1133=DIRECTION('',(0.,0.,-1.));
#1134=DIRECTION('center_axis',(0.,0.,-1.));
#1135=DIRECTION('ref_axis',(-0.707106781186548,0.707106781186548,0.));
#1136=DIRECTION('center_axis',(1.,5.44226972855469E-16,0.));
#1137=DIRECTION('ref_axis',(5.44226972855469E-16,-1.,0.));
#1138=DIRECTION('',(5.44226972855469E-16,-1.,0.));
#1139=DIRECTION('',(0.,0.,-1.));
#1140=DIRECTION('',(0.,-1.,0.));
#1141=DIRECTION('center_axis',(0.,0.,-1.));
#1142=DIRECTION('ref_axis',(0.707106781186548,0.707106781186548,0.));
#1143=DIRECTION('center_axis',(0.,0.,1.));
#1144=DIRECTION('ref_axis',(0.707106781186548,0.707106781186548,0.));
#1145=DIRECTION('center_axis',(0.,0.,1.));
#1146=DIRECTION('ref_axis',(0.707106781186548,0.707106781186548,0.));
#1147=DIRECTION('',(0.,0.,-1.));
#1148=DIRECTION('center_axis',(0.,0.,-1.));
#1149=DIRECTION('ref_axis',(-1.,0.,0.));
#1150=DIRECTION('center_axis',(0.,0.,1.));
#1151=DIRECTION('ref_axis',(-0.707106781186548,0.707106781186548,0.));
#1152=DIRECTION('',(0.,-1.,0.));
#1153=DIRECTION('',(0.,1.,0.));
#1154=DIRECTION('center_axis',(0.,0.,-1.));
#1155=DIRECTION('ref_axis',(-0.707106781186548,0.707106781186548,0.));
#1156=DIRECTION('center_axis',(0.,-1.,0.));
#1157=DIRECTION('ref_axis',(1.,0.,0.));
#1158=DIRECTION('',(0.,-1.,0.));
#1159=DIRECTION('center_axis',(0.,-1.,0.));
#1160=DIRECTION('ref_axis',(1.,0.,0.));
#1161=DIRECTION('',(0.,-1.,0.));
#1162=DIRECTION('center_axis',(0.,0.,-1.));
#1163=DIRECTION('ref_axis',(0.,1.,0.));
#1164=DIRECTION('',(0.,-1.,0.));
#1165=DIRECTION('center_axis',(1.,0.,0.));
#1166=DIRECTION('ref_axis',(0.,-1.,0.));
#1167=DIRECTION('center_axis',(0.,0.,-1.));
#1168=DIRECTION('ref_axis',(-1.,0.,0.));
#1169=DIRECTION('',(0.,0.,-1.));
#1170=DIRECTION('center_axis',(0.,0.,-1.));
#1171=DIRECTION('ref_axis',(-1.,0.,0.));
#1172=DIRECTION('center_axis',(0.,0.,-1.));
#1173=DIRECTION('ref_axis',(-1.,0.,0.));
#1174=DIRECTION('',(0.,0.,-1.));
#1175=DIRECTION('center_axis',(0.,0.,1.));
#1176=DIRECTION('ref_axis',(-1.,0.,0.));
#1177=DIRECTION('center_axis',(0.,0.,-1.));
#1178=DIRECTION('ref_axis',(-1.,0.,0.));
#1179=DIRECTION('',(0.,0.,-1.));
#1180=DIRECTION('center_axis',(0.,0.,1.));
#1181=DIRECTION('ref_axis',(-1.,0.,0.));
#1182=DIRECTION('center_axis',(0.,0.,-1.));
#1183=DIRECTION('ref_axis',(-1.,0.,0.));
#1184=DIRECTION('',(0.,1.,0.));
#1185=DIRECTION('',(1.,0.,0.));
#1186=DIRECTION('center_axis',(-1.,0.,0.));
#1187=DIRECTION('ref_axis',(0.,1.,0.));
#1188=DIRECTION('',(0.,0.,-1.));
#1189=DIRECTION('center_axis',(0.,1.,0.));
#1190=DIRECTION('ref_axis',(1.,0.,0.));
#1191=CARTESIAN_POINT('',(0.,0.,0.));
#1192=CARTESIAN_POINT('Origin',(13.25,0.,2.));
#1193=CARTESIAN_POINT('',(15.8966217965136,2.99923207941948,2.));
#1194=CARTESIAN_POINT('Origin',(13.25,0.,2.));
#1195=CARTESIAN_POINT('',(17.2199326947705,4.49884811912922,0.));
#1196=CARTESIAN_POINT('Origin',(17.2199326947705,4.49884811912922,2.));
#1197=CARTESIAN_POINT('Origin',(13.25,0.,0.));
#1198=CARTESIAN_POINT('Origin',(2.77555756156289E-15,-7.8,0.));
#1199=CARTESIAN_POINT('',(19.75,6.1,0.));
#1200=CARTESIAN_POINT('',(-19.75,6.1,0.));
#1201=CARTESIAN_POINT('',(7.1,6.1,0.));
#1202=CARTESIAN_POINT('',(-20.75,5.1,0.));
#1203=CARTESIAN_POINT('Origin',(-19.75,5.1,0.));
#1204=CARTESIAN_POINT('',(-20.75,-6.7,0.));
#1205=CARTESIAN_POINT('',(-20.75,-9.5,0.));
#1206=CARTESIAN_POINT('',(20.75,-6.7,0.));
#1207=CARTESIAN_POINT('',(10.375,-6.7,0.));
#1208=CARTESIAN_POINT('',(20.75,5.1,0.));
#1209=CARTESIAN_POINT('',(20.75,6.1,0.));
#1210=CARTESIAN_POINT('Origin',(19.75,5.1,0.));
#1211=CARTESIAN_POINT('',(-11.7907018596982,5.81983238055115,0.));
#1212=CARTESIAN_POINT('Origin',(-13.25,0.,0.));
#1213=CARTESIAN_POINT('',(-2.5,3.06161699786838E-16,0.));
#1214=CARTESIAN_POINT('Origin',(0.,0.,0.));
#1215=CARTESIAN_POINT('',(5.275,2.31535617618423E-15,0.));
#1216=CARTESIAN_POINT('Origin',(4.5,2.22044604925031E-15,0.));
#1217=CARTESIAN_POINT('',(-3.725,9.49101269339199E-17,0.));
#1218=CARTESIAN_POINT('Origin',(-4.5,0.,0.));
#1219=CARTESIAN_POINT('Origin',(-13.25,0.,2.));
#1220=CARTESIAN_POINT('',(-12.2771345731321,3.87988825370077,2.));
#1221=CARTESIAN_POINT('Origin',(-13.25,0.,2.));
#1222=CARTESIAN_POINT('Origin',(-11.7907018596982,5.81983238055115,2.));
#1223=CARTESIAN_POINT('Origin',(13.25,0.,2.));
#1224=CARTESIAN_POINT('',(16.25,3.67394039744206E-16,2.));
#1225=CARTESIAN_POINT('Origin',(13.25,0.,2.));
#1226=CARTESIAN_POINT('Origin',(-13.25,0.,2.));
#1227=CARTESIAN_POINT('',(-10.25,3.67394039744206E-16,2.));
#1228=CARTESIAN_POINT('Origin',(-13.25,0.,2.));
#1229=CARTESIAN_POINT('Origin',(0.,0.,-0.28));
#1230=CARTESIAN_POINT('',(2.1,2.57175827820944E-16,-0.98));
#1231=CARTESIAN_POINT('Origin',(0.,0.,-0.98));
#1232=CARTESIAN_POINT('',(2.1,2.57175827820944E-16,-0.28));
#1233=CARTESIAN_POINT('',(2.1,-2.57175827820944E-16,-0.28));
#1234=CARTESIAN_POINT('Origin',(0.,0.,-0.28));
#1235=CARTESIAN_POINT('Origin',(0.,0.,-0.98));
#1236=CARTESIAN_POINT('',(2.25,0.,-0.98));
#1237=CARTESIAN_POINT('Origin',(0.,0.,-0.98));
#1238=CARTESIAN_POINT('Origin',(0.,0.,0.));
#1239=CARTESIAN_POINT('',(-2.5,3.06161699786838E-16,-0.28));
#1240=CARTESIAN_POINT('',(-2.5,3.06161699786838E-16,0.));
#1241=CARTESIAN_POINT('Origin',(0.,0.,-0.28));
#1242=CARTESIAN_POINT('Origin',(0.,0.,-0.28));
#1243=CARTESIAN_POINT('Origin',(-13.25,0.,-4.));
#1244=CARTESIAN_POINT('',(-10.25,3.67394039744206E-16,15.5));
#1245=CARTESIAN_POINT('Origin',(-13.25,0.,15.5));
#1246=CARTESIAN_POINT('',(-10.25,3.67394039744206E-16,-4.));
#1247=CARTESIAN_POINT('Origin',(-13.25,0.,15.5));
#1248=CARTESIAN_POINT('Origin',(13.25,0.,-4.));
#1249=CARTESIAN_POINT('',(16.25,3.67394039744206E-16,15.5));
#1250=CARTESIAN_POINT('Origin',(13.25,0.,15.5));
#1251=CARTESIAN_POINT('',(16.25,3.67394039744206E-16,-4.));
#1252=CARTESIAN_POINT('Origin',(13.25,0.,15.5));
#1253=CARTESIAN_POINT('Origin',(20.75,-6.7,0.));
#1254=CARTESIAN_POINT('',(-6.09999999999999,-6.7,-32.5));
#1255=CARTESIAN_POINT('',(-6.09999999999999,-6.7,-15.1));
#1256=CARTESIAN_POINT('',(-6.09999999999999,-6.7,0.));
#1257=CARTESIAN_POINT('',(6.1,-6.7,-32.5));
#1258=CARTESIAN_POINT('',(10.375,-6.7,-32.5));
#1259=CARTESIAN_POINT('',(6.1,-6.7,-15.1));
#1260=CARTESIAN_POINT('',(6.1,-6.7,0.));
#1261=CARTESIAN_POINT('',(7.1,-6.7,-14.1));
#1262=CARTESIAN_POINT('Origin',(7.1,-6.7,-15.1));
#1263=CARTESIAN_POINT('',(7.1,-6.7,-4.));
#1264=CARTESIAN_POINT('',(7.1,-6.7,0.));
#1265=CARTESIAN_POINT('',(20.75,-6.7,-4.));
#1266=CARTESIAN_POINT('',(13.925,-6.7,-4.));
#1267=CARTESIAN_POINT('',(20.75,-6.7,-1.));
#1268=CARTESIAN_POINT('',(-20.75,-6.7,-4.));
#1269=CARTESIAN_POINT('',(-20.75,-6.7,-1.));
#1270=CARTESIAN_POINT('',(-7.1,-6.7,-4.));
#1271=CARTESIAN_POINT('',(6.825,-6.7,-4.));
#1272=CARTESIAN_POINT('',(-7.1,-6.7,-14.1));
#1273=CARTESIAN_POINT('',(-7.1,-6.7,0.));
#1274=CARTESIAN_POINT('Origin',(-7.09999999999999,-6.7,-15.1));
#1275=CARTESIAN_POINT('',(-19.2,-6.7,-2.));
#1276=CARTESIAN_POINT('Origin',(-17.95,-6.7,-2.));
#1277=CARTESIAN_POINT('',(16.7,-6.7,-2.));
#1278=CARTESIAN_POINT('Origin',(17.95,-6.7,-2.));
#1279=CARTESIAN_POINT('Origin',(-7.1,-9.5,0.));
#1280=CARTESIAN_POINT('',(-7.1,5.1,-4.));
#1281=CARTESIAN_POINT('',(-7.1,-1.7,-4.));
#1282=CARTESIAN_POINT('',(-7.1,5.1,-14.1));
#1283=CARTESIAN_POINT('',(-7.1,5.1,0.));
#1284=CARTESIAN_POINT('',(-7.1,-6.1,-14.1));
#1285=CARTESIAN_POINT('',(-7.1,-8.5,-14.1));
#1286=CARTESIAN_POINT('',(-7.1,-8.5,-14.1));
#1287=CARTESIAN_POINT('Origin',(-7.1,6.1,-4.));
#1288=CARTESIAN_POINT('',(-20.75,5.1,-4.));
#1289=CARTESIAN_POINT('',(-20.75,6.1,-4.));
#1290=CARTESIAN_POINT('',(-19.75,6.1,-4.));
#1291=CARTESIAN_POINT('Origin',(-19.75,5.1,-4.));
#1292=CARTESIAN_POINT('',(-6.1,6.1,-4.));
#1293=CARTESIAN_POINT('',(-7.1,6.1,-4.));
#1294=CARTESIAN_POINT('Origin',(-6.1,5.1,-4.));
#1295=CARTESIAN_POINT('Origin',(-20.75,-1.7,-2.));
#1296=CARTESIAN_POINT('',(-20.75,5.1,-1.));
#1297=CARTESIAN_POINT('Origin',(6.1,-6.1,0.));
#1298=CARTESIAN_POINT('',(6.1,-6.1,-32.5));
#1299=CARTESIAN_POINT('',(6.1,-5.1,-32.5));
#1300=CARTESIAN_POINT('',(6.1,-6.1,-15.1));
#1301=CARTESIAN_POINT('',(6.1,-6.1,0.));
#1302=CARTESIAN_POINT('',(6.1,-6.1,-15.1));
#1303=CARTESIAN_POINT('Origin',(20.75,-1.7,-2.));
#1304=CARTESIAN_POINT('',(20.75,5.1,-4.));
#1305=CARTESIAN_POINT('',(20.75,-9.5,-4.));
#1306=CARTESIAN_POINT('',(20.75,5.1,-1.));
#1307=CARTESIAN_POINT('Origin',(-7.09999999999999,-6.1,-15.1));
#1308=CARTESIAN_POINT('',(-6.09999999999999,-5.28953454698168,-14.09999999937));
#1309=CARTESIAN_POINT('',(-6.09999999999999,-5.1,-13.3679491924311));
#1310=CARTESIAN_POINT('Ctrl Pts',(-6.09999999999999,-5.1,-13.3679491924311));
#1311=CARTESIAN_POINT('Ctrl Pts',(-6.09999999999999,-5.1,-13.6080267784036));
#1312=CARTESIAN_POINT('Ctrl Pts',(-6.09999999999999,-5.17816769614437,-13.8820955324592));
#1313=CARTESIAN_POINT('Ctrl Pts',(-6.09999999999999,-5.28953454723698,-14.0999999992395));
#1314=CARTESIAN_POINT('',(-5.09999999999999,-5.1,-15.1));
#1315=CARTESIAN_POINT('Origin',(-7.09999999999999,-5.1,-15.1));
#1316=CARTESIAN_POINT('',(-6.09999999999999,-6.1,-15.1));
#1317=CARTESIAN_POINT('Origin',(-5.09999999999999,-6.1,-15.1));
#1318=CARTESIAN_POINT('Origin',(-7.09999999999999,-6.1,-15.1));
#1319=CARTESIAN_POINT('Ctrl Pts',(-6.09999999973904,-5.28953454749227,-14.1));
#1320=CARTESIAN_POINT('Ctrl Pts',(-6.11343295016089,-5.2963998743599,-14.1));
#1321=CARTESIAN_POINT('Ctrl Pts',(-6.1266729705645,-5.30335174923716,-14.1));
#1322=CARTESIAN_POINT('Ctrl Pts',(-6.48477672779598,-5.49608728381128,-14.1));
#1323=CARTESIAN_POINT('Ctrl Pts',(-6.82290177791903,-5.82290177791904,-14.1));
#1324=CARTESIAN_POINT('Ctrl Pts',(-7.09999999999999,-6.1,-14.1));
#1325=CARTESIAN_POINT('Origin',(-5.09999999999999,-6.1,0.));
#1326=CARTESIAN_POINT('',(-5.09999999999999,-5.10000000000001,-32.5));
#1327=CARTESIAN_POINT('',(-6.09999999999999,-6.1,-32.5));
#1328=CARTESIAN_POINT('Origin',(-5.09999999999999,-6.1,-32.5));
#1329=CARTESIAN_POINT('',(-6.09999999999999,-6.1,0.));
#1330=CARTESIAN_POINT('',(-5.09999999999999,-5.1,0.));
#1331=CARTESIAN_POINT('Origin',(-7.09999999999999,-9.5,-15.1));
#1332=CARTESIAN_POINT('',(-6.09999999999999,-9.5,-15.1));
#1333=CARTESIAN_POINT('Origin',(-6.09999999999999,-9.5,0.));
#1334=CARTESIAN_POINT('',(-6.09999999999999,-5.1,-32.5));
#1335=CARTESIAN_POINT('Origin',(3.33066907387547E-15,-7.8,-32.5));
#1336=CARTESIAN_POINT('',(5.1,-5.1,-32.5));
#1337=CARTESIAN_POINT('',(-6.09999999999999,-5.10000000000001,-32.5));
#1338=CARTESIAN_POINT('Origin',(5.1,-6.1,-32.5));
#1339=CARTESIAN_POINT('Origin',(7.1,-6.1,-15.1));
#1340=CARTESIAN_POINT('',(7.1,-6.1,-14.1));
#1341=CARTESIAN_POINT('',(6.1,-5.28953454698168,-14.09999999937));
#1342=CARTESIAN_POINT('Ctrl Pts',(7.1,-6.1,-14.1));
#1343=CARTESIAN_POINT('Ctrl Pts',(6.82290177791904,-5.82290177791904,-14.1));
#1344=CARTESIAN_POINT('Ctrl Pts',(6.48477672779599,-5.49608728381128,-14.1));
#1345=CARTESIAN_POINT('Ctrl Pts',(6.12667297056451,-5.30335174923716,-14.1));
#1346=CARTESIAN_POINT('Ctrl Pts',(6.11343295016091,-5.29639987435991,-14.1));
#1347=CARTESIAN_POINT('Ctrl Pts',(6.09999999973905,-5.28953454749227,-14.1));
#1348=CARTESIAN_POINT('Origin',(7.1,-6.1,-15.1));
#1349=CARTESIAN_POINT('',(5.1,-5.1,-15.1));
#1350=CARTESIAN_POINT('Origin',(5.1,-6.1,-15.1));
#1351=CARTESIAN_POINT('',(6.1,-5.1,-13.3679491924311));
#1352=CARTESIAN_POINT('Origin',(7.1,-5.1,-15.1));
#1353=CARTESIAN_POINT('Ctrl Pts',(6.1,-5.28953454723697,-14.0999999992395));
#1354=CARTESIAN_POINT('Ctrl Pts',(6.1,-5.17816769614437,-13.8820955324592));
#1355=CARTESIAN_POINT('Ctrl Pts',(6.1,-5.1,-13.6080267784036));
#1356=CARTESIAN_POINT('Ctrl Pts',(6.1,-5.1,-13.3679491924311));
#1357=CARTESIAN_POINT('Origin',(5.1,-6.1,0.));
#1358=CARTESIAN_POINT('',(5.1,-5.1,0.));
#1359=CARTESIAN_POINT('Origin',(7.1,-6.1,-15.1));
#1360=CARTESIAN_POINT('',(7.1,6.1,-14.1));
#1361=CARTESIAN_POINT('Origin',(19.75,5.1,-1.));
#1362=CARTESIAN_POINT('',(19.75,6.1,-4.));
#1363=CARTESIAN_POINT('Origin',(19.75,5.1,-4.));
#1364=CARTESIAN_POINT('',(19.75,6.1,-1.));
#1365=CARTESIAN_POINT('Origin',(-7.1,6.1,0.));
#1366=CARTESIAN_POINT('',(6.1,6.1,-4.));
#1367=CARTESIAN_POINT('',(7.1,6.1,-4.));
#1368=CARTESIAN_POINT('',(6.1,6.1,-14.1));
#1369=CARTESIAN_POINT('',(6.1,6.1,0.));
#1370=CARTESIAN_POINT('',(-6.1,6.1,-14.1));
#1371=CARTESIAN_POINT('',(-7.1,6.1,-14.1));
#1372=CARTESIAN_POINT('',(-6.1,6.1,0.));
#1373=CARTESIAN_POINT('',(-19.75,6.1,-1.));
#1374=CARTESIAN_POINT('',(-19.2,6.1,-2.));
#1375=CARTESIAN_POINT('Origin',(-17.95,6.1,-2.));
#1376=CARTESIAN_POINT('',(16.7,6.1,-2.));
#1377=CARTESIAN_POINT('Origin',(17.95,6.1,-2.));
#1378=CARTESIAN_POINT('Origin',(-19.75,5.1,-1.));
#1379=CARTESIAN_POINT('Origin',(5.6,4.6,0.));
#1380=CARTESIAN_POINT('',(5.6,5.1,-1.));
#1381=CARTESIAN_POINT('',(6.1,4.6,-1.));
#1382=CARTESIAN_POINT('Origin',(5.6,4.6,-1.));
#1383=CARTESIAN_POINT('',(5.6,5.1,-14.1));
#1384=CARTESIAN_POINT('',(5.6,5.1,0.));
#1385=CARTESIAN_POINT('',(6.1,4.6,-14.1));
#1386=CARTESIAN_POINT('Origin',(5.6,4.6,-14.1));
#1387=CARTESIAN_POINT('',(6.1,4.6,0.));
#1388=CARTESIAN_POINT('Origin',(6.1,5.1,0.));
#1389=CARTESIAN_POINT('',(-5.6,5.1,-1.));
#1390=CARTESIAN_POINT('',(3.05,5.1,-1.));
#1391=CARTESIAN_POINT('',(-5.6,5.1,-14.1));
#1392=CARTESIAN_POINT('',(-5.6,5.1,0.));
#1393=CARTESIAN_POINT('',(7.1,5.1,-14.1));
#1394=CARTESIAN_POINT('Origin',(-5.6,4.6,0.));
#1395=CARTESIAN_POINT('',(-6.1,4.6,-1.));
#1396=CARTESIAN_POINT('Origin',(-5.6,4.6,-1.));
#1397=CARTESIAN_POINT('',(-6.1,4.6,-14.1));
#1398=CARTESIAN_POINT('',(-6.1,4.6,0.));
#1399=CARTESIAN_POINT('Origin',(-5.6,4.6,-14.1));
#1400=CARTESIAN_POINT('Origin',(-6.1,5.1,0.));
#1401=CARTESIAN_POINT('',(-6.09999999999999,-5.1,-1.));
#1402=CARTESIAN_POINT('',(-6.1,1.7,-1.));
#1403=CARTESIAN_POINT('',(-6.09999999999999,-5.1,0.));
#1404=CARTESIAN_POINT('',(-6.1,6.1,-14.1));
#1405=CARTESIAN_POINT('Origin',(6.1,5.1,0.));
#1406=CARTESIAN_POINT('',(7.1,5.1,-14.1));
#1407=CARTESIAN_POINT('Origin',(6.1,5.1,-14.1));
#1408=CARTESIAN_POINT('',(7.1,5.1,-4.));
#1409=CARTESIAN_POINT('Origin',(6.1,5.1,-4.));
#1410=CARTESIAN_POINT('',(7.1,5.1,0.));
#1411=CARTESIAN_POINT('Origin',(0.,-1.2,-14.1));
#1412=CARTESIAN_POINT('Origin',(-6.1,5.1,-14.1));
#1413=CARTESIAN_POINT('',(7.1,6.1,-14.1));
#1414=CARTESIAN_POINT('',(6.1,-8.5,-14.1));
#1415=CARTESIAN_POINT('Origin',(-6.1,5.1,0.));
#1416=CARTESIAN_POINT('Origin',(17.95,6.1,-2.));
#1417=CARTESIAN_POINT('',(16.7,6.1,-2.));
#1418=CARTESIAN_POINT('Origin',(-17.95,6.1,-2.));
#1419=CARTESIAN_POINT('',(-19.2,6.1,-2.));
#1420=CARTESIAN_POINT('Origin',(7.1,-9.5,-4.));
#1421=CARTESIAN_POINT('',(7.1,-1.7,-4.));
#1422=CARTESIAN_POINT('Origin',(7.1,6.1,0.));
#1423=CARTESIAN_POINT('Origin',(-4.5,0.,0.));
#1424=CARTESIAN_POINT('',(-3.725,-9.49101269339199E-17,-1.));
#1425=CARTESIAN_POINT('',(-3.725,-9.49101269339199E-17,0.));
#1426=CARTESIAN_POINT('Origin',(-4.5,0.,-1.));
#1427=CARTESIAN_POINT('Origin',(0.,0.,0.));
#1428=CARTESIAN_POINT('',(2.25,2.75545529808155E-16,-1.));
#1429=CARTESIAN_POINT('',(2.25,-2.75545529808154E-16,0.));
#1430=CARTESIAN_POINT('Origin',(0.,0.,-1.));
#1431=CARTESIAN_POINT('Origin',(4.5,2.22044604925031E-15,0.));
#1432=CARTESIAN_POINT('',(5.275,2.31535617618423E-15,-1.));
#1433=CARTESIAN_POINT('',(5.275,2.12553592231639E-15,0.));
#1434=CARTESIAN_POINT('Origin',(4.5,2.22044604925031E-15,-1.));
#1435=CARTESIAN_POINT('Origin',(0.,-1.7,-1.));
#1436=CARTESIAN_POINT('',(6.1,-5.1,-1.));
#1437=CARTESIAN_POINT('',(6.1,-3.4,-1.));
#1438=CARTESIAN_POINT('',(-3.05,-5.1,-1.));
#1439=CARTESIAN_POINT('Origin',(6.1,-5.1,0.));
#1440=CARTESIAN_POINT('',(6.1,-5.1,0.));
#1441=CARTESIAN_POINT('Origin',(-6.09999999999999,-5.1,0.));
#1442=UNCERTAINTY_MEASURE_WITH_UNIT(LENGTH_MEASURE(0.01),#1446,
'DISTANCE_ACCURACY_VALUE',
'Maximum model space distance between geometric entities at asserted c
onnectivities');
#1443=UNCERTAINTY_MEASURE_WITH_UNIT(LENGTH_MEASURE(0.01),#1446,
'DISTANCE_ACCURACY_VALUE',
'Maximum model space distance between geometric entities at asserted c
onnectivities');
#1444=(
GEOMETRIC_REPRESENTATION_CONTEXT(3)
GLOBAL_UNCERTAINTY_ASSIGNED_CONTEXT((#1442))
GLOBAL_UNIT_ASSIGNED_CONTEXT((#1446,#1448,#1449))
REPRESENTATION_CONTEXT('','3D')
);
#1445=(
GEOMETRIC_REPRESENTATION_CONTEXT(3)
GLOBAL_UNCERTAINTY_ASSIGNED_CONTEXT((#1443))
GLOBAL_UNIT_ASSIGNED_CONTEXT((#1446,#1448,#1449))
REPRESENTATION_CONTEXT('','3D')
);
#1446=(
LENGTH_UNIT()
NAMED_UNIT(*)
SI_UNIT(.MILLI.,.METRE.)
);
#1447=(
LENGTH_UNIT()
NAMED_UNIT(*)
SI_UNIT(.CENTI.,.METRE.)
);
#1448=(
NAMED_UNIT(*)
PLANE_ANGLE_UNIT()
SI_UNIT($,.RADIAN.)
);
#1449=(
NAMED_UNIT(*)
SI_UNIT($,.STERADIAN.)
SOLID_ANGLE_UNIT()
);
#1450=SHAPE_DEFINITION_REPRESENTATION(#1451,#1452);
#1451=PRODUCT_DEFINITION_SHAPE('',$,#1454);
#1452=SHAPE_REPRESENTATION('',(#846),#1444);
#1453=PRODUCT_DEFINITION_CONTEXT('part definition',#1458,'design');
#1454=PRODUCT_DEFINITION('PololuMount3','PololuMount3',#1455,#1453);
#1455=PRODUCT_DEFINITION_FORMATION('',$,#1460);
#1456=PRODUCT_RELATED_PRODUCT_CATEGORY('PololuMount3','PololuMount3',(#1460));
#1457=APPLICATION_PROTOCOL_DEFINITION('international standard',
'automotive_design',2009,#1458);
#1458=APPLICATION_CONTEXT(
'Core Data for Automotive Mechanical Design Process');
#1459=PRODUCT_CONTEXT('part definition',#1458,'mechanical');
#1460=PRODUCT('PololuMount3','PololuMount3',$,(#1459));
#1461=PRESENTATION_STYLE_ASSIGNMENT((#1462));
#1462=SURFACE_STYLE_USAGE(.BOTH.,#1465);
#1463=SURFACE_STYLE_RENDERING_WITH_PROPERTIES($,#1469,(#1464));
#1464=SURFACE_STYLE_TRANSPARENT(0.);
#1465=SURFACE_SIDE_STYLE('',(#1466,#1463));
#1466=SURFACE_STYLE_FILL_AREA(#1467);
#1467=FILL_AREA_STYLE('',(#1468));
#1468=FILL_AREA_STYLE_COLOUR('',#1469);
#1469=COLOUR_RGB('',0.749019607843137,0.749019607843137,0.749019607843137);
ENDSEC;
END-ISO-10303-21;
