ISO-10303-21;
HEADER;
/* Generated by software containing ST-Developer
 * from STEP Tools, Inc. (www.steptools.com) 
 */

FILE_DESCRIPTION(
/* description */ (''),
/* implementation_level */ '2;1');

FILE_NAME(
/* name */ 'RimV2.stp',
/* time_stamp */ '2026-08-11T17:56:39-03:00',
/* author */ ('Administrator'),
/* organization */ (''),
/* preprocessor_version */ 'ST-DEVELOPER v20',
/* originating_system */ 'Autodesk Inventor 2024',
/* authorisation */ '');

FILE_SCHEMA (('AUTOMOTIVE_DESIGN { 1 0 10303 214 3 1 1 }'));
ENDSEC;

DATA;
#10=MECHANICAL_DESIGN_GEOMETRIC_PRESENTATION_REPRESENTATION('',(#17,#18),
#659);
#11=GEOMETRICALLY_BOUNDED_WIREFRAME_SHAPE_REPRESENTATION('',(#12,#13),#658);
#12=GEOMETRIC_CURVE_SET('Sketch4',(#653));
#13=GEOMETRIC_CURVE_SET('Sketch5',(#185,#655));
#14=SHAPE_REPRESENTATION_RELATIONSHIP('SRR','None',#666,#16);
#15=SHAPE_REPRESENTATION_RELATIONSHIP('SRR','None',#666,#11);
#16=ADVANCED_BREP_SHAPE_REPRESENTATION('',(#19),#658);
#17=STYLED_ITEM('',(#675),#19);
#18=STYLED_ITEM('',(#676),#185);
#19=MANIFOLD_SOLID_BREP('Solid1',#372);
#20=LINE('',#568,#35);
#21=LINE('',#599,#36);
#22=LINE('',#603,#37);
#23=LINE('',#607,#38);
#24=LINE('',#611,#39);
#25=LINE('',#615,#40);
#26=LINE('',#619,#41);
#27=LINE('',#623,#42);
#28=LINE('',#627,#43);
#29=LINE('',#631,#44);
#30=LINE('',#635,#45);
#31=LINE('',#639,#46);
#32=LINE('',#643,#47);
#33=LINE('',#647,#48);
#34=LINE('',#651,#49);
#35=VECTOR('',#456,10.25);
#36=VECTOR('',#489,0.5);
#37=VECTOR('',#494,2.);
#38=VECTOR('',#499,2.);
#39=VECTOR('',#504,2.);
#40=VECTOR('',#509,2.);
#41=VECTOR('',#514,2.);
#42=VECTOR('',#519,2.);
#43=VECTOR('',#524,2.);
#44=VECTOR('',#529,2.);
#45=VECTOR('',#534,0.499999999999999);
#46=VECTOR('',#539,3.1);
#47=VECTOR('',#544,0.500000000000002);
#48=VECTOR('',#549,0.500000000000001);
#49=VECTOR('',#554,10.);
#50=CYLINDRICAL_SURFACE('',#398,10.25);
#51=CYLINDRICAL_SURFACE('',#414,0.5);
#52=CYLINDRICAL_SURFACE('',#416,2.);
#53=CYLINDRICAL_SURFACE('',#418,2.);
#54=CYLINDRICAL_SURFACE('',#420,2.);
#55=CYLINDRICAL_SURFACE('',#422,2.);
#56=CYLINDRICAL_SURFACE('',#424,2.);
#57=CYLINDRICAL_SURFACE('',#426,2.);
#58=CYLINDRICAL_SURFACE('',#428,2.);
#59=CYLINDRICAL_SURFACE('',#430,2.);
#60=CYLINDRICAL_SURFACE('',#432,0.499999999999999);
#61=CYLINDRICAL_SURFACE('',#434,3.1);
#62=CYLINDRICAL_SURFACE('',#436,0.500000000000002);
#63=CYLINDRICAL_SURFACE('',#438,0.500000000000001);
#64=CYLINDRICAL_SURFACE('',#440,10.);
#65=FACE_BOUND('',#111,.T.);
#66=FACE_BOUND('',#114,.T.);
#67=FACE_BOUND('',#115,.T.);
#68=FACE_BOUND('',#116,.T.);
#69=FACE_BOUND('',#117,.T.);
#70=FACE_BOUND('',#118,.T.);
#71=FACE_BOUND('',#119,.T.);
#72=FACE_BOUND('',#120,.T.);
#73=FACE_BOUND('',#121,.T.);
#74=FACE_BOUND('',#122,.T.);
#75=FACE_BOUND('',#123,.T.);
#76=FACE_BOUND('',#124,.T.);
#77=FACE_BOUND('',#125,.T.);
#78=FACE_BOUND('',#126,.T.);
#79=FACE_BOUND('',#142,.T.);
#80=FACE_BOUND('',#143,.T.);
#81=FACE_BOUND('',#144,.T.);
#82=FACE_BOUND('',#145,.T.);
#83=FACE_BOUND('',#146,.T.);
#84=FACE_BOUND('',#147,.T.);
#85=FACE_BOUND('',#148,.T.);
#86=FACE_BOUND('',#149,.T.);
#87=FACE_BOUND('',#150,.T.);
#88=FACE_BOUND('',#151,.T.);
#89=FACE_BOUND('',#152,.T.);
#90=FACE_BOUND('',#153,.T.);
#91=FACE_BOUND('',#154,.T.);
#92=FACE_OUTER_BOUND('',#110,.T.);
#93=FACE_OUTER_BOUND('',#112,.T.);
#94=FACE_OUTER_BOUND('',#113,.T.);
#95=FACE_OUTER_BOUND('',#127,.T.);
#96=FACE_OUTER_BOUND('',#128,.T.);
#97=FACE_OUTER_BOUND('',#129,.T.);
#98=FACE_OUTER_BOUND('',#130,.T.);
#99=FACE_OUTER_BOUND('',#131,.T.);
#100=FACE_OUTER_BOUND('',#132,.T.);
#101=FACE_OUTER_BOUND('',#133,.T.);
#102=FACE_OUTER_BOUND('',#134,.T.);
#103=FACE_OUTER_BOUND('',#135,.T.);
#104=FACE_OUTER_BOUND('',#136,.T.);
#105=FACE_OUTER_BOUND('',#137,.T.);
#106=FACE_OUTER_BOUND('',#138,.T.);
#107=FACE_OUTER_BOUND('',#139,.T.);
#108=FACE_OUTER_BOUND('',#140,.T.);
#109=FACE_OUTER_BOUND('',#141,.T.);
#110=EDGE_LOOP('',(#261));
#111=EDGE_LOOP('',(#262));
#112=EDGE_LOOP('',(#263,#264,#265,#266));
#113=EDGE_LOOP('',(#267));
#114=EDGE_LOOP('',(#268));
#115=EDGE_LOOP('',(#269));
#116=EDGE_LOOP('',(#270));
#117=EDGE_LOOP('',(#271));
#118=EDGE_LOOP('',(#272));
#119=EDGE_LOOP('',(#273));
#120=EDGE_LOOP('',(#274));
#121=EDGE_LOOP('',(#275));
#122=EDGE_LOOP('',(#276));
#123=EDGE_LOOP('',(#277));
#124=EDGE_LOOP('',(#278));
#125=EDGE_LOOP('',(#279));
#126=EDGE_LOOP('',(#280));
#127=EDGE_LOOP('',(#281,#282,#283,#284));
#128=EDGE_LOOP('',(#285,#286,#287,#288));
#129=EDGE_LOOP('',(#289,#290,#291,#292));
#130=EDGE_LOOP('',(#293,#294,#295,#296));
#131=EDGE_LOOP('',(#297,#298,#299,#300));
#132=EDGE_LOOP('',(#301,#302,#303,#304));
#133=EDGE_LOOP('',(#305,#306,#307,#308));
#134=EDGE_LOOP('',(#309,#310,#311,#312));
#135=EDGE_LOOP('',(#313,#314,#315,#316));
#136=EDGE_LOOP('',(#317,#318,#319,#320));
#137=EDGE_LOOP('',(#321,#322,#323,#324));
#138=EDGE_LOOP('',(#325,#326,#327,#328));
#139=EDGE_LOOP('',(#329,#330,#331,#332));
#140=EDGE_LOOP('',(#333,#334,#335,#336));
#141=EDGE_LOOP('',(#337));
#142=EDGE_LOOP('',(#338));
#143=EDGE_LOOP('',(#339));
#144=EDGE_LOOP('',(#340));
#145=EDGE_LOOP('',(#341));
#146=EDGE_LOOP('',(#342));
#147=EDGE_LOOP('',(#343));
#148=EDGE_LOOP('',(#344));
#149=EDGE_LOOP('',(#345));
#150=EDGE_LOOP('',(#346));
#151=EDGE_LOOP('',(#347));
#152=EDGE_LOOP('',(#348));
#153=EDGE_LOOP('',(#349));
#154=EDGE_LOOP('',(#350));
#155=CIRCLE('',#396,10.25);
#156=CIRCLE('',#397,10.);
#157=CIRCLE('',#399,10.25);
#158=CIRCLE('',#401,2.);
#159=CIRCLE('',#402,2.);
#160=CIRCLE('',#403,2.);
#161=CIRCLE('',#404,2.);
#162=CIRCLE('',#405,2.);
#163=CIRCLE('',#406,2.);
#164=CIRCLE('',#407,0.499999999999999);
#165=CIRCLE('',#408,0.500000000000002);
#166=CIRCLE('',#409,0.500000000000001);
#167=CIRCLE('',#410,0.5);
#168=CIRCLE('',#411,2.);
#169=CIRCLE('',#412,2.);
#170=CIRCLE('',#413,3.1);
#171=CIRCLE('',#415,0.5);
#172=CIRCLE('',#417,2.);
#173=CIRCLE('',#419,2.);
#174=CIRCLE('',#421,2.);
#175=CIRCLE('',#423,2.);
#176=CIRCLE('',#425,2.);
#177=CIRCLE('',#427,2.);
#178=CIRCLE('',#429,2.);
#179=CIRCLE('',#431,2.);
#180=CIRCLE('',#433,0.499999999999999);
#181=CIRCLE('',#435,3.1);
#182=CIRCLE('',#437,0.500000000000002);
#183=CIRCLE('',#439,0.500000000000001);
#184=CIRCLE('',#441,10.);
#185=CIRCLE('',#443,0.500000000000001);
#186=VERTEX_POINT('',#561);
#187=VERTEX_POINT('',#563);
#188=VERTEX_POINT('',#566);
#189=VERTEX_POINT('',#570);
#190=VERTEX_POINT('',#572);
#191=VERTEX_POINT('',#574);
#192=VERTEX_POINT('',#576);
#193=VERTEX_POINT('',#578);
#194=VERTEX_POINT('',#580);
#195=VERTEX_POINT('',#582);
#196=VERTEX_POINT('',#584);
#197=VERTEX_POINT('',#586);
#198=VERTEX_POINT('',#588);
#199=VERTEX_POINT('',#590);
#200=VERTEX_POINT('',#592);
#201=VERTEX_POINT('',#594);
#202=VERTEX_POINT('',#597);
#203=VERTEX_POINT('',#601);
#204=VERTEX_POINT('',#605);
#205=VERTEX_POINT('',#609);
#206=VERTEX_POINT('',#613);
#207=VERTEX_POINT('',#617);
#208=VERTEX_POINT('',#621);
#209=VERTEX_POINT('',#625);
#210=VERTEX_POINT('',#629);
#211=VERTEX_POINT('',#633);
#212=VERTEX_POINT('',#637);
#213=VERTEX_POINT('',#641);
#214=VERTEX_POINT('',#645);
#215=VERTEX_POINT('',#649);
#216=EDGE_CURVE('',#186,#186,#155,.T.);
#217=EDGE_CURVE('',#187,#187,#156,.T.);
#218=EDGE_CURVE('',#188,#188,#157,.T.);
#219=EDGE_CURVE('',#188,#186,#20,.T.);
#220=EDGE_CURVE('',#189,#189,#158,.T.);
#221=EDGE_CURVE('',#190,#190,#159,.T.);
#222=EDGE_CURVE('',#191,#191,#160,.T.);
#223=EDGE_CURVE('',#192,#192,#161,.T.);
#224=EDGE_CURVE('',#193,#193,#162,.T.);
#225=EDGE_CURVE('',#194,#194,#163,.T.);
#226=EDGE_CURVE('',#195,#195,#164,.T.);
#227=EDGE_CURVE('',#196,#196,#165,.T.);
#228=EDGE_CURVE('',#197,#197,#166,.T.);
#229=EDGE_CURVE('',#198,#198,#167,.T.);
#230=EDGE_CURVE('',#199,#199,#168,.T.);
#231=EDGE_CURVE('',#200,#200,#169,.T.);
#232=EDGE_CURVE('',#201,#201,#170,.T.);
#233=EDGE_CURVE('',#202,#202,#171,.T.);
#234=EDGE_CURVE('',#202,#198,#21,.T.);
#235=EDGE_CURVE('',#203,#203,#172,.T.);
#236=EDGE_CURVE('',#203,#189,#22,.T.);
#237=EDGE_CURVE('',#204,#204,#173,.T.);
#238=EDGE_CURVE('',#204,#194,#23,.T.);
#239=EDGE_CURVE('',#205,#205,#174,.T.);
#240=EDGE_CURVE('',#205,#190,#24,.T.);
#241=EDGE_CURVE('',#206,#206,#175,.T.);
#242=EDGE_CURVE('',#206,#200,#25,.T.);
#243=EDGE_CURVE('',#207,#207,#176,.T.);
#244=EDGE_CURVE('',#207,#191,#26,.T.);
#245=EDGE_CURVE('',#208,#208,#177,.T.);
#246=EDGE_CURVE('',#208,#199,#27,.T.);
#247=EDGE_CURVE('',#209,#209,#178,.T.);
#248=EDGE_CURVE('',#209,#193,#28,.T.);
#249=EDGE_CURVE('',#210,#210,#179,.T.);
#250=EDGE_CURVE('',#210,#192,#29,.T.);
#251=EDGE_CURVE('',#211,#211,#180,.T.);
#252=EDGE_CURVE('',#211,#195,#30,.T.);
#253=EDGE_CURVE('',#212,#212,#181,.T.);
#254=EDGE_CURVE('',#212,#201,#31,.T.);
#255=EDGE_CURVE('',#213,#213,#182,.T.);
#256=EDGE_CURVE('',#213,#196,#32,.T.);
#257=EDGE_CURVE('',#214,#214,#183,.T.);
#258=EDGE_CURVE('',#214,#197,#33,.T.);
#259=EDGE_CURVE('',#215,#215,#184,.T.);
#260=EDGE_CURVE('',#215,#187,#34,.T.);
#261=ORIENTED_EDGE('',*,*,#216,.F.);
#262=ORIENTED_EDGE('',*,*,#217,.F.);
#263=ORIENTED_EDGE('',*,*,#218,.F.);
#264=ORIENTED_EDGE('',*,*,#219,.T.);
#265=ORIENTED_EDGE('',*,*,#216,.T.);
#266=ORIENTED_EDGE('',*,*,#219,.F.);
#267=ORIENTED_EDGE('',*,*,#218,.T.);
#268=ORIENTED_EDGE('',*,*,#220,.T.);
#269=ORIENTED_EDGE('',*,*,#221,.T.);
#270=ORIENTED_EDGE('',*,*,#222,.T.);
#271=ORIENTED_EDGE('',*,*,#223,.T.);
#272=ORIENTED_EDGE('',*,*,#224,.T.);
#273=ORIENTED_EDGE('',*,*,#225,.T.);
#274=ORIENTED_EDGE('',*,*,#226,.T.);
#275=ORIENTED_EDGE('',*,*,#227,.T.);
#276=ORIENTED_EDGE('',*,*,#228,.T.);
#277=ORIENTED_EDGE('',*,*,#229,.T.);
#278=ORIENTED_EDGE('',*,*,#230,.T.);
#279=ORIENTED_EDGE('',*,*,#231,.T.);
#280=ORIENTED_EDGE('',*,*,#232,.T.);
#281=ORIENTED_EDGE('',*,*,#233,.F.);
#282=ORIENTED_EDGE('',*,*,#234,.T.);
#283=ORIENTED_EDGE('',*,*,#229,.F.);
#284=ORIENTED_EDGE('',*,*,#234,.F.);
#285=ORIENTED_EDGE('',*,*,#235,.F.);
#286=ORIENTED_EDGE('',*,*,#236,.T.);
#287=ORIENTED_EDGE('',*,*,#220,.F.);
#288=ORIENTED_EDGE('',*,*,#236,.F.);
#289=ORIENTED_EDGE('',*,*,#237,.F.);
#290=ORIENTED_EDGE('',*,*,#238,.T.);
#291=ORIENTED_EDGE('',*,*,#225,.F.);
#292=ORIENTED_EDGE('',*,*,#238,.F.);
#293=ORIENTED_EDGE('',*,*,#239,.F.);
#294=ORIENTED_EDGE('',*,*,#240,.T.);
#295=ORIENTED_EDGE('',*,*,#221,.F.);
#296=ORIENTED_EDGE('',*,*,#240,.F.);
#297=ORIENTED_EDGE('',*,*,#241,.F.);
#298=ORIENTED_EDGE('',*,*,#242,.T.);
#299=ORIENTED_EDGE('',*,*,#231,.F.);
#300=ORIENTED_EDGE('',*,*,#242,.F.);
#301=ORIENTED_EDGE('',*,*,#243,.F.);
#302=ORIENTED_EDGE('',*,*,#244,.T.);
#303=ORIENTED_EDGE('',*,*,#222,.F.);
#304=ORIENTED_EDGE('',*,*,#244,.F.);
#305=ORIENTED_EDGE('',*,*,#245,.F.);
#306=ORIENTED_EDGE('',*,*,#246,.T.);
#307=ORIENTED_EDGE('',*,*,#230,.F.);
#308=ORIENTED_EDGE('',*,*,#246,.F.);
#309=ORIENTED_EDGE('',*,*,#247,.F.);
#310=ORIENTED_EDGE('',*,*,#248,.T.);
#311=ORIENTED_EDGE('',*,*,#224,.F.);
#312=ORIENTED_EDGE('',*,*,#248,.F.);
#313=ORIENTED_EDGE('',*,*,#249,.F.);
#314=ORIENTED_EDGE('',*,*,#250,.T.);
#315=ORIENTED_EDGE('',*,*,#223,.F.);
#316=ORIENTED_EDGE('',*,*,#250,.F.);
#317=ORIENTED_EDGE('',*,*,#251,.F.);
#318=ORIENTED_EDGE('',*,*,#252,.T.);
#319=ORIENTED_EDGE('',*,*,#226,.F.);
#320=ORIENTED_EDGE('',*,*,#252,.F.);
#321=ORIENTED_EDGE('',*,*,#253,.F.);
#322=ORIENTED_EDGE('',*,*,#254,.T.);
#323=ORIENTED_EDGE('',*,*,#232,.F.);
#324=ORIENTED_EDGE('',*,*,#254,.F.);
#325=ORIENTED_EDGE('',*,*,#255,.F.);
#326=ORIENTED_EDGE('',*,*,#256,.T.);
#327=ORIENTED_EDGE('',*,*,#227,.F.);
#328=ORIENTED_EDGE('',*,*,#256,.F.);
#329=ORIENTED_EDGE('',*,*,#257,.F.);
#330=ORIENTED_EDGE('',*,*,#258,.T.);
#331=ORIENTED_EDGE('',*,*,#228,.F.);
#332=ORIENTED_EDGE('',*,*,#258,.F.);
#333=ORIENTED_EDGE('',*,*,#259,.F.);
#334=ORIENTED_EDGE('',*,*,#260,.T.);
#335=ORIENTED_EDGE('',*,*,#217,.T.);
#336=ORIENTED_EDGE('',*,*,#260,.F.);
#337=ORIENTED_EDGE('',*,*,#259,.T.);
#338=ORIENTED_EDGE('',*,*,#257,.T.);
#339=ORIENTED_EDGE('',*,*,#255,.T.);
#340=ORIENTED_EDGE('',*,*,#253,.T.);
#341=ORIENTED_EDGE('',*,*,#251,.T.);
#342=ORIENTED_EDGE('',*,*,#249,.T.);
#343=ORIENTED_EDGE('',*,*,#247,.T.);
#344=ORIENTED_EDGE('',*,*,#245,.T.);
#345=ORIENTED_EDGE('',*,*,#243,.T.);
#346=ORIENTED_EDGE('',*,*,#241,.T.);
#347=ORIENTED_EDGE('',*,*,#239,.T.);
#348=ORIENTED_EDGE('',*,*,#237,.T.);
#349=ORIENTED_EDGE('',*,*,#235,.T.);
#350=ORIENTED_EDGE('',*,*,#233,.T.);
#351=PLANE('',#395);
#352=PLANE('',#400);
#353=PLANE('',#442);
#354=ADVANCED_FACE('',(#92,#65),#351,.F.);
#355=ADVANCED_FACE('',(#93),#50,.T.);
#356=ADVANCED_FACE('',(#94,#66,#67,#68,#69,#70,#71,#72,#73,#74,#75,#76,
#77,#78),#352,.T.);
#357=ADVANCED_FACE('',(#95),#51,.F.);
#358=ADVANCED_FACE('',(#96),#52,.F.);
#359=ADVANCED_FACE('',(#97),#53,.F.);
#360=ADVANCED_FACE('',(#98),#54,.F.);
#361=ADVANCED_FACE('',(#99),#55,.F.);
#362=ADVANCED_FACE('',(#100),#56,.F.);
#363=ADVANCED_FACE('',(#101),#57,.F.);
#364=ADVANCED_FACE('',(#102),#58,.F.);
#365=ADVANCED_FACE('',(#103),#59,.F.);
#366=ADVANCED_FACE('',(#104),#60,.F.);
#367=ADVANCED_FACE('',(#105),#61,.F.);
#368=ADVANCED_FACE('',(#106),#62,.F.);
#369=ADVANCED_FACE('',(#107),#63,.F.);
#370=ADVANCED_FACE('',(#108),#64,.T.);
#371=ADVANCED_FACE('',(#109,#79,#80,#81,#82,#83,#84,#85,#86,#87,#88,#89,
#90,#91),#353,.T.);
#372=CLOSED_SHELL('',(#354,#355,#356,#357,#358,#359,#360,#361,#362,#363,
#364,#365,#366,#367,#368,#369,#370,#371));
#373=DERIVED_UNIT_ELEMENT(#376,1.);
#374=DERIVED_UNIT_ELEMENT(#661,-3.);
#375=DIMENSIONAL_EXPONENTS(0.,1.,0.,0.,0.,0.,0.);
#376=(
CONVERSION_BASED_UNIT('gram',#378)
MASS_UNIT()
NAMED_UNIT(#375)
);
#377=(
MASS_UNIT()
NAMED_UNIT(*)
SI_UNIT(.KILO.,.GRAM.)
);
#378=MASS_MEASURE_WITH_UNIT(MASS_MEASURE(0.001),#377);
#379=DERIVED_UNIT((#373,#374));
#380=MEASURE_REPRESENTATION_ITEM('density measure',
POSITIVE_RATIO_MEASURE(1.),#379);
#381=PROPERTY_DEFINITION_REPRESENTATION(#386,#383);
#382=PROPERTY_DEFINITION_REPRESENTATION(#387,#384);
#383=REPRESENTATION('material name',(#385),#658);
#384=REPRESENTATION('density',(#380),#658);
#385=DESCRIPTIVE_REPRESENTATION_ITEM('Generic','Generic');
#386=PROPERTY_DEFINITION('material property','material name',#668);
#387=PROPERTY_DEFINITION('material property','density of part',#668);
#388=DATE_TIME_ROLE('creation_date');
#389=APPLIED_DATE_AND_TIME_ASSIGNMENT(#390,#388,(#668));
#390=DATE_AND_TIME(#391,#392);
#391=CALENDAR_DATE(2026,11,8);
#392=LOCAL_TIME(0,0,0.,#393);
#393=COORDINATED_UNIVERSAL_TIME_OFFSET(0,0,.BEHIND.);
#394=AXIS2_PLACEMENT_3D('',#559,#444,#445);
#395=AXIS2_PLACEMENT_3D('',#560,#446,#447);
#396=AXIS2_PLACEMENT_3D('',#562,#448,#449);
#397=AXIS2_PLACEMENT_3D('',#564,#450,#451);
#398=AXIS2_PLACEMENT_3D('',#565,#452,#453);
#399=AXIS2_PLACEMENT_3D('',#567,#454,#455);
#400=AXIS2_PLACEMENT_3D('',#569,#457,#458);
#401=AXIS2_PLACEMENT_3D('',#571,#459,#460);
#402=AXIS2_PLACEMENT_3D('',#573,#461,#462);
#403=AXIS2_PLACEMENT_3D('',#575,#463,#464);
#404=AXIS2_PLACEMENT_3D('',#577,#465,#466);
#405=AXIS2_PLACEMENT_3D('',#579,#467,#468);
#406=AXIS2_PLACEMENT_3D('',#581,#469,#470);
#407=AXIS2_PLACEMENT_3D('',#583,#471,#472);
#408=AXIS2_PLACEMENT_3D('',#585,#473,#474);
#409=AXIS2_PLACEMENT_3D('',#587,#475,#476);
#410=AXIS2_PLACEMENT_3D('',#589,#477,#478);
#411=AXIS2_PLACEMENT_3D('',#591,#479,#480);
#412=AXIS2_PLACEMENT_3D('',#593,#481,#482);
#413=AXIS2_PLACEMENT_3D('',#595,#483,#484);
#414=AXIS2_PLACEMENT_3D('',#596,#485,#486);
#415=AXIS2_PLACEMENT_3D('',#598,#487,#488);
#416=AXIS2_PLACEMENT_3D('',#600,#490,#491);
#417=AXIS2_PLACEMENT_3D('',#602,#492,#493);
#418=AXIS2_PLACEMENT_3D('',#604,#495,#496);
#419=AXIS2_PLACEMENT_3D('',#606,#497,#498);
#420=AXIS2_PLACEMENT_3D('',#608,#500,#501);
#421=AXIS2_PLACEMENT_3D('',#610,#502,#503);
#422=AXIS2_PLACEMENT_3D('',#612,#505,#506);
#423=AXIS2_PLACEMENT_3D('',#614,#507,#508);
#424=AXIS2_PLACEMENT_3D('',#616,#510,#511);
#425=AXIS2_PLACEMENT_3D('',#618,#512,#513);
#426=AXIS2_PLACEMENT_3D('',#620,#515,#516);
#427=AXIS2_PLACEMENT_3D('',#622,#517,#518);
#428=AXIS2_PLACEMENT_3D('',#624,#520,#521);
#429=AXIS2_PLACEMENT_3D('',#626,#522,#523);
#430=AXIS2_PLACEMENT_3D('',#628,#525,#526);
#431=AXIS2_PLACEMENT_3D('',#630,#527,#528);
#432=AXIS2_PLACEMENT_3D('',#632,#530,#531);
#433=AXIS2_PLACEMENT_3D('',#634,#532,#533);
#434=AXIS2_PLACEMENT_3D('',#636,#535,#536);
#435=AXIS2_PLACEMENT_3D('',#638,#537,#538);
#436=AXIS2_PLACEMENT_3D('',#640,#540,#541);
#437=AXIS2_PLACEMENT_3D('',#642,#542,#543);
#438=AXIS2_PLACEMENT_3D('',#644,#545,#546);
#439=AXIS2_PLACEMENT_3D('',#646,#547,#548);
#440=AXIS2_PLACEMENT_3D('',#648,#550,#551);
#441=AXIS2_PLACEMENT_3D('',#650,#552,#553);
#442=AXIS2_PLACEMENT_3D('',#652,#555,#556);
#443=AXIS2_PLACEMENT_3D('',#654,#557,#558);
#444=DIRECTION('axis',(0.,0.,1.));
#445=DIRECTION('refdir',(1.,0.,0.));
#446=DIRECTION('center_axis',(0.,0.,-1.));
#447=DIRECTION('ref_axis',(-1.,0.,0.));
#448=DIRECTION('center_axis',(0.,0.,-1.));
#449=DIRECTION('ref_axis',(-1.,0.,0.));
#450=DIRECTION('center_axis',(0.,0.,1.));
#451=DIRECTION('ref_axis',(1.,0.,0.));
#452=DIRECTION('center_axis',(0.,0.,-1.));
#453=DIRECTION('ref_axis',(-1.,0.,0.));
#454=DIRECTION('center_axis',(0.,0.,-1.));
#455=DIRECTION('ref_axis',(-1.,0.,0.));
#456=DIRECTION('',(0.,0.,1.));
#457=DIRECTION('center_axis',(0.,0.,-1.));
#458=DIRECTION('ref_axis',(-1.,0.,0.));
#459=DIRECTION('center_axis',(0.,0.,1.));
#460=DIRECTION('ref_axis',(1.,0.,0.));
#461=DIRECTION('center_axis',(0.,0.,1.));
#462=DIRECTION('ref_axis',(1.,0.,0.));
#463=DIRECTION('center_axis',(0.,0.,1.));
#464=DIRECTION('ref_axis',(1.,0.,0.));
#465=DIRECTION('center_axis',(0.,0.,1.));
#466=DIRECTION('ref_axis',(1.,0.,0.));
#467=DIRECTION('center_axis',(0.,0.,1.));
#468=DIRECTION('ref_axis',(1.,0.,0.));
#469=DIRECTION('center_axis',(0.,0.,1.));
#470=DIRECTION('ref_axis',(1.,0.,0.));
#471=DIRECTION('center_axis',(0.,0.,1.));
#472=DIRECTION('ref_axis',(1.,0.,0.));
#473=DIRECTION('center_axis',(0.,0.,1.));
#474=DIRECTION('ref_axis',(1.,0.,0.));
#475=DIRECTION('center_axis',(0.,0.,1.));
#476=DIRECTION('ref_axis',(1.,0.,0.));
#477=DIRECTION('center_axis',(0.,0.,1.));
#478=DIRECTION('ref_axis',(1.,0.,0.));
#479=DIRECTION('center_axis',(0.,0.,1.));
#480=DIRECTION('ref_axis',(1.,0.,0.));
#481=DIRECTION('center_axis',(0.,0.,1.));
#482=DIRECTION('ref_axis',(1.,0.,0.));
#483=DIRECTION('center_axis',(0.,0.,1.));
#484=DIRECTION('ref_axis',(1.,0.,0.));
#485=DIRECTION('center_axis',(0.,0.,1.));
#486=DIRECTION('ref_axis',(-1.,0.,0.));
#487=DIRECTION('center_axis',(0.,0.,-1.));
#488=DIRECTION('ref_axis',(-1.,0.,0.));
#489=DIRECTION('',(0.,0.,-1.));
#490=DIRECTION('center_axis',(0.,0.,1.));
#491=DIRECTION('ref_axis',(-1.,0.,0.));
#492=DIRECTION('center_axis',(0.,0.,-1.));
#493=DIRECTION('ref_axis',(-1.,0.,0.));
#494=DIRECTION('',(0.,0.,-1.));
#495=DIRECTION('center_axis',(0.,0.,1.));
#496=DIRECTION('ref_axis',(-1.,0.,0.));
#497=DIRECTION('center_axis',(0.,0.,-1.));
#498=DIRECTION('ref_axis',(-1.,0.,0.));
#499=DIRECTION('',(0.,0.,-1.));
#500=DIRECTION('center_axis',(0.,0.,1.));
#501=DIRECTION('ref_axis',(-1.,0.,0.));
#502=DIRECTION('center_axis',(0.,0.,-1.));
#503=DIRECTION('ref_axis',(-1.,0.,0.));
#504=DIRECTION('',(0.,0.,-1.));
#505=DIRECTION('center_axis',(0.,0.,1.));
#506=DIRECTION('ref_axis',(-1.,0.,0.));
#507=DIRECTION('center_axis',(0.,0.,-1.));
#508=DIRECTION('ref_axis',(-1.,0.,0.));
#509=DIRECTION('',(0.,0.,-1.));
#510=DIRECTION('center_axis',(0.,0.,1.));
#511=DIRECTION('ref_axis',(-1.,0.,0.));
#512=DIRECTION('center_axis',(0.,0.,-1.));
#513=DIRECTION('ref_axis',(-1.,0.,0.));
#514=DIRECTION('',(0.,0.,-1.));
#515=DIRECTION('center_axis',(0.,0.,1.));
#516=DIRECTION('ref_axis',(-1.,0.,0.));
#517=DIRECTION('center_axis',(0.,0.,-1.));
#518=DIRECTION('ref_axis',(-1.,0.,0.));
#519=DIRECTION('',(0.,0.,-1.));
#520=DIRECTION('center_axis',(0.,0.,1.));
#521=DIRECTION('ref_axis',(-1.,0.,0.));
#522=DIRECTION('center_axis',(0.,0.,-1.));
#523=DIRECTION('ref_axis',(-1.,0.,0.));
#524=DIRECTION('',(0.,0.,-1.));
#525=DIRECTION('center_axis',(0.,0.,1.));
#526=DIRECTION('ref_axis',(-1.,0.,0.));
#527=DIRECTION('center_axis',(0.,0.,-1.));
#528=DIRECTION('ref_axis',(-1.,0.,0.));
#529=DIRECTION('',(0.,0.,-1.));
#530=DIRECTION('center_axis',(0.,0.,1.));
#531=DIRECTION('ref_axis',(-1.,0.,0.));
#532=DIRECTION('center_axis',(0.,0.,-1.));
#533=DIRECTION('ref_axis',(-1.,0.,0.));
#534=DIRECTION('',(0.,0.,-1.));
#535=DIRECTION('center_axis',(0.,0.,1.));
#536=DIRECTION('ref_axis',(-1.,0.,0.));
#537=DIRECTION('center_axis',(0.,0.,-1.));
#538=DIRECTION('ref_axis',(-1.,0.,0.));
#539=DIRECTION('',(0.,0.,-1.));
#540=DIRECTION('center_axis',(0.,0.,1.));
#541=DIRECTION('ref_axis',(-1.,0.,0.));
#542=DIRECTION('center_axis',(0.,0.,-1.));
#543=DIRECTION('ref_axis',(-1.,0.,0.));
#544=DIRECTION('',(0.,0.,-1.));
#545=DIRECTION('center_axis',(0.,0.,1.));
#546=DIRECTION('ref_axis',(-1.,0.,0.));
#547=DIRECTION('center_axis',(0.,0.,-1.));
#548=DIRECTION('ref_axis',(-1.,0.,0.));
#549=DIRECTION('',(0.,0.,-1.));
#550=DIRECTION('center_axis',(0.,0.,1.));
#551=DIRECTION('ref_axis',(1.,0.,0.));
#552=DIRECTION('center_axis',(0.,0.,1.));
#553=DIRECTION('ref_axis',(1.,0.,0.));
#554=DIRECTION('',(0.,0.,-1.));
#555=DIRECTION('center_axis',(0.,0.,1.));
#556=DIRECTION('ref_axis',(1.,0.,0.));
#557=DIRECTION('center_axis',(0.,0.,-1.));
#558=DIRECTION('ref_axis',(-1.,0.,0.));
#559=CARTESIAN_POINT('',(0.,0.,0.));
#560=CARTESIAN_POINT('Origin',(20.4823291443718,12.8530157676738,0.));
#561=CARTESIAN_POINT('',(30.7323291443718,12.8530157676738,0.));
#562=CARTESIAN_POINT('Origin',(20.4823291443718,12.8530157676738,0.));
#563=CARTESIAN_POINT('',(10.4823291443718,12.8530157676738,0.));
#564=CARTESIAN_POINT('Origin',(20.4823291443718,12.8530157676738,0.));
#565=CARTESIAN_POINT('Origin',(20.4823291443718,12.8530157676738,0.));
#566=CARTESIAN_POINT('',(30.7323291443718,12.8530157676738,-0.5));
#567=CARTESIAN_POINT('Origin',(20.4823291443718,12.8530157676738,-0.5));
#568=CARTESIAN_POINT('',(30.7323291443718,12.8530157676738,0.));
#569=CARTESIAN_POINT('Origin',(20.4823291443718,12.8530157676738,-0.5));
#570=CARTESIAN_POINT('',(17.8507797275999,17.4845651844456,-0.5));
#571=CARTESIAN_POINT('Origin',(15.8507797275999,17.4845651844456,-0.5));
#572=CARTESIAN_POINT('',(27.1138785611437,17.4845651844456,-0.5));
#573=CARTESIAN_POINT('Origin',(25.1138785611437,17.4845651844456,-0.5));
#574=CARTESIAN_POINT('',(27.1138785611437,8.22146635090187,-0.5));
#575=CARTESIAN_POINT('Origin',(25.1138785611437,8.22146635090187,-0.5));
#576=CARTESIAN_POINT('',(22.4823291443718,6.30301576767376,-0.5));
#577=CARTESIAN_POINT('Origin',(20.4823291443718,6.30301576767376,-0.5));
#578=CARTESIAN_POINT('',(17.8507797275999,8.22146635090187,-0.5));
#579=CARTESIAN_POINT('Origin',(15.8507797275999,8.22146635090187,-0.5));
#580=CARTESIAN_POINT('',(15.9323291443718,12.8530157676738,-0.5));
#581=CARTESIAN_POINT('Origin',(13.9323291443718,12.8530157676738,-0.5));
#582=CARTESIAN_POINT('',(24.9088171575448,11.2266111801221,-0.5));
#583=CARTESIAN_POINT('Origin',(24.4088171575448,11.2266111801221,-0.5));
#584=CARTESIAN_POINT('',(22.6087337319234,16.7795037808467,-0.5));
#585=CARTESIAN_POINT('Origin',(22.1087337319234,16.7795037808467,-0.5));
#586=CARTESIAN_POINT('',(17.0558411311988,14.4794203552254,-0.5));
#587=CARTESIAN_POINT('Origin',(16.5558411311988,14.4794203552254,-0.5));
#588=CARTESIAN_POINT('',(19.3559245568202,8.92652775450079,-0.5));
#589=CARTESIAN_POINT('Origin',(18.8559245568202,8.92652775450079,-0.5));
#590=CARTESIAN_POINT('',(29.0323291443718,12.8530157676738,-0.5));
#591=CARTESIAN_POINT('Origin',(27.0323291443718,12.8530157676738,-0.5));
#592=CARTESIAN_POINT('',(22.4823291443718,19.4030157676738,-0.5));
#593=CARTESIAN_POINT('Origin',(20.4823291443718,19.4030157676738,-0.5));
#594=CARTESIAN_POINT('',(23.5823291443718,12.8530157676738,-0.5));
#595=CARTESIAN_POINT('Origin',(20.4823291443718,12.8530157676738,-0.5));
#596=CARTESIAN_POINT('Origin',(18.8559245568202,8.92652775450079,0.));
#597=CARTESIAN_POINT('',(19.3559245568202,8.92652775450079,8.5));
#598=CARTESIAN_POINT('Origin',(18.8559245568202,8.92652775450079,8.5));
#599=CARTESIAN_POINT('',(19.3559245568202,8.92652775450079,0.));
#600=CARTESIAN_POINT('Origin',(15.8507797275999,17.4845651844456,0.));
#601=CARTESIAN_POINT('',(17.8507797275999,17.4845651844456,8.5));
#602=CARTESIAN_POINT('Origin',(15.8507797275999,17.4845651844456,8.5));
#603=CARTESIAN_POINT('',(17.8507797275999,17.4845651844456,0.));
#604=CARTESIAN_POINT('Origin',(13.9323291443718,12.8530157676738,0.));
#605=CARTESIAN_POINT('',(15.9323291443718,12.8530157676738,8.5));
#606=CARTESIAN_POINT('Origin',(13.9323291443718,12.8530157676738,8.5));
#607=CARTESIAN_POINT('',(15.9323291443718,12.8530157676738,0.));
#608=CARTESIAN_POINT('Origin',(25.1138785611437,17.4845651844456,0.));
#609=CARTESIAN_POINT('',(27.1138785611437,17.4845651844456,8.5));
#610=CARTESIAN_POINT('Origin',(25.1138785611437,17.4845651844456,8.5));
#611=CARTESIAN_POINT('',(27.1138785611437,17.4845651844456,0.));
#612=CARTESIAN_POINT('Origin',(20.4823291443718,19.4030157676738,0.));
#613=CARTESIAN_POINT('',(22.4823291443718,19.4030157676738,8.5));
#614=CARTESIAN_POINT('Origin',(20.4823291443718,19.4030157676738,8.5));
#615=CARTESIAN_POINT('',(22.4823291443718,19.4030157676738,0.));
#616=CARTESIAN_POINT('Origin',(25.1138785611437,8.22146635090187,0.));
#617=CARTESIAN_POINT('',(27.1138785611437,8.22146635090187,8.5));
#618=CARTESIAN_POINT('Origin',(25.1138785611437,8.22146635090187,8.5));
#619=CARTESIAN_POINT('',(27.1138785611437,8.22146635090187,0.));
#620=CARTESIAN_POINT('Origin',(27.0323291443718,12.8530157676738,0.));
#621=CARTESIAN_POINT('',(29.0323291443718,12.8530157676738,8.5));
#622=CARTESIAN_POINT('Origin',(27.0323291443718,12.8530157676738,8.5));
#623=CARTESIAN_POINT('',(29.0323291443718,12.8530157676738,0.));
#624=CARTESIAN_POINT('Origin',(15.8507797275999,8.22146635090187,0.));
#625=CARTESIAN_POINT('',(17.8507797275999,8.22146635090187,8.5));
#626=CARTESIAN_POINT('Origin',(15.8507797275999,8.22146635090187,8.5));
#627=CARTESIAN_POINT('',(17.8507797275999,8.22146635090187,0.));
#628=CARTESIAN_POINT('Origin',(20.4823291443718,6.30301576767376,0.));
#629=CARTESIAN_POINT('',(22.4823291443718,6.30301576767376,8.5));
#630=CARTESIAN_POINT('Origin',(20.4823291443718,6.30301576767376,8.5));
#631=CARTESIAN_POINT('',(22.4823291443718,6.30301576767376,0.));
#632=CARTESIAN_POINT('Origin',(24.4088171575448,11.2266111801221,0.));
#633=CARTESIAN_POINT('',(24.9088171575448,11.2266111801221,8.5));
#634=CARTESIAN_POINT('Origin',(24.4088171575448,11.2266111801221,8.5));
#635=CARTESIAN_POINT('',(24.9088171575448,11.2266111801221,0.));
#636=CARTESIAN_POINT('Origin',(20.4823291443718,12.8530157676738,0.));
#637=CARTESIAN_POINT('',(23.5823291443718,12.8530157676738,8.5));
#638=CARTESIAN_POINT('Origin',(20.4823291443718,12.8530157676738,8.5));
#639=CARTESIAN_POINT('',(23.5823291443718,12.8530157676738,0.));
#640=CARTESIAN_POINT('Origin',(22.1087337319234,16.7795037808467,0.));
#641=CARTESIAN_POINT('',(22.6087337319234,16.7795037808467,8.5));
#642=CARTESIAN_POINT('Origin',(22.1087337319234,16.7795037808467,8.5));
#643=CARTESIAN_POINT('',(22.6087337319234,16.7795037808467,0.));
#644=CARTESIAN_POINT('Origin',(16.5558411311988,14.4794203552254,0.));
#645=CARTESIAN_POINT('',(17.0558411311988,14.4794203552254,8.5));
#646=CARTESIAN_POINT('Origin',(16.5558411311988,14.4794203552254,8.5));
#647=CARTESIAN_POINT('',(17.0558411311988,14.4794203552254,0.));
#648=CARTESIAN_POINT('Origin',(20.4823291443718,12.8530157676738,0.));
#649=CARTESIAN_POINT('',(10.4823291443718,12.8530157676738,8.5));
#650=CARTESIAN_POINT('Origin',(20.4823291443718,12.8530157676738,8.5));
#651=CARTESIAN_POINT('',(10.4823291443718,12.8530157676738,0.));
#652=CARTESIAN_POINT('Origin',(20.4823291443718,12.8530157676738,8.5));
#653=CARTESIAN_POINT('',(0.,0.,8.5));
#654=CARTESIAN_POINT('Origin',(16.5558411311988,14.4794203552254,-0.5));
#655=CARTESIAN_POINT('',(0.,0.,-0.5));
#656=UNCERTAINTY_MEASURE_WITH_UNIT(LENGTH_MEASURE(0.01),#660,
'DISTANCE_ACCURACY_VALUE',
'Maximum model space distance between geometric entities at asserted c
onnectivities');
#657=UNCERTAINTY_MEASURE_WITH_UNIT(LENGTH_MEASURE(0.01),#660,
'DISTANCE_ACCURACY_VALUE',
'Maximum model space distance between geometric entities at asserted c
onnectivities');
#658=(
GEOMETRIC_REPRESENTATION_CONTEXT(3)
GLOBAL_UNCERTAINTY_ASSIGNED_CONTEXT((#656))
GLOBAL_UNIT_ASSIGNED_CONTEXT((#660,#662,#663))
REPRESENTATION_CONTEXT('','3D')
);
#659=(
GEOMETRIC_REPRESENTATION_CONTEXT(3)
GLOBAL_UNCERTAINTY_ASSIGNED_CONTEXT((#657))
GLOBAL_UNIT_ASSIGNED_CONTEXT((#660,#662,#663))
REPRESENTATION_CONTEXT('','3D')
);
#660=(
LENGTH_UNIT()
NAMED_UNIT(*)
SI_UNIT(.MILLI.,.METRE.)
);
#661=(
LENGTH_UNIT()
NAMED_UNIT(*)
SI_UNIT(.CENTI.,.METRE.)
);
#662=(
NAMED_UNIT(*)
PLANE_ANGLE_UNIT()
SI_UNIT($,.RADIAN.)
);
#663=(
NAMED_UNIT(*)
SI_UNIT($,.STERADIAN.)
SOLID_ANGLE_UNIT()
);
#664=SHAPE_DEFINITION_REPRESENTATION(#665,#666);
#665=PRODUCT_DEFINITION_SHAPE('',$,#668);
#666=SHAPE_REPRESENTATION('',(#394),#658);
#667=PRODUCT_DEFINITION_CONTEXT('part definition',#672,'design');
#668=PRODUCT_DEFINITION('RimV2','RimV2',#669,#667);
#669=PRODUCT_DEFINITION_FORMATION('',$,#674);
#670=PRODUCT_RELATED_PRODUCT_CATEGORY('RimV2','RimV2',(#674));
#671=APPLICATION_PROTOCOL_DEFINITION('international standard',
'automotive_design',2009,#672);
#672=APPLICATION_CONTEXT(
'Core Data for Automotive Mechanical Design Process');
#673=PRODUCT_CONTEXT('part definition',#672,'mechanical');
#674=PRODUCT('RimV2','RimV2',$,(#673));
#675=PRESENTATION_STYLE_ASSIGNMENT((#677));
#676=PRESENTATION_STYLE_ASSIGNMENT((#678));
#677=SURFACE_STYLE_USAGE(.BOTH.,#681);
#678=SURFACE_STYLE_USAGE(.BOTH.,#682);
#679=SURFACE_STYLE_RENDERING_WITH_PROPERTIES($,#689,(#680));
#680=SURFACE_STYLE_TRANSPARENT(0.);
#681=SURFACE_SIDE_STYLE('',(#683,#679));
#682=SURFACE_SIDE_STYLE('',(#684));
#683=SURFACE_STYLE_FILL_AREA(#685);
#684=SURFACE_STYLE_FILL_AREA(#686);
#685=FILL_AREA_STYLE('',(#687));
#686=FILL_AREA_STYLE('',(#688));
#687=FILL_AREA_STYLE_COLOUR('',#689);
#688=FILL_AREA_STYLE_COLOUR('',#690);
#689=COLOUR_RGB('',0.749019607843137,0.749019607843137,0.749019607843137);
#690=COLOUR_RGB('',1.,1.,0.);
ENDSEC;
END-ISO-10303-21;
