ISO-10303-21;
HEADER;
/* Generated by software containing ST-Developer
 * from STEP Tools, Inc. (www.steptools.com) 
 */

FILE_DESCRIPTION(
/* description */ (''),
/* implementation_level */ '2;1');

FILE_NAME(
/* name */ 'RimV1.stp',
/* time_stamp */ '2026-08-11T17:56:27-03:00',
/* author */ ('Administrator'),
/* organization */ (''),
/* preprocessor_version */ 'ST-DEVELOPER v20',
/* originating_system */ 'Autodesk Inventor 2024',
/* authorisation */ '');

FILE_SCHEMA (('AUTOMOTIVE_DESIGN { 1 0 10303 214 3 1 1 }'));
ENDSEC;

DATA;
#10=MECHANICAL_DESIGN_GEOMETRIC_PRESENTATION_REPRESENTATION('',(#13),#692);
#11=SHAPE_REPRESENTATION_RELATIONSHIP('SRR','None',#699,#12);
#12=ADVANCED_BREP_SHAPE_REPRESENTATION('',(#14),#691);
#13=STYLED_ITEM('',(#708),#14);
#14=MANIFOLD_SOLID_BREP('Solid1',#391);
#15=LINE('',#597,#31);
#16=LINE('',#633,#32);
#17=LINE('',#662,#33);
#18=LINE('',#664,#34);
#19=LINE('',#666,#35);
#20=LINE('',#668,#36);
#21=LINE('',#670,#37);
#22=LINE('',#672,#38);
#23=LINE('',#674,#39);
#24=LINE('',#676,#40);
#25=LINE('',#678,#41);
#26=LINE('',#680,#42);
#27=LINE('',#682,#43);
#28=LINE('',#684,#44);
#29=LINE('',#686,#45);
#30=LINE('',#688,#46);
#31=VECTOR('',#478,10.25);
#32=VECTOR('',#517,10.25);
#33=VECTOR('',#548,0.5);
#34=VECTOR('',#551,2.);
#35=VECTOR('',#554,2.);
#36=VECTOR('',#557,2.);
#37=VECTOR('',#560,2.);
#38=VECTOR('',#563,2.);
#39=VECTOR('',#566,2.);
#40=VECTOR('',#569,2.);
#41=VECTOR('',#572,2.);
#42=VECTOR('',#575,0.499999999999999);
#43=VECTOR('',#578,3.1);
#44=VECTOR('',#581,0.500000000000002);
#45=VECTOR('',#584,0.500000000000001);
#46=VECTOR('',#587,10.);
#47=CYLINDRICAL_SURFACE('',#417,10.25);
#48=CYLINDRICAL_SURFACE('',#436,10.25);
#49=CYLINDRICAL_SURFACE('',#452,0.5);
#50=CYLINDRICAL_SURFACE('',#453,2.);
#51=CYLINDRICAL_SURFACE('',#454,2.);
#52=CYLINDRICAL_SURFACE('',#455,2.);
#53=CYLINDRICAL_SURFACE('',#456,2.);
#54=CYLINDRICAL_SURFACE('',#457,2.);
#55=CYLINDRICAL_SURFACE('',#458,2.);
#56=CYLINDRICAL_SURFACE('',#459,2.);
#57=CYLINDRICAL_SURFACE('',#460,2.);
#58=CYLINDRICAL_SURFACE('',#461,0.499999999999999);
#59=CYLINDRICAL_SURFACE('',#462,3.1);
#60=CYLINDRICAL_SURFACE('',#463,0.500000000000002);
#61=CYLINDRICAL_SURFACE('',#464,0.500000000000001);
#62=CYLINDRICAL_SURFACE('',#465,10.);
#63=FACE_BOUND('',#112,.T.);
#64=FACE_BOUND('',#115,.T.);
#65=FACE_BOUND('',#116,.T.);
#66=FACE_BOUND('',#117,.T.);
#67=FACE_BOUND('',#118,.T.);
#68=FACE_BOUND('',#119,.T.);
#69=FACE_BOUND('',#120,.T.);
#70=FACE_BOUND('',#121,.T.);
#71=FACE_BOUND('',#122,.T.);
#72=FACE_BOUND('',#123,.T.);
#73=FACE_BOUND('',#124,.T.);
#74=FACE_BOUND('',#125,.T.);
#75=FACE_BOUND('',#126,.T.);
#76=FACE_BOUND('',#127,.T.);
#77=FACE_BOUND('',#129,.T.);
#78=FACE_BOUND('',#132,.T.);
#79=FACE_BOUND('',#133,.T.);
#80=FACE_BOUND('',#134,.T.);
#81=FACE_BOUND('',#135,.T.);
#82=FACE_BOUND('',#136,.T.);
#83=FACE_BOUND('',#137,.T.);
#84=FACE_BOUND('',#138,.T.);
#85=FACE_BOUND('',#139,.T.);
#86=FACE_BOUND('',#140,.T.);
#87=FACE_BOUND('',#141,.T.);
#88=FACE_BOUND('',#142,.T.);
#89=FACE_BOUND('',#143,.T.);
#90=FACE_BOUND('',#144,.T.);
#91=FACE_OUTER_BOUND('',#111,.T.);
#92=FACE_OUTER_BOUND('',#113,.T.);
#93=FACE_OUTER_BOUND('',#114,.T.);
#94=FACE_OUTER_BOUND('',#128,.T.);
#95=FACE_OUTER_BOUND('',#130,.T.);
#96=FACE_OUTER_BOUND('',#131,.T.);
#97=FACE_OUTER_BOUND('',#145,.T.);
#98=FACE_OUTER_BOUND('',#146,.T.);
#99=FACE_OUTER_BOUND('',#147,.T.);
#100=FACE_OUTER_BOUND('',#148,.T.);
#101=FACE_OUTER_BOUND('',#149,.T.);
#102=FACE_OUTER_BOUND('',#150,.T.);
#103=FACE_OUTER_BOUND('',#151,.T.);
#104=FACE_OUTER_BOUND('',#152,.T.);
#105=FACE_OUTER_BOUND('',#153,.T.);
#106=FACE_OUTER_BOUND('',#154,.T.);
#107=FACE_OUTER_BOUND('',#155,.T.);
#108=FACE_OUTER_BOUND('',#156,.T.);
#109=FACE_OUTER_BOUND('',#157,.T.);
#110=FACE_OUTER_BOUND('',#158,.T.);
#111=EDGE_LOOP('',(#271));
#112=EDGE_LOOP('',(#272));
#113=EDGE_LOOP('',(#273,#274,#275,#276));
#114=EDGE_LOOP('',(#277));
#115=EDGE_LOOP('',(#278));
#116=EDGE_LOOP('',(#279));
#117=EDGE_LOOP('',(#280));
#118=EDGE_LOOP('',(#281));
#119=EDGE_LOOP('',(#282));
#120=EDGE_LOOP('',(#283));
#121=EDGE_LOOP('',(#284));
#122=EDGE_LOOP('',(#285));
#123=EDGE_LOOP('',(#286));
#124=EDGE_LOOP('',(#287));
#125=EDGE_LOOP('',(#288));
#126=EDGE_LOOP('',(#289));
#127=EDGE_LOOP('',(#290));
#128=EDGE_LOOP('',(#291));
#129=EDGE_LOOP('',(#292));
#130=EDGE_LOOP('',(#293,#294,#295,#296));
#131=EDGE_LOOP('',(#297));
#132=EDGE_LOOP('',(#298));
#133=EDGE_LOOP('',(#299));
#134=EDGE_LOOP('',(#300));
#135=EDGE_LOOP('',(#301));
#136=EDGE_LOOP('',(#302));
#137=EDGE_LOOP('',(#303));
#138=EDGE_LOOP('',(#304));
#139=EDGE_LOOP('',(#305));
#140=EDGE_LOOP('',(#306));
#141=EDGE_LOOP('',(#307));
#142=EDGE_LOOP('',(#308));
#143=EDGE_LOOP('',(#309));
#144=EDGE_LOOP('',(#310));
#145=EDGE_LOOP('',(#311,#312,#313,#314));
#146=EDGE_LOOP('',(#315,#316,#317,#318));
#147=EDGE_LOOP('',(#319,#320,#321,#322));
#148=EDGE_LOOP('',(#323,#324,#325,#326));
#149=EDGE_LOOP('',(#327,#328,#329,#330));
#150=EDGE_LOOP('',(#331,#332,#333,#334));
#151=EDGE_LOOP('',(#335,#336,#337,#338));
#152=EDGE_LOOP('',(#339,#340,#341,#342));
#153=EDGE_LOOP('',(#343,#344,#345,#346));
#154=EDGE_LOOP('',(#347,#348,#349,#350));
#155=EDGE_LOOP('',(#351,#352,#353,#354));
#156=EDGE_LOOP('',(#355,#356,#357,#358));
#157=EDGE_LOOP('',(#359,#360,#361,#362));
#158=EDGE_LOOP('',(#363,#364,#365,#366));
#159=CIRCLE('',#415,10.25);
#160=CIRCLE('',#416,10.);
#161=CIRCLE('',#418,10.25);
#162=CIRCLE('',#420,0.499999999999999);
#163=CIRCLE('',#421,2.);
#164=CIRCLE('',#422,0.500000000000001);
#165=CIRCLE('',#423,2.);
#166=CIRCLE('',#424,0.5);
#167=CIRCLE('',#425,2.);
#168=CIRCLE('',#426,2.);
#169=CIRCLE('',#427,2.);
#170=CIRCLE('',#428,2.);
#171=CIRCLE('',#429,2.);
#172=CIRCLE('',#430,2.);
#173=CIRCLE('',#431,0.500000000000002);
#174=CIRCLE('',#432,3.1);
#175=CIRCLE('',#434,10.25);
#176=CIRCLE('',#435,10.);
#177=CIRCLE('',#437,10.25);
#178=CIRCLE('',#439,2.);
#179=CIRCLE('',#440,2.);
#180=CIRCLE('',#441,2.);
#181=CIRCLE('',#442,2.);
#182=CIRCLE('',#443,2.);
#183=CIRCLE('',#444,2.);
#184=CIRCLE('',#445,0.499999999999999);
#185=CIRCLE('',#446,0.500000000000002);
#186=CIRCLE('',#447,0.500000000000001);
#187=CIRCLE('',#448,0.5);
#188=CIRCLE('',#449,2.);
#189=CIRCLE('',#450,2.);
#190=CIRCLE('',#451,3.1);
#191=VERTEX_POINT('',#590);
#192=VERTEX_POINT('',#592);
#193=VERTEX_POINT('',#595);
#194=VERTEX_POINT('',#599);
#195=VERTEX_POINT('',#601);
#196=VERTEX_POINT('',#603);
#197=VERTEX_POINT('',#605);
#198=VERTEX_POINT('',#607);
#199=VERTEX_POINT('',#609);
#200=VERTEX_POINT('',#611);
#201=VERTEX_POINT('',#613);
#202=VERTEX_POINT('',#615);
#203=VERTEX_POINT('',#617);
#204=VERTEX_POINT('',#619);
#205=VERTEX_POINT('',#621);
#206=VERTEX_POINT('',#623);
#207=VERTEX_POINT('',#626);
#208=VERTEX_POINT('',#628);
#209=VERTEX_POINT('',#631);
#210=VERTEX_POINT('',#635);
#211=VERTEX_POINT('',#637);
#212=VERTEX_POINT('',#639);
#213=VERTEX_POINT('',#641);
#214=VERTEX_POINT('',#643);
#215=VERTEX_POINT('',#645);
#216=VERTEX_POINT('',#647);
#217=VERTEX_POINT('',#649);
#218=VERTEX_POINT('',#651);
#219=VERTEX_POINT('',#653);
#220=VERTEX_POINT('',#655);
#221=VERTEX_POINT('',#657);
#222=VERTEX_POINT('',#659);
#223=EDGE_CURVE('',#191,#191,#159,.T.);
#224=EDGE_CURVE('',#192,#192,#160,.T.);
#225=EDGE_CURVE('',#193,#193,#161,.T.);
#226=EDGE_CURVE('',#193,#191,#15,.T.);
#227=EDGE_CURVE('',#194,#194,#162,.T.);
#228=EDGE_CURVE('',#195,#195,#163,.T.);
#229=EDGE_CURVE('',#196,#196,#164,.T.);
#230=EDGE_CURVE('',#197,#197,#165,.T.);
#231=EDGE_CURVE('',#198,#198,#166,.T.);
#232=EDGE_CURVE('',#199,#199,#167,.T.);
#233=EDGE_CURVE('',#200,#200,#168,.T.);
#234=EDGE_CURVE('',#201,#201,#169,.T.);
#235=EDGE_CURVE('',#202,#202,#170,.T.);
#236=EDGE_CURVE('',#203,#203,#171,.T.);
#237=EDGE_CURVE('',#204,#204,#172,.T.);
#238=EDGE_CURVE('',#205,#205,#173,.T.);
#239=EDGE_CURVE('',#206,#206,#174,.T.);
#240=EDGE_CURVE('',#207,#207,#175,.T.);
#241=EDGE_CURVE('',#208,#208,#176,.T.);
#242=EDGE_CURVE('',#209,#209,#177,.T.);
#243=EDGE_CURVE('',#209,#207,#16,.T.);
#244=EDGE_CURVE('',#210,#210,#178,.T.);
#245=EDGE_CURVE('',#211,#211,#179,.T.);
#246=EDGE_CURVE('',#212,#212,#180,.T.);
#247=EDGE_CURVE('',#213,#213,#181,.T.);
#248=EDGE_CURVE('',#214,#214,#182,.T.);
#249=EDGE_CURVE('',#215,#215,#183,.T.);
#250=EDGE_CURVE('',#216,#216,#184,.T.);
#251=EDGE_CURVE('',#217,#217,#185,.T.);
#252=EDGE_CURVE('',#218,#218,#186,.T.);
#253=EDGE_CURVE('',#219,#219,#187,.T.);
#254=EDGE_CURVE('',#220,#220,#188,.T.);
#255=EDGE_CURVE('',#221,#221,#189,.T.);
#256=EDGE_CURVE('',#222,#222,#190,.T.);
#257=EDGE_CURVE('',#198,#219,#17,.T.);
#258=EDGE_CURVE('',#204,#210,#18,.T.);
#259=EDGE_CURVE('',#197,#215,#19,.T.);
#260=EDGE_CURVE('',#203,#211,#20,.T.);
#261=EDGE_CURVE('',#195,#221,#21,.T.);
#262=EDGE_CURVE('',#201,#212,#22,.T.);
#263=EDGE_CURVE('',#202,#220,#23,.T.);
#264=EDGE_CURVE('',#199,#214,#24,.T.);
#265=EDGE_CURVE('',#200,#213,#25,.T.);
#266=EDGE_CURVE('',#194,#216,#26,.T.);
#267=EDGE_CURVE('',#206,#222,#27,.T.);
#268=EDGE_CURVE('',#205,#217,#28,.T.);
#269=EDGE_CURVE('',#196,#218,#29,.T.);
#270=EDGE_CURVE('',#192,#208,#30,.T.);
#271=ORIENTED_EDGE('',*,*,#223,.F.);
#272=ORIENTED_EDGE('',*,*,#224,.T.);
#273=ORIENTED_EDGE('',*,*,#225,.F.);
#274=ORIENTED_EDGE('',*,*,#226,.T.);
#275=ORIENTED_EDGE('',*,*,#223,.T.);
#276=ORIENTED_EDGE('',*,*,#226,.F.);
#277=ORIENTED_EDGE('',*,*,#225,.T.);
#278=ORIENTED_EDGE('',*,*,#227,.T.);
#279=ORIENTED_EDGE('',*,*,#228,.T.);
#280=ORIENTED_EDGE('',*,*,#229,.T.);
#281=ORIENTED_EDGE('',*,*,#230,.T.);
#282=ORIENTED_EDGE('',*,*,#231,.T.);
#283=ORIENTED_EDGE('',*,*,#232,.T.);
#284=ORIENTED_EDGE('',*,*,#233,.T.);
#285=ORIENTED_EDGE('',*,*,#234,.T.);
#286=ORIENTED_EDGE('',*,*,#235,.T.);
#287=ORIENTED_EDGE('',*,*,#236,.T.);
#288=ORIENTED_EDGE('',*,*,#237,.T.);
#289=ORIENTED_EDGE('',*,*,#238,.T.);
#290=ORIENTED_EDGE('',*,*,#239,.T.);
#291=ORIENTED_EDGE('',*,*,#240,.F.);
#292=ORIENTED_EDGE('',*,*,#241,.F.);
#293=ORIENTED_EDGE('',*,*,#242,.F.);
#294=ORIENTED_EDGE('',*,*,#243,.T.);
#295=ORIENTED_EDGE('',*,*,#240,.T.);
#296=ORIENTED_EDGE('',*,*,#243,.F.);
#297=ORIENTED_EDGE('',*,*,#242,.T.);
#298=ORIENTED_EDGE('',*,*,#244,.T.);
#299=ORIENTED_EDGE('',*,*,#245,.T.);
#300=ORIENTED_EDGE('',*,*,#246,.T.);
#301=ORIENTED_EDGE('',*,*,#247,.T.);
#302=ORIENTED_EDGE('',*,*,#248,.T.);
#303=ORIENTED_EDGE('',*,*,#249,.T.);
#304=ORIENTED_EDGE('',*,*,#250,.T.);
#305=ORIENTED_EDGE('',*,*,#251,.T.);
#306=ORIENTED_EDGE('',*,*,#252,.T.);
#307=ORIENTED_EDGE('',*,*,#253,.T.);
#308=ORIENTED_EDGE('',*,*,#254,.T.);
#309=ORIENTED_EDGE('',*,*,#255,.T.);
#310=ORIENTED_EDGE('',*,*,#256,.T.);
#311=ORIENTED_EDGE('',*,*,#231,.F.);
#312=ORIENTED_EDGE('',*,*,#257,.T.);
#313=ORIENTED_EDGE('',*,*,#253,.F.);
#314=ORIENTED_EDGE('',*,*,#257,.F.);
#315=ORIENTED_EDGE('',*,*,#237,.F.);
#316=ORIENTED_EDGE('',*,*,#258,.T.);
#317=ORIENTED_EDGE('',*,*,#244,.F.);
#318=ORIENTED_EDGE('',*,*,#258,.F.);
#319=ORIENTED_EDGE('',*,*,#230,.F.);
#320=ORIENTED_EDGE('',*,*,#259,.T.);
#321=ORIENTED_EDGE('',*,*,#249,.F.);
#322=ORIENTED_EDGE('',*,*,#259,.F.);
#323=ORIENTED_EDGE('',*,*,#236,.F.);
#324=ORIENTED_EDGE('',*,*,#260,.T.);
#325=ORIENTED_EDGE('',*,*,#245,.F.);
#326=ORIENTED_EDGE('',*,*,#260,.F.);
#327=ORIENTED_EDGE('',*,*,#228,.F.);
#328=ORIENTED_EDGE('',*,*,#261,.T.);
#329=ORIENTED_EDGE('',*,*,#255,.F.);
#330=ORIENTED_EDGE('',*,*,#261,.F.);
#331=ORIENTED_EDGE('',*,*,#234,.F.);
#332=ORIENTED_EDGE('',*,*,#262,.T.);
#333=ORIENTED_EDGE('',*,*,#246,.F.);
#334=ORIENTED_EDGE('',*,*,#262,.F.);
#335=ORIENTED_EDGE('',*,*,#235,.F.);
#336=ORIENTED_EDGE('',*,*,#263,.T.);
#337=ORIENTED_EDGE('',*,*,#254,.F.);
#338=ORIENTED_EDGE('',*,*,#263,.F.);
#339=ORIENTED_EDGE('',*,*,#232,.F.);
#340=ORIENTED_EDGE('',*,*,#264,.T.);
#341=ORIENTED_EDGE('',*,*,#248,.F.);
#342=ORIENTED_EDGE('',*,*,#264,.F.);
#343=ORIENTED_EDGE('',*,*,#233,.F.);
#344=ORIENTED_EDGE('',*,*,#265,.T.);
#345=ORIENTED_EDGE('',*,*,#247,.F.);
#346=ORIENTED_EDGE('',*,*,#265,.F.);
#347=ORIENTED_EDGE('',*,*,#227,.F.);
#348=ORIENTED_EDGE('',*,*,#266,.T.);
#349=ORIENTED_EDGE('',*,*,#250,.F.);
#350=ORIENTED_EDGE('',*,*,#266,.F.);
#351=ORIENTED_EDGE('',*,*,#239,.F.);
#352=ORIENTED_EDGE('',*,*,#267,.T.);
#353=ORIENTED_EDGE('',*,*,#256,.F.);
#354=ORIENTED_EDGE('',*,*,#267,.F.);
#355=ORIENTED_EDGE('',*,*,#238,.F.);
#356=ORIENTED_EDGE('',*,*,#268,.T.);
#357=ORIENTED_EDGE('',*,*,#251,.F.);
#358=ORIENTED_EDGE('',*,*,#268,.F.);
#359=ORIENTED_EDGE('',*,*,#229,.F.);
#360=ORIENTED_EDGE('',*,*,#269,.T.);
#361=ORIENTED_EDGE('',*,*,#252,.F.);
#362=ORIENTED_EDGE('',*,*,#269,.F.);
#363=ORIENTED_EDGE('',*,*,#224,.F.);
#364=ORIENTED_EDGE('',*,*,#270,.T.);
#365=ORIENTED_EDGE('',*,*,#241,.T.);
#366=ORIENTED_EDGE('',*,*,#270,.F.);
#367=PLANE('',#414);
#368=PLANE('',#419);
#369=PLANE('',#433);
#370=PLANE('',#438);
#371=ADVANCED_FACE('',(#91,#63),#367,.F.);
#372=ADVANCED_FACE('',(#92),#47,.T.);
#373=ADVANCED_FACE('',(#93,#64,#65,#66,#67,#68,#69,#70,#71,#72,#73,#74,
#75,#76),#368,.T.);
#374=ADVANCED_FACE('',(#94,#77),#369,.F.);
#375=ADVANCED_FACE('',(#95),#48,.T.);
#376=ADVANCED_FACE('',(#96,#78,#79,#80,#81,#82,#83,#84,#85,#86,#87,#88,
#89,#90),#370,.T.);
#377=ADVANCED_FACE('',(#97),#49,.F.);
#378=ADVANCED_FACE('',(#98),#50,.F.);
#379=ADVANCED_FACE('',(#99),#51,.F.);
#380=ADVANCED_FACE('',(#100),#52,.F.);
#381=ADVANCED_FACE('',(#101),#53,.F.);
#382=ADVANCED_FACE('',(#102),#54,.F.);
#383=ADVANCED_FACE('',(#103),#55,.F.);
#384=ADVANCED_FACE('',(#104),#56,.F.);
#385=ADVANCED_FACE('',(#105),#57,.F.);
#386=ADVANCED_FACE('',(#106),#58,.F.);
#387=ADVANCED_FACE('',(#107),#59,.F.);
#388=ADVANCED_FACE('',(#108),#60,.F.);
#389=ADVANCED_FACE('',(#109),#61,.F.);
#390=ADVANCED_FACE('',(#110),#62,.T.);
#391=CLOSED_SHELL('',(#371,#372,#373,#374,#375,#376,#377,#378,#379,#380,
#381,#382,#383,#384,#385,#386,#387,#388,#389,#390));
#392=DERIVED_UNIT_ELEMENT(#395,1.);
#393=DERIVED_UNIT_ELEMENT(#694,-3.);
#394=DIMENSIONAL_EXPONENTS(0.,1.,0.,0.,0.,0.,0.);
#395=(
CONVERSION_BASED_UNIT('gram',#397)
MASS_UNIT()
NAMED_UNIT(#394)
);
#396=(
MASS_UNIT()
NAMED_UNIT(*)
SI_UNIT(.KILO.,.GRAM.)
);
#397=MASS_MEASURE_WITH_UNIT(MASS_MEASURE(0.001),#396);
#398=DERIVED_UNIT((#392,#393));
#399=MEASURE_REPRESENTATION_ITEM('density measure',
POSITIVE_RATIO_MEASURE(1.),#398);
#400=PROPERTY_DEFINITION_REPRESENTATION(#405,#402);
#401=PROPERTY_DEFINITION_REPRESENTATION(#406,#403);
#402=REPRESENTATION('material name',(#404),#691);
#403=REPRESENTATION('density',(#399),#691);
#404=DESCRIPTIVE_REPRESENTATION_ITEM('Generic','Generic');
#405=PROPERTY_DEFINITION('material property','material name',#701);
#406=PROPERTY_DEFINITION('material property','density of part',#701);
#407=DATE_TIME_ROLE('creation_date');
#408=APPLIED_DATE_AND_TIME_ASSIGNMENT(#409,#407,(#701));
#409=DATE_AND_TIME(#410,#411);
#410=CALENDAR_DATE(2026,11,8);
#411=LOCAL_TIME(0,0,0.,#412);
#412=COORDINATED_UNIVERSAL_TIME_OFFSET(0,0,.BEHIND.);
#413=AXIS2_PLACEMENT_3D('',#588,#466,#467);
#414=AXIS2_PLACEMENT_3D('',#589,#468,#469);
#415=AXIS2_PLACEMENT_3D('',#591,#470,#471);
#416=AXIS2_PLACEMENT_3D('',#593,#472,#473);
#417=AXIS2_PLACEMENT_3D('',#594,#474,#475);
#418=AXIS2_PLACEMENT_3D('',#596,#476,#477);
#419=AXIS2_PLACEMENT_3D('',#598,#479,#480);
#420=AXIS2_PLACEMENT_3D('',#600,#481,#482);
#421=AXIS2_PLACEMENT_3D('',#602,#483,#484);
#422=AXIS2_PLACEMENT_3D('',#604,#485,#486);
#423=AXIS2_PLACEMENT_3D('',#606,#487,#488);
#424=AXIS2_PLACEMENT_3D('',#608,#489,#490);
#425=AXIS2_PLACEMENT_3D('',#610,#491,#492);
#426=AXIS2_PLACEMENT_3D('',#612,#493,#494);
#427=AXIS2_PLACEMENT_3D('',#614,#495,#496);
#428=AXIS2_PLACEMENT_3D('',#616,#497,#498);
#429=AXIS2_PLACEMENT_3D('',#618,#499,#500);
#430=AXIS2_PLACEMENT_3D('',#620,#501,#502);
#431=AXIS2_PLACEMENT_3D('',#622,#503,#504);
#432=AXIS2_PLACEMENT_3D('',#624,#505,#506);
#433=AXIS2_PLACEMENT_3D('',#625,#507,#508);
#434=AXIS2_PLACEMENT_3D('',#627,#509,#510);
#435=AXIS2_PLACEMENT_3D('',#629,#511,#512);
#436=AXIS2_PLACEMENT_3D('',#630,#513,#514);
#437=AXIS2_PLACEMENT_3D('',#632,#515,#516);
#438=AXIS2_PLACEMENT_3D('',#634,#518,#519);
#439=AXIS2_PLACEMENT_3D('',#636,#520,#521);
#440=AXIS2_PLACEMENT_3D('',#638,#522,#523);
#441=AXIS2_PLACEMENT_3D('',#640,#524,#525);
#442=AXIS2_PLACEMENT_3D('',#642,#526,#527);
#443=AXIS2_PLACEMENT_3D('',#644,#528,#529);
#444=AXIS2_PLACEMENT_3D('',#646,#530,#531);
#445=AXIS2_PLACEMENT_3D('',#648,#532,#533);
#446=AXIS2_PLACEMENT_3D('',#650,#534,#535);
#447=AXIS2_PLACEMENT_3D('',#652,#536,#537);
#448=AXIS2_PLACEMENT_3D('',#654,#538,#539);
#449=AXIS2_PLACEMENT_3D('',#656,#540,#541);
#450=AXIS2_PLACEMENT_3D('',#658,#542,#543);
#451=AXIS2_PLACEMENT_3D('',#660,#544,#545);
#452=AXIS2_PLACEMENT_3D('',#661,#546,#547);
#453=AXIS2_PLACEMENT_3D('',#663,#549,#550);
#454=AXIS2_PLACEMENT_3D('',#665,#552,#553);
#455=AXIS2_PLACEMENT_3D('',#667,#555,#556);
#456=AXIS2_PLACEMENT_3D('',#669,#558,#559);
#457=AXIS2_PLACEMENT_3D('',#671,#561,#562);
#458=AXIS2_PLACEMENT_3D('',#673,#564,#565);
#459=AXIS2_PLACEMENT_3D('',#675,#567,#568);
#460=AXIS2_PLACEMENT_3D('',#677,#570,#571);
#461=AXIS2_PLACEMENT_3D('',#679,#573,#574);
#462=AXIS2_PLACEMENT_3D('',#681,#576,#577);
#463=AXIS2_PLACEMENT_3D('',#683,#579,#580);
#464=AXIS2_PLACEMENT_3D('',#685,#582,#583);
#465=AXIS2_PLACEMENT_3D('',#687,#585,#586);
#466=DIRECTION('axis',(0.,0.,1.));
#467=DIRECTION('refdir',(1.,0.,0.));
#468=DIRECTION('center_axis',(0.,0.,1.));
#469=DIRECTION('ref_axis',(1.,0.,0.));
#470=DIRECTION('center_axis',(0.,0.,1.));
#471=DIRECTION('ref_axis',(1.,0.,0.));
#472=DIRECTION('center_axis',(0.,0.,1.));
#473=DIRECTION('ref_axis',(1.,0.,0.));
#474=DIRECTION('center_axis',(0.,0.,1.));
#475=DIRECTION('ref_axis',(1.,0.,0.));
#476=DIRECTION('center_axis',(0.,0.,1.));
#477=DIRECTION('ref_axis',(1.,0.,0.));
#478=DIRECTION('',(0.,0.,-1.));
#479=DIRECTION('center_axis',(0.,0.,1.));
#480=DIRECTION('ref_axis',(1.,0.,0.));
#481=DIRECTION('center_axis',(0.,0.,-1.));
#482=DIRECTION('ref_axis',(-1.,0.,0.));
#483=DIRECTION('center_axis',(0.,0.,-1.));
#484=DIRECTION('ref_axis',(-1.,0.,0.));
#485=DIRECTION('center_axis',(0.,0.,-1.));
#486=DIRECTION('ref_axis',(-1.,0.,0.));
#487=DIRECTION('center_axis',(0.,0.,-1.));
#488=DIRECTION('ref_axis',(-1.,0.,0.));
#489=DIRECTION('center_axis',(0.,0.,-1.));
#490=DIRECTION('ref_axis',(-1.,0.,0.));
#491=DIRECTION('center_axis',(0.,0.,-1.));
#492=DIRECTION('ref_axis',(-1.,0.,0.));
#493=DIRECTION('center_axis',(0.,0.,-1.));
#494=DIRECTION('ref_axis',(-1.,0.,0.));
#495=DIRECTION('center_axis',(0.,0.,-1.));
#496=DIRECTION('ref_axis',(-1.,0.,0.));
#497=DIRECTION('center_axis',(0.,0.,-1.));
#498=DIRECTION('ref_axis',(-1.,0.,0.));
#499=DIRECTION('center_axis',(0.,0.,-1.));
#500=DIRECTION('ref_axis',(-1.,0.,0.));
#501=DIRECTION('center_axis',(0.,0.,-1.));
#502=DIRECTION('ref_axis',(-1.,0.,0.));
#503=DIRECTION('center_axis',(0.,0.,-1.));
#504=DIRECTION('ref_axis',(-1.,0.,0.));
#505=DIRECTION('center_axis',(0.,0.,-1.));
#506=DIRECTION('ref_axis',(-1.,0.,0.));
#507=DIRECTION('center_axis',(0.,0.,-1.));
#508=DIRECTION('ref_axis',(-1.,0.,0.));
#509=DIRECTION('center_axis',(0.,0.,-1.));
#510=DIRECTION('ref_axis',(-1.,0.,0.));
#511=DIRECTION('center_axis',(0.,0.,1.));
#512=DIRECTION('ref_axis',(1.,0.,0.));
#513=DIRECTION('center_axis',(0.,0.,-1.));
#514=DIRECTION('ref_axis',(-1.,0.,0.));
#515=DIRECTION('center_axis',(0.,0.,-1.));
#516=DIRECTION('ref_axis',(-1.,0.,0.));
#517=DIRECTION('',(0.,0.,1.));
#518=DIRECTION('center_axis',(0.,0.,-1.));
#519=DIRECTION('ref_axis',(-1.,0.,0.));
#520=DIRECTION('center_axis',(0.,0.,1.));
#521=DIRECTION('ref_axis',(1.,0.,0.));
#522=DIRECTION('center_axis',(0.,0.,1.));
#523=DIRECTION('ref_axis',(1.,0.,0.));
#524=DIRECTION('center_axis',(0.,0.,1.));
#525=DIRECTION('ref_axis',(1.,0.,0.));
#526=DIRECTION('center_axis',(0.,0.,1.));
#527=DIRECTION('ref_axis',(1.,0.,0.));
#528=DIRECTION('center_axis',(0.,0.,1.));
#529=DIRECTION('ref_axis',(1.,0.,0.));
#530=DIRECTION('center_axis',(0.,0.,1.));
#531=DIRECTION('ref_axis',(1.,0.,0.));
#532=DIRECTION('center_axis',(0.,0.,1.));
#533=DIRECTION('ref_axis',(1.,0.,0.));
#534=DIRECTION('center_axis',(0.,0.,1.));
#535=DIRECTION('ref_axis',(1.,0.,0.));
#536=DIRECTION('center_axis',(0.,0.,1.));
#537=DIRECTION('ref_axis',(1.,0.,0.));
#538=DIRECTION('center_axis',(0.,0.,1.));
#539=DIRECTION('ref_axis',(1.,0.,0.));
#540=DIRECTION('center_axis',(0.,0.,1.));
#541=DIRECTION('ref_axis',(1.,0.,0.));
#542=DIRECTION('center_axis',(0.,0.,1.));
#543=DIRECTION('ref_axis',(1.,0.,0.));
#544=DIRECTION('center_axis',(0.,0.,1.));
#545=DIRECTION('ref_axis',(1.,0.,0.));
#546=DIRECTION('center_axis',(0.,0.,1.));
#547=DIRECTION('ref_axis',(-1.,0.,0.));
#548=DIRECTION('',(0.,0.,-1.));
#549=DIRECTION('center_axis',(0.,0.,1.));
#550=DIRECTION('ref_axis',(-1.,0.,0.));
#551=DIRECTION('',(0.,0.,-1.));
#552=DIRECTION('center_axis',(0.,0.,1.));
#553=DIRECTION('ref_axis',(-1.,0.,0.));
#554=DIRECTION('',(0.,0.,-1.));
#555=DIRECTION('center_axis',(0.,0.,1.));
#556=DIRECTION('ref_axis',(-1.,0.,0.));
#557=DIRECTION('',(0.,0.,-1.));
#558=DIRECTION('center_axis',(0.,0.,1.));
#559=DIRECTION('ref_axis',(-1.,0.,0.));
#560=DIRECTION('',(0.,0.,-1.));
#561=DIRECTION('center_axis',(0.,0.,1.));
#562=DIRECTION('ref_axis',(-1.,0.,0.));
#563=DIRECTION('',(0.,0.,-1.));
#564=DIRECTION('center_axis',(0.,0.,1.));
#565=DIRECTION('ref_axis',(-1.,0.,0.));
#566=DIRECTION('',(0.,0.,-1.));
#567=DIRECTION('center_axis',(0.,0.,1.));
#568=DIRECTION('ref_axis',(-1.,0.,0.));
#569=DIRECTION('',(0.,0.,-1.));
#570=DIRECTION('center_axis',(0.,0.,1.));
#571=DIRECTION('ref_axis',(-1.,0.,0.));
#572=DIRECTION('',(0.,0.,-1.));
#573=DIRECTION('center_axis',(0.,0.,1.));
#574=DIRECTION('ref_axis',(-1.,0.,0.));
#575=DIRECTION('',(0.,0.,-1.));
#576=DIRECTION('center_axis',(0.,0.,1.));
#577=DIRECTION('ref_axis',(-1.,0.,0.));
#578=DIRECTION('',(0.,0.,-1.));
#579=DIRECTION('center_axis',(0.,0.,1.));
#580=DIRECTION('ref_axis',(-1.,0.,0.));
#581=DIRECTION('',(0.,0.,-1.));
#582=DIRECTION('center_axis',(0.,0.,1.));
#583=DIRECTION('ref_axis',(-1.,0.,0.));
#584=DIRECTION('',(0.,0.,-1.));
#585=DIRECTION('center_axis',(0.,0.,1.));
#586=DIRECTION('ref_axis',(1.,0.,0.));
#587=DIRECTION('',(0.,0.,-1.));
#588=CARTESIAN_POINT('',(0.,0.,0.));
#589=CARTESIAN_POINT('Origin',(20.4823291443718,12.8530157676738,8.5));
#590=CARTESIAN_POINT('',(10.2323291443718,12.8530157676738,8.5));
#591=CARTESIAN_POINT('Origin',(20.4823291443718,12.8530157676738,8.5));
#592=CARTESIAN_POINT('',(10.4823291443718,12.8530157676738,8.5));
#593=CARTESIAN_POINT('Origin',(20.4823291443718,12.8530157676738,8.5));
#594=CARTESIAN_POINT('Origin',(20.4823291443718,12.8530157676738,8.5));
#595=CARTESIAN_POINT('',(10.2323291443718,12.8530157676738,9.));
#596=CARTESIAN_POINT('Origin',(20.4823291443718,12.8530157676738,9.));
#597=CARTESIAN_POINT('',(10.2323291443718,12.8530157676738,8.5));
#598=CARTESIAN_POINT('Origin',(20.4823291443718,12.8530157676738,9.));
#599=CARTESIAN_POINT('',(24.9088171575448,11.2266111801221,9.));
#600=CARTESIAN_POINT('Origin',(24.4088171575448,11.2266111801221,9.));
#601=CARTESIAN_POINT('',(22.4823291443718,19.4030157676738,9.));
#602=CARTESIAN_POINT('Origin',(20.4823291443718,19.4030157676738,9.));
#603=CARTESIAN_POINT('',(17.0558411311988,14.4794203552254,9.));
#604=CARTESIAN_POINT('Origin',(16.5558411311988,14.4794203552254,9.));
#605=CARTESIAN_POINT('',(15.9323291443718,12.8530157676738,9.));
#606=CARTESIAN_POINT('Origin',(13.9323291443718,12.8530157676738,9.));
#607=CARTESIAN_POINT('',(19.3559245568202,8.92652775450079,9.));
#608=CARTESIAN_POINT('Origin',(18.8559245568202,8.92652775450079,9.));
#609=CARTESIAN_POINT('',(17.8507797275999,8.22146635090187,9.));
#610=CARTESIAN_POINT('Origin',(15.8507797275999,8.22146635090187,9.));
#611=CARTESIAN_POINT('',(22.4823291443718,6.30301576767376,9.));
#612=CARTESIAN_POINT('Origin',(20.4823291443718,6.30301576767376,9.));
#613=CARTESIAN_POINT('',(27.1138785611437,8.22146635090187,9.));
#614=CARTESIAN_POINT('Origin',(25.1138785611437,8.22146635090187,9.));
#615=CARTESIAN_POINT('',(29.0323291443718,12.8530157676738,9.));
#616=CARTESIAN_POINT('Origin',(27.0323291443718,12.8530157676738,9.));
#617=CARTESIAN_POINT('',(27.1138785611437,17.4845651844456,9.));
#618=CARTESIAN_POINT('Origin',(25.1138785611437,17.4845651844456,9.));
#619=CARTESIAN_POINT('',(17.8507797275999,17.4845651844456,9.));
#620=CARTESIAN_POINT('Origin',(15.8507797275999,17.4845651844456,9.));
#621=CARTESIAN_POINT('',(22.6087337319234,16.7795037808467,9.));
#622=CARTESIAN_POINT('Origin',(22.1087337319234,16.7795037808467,9.));
#623=CARTESIAN_POINT('',(23.5823291443718,12.8530157676738,9.));
#624=CARTESIAN_POINT('Origin',(20.4823291443718,12.8530157676738,9.));
#625=CARTESIAN_POINT('Origin',(20.4823291443718,12.8530157676738,0.));
#626=CARTESIAN_POINT('',(30.7323291443718,12.8530157676738,0.));
#627=CARTESIAN_POINT('Origin',(20.4823291443718,12.8530157676738,0.));
#628=CARTESIAN_POINT('',(10.4823291443718,12.8530157676738,0.));
#629=CARTESIAN_POINT('Origin',(20.4823291443718,12.8530157676738,0.));
#630=CARTESIAN_POINT('Origin',(20.4823291443718,12.8530157676738,0.));
#631=CARTESIAN_POINT('',(30.7323291443718,12.8530157676738,-0.5));
#632=CARTESIAN_POINT('Origin',(20.4823291443718,12.8530157676738,-0.5));
#633=CARTESIAN_POINT('',(30.7323291443718,12.8530157676738,0.));
#634=CARTESIAN_POINT('Origin',(20.4823291443718,12.8530157676738,-0.5));
#635=CARTESIAN_POINT('',(17.8507797275999,17.4845651844456,-0.5));
#636=CARTESIAN_POINT('Origin',(15.8507797275999,17.4845651844456,-0.5));
#637=CARTESIAN_POINT('',(27.1138785611437,17.4845651844456,-0.5));
#638=CARTESIAN_POINT('Origin',(25.1138785611437,17.4845651844456,-0.5));
#639=CARTESIAN_POINT('',(27.1138785611437,8.22146635090187,-0.5));
#640=CARTESIAN_POINT('Origin',(25.1138785611437,8.22146635090187,-0.5));
#641=CARTESIAN_POINT('',(22.4823291443718,6.30301576767376,-0.5));
#642=CARTESIAN_POINT('Origin',(20.4823291443718,6.30301576767376,-0.5));
#643=CARTESIAN_POINT('',(17.8507797275999,8.22146635090187,-0.5));
#644=CARTESIAN_POINT('Origin',(15.8507797275999,8.22146635090187,-0.5));
#645=CARTESIAN_POINT('',(15.9323291443718,12.8530157676738,-0.5));
#646=CARTESIAN_POINT('Origin',(13.9323291443718,12.8530157676738,-0.5));
#647=CARTESIAN_POINT('',(24.9088171575448,11.2266111801221,-0.5));
#648=CARTESIAN_POINT('Origin',(24.4088171575448,11.2266111801221,-0.5));
#649=CARTESIAN_POINT('',(22.6087337319234,16.7795037808467,-0.5));
#650=CARTESIAN_POINT('Origin',(22.1087337319234,16.7795037808467,-0.5));
#651=CARTESIAN_POINT('',(17.0558411311988,14.4794203552254,-0.5));
#652=CARTESIAN_POINT('Origin',(16.5558411311988,14.4794203552254,-0.5));
#653=CARTESIAN_POINT('',(19.3559245568202,8.92652775450079,-0.5));
#654=CARTESIAN_POINT('Origin',(18.8559245568202,8.92652775450079,-0.5));
#655=CARTESIAN_POINT('',(29.0323291443718,12.8530157676738,-0.5));
#656=CARTESIAN_POINT('Origin',(27.0323291443718,12.8530157676738,-0.5));
#657=CARTESIAN_POINT('',(22.4823291443718,19.4030157676738,-0.5));
#658=CARTESIAN_POINT('Origin',(20.4823291443718,19.4030157676738,-0.5));
#659=CARTESIAN_POINT('',(23.5823291443718,12.8530157676738,-0.5));
#660=CARTESIAN_POINT('Origin',(20.4823291443718,12.8530157676738,-0.5));
#661=CARTESIAN_POINT('Origin',(18.8559245568202,8.92652775450079,0.));
#662=CARTESIAN_POINT('',(19.3559245568202,8.92652775450079,0.));
#663=CARTESIAN_POINT('Origin',(15.8507797275999,17.4845651844456,0.));
#664=CARTESIAN_POINT('',(17.8507797275999,17.4845651844456,0.));
#665=CARTESIAN_POINT('Origin',(13.9323291443718,12.8530157676738,0.));
#666=CARTESIAN_POINT('',(15.9323291443718,12.8530157676738,0.));
#667=CARTESIAN_POINT('Origin',(25.1138785611437,17.4845651844456,0.));
#668=CARTESIAN_POINT('',(27.1138785611437,17.4845651844456,0.));
#669=CARTESIAN_POINT('Origin',(20.4823291443718,19.4030157676738,0.));
#670=CARTESIAN_POINT('',(22.4823291443718,19.4030157676738,0.));
#671=CARTESIAN_POINT('Origin',(25.1138785611437,8.22146635090187,0.));
#672=CARTESIAN_POINT('',(27.1138785611437,8.22146635090187,0.));
#673=CARTESIAN_POINT('Origin',(27.0323291443718,12.8530157676738,0.));
#674=CARTESIAN_POINT('',(29.0323291443718,12.8530157676738,0.));
#675=CARTESIAN_POINT('Origin',(15.8507797275999,8.22146635090187,0.));
#676=CARTESIAN_POINT('',(17.8507797275999,8.22146635090187,0.));
#677=CARTESIAN_POINT('Origin',(20.4823291443718,6.30301576767376,0.));
#678=CARTESIAN_POINT('',(22.4823291443718,6.30301576767376,0.));
#679=CARTESIAN_POINT('Origin',(24.4088171575448,11.2266111801221,0.));
#680=CARTESIAN_POINT('',(24.9088171575448,11.2266111801221,0.));
#681=CARTESIAN_POINT('Origin',(20.4823291443718,12.8530157676738,0.));
#682=CARTESIAN_POINT('',(23.5823291443718,12.8530157676738,0.));
#683=CARTESIAN_POINT('Origin',(22.1087337319234,16.7795037808467,0.));
#684=CARTESIAN_POINT('',(22.6087337319234,16.7795037808467,0.));
#685=CARTESIAN_POINT('Origin',(16.5558411311988,14.4794203552254,0.));
#686=CARTESIAN_POINT('',(17.0558411311988,14.4794203552254,0.));
#687=CARTESIAN_POINT('Origin',(20.4823291443718,12.8530157676738,0.));
#688=CARTESIAN_POINT('',(10.4823291443718,12.8530157676738,0.));
#689=UNCERTAINTY_MEASURE_WITH_UNIT(LENGTH_MEASURE(0.01),#693,
'DISTANCE_ACCURACY_VALUE',
'Maximum model space distance between geometric entities at asserted c
onnectivities');
#690=UNCERTAINTY_MEASURE_WITH_UNIT(LENGTH_MEASURE(0.01),#693,
'DISTANCE_ACCURACY_VALUE',
'Maximum model space distance between geometric entities at asserted c
onnectivities');
#691=(
GEOMETRIC_REPRESENTATION_CONTEXT(3)
GLOBAL_UNCERTAINTY_ASSIGNED_CONTEXT((#689))
GLOBAL_UNIT_ASSIGNED_CONTEXT((#693,#695,#696))
REPRESENTATION_CONTEXT('','3D')
);
#692=(
GEOMETRIC_REPRESENTATION_CONTEXT(3)
GLOBAL_UNCERTAINTY_ASSIGNED_CONTEXT((#690))
GLOBAL_UNIT_ASSIGNED_CONTEXT((#693,#695,#696))
REPRESENTATION_CONTEXT('','3D')
);
#693=(
LENGTH_UNIT()
NAMED_UNIT(*)
SI_UNIT(.MILLI.,.METRE.)
);
#694=(
LENGTH_UNIT()
NAMED_UNIT(*)
SI_UNIT(.CENTI.,.METRE.)
);
#695=(
NAMED_UNIT(*)
PLANE_ANGLE_UNIT()
SI_UNIT($,.RADIAN.)
);
#696=(
NAMED_UNIT(*)
SI_UNIT($,.STERADIAN.)
SOLID_ANGLE_UNIT()
);
#697=SHAPE_DEFINITION_REPRESENTATION(#698,#699);
#698=PRODUCT_DEFINITION_SHAPE('',$,#701);
#699=SHAPE_REPRESENTATION('',(#413),#691);
#700=PRODUCT_DEFINITION_CONTEXT('part definition',#705,'design');
#701=PRODUCT_DEFINITION('RimV1','RimV1',#702,#700);
#702=PRODUCT_DEFINITION_FORMATION('',$,#707);
#703=PRODUCT_RELATED_PRODUCT_CATEGORY('RimV1','RimV1',(#707));
#704=APPLICATION_PROTOCOL_DEFINITION('international standard',
'automotive_design',2009,#705);
#705=APPLICATION_CONTEXT(
'Core Data for Automotive Mechanical Design Process');
#706=PRODUCT_CONTEXT('part definition',#705,'mechanical');
#707=PRODUCT('RimV1','RimV1',$,(#706));
#708=PRESENTATION_STYLE_ASSIGNMENT((#709));
#709=SURFACE_STYLE_USAGE(.BOTH.,#712);
#710=SURFACE_STYLE_RENDERING_WITH_PROPERTIES($,#716,(#711));
#711=SURFACE_STYLE_TRANSPARENT(0.);
#712=SURFACE_SIDE_STYLE('',(#713,#710));
#713=SURFACE_STYLE_FILL_AREA(#714);
#714=FILL_AREA_STYLE('',(#715));
#715=FILL_AREA_STYLE_COLOUR('',#716);
#716=COLOUR_RGB('',0.749019607843137,0.749019607843137,0.749019607843137);
ENDSEC;
END-ISO-10303-21;
